<svg width="252" height="352" viewBox="0 0 252 352" fill="none" xmlns="http://www.w3.org/2000/svg">
<rect x="1" y="1" width="250" height="350" rx="8" fill="white"/>
<rect x="1" y="1" width="250" height="350" rx="8" stroke="#A8A8A8" stroke-opacity="0.5"/>
<path d="M31.048 49.512C29.4693 49.512 28.0933 49 26.92 47.976C25.768 46.952 24.872 45.576 24.232 43.848C23.6133 42.12 23.304 40.2213 23.304 38.152C23.304 35.6987 23.6453 33.5333 24.328 31.656C25.032 29.7787 26.0347 28.3173 27.336 27.272C28.6373 26.2267 30.1733 25.704 31.944 25.704C32.9467 25.704 33.8107 25.9173 34.536 26.344C35.2613 26.7493 35.8053 27.2827 36.168 27.944C36.552 28.6053 36.744 29.3093 36.744 30.056C36.744 30.9733 36.4773 31.752 35.944 32.392C35.4107 33.032 34.7173 33.352 33.864 33.352C33.224 33.352 32.7013 33.16 32.296 32.776C31.912 32.3707 31.72 31.848 31.72 31.208C31.72 30.2267 32.2 29.5653 33.16 29.224C33.5867 29.0747 33.9067 28.9253 34.12 28.776C34.3333 28.6267 34.44 28.4347 34.44 28.2C34.44 27.7733 34.216 27.4213 33.768 27.144C33.32 26.8667 32.7013 26.728 31.912 26.728C30.7173 26.728 29.832 27.24 29.256 28.264C28.7013 29.288 28.424 30.5147 28.424 31.944V36.52L28.616 36.616C28.9573 36.2747 29.4053 36.0187 29.96 35.848C30.5147 35.656 31.1013 35.56 31.72 35.56C33.8533 35.56 35.4427 36.1893 36.488 37.448C37.5547 38.7067 38.088 40.3173 38.088 42.28C38.088 43.496 37.832 44.6587 37.32 45.768C36.8293 46.856 36.0507 47.752 34.984 48.456C33.9387 49.16 32.6267 49.512 31.048 49.512ZM31.016 48.488C31.7413 48.488 32.264 48.2427 32.584 47.752C32.9253 47.24 33.1387 46.6 33.224 45.832C33.3093 45.0427 33.352 43.9653 33.352 42.6C33.352 40.872 33.2027 39.4747 32.904 38.408C32.6267 37.32 32.0933 36.776 31.304 36.776C30.152 36.776 29.3627 37.224 28.936 38.12C28.7227 38.5253 28.584 39.0907 28.52 39.816C28.456 40.5413 28.424 41.5227 28.424 42.76C28.424 44.7013 28.6267 46.1413 29.032 47.08C29.4373 48.0187 30.0987 48.488 31.016 48.488Z" fill="black"/>
<path d="M31 58.2761C29.0822 58.2761 27.5247 59.7138 27.5247 61.484C27.5247 62.745 28.3135 63.8362 29.4613 64.3593C29.8068 64.5167 29.4298 64.9243 29.1762 64.6601C28.5392 63.9969 27.6103 63.5783 26.5752 63.5783C24.6575 63.5783 23.1 65.016 23.1 66.7862C23.1 68.5565 24.6575 69.9913 26.5752 69.9913C28.4783 69.9913 30.0304 68.5783 30.0505 66.8267C30.054 66.516 30.5707 66.4838 30.5707 66.9019C30.5707 67.5603 29.8849 71.0572 29.5178 71.7239C29.9185 71.6306 30.5864 71.5533 31 71.5533C31.4135 71.5533 32.0814 71.6306 32.4822 71.7239C32.115 71.0572 31.4293 67.5603 31.4293 66.9019C31.4293 66.4838 31.9459 66.516 31.9495 66.8267C31.9695 68.5783 33.5217 69.9913 35.4247 69.9913C37.3425 69.9913 38.9 68.5565 38.9 66.7862C38.9 65.016 37.3425 63.5783 35.4247 63.5783C34.3897 63.5783 33.4607 63.9969 32.8238 64.6601C32.5701 64.9243 32.1932 64.5167 32.5386 64.3593C33.6864 63.8362 34.4752 62.745 34.4752 61.484C34.4752 59.7138 32.9177 58.2761 31 58.2761Z" fill="black"/>
<path d="M65 43.5522C68.8355 43.5522 71.9505 46.4276 71.9505 49.9681C71.9505 52.4899 70.3729 54.6724 68.0772 55.7186C67.3864 56.0335 68.1403 56.8485 68.6476 56.3203C69.9215 54.9937 71.7794 54.1566 73.8495 54.1566C77.685 54.1566 80.8 57.032 80.8 60.5724C80.8 64.1129 77.685 66.9825 73.8495 66.9825C70.0434 66.9825 66.9391 64.1565 66.899 60.6534C66.8919 60.032 65.8586 59.9676 65.8586 60.8039C65.8586 62.1207 67.2301 69.1144 67.9644 70.4479C67.1629 70.2613 65.827 70.1065 65 70.1065C64.1729 70.1065 62.8371 70.2613 62.0355 70.4479C62.7699 69.1144 64.1414 62.1207 64.1414 60.8039C64.1414 59.9676 63.1081 60.032 63.101 60.6534C63.0609 64.1565 59.9566 66.9825 56.1505 66.9825C52.315 66.9825 49.2 64.1129 49.2 60.5724C49.2 57.032 52.315 54.1566 56.1505 54.1566C58.2205 54.1566 60.0784 54.9937 61.3524 56.3203C61.8597 56.8485 62.6136 56.0335 61.9227 55.7186C59.6271 54.6724 58.0495 52.4899 58.0495 49.9681C58.0495 46.4276 61.1645 43.5522 65 43.5522Z" fill="black"/>
<path d="M65 162.552C61.1645 162.552 58.0495 165.428 58.0495 168.968C58.0495 171.49 59.6271 173.672 61.9228 174.719C62.6136 175.033 61.8597 175.849 61.3524 175.32C60.0785 173.994 58.2206 173.157 56.1505 173.157C52.315 173.157 49.2 176.032 49.2 179.572C49.2 183.113 52.315 185.983 56.1505 185.983C59.9566 185.983 63.0609 183.157 63.101 179.653C63.1081 179.032 64.1414 178.968 64.1414 179.804C64.1414 181.121 62.7699 188.114 62.0356 189.448C62.8371 189.261 64.173 189.107 65 189.107C65.8271 189.107 67.1629 189.261 67.9645 189.448C67.2301 188.114 65.8586 181.121 65.8586 179.804C65.8586 178.968 66.8919 179.032 66.899 179.653C66.9391 183.157 70.0434 185.983 73.8495 185.983C77.685 185.983 80.8 183.113 80.8 179.572C80.8 176.032 77.685 173.157 73.8495 173.157C71.7795 173.157 69.9216 173.994 68.6476 175.32C68.1403 175.849 67.3864 175.033 68.0773 174.719C70.3729 173.672 71.9505 171.49 71.9505 168.968C71.9505 165.428 68.8355 162.552 65 162.552Z" fill="black"/>
<path d="M187 162.552C183.165 162.552 180.05 165.428 180.05 168.968C180.05 171.49 181.627 173.672 183.923 174.719C184.614 175.033 183.86 175.849 183.352 175.32C182.078 173.994 180.221 173.157 178.151 173.157C174.315 173.157 171.2 176.032 171.2 179.572C171.2 183.113 174.315 185.983 178.151 185.983C181.957 185.983 185.061 183.157 185.101 179.653C185.108 179.032 186.141 178.968 186.141 179.804C186.141 181.121 184.77 188.114 184.036 189.448C184.837 189.261 186.173 189.107 187 189.107C187.827 189.107 189.163 189.261 189.964 189.448C189.23 188.114 187.859 181.121 187.859 179.804C187.859 178.968 188.892 179.032 188.899 179.653C188.939 183.157 192.043 185.983 195.85 185.983C199.685 185.983 202.8 183.113 202.8 179.572C202.8 176.032 199.685 173.157 195.85 173.157C193.779 173.157 191.922 173.994 190.648 175.32C190.14 175.849 189.386 175.033 190.077 174.719C192.373 173.672 193.951 171.49 193.951 168.968C193.951 165.428 190.836 162.552 187 162.552Z" fill="black"/>
<path d="M187 43.5522C190.835 43.5522 193.95 46.4276 193.95 49.9681C193.95 52.4899 192.373 54.6724 190.077 55.7186C189.386 56.0335 190.14 56.8485 190.648 56.3203C191.922 54.9937 193.779 54.1566 195.849 54.1566C199.685 54.1566 202.8 57.032 202.8 60.5724C202.8 64.1129 199.685 66.9825 195.849 66.9825C192.043 66.9825 188.939 64.1565 188.899 60.6534C188.892 60.032 187.859 59.9676 187.859 60.8039C187.859 62.1207 189.23 69.1144 189.964 70.4479C189.163 70.2613 187.827 70.1065 187 70.1065C186.173 70.1065 184.837 70.2613 184.036 70.4479C184.77 69.1144 186.141 62.1207 186.141 60.8039C186.141 59.9676 185.108 60.032 185.101 60.6534C185.061 64.1565 181.957 66.9825 178.15 66.9825C174.315 66.9825 171.2 64.1129 171.2 60.5724C171.2 57.032 174.315 54.1566 178.15 54.1566C180.221 54.1566 182.078 54.9937 183.352 56.3203C183.86 56.8485 184.614 56.0335 183.923 55.7186C181.627 54.6724 180.049 52.4899 180.049 49.9681C180.049 46.4276 183.164 43.5522 187 43.5522Z" fill="black"/>
<path d="M187 308.448C190.835 308.448 193.95 305.572 193.95 302.032C193.95 299.51 192.373 297.328 190.077 296.281C189.386 295.967 190.14 295.151 190.648 295.68C191.922 297.006 193.779 297.843 195.849 297.843C199.685 297.843 202.8 294.968 202.8 291.428C202.8 287.887 199.685 285.017 195.849 285.017C192.043 285.017 188.939 287.843 188.899 291.347C188.892 291.968 187.859 292.032 187.859 291.196C187.859 289.879 189.23 282.886 189.964 281.552C189.163 281.739 187.827 281.893 187 281.893C186.173 281.893 184.837 281.739 184.036 281.552C184.77 282.886 186.141 289.879 186.141 291.196C186.141 292.032 185.108 291.968 185.101 291.347C185.061 287.843 181.957 285.017 178.15 285.017C174.315 285.017 171.2 287.887 171.2 291.428C171.2 294.968 174.315 297.843 178.15 297.843C180.221 297.843 182.078 297.006 183.352 295.68C183.86 295.151 184.614 295.967 183.923 296.281C181.627 297.328 180.049 299.51 180.049 302.032C180.049 305.572 183.164 308.448 187 308.448Z" fill="black"/>
<path d="M65 308.448C61.1645 308.448 58.0495 305.572 58.0495 302.032C58.0495 299.51 59.6271 297.328 61.9228 296.281C62.6136 295.967 61.8597 295.151 61.3524 295.68C60.0785 297.006 58.2206 297.843 56.1505 297.843C52.315 297.843 49.2 294.968 49.2 291.428C49.2 287.887 52.315 285.017 56.1505 285.017C59.9566 285.017 63.0609 287.843 63.101 291.347C63.1081 291.968 64.1414 292.032 64.1414 291.196C64.1414 289.879 62.7699 282.886 62.0356 281.552C62.8371 281.739 64.173 281.893 65 281.893C65.8271 281.893 67.1629 281.739 67.9645 281.552C67.2301 282.886 65.8586 289.879 65.8586 291.196C65.8586 292.032 66.8919 291.968 66.899 291.347C66.9391 287.843 70.0434 285.017 73.8495 285.017C77.685 285.017 80.8 287.887 80.8 291.428C80.8 294.968 77.685 297.843 73.8495 297.843C71.7795 297.843 69.9216 297.006 68.6476 295.68C68.1403 295.151 67.3864 295.967 68.0773 296.281C70.3729 297.328 71.9505 299.51 71.9505 302.032C71.9505 305.572 68.8355 308.448 65 308.448Z" fill="black"/>
<path d="M220.952 302.488C222.531 302.488 223.907 303 225.08 304.024C226.232 305.048 227.128 306.424 227.768 308.152C228.387 309.88 228.696 311.779 228.696 313.848C228.696 316.301 228.355 318.467 227.672 320.344C226.968 322.221 225.965 323.683 224.664 324.728C223.363 325.773 221.827 326.296 220.056 326.296C219.053 326.296 218.189 326.083 217.464 325.656C216.739 325.251 216.195 324.717 215.832 324.056C215.448 323.395 215.256 322.691 215.256 321.944C215.256 321.027 215.523 320.248 216.056 319.608C216.589 318.968 217.283 318.648 218.136 318.648C218.776 318.648 219.299 318.84 219.704 319.224C220.088 319.629 220.28 320.152 220.28 320.792C220.28 321.773 219.8 322.435 218.84 322.776C218.413 322.925 218.093 323.075 217.88 323.224C217.667 323.373 217.56 323.565 217.56 323.8C217.56 324.227 217.784 324.579 218.232 324.856C218.68 325.133 219.299 325.272 220.088 325.272C221.283 325.272 222.168 324.76 222.744 323.736C223.299 322.712 223.576 321.485 223.576 320.056V315.48L223.384 315.384C223.043 315.725 222.595 315.981 222.04 316.152C221.485 316.344 220.899 316.44 220.28 316.44C218.147 316.44 216.557 315.811 215.512 314.552C214.445 313.293 213.912 311.683 213.912 309.72C213.912 308.504 214.168 307.341 214.68 306.232C215.171 305.144 215.949 304.248 217.016 303.544C218.061 302.84 219.373 302.488 220.952 302.488ZM220.984 303.512C220.259 303.512 219.736 303.757 219.416 304.248C219.075 304.76 218.861 305.4 218.776 306.168C218.691 306.957 218.648 308.035 218.648 309.4C218.648 311.128 218.797 312.525 219.096 313.592C219.373 314.68 219.907 315.224 220.696 315.224C221.848 315.224 222.637 314.776 223.064 313.88C223.277 313.475 223.416 312.909 223.48 312.184C223.544 311.459 223.576 310.477 223.576 309.24C223.576 307.299 223.373 305.859 222.968 304.92C222.563 303.981 221.901 303.512 220.984 303.512Z" fill="black"/>
<path d="M221 293.724C219.082 293.724 217.525 292.286 217.525 290.516C217.525 289.255 218.314 288.164 219.461 287.641C219.807 287.483 219.43 287.076 219.176 287.34C218.539 288.003 217.61 288.422 216.575 288.422C214.657 288.422 213.1 286.984 213.1 285.214C213.1 283.444 214.657 282.009 216.575 282.009C218.478 282.009 220.03 283.422 220.05 285.173C220.054 285.484 220.571 285.516 220.571 285.098C220.571 284.44 219.885 280.943 219.518 280.276C219.919 280.369 220.586 280.447 221 280.447C221.414 280.447 222.081 280.369 222.482 280.276C222.115 280.943 221.429 284.44 221.429 285.098C221.429 285.516 221.946 285.484 221.949 285.173C221.97 283.422 223.522 282.009 225.425 282.009C227.342 282.009 228.9 283.444 228.9 285.214C228.9 286.984 227.342 288.422 225.425 288.422C224.39 288.422 223.461 288.003 222.824 287.34C222.57 287.076 222.193 287.483 222.539 287.641C223.686 288.164 224.475 289.255 224.475 290.516C224.475 292.286 222.918 293.724 221 293.724Z" fill="black"/>
</svg>
