<svg width="252" height="352" viewBox="0 0 252 352" fill="none" xmlns="http://www.w3.org/2000/svg">
<rect x="1" y="1" width="250" height="350" rx="8" fill="white"/>
<rect x="1" y="1" width="250" height="350" rx="8" stroke="#A8A8A8" stroke-opacity="0.5"/>
<path d="M29.096 49.512C27.2613 49.512 25.7467 49.064 24.552 48.168C23.3787 47.2507 22.792 46.024 22.792 44.488C22.792 43.6133 23.08 42.856 23.656 42.216C24.2533 41.5547 24.9893 41.224 25.864 41.224C26.5893 41.224 27.1653 41.4267 27.592 41.832C28.0187 42.2373 28.232 42.7387 28.232 43.336C28.232 44.3813 27.7413 45.1173 26.76 45.544C26.5253 45.6507 26.312 45.8 26.12 45.992C25.9493 46.184 25.864 46.3973 25.864 46.632C25.864 47.208 26.1413 47.6667 26.696 48.008C27.272 48.328 28.04 48.488 29 48.488C31.2613 48.488 32.392 46.6 32.392 42.824C32.392 41.0533 32.0827 39.7413 31.464 38.888C30.8453 38.0347 30.0773 37.608 29.16 37.608H25.928V36.456H29.096C30.0987 36.456 30.824 36.0827 31.272 35.336C31.7413 34.568 31.976 33.384 31.976 31.784C31.976 29.8427 31.7413 28.52 31.272 27.816C30.824 27.0907 30.1307 26.728 29.192 26.728C28.3813 26.728 27.688 26.9627 27.112 27.432C26.536 27.88 26.248 28.4667 26.248 29.192C26.248 29.6613 26.568 30.1093 27.208 30.536C27.9547 31.0267 28.328 31.6667 28.328 32.456C28.328 32.968 28.136 33.416 27.752 33.8C27.3893 34.184 26.888 34.376 26.248 34.376C25.4587 34.376 24.776 34.0667 24.2 33.448C23.6453 32.808 23.368 32.008 23.368 31.048C23.368 29.9813 23.6453 29.0427 24.2 28.232C24.7547 27.4213 25.5013 26.8027 26.44 26.376C27.4 25.928 28.4453 25.704 29.576 25.704C31.7307 25.704 33.4693 26.216 34.792 27.24C36.1147 28.264 36.776 29.6507 36.776 31.4C36.776 32.9147 36.2533 34.12 35.208 35.016C34.184 35.912 32.9573 36.5093 31.528 36.808V37.096C32.5307 37.1813 33.4907 37.4907 34.408 38.024C35.3253 38.536 36.072 39.2187 36.648 40.072C37.224 40.9253 37.512 41.8853 37.512 42.952C37.512 45.064 36.744 46.6853 35.208 47.816C33.6933 48.9467 31.656 49.512 29.096 49.512Z" fill="black"/>
<path d="M31 58.2761C29.0822 58.2761 27.5247 59.7138 27.5247 61.484C27.5247 62.745 28.3135 63.8362 29.4613 64.3593C29.8068 64.5167 29.4298 64.9243 29.1762 64.6601C28.5392 63.9969 27.6103 63.5783 26.5752 63.5783C24.6575 63.5783 23.1 65.016 23.1 66.7862C23.1 68.5565 24.6575 69.9913 26.5752 69.9913C28.4783 69.9913 30.0304 68.5783 30.0505 66.8267C30.054 66.516 30.5707 66.4838 30.5707 66.9019C30.5707 67.5603 29.8849 71.0572 29.5178 71.7239C29.9185 71.6306 30.5864 71.5533 31 71.5533C31.4135 71.5533 32.0814 71.6306 32.4822 71.7239C32.115 71.0572 31.4293 67.5603 31.4293 66.9019C31.4293 66.4838 31.9459 66.516 31.9495 66.8267C31.9695 68.5783 33.5217 69.9913 35.4247 69.9913C37.3425 69.9913 38.9 68.5565 38.9 66.7862C38.9 65.016 37.3425 63.5783 35.4247 63.5783C34.3897 63.5783 33.4607 63.9969 32.8238 64.6601C32.5701 64.9243 32.1932 64.5167 32.5386 64.3593C33.6864 63.8362 34.4752 62.745 34.4752 61.484C34.4752 59.7138 32.9177 58.2761 31 58.2761Z" fill="black"/>
<path d="M126 59.5522C122.165 59.5522 119.05 62.4276 119.05 65.968C119.05 68.4899 120.627 70.6723 122.923 71.7186C123.614 72.0334 122.86 72.8485 122.352 72.3202C121.078 70.9936 119.221 70.1565 117.151 70.1565C113.315 70.1565 110.2 73.0319 110.2 76.5724C110.2 80.1128 113.315 82.9824 117.151 82.9824C120.957 82.9824 124.061 80.1565 124.101 76.6534C124.108 76.0319 125.141 75.9676 125.141 76.8038C125.141 78.1206 123.77 85.1144 123.036 86.4478C123.837 86.2612 125.173 86.1065 126 86.1065C126.827 86.1065 128.163 86.2612 128.964 86.4478C128.23 85.1144 126.859 78.1206 126.859 76.8038C126.859 75.9676 127.892 76.0319 127.899 76.6534C127.939 80.1565 131.043 82.9824 134.85 82.9824C138.685 82.9824 141.8 80.1128 141.8 76.5724C141.8 73.0319 138.685 70.1565 134.85 70.1565C132.779 70.1565 130.922 70.9936 129.648 72.3202C129.14 72.8485 128.386 72.0334 129.077 71.7186C131.373 70.6723 132.951 68.4899 132.951 65.968C132.951 62.4276 129.836 59.5522 126 59.5522Z" fill="black"/>
<path d="M126 162.552C122.165 162.552 119.05 165.428 119.05 168.968C119.05 171.49 120.627 173.672 122.923 174.719C123.614 175.033 122.86 175.848 122.352 175.32C121.078 173.994 119.221 173.157 117.151 173.157C113.315 173.157 110.2 176.032 110.2 179.572C110.2 183.113 113.315 185.982 117.151 185.982C120.957 185.982 124.061 183.156 124.101 179.653C124.108 179.032 125.141 178.968 125.141 179.804C125.141 181.121 123.77 188.114 123.036 189.448C123.837 189.261 125.173 189.106 126 189.106C126.827 189.106 128.163 189.261 128.964 189.448C128.23 188.114 126.859 181.121 126.859 179.804C126.859 178.968 127.892 179.032 127.899 179.653C127.939 183.156 131.043 185.982 134.85 185.982C138.685 185.982 141.8 183.113 141.8 179.572C141.8 176.032 138.685 173.157 134.85 173.157C132.779 173.157 130.922 173.994 129.648 175.32C129.14 175.848 128.386 175.033 129.077 174.719C131.373 173.672 132.951 171.49 132.951 168.968C132.951 165.428 129.836 162.552 126 162.552Z" fill="black"/>
<path d="M126 292.448C122.165 292.448 119.05 289.572 119.05 286.032C119.05 283.51 120.627 281.328 122.923 280.281C123.614 279.967 122.86 279.151 122.352 279.68C121.078 281.006 119.221 281.843 117.151 281.843C113.315 281.843 110.2 278.968 110.2 275.428C110.2 271.887 113.315 269.017 117.151 269.017C120.957 269.017 124.061 271.843 124.101 275.347C124.108 275.968 125.141 276.032 125.141 275.196C125.141 273.879 123.77 266.886 123.036 265.552C123.837 265.739 125.173 265.893 126 265.893C126.827 265.893 128.163 265.739 128.964 265.552C128.23 266.886 126.859 273.879 126.859 275.196C126.859 276.032 127.892 275.968 127.899 275.347C127.939 271.843 131.043 269.017 134.85 269.017C138.685 269.017 141.8 271.887 141.8 275.428C141.8 278.968 138.685 281.843 134.85 281.843C132.779 281.843 130.922 281.006 129.648 279.68C129.14 279.151 128.386 279.967 129.077 280.281C131.373 281.328 132.951 283.51 132.951 286.032C132.951 289.572 129.836 292.448 126 292.448Z" fill="black"/>
<path d="M222.904 302.488C224.739 302.488 226.253 302.936 227.448 303.832C228.621 304.749 229.208 305.976 229.208 307.512C229.208 308.387 228.92 309.144 228.344 309.784C227.747 310.445 227.011 310.776 226.136 310.776C225.411 310.776 224.835 310.573 224.408 310.168C223.981 309.763 223.768 309.261 223.768 308.664C223.768 307.619 224.259 306.883 225.24 306.456C225.475 306.349 225.688 306.2 225.88 306.008C226.051 305.816 226.136 305.603 226.136 305.368C226.136 304.792 225.859 304.333 225.304 303.992C224.728 303.672 223.96 303.512 223 303.512C220.739 303.512 219.608 305.4 219.608 309.176C219.608 310.947 219.917 312.259 220.536 313.112C221.155 313.965 221.923 314.392 222.84 314.392H226.072V315.544H222.904C221.901 315.544 221.176 315.917 220.728 316.664C220.259 317.432 220.024 318.616 220.024 320.216C220.024 322.157 220.259 323.48 220.728 324.184C221.176 324.909 221.869 325.272 222.808 325.272C223.619 325.272 224.312 325.037 224.888 324.568C225.464 324.12 225.752 323.533 225.752 322.808C225.752 322.339 225.432 321.891 224.792 321.464C224.045 320.973 223.672 320.333 223.672 319.544C223.672 319.032 223.864 318.584 224.248 318.2C224.611 317.816 225.112 317.624 225.752 317.624C226.541 317.624 227.224 317.933 227.8 318.552C228.355 319.192 228.632 319.992 228.632 320.952C228.632 322.019 228.355 322.957 227.8 323.768C227.245 324.579 226.499 325.197 225.56 325.624C224.6 326.072 223.555 326.296 222.424 326.296C220.269 326.296 218.531 325.784 217.208 324.76C215.885 323.736 215.224 322.349 215.224 320.6C215.224 319.085 215.747 317.88 216.792 316.984C217.816 316.088 219.043 315.491 220.472 315.192V314.904C219.469 314.819 218.509 314.509 217.592 313.976C216.675 313.464 215.928 312.781 215.352 311.928C214.776 311.075 214.488 310.115 214.488 309.048C214.488 306.936 215.256 305.315 216.792 304.184C218.307 303.053 220.344 302.488 222.904 302.488Z" fill="black"/>
<path d="M221 293.724C219.082 293.724 217.525 292.286 217.525 290.516C217.525 289.255 218.314 288.164 219.461 287.641C219.807 287.483 219.43 287.076 219.176 287.34C218.539 288.003 217.61 288.422 216.575 288.422C214.657 288.422 213.1 286.984 213.1 285.214C213.1 283.444 214.657 282.009 216.575 282.009C218.478 282.009 220.03 283.422 220.05 285.173C220.054 285.484 220.571 285.516 220.571 285.098C220.571 284.44 219.885 280.943 219.518 280.276C219.919 280.369 220.586 280.447 221 280.447C221.414 280.447 222.081 280.369 222.482 280.276C222.115 280.943 221.429 284.44 221.429 285.098C221.429 285.516 221.946 285.484 221.949 285.173C221.97 283.422 223.522 282.009 225.425 282.009C227.342 282.009 228.9 283.444 228.9 285.214C228.9 286.984 227.342 288.422 225.425 288.422C224.39 288.422 223.461 288.003 222.824 287.34C222.57 287.076 222.193 287.483 222.539 287.641C223.686 288.164 224.475 289.255 224.475 290.516C224.475 292.286 222.918 293.724 221 293.724Z" fill="black"/>
</svg>
