<svg width="252" height="352" viewBox="0 0 252 352" fill="none" xmlns="http://www.w3.org/2000/svg">
<rect x="1" y="1" width="250" height="350" rx="8" fill="white"/>
<rect x="1" y="1" width="250" height="350" rx="8" stroke="#A8A8A8" stroke-opacity="0.5"/>
<path d="M22.408 47.976H23.496C24.136 47.976 24.7013 47.7307 25.192 47.24C25.6827 46.728 26.056 46.1093 26.312 45.384L33.064 25.64H34.408L41.256 46.344C41.6187 47.432 42.248 47.976 43.144 47.976H44.424V49H33.192V47.976H35.496C35.752 47.976 35.9547 47.88 36.104 47.688C36.2747 47.4747 36.36 47.2293 36.36 46.952C36.36 46.7173 36.296 46.408 36.168 46.024L35.144 42.952H28.424L27.752 44.904C27.5173 45.5013 27.4 46.0453 27.4 46.536C27.4 46.92 27.5493 47.2613 27.848 47.56C28.168 47.8373 28.5733 47.976 29.064 47.976H30.568V49H22.408V47.976ZM28.84 41.768H34.76L31.848 32.968L28.84 41.768Z" fill="black"/>
<path d="M37 59.5522C33.1645 59.5522 30.0495 62.4276 30.0495 65.968C30.0495 68.4899 31.6271 70.6723 33.9228 71.7186C34.6136 72.0334 33.8597 72.8485 33.3524 72.3202C32.0785 70.9936 30.2206 70.1565 28.1505 70.1565C24.315 70.1565 21.2 73.0319 21.2 76.5724C21.2 80.1129 24.315 82.9824 28.1505 82.9824C31.9566 82.9824 35.0609 80.1565 35.101 76.6534C35.1081 76.0319 36.1414 75.9676 36.1414 76.8038C36.1414 78.1206 34.7699 85.1144 34.0356 86.4478C34.8371 86.2612 36.173 86.1065 37 86.1065C37.8271 86.1065 39.1629 86.2612 39.9645 86.4478C39.2301 85.1144 37.8586 78.1206 37.8586 76.8038C37.8586 75.9676 38.8919 76.0319 38.899 76.6534C38.9391 80.1565 42.0434 82.9824 45.8495 82.9824C49.685 82.9824 52.8 80.1129 52.8 76.5724C52.8 73.0319 49.685 70.1565 45.8495 70.1565C43.7795 70.1565 41.9216 70.9936 40.6476 72.3202C40.1403 72.8485 39.3864 72.0334 40.0773 71.7186C42.3729 70.6723 43.9505 68.4899 43.9505 65.968C43.9505 62.4276 40.8355 59.5522 37 59.5522Z" fill="black"/>
<path d="M126 122.209C110.658 122.209 98.198 133.71 98.198 147.872C98.1981 157.96 104.508 166.689 113.691 170.874C116.454 172.134 113.439 175.394 111.41 173.281C106.314 167.975 98.8823 164.626 90.602 164.626C75.26 164.626 62.8 176.128 62.8 190.29C62.8 204.451 75.2601 215.93 90.602 215.93C105.826 215.93 118.244 204.626 118.404 190.614C118.432 188.128 122.566 187.87 122.566 191.215C122.566 196.483 117.08 224.457 114.142 229.791C117.348 229.045 122.692 228.426 126 228.426C129.308 228.426 134.652 229.045 137.858 229.791C134.92 224.457 129.435 196.483 129.435 191.215C129.435 187.87 133.568 188.128 133.596 190.614C133.756 204.626 146.174 215.93 161.398 215.93C176.74 215.93 189.2 204.451 189.2 190.29C189.2 176.128 176.74 164.626 161.398 164.626C153.118 164.626 145.686 167.975 140.59 173.281C138.561 175.394 135.546 172.134 138.309 170.874C147.492 166.689 153.802 157.96 153.802 147.872C153.802 133.71 141.342 122.209 126 122.209Z" fill="black"/>
<path d="M222.592 304.024H221.504C220.864 304.024 220.299 304.269 219.808 304.76C219.317 305.272 218.944 305.891 218.688 306.616L211.936 326.36H210.592L203.744 305.656C203.381 304.568 202.752 304.024 201.856 304.024H200.576V303H211.808V304.024H209.504C209.248 304.024 209.045 304.12 208.896 304.312C208.725 304.525 208.64 304.771 208.64 305.048C208.64 305.283 208.704 305.592 208.832 305.976L209.856 309.048H216.576L217.248 307.096C217.483 306.499 217.6 305.955 217.6 305.464C217.6 305.08 217.451 304.739 217.152 304.44C216.832 304.163 216.427 304.024 215.936 304.024H214.432V303H222.592V304.024ZM216.16 310.232H210.24L213.152 319.032L216.16 310.232Z" fill="black"/>
<path d="M215 292.448C211.165 292.448 208.05 289.572 208.05 286.032C208.05 283.51 209.627 281.328 211.923 280.281C212.614 279.967 211.86 279.152 211.352 279.68C210.078 281.006 208.221 281.843 206.151 281.843C202.315 281.843 199.2 278.968 199.2 275.428C199.2 271.887 202.315 269.018 206.151 269.018C209.957 269.018 213.061 271.844 213.101 275.347C213.108 275.968 214.141 276.032 214.141 275.196C214.141 273.879 212.77 266.886 212.036 265.552C212.837 265.739 214.173 265.894 215 265.894C215.827 265.894 217.163 265.739 217.964 265.552C217.23 266.886 215.859 273.879 215.859 275.196C215.859 276.032 216.892 275.968 216.899 275.347C216.939 271.844 220.043 269.018 223.85 269.018C227.685 269.018 230.8 271.887 230.8 275.428C230.8 278.968 227.685 281.843 223.85 281.843C221.779 281.843 219.922 281.006 218.648 279.68C218.14 279.152 217.386 279.967 218.077 280.281C220.373 281.328 221.951 283.51 221.951 286.032C221.951 289.572 218.836 292.448 215 292.448Z" fill="black"/>
<line x1="60" y1="36.5" x2="215" y2="36.5" stroke="black"/>
<line x1="215.5" y1="36" x2="215.5" y2="259" stroke="black"/>
<line x1="192" y1="315.5" x2="37" y2="315.5" stroke="black"/>
<line x1="36.5" y1="316" x2="36.5" y2="93" stroke="black"/>
</svg>
