<svg width="252" height="352" viewBox="0 0 252 352" fill="none" xmlns="http://www.w3.org/2000/svg">
<rect x="1" y="1" width="250" height="350" rx="8" fill="white"/>
<rect x="1" y="1" width="250" height="350" rx="8" stroke="#A8A8A8" stroke-opacity="0.5"/>
<path d="M29.544 49.512C28.3493 49.512 27.2827 49.2987 26.344 48.872C25.4267 48.424 24.712 47.8267 24.2 47.08C23.688 46.312 23.432 45.48 23.432 44.584C23.432 43.9227 23.5813 43.336 23.88 42.824C24.2 42.2907 24.5947 41.8853 25.064 41.608C25.5547 41.3093 26.0453 41.16 26.536 41.16C27.2187 41.16 27.7413 41.3733 28.104 41.8C28.4667 42.2053 28.648 42.6853 28.648 43.24C28.648 44.0933 28.1893 44.7547 27.272 45.224C26.632 45.4587 26.312 45.9067 26.312 46.568C26.312 47.0587 26.5787 47.5067 27.112 47.912C27.6667 48.296 28.4453 48.488 29.448 48.488C30.664 48.488 31.4533 47.9013 31.816 46.728C32.2 45.5547 32.392 43.9547 32.392 41.928C32.392 40.392 32.3067 39.176 32.136 38.28C31.9653 37.3627 31.656 36.68 31.208 36.232C30.76 35.784 30.12 35.56 29.288 35.56C28.8827 35.56 28.4027 35.7093 27.848 36.008C27.2933 36.2853 26.7813 36.68 26.312 37.192C25.864 37.6827 25.5653 38.2267 25.416 38.824H24.584V26.504L25.224 26.088C26.5467 26.8987 28.0187 27.304 29.64 27.304C30.472 27.304 31.3893 27.1653 32.392 26.888C33.416 26.5893 34.312 26.1947 35.08 25.704L35.656 26.28C34.5253 27.9653 33.096 29.2133 31.368 30.024C29.6613 30.8133 27.8267 31.208 25.864 31.208V36.2L26.056 36.264C26.632 35.6667 27.2507 35.2293 27.912 34.952C28.5733 34.6747 29.32 34.536 30.152 34.536C31.624 34.536 32.9147 34.8347 34.024 35.432C35.1333 36.0293 35.9867 36.8827 36.584 37.992C37.2027 39.1013 37.512 40.3813 37.512 41.832C37.512 43.3893 37.1493 44.7547 36.424 45.928C35.6987 47.08 34.728 47.9653 33.512 48.584C32.296 49.2027 30.9733 49.512 29.544 49.512Z" fill="black"/>
<path d="M31 58.2761C29.0822 58.2761 27.5247 59.7138 27.5247 61.484C27.5247 62.745 28.3135 63.8362 29.4613 64.3593C29.8068 64.5167 29.4298 64.9243 29.1762 64.6601C28.5392 63.9969 27.6103 63.5783 26.5752 63.5783C24.6575 63.5783 23.1 65.016 23.1 66.7862C23.1 68.5565 24.6575 69.9913 26.5752 69.9913C28.4783 69.9913 30.0304 68.5783 30.0505 66.8267C30.054 66.516 30.5707 66.4838 30.5707 66.9019C30.5707 67.5603 29.8849 71.0572 29.5178 71.7239C29.9185 71.6306 30.5864 71.5533 31 71.5533C31.4135 71.5533 32.0814 71.6306 32.4822 71.7239C32.115 71.0572 31.4293 67.5603 31.4293 66.9019C31.4293 66.4838 31.9459 66.516 31.9495 66.8267C31.9695 68.5783 33.5217 69.9913 35.4247 69.9913C37.3425 69.9913 38.9 68.5565 38.9 66.7862C38.9 65.016 37.3425 63.5783 35.4247 63.5783C34.3897 63.5783 33.4607 63.9969 32.8238 64.6601C32.5701 64.9243 32.1932 64.5167 32.5386 64.3593C33.6864 63.8362 34.4752 62.745 34.4752 61.484C34.4752 59.7138 32.9177 58.2761 31 58.2761Z" fill="black"/>
<path d="M65 43.5522C68.8355 43.5522 71.9505 46.4276 71.9505 49.9681C71.9505 52.4899 70.3729 54.6724 68.0772 55.7186C67.3864 56.0335 68.1403 56.8485 68.6476 56.3203C69.9215 54.9937 71.7794 54.1566 73.8495 54.1566C77.685 54.1566 80.8 57.032 80.8 60.5724C80.8 64.1129 77.685 66.9825 73.8495 66.9825C70.0434 66.9825 66.9391 64.1565 66.899 60.6534C66.8919 60.032 65.8586 59.9676 65.8586 60.8039C65.8586 62.1207 67.2301 69.1144 67.9644 70.4479C67.1629 70.2613 65.827 70.1065 65 70.1065C64.1729 70.1065 62.8371 70.2613 62.0355 70.4479C62.7699 69.1144 64.1414 62.1207 64.1414 60.8039C64.1414 59.9676 63.1081 60.032 63.101 60.6534C63.0609 64.1565 59.9566 66.9825 56.1505 66.9825C52.315 66.9825 49.2 64.1129 49.2 60.5724C49.2 57.032 52.315 54.1566 56.1505 54.1566C58.2205 54.1566 60.0784 54.9937 61.3524 56.3203C61.8597 56.8485 62.6136 56.0335 61.9227 55.7186C59.6271 54.6724 58.0495 52.4899 58.0495 49.9681C58.0495 46.4276 61.1645 43.5522 65 43.5522Z" fill="black"/>
<path d="M126 162.552C122.165 162.552 119.05 165.428 119.05 168.968C119.05 171.49 120.627 173.672 122.923 174.719C123.614 175.033 122.86 175.849 122.352 175.32C121.078 173.994 119.221 173.157 117.151 173.157C113.315 173.157 110.2 176.032 110.2 179.572C110.2 183.113 113.315 185.983 117.151 185.983C120.957 185.983 124.061 183.157 124.101 179.653C124.108 179.032 125.141 178.968 125.141 179.804C125.141 181.121 123.77 188.114 123.036 189.448C123.837 189.261 125.173 189.107 126 189.107C126.827 189.107 128.163 189.261 128.964 189.448C128.23 188.114 126.859 181.121 126.859 179.804C126.859 178.968 127.892 179.032 127.899 179.653C127.939 183.157 131.043 185.983 134.85 185.983C138.685 185.983 141.8 183.113 141.8 179.572C141.8 176.032 138.685 173.157 134.85 173.157C132.779 173.157 130.922 173.994 129.648 175.32C129.14 175.849 128.386 175.033 129.077 174.719C131.373 173.672 132.951 171.49 132.951 168.968C132.951 165.428 129.836 162.552 126 162.552Z" fill="black"/>
<path d="M187 43.5522C190.835 43.5522 193.95 46.4276 193.95 49.9681C193.95 52.4899 192.373 54.6724 190.077 55.7186C189.386 56.0335 190.14 56.8485 190.648 56.3203C191.922 54.9937 193.779 54.1566 195.849 54.1566C199.685 54.1566 202.8 57.032 202.8 60.5724C202.8 64.1129 199.685 66.9825 195.849 66.9825C192.043 66.9825 188.939 64.1565 188.899 60.6534C188.892 60.032 187.859 59.9676 187.859 60.8039C187.859 62.1207 189.23 69.1144 189.964 70.4479C189.163 70.2613 187.827 70.1065 187 70.1065C186.173 70.1065 184.837 70.2613 184.036 70.4479C184.77 69.1144 186.141 62.1207 186.141 60.8039C186.141 59.9676 185.108 60.032 185.101 60.6534C185.061 64.1565 181.957 66.9825 178.15 66.9825C174.315 66.9825 171.2 64.1129 171.2 60.5724C171.2 57.032 174.315 54.1566 178.15 54.1566C180.221 54.1566 182.078 54.9937 183.352 56.3203C183.86 56.8485 184.614 56.0335 183.923 55.7186C181.627 54.6724 180.049 52.4899 180.049 49.9681C180.049 46.4276 183.164 43.5522 187 43.5522Z" fill="black"/>
<path d="M187 308.448C190.835 308.448 193.95 305.572 193.95 302.032C193.95 299.51 192.373 297.328 190.077 296.281C189.386 295.967 190.14 295.151 190.648 295.68C191.922 297.006 193.779 297.843 195.849 297.843C199.685 297.843 202.8 294.968 202.8 291.428C202.8 287.887 199.685 285.017 195.849 285.017C192.043 285.017 188.939 287.843 188.899 291.347C188.892 291.968 187.859 292.032 187.859 291.196C187.859 289.879 189.23 282.886 189.964 281.552C189.163 281.739 187.827 281.893 187 281.893C186.173 281.893 184.837 281.739 184.036 281.552C184.77 282.886 186.141 289.879 186.141 291.196C186.141 292.032 185.108 291.968 185.101 291.347C185.061 287.843 181.957 285.017 178.15 285.017C174.315 285.017 171.2 287.887 171.2 291.428C171.2 294.968 174.315 297.843 178.15 297.843C180.221 297.843 182.078 297.006 183.352 295.68C183.86 295.151 184.614 295.967 183.923 296.281C181.627 297.328 180.049 299.51 180.049 302.032C180.049 305.572 183.164 308.448 187 308.448Z" fill="black"/>
<path d="M65 308.448C61.1645 308.448 58.0495 305.572 58.0495 302.032C58.0495 299.51 59.6271 297.328 61.9228 296.281C62.6136 295.967 61.8597 295.151 61.3524 295.68C60.0785 297.006 58.2206 297.843 56.1505 297.843C52.315 297.843 49.2 294.968 49.2 291.428C49.2 287.887 52.315 285.017 56.1505 285.017C59.9566 285.017 63.0609 287.843 63.101 291.347C63.1081 291.968 64.1414 292.032 64.1414 291.196C64.1414 289.879 62.7699 282.886 62.0356 281.552C62.8371 281.739 64.173 281.893 65 281.893C65.8271 281.893 67.1629 281.739 67.9645 281.552C67.2301 282.886 65.8586 289.879 65.8586 291.196C65.8586 292.032 66.8919 291.968 66.899 291.347C66.9391 287.843 70.0434 285.017 73.8495 285.017C77.685 285.017 80.8 287.887 80.8 291.428C80.8 294.968 77.685 297.843 73.8495 297.843C71.7795 297.843 69.9216 297.006 68.6476 295.68C68.1403 295.151 67.3864 295.967 68.0773 296.281C70.3729 297.328 71.9505 299.51 71.9505 302.032C71.9505 305.572 68.8355 308.448 65 308.448Z" fill="black"/>
<path d="M222.456 302.488C223.651 302.488 224.717 302.701 225.656 303.128C226.573 303.576 227.288 304.173 227.8 304.92C228.312 305.688 228.568 306.52 228.568 307.416C228.568 308.077 228.419 308.664 228.12 309.176C227.8 309.709 227.405 310.115 226.936 310.392C226.445 310.691 225.955 310.84 225.464 310.84C224.781 310.84 224.259 310.627 223.896 310.2C223.533 309.795 223.352 309.315 223.352 308.76C223.352 307.907 223.811 307.245 224.728 306.776C225.368 306.541 225.688 306.093 225.688 305.432C225.688 304.941 225.421 304.493 224.888 304.088C224.333 303.704 223.555 303.512 222.552 303.512C221.336 303.512 220.547 304.099 220.184 305.272C219.8 306.445 219.608 308.045 219.608 310.072C219.608 311.608 219.693 312.824 219.864 313.72C220.035 314.637 220.344 315.32 220.792 315.768C221.24 316.216 221.88 316.44 222.712 316.44C223.117 316.44 223.597 316.291 224.152 315.992C224.707 315.715 225.219 315.32 225.688 314.808C226.136 314.317 226.435 313.773 226.584 313.176H227.416V325.496L226.776 325.912C225.453 325.101 223.981 324.696 222.36 324.696C221.528 324.696 220.611 324.835 219.608 325.112C218.584 325.411 217.688 325.805 216.92 326.296L216.344 325.72C217.475 324.035 218.904 322.787 220.632 321.976C222.339 321.187 224.173 320.792 226.136 320.792V315.8L225.944 315.736C225.368 316.333 224.749 316.771 224.088 317.048C223.427 317.325 222.68 317.464 221.848 317.464C220.376 317.464 219.085 317.165 217.976 316.568C216.867 315.971 216.013 315.117 215.416 314.008C214.797 312.899 214.488 311.619 214.488 310.168C214.488 308.611 214.851 307.245 215.576 306.072C216.301 304.92 217.272 304.035 218.488 303.416C219.704 302.797 221.027 302.488 222.456 302.488Z" fill="black"/>
<path d="M221 293.724C219.082 293.724 217.525 292.286 217.525 290.516C217.525 289.255 218.314 288.164 219.461 287.641C219.807 287.483 219.43 287.076 219.176 287.34C218.539 288.003 217.61 288.422 216.575 288.422C214.657 288.422 213.1 286.984 213.1 285.214C213.1 283.444 214.657 282.009 216.575 282.009C218.478 282.009 220.03 283.422 220.05 285.173C220.054 285.484 220.571 285.516 220.571 285.098C220.571 284.44 219.885 280.943 219.518 280.276C219.919 280.369 220.586 280.447 221 280.447C221.414 280.447 222.081 280.369 222.482 280.276C222.115 280.943 221.429 284.44 221.429 285.098C221.429 285.516 221.946 285.484 221.949 285.173C221.97 283.422 223.522 282.009 225.425 282.009C227.342 282.009 228.9 283.444 228.9 285.214C228.9 286.984 227.342 288.422 225.425 288.422C224.39 288.422 223.461 288.003 222.824 287.34C222.57 287.076 222.193 287.483 222.539 287.641C223.686 288.164 224.475 289.255 224.475 290.516C224.475 292.286 222.918 293.724 221 293.724Z" fill="black"/>
</svg>
