<svg width="252" height="352" viewBox="0 0 252 352" fill="none" xmlns="http://www.w3.org/2000/svg">
<rect x="1" y="1" width="250" height="350" rx="8" fill="white"/>
<rect x="1" y="1" width="250" height="350" rx="8" stroke="#A8A8A8" stroke-opacity="0.5"/>
<path d="M34.848 45.576C33.8027 45.576 32.8427 45.3627 31.968 44.936C31.1147 44.5093 30.432 43.8907 29.92 43.08C29.408 42.248 29.152 41.2453 29.152 40.072C29.152 39.3253 29.2907 38.6747 29.568 38.12C29.8453 37.544 30.208 37.1067 30.656 36.808C31.104 36.488 31.5627 36.328 32.032 36.328C32.7147 36.328 33.2587 36.552 33.664 37C34.0907 37.4267 34.304 37.9387 34.304 38.536C34.304 39.2613 34.112 39.848 33.728 40.296C33.344 40.7227 32.8853 41.032 32.352 41.224C31.9893 41.352 31.7227 41.5227 31.552 41.736C31.4027 41.928 31.328 42.2053 31.328 42.568C31.328 42.8453 31.456 43.144 31.712 43.464C31.9893 43.784 32.3627 44.0507 32.832 44.264C33.3227 44.456 33.8667 44.552 34.464 44.552C36.0853 44.552 36.896 43.3147 36.896 40.84V24.008C36.896 23.7093 36.8427 23.5067 36.736 23.4C36.6293 23.2933 36.4267 23.24 36.128 23.24H33.568V22.216H44.384V23.24H42.4C42.1227 23.24 41.92 23.2933 41.792 23.4C41.6853 23.5067 41.632 23.7093 41.632 24.008V38.792C41.632 40.1787 41.3013 41.384 40.64 42.408C39.9787 43.432 39.1253 44.2213 38.08 44.776C37.056 45.3093 35.9787 45.576 34.848 45.576Z" fill="black"/>
<path d="M37 59.5522C33.1645 59.5522 30.0495 62.4276 30.0495 65.9681C30.0495 68.4899 31.6271 70.6724 33.9228 71.7186C34.6136 72.0335 33.8597 72.8485 33.3524 72.3203C32.0785 70.9937 30.2206 70.1566 28.1505 70.1566C24.315 70.1566 21.2 73.032 21.2 76.5724C21.2 80.1129 24.315 82.9825 28.1505 82.9825C31.9566 82.9825 35.0609 80.1565 35.101 76.6534C35.1081 76.032 36.1414 75.9676 36.1414 76.8039C36.1414 78.1207 34.7699 85.1144 34.0356 86.4479C34.8371 86.2613 36.173 86.1065 37 86.1065C37.8271 86.1065 39.1629 86.2613 39.9645 86.4479C39.2301 85.1144 37.8586 78.1207 37.8586 76.8039C37.8586 75.9676 38.8919 76.032 38.899 76.6534C38.9391 80.1565 42.0434 82.9825 45.8495 82.9825C49.685 82.9825 52.8 80.1129 52.8 76.5724C52.8 73.032 49.685 70.1566 45.8495 70.1566C43.7795 70.1566 41.9216 70.9937 40.6476 72.3203C40.1403 72.8485 39.3864 72.0335 40.0773 71.7186C42.3729 70.6724 43.9505 68.4899 43.9505 65.9681C43.9505 62.4276 40.8355 59.5522 37 59.5522Z" fill="black"/>
<path d="M217.152 306.424C218.197 306.424 219.157 306.637 220.032 307.064C220.885 307.491 221.568 308.109 222.08 308.92C222.592 309.752 222.848 310.755 222.848 311.928C222.848 312.675 222.709 313.325 222.432 313.88C222.155 314.456 221.792 314.893 221.344 315.192C220.896 315.512 220.437 315.672 219.968 315.672C219.285 315.672 218.741 315.448 218.336 315C217.909 314.573 217.696 314.061 217.696 313.464C217.696 312.739 217.888 312.152 218.272 311.704C218.656 311.277 219.115 310.968 219.648 310.776C220.011 310.648 220.277 310.477 220.448 310.264C220.597 310.072 220.672 309.795 220.672 309.432C220.672 309.155 220.544 308.856 220.288 308.536C220.011 308.216 219.637 307.949 219.168 307.736C218.677 307.544 218.133 307.448 217.536 307.448C215.915 307.448 215.104 308.685 215.104 311.16V327.992C215.104 328.291 215.157 328.493 215.264 328.6C215.371 328.707 215.573 328.76 215.872 328.76H218.432V329.784H207.616V328.76H209.6C209.877 328.76 210.08 328.707 210.208 328.6C210.315 328.493 210.368 328.291 210.368 327.992V313.208C210.368 311.821 210.699 310.616 211.36 309.592C212.021 308.568 212.875 307.779 213.92 307.224C214.944 306.691 216.021 306.424 217.152 306.424Z" fill="black"/>
<path d="M215 292.448C211.165 292.448 208.05 289.572 208.05 286.032C208.05 283.51 209.627 281.328 211.923 280.281C212.614 279.967 211.86 279.151 211.352 279.68C210.078 281.006 208.221 281.843 206.151 281.843C202.315 281.843 199.2 278.968 199.2 275.428C199.2 271.887 202.315 269.017 206.151 269.017C209.957 269.017 213.061 271.843 213.101 275.347C213.108 275.968 214.141 276.032 214.141 275.196C214.141 273.879 212.77 266.886 212.036 265.552C212.837 265.739 214.173 265.893 215 265.893C215.827 265.893 217.163 265.739 217.964 265.552C217.23 266.886 215.859 273.879 215.859 275.196C215.859 276.032 216.892 275.968 216.899 275.347C216.939 271.843 220.043 269.017 223.85 269.017C227.685 269.017 230.8 271.887 230.8 275.428C230.8 278.968 227.685 281.843 223.85 281.843C221.779 281.843 219.922 281.006 218.648 279.68C218.14 279.151 217.386 279.967 218.077 280.281C220.373 281.328 221.951 283.51 221.951 286.032C221.951 289.572 218.836 292.448 215 292.448Z" fill="black"/>
<line x1="60" y1="36.5" x2="215" y2="36.5" stroke="black"/>
<line x1="215.5" y1="36" x2="215.5" y2="259" stroke="black"/>
<line x1="192" y1="315.5" x2="37" y2="315.5" stroke="black"/>
<line x1="36.5" y1="316" x2="36.5" y2="93" stroke="black"/>
<path d="M118.392 236.304C114.211 236.304 110.371 235.451 106.872 233.744C103.459 232.037 100.728 229.563 98.68 226.32C96.632 222.992 95.608 218.981 95.608 214.288C95.608 211.301 96.1627 208.699 97.272 206.48C98.3813 204.176 99.832 202.427 101.624 201.232C103.416 199.952 105.251 199.312 107.128 199.312C109.859 199.312 112.035 200.208 113.656 202C115.363 203.707 116.216 205.755 116.216 208.144C116.216 211.045 115.448 213.392 113.912 215.184C112.376 216.891 110.541 218.128 108.408 218.896C106.957 219.408 105.891 220.091 105.208 220.944C104.611 221.712 104.312 222.821 104.312 224.272C104.312 225.381 104.824 226.576 105.848 227.856C106.957 229.136 108.451 230.203 110.328 231.056C112.291 231.824 114.467 232.208 116.856 232.208C123.341 232.208 126.584 227.259 126.584 217.36V150.032C126.584 148.837 126.371 148.027 125.944 147.6C125.517 147.173 124.707 146.96 123.512 146.96H113.272V142.864H156.536V146.96H148.6C147.491 146.96 146.68 147.173 146.168 147.6C145.741 148.027 145.528 148.837 145.528 150.032V209.168C145.528 214.715 144.205 219.536 141.56 223.632C138.915 227.728 135.501 230.885 131.32 233.104C127.224 235.237 122.915 236.304 118.392 236.304Z" fill="black"/>
<path d="M158 103.294C158 101.281 156.367 99.6494 154.354 99.6494C152.34 99.6494 150.707 101.281 150.707 103.294C150.707 104.278 151.098 105.17 151.732 105.825C149.252 110.961 144.512 112.754 140.838 111.131C137.565 109.684 136.358 105.547 135.95 102.342C137.284 101.64 138.194 100.243 138.194 98.6299C138.194 96.314 136.317 94.4375 134 94.4375C131.684 94.4375 129.806 96.314 129.806 98.6299C129.806 100.243 130.716 101.64 132.05 102.342C131.642 105.547 130.435 109.684 127.162 111.131C123.488 112.754 118.748 110.961 116.268 105.825C116.902 105.17 117.294 104.278 117.294 103.294C117.294 101.281 115.66 99.6494 113.648 99.6494C111.633 99.6494 110 101.281 110 103.294C110 105.148 111.386 106.676 113.176 106.908L117.378 122.29H150.622L154.824 106.908C156.616 106.676 158 105.148 158 103.294Z" fill="black"/>
<path d="M152.658 128.85C152.658 130.348 151.443 131.563 149.943 131.563H118.057C116.558 131.562 115.344 130.348 115.344 128.85V128.624C115.344 127.124 116.558 125.91 118.057 125.91H149.943C151.443 125.91 152.658 127.124 152.658 128.624V128.85Z" fill="black"/>
</svg>
