<svg width="252" height="352" viewBox="0 0 252 352" fill="none" xmlns="http://www.w3.org/2000/svg">
<rect x="1" y="1" width="250" height="350" rx="8" fill="white"/>
<rect x="1" y="1" width="250" height="350" rx="8" stroke="#A8A8A8" stroke-opacity="0.5"/>
<path d="M15.84 47.976H18.144C18.4427 47.976 18.6453 47.9227 18.752 47.816C18.8587 47.688 18.912 47.4853 18.912 47.208V29.704H15.84V28.552H17.024C17.9627 28.552 18.8267 28.3493 19.616 27.944C20.4267 27.5387 20.9707 26.9627 21.248 26.216H23.648V47.208C23.648 47.4853 23.7013 47.688 23.808 47.816C23.936 47.9227 24.1387 47.976 24.416 47.976H26.72V49H15.84V47.976ZM39.8425 49.512C38.3065 49.512 36.9518 48.9147 35.7785 47.72C34.6265 46.5253 33.7305 45.0107 33.0905 43.176C32.4718 41.32 32.1625 39.464 32.1625 37.608C32.1625 35.752 32.4718 33.9067 33.0905 32.072C33.7305 30.216 34.6265 28.6907 35.7785 27.496C36.9518 26.3013 38.3065 25.704 39.8425 25.704C41.3785 25.704 42.7225 26.3013 43.8745 27.496C45.0478 28.6907 45.9438 30.216 46.5625 32.072C47.2025 33.9067 47.5225 35.752 47.5225 37.608C47.5225 39.464 47.2025 41.32 46.5625 43.176C45.9438 45.0107 45.0478 46.5253 43.8745 47.72C42.7225 48.9147 41.3785 49.512 39.8425 49.512ZM39.8425 48.488C40.6318 48.488 41.1972 48.0613 41.5385 47.208C41.9012 46.3333 42.0825 45.3947 42.0825 44.392V30.824C42.0825 29.8213 41.9012 28.8933 41.5385 28.04C41.1972 27.1653 40.6318 26.728 39.8425 26.728C39.0532 26.728 38.4772 27.1653 38.1145 28.04C37.7732 28.8933 37.6025 29.8213 37.6025 30.824V44.392C37.6025 45.3947 37.7732 46.3333 38.1145 47.208C38.4772 48.0613 39.0532 48.488 39.8425 48.488Z" fill="black"/>
<path d="M31 58.2761C29.0822 58.2761 27.5247 59.7138 27.5247 61.484C27.5247 62.745 28.3135 63.8362 29.4613 64.3593C29.8068 64.5167 29.4298 64.9243 29.1762 64.6601C28.5392 63.9969 27.6103 63.5783 26.5752 63.5783C24.6575 63.5783 23.1 65.016 23.1 66.7862C23.1 68.5565 24.6575 69.9913 26.5752 69.9913C28.4783 69.9913 30.0304 68.5783 30.0505 66.8267C30.054 66.516 30.5707 66.4838 30.5707 66.9019C30.5707 67.5603 29.8849 71.0572 29.5178 71.7239C29.9185 71.6306 30.5864 71.5533 31 71.5533C31.4135 71.5533 32.0814 71.6306 32.4822 71.7239C32.115 71.0572 31.4293 67.5603 31.4293 66.9019C31.4293 66.4838 31.9459 66.516 31.9495 66.8267C31.9695 68.5783 33.5217 69.9913 35.4247 69.9913C37.3425 69.9913 38.9 68.5565 38.9 66.7862C38.9 65.016 37.3425 63.5783 35.4247 63.5783C34.3897 63.5783 33.4607 63.9969 32.8238 64.6601C32.5701 64.9243 32.1932 64.5167 32.5386 64.3593C33.6864 63.8362 34.4752 62.745 34.4752 61.484C34.4752 59.7138 32.9177 58.2761 31 58.2761Z" fill="black"/>
<path d="M65 43.5522C68.8355 43.5522 71.9505 46.4276 71.9505 49.9681C71.9505 52.4899 70.3729 54.6724 68.0772 55.7186C67.3864 56.0335 68.1403 56.8485 68.6476 56.3203C69.9215 54.9937 71.7794 54.1566 73.8495 54.1566C77.685 54.1566 80.8 57.032 80.8 60.5724C80.8 64.1129 77.685 66.9825 73.8495 66.9825C70.0434 66.9825 66.9391 64.1565 66.899 60.6534C66.8919 60.032 65.8586 59.9676 65.8586 60.8039C65.8586 62.1207 67.2301 69.1144 67.9644 70.4479C67.1629 70.2613 65.827 70.1065 65 70.1065C64.1729 70.1065 62.8371 70.2613 62.0355 70.4479C62.7699 69.1144 64.1414 62.1207 64.1414 60.8039C64.1414 59.9676 63.1081 60.032 63.101 60.6534C63.0609 64.1565 59.9566 66.9825 56.1505 66.9825C52.315 66.9825 49.2 64.1129 49.2 60.5724C49.2 57.032 52.315 54.1566 56.1505 54.1566C58.2205 54.1566 60.0784 54.9937 61.3524 56.3203C61.8597 56.8485 62.6136 56.0335 61.9227 55.7186C59.6271 54.6724 58.0495 52.4899 58.0495 49.9681C58.0495 46.4276 61.1645 43.5522 65 43.5522Z" fill="black"/>
<path d="M65 112.552C61.1645 112.552 58.0495 115.428 58.0495 118.968C58.0495 121.49 59.6271 123.672 61.9228 124.719C62.6136 125.033 61.8597 125.849 61.3524 125.32C60.0785 123.994 58.2206 123.157 56.1505 123.157C52.315 123.157 49.2 126.032 49.2 129.572C49.2 133.113 52.315 135.983 56.1505 135.983C59.9566 135.983 63.0609 133.157 63.101 129.653C63.1081 129.032 64.1414 128.968 64.1414 129.804C64.1414 131.121 62.7699 138.114 62.0356 139.448C62.8371 139.261 64.173 139.107 65 139.107C65.8271 139.107 67.1629 139.261 67.9645 139.448C67.2301 138.114 65.8586 131.121 65.8586 129.804C65.8586 128.968 66.8919 129.032 66.899 129.653C66.9391 133.157 70.0434 135.983 73.8495 135.983C77.685 135.983 80.8 133.113 80.8 129.572C80.8 126.032 77.685 123.157 73.8495 123.157C71.7795 123.157 69.9216 123.994 68.6476 125.32C68.1403 125.849 67.3864 125.033 68.0773 124.719C70.3729 123.672 71.9505 121.49 71.9505 118.968C71.9505 115.428 68.8355 112.552 65 112.552Z" fill="black"/>
<path d="M126 80.5522C122.165 80.5522 119.05 83.4276 119.05 86.9681C119.05 89.4899 120.627 91.6724 122.923 92.7186C123.614 93.0335 122.86 93.8485 122.352 93.3203C121.078 91.9937 119.221 91.1566 117.151 91.1566C113.315 91.1566 110.2 94.032 110.2 97.5724C110.2 101.113 113.315 103.983 117.151 103.983C120.957 103.983 124.061 101.157 124.101 97.6534C124.108 97.032 125.141 96.9676 125.141 97.8039C125.141 99.1207 123.77 106.114 123.036 107.448C123.837 107.261 125.173 107.107 126 107.107C126.827 107.107 128.163 107.261 128.964 107.448C128.23 106.114 126.859 99.1207 126.859 97.8039C126.859 96.9676 127.892 97.032 127.899 97.6534C127.939 101.157 131.043 103.983 134.85 103.983C138.685 103.983 141.8 101.113 141.8 97.5724C141.8 94.032 138.685 91.1566 134.85 91.1566C132.779 91.1566 130.922 91.9937 129.648 93.3203C129.14 93.8485 128.386 93.0335 129.077 92.7186C131.373 91.6724 132.951 89.4899 132.951 86.9681C132.951 83.4276 129.836 80.5522 126 80.5522Z" fill="black"/>
<path d="M126 276.448C122.165 276.448 119.05 273.572 119.05 270.032C119.05 267.51 120.627 265.328 122.923 264.281C123.614 263.967 122.86 263.151 122.352 263.68C121.078 265.006 119.221 265.843 117.151 265.843C113.315 265.843 110.2 262.968 110.2 259.428C110.2 255.887 113.315 253.017 117.151 253.017C120.957 253.017 124.061 255.843 124.101 259.347C124.108 259.968 125.141 260.032 125.141 259.196C125.141 257.879 123.77 250.886 123.036 249.552C123.837 249.739 125.173 249.893 126 249.893C126.827 249.893 128.163 249.739 128.964 249.552C128.23 250.886 126.859 257.879 126.859 259.196C126.859 260.032 127.892 259.968 127.899 259.347C127.939 255.843 131.043 253.017 134.85 253.017C138.685 253.017 141.8 255.887 141.8 259.428C141.8 262.968 138.685 265.843 134.85 265.843C132.779 265.843 130.922 265.006 129.648 263.68C129.14 263.151 128.386 263.967 129.077 264.281C131.373 265.328 132.951 267.51 132.951 270.032C132.951 273.572 129.836 276.448 126 276.448Z" fill="black"/>
<path d="M187 239.448C183.165 239.448 180.05 236.572 180.05 233.032C180.05 230.51 181.627 228.328 183.923 227.281C184.614 226.967 183.86 226.151 183.352 226.68C182.078 228.006 180.221 228.843 178.151 228.843C174.315 228.843 171.2 225.968 171.2 222.428C171.2 218.887 174.315 216.017 178.151 216.017C181.957 216.017 185.061 218.843 185.101 222.347C185.108 222.968 186.141 223.032 186.141 222.196C186.141 220.879 184.77 213.886 184.036 212.552C184.837 212.739 186.173 212.893 187 212.893C187.827 212.893 189.163 212.739 189.964 212.552C189.23 213.886 187.859 220.879 187.859 222.196C187.859 223.032 188.892 222.968 188.899 222.347C188.939 218.843 192.043 216.017 195.85 216.017C199.685 216.017 202.8 218.887 202.8 222.428C202.8 225.968 199.685 228.843 195.85 228.843C193.779 228.843 191.922 228.006 190.648 226.68C190.14 226.151 189.386 226.967 190.077 227.281C192.373 228.328 193.951 230.51 193.951 233.032C193.951 236.572 190.836 239.448 187 239.448Z" fill="black"/>
<path d="M65 239.448C61.1645 239.448 58.0495 236.572 58.0495 233.032C58.0495 230.51 59.6271 228.328 61.9228 227.281C62.6136 226.967 61.8597 226.151 61.3524 226.68C60.0785 228.006 58.2206 228.843 56.1505 228.843C52.315 228.843 49.2 225.968 49.2 222.428C49.2 218.887 52.315 216.017 56.1505 216.017C59.9566 216.017 63.0609 218.843 63.101 222.347C63.1081 222.968 64.1414 223.032 64.1414 222.196C64.1414 220.879 62.7699 213.886 62.0356 212.552C62.8371 212.739 64.173 212.893 65 212.893C65.8271 212.893 67.1629 212.739 67.9645 212.552C67.2301 213.886 65.8586 220.879 65.8586 222.196C65.8586 223.032 66.8919 222.968 66.899 222.347C66.9391 218.843 70.0434 216.017 73.8495 216.017C77.685 216.017 80.8 218.887 80.8 222.428C80.8 225.968 77.685 228.843 73.8495 228.843C71.7795 228.843 69.9216 228.006 68.6476 226.68C68.1403 226.151 67.3864 226.967 68.0773 227.281C70.3729 228.328 71.9505 230.51 71.9505 233.032C71.9505 236.572 68.8355 239.448 65 239.448Z" fill="black"/>
<path d="M187 112.552C183.165 112.552 180.05 115.428 180.05 118.968C180.05 121.49 181.627 123.672 183.923 124.719C184.614 125.033 183.86 125.849 183.352 125.32C182.078 123.994 180.221 123.157 178.151 123.157C174.315 123.157 171.2 126.032 171.2 129.572C171.2 133.113 174.315 135.983 178.151 135.983C181.957 135.983 185.061 133.157 185.101 129.653C185.108 129.032 186.141 128.968 186.141 129.804C186.141 131.121 184.77 138.114 184.036 139.448C184.837 139.261 186.173 139.107 187 139.107C187.827 139.107 189.163 139.261 189.964 139.448C189.23 138.114 187.859 131.121 187.859 129.804C187.859 128.968 188.892 129.032 188.899 129.653C188.939 133.157 192.043 135.983 195.85 135.983C199.685 135.983 202.8 133.113 202.8 129.572C202.8 126.032 199.685 123.157 195.85 123.157C193.779 123.157 191.922 123.994 190.648 125.32C190.14 125.849 189.386 125.033 190.077 124.719C192.373 123.672 193.951 121.49 193.951 118.968C193.951 115.428 190.836 112.552 187 112.552Z" fill="black"/>
<path d="M187 43.5522C190.835 43.5522 193.95 46.4276 193.95 49.9681C193.95 52.4899 192.373 54.6724 190.077 55.7186C189.386 56.0335 190.14 56.8485 190.648 56.3203C191.922 54.9937 193.779 54.1566 195.849 54.1566C199.685 54.1566 202.8 57.032 202.8 60.5724C202.8 64.1129 199.685 66.9825 195.849 66.9825C192.043 66.9825 188.939 64.1565 188.899 60.6534C188.892 60.032 187.859 59.9676 187.859 60.8039C187.859 62.1207 189.23 69.1144 189.964 70.4479C189.163 70.2613 187.827 70.1065 187 70.1065C186.173 70.1065 184.837 70.2613 184.036 70.4479C184.77 69.1144 186.141 62.1207 186.141 60.8039C186.141 59.9676 185.108 60.032 185.101 60.6534C185.061 64.1565 181.957 66.9825 178.15 66.9825C174.315 66.9825 171.2 64.1129 171.2 60.5724C171.2 57.032 174.315 54.1566 178.15 54.1566C180.221 54.1566 182.078 54.9937 183.352 56.3203C183.86 56.8485 184.614 56.0335 183.923 55.7186C181.627 54.6724 180.049 52.4899 180.049 49.9681C180.049 46.4276 183.164 43.5522 187 43.5522Z" fill="black"/>
<path d="M187 308.448C183.165 308.448 180.05 305.572 180.05 302.032C180.05 299.51 181.627 297.328 183.923 296.281C184.614 295.967 183.86 295.151 183.352 295.68C182.078 297.006 180.221 297.843 178.151 297.843C174.315 297.843 171.2 294.968 171.2 291.428C171.2 287.887 174.315 285.017 178.151 285.017C181.957 285.017 185.061 287.843 185.101 291.347C185.108 291.968 186.141 292.032 186.141 291.196C186.141 289.879 184.77 282.886 184.036 281.552C184.837 281.739 186.173 281.893 187 281.893C187.827 281.893 189.163 281.739 189.964 281.552C189.23 282.886 187.859 289.879 187.859 291.196C187.859 292.032 188.892 291.968 188.899 291.347C188.939 287.843 192.043 285.017 195.85 285.017C199.685 285.017 202.8 287.887 202.8 291.428C202.8 294.968 199.685 297.843 195.85 297.843C193.779 297.843 191.922 297.006 190.648 295.68C190.14 295.151 189.386 295.967 190.077 296.281C192.373 297.328 193.951 299.51 193.951 302.032C193.951 305.572 190.836 308.448 187 308.448Z" fill="black"/>
<path d="M65 308.448C61.1645 308.448 58.0495 305.572 58.0495 302.032C58.0495 299.51 59.6271 297.328 61.9228 296.281C62.6136 295.967 61.8597 295.151 61.3524 295.68C60.0785 297.006 58.2206 297.843 56.1505 297.843C52.315 297.843 49.2 294.968 49.2 291.428C49.2 287.887 52.315 285.017 56.1505 285.017C59.9566 285.017 63.0609 287.843 63.101 291.347C63.1081 291.968 64.1414 292.032 64.1414 291.196C64.1414 289.879 62.7699 282.886 62.0356 281.552C62.8371 281.739 64.173 281.893 65 281.893C65.8271 281.893 67.1629 281.739 67.9645 281.552C67.2301 282.886 65.8586 289.879 65.8586 291.196C65.8586 292.032 66.8919 291.968 66.899 291.347C66.9391 287.843 70.0434 285.017 73.8495 285.017C77.685 285.017 80.8 287.887 80.8 291.428C80.8 294.968 77.685 297.843 73.8495 297.843C71.7795 297.843 69.9216 297.006 68.6476 295.68C68.1403 295.151 67.3864 295.967 68.0773 296.281C70.3729 297.328 71.9505 299.51 71.9505 302.032C71.9505 305.572 68.8355 308.448 65 308.448Z" fill="black"/>
<path d="M236.16 304.024H233.856C233.557 304.024 233.355 304.077 233.248 304.184C233.141 304.312 233.088 304.515 233.088 304.792V322.296H236.16V323.448H234.976C234.037 323.448 233.173 323.651 232.384 324.056C231.573 324.461 231.029 325.037 230.752 325.784H228.352V304.792C228.352 304.515 228.299 304.312 228.192 304.184C228.064 304.077 227.861 304.024 227.584 304.024H225.28V303H236.16V304.024ZM212.157 302.488C213.693 302.488 215.048 303.085 216.221 304.28C217.373 305.475 218.269 306.989 218.909 308.824C219.528 310.68 219.837 312.536 219.837 314.392C219.837 316.248 219.528 318.093 218.909 319.928C218.269 321.784 217.373 323.309 216.221 324.504C215.048 325.699 213.693 326.296 212.157 326.296C210.621 326.296 209.277 325.699 208.125 324.504C206.952 323.309 206.056 321.784 205.438 319.928C204.797 318.093 204.477 316.248 204.477 314.392C204.477 312.536 204.797 310.68 205.438 308.824C206.056 306.989 206.952 305.475 208.125 304.28C209.277 303.085 210.621 302.488 212.157 302.488ZM212.157 303.512C211.368 303.512 210.803 303.939 210.461 304.792C210.099 305.667 209.917 306.605 209.917 307.608V321.176C209.917 322.179 210.099 323.107 210.461 323.96C210.803 324.835 211.368 325.272 212.157 325.272C212.947 325.272 213.523 324.835 213.885 323.96C214.227 323.107 214.397 322.179 214.397 321.176V307.608C214.397 306.605 214.227 305.667 213.885 304.792C213.523 303.939 212.947 303.512 212.157 303.512Z" fill="black"/>
<path d="M221 293.724C219.082 293.724 217.525 292.286 217.525 290.516C217.525 289.255 218.314 288.164 219.461 287.641C219.807 287.483 219.43 287.076 219.176 287.34C218.539 288.003 217.61 288.422 216.575 288.422C214.657 288.422 213.1 286.984 213.1 285.214C213.1 283.444 214.657 282.009 216.575 282.009C218.478 282.009 220.03 283.422 220.05 285.173C220.054 285.484 220.571 285.516 220.571 285.098C220.571 284.44 219.885 280.943 219.518 280.276C219.919 280.369 220.586 280.447 221 280.447C221.414 280.447 222.081 280.369 222.482 280.276C222.115 280.943 221.429 284.44 221.429 285.098C221.429 285.516 221.946 285.484 221.949 285.173C221.97 283.422 223.522 282.009 225.425 282.009C227.342 282.009 228.9 283.444 228.9 285.214C228.9 286.984 227.342 288.422 225.425 288.422C224.39 288.422 223.461 288.003 222.824 287.34C222.57 287.076 222.193 287.483 222.539 287.641C223.686 288.164 224.475 289.255 224.475 290.516C224.475 292.286 222.918 293.724 221 293.724Z" fill="black"/>
</svg>
