<svg width="252" height="352" viewBox="0 0 252 352" fill="none" xmlns="http://www.w3.org/2000/svg">
<rect x="1" y="1" width="250" height="350" rx="8" fill="white"/>
<rect x="1" y="1" width="250" height="350" rx="8" stroke="#A8A8A8" stroke-opacity="0.5"/>
<path d="M30.152 49.512C28.9573 49.512 27.784 49.2773 26.632 48.808C25.5013 48.3387 24.5733 47.6667 23.848 46.792C23.144 45.896 22.792 44.8507 22.792 43.656C22.792 42.312 23.1867 41.1707 23.976 40.232C24.7653 39.2933 25.6613 38.6107 26.664 38.184V38.12C24.3813 36.776 23.24 34.8453 23.24 32.328C23.24 30.92 23.6027 29.7147 24.328 28.712C25.0747 27.7093 26.0133 26.9627 27.144 26.472C28.296 25.96 29.4693 25.704 30.664 25.704C32.072 25.704 33.2453 25.9707 34.184 26.504C35.144 27.0373 35.8373 27.6987 36.264 28.488C36.712 29.2773 36.936 30.0453 36.936 30.792C36.936 31.8587 36.5947 32.8293 35.912 33.704C35.2507 34.5787 34.4613 35.2507 33.544 35.72V35.848L34.152 36.168C35.4107 36.7867 36.4027 37.6293 37.128 38.696C37.8533 39.7627 38.216 40.84 38.216 41.928C38.216 43.3147 37.9067 44.584 37.288 45.736C36.6693 46.888 35.752 47.8053 34.536 48.488C33.32 49.1707 31.8587 49.512 30.152 49.512ZM32.648 35.368C33.5013 35.0267 34.1733 34.4507 34.664 33.64C35.1547 32.808 35.4 31.912 35.4 30.952C35.4 30.0773 35.176 29.32 34.728 28.68C34.28 28.04 33.704 27.56 33 27.24C32.3173 26.8987 31.6133 26.728 30.888 26.728C29.736 26.728 28.6587 27.0053 27.656 27.56C26.6747 28.1147 26.184 28.9893 26.184 30.184C26.184 31.0373 26.376 31.688 26.76 32.136C27.144 32.584 27.7093 32.9893 28.456 33.352L32.648 35.368ZM31.016 48.488C31.9547 48.488 32.7867 48.3173 33.512 47.976C34.2373 47.6133 34.792 47.144 35.176 46.568C35.5813 45.992 35.784 45.3733 35.784 44.712C35.784 43.8587 35.5173 43.1547 34.984 42.6C34.4507 42.0453 33.7573 41.5547 32.904 41.128L27.592 38.504C26.7387 38.9733 26.088 39.5387 25.64 40.2C25.192 40.84 24.968 41.8213 24.968 43.144C24.968 44.5093 25.3093 45.5973 25.992 46.408C26.696 47.1973 27.5067 47.7413 28.424 48.04C29.3627 48.3387 30.2267 48.488 31.016 48.488Z" fill="black"/>
<path d="M31 58.2761C29.0822 58.2761 27.5247 59.7138 27.5247 61.484C27.5247 62.745 28.3135 63.8362 29.4613 64.3593C29.8068 64.5167 29.4298 64.9243 29.1762 64.6601C28.5392 63.9969 27.6103 63.5783 26.5752 63.5783C24.6575 63.5783 23.1 65.016 23.1 66.7862C23.1 68.5565 24.6575 69.9913 26.5752 69.9913C28.4783 69.9913 30.0304 68.5783 30.0505 66.8267C30.054 66.516 30.5707 66.4838 30.5707 66.9019C30.5707 67.5603 29.8849 71.0572 29.5178 71.7239C29.9185 71.6306 30.5864 71.5533 31 71.5533C31.4135 71.5533 32.0814 71.6306 32.4822 71.7239C32.115 71.0572 31.4293 67.5603 31.4293 66.9019C31.4293 66.4838 31.9459 66.516 31.9495 66.8267C31.9695 68.5783 33.5217 69.9913 35.4247 69.9913C37.3425 69.9913 38.9 68.5565 38.9 66.7862C38.9 65.016 37.3425 63.5783 35.4247 63.5783C34.3897 63.5783 33.4607 63.9969 32.8238 64.6601C32.5701 64.9243 32.1932 64.5167 32.5386 64.3593C33.6864 63.8362 34.4752 62.745 34.4752 61.484C34.4752 59.7138 32.9177 58.2761 31 58.2761Z" fill="black"/>
<path d="M65 43.5522C68.8355 43.5522 71.9505 46.4276 71.9505 49.9681C71.9505 52.4899 70.3729 54.6724 68.0772 55.7186C67.3864 56.0335 68.1403 56.8485 68.6476 56.3203C69.9215 54.9937 71.7794 54.1566 73.8495 54.1566C77.685 54.1566 80.8 57.032 80.8 60.5724C80.8 64.1129 77.685 66.9825 73.8495 66.9825C70.0434 66.9825 66.9391 64.1565 66.899 60.6534C66.8919 60.032 65.8586 59.9676 65.8586 60.8039C65.8586 62.1207 67.2301 69.1144 67.9644 70.4479C67.1629 70.2613 65.827 70.1065 65 70.1065C64.1729 70.1065 62.8371 70.2613 62.0355 70.4479C62.7699 69.1144 64.1414 62.1207 64.1414 60.8039C64.1414 59.9676 63.1081 60.032 63.101 60.6534C63.0609 64.1565 59.9566 66.9825 56.1505 66.9825C52.315 66.9825 49.2 64.1129 49.2 60.5724C49.2 57.032 52.315 54.1566 56.1505 54.1566C58.2205 54.1566 60.0784 54.9937 61.3524 56.3203C61.8597 56.8485 62.6136 56.0335 61.9227 55.7186C59.6271 54.6724 58.0495 52.4899 58.0495 49.9681C58.0495 46.4276 61.1645 43.5522 65 43.5522Z" fill="black"/>
<path d="M65 162.552C61.1645 162.552 58.0495 165.428 58.0495 168.968C58.0495 171.49 59.6271 173.672 61.9228 174.719C62.6136 175.033 61.8597 175.849 61.3524 175.32C60.0785 173.994 58.2206 173.157 56.1505 173.157C52.315 173.157 49.2 176.032 49.2 179.572C49.2 183.113 52.315 185.983 56.1505 185.983C59.9566 185.983 63.0609 183.157 63.101 179.653C63.1081 179.032 64.1414 178.968 64.1414 179.804C64.1414 181.121 62.7699 188.114 62.0356 189.448C62.8371 189.261 64.173 189.107 65 189.107C65.8271 189.107 67.1629 189.261 67.9645 189.448C67.2301 188.114 65.8586 181.121 65.8586 179.804C65.8586 178.968 66.8919 179.032 66.899 179.653C66.9391 183.157 70.0434 185.983 73.8495 185.983C77.685 185.983 80.8 183.113 80.8 179.572C80.8 176.032 77.685 173.157 73.8495 173.157C71.7795 173.157 69.9216 173.994 68.6476 175.32C68.1403 175.849 67.3864 175.033 68.0773 174.719C70.3729 173.672 71.9505 171.49 71.9505 168.968C71.9505 165.428 68.8355 162.552 65 162.552Z" fill="black"/>
<path d="M126 103.552C122.165 103.552 119.05 106.428 119.05 109.968C119.05 112.49 120.627 114.672 122.923 115.719C123.614 116.033 122.86 116.849 122.352 116.32C121.078 114.994 119.221 114.157 117.151 114.157C113.315 114.157 110.2 117.032 110.2 120.572C110.2 124.113 113.315 126.983 117.151 126.983C120.957 126.983 124.061 124.157 124.101 120.653C124.108 120.032 125.141 119.968 125.141 120.804C125.141 122.121 123.77 129.114 123.036 130.448C123.837 130.261 125.173 130.107 126 130.107C126.827 130.107 128.163 130.261 128.964 130.448C128.23 129.114 126.859 122.121 126.859 120.804C126.859 119.968 127.892 120.032 127.899 120.653C127.939 124.157 131.043 126.983 134.85 126.983C138.685 126.983 141.8 124.113 141.8 120.572C141.8 117.032 138.685 114.157 134.85 114.157C132.779 114.157 130.922 114.994 129.648 116.32C129.14 116.849 128.386 116.033 129.077 115.719C131.373 114.672 132.951 112.49 132.951 109.968C132.951 106.428 129.836 103.552 126 103.552Z" fill="black"/>
<path d="M126 248.448C122.165 248.448 119.05 245.572 119.05 242.032C119.05 239.51 120.627 237.328 122.923 236.281C123.614 235.967 122.86 235.151 122.352 235.68C121.078 237.006 119.221 237.843 117.151 237.843C113.315 237.843 110.2 234.968 110.2 231.428C110.2 227.887 113.315 225.017 117.151 225.017C120.957 225.017 124.061 227.843 124.101 231.347C124.108 231.968 125.141 232.032 125.141 231.196C125.141 229.879 123.77 222.886 123.036 221.552C123.837 221.739 125.173 221.893 126 221.893C126.827 221.893 128.163 221.739 128.964 221.552C128.23 222.886 126.859 229.879 126.859 231.196C126.859 232.032 127.892 231.968 127.899 231.347C127.939 227.843 131.043 225.017 134.85 225.017C138.685 225.017 141.8 227.887 141.8 231.428C141.8 234.968 138.685 237.843 134.85 237.843C132.779 237.843 130.922 237.006 129.648 235.68C129.14 235.151 128.386 235.967 129.077 236.281C131.373 237.328 132.951 239.51 132.951 242.032C132.951 245.572 129.836 248.448 126 248.448Z" fill="black"/>
<path d="M187 162.552C183.165 162.552 180.05 165.428 180.05 168.968C180.05 171.49 181.627 173.672 183.923 174.719C184.614 175.033 183.86 175.849 183.352 175.32C182.078 173.994 180.221 173.157 178.151 173.157C174.315 173.157 171.2 176.032 171.2 179.572C171.2 183.113 174.315 185.983 178.151 185.983C181.957 185.983 185.061 183.157 185.101 179.653C185.108 179.032 186.141 178.968 186.141 179.804C186.141 181.121 184.77 188.114 184.036 189.448C184.837 189.261 186.173 189.107 187 189.107C187.827 189.107 189.163 189.261 189.964 189.448C189.23 188.114 187.859 181.121 187.859 179.804C187.859 178.968 188.892 179.032 188.899 179.653C188.939 183.157 192.043 185.983 195.85 185.983C199.685 185.983 202.8 183.113 202.8 179.572C202.8 176.032 199.685 173.157 195.85 173.157C193.779 173.157 191.922 173.994 190.648 175.32C190.14 175.849 189.386 175.033 190.077 174.719C192.373 173.672 193.951 171.49 193.951 168.968C193.951 165.428 190.836 162.552 187 162.552Z" fill="black"/>
<path d="M187 43.5522C190.835 43.5522 193.95 46.4276 193.95 49.9681C193.95 52.4899 192.373 54.6724 190.077 55.7186C189.386 56.0335 190.14 56.8485 190.648 56.3203C191.922 54.9937 193.779 54.1566 195.849 54.1566C199.685 54.1566 202.8 57.032 202.8 60.5724C202.8 64.1129 199.685 66.9825 195.849 66.9825C192.043 66.9825 188.939 64.1565 188.899 60.6534C188.892 60.032 187.859 59.9676 187.859 60.8039C187.859 62.1207 189.23 69.1144 189.964 70.4479C189.163 70.2613 187.827 70.1065 187 70.1065C186.173 70.1065 184.837 70.2613 184.036 70.4479C184.77 69.1144 186.141 62.1207 186.141 60.8039C186.141 59.9676 185.108 60.032 185.101 60.6534C185.061 64.1565 181.957 66.9825 178.15 66.9825C174.315 66.9825 171.2 64.1129 171.2 60.5724C171.2 57.032 174.315 54.1566 178.15 54.1566C180.221 54.1566 182.078 54.9937 183.352 56.3203C183.86 56.8485 184.614 56.0335 183.923 55.7186C181.627 54.6724 180.049 52.4899 180.049 49.9681C180.049 46.4276 183.164 43.5522 187 43.5522Z" fill="black"/>
<path d="M187 308.448C190.835 308.448 193.95 305.572 193.95 302.032C193.95 299.51 192.373 297.328 190.077 296.281C189.386 295.967 190.14 295.151 190.648 295.68C191.922 297.006 193.779 297.843 195.849 297.843C199.685 297.843 202.8 294.968 202.8 291.428C202.8 287.887 199.685 285.017 195.849 285.017C192.043 285.017 188.939 287.843 188.899 291.347C188.892 291.968 187.859 292.032 187.859 291.196C187.859 289.879 189.23 282.886 189.964 281.552C189.163 281.739 187.827 281.893 187 281.893C186.173 281.893 184.837 281.739 184.036 281.552C184.77 282.886 186.141 289.879 186.141 291.196C186.141 292.032 185.108 291.968 185.101 291.347C185.061 287.843 181.957 285.017 178.15 285.017C174.315 285.017 171.2 287.887 171.2 291.428C171.2 294.968 174.315 297.843 178.15 297.843C180.221 297.843 182.078 297.006 183.352 295.68C183.86 295.151 184.614 295.967 183.923 296.281C181.627 297.328 180.049 299.51 180.049 302.032C180.049 305.572 183.164 308.448 187 308.448Z" fill="black"/>
<path d="M65 308.448C61.1645 308.448 58.0495 305.572 58.0495 302.032C58.0495 299.51 59.6271 297.328 61.9228 296.281C62.6136 295.967 61.8597 295.151 61.3524 295.68C60.0785 297.006 58.2206 297.843 56.1505 297.843C52.315 297.843 49.2 294.968 49.2 291.428C49.2 287.887 52.315 285.017 56.1505 285.017C59.9566 285.017 63.0609 287.843 63.101 291.347C63.1081 291.968 64.1414 292.032 64.1414 291.196C64.1414 289.879 62.7699 282.886 62.0356 281.552C62.8371 281.739 64.173 281.893 65 281.893C65.8271 281.893 67.1629 281.739 67.9645 281.552C67.2301 282.886 65.8586 289.879 65.8586 291.196C65.8586 292.032 66.8919 291.968 66.899 291.347C66.9391 287.843 70.0434 285.017 73.8495 285.017C77.685 285.017 80.8 287.887 80.8 291.428C80.8 294.968 77.685 297.843 73.8495 297.843C71.7795 297.843 69.9216 297.006 68.6476 295.68C68.1403 295.151 67.3864 295.967 68.0773 296.281C70.3729 297.328 71.9505 299.51 71.9505 302.032C71.9505 305.572 68.8355 308.448 65 308.448Z" fill="black"/>
<path d="M221.848 302.488C223.043 302.488 224.216 302.723 225.368 303.192C226.499 303.661 227.427 304.333 228.152 305.208C228.856 306.104 229.208 307.149 229.208 308.344C229.208 309.688 228.813 310.829 228.024 311.768C227.235 312.707 226.339 313.389 225.336 313.816V313.88C227.619 315.224 228.76 317.155 228.76 319.672C228.76 321.08 228.397 322.285 227.672 323.288C226.925 324.291 225.987 325.037 224.856 325.528C223.704 326.04 222.531 326.296 221.336 326.296C219.928 326.296 218.755 326.029 217.816 325.496C216.856 324.963 216.163 324.301 215.736 323.512C215.288 322.723 215.064 321.955 215.064 321.208C215.064 320.141 215.405 319.171 216.088 318.296C216.749 317.421 217.539 316.749 218.456 316.28V316.152L217.848 315.832C216.589 315.213 215.597 314.371 214.872 313.304C214.147 312.237 213.784 311.16 213.784 310.072C213.784 308.685 214.093 307.416 214.712 306.264C215.331 305.112 216.248 304.195 217.464 303.512C218.68 302.829 220.141 302.488 221.848 302.488ZM219.352 316.632C218.499 316.973 217.827 317.549 217.336 318.36C216.845 319.192 216.6 320.088 216.6 321.048C216.6 321.923 216.824 322.68 217.272 323.32C217.72 323.96 218.296 324.44 219 324.76C219.683 325.101 220.387 325.272 221.112 325.272C222.264 325.272 223.341 324.995 224.344 324.44C225.325 323.885 225.816 323.011 225.816 321.816C225.816 320.963 225.624 320.312 225.24 319.864C224.856 319.416 224.291 319.011 223.544 318.648L219.352 316.632ZM220.984 303.512C220.045 303.512 219.213 303.683 218.488 304.024C217.763 304.387 217.208 304.856 216.824 305.432C216.419 306.008 216.216 306.627 216.216 307.288C216.216 308.141 216.483 308.845 217.016 309.4C217.549 309.955 218.243 310.445 219.096 310.872L224.408 313.496C225.261 313.027 225.912 312.461 226.36 311.8C226.808 311.16 227.032 310.179 227.032 308.856C227.032 307.491 226.691 306.403 226.008 305.592C225.304 304.803 224.493 304.259 223.576 303.96C222.637 303.661 221.773 303.512 220.984 303.512Z" fill="black"/>
<path d="M221 293.724C219.082 293.724 217.525 292.286 217.525 290.516C217.525 289.255 218.314 288.164 219.461 287.641C219.807 287.483 219.43 287.076 219.176 287.34C218.539 288.003 217.61 288.422 216.575 288.422C214.657 288.422 213.1 286.984 213.1 285.214C213.1 283.444 214.657 282.009 216.575 282.009C218.478 282.009 220.03 283.422 220.05 285.173C220.054 285.484 220.571 285.516 220.571 285.098C220.571 284.44 219.885 280.943 219.518 280.276C219.919 280.369 220.586 280.447 221 280.447C221.414 280.447 222.081 280.369 222.482 280.276C222.115 280.943 221.429 284.44 221.429 285.098C221.429 285.516 221.946 285.484 221.949 285.173C221.97 283.422 223.522 282.009 225.425 282.009C227.342 282.009 228.9 283.444 228.9 285.214C228.9 286.984 227.342 288.422 225.425 288.422C224.39 288.422 223.461 288.003 222.824 287.34C222.57 287.076 222.193 287.483 222.539 287.641C223.686 288.164 224.475 289.255 224.475 290.516C224.475 292.286 222.918 293.724 221 293.724Z" fill="black"/>
</svg>
