<svg width="252" height="352" viewBox="0 0 252 352" fill="none" xmlns="http://www.w3.org/2000/svg">
<rect x="1" y="1" width="250" height="350" rx="8" fill="white"/>
<rect x="1" y="1" width="250" height="350" rx="8" stroke="#A8A8A8" stroke-opacity="0.5"/>
<path d="M29.256 49.512C28.2533 49.512 27.3893 49.3093 26.664 48.904C25.9387 48.4773 25.384 47.9333 25 47.272C24.6373 46.6107 24.456 45.9067 24.456 45.16C24.456 44.2427 24.7227 43.464 25.256 42.824C25.7893 42.184 26.4827 41.864 27.336 41.864C27.976 41.864 28.488 42.0667 28.872 42.472C29.2773 42.856 29.48 43.368 29.48 44.008C29.48 44.9893 29 45.6507 28.04 45.992C27.6133 46.1413 27.2933 46.2907 27.08 46.44C26.8667 46.5893 26.76 46.7813 26.76 47.016C26.76 47.4427 26.984 47.7947 27.432 48.072C27.88 48.3493 28.4987 48.488 29.288 48.488C30.4827 48.488 31.3573 47.976 31.912 46.952C32.488 45.928 32.776 44.7013 32.776 43.272V38.696L32.584 38.6C32.2427 38.9413 31.7947 39.208 31.24 39.4C30.6853 39.5707 30.0987 39.656 29.48 39.656C27.3467 39.656 25.7467 39.0267 24.68 37.768C23.6347 36.5093 23.112 34.8987 23.112 32.936C23.112 31.72 23.3573 30.568 23.848 29.48C24.36 28.3707 25.1387 27.464 26.184 26.76C27.2507 26.056 28.5733 25.704 30.152 25.704C31.7307 25.704 33.096 26.216 34.248 27.24C35.4213 28.264 36.3173 29.64 36.936 31.368C37.576 33.096 37.896 34.9947 37.896 37.064C37.896 39.5173 37.544 41.6827 36.84 43.56C36.1573 45.4373 35.1653 46.8987 33.864 47.944C32.5627 48.9893 31.0267 49.512 29.256 49.512ZM29.896 38.44C31.048 38.44 31.8373 37.992 32.264 37.096C32.4773 36.6907 32.616 36.1253 32.68 35.4C32.744 34.6747 32.776 33.6933 32.776 32.456C32.776 30.5147 32.5733 29.0747 32.168 28.136C31.7627 27.1973 31.1013 26.728 30.184 26.728C29.4587 26.728 28.9253 26.984 28.584 27.496C28.264 27.9867 28.0613 28.6267 27.976 29.416C27.8907 30.184 27.848 31.2507 27.848 32.616C27.848 34.344 27.9867 35.752 28.264 36.84C28.5627 37.9067 29.1067 38.44 29.896 38.44Z" fill="black"/>
<path d="M31 58.2761C29.0822 58.2761 27.5247 59.7138 27.5247 61.484C27.5247 62.745 28.3135 63.8362 29.4613 64.3593C29.8068 64.5167 29.4298 64.9243 29.1762 64.6601C28.5392 63.9969 27.6103 63.5783 26.5752 63.5783C24.6575 63.5783 23.1 65.016 23.1 66.7862C23.1 68.5565 24.6575 69.9913 26.5752 69.9913C28.4783 69.9913 30.0304 68.5783 30.0505 66.8267C30.054 66.516 30.5707 66.4838 30.5707 66.9019C30.5707 67.5603 29.8849 71.0572 29.5178 71.7239C29.9185 71.6306 30.5864 71.5533 31 71.5533C31.4135 71.5533 32.0814 71.6306 32.4822 71.7239C32.115 71.0572 31.4293 67.5603 31.4293 66.9019C31.4293 66.4838 31.9459 66.516 31.9495 66.8267C31.9695 68.5783 33.5217 69.9913 35.4247 69.9913C37.3425 69.9913 38.9 68.5565 38.9 66.7862C38.9 65.016 37.3425 63.5783 35.4247 63.5783C34.3897 63.5783 33.4607 63.9969 32.8238 64.6601C32.5701 64.9243 32.1932 64.5167 32.5386 64.3593C33.6864 63.8362 34.4752 62.745 34.4752 61.484C34.4752 59.7138 32.9177 58.2761 31 58.2761Z" fill="black"/>
<path d="M65 43.5522C68.8355 43.5522 71.9505 46.4276 71.9505 49.9681C71.9505 52.4899 70.3729 54.6724 68.0772 55.7186C67.3864 56.0335 68.1403 56.8485 68.6476 56.3203C69.9215 54.9937 71.7794 54.1566 73.8495 54.1566C77.685 54.1566 80.8 57.032 80.8 60.5724C80.8 64.1129 77.685 66.9825 73.8495 66.9825C70.0434 66.9825 66.9391 64.1565 66.899 60.6534C66.8919 60.032 65.8586 59.9676 65.8586 60.8039C65.8586 62.1207 67.2301 69.1144 67.9644 70.4479C67.1629 70.2613 65.827 70.1065 65 70.1065C64.1729 70.1065 62.8371 70.2613 62.0355 70.4479C62.7699 69.1144 64.1414 62.1207 64.1414 60.8039C64.1414 59.9676 63.1081 60.032 63.101 60.6534C63.0609 64.1565 59.9566 66.9825 56.1505 66.9825C52.315 66.9825 49.2 64.1129 49.2 60.5724C49.2 57.032 52.315 54.1566 56.1505 54.1566C58.2205 54.1566 60.0784 54.9937 61.3524 56.3203C61.8597 56.8485 62.6136 56.0335 61.9227 55.7186C59.6271 54.6724 58.0495 52.4899 58.0495 49.9681C58.0495 46.4276 61.1645 43.5522 65 43.5522Z" fill="black"/>
<path d="M65 112.552C61.1645 112.552 58.0495 115.428 58.0495 118.968C58.0495 121.49 59.6271 123.672 61.9228 124.719C62.6136 125.033 61.8597 125.849 61.3524 125.32C60.0785 123.994 58.2206 123.157 56.1505 123.157C52.315 123.157 49.2 126.032 49.2 129.572C49.2 133.113 52.315 135.983 56.1505 135.983C59.9566 135.983 63.0609 133.157 63.101 129.653C63.1081 129.032 64.1414 128.968 64.1414 129.804C64.1414 131.121 62.7699 138.114 62.0356 139.448C62.8371 139.261 64.173 139.107 65 139.107C65.8271 139.107 67.1629 139.261 67.9645 139.448C67.2301 138.114 65.8586 131.121 65.8586 129.804C65.8586 128.968 66.8919 129.032 66.899 129.653C66.9391 133.157 70.0434 135.983 73.8495 135.983C77.685 135.983 80.8 133.113 80.8 129.572C80.8 126.032 77.685 123.157 73.8495 123.157C71.7795 123.157 69.9216 123.994 68.6476 125.32C68.1403 125.849 67.3864 125.033 68.0773 124.719C70.3729 123.672 71.9505 121.49 71.9505 118.968C71.9505 115.428 68.8355 112.552 65 112.552Z" fill="black"/>
<path d="M126 162.552C122.165 162.552 119.05 165.428 119.05 168.968C119.05 171.49 120.627 173.672 122.923 174.719C123.614 175.033 122.86 175.849 122.352 175.32C121.078 173.994 119.221 173.157 117.151 173.157C113.315 173.157 110.2 176.032 110.2 179.572C110.2 183.113 113.315 185.983 117.151 185.983C120.957 185.983 124.061 183.157 124.101 179.653C124.108 179.032 125.141 178.968 125.141 179.804C125.141 181.121 123.77 188.114 123.036 189.448C123.837 189.261 125.173 189.107 126 189.107C126.827 189.107 128.163 189.261 128.964 189.448C128.23 188.114 126.859 181.121 126.859 179.804C126.859 178.968 127.892 179.032 127.899 179.653C127.939 183.157 131.043 185.983 134.85 185.983C138.685 185.983 141.8 183.113 141.8 179.572C141.8 176.032 138.685 173.157 134.85 173.157C132.779 173.157 130.922 173.994 129.648 175.32C129.14 175.849 128.386 175.033 129.077 174.719C131.373 173.672 132.951 171.49 132.951 168.968C132.951 165.428 129.836 162.552 126 162.552Z" fill="black"/>
<path d="M187 239.448C183.165 239.448 180.05 236.572 180.05 233.032C180.05 230.51 181.627 228.328 183.923 227.281C184.614 226.967 183.86 226.151 183.352 226.68C182.078 228.006 180.221 228.843 178.151 228.843C174.315 228.843 171.2 225.968 171.2 222.428C171.2 218.887 174.315 216.017 178.151 216.017C181.957 216.017 185.061 218.843 185.101 222.347C185.108 222.968 186.141 223.032 186.141 222.196C186.141 220.879 184.77 213.886 184.036 212.552C184.837 212.739 186.173 212.893 187 212.893C187.827 212.893 189.163 212.739 189.964 212.552C189.23 213.886 187.859 220.879 187.859 222.196C187.859 223.032 188.892 222.968 188.899 222.347C188.939 218.843 192.043 216.017 195.85 216.017C199.685 216.017 202.8 218.887 202.8 222.428C202.8 225.968 199.685 228.843 195.85 228.843C193.779 228.843 191.922 228.006 190.648 226.68C190.14 226.151 189.386 226.967 190.077 227.281C192.373 228.328 193.951 230.51 193.951 233.032C193.951 236.572 190.836 239.448 187 239.448Z" fill="black"/>
<path d="M65 239.448C61.1645 239.448 58.0495 236.572 58.0495 233.032C58.0495 230.51 59.6271 228.328 61.9228 227.281C62.6136 226.967 61.8597 226.151 61.3524 226.68C60.0785 228.006 58.2206 228.843 56.1505 228.843C52.315 228.843 49.2 225.968 49.2 222.428C49.2 218.887 52.315 216.017 56.1505 216.017C59.9566 216.017 63.0609 218.843 63.101 222.347C63.1081 222.968 64.1414 223.032 64.1414 222.196C64.1414 220.879 62.7699 213.886 62.0356 212.552C62.8371 212.739 64.173 212.893 65 212.893C65.8271 212.893 67.1629 212.739 67.9645 212.552C67.2301 213.886 65.8586 220.879 65.8586 222.196C65.8586 223.032 66.8919 222.968 66.899 222.347C66.9391 218.843 70.0434 216.017 73.8495 216.017C77.685 216.017 80.8 218.887 80.8 222.428C80.8 225.968 77.685 228.843 73.8495 228.843C71.7795 228.843 69.9216 228.006 68.6476 226.68C68.1403 226.151 67.3864 226.967 68.0773 227.281C70.3729 228.328 71.9505 230.51 71.9505 233.032C71.9505 236.572 68.8355 239.448 65 239.448Z" fill="black"/>
<path d="M187 112.552C183.165 112.552 180.05 115.428 180.05 118.968C180.05 121.49 181.627 123.672 183.923 124.719C184.614 125.033 183.86 125.849 183.352 125.32C182.078 123.994 180.221 123.157 178.151 123.157C174.315 123.157 171.2 126.032 171.2 129.572C171.2 133.113 174.315 135.983 178.151 135.983C181.957 135.983 185.061 133.157 185.101 129.653C185.108 129.032 186.141 128.968 186.141 129.804C186.141 131.121 184.77 138.114 184.036 139.448C184.837 139.261 186.173 139.107 187 139.107C187.827 139.107 189.163 139.261 189.964 139.448C189.23 138.114 187.859 131.121 187.859 129.804C187.859 128.968 188.892 129.032 188.899 129.653C188.939 133.157 192.043 135.983 195.85 135.983C199.685 135.983 202.8 133.113 202.8 129.572C202.8 126.032 199.685 123.157 195.85 123.157C193.779 123.157 191.922 123.994 190.648 125.32C190.14 125.849 189.386 125.033 190.077 124.719C192.373 123.672 193.951 121.49 193.951 118.968C193.951 115.428 190.836 112.552 187 112.552Z" fill="black"/>
<path d="M187 43.5522C190.835 43.5522 193.95 46.4276 193.95 49.9681C193.95 52.4899 192.373 54.6724 190.077 55.7186C189.386 56.0335 190.14 56.8485 190.648 56.3203C191.922 54.9937 193.779 54.1566 195.849 54.1566C199.685 54.1566 202.8 57.032 202.8 60.5724C202.8 64.1129 199.685 66.9825 195.849 66.9825C192.043 66.9825 188.939 64.1565 188.899 60.6534C188.892 60.032 187.859 59.9676 187.859 60.8039C187.859 62.1207 189.23 69.1144 189.964 70.4479C189.163 70.2613 187.827 70.1065 187 70.1065C186.173 70.1065 184.837 70.2613 184.036 70.4479C184.77 69.1144 186.141 62.1207 186.141 60.8039C186.141 59.9676 185.108 60.032 185.101 60.6534C185.061 64.1565 181.957 66.9825 178.15 66.9825C174.315 66.9825 171.2 64.1129 171.2 60.5724C171.2 57.032 174.315 54.1566 178.15 54.1566C180.221 54.1566 182.078 54.9937 183.352 56.3203C183.86 56.8485 184.614 56.0335 183.923 55.7186C181.627 54.6724 180.049 52.4899 180.049 49.9681C180.049 46.4276 183.164 43.5522 187 43.5522Z" fill="black"/>
<path d="M187 308.448C183.165 308.448 180.05 305.572 180.05 302.032C180.05 299.51 181.627 297.328 183.923 296.281C184.614 295.967 183.86 295.151 183.352 295.68C182.078 297.006 180.221 297.843 178.151 297.843C174.315 297.843 171.2 294.968 171.2 291.428C171.2 287.887 174.315 285.017 178.151 285.017C181.957 285.017 185.061 287.843 185.101 291.347C185.108 291.968 186.141 292.032 186.141 291.196C186.141 289.879 184.77 282.886 184.036 281.552C184.837 281.739 186.173 281.893 187 281.893C187.827 281.893 189.163 281.739 189.964 281.552C189.23 282.886 187.859 289.879 187.859 291.196C187.859 292.032 188.892 291.968 188.899 291.347C188.939 287.843 192.043 285.017 195.85 285.017C199.685 285.017 202.8 287.887 202.8 291.428C202.8 294.968 199.685 297.843 195.85 297.843C193.779 297.843 191.922 297.006 190.648 295.68C190.14 295.151 189.386 295.967 190.077 296.281C192.373 297.328 193.951 299.51 193.951 302.032C193.951 305.572 190.836 308.448 187 308.448Z" fill="black"/>
<path d="M65 308.448C61.1645 308.448 58.0495 305.572 58.0495 302.032C58.0495 299.51 59.6271 297.328 61.9228 296.281C62.6136 295.967 61.8597 295.151 61.3524 295.68C60.0785 297.006 58.2206 297.843 56.1505 297.843C52.315 297.843 49.2 294.968 49.2 291.428C49.2 287.887 52.315 285.017 56.1505 285.017C59.9566 285.017 63.0609 287.843 63.101 291.347C63.1081 291.968 64.1414 292.032 64.1414 291.196C64.1414 289.879 62.7699 282.886 62.0356 281.552C62.8371 281.739 64.173 281.893 65 281.893C65.8271 281.893 67.1629 281.739 67.9645 281.552C67.2301 282.886 65.8586 289.879 65.8586 291.196C65.8586 292.032 66.8919 291.968 66.899 291.347C66.9391 287.843 70.0434 285.017 73.8495 285.017C77.685 285.017 80.8 287.887 80.8 291.428C80.8 294.968 77.685 297.843 73.8495 297.843C71.7795 297.843 69.9216 297.006 68.6476 295.68C68.1403 295.151 67.3864 295.967 68.0773 296.281C70.3729 297.328 71.9505 299.51 71.9505 302.032C71.9505 305.572 68.8355 308.448 65 308.448Z" fill="black"/>
<path d="M222.744 302.488C223.747 302.488 224.611 302.691 225.336 303.096C226.061 303.523 226.616 304.067 227 304.728C227.363 305.389 227.544 306.093 227.544 306.84C227.544 307.757 227.277 308.536 226.744 309.176C226.211 309.816 225.517 310.136 224.664 310.136C224.024 310.136 223.512 309.933 223.128 309.528C222.723 309.144 222.52 308.632 222.52 307.992C222.52 307.011 223 306.349 223.96 306.008C224.387 305.859 224.707 305.709 224.92 305.56C225.133 305.411 225.24 305.219 225.24 304.984C225.24 304.557 225.016 304.205 224.568 303.928C224.12 303.651 223.501 303.512 222.712 303.512C221.517 303.512 220.643 304.024 220.088 305.048C219.512 306.072 219.224 307.299 219.224 308.728V313.304L219.416 313.4C219.757 313.059 220.205 312.792 220.76 312.6C221.315 312.429 221.901 312.344 222.52 312.344C224.653 312.344 226.253 312.973 227.32 314.232C228.365 315.491 228.888 317.101 228.888 319.064C228.888 320.28 228.643 321.432 228.152 322.52C227.64 323.629 226.861 324.536 225.816 325.24C224.749 325.944 223.427 326.296 221.848 326.296C220.269 326.296 218.904 325.784 217.752 324.76C216.579 323.736 215.683 322.36 215.064 320.632C214.424 318.904 214.104 317.005 214.104 314.936C214.104 312.483 214.456 310.317 215.16 308.44C215.843 306.563 216.835 305.101 218.136 304.056C219.437 303.011 220.973 302.488 222.744 302.488ZM222.104 313.56C220.952 313.56 220.163 314.008 219.736 314.904C219.523 315.309 219.384 315.875 219.32 316.6C219.256 317.325 219.224 318.307 219.224 319.544C219.224 321.485 219.427 322.925 219.832 323.864C220.237 324.803 220.899 325.272 221.816 325.272C222.541 325.272 223.075 325.016 223.416 324.504C223.736 324.013 223.939 323.373 224.024 322.584C224.109 321.816 224.152 320.749 224.152 319.384C224.152 317.656 224.013 316.248 223.736 315.16C223.437 314.093 222.893 313.56 222.104 313.56Z" fill="black"/>
<path d="M221 293.724C219.082 293.724 217.525 292.286 217.525 290.516C217.525 289.255 218.314 288.164 219.461 287.641C219.807 287.483 219.43 287.076 219.176 287.34C218.539 288.003 217.61 288.422 216.575 288.422C214.657 288.422 213.1 286.984 213.1 285.214C213.1 283.444 214.657 282.009 216.575 282.009C218.478 282.009 220.03 283.422 220.05 285.173C220.054 285.484 220.571 285.516 220.571 285.098C220.571 284.44 219.885 280.943 219.518 280.276C219.919 280.369 220.586 280.447 221 280.447C221.414 280.447 222.081 280.369 222.482 280.276C222.115 280.943 221.429 284.44 221.429 285.098C221.429 285.516 221.946 285.484 221.949 285.173C221.97 283.422 223.522 282.009 225.425 282.009C227.342 282.009 228.9 283.444 228.9 285.214C228.9 286.984 227.342 288.422 225.425 288.422C224.39 288.422 223.461 288.003 222.824 287.34C222.57 287.076 222.193 287.483 222.539 287.641C223.686 288.164 224.475 289.255 224.475 290.516C224.475 292.286 222.918 293.724 221 293.724Z" fill="black"/>
</svg>
