<svg width="252" height="352" viewBox="0 0 252 352" fill="none" xmlns="http://www.w3.org/2000/svg">
<rect x="1" y="1" width="250" height="350" rx="8" fill="white"/>
<rect x="1" y="1" width="250" height="350" rx="8" stroke="#A8A8A8" stroke-opacity="0.5"/>
<path d="M30.376 49.512C29.608 49.512 28.968 49.2133 28.456 48.616C27.9653 48.0187 27.72 47.208 27.72 46.184C27.72 44.904 28.0293 43.6987 28.648 42.568C29.288 41.4373 30.1733 40.2107 31.304 38.888C32.968 36.968 34.2053 35.3253 35.016 33.96C35.5493 33.0213 35.9333 32.0293 36.168 30.984L36.04 30.888C35.3787 31.4427 34.6427 31.72 33.832 31.72C32.9787 31.72 32.0507 31.528 31.048 31.144C30.152 30.8453 29.2773 30.696 28.424 30.696C27.5493 30.696 26.8347 30.92 26.28 31.368C25.7253 31.7947 25.4053 32.4667 25.32 33.384L25.16 35.304H24.008L24.744 26.216H25.896L25.736 28.328L25.864 28.392C27.1013 26.7707 28.456 25.96 29.928 25.96C30.5893 25.96 31.1333 26.1413 31.56 26.504C32.008 26.8453 32.456 27.336 32.904 27.976C33.3307 28.5947 33.7147 29.0747 34.056 29.416C34.3973 29.7573 34.7387 29.928 35.08 29.928C35.7627 29.928 36.104 29.608 36.104 28.968C36.104 28.584 35.8907 28.264 35.464 28.008C34.9307 27.7093 34.664 27.3147 34.664 26.824C34.664 26.568 34.7493 26.3653 34.92 26.216C35.0907 26.0453 35.3253 25.96 35.624 25.96C36.1787 25.96 36.6267 26.28 36.968 26.92C37.3307 27.56 37.512 28.2213 37.512 28.904C37.512 30.2907 37.3093 31.56 36.904 32.712C36.4987 33.8427 35.8587 35.1227 34.984 36.552C34.1733 37.896 33.608 39.3893 33.288 41.032C32.9893 42.6533 32.84 44.3813 32.84 46.216C32.84 47.3253 32.616 48.1573 32.168 48.712C31.7413 49.2453 31.144 49.512 30.376 49.512Z" fill="black"/>
<path d="M31 58.2761C29.0822 58.2761 27.5247 59.7138 27.5247 61.484C27.5247 62.745 28.3135 63.8362 29.4613 64.3593C29.8068 64.5167 29.4298 64.9243 29.1762 64.6601C28.5392 63.9969 27.6103 63.5783 26.5752 63.5783C24.6575 63.5783 23.1 65.016 23.1 66.7862C23.1 68.5565 24.6575 69.9913 26.5752 69.9913C28.4783 69.9913 30.0304 68.5783 30.0505 66.8267C30.054 66.516 30.5707 66.4838 30.5707 66.9019C30.5707 67.5603 29.8849 71.0572 29.5178 71.7239C29.9185 71.6306 30.5864 71.5533 31 71.5533C31.4135 71.5533 32.0814 71.6306 32.4822 71.7239C32.115 71.0572 31.4293 67.5603 31.4293 66.9019C31.4293 66.4838 31.9459 66.516 31.9495 66.8267C31.9695 68.5783 33.5217 69.9913 35.4247 69.9913C37.3425 69.9913 38.9 68.5565 38.9 66.7862C38.9 65.016 37.3425 63.5783 35.4247 63.5783C34.3897 63.5783 33.4607 63.9969 32.8238 64.6601C32.5701 64.9243 32.1932 64.5167 32.5386 64.3593C33.6864 63.8362 34.4752 62.745 34.4752 61.484C34.4752 59.7138 32.9177 58.2761 31 58.2761Z" fill="black"/>
<path d="M65 43.5522C68.8355 43.5522 71.9505 46.4276 71.9505 49.9681C71.9505 52.4899 70.3729 54.6724 68.0772 55.7186C67.3864 56.0335 68.1403 56.8485 68.6476 56.3203C69.9215 54.9937 71.7794 54.1566 73.8495 54.1566C77.685 54.1566 80.8 57.032 80.8 60.5724C80.8 64.1129 77.685 66.9825 73.8495 66.9825C70.0434 66.9825 66.9391 64.1565 66.899 60.6534C66.8919 60.032 65.8586 59.9676 65.8586 60.8039C65.8586 62.1207 67.2301 69.1144 67.9644 70.4479C67.1629 70.2613 65.827 70.1065 65 70.1065C64.1729 70.1065 62.8371 70.2613 62.0355 70.4479C62.7699 69.1144 64.1414 62.1207 64.1414 60.8039C64.1414 59.9676 63.1081 60.032 63.101 60.6534C63.0609 64.1565 59.9566 66.9825 56.1505 66.9825C52.315 66.9825 49.2 64.1129 49.2 60.5724C49.2 57.032 52.315 54.1566 56.1505 54.1566C58.2205 54.1566 60.0784 54.9937 61.3524 56.3203C61.8597 56.8485 62.6136 56.0335 61.9227 55.7186C59.6271 54.6724 58.0495 52.4899 58.0495 49.9681C58.0495 46.4276 61.1645 43.5522 65 43.5522Z" fill="black"/>
<path d="M65 162.552C61.1645 162.552 58.0495 165.428 58.0495 168.968C58.0495 171.49 59.6271 173.672 61.9228 174.719C62.6136 175.033 61.8597 175.849 61.3524 175.32C60.0785 173.994 58.2206 173.157 56.1505 173.157C52.315 173.157 49.2 176.032 49.2 179.572C49.2 183.113 52.315 185.983 56.1505 185.983C59.9566 185.983 63.0609 183.157 63.101 179.653C63.1081 179.032 64.1414 178.968 64.1414 179.804C64.1414 181.121 62.7699 188.114 62.0356 189.448C62.8371 189.261 64.173 189.107 65 189.107C65.8271 189.107 67.1629 189.261 67.9645 189.448C67.2301 188.114 65.8586 181.121 65.8586 179.804C65.8586 178.968 66.8919 179.032 66.899 179.653C66.9391 183.157 70.0434 185.983 73.8495 185.983C77.685 185.983 80.8 183.113 80.8 179.572C80.8 176.032 77.685 173.157 73.8495 173.157C71.7795 173.157 69.9216 173.994 68.6476 175.32C68.1403 175.849 67.3864 175.033 68.0773 174.719C70.3729 173.672 71.9505 171.49 71.9505 168.968C71.9505 165.428 68.8355 162.552 65 162.552Z" fill="black"/>
<path d="M126 103.552C122.165 103.552 119.05 106.428 119.05 109.968C119.05 112.49 120.627 114.672 122.923 115.719C123.614 116.033 122.86 116.849 122.352 116.32C121.078 114.994 119.221 114.157 117.151 114.157C113.315 114.157 110.2 117.032 110.2 120.572C110.2 124.113 113.315 126.983 117.151 126.983C120.957 126.983 124.061 124.157 124.101 120.653C124.108 120.032 125.141 119.968 125.141 120.804C125.141 122.121 123.77 129.114 123.036 130.448C123.837 130.261 125.173 130.107 126 130.107C126.827 130.107 128.163 130.261 128.964 130.448C128.23 129.114 126.859 122.121 126.859 120.804C126.859 119.968 127.892 120.032 127.899 120.653C127.939 124.157 131.043 126.983 134.85 126.983C138.685 126.983 141.8 124.113 141.8 120.572C141.8 117.032 138.685 114.157 134.85 114.157C132.779 114.157 130.922 114.994 129.648 116.32C129.14 116.849 128.386 116.033 129.077 115.719C131.373 114.672 132.951 112.49 132.951 109.968C132.951 106.428 129.836 103.552 126 103.552Z" fill="black"/>
<path d="M187 162.552C183.165 162.552 180.05 165.428 180.05 168.968C180.05 171.49 181.627 173.672 183.923 174.719C184.614 175.033 183.86 175.849 183.352 175.32C182.078 173.994 180.221 173.157 178.151 173.157C174.315 173.157 171.2 176.032 171.2 179.572C171.2 183.113 174.315 185.983 178.151 185.983C181.957 185.983 185.061 183.157 185.101 179.653C185.108 179.032 186.141 178.968 186.141 179.804C186.141 181.121 184.77 188.114 184.036 189.448C184.837 189.261 186.173 189.107 187 189.107C187.827 189.107 189.163 189.261 189.964 189.448C189.23 188.114 187.859 181.121 187.859 179.804C187.859 178.968 188.892 179.032 188.899 179.653C188.939 183.157 192.043 185.983 195.85 185.983C199.685 185.983 202.8 183.113 202.8 179.572C202.8 176.032 199.685 173.157 195.85 173.157C193.779 173.157 191.922 173.994 190.648 175.32C190.14 175.849 189.386 175.033 190.077 174.719C192.373 173.672 193.951 171.49 193.951 168.968C193.951 165.428 190.836 162.552 187 162.552Z" fill="black"/>
<path d="M187 43.5522C190.835 43.5522 193.95 46.4276 193.95 49.9681C193.95 52.4899 192.373 54.6724 190.077 55.7186C189.386 56.0335 190.14 56.8485 190.648 56.3203C191.922 54.9937 193.779 54.1566 195.849 54.1566C199.685 54.1566 202.8 57.032 202.8 60.5724C202.8 64.1129 199.685 66.9825 195.849 66.9825C192.043 66.9825 188.939 64.1565 188.899 60.6534C188.892 60.032 187.859 59.9676 187.859 60.8039C187.859 62.1207 189.23 69.1144 189.964 70.4479C189.163 70.2613 187.827 70.1065 187 70.1065C186.173 70.1065 184.837 70.2613 184.036 70.4479C184.77 69.1144 186.141 62.1207 186.141 60.8039C186.141 59.9676 185.108 60.032 185.101 60.6534C185.061 64.1565 181.957 66.9825 178.15 66.9825C174.315 66.9825 171.2 64.1129 171.2 60.5724C171.2 57.032 174.315 54.1566 178.15 54.1566C180.221 54.1566 182.078 54.9937 183.352 56.3203C183.86 56.8485 184.614 56.0335 183.923 55.7186C181.627 54.6724 180.049 52.4899 180.049 49.9681C180.049 46.4276 183.164 43.5522 187 43.5522Z" fill="black"/>
<path d="M187 308.448C190.835 308.448 193.95 305.572 193.95 302.032C193.95 299.51 192.373 297.328 190.077 296.281C189.386 295.967 190.14 295.151 190.648 295.68C191.922 297.006 193.779 297.843 195.849 297.843C199.685 297.843 202.8 294.968 202.8 291.428C202.8 287.887 199.685 285.017 195.849 285.017C192.043 285.017 188.939 287.843 188.899 291.347C188.892 291.968 187.859 292.032 187.859 291.196C187.859 289.879 189.23 282.886 189.964 281.552C189.163 281.739 187.827 281.893 187 281.893C186.173 281.893 184.837 281.739 184.036 281.552C184.77 282.886 186.141 289.879 186.141 291.196C186.141 292.032 185.108 291.968 185.101 291.347C185.061 287.843 181.957 285.017 178.15 285.017C174.315 285.017 171.2 287.887 171.2 291.428C171.2 294.968 174.315 297.843 178.15 297.843C180.221 297.843 182.078 297.006 183.352 295.68C183.86 295.151 184.614 295.967 183.923 296.281C181.627 297.328 180.049 299.51 180.049 302.032C180.049 305.572 183.164 308.448 187 308.448Z" fill="black"/>
<path d="M65 308.448C61.1645 308.448 58.0495 305.572 58.0495 302.032C58.0495 299.51 59.6271 297.328 61.9228 296.281C62.6136 295.967 61.8597 295.151 61.3524 295.68C60.0785 297.006 58.2206 297.843 56.1505 297.843C52.315 297.843 49.2 294.968 49.2 291.428C49.2 287.887 52.315 285.017 56.1505 285.017C59.9566 285.017 63.0609 287.843 63.101 291.347C63.1081 291.968 64.1414 292.032 64.1414 291.196C64.1414 289.879 62.7699 282.886 62.0356 281.552C62.8371 281.739 64.173 281.893 65 281.893C65.8271 281.893 67.1629 281.739 67.9645 281.552C67.2301 282.886 65.8586 289.879 65.8586 291.196C65.8586 292.032 66.8919 291.968 66.899 291.347C66.9391 287.843 70.0434 285.017 73.8495 285.017C77.685 285.017 80.8 287.887 80.8 291.428C80.8 294.968 77.685 297.843 73.8495 297.843C71.7795 297.843 69.9216 297.006 68.6476 295.68C68.1403 295.151 67.3864 295.967 68.0773 296.281C70.3729 297.328 71.9505 299.51 71.9505 302.032C71.9505 305.572 68.8355 308.448 65 308.448Z" fill="black"/>
<path d="M221.624 302.488C222.392 302.488 223.032 302.787 223.544 303.384C224.035 303.981 224.28 304.792 224.28 305.816C224.28 307.096 223.971 308.301 223.352 309.432C222.712 310.563 221.827 311.789 220.696 313.112C219.032 315.032 217.795 316.675 216.984 318.04C216.451 318.979 216.067 319.971 215.832 321.016L215.96 321.112C216.621 320.557 217.357 320.28 218.168 320.28C219.021 320.28 219.949 320.472 220.952 320.856C221.848 321.155 222.723 321.304 223.576 321.304C224.451 321.304 225.165 321.08 225.72 320.632C226.275 320.205 226.595 319.533 226.68 318.616L226.84 316.696H227.992L227.256 325.784H226.104L226.264 323.672L226.136 323.608C224.899 325.229 223.544 326.04 222.072 326.04C221.411 326.04 220.867 325.859 220.44 325.496C219.992 325.155 219.544 324.664 219.096 324.024C218.669 323.405 218.285 322.925 217.944 322.584C217.603 322.243 217.261 322.072 216.92 322.072C216.237 322.072 215.896 322.392 215.896 323.032C215.896 323.416 216.109 323.736 216.536 323.992C217.069 324.291 217.336 324.685 217.336 325.176C217.336 325.432 217.251 325.635 217.08 325.784C216.909 325.955 216.675 326.04 216.376 326.04C215.821 326.04 215.373 325.72 215.032 325.08C214.669 324.44 214.488 323.779 214.488 323.096C214.488 321.709 214.691 320.44 215.096 319.288C215.501 318.157 216.141 316.877 217.016 315.448C217.827 314.104 218.392 312.611 218.712 310.968C219.011 309.347 219.16 307.619 219.16 305.784C219.16 304.675 219.384 303.843 219.832 303.288C220.259 302.755 220.856 302.488 221.624 302.488Z" fill="black"/>
<path d="M221 293.724C219.082 293.724 217.525 292.286 217.525 290.516C217.525 289.255 218.314 288.164 219.461 287.641C219.807 287.483 219.43 287.076 219.176 287.34C218.539 288.003 217.61 288.422 216.575 288.422C214.657 288.422 213.1 286.984 213.1 285.214C213.1 283.444 214.657 282.009 216.575 282.009C218.478 282.009 220.03 283.422 220.05 285.173C220.054 285.484 220.571 285.516 220.571 285.098C220.571 284.44 219.885 280.943 219.518 280.276C219.919 280.369 220.586 280.447 221 280.447C221.414 280.447 222.081 280.369 222.482 280.276C222.115 280.943 221.429 284.44 221.429 285.098C221.429 285.516 221.946 285.484 221.949 285.173C221.97 283.422 223.522 282.009 225.425 282.009C227.342 282.009 228.9 283.444 228.9 285.214C228.9 286.984 227.342 288.422 225.425 288.422C224.39 288.422 223.461 288.003 222.824 287.34C222.57 287.076 222.193 287.483 222.539 287.641C223.686 288.164 224.475 289.255 224.475 290.516C224.475 292.286 222.918 293.724 221 293.724Z" fill="black"/>
</svg>
