<svg width="252" height="352" viewBox="0 0 252 352" fill="none" xmlns="http://www.w3.org/2000/svg">
<rect x="1" y="1" width="250" height="350" rx="8" fill="white"/>
<rect x="1" y="1" width="250" height="350" rx="8" stroke="#A8A8A8" stroke-opacity="0.5"/>
<path d="M31.048 49.512C29.4693 49.512 28.0933 49 26.92 47.976C25.768 46.952 24.872 45.576 24.232 43.848C23.6133 42.12 23.304 40.2213 23.304 38.152C23.304 35.6987 23.6453 33.5333 24.328 31.656C25.032 29.7787 26.0347 28.3173 27.336 27.272C28.6373 26.2267 30.1733 25.704 31.944 25.704C32.9467 25.704 33.8107 25.9173 34.536 26.344C35.2613 26.7493 35.8053 27.2827 36.168 27.944C36.552 28.6053 36.744 29.3093 36.744 30.056C36.744 30.9733 36.4773 31.752 35.944 32.392C35.4107 33.032 34.7173 33.352 33.864 33.352C33.224 33.352 32.7013 33.16 32.296 32.776C31.912 32.3707 31.72 31.848 31.72 31.208C31.72 30.2267 32.2 29.5653 33.16 29.224C33.5867 29.0747 33.9067 28.9253 34.12 28.776C34.3333 28.6267 34.44 28.4347 34.44 28.2C34.44 27.7733 34.216 27.4213 33.768 27.144C33.32 26.8667 32.7013 26.728 31.912 26.728C30.7173 26.728 29.832 27.24 29.256 28.264C28.7013 29.288 28.424 30.5147 28.424 31.944V36.52L28.616 36.616C28.9573 36.2747 29.4053 36.0187 29.96 35.848C30.5147 35.656 31.1013 35.56 31.72 35.56C33.8533 35.56 35.4427 36.1893 36.488 37.448C37.5547 38.7067 38.088 40.3173 38.088 42.28C38.088 43.496 37.832 44.6587 37.32 45.768C36.8293 46.856 36.0507 47.752 34.984 48.456C33.9387 49.16 32.6267 49.512 31.048 49.512ZM31.016 48.488C31.7413 48.488 32.264 48.2427 32.584 47.752C32.9253 47.24 33.1387 46.6 33.224 45.832C33.3093 45.0427 33.352 43.9653 33.352 42.6C33.352 40.872 33.2027 39.4747 32.904 38.408C32.6267 37.32 32.0933 36.776 31.304 36.776C30.152 36.776 29.3627 37.224 28.936 38.12C28.7227 38.5253 28.584 39.0907 28.52 39.816C28.456 40.5413 28.424 41.5227 28.424 42.76C28.424 44.7013 28.6267 46.1413 29.032 47.08C29.4373 48.0187 30.0987 48.488 31.016 48.488Z" fill="#FF0000"/>
<path d="M220.952 302.488C222.531 302.488 223.907 303 225.08 304.024C226.232 305.048 227.128 306.424 227.768 308.152C228.387 309.88 228.696 311.779 228.696 313.848C228.696 316.301 228.355 318.467 227.672 320.344C226.968 322.221 225.965 323.683 224.664 324.728C223.363 325.773 221.827 326.296 220.056 326.296C219.053 326.296 218.189 326.083 217.464 325.656C216.739 325.251 216.195 324.717 215.832 324.056C215.448 323.395 215.256 322.691 215.256 321.944C215.256 321.027 215.523 320.248 216.056 319.608C216.589 318.968 217.283 318.648 218.136 318.648C218.776 318.648 219.299 318.84 219.704 319.224C220.088 319.629 220.28 320.152 220.28 320.792C220.28 321.773 219.8 322.435 218.84 322.776C218.413 322.925 218.093 323.075 217.88 323.224C217.667 323.373 217.56 323.565 217.56 323.8C217.56 324.227 217.784 324.579 218.232 324.856C218.68 325.133 219.299 325.272 220.088 325.272C221.283 325.272 222.168 324.76 222.744 323.736C223.299 322.712 223.576 321.485 223.576 320.056V315.48L223.384 315.384C223.043 315.725 222.595 315.981 222.04 316.152C221.485 316.344 220.899 316.44 220.28 316.44C218.147 316.44 216.557 315.811 215.512 314.552C214.445 313.293 213.912 311.683 213.912 309.72C213.912 308.504 214.168 307.341 214.68 306.232C215.171 305.144 215.949 304.248 217.016 303.544C218.061 302.84 219.373 302.488 220.952 302.488ZM220.984 303.512C220.259 303.512 219.736 303.757 219.416 304.248C219.075 304.76 218.861 305.4 218.776 306.168C218.691 306.957 218.648 308.035 218.648 309.4C218.648 311.128 218.797 312.525 219.096 313.592C219.373 314.68 219.907 315.224 220.696 315.224C221.848 315.224 222.637 314.776 223.064 313.88C223.277 313.475 223.416 312.909 223.48 312.184C223.544 311.459 223.576 310.477 223.576 309.24C223.576 307.299 223.373 305.859 222.968 304.92C222.563 303.981 221.901 303.512 220.984 303.512Z" fill="#FF0000"/>
<g clip-path="url(#clip0_8_1093)">
<path d="M31.1942 72.8873C31.0867 73.0371 30.9133 73.0371 30.8058 72.8873L25.3618 65.2717C25.2542 65.1215 25.2542 64.878 25.3618 64.7277L30.8058 57.1122C30.9133 56.962 31.0867 56.962 31.1942 57.1122L36.6387 64.7277C36.7458 64.878 36.7458 65.1215 36.6387 65.2717L31.1942 72.8873Z" fill="#FF0000"/>
</g>
<g clip-path="url(#clip1_8_1093)">
<path d="M65.3885 72.7746C65.1734 73.0741 64.8267 73.0741 64.6116 72.7746L53.7236 57.5435C53.5085 57.243 53.5085 56.7559 53.7236 56.4555L64.6116 41.2244C64.8267 40.9239 65.1734 40.9239 65.3885 41.2244L76.2774 56.4555C76.4916 56.7559 76.4916 57.243 76.2774 57.5435L65.3885 72.7746Z" fill="#FF0000"/>
</g>
<g clip-path="url(#clip2_8_1093)">
<path d="M187.388 310.775C187.173 311.074 186.827 311.074 186.612 310.775L175.724 295.543C175.508 295.243 175.508 294.756 175.724 294.455L186.612 279.224C186.827 278.924 187.173 278.924 187.388 279.224L198.277 294.455C198.492 294.756 198.492 295.243 198.277 295.543L187.388 310.775Z" fill="#FF0000"/>
</g>
<g clip-path="url(#clip3_8_1093)">
<path d="M187.388 72.7746C187.173 73.0741 186.827 73.0741 186.612 72.7746L175.724 57.5435C175.508 57.243 175.508 56.7559 175.724 56.4555L186.612 41.2244C186.827 40.9239 187.173 40.9239 187.388 41.2244L198.277 56.4555C198.492 56.7559 198.492 57.243 198.277 57.5435L187.388 72.7746Z" fill="#FF0000"/>
</g>
<g clip-path="url(#clip4_8_1093)">
<path d="M60.3885 191.775C60.1734 192.074 59.8267 192.074 59.6116 191.775L48.7236 176.543C48.5085 176.243 48.5085 175.756 48.7236 175.455L59.6116 160.224C59.8267 159.924 60.1734 159.924 60.3885 160.224L71.2774 175.455C71.4916 175.756 71.4916 176.243 71.2774 176.543L60.3885 191.775Z" fill="#FF0000"/>
</g>
<g clip-path="url(#clip5_8_1093)">
<path d="M187.388 191.775C187.173 192.074 186.827 192.074 186.612 191.775L175.724 176.543C175.508 176.243 175.508 175.756 175.724 175.455L186.612 160.224C186.827 159.924 187.173 159.924 187.388 160.224L198.277 175.455C198.492 175.756 198.492 176.243 198.277 176.543L187.388 191.775Z" fill="#FF0000"/>
</g>
<g clip-path="url(#clip6_8_1093)">
<path d="M65.3885 310.775C65.1734 311.074 64.8267 311.074 64.6116 310.775L53.7236 295.543C53.5085 295.243 53.5085 294.756 53.7236 294.455L64.6116 279.224C64.8267 278.924 65.1734 278.924 65.3885 279.224L76.2774 294.455C76.4916 294.756 76.4916 295.243 76.2774 295.543L65.3885 310.775Z" fill="#FF0000"/>
</g>
<g clip-path="url(#clip7_8_1093)">
<path d="M221.194 279.113C221.087 278.963 220.913 278.963 220.806 279.113L215.362 286.728C215.254 286.878 215.254 287.122 215.362 287.272L220.806 294.888C220.913 295.038 221.087 295.038 221.194 294.888L226.639 287.272C226.746 287.122 226.746 286.878 226.639 286.728L221.194 279.113Z" fill="#FF0000"/>
</g>
<defs>
<clipPath id="clip0_8_1093">
<rect width="16" height="16" fill="white" transform="translate(23 57)"/>
</clipPath>
<clipPath id="clip1_8_1093">
<rect width="32" height="32" fill="white" transform="translate(49 41)"/>
</clipPath>
<clipPath id="clip2_8_1093">
<rect width="32" height="32" fill="white" transform="translate(171 279)"/>
</clipPath>
<clipPath id="clip3_8_1093">
<rect width="32" height="32" fill="white" transform="translate(171 41)"/>
</clipPath>
<clipPath id="clip4_8_1093">
<rect width="32" height="32" fill="white" transform="translate(44 160)"/>
</clipPath>
<clipPath id="clip5_8_1093">
<rect width="32" height="32" fill="white" transform="translate(171 160)"/>
</clipPath>
<clipPath id="clip6_8_1093">
<rect width="32" height="32" fill="white" transform="translate(49 279)"/>
</clipPath>
<clipPath id="clip7_8_1093">
<rect width="16" height="16" fill="white" transform="matrix(1 0 0 -1 213 295)"/>
</clipPath>
</defs>
</svg>
