<svg width="252" height="352" viewBox="0 0 252 352" fill="none" xmlns="http://www.w3.org/2000/svg">
<rect x="1" y="1" width="250" height="350" rx="8" fill="white"/>
<rect x="1" y="1" width="250" height="350" rx="8" stroke="#A8A8A8" stroke-opacity="0.5"/>
<path d="M15.84 47.976H18.144C18.4427 47.976 18.6453 47.9227 18.752 47.816C18.8587 47.688 18.912 47.4853 18.912 47.208V29.704H15.84V28.552H17.024C17.9627 28.552 18.8267 28.3493 19.616 27.944C20.4267 27.5387 20.9707 26.9627 21.248 26.216H23.648V47.208C23.648 47.4853 23.7013 47.688 23.808 47.816C23.936 47.9227 24.1387 47.976 24.416 47.976H26.72V49H15.84V47.976ZM39.8425 49.512C38.3065 49.512 36.9518 48.9147 35.7785 47.72C34.6265 46.5253 33.7305 45.0107 33.0905 43.176C32.4718 41.32 32.1625 39.464 32.1625 37.608C32.1625 35.752 32.4718 33.9067 33.0905 32.072C33.7305 30.216 34.6265 28.6907 35.7785 27.496C36.9518 26.3013 38.3065 25.704 39.8425 25.704C41.3785 25.704 42.7225 26.3013 43.8745 27.496C45.0478 28.6907 45.9438 30.216 46.5625 32.072C47.2025 33.9067 47.5225 35.752 47.5225 37.608C47.5225 39.464 47.2025 41.32 46.5625 43.176C45.9438 45.0107 45.0478 46.5253 43.8745 47.72C42.7225 48.9147 41.3785 49.512 39.8425 49.512ZM39.8425 48.488C40.6318 48.488 41.1972 48.0613 41.5385 47.208C41.9012 46.3333 42.0825 45.3947 42.0825 44.392V30.824C42.0825 29.8213 41.9012 28.8933 41.5385 28.04C41.1972 27.1653 40.6318 26.728 39.8425 26.728C39.0532 26.728 38.4772 27.1653 38.1145 28.04C37.7732 28.8933 37.6025 29.8213 37.6025 30.824V44.392C37.6025 45.3947 37.7732 46.3333 38.1145 47.208C38.4772 48.0613 39.0532 48.488 39.8425 48.488Z" fill="#FF0000"/>
<path d="M236.16 304.024H233.856C233.557 304.024 233.355 304.077 233.248 304.184C233.141 304.312 233.088 304.515 233.088 304.792V322.296H236.16V323.448H234.976C234.037 323.448 233.173 323.651 232.384 324.056C231.573 324.461 231.029 325.037 230.752 325.784H228.352V304.792C228.352 304.515 228.299 304.312 228.192 304.184C228.064 304.077 227.861 304.024 227.584 304.024H225.28V303H236.16V304.024ZM212.157 302.488C213.693 302.488 215.048 303.085 216.221 304.28C217.373 305.475 218.269 306.989 218.909 308.824C219.528 310.68 219.837 312.536 219.837 314.392C219.837 316.248 219.528 318.093 218.909 319.928C218.269 321.784 217.373 323.309 216.221 324.504C215.048 325.699 213.693 326.296 212.157 326.296C210.621 326.296 209.277 325.699 208.125 324.504C206.952 323.309 206.056 321.784 205.438 319.928C204.797 318.093 204.477 316.248 204.477 314.392C204.477 312.536 204.797 310.68 205.438 308.824C206.056 306.989 206.952 305.475 208.125 304.28C209.277 303.085 210.621 302.488 212.157 302.488ZM212.157 303.512C211.368 303.512 210.803 303.939 210.461 304.792C210.099 305.667 209.917 306.605 209.917 307.608V321.176C209.917 322.179 210.099 323.107 210.461 323.96C210.803 324.835 211.368 325.272 212.157 325.272C212.947 325.272 213.523 324.835 213.885 323.96C214.227 323.107 214.397 322.179 214.397 321.176V307.608C214.397 306.605 214.227 305.667 213.885 304.792C213.523 303.939 212.947 303.512 212.157 303.512Z" fill="#FF0000"/>
<g clip-path="url(#clip0_8_1189)">
<path d="M31.1942 72.8873C31.0867 73.0371 30.9133 73.0371 30.8058 72.8873L25.3618 65.2717C25.2542 65.1215 25.2542 64.878 25.3618 64.7277L30.8058 57.1122C30.9133 56.962 31.0867 56.962 31.1942 57.1122L36.6387 64.7277C36.7458 64.878 36.7458 65.1215 36.6387 65.2717L31.1942 72.8873Z" fill="#FF0000"/>
</g>
<g clip-path="url(#clip1_8_1189)">
<path d="M65.3885 72.7746C65.1734 73.0741 64.8267 73.0741 64.6116 72.7746L53.7236 57.5435C53.5085 57.243 53.5085 56.7559 53.7236 56.4555L64.6116 41.2244C64.8267 40.9239 65.1734 40.9239 65.3885 41.2244L76.2774 56.4555C76.4916 56.7559 76.4916 57.243 76.2774 57.5435L65.3885 72.7746Z" fill="#FF0000"/>
</g>
<g clip-path="url(#clip2_8_1189)">
<path d="M187.388 310.775C187.173 311.074 186.827 311.074 186.612 310.775L175.724 295.543C175.508 295.243 175.508 294.756 175.724 294.455L186.612 279.224C186.827 278.924 187.173 278.924 187.388 279.224L198.277 294.455C198.492 294.756 198.492 295.243 198.277 295.543L187.388 310.775Z" fill="#FF0000"/>
</g>
<g clip-path="url(#clip3_8_1189)">
<path d="M187.388 72.7746C187.173 73.0741 186.827 73.0741 186.612 72.7746L175.724 57.5435C175.508 57.243 175.508 56.7559 175.724 56.4555L186.612 41.2244C186.827 40.9239 187.173 40.9239 187.388 41.2244L198.277 56.4555C198.492 56.7559 198.492 57.243 198.277 57.5435L187.388 72.7746Z" fill="#FF0000"/>
</g>
<g clip-path="url(#clip4_8_1189)">
<path d="M65.3885 241.775C65.1734 242.074 64.8267 242.074 64.6116 241.775L53.7236 226.543C53.5085 226.243 53.5085 225.756 53.7236 225.455L64.6116 210.224C64.8267 209.924 65.1734 209.924 65.3885 210.224L76.2774 225.455C76.4916 225.756 76.4916 226.243 76.2774 226.543L65.3885 241.775Z" fill="#FF0000"/>
</g>
<g clip-path="url(#clip5_8_1189)">
<path d="M187.388 241.775C187.173 242.074 186.827 242.074 186.612 241.775L175.724 226.543C175.508 226.243 175.508 225.756 175.724 225.455L186.612 210.224C186.827 209.924 187.173 209.924 187.388 210.224L198.277 225.455C198.492 225.756 198.492 226.243 198.277 226.543L187.388 241.775Z" fill="#FF0000"/>
</g>
<g clip-path="url(#clip6_8_1189)">
<path d="M187.388 141.775C187.173 142.074 186.827 142.074 186.612 141.775L175.724 126.543C175.508 126.243 175.508 125.756 175.724 125.455L186.612 110.224C186.827 109.924 187.173 109.924 187.388 110.224L198.277 125.455C198.492 125.756 198.492 126.243 198.277 126.543L187.388 141.775Z" fill="#FF0000"/>
</g>
<g clip-path="url(#clip7_8_1189)">
<path d="M126.388 104.775C126.173 105.074 125.827 105.074 125.612 104.775L114.724 89.5435C114.508 89.243 114.508 88.7559 114.724 88.4555L125.612 73.2244C125.827 72.9239 126.173 72.9239 126.388 73.2244L137.277 88.4555C137.492 88.7559 137.492 89.243 137.277 89.5435L126.388 104.775Z" fill="#FF0000"/>
</g>
<g clip-path="url(#clip8_8_1189)">
<path d="M126.388 278.775C126.173 279.074 125.827 279.074 125.612 278.775L114.724 263.543C114.508 263.243 114.508 262.756 114.724 262.455L125.612 247.224C125.827 246.924 126.173 246.924 126.388 247.224L137.277 262.455C137.492 262.756 137.492 263.243 137.277 263.543L126.388 278.775Z" fill="#FF0000"/>
</g>
<g clip-path="url(#clip9_8_1189)">
<path d="M65.3885 141.775C65.1734 142.074 64.8267 142.074 64.6116 141.775L53.7236 126.543C53.5085 126.243 53.5085 125.756 53.7236 125.455L64.6116 110.224C64.8267 109.924 65.1734 109.924 65.3885 110.224L76.2774 125.455C76.4916 125.756 76.4916 126.243 76.2774 126.543L65.3885 141.775Z" fill="#FF0000"/>
</g>
<g clip-path="url(#clip10_8_1189)">
<path d="M65.3885 310.775C65.1734 311.074 64.8267 311.074 64.6116 310.775L53.7236 295.543C53.5085 295.243 53.5085 294.756 53.7236 294.455L64.6116 279.224C64.8267 278.924 65.1734 278.924 65.3885 279.224L76.2774 294.455C76.4916 294.756 76.4916 295.243 76.2774 295.543L65.3885 310.775Z" fill="#FF0000"/>
</g>
<g clip-path="url(#clip11_8_1189)">
<path d="M221.194 279.113C221.087 278.963 220.913 278.963 220.806 279.113L215.362 286.728C215.254 286.878 215.254 287.122 215.362 287.272L220.806 294.888C220.913 295.038 221.087 295.038 221.194 294.888L226.639 287.272C226.746 287.122 226.746 286.878 226.639 286.728L221.194 279.113Z" fill="#FF0000"/>
</g>
<defs>
<clipPath id="clip0_8_1189">
<rect width="16" height="16" fill="white" transform="translate(23 57)"/>
</clipPath>
<clipPath id="clip1_8_1189">
<rect width="32" height="32" fill="white" transform="translate(49 41)"/>
</clipPath>
<clipPath id="clip2_8_1189">
<rect width="32" height="32" fill="white" transform="translate(171 279)"/>
</clipPath>
<clipPath id="clip3_8_1189">
<rect width="32" height="32" fill="white" transform="translate(171 41)"/>
</clipPath>
<clipPath id="clip4_8_1189">
<rect width="32" height="32" fill="white" transform="translate(49 210)"/>
</clipPath>
<clipPath id="clip5_8_1189">
<rect width="32" height="32" fill="white" transform="translate(171 210)"/>
</clipPath>
<clipPath id="clip6_8_1189">
<rect width="32" height="32" fill="white" transform="translate(171 110)"/>
</clipPath>
<clipPath id="clip7_8_1189">
<rect width="32" height="32" fill="white" transform="translate(110 73)"/>
</clipPath>
<clipPath id="clip8_8_1189">
<rect width="32" height="32" fill="white" transform="translate(110 247)"/>
</clipPath>
<clipPath id="clip9_8_1189">
<rect width="32" height="32" fill="white" transform="translate(49 110)"/>
</clipPath>
<clipPath id="clip10_8_1189">
<rect width="32" height="32" fill="white" transform="translate(49 279)"/>
</clipPath>
<clipPath id="clip11_8_1189">
<rect width="16" height="16" fill="white" transform="matrix(1 0 0 -1 213 295)"/>
</clipPath>
</defs>
</svg>
