<svg width="252" height="352" viewBox="0 0 252 352" fill="none" xmlns="http://www.w3.org/2000/svg">
<rect x="1" y="1" width="250" height="350" rx="8" fill="white"/>
<rect x="1" y="1" width="250" height="350" rx="8" stroke="#A8A8A8" stroke-opacity="0.5"/>
<path d="M29.096 49.512C27.2613 49.512 25.7467 49.064 24.552 48.168C23.3787 47.2507 22.792 46.024 22.792 44.488C22.792 43.6133 23.08 42.856 23.656 42.216C24.2533 41.5547 24.9893 41.224 25.864 41.224C26.5893 41.224 27.1653 41.4267 27.592 41.832C28.0187 42.2373 28.232 42.7387 28.232 43.336C28.232 44.3813 27.7413 45.1173 26.76 45.544C26.5253 45.6507 26.312 45.8 26.12 45.992C25.9493 46.184 25.864 46.3973 25.864 46.632C25.864 47.208 26.1413 47.6667 26.696 48.008C27.272 48.328 28.04 48.488 29 48.488C31.2613 48.488 32.392 46.6 32.392 42.824C32.392 41.0533 32.0827 39.7413 31.464 38.888C30.8453 38.0347 30.0773 37.608 29.16 37.608H25.928V36.456H29.096C30.0987 36.456 30.824 36.0827 31.272 35.336C31.7413 34.568 31.976 33.384 31.976 31.784C31.976 29.8427 31.7413 28.52 31.272 27.816C30.824 27.0907 30.1307 26.728 29.192 26.728C28.3813 26.728 27.688 26.9627 27.112 27.432C26.536 27.88 26.248 28.4667 26.248 29.192C26.248 29.6613 26.568 30.1093 27.208 30.536C27.9547 31.0267 28.328 31.6667 28.328 32.456C28.328 32.968 28.136 33.416 27.752 33.8C27.3893 34.184 26.888 34.376 26.248 34.376C25.4587 34.376 24.776 34.0667 24.2 33.448C23.6453 32.808 23.368 32.008 23.368 31.048C23.368 29.9813 23.6453 29.0427 24.2 28.232C24.7547 27.4213 25.5013 26.8027 26.44 26.376C27.4 25.928 28.4453 25.704 29.576 25.704C31.7307 25.704 33.4693 26.216 34.792 27.24C36.1147 28.264 36.776 29.6507 36.776 31.4C36.776 32.9147 36.2533 34.12 35.208 35.016C34.184 35.912 32.9573 36.5093 31.528 36.808V37.096C32.5307 37.1813 33.4907 37.4907 34.408 38.024C35.3253 38.536 36.072 39.2187 36.648 40.072C37.224 40.9253 37.512 41.8853 37.512 42.952C37.512 45.064 36.744 46.6853 35.208 47.816C33.6933 48.9467 31.656 49.512 29.096 49.512Z" fill="#FF0000"/>
<path d="M222.904 302.488C224.739 302.488 226.253 302.936 227.448 303.832C228.621 304.749 229.208 305.976 229.208 307.512C229.208 308.387 228.92 309.144 228.344 309.784C227.747 310.445 227.011 310.776 226.136 310.776C225.411 310.776 224.835 310.573 224.408 310.168C223.981 309.763 223.768 309.261 223.768 308.664C223.768 307.619 224.259 306.883 225.24 306.456C225.475 306.349 225.688 306.2 225.88 306.008C226.051 305.816 226.136 305.603 226.136 305.368C226.136 304.792 225.859 304.333 225.304 303.992C224.728 303.672 223.96 303.512 223 303.512C220.739 303.512 219.608 305.4 219.608 309.176C219.608 310.947 219.917 312.259 220.536 313.112C221.155 313.965 221.923 314.392 222.84 314.392H226.072V315.544H222.904C221.901 315.544 221.176 315.917 220.728 316.664C220.259 317.432 220.024 318.616 220.024 320.216C220.024 322.157 220.259 323.48 220.728 324.184C221.176 324.909 221.869 325.272 222.808 325.272C223.619 325.272 224.312 325.037 224.888 324.568C225.464 324.12 225.752 323.533 225.752 322.808C225.752 322.339 225.432 321.891 224.792 321.464C224.045 320.973 223.672 320.333 223.672 319.544C223.672 319.032 223.864 318.584 224.248 318.2C224.611 317.816 225.112 317.624 225.752 317.624C226.541 317.624 227.224 317.933 227.8 318.552C228.355 319.192 228.632 319.992 228.632 320.952C228.632 322.019 228.355 322.957 227.8 323.768C227.245 324.579 226.499 325.197 225.56 325.624C224.6 326.072 223.555 326.296 222.424 326.296C220.269 326.296 218.531 325.784 217.208 324.76C215.885 323.736 215.224 322.349 215.224 320.6C215.224 319.085 215.747 317.88 216.792 316.984C217.816 316.088 219.043 315.491 220.472 315.192V314.904C219.469 314.819 218.509 314.509 217.592 313.976C216.675 313.464 215.928 312.781 215.352 311.928C214.776 311.075 214.488 310.115 214.488 309.048C214.488 306.936 215.256 305.315 216.792 304.184C218.307 303.053 220.344 302.488 222.904 302.488Z" fill="#FF0000"/>
<g clip-path="url(#clip0_8_1042)">
<path d="M31.1942 72.8874C31.0867 73.0371 30.9133 73.0371 30.8058 72.8874L25.3618 65.2718C25.2542 65.1216 25.2542 64.878 25.3618 64.7278L30.8058 57.1122C30.9133 56.962 31.0867 56.962 31.1942 57.1122L36.6387 64.7278C36.7458 64.878 36.7458 65.1216 36.6387 65.2718L31.1942 72.8874Z" fill="#FF0000"/>
</g>
<g clip-path="url(#clip1_8_1042)">
<path d="M126.388 72.7746C126.173 73.0742 125.827 73.0742 125.612 72.7746L114.724 57.5435C114.508 57.2431 114.508 56.756 114.724 56.4555L125.612 41.2244C125.827 40.924 126.173 40.924 126.388 41.2244L137.277 56.4555C137.492 56.756 137.492 57.2431 137.277 57.5435L126.388 72.7746Z" fill="#FF0000"/>
</g>
<g clip-path="url(#clip2_8_1042)">
<path d="M126.388 191.775C126.173 192.074 125.827 192.074 125.612 191.775L114.724 176.544C114.508 176.243 114.508 175.756 114.724 175.456L125.612 160.224C125.827 159.924 126.173 159.924 126.388 160.224L137.277 175.456C137.492 175.756 137.492 176.243 137.277 176.544L126.388 191.775Z" fill="#FF0000"/>
</g>
<g clip-path="url(#clip3_8_1042)">
<path d="M126.388 279.225C126.173 278.926 125.827 278.926 125.612 279.225L114.724 294.456C114.508 294.757 114.508 295.244 114.724 295.544L125.612 310.776C125.827 311.076 126.173 311.076 126.388 310.776L137.277 295.544C137.492 295.244 137.492 294.757 137.277 294.456L126.388 279.225Z" fill="#FF0000"/>
</g>
<g clip-path="url(#clip4_8_1042)">
<path d="M221.194 279.113C221.087 278.963 220.913 278.963 220.806 279.113L215.362 286.728C215.254 286.878 215.254 287.122 215.362 287.272L220.806 294.888C220.913 295.038 221.087 295.038 221.194 294.888L226.639 287.272C226.746 287.122 226.746 286.878 226.639 286.728L221.194 279.113Z" fill="#FF0000"/>
</g>
<defs>
<clipPath id="clip0_8_1042">
<rect width="16" height="16" fill="white" transform="translate(23 57)"/>
</clipPath>
<clipPath id="clip1_8_1042">
<rect width="32" height="32" fill="white" transform="translate(110 41)"/>
</clipPath>
<clipPath id="clip2_8_1042">
<rect width="32" height="32" fill="white" transform="translate(110 160)"/>
</clipPath>
<clipPath id="clip3_8_1042">
<rect width="32" height="32" fill="white" transform="matrix(1 0 0 -1 110 311)"/>
</clipPath>
<clipPath id="clip4_8_1042">
<rect width="16" height="16" fill="white" transform="matrix(1 0 0 -1 213 295)"/>
</clipPath>
</defs>
</svg>
