<svg width="252" height="352" viewBox="0 0 252 352" fill="none" xmlns="http://www.w3.org/2000/svg">
<rect x="1" y="1" width="250" height="350" rx="8" fill="white"/>
<rect x="1" y="1" width="250" height="350" rx="8" stroke="#A8A8A8" stroke-opacity="0.5"/>
<path d="M29.544 49.512C28.3493 49.512 27.2827 49.2987 26.344 48.872C25.4267 48.424 24.712 47.8267 24.2 47.08C23.688 46.312 23.432 45.48 23.432 44.584C23.432 43.9227 23.5813 43.336 23.88 42.824C24.2 42.2907 24.5947 41.8853 25.064 41.608C25.5547 41.3093 26.0453 41.16 26.536 41.16C27.2187 41.16 27.7413 41.3733 28.104 41.8C28.4667 42.2053 28.648 42.6853 28.648 43.24C28.648 44.0933 28.1893 44.7547 27.272 45.224C26.632 45.4587 26.312 45.9067 26.312 46.568C26.312 47.0587 26.5787 47.5067 27.112 47.912C27.6667 48.296 28.4453 48.488 29.448 48.488C30.664 48.488 31.4533 47.9013 31.816 46.728C32.2 45.5547 32.392 43.9547 32.392 41.928C32.392 40.392 32.3067 39.176 32.136 38.28C31.9653 37.3627 31.656 36.68 31.208 36.232C30.76 35.784 30.12 35.56 29.288 35.56C28.8827 35.56 28.4027 35.7093 27.848 36.008C27.2933 36.2853 26.7813 36.68 26.312 37.192C25.864 37.6827 25.5653 38.2267 25.416 38.824H24.584V26.504L25.224 26.088C26.5467 26.8987 28.0187 27.304 29.64 27.304C30.472 27.304 31.3893 27.1653 32.392 26.888C33.416 26.5893 34.312 26.1947 35.08 25.704L35.656 26.28C34.5253 27.9653 33.096 29.2133 31.368 30.024C29.6613 30.8133 27.8267 31.208 25.864 31.208V36.2L26.056 36.264C26.632 35.6667 27.2507 35.2293 27.912 34.952C28.5733 34.6747 29.32 34.536 30.152 34.536C31.624 34.536 32.9147 34.8347 34.024 35.432C35.1333 36.0293 35.9867 36.8827 36.584 37.992C37.2027 39.1013 37.512 40.3813 37.512 41.832C37.512 43.3893 37.1493 44.7547 36.424 45.928C35.6987 47.08 34.728 47.9653 33.512 48.584C32.296 49.2027 30.9733 49.512 29.544 49.512Z" fill="#FF0000"/>
<path d="M222.456 302.488C223.651 302.488 224.717 302.701 225.656 303.128C226.573 303.576 227.288 304.173 227.8 304.92C228.312 305.688 228.568 306.52 228.568 307.416C228.568 308.077 228.419 308.664 228.12 309.176C227.8 309.709 227.405 310.115 226.936 310.392C226.445 310.691 225.955 310.84 225.464 310.84C224.781 310.84 224.259 310.627 223.896 310.2C223.533 309.795 223.352 309.315 223.352 308.76C223.352 307.907 223.811 307.245 224.728 306.776C225.368 306.541 225.688 306.093 225.688 305.432C225.688 304.941 225.421 304.493 224.888 304.088C224.333 303.704 223.555 303.512 222.552 303.512C221.336 303.512 220.547 304.099 220.184 305.272C219.8 306.445 219.608 308.045 219.608 310.072C219.608 311.608 219.693 312.824 219.864 313.72C220.035 314.637 220.344 315.32 220.792 315.768C221.24 316.216 221.88 316.44 222.712 316.44C223.117 316.44 223.597 316.291 224.152 315.992C224.707 315.715 225.219 315.32 225.688 314.808C226.136 314.317 226.435 313.773 226.584 313.176H227.416V325.496L226.776 325.912C225.453 325.101 223.981 324.696 222.36 324.696C221.528 324.696 220.611 324.835 219.608 325.112C218.584 325.411 217.688 325.805 216.92 326.296L216.344 325.72C217.475 324.035 218.904 322.787 220.632 321.976C222.339 321.187 224.173 320.792 226.136 320.792V315.8L225.944 315.736C225.368 316.333 224.749 316.771 224.088 317.048C223.427 317.325 222.68 317.464 221.848 317.464C220.376 317.464 219.085 317.165 217.976 316.568C216.867 315.971 216.013 315.117 215.416 314.008C214.797 312.899 214.488 311.619 214.488 310.168C214.488 308.611 214.851 307.245 215.576 306.072C216.301 304.92 217.272 304.035 218.488 303.416C219.704 302.797 221.027 302.488 222.456 302.488Z" fill="#FF0000"/>
<g clip-path="url(#clip0_8_1074)">
<path d="M31.1942 72.8873C31.0867 73.0371 30.9133 73.0371 30.8058 72.8873L25.3618 65.2717C25.2542 65.1215 25.2542 64.878 25.3618 64.7277L30.8058 57.1122C30.9133 56.962 31.0867 56.962 31.1942 57.1122L36.6387 64.7277C36.7458 64.878 36.7458 65.1215 36.6387 65.2717L31.1942 72.8873Z" fill="#FF0000"/>
</g>
<g clip-path="url(#clip1_8_1074)">
<path d="M65.3885 72.7747C65.1734 73.0743 64.8267 73.0743 64.6116 72.7747L53.7236 57.5436C53.5085 57.2431 53.5085 56.756 53.7236 56.4556L64.6116 41.2245C64.8267 40.924 65.1734 40.924 65.3885 41.2245L76.2774 56.4556C76.4916 56.756 76.4916 57.2431 76.2774 57.5436L65.3885 72.7747Z" fill="#FF0000"/>
</g>
<g clip-path="url(#clip2_8_1074)">
<path d="M187.388 310.775C187.173 311.074 186.827 311.074 186.612 310.775L175.724 295.544C175.508 295.243 175.508 294.756 175.724 294.456L186.612 279.224C186.827 278.924 187.173 278.924 187.388 279.224L198.277 294.456C198.492 294.756 198.492 295.243 198.277 295.544L187.388 310.775Z" fill="#FF0000"/>
</g>
<g clip-path="url(#clip3_8_1074)">
<path d="M187.388 72.7747C187.173 73.0743 186.827 73.0743 186.612 72.7747L175.724 57.5436C175.508 57.2431 175.508 56.756 175.724 56.4556L186.612 41.2245C186.827 40.924 187.173 40.924 187.388 41.2245L198.277 56.4556C198.492 56.756 198.492 57.2431 198.277 57.5436L187.388 72.7747Z" fill="#FF0000"/>
</g>
<g clip-path="url(#clip4_8_1074)">
<path d="M126.388 191.775C126.173 192.074 125.827 192.074 125.612 191.775L114.724 176.544C114.508 176.243 114.508 175.756 114.724 175.456L125.612 160.224C125.827 159.924 126.173 159.924 126.388 160.224L137.277 175.456C137.492 175.756 137.492 176.243 137.277 176.544L126.388 191.775Z" fill="#FF0000"/>
</g>
<g clip-path="url(#clip5_8_1074)">
<path d="M65.3885 310.775C65.1734 311.074 64.8267 311.074 64.6116 310.775L53.7236 295.544C53.5085 295.243 53.5085 294.756 53.7236 294.456L64.6116 279.224C64.8267 278.924 65.1734 278.924 65.3885 279.224L76.2774 294.456C76.4916 294.756 76.4916 295.243 76.2774 295.544L65.3885 310.775Z" fill="#FF0000"/>
</g>
<g clip-path="url(#clip6_8_1074)">
<path d="M221.194 279.113C221.087 278.963 220.913 278.963 220.806 279.113L215.362 286.728C215.254 286.878 215.254 287.122 215.362 287.272L220.806 294.888C220.913 295.038 221.087 295.038 221.194 294.888L226.639 287.272C226.746 287.122 226.746 286.878 226.639 286.728L221.194 279.113Z" fill="#FF0000"/>
</g>
<defs>
<clipPath id="clip0_8_1074">
<rect width="16" height="16" fill="white" transform="translate(23 57)"/>
</clipPath>
<clipPath id="clip1_8_1074">
<rect width="32" height="32" fill="white" transform="translate(49 41)"/>
</clipPath>
<clipPath id="clip2_8_1074">
<rect width="32" height="32" fill="white" transform="translate(171 279)"/>
</clipPath>
<clipPath id="clip3_8_1074">
<rect width="32" height="32" fill="white" transform="translate(171 41)"/>
</clipPath>
<clipPath id="clip4_8_1074">
<rect width="32" height="32" fill="white" transform="translate(110 160)"/>
</clipPath>
<clipPath id="clip5_8_1074">
<rect width="32" height="32" fill="white" transform="translate(49 279)"/>
</clipPath>
<clipPath id="clip6_8_1074">
<rect width="16" height="16" fill="white" transform="matrix(1 0 0 -1 213 295)"/>
</clipPath>
</defs>
</svg>
