<svg width="252" height="352" viewBox="0 0 252 352" fill="none" xmlns="http://www.w3.org/2000/svg">
<rect x="1" y="1" width="250" height="350" rx="8" fill="white"/>
<rect x="1" y="1" width="250" height="350" rx="8" stroke="#A8A8A8" stroke-opacity="0.5"/>
<path d="M30.376 49.512C29.608 49.512 28.968 49.2133 28.456 48.616C27.9653 48.0187 27.72 47.208 27.72 46.184C27.72 44.904 28.0293 43.6987 28.648 42.568C29.288 41.4373 30.1733 40.2107 31.304 38.888C32.968 36.968 34.2053 35.3253 35.016 33.96C35.5493 33.0213 35.9333 32.0293 36.168 30.984L36.04 30.888C35.3787 31.4427 34.6427 31.72 33.832 31.72C32.9787 31.72 32.0507 31.528 31.048 31.144C30.152 30.8453 29.2773 30.696 28.424 30.696C27.5493 30.696 26.8347 30.92 26.28 31.368C25.7253 31.7947 25.4053 32.4667 25.32 33.384L25.16 35.304H24.008L24.744 26.216H25.896L25.736 28.328L25.864 28.392C27.1013 26.7707 28.456 25.96 29.928 25.96C30.5893 25.96 31.1333 26.1413 31.56 26.504C32.008 26.8453 32.456 27.336 32.904 27.976C33.3307 28.5947 33.7147 29.0747 34.056 29.416C34.3973 29.7573 34.7387 29.928 35.08 29.928C35.7627 29.928 36.104 29.608 36.104 28.968C36.104 28.584 35.8907 28.264 35.464 28.008C34.9307 27.7093 34.664 27.3147 34.664 26.824C34.664 26.568 34.7493 26.3653 34.92 26.216C35.0907 26.0453 35.3253 25.96 35.624 25.96C36.1787 25.96 36.6267 26.28 36.968 26.92C37.3307 27.56 37.512 28.2213 37.512 28.904C37.512 30.2907 37.3093 31.56 36.904 32.712C36.4987 33.8427 35.8587 35.1227 34.984 36.552C34.1733 37.896 33.608 39.3893 33.288 41.032C32.9893 42.6533 32.84 44.3813 32.84 46.216C32.84 47.3253 32.616 48.1573 32.168 48.712C31.7413 49.2453 31.144 49.512 30.376 49.512Z" fill="#FF0000"/>
<path d="M221.624 302.488C222.392 302.488 223.032 302.787 223.544 303.384C224.035 303.981 224.28 304.792 224.28 305.816C224.28 307.096 223.971 308.301 223.352 309.432C222.712 310.563 221.827 311.789 220.696 313.112C219.032 315.032 217.795 316.675 216.984 318.04C216.451 318.979 216.067 319.971 215.832 321.016L215.96 321.112C216.621 320.557 217.357 320.28 218.168 320.28C219.021 320.28 219.949 320.472 220.952 320.856C221.848 321.155 222.723 321.304 223.576 321.304C224.451 321.304 225.165 321.08 225.72 320.632C226.275 320.205 226.595 319.533 226.68 318.616L226.84 316.696H227.992L227.256 325.784H226.104L226.264 323.672L226.136 323.608C224.899 325.229 223.544 326.04 222.072 326.04C221.411 326.04 220.867 325.859 220.44 325.496C219.992 325.155 219.544 324.664 219.096 324.024C218.669 323.405 218.285 322.925 217.944 322.584C217.603 322.243 217.261 322.072 216.92 322.072C216.237 322.072 215.896 322.392 215.896 323.032C215.896 323.416 216.109 323.736 216.536 323.992C217.069 324.291 217.336 324.685 217.336 325.176C217.336 325.432 217.251 325.635 217.08 325.784C216.909 325.955 216.675 326.04 216.376 326.04C215.821 326.04 215.373 325.72 215.032 325.08C214.669 324.44 214.488 323.779 214.488 323.096C214.488 321.709 214.691 320.44 215.096 319.288C215.501 318.157 216.141 316.877 217.016 315.448C217.827 314.104 218.392 312.611 218.712 310.968C219.011 309.347 219.16 307.619 219.16 305.784C219.16 304.675 219.384 303.843 219.832 303.288C220.259 302.755 220.856 302.488 221.624 302.488Z" fill="#FF0000"/>
<g clip-path="url(#clip0_8_1114)">
<path d="M31.1942 72.8873C31.0867 73.0371 30.9133 73.0371 30.8058 72.8873L25.3618 65.2717C25.2542 65.1215 25.2542 64.878 25.3618 64.7277L30.8058 57.1122C30.9133 56.962 31.0867 56.962 31.1942 57.1122L36.6387 64.7277C36.7458 64.878 36.7458 65.1215 36.6387 65.2717L31.1942 72.8873Z" fill="#FF0000"/>
</g>
<g clip-path="url(#clip1_8_1114)">
<path d="M65.3885 72.7746C65.1734 73.0741 64.8267 73.0741 64.6116 72.7746L53.7236 57.5435C53.5085 57.243 53.5085 56.7559 53.7236 56.4555L64.6116 41.2244C64.8267 40.9239 65.1734 40.9239 65.3885 41.2244L76.2774 56.4555C76.4916 56.7559 76.4916 57.243 76.2774 57.5435L65.3885 72.7746Z" fill="#FF0000"/>
</g>
<g clip-path="url(#clip2_8_1114)">
<path d="M187.388 310.775C187.173 311.074 186.827 311.074 186.612 310.775L175.724 295.543C175.508 295.243 175.508 294.756 175.724 294.455L186.612 279.224C186.827 278.924 187.173 278.924 187.388 279.224L198.277 294.455C198.492 294.756 198.492 295.243 198.277 295.543L187.388 310.775Z" fill="#FF0000"/>
</g>
<g clip-path="url(#clip3_8_1114)">
<path d="M187.388 72.7746C187.173 73.0741 186.827 73.0741 186.612 72.7746L175.724 57.5435C175.508 57.243 175.508 56.7559 175.724 56.4555L186.612 41.2244C186.827 40.9239 187.173 40.9239 187.388 41.2244L198.277 56.4555C198.492 56.7559 198.492 57.243 198.277 57.5435L187.388 72.7746Z" fill="#FF0000"/>
</g>
<g clip-path="url(#clip4_8_1114)">
<path d="M60.3885 191.775C60.1734 192.074 59.8267 192.074 59.6116 191.775L48.7236 176.543C48.5085 176.243 48.5085 175.756 48.7236 175.455L59.6116 160.224C59.8267 159.924 60.1734 159.924 60.3885 160.224L71.2774 175.455C71.4916 175.756 71.4916 176.243 71.2774 176.543L60.3885 191.775Z" fill="#FF0000"/>
</g>
<g clip-path="url(#clip5_8_1114)">
<path d="M187.388 191.775C187.173 192.074 186.827 192.074 186.612 191.775L175.724 176.543C175.508 176.243 175.508 175.756 175.724 175.455L186.612 160.224C186.827 159.924 187.173 159.924 187.388 160.224L198.277 175.455C198.492 175.756 198.492 176.243 198.277 176.543L187.388 191.775Z" fill="#FF0000"/>
</g>
<g clip-path="url(#clip6_8_1114)">
<path d="M126.388 132.775C126.173 133.074 125.827 133.074 125.612 132.775L114.724 117.543C114.508 117.243 114.508 116.756 114.724 116.455L125.612 101.224C125.827 100.924 126.173 100.924 126.388 101.224L137.277 116.455C137.492 116.756 137.492 117.243 137.277 117.543L126.388 132.775Z" fill="#FF0000"/>
</g>
<g clip-path="url(#clip7_8_1114)">
<path d="M65.3885 310.775C65.1734 311.074 64.8267 311.074 64.6116 310.775L53.7236 295.543C53.5085 295.243 53.5085 294.756 53.7236 294.455L64.6116 279.224C64.8267 278.924 65.1734 278.924 65.3885 279.224L76.2774 294.455C76.4916 294.756 76.4916 295.243 76.2774 295.543L65.3885 310.775Z" fill="#FF0000"/>
</g>
<g clip-path="url(#clip8_8_1114)">
<path d="M221.194 279.113C221.087 278.963 220.913 278.963 220.806 279.113L215.362 286.728C215.254 286.878 215.254 287.122 215.362 287.272L220.806 294.888C220.913 295.038 221.087 295.038 221.194 294.888L226.639 287.272C226.746 287.122 226.746 286.878 226.639 286.728L221.194 279.113Z" fill="#FF0000"/>
</g>
<defs>
<clipPath id="clip0_8_1114">
<rect width="16" height="16" fill="white" transform="translate(23 57)"/>
</clipPath>
<clipPath id="clip1_8_1114">
<rect width="32" height="32" fill="white" transform="translate(49 41)"/>
</clipPath>
<clipPath id="clip2_8_1114">
<rect width="32" height="32" fill="white" transform="translate(171 279)"/>
</clipPath>
<clipPath id="clip3_8_1114">
<rect width="32" height="32" fill="white" transform="translate(171 41)"/>
</clipPath>
<clipPath id="clip4_8_1114">
<rect width="32" height="32" fill="white" transform="translate(44 160)"/>
</clipPath>
<clipPath id="clip5_8_1114">
<rect width="32" height="32" fill="white" transform="translate(171 160)"/>
</clipPath>
<clipPath id="clip6_8_1114">
<rect width="32" height="32" fill="white" transform="translate(110 101)"/>
</clipPath>
<clipPath id="clip7_8_1114">
<rect width="32" height="32" fill="white" transform="translate(49 279)"/>
</clipPath>
<clipPath id="clip8_8_1114">
<rect width="16" height="16" fill="white" transform="matrix(1 0 0 -1 213 295)"/>
</clipPath>
</defs>
</svg>
