<svg width="252" height="352" viewBox="0 0 252 352" fill="none" xmlns="http://www.w3.org/2000/svg">
<rect x="1" y="1" width="250" height="350" rx="8" fill="white"/>
<rect x="1" y="1" width="250" height="350" rx="8" stroke="#A8A8A8" stroke-opacity="0.5"/>
<path d="M30.152 49.512C28.9573 49.512 27.784 49.2773 26.632 48.808C25.5013 48.3387 24.5733 47.6667 23.848 46.792C23.144 45.896 22.792 44.8507 22.792 43.656C22.792 42.312 23.1867 41.1707 23.976 40.232C24.7653 39.2933 25.6613 38.6107 26.664 38.184V38.12C24.3813 36.776 23.24 34.8453 23.24 32.328C23.24 30.92 23.6027 29.7147 24.328 28.712C25.0747 27.7093 26.0133 26.9627 27.144 26.472C28.296 25.96 29.4693 25.704 30.664 25.704C32.072 25.704 33.2453 25.9707 34.184 26.504C35.144 27.0373 35.8373 27.6987 36.264 28.488C36.712 29.2773 36.936 30.0453 36.936 30.792C36.936 31.8587 36.5947 32.8293 35.912 33.704C35.2507 34.5787 34.4613 35.2507 33.544 35.72V35.848L34.152 36.168C35.4107 36.7867 36.4027 37.6293 37.128 38.696C37.8533 39.7627 38.216 40.84 38.216 41.928C38.216 43.3147 37.9067 44.584 37.288 45.736C36.6693 46.888 35.752 47.8053 34.536 48.488C33.32 49.1707 31.8587 49.512 30.152 49.512ZM32.648 35.368C33.5013 35.0267 34.1733 34.4507 34.664 33.64C35.1547 32.808 35.4 31.912 35.4 30.952C35.4 30.0773 35.176 29.32 34.728 28.68C34.28 28.04 33.704 27.56 33 27.24C32.3173 26.8987 31.6133 26.728 30.888 26.728C29.736 26.728 28.6587 27.0053 27.656 27.56C26.6747 28.1147 26.184 28.9893 26.184 30.184C26.184 31.0373 26.376 31.688 26.76 32.136C27.144 32.584 27.7093 32.9893 28.456 33.352L32.648 35.368ZM31.016 48.488C31.9547 48.488 32.7867 48.3173 33.512 47.976C34.2373 47.6133 34.792 47.144 35.176 46.568C35.5813 45.992 35.784 45.3733 35.784 44.712C35.784 43.8587 35.5173 43.1547 34.984 42.6C34.4507 42.0453 33.7573 41.5547 32.904 41.128L27.592 38.504C26.7387 38.9733 26.088 39.5387 25.64 40.2C25.192 40.84 24.968 41.8213 24.968 43.144C24.968 44.5093 25.3093 45.5973 25.992 46.408C26.696 47.1973 27.5067 47.7413 28.424 48.04C29.3627 48.3387 30.2267 48.488 31.016 48.488Z" fill="#FF0000"/>
<path d="M221.848 302.488C223.043 302.488 224.216 302.723 225.368 303.192C226.499 303.661 227.427 304.333 228.152 305.208C228.856 306.104 229.208 307.149 229.208 308.344C229.208 309.688 228.813 310.829 228.024 311.768C227.235 312.707 226.339 313.389 225.336 313.816V313.88C227.619 315.224 228.76 317.155 228.76 319.672C228.76 321.08 228.397 322.285 227.672 323.288C226.925 324.291 225.987 325.037 224.856 325.528C223.704 326.04 222.531 326.296 221.336 326.296C219.928 326.296 218.755 326.029 217.816 325.496C216.856 324.963 216.163 324.301 215.736 323.512C215.288 322.723 215.064 321.955 215.064 321.208C215.064 320.141 215.405 319.171 216.088 318.296C216.749 317.421 217.539 316.749 218.456 316.28V316.152L217.848 315.832C216.589 315.213 215.597 314.371 214.872 313.304C214.147 312.237 213.784 311.16 213.784 310.072C213.784 308.685 214.093 307.416 214.712 306.264C215.331 305.112 216.248 304.195 217.464 303.512C218.68 302.829 220.141 302.488 221.848 302.488ZM219.352 316.632C218.499 316.973 217.827 317.549 217.336 318.36C216.845 319.192 216.6 320.088 216.6 321.048C216.6 321.923 216.824 322.68 217.272 323.32C217.72 323.96 218.296 324.44 219 324.76C219.683 325.101 220.387 325.272 221.112 325.272C222.264 325.272 223.341 324.995 224.344 324.44C225.325 323.885 225.816 323.011 225.816 321.816C225.816 320.963 225.624 320.312 225.24 319.864C224.856 319.416 224.291 319.011 223.544 318.648L219.352 316.632ZM220.984 303.512C220.045 303.512 219.213 303.683 218.488 304.024C217.763 304.387 217.208 304.856 216.824 305.432C216.419 306.008 216.216 306.627 216.216 307.288C216.216 308.141 216.483 308.845 217.016 309.4C217.549 309.955 218.243 310.445 219.096 310.872L224.408 313.496C225.261 313.027 225.912 312.461 226.36 311.8C226.808 311.16 227.032 310.179 227.032 308.856C227.032 307.491 226.691 306.403 226.008 305.592C225.304 304.803 224.493 304.259 223.576 303.96C222.637 303.661 221.773 303.512 220.984 303.512Z" fill="#FF0000"/>
<g clip-path="url(#clip0_8_1137)">
<path d="M31.1942 72.8873C31.0867 73.0371 30.9133 73.0371 30.8058 72.8873L25.3618 65.2717C25.2542 65.1215 25.2542 64.878 25.3618 64.7277L30.8058 57.1122C30.9133 56.962 31.0867 56.962 31.1942 57.1122L36.6387 64.7277C36.7458 64.878 36.7458 65.1215 36.6387 65.2717L31.1942 72.8873Z" fill="#FF0000"/>
</g>
<g clip-path="url(#clip1_8_1137)">
<path d="M65.3885 72.7746C65.1734 73.0741 64.8267 73.0741 64.6116 72.7746L53.7236 57.5435C53.5085 57.243 53.5085 56.7559 53.7236 56.4555L64.6116 41.2244C64.8267 40.9239 65.1734 40.9239 65.3885 41.2244L76.2774 56.4555C76.4916 56.7559 76.4916 57.243 76.2774 57.5435L65.3885 72.7746Z" fill="#FF0000"/>
</g>
<g clip-path="url(#clip2_8_1137)">
<path d="M187.388 310.775C187.173 311.074 186.827 311.074 186.612 310.775L175.724 295.543C175.508 295.243 175.508 294.756 175.724 294.455L186.612 279.224C186.827 278.924 187.173 278.924 187.388 279.224L198.277 294.455C198.492 294.756 198.492 295.243 198.277 295.543L187.388 310.775Z" fill="#FF0000"/>
</g>
<g clip-path="url(#clip3_8_1137)">
<path d="M187.388 72.7746C187.173 73.0741 186.827 73.0741 186.612 72.7746L175.724 57.5435C175.508 57.243 175.508 56.7559 175.724 56.4555L186.612 41.2244C186.827 40.9239 187.173 40.9239 187.388 41.2244L198.277 56.4555C198.492 56.7559 198.492 57.243 198.277 57.5435L187.388 72.7746Z" fill="#FF0000"/>
</g>
<g clip-path="url(#clip4_8_1137)">
<path d="M60.3885 191.775C60.1734 192.074 59.8267 192.074 59.6116 191.775L48.7236 176.543C48.5085 176.243 48.5085 175.756 48.7236 175.455L59.6116 160.224C59.8267 159.924 60.1734 159.924 60.3885 160.224L71.2774 175.455C71.4916 175.756 71.4916 176.243 71.2774 176.543L60.3885 191.775Z" fill="#FF0000"/>
</g>
<g clip-path="url(#clip5_8_1137)">
<path d="M187.388 191.775C187.173 192.074 186.827 192.074 186.612 191.775L175.724 176.543C175.508 176.243 175.508 175.756 175.724 175.455L186.612 160.224C186.827 159.924 187.173 159.924 187.388 160.224L198.277 175.455C198.492 175.756 198.492 176.243 198.277 176.543L187.388 191.775Z" fill="#FF0000"/>
</g>
<g clip-path="url(#clip6_8_1137)">
<path d="M126.388 132.775C126.173 133.074 125.827 133.074 125.612 132.775L114.724 117.543C114.508 117.243 114.508 116.756 114.724 116.455L125.612 101.224C125.827 100.924 126.173 100.924 126.388 101.224L137.277 116.455C137.492 116.756 137.492 117.243 137.277 117.543L126.388 132.775Z" fill="#FF0000"/>
</g>
<g clip-path="url(#clip7_8_1137)">
<path d="M126.388 250.775C126.173 251.074 125.827 251.074 125.612 250.775L114.724 235.543C114.508 235.243 114.508 234.756 114.724 234.455L125.612 219.224C125.827 218.924 126.173 218.924 126.388 219.224L137.277 234.455C137.492 234.756 137.492 235.243 137.277 235.543L126.388 250.775Z" fill="#FF0000"/>
</g>
<g clip-path="url(#clip8_8_1137)">
<path d="M65.3885 310.775C65.1734 311.074 64.8267 311.074 64.6116 310.775L53.7236 295.543C53.5085 295.243 53.5085 294.756 53.7236 294.455L64.6116 279.224C64.8267 278.924 65.1734 278.924 65.3885 279.224L76.2774 294.455C76.4916 294.756 76.4916 295.243 76.2774 295.543L65.3885 310.775Z" fill="#FF0000"/>
</g>
<g clip-path="url(#clip9_8_1137)">
<path d="M221.194 279.113C221.087 278.963 220.913 278.963 220.806 279.113L215.362 286.728C215.254 286.878 215.254 287.122 215.362 287.272L220.806 294.888C220.913 295.038 221.087 295.038 221.194 294.888L226.639 287.272C226.746 287.122 226.746 286.878 226.639 286.728L221.194 279.113Z" fill="#FF0000"/>
</g>
<defs>
<clipPath id="clip0_8_1137">
<rect width="16" height="16" fill="white" transform="translate(23 57)"/>
</clipPath>
<clipPath id="clip1_8_1137">
<rect width="32" height="32" fill="white" transform="translate(49 41)"/>
</clipPath>
<clipPath id="clip2_8_1137">
<rect width="32" height="32" fill="white" transform="translate(171 279)"/>
</clipPath>
<clipPath id="clip3_8_1137">
<rect width="32" height="32" fill="white" transform="translate(171 41)"/>
</clipPath>
<clipPath id="clip4_8_1137">
<rect width="32" height="32" fill="white" transform="translate(44 160)"/>
</clipPath>
<clipPath id="clip5_8_1137">
<rect width="32" height="32" fill="white" transform="translate(171 160)"/>
</clipPath>
<clipPath id="clip6_8_1137">
<rect width="32" height="32" fill="white" transform="translate(110 101)"/>
</clipPath>
<clipPath id="clip7_8_1137">
<rect width="32" height="32" fill="white" transform="translate(110 219)"/>
</clipPath>
<clipPath id="clip8_8_1137">
<rect width="32" height="32" fill="white" transform="translate(49 279)"/>
</clipPath>
<clipPath id="clip9_8_1137">
<rect width="16" height="16" fill="white" transform="matrix(1 0 0 -1 213 295)"/>
</clipPath>
</defs>
</svg>
