<svg width="252" height="352" viewBox="0 0 252 352" fill="none" xmlns="http://www.w3.org/2000/svg">
<rect x="1" y="1" width="250" height="350" rx="8" fill="white"/>
<rect x="1" y="1" width="250" height="350" rx="8" stroke="#A8A8A8" stroke-opacity="0.5"/>
<path d="M25.984 43.976H28.224C28.5227 43.976 28.7253 43.9227 28.832 43.816C28.9387 43.688 28.992 43.4853 28.992 43.208V24.008C28.992 23.7093 28.9387 23.5067 28.832 23.4C28.7253 23.2933 28.5227 23.24 28.224 23.24H25.984V22.216H36.48V23.24H34.496C34.2187 23.24 34.016 23.2933 33.888 23.4C33.7813 23.5067 33.728 23.7093 33.728 24.008V33.48L39.904 26.312C40.2027 25.9707 40.4053 25.6827 40.512 25.448C40.64 25.192 40.704 24.904 40.704 24.584C40.704 24.2 40.5973 23.88 40.384 23.624C40.1707 23.368 39.8933 23.24 39.552 23.24H38.624V22.216H46.528V23.24H45.408C44.96 23.24 44.4907 23.4 44 23.72C43.5307 24.0187 43.1147 24.392 42.752 24.84L38.464 29.8L45.216 42.568C45.4933 43.1013 45.76 43.4747 46.016 43.688C46.272 43.88 46.6453 43.976 47.136 43.976H48V45H37.952V43.976H39.232C39.424 43.976 39.584 43.912 39.712 43.784C39.84 43.6347 39.904 43.4747 39.904 43.304C39.904 43.176 39.8827 43.0373 39.84 42.888C39.8187 42.7173 39.7867 42.5893 39.744 42.504L35.104 33.672L33.728 35.24V43.208C33.728 43.4853 33.7813 43.688 33.888 43.816C34.016 43.9227 34.2187 43.976 34.496 43.976H36.48V45H25.984V43.976Z" fill="#FF0000"/>
<path d="M225.016 308.024H222.776C222.477 308.024 222.275 308.077 222.168 308.184C222.061 308.312 222.008 308.515 222.008 308.792V327.992C222.008 328.291 222.061 328.493 222.168 328.6C222.275 328.707 222.477 328.76 222.776 328.76H225.016V329.784H214.52V328.76H216.504C216.781 328.76 216.984 328.707 217.112 328.6C217.219 328.493 217.272 328.291 217.272 327.992V318.52L211.096 325.688C210.797 326.029 210.595 326.317 210.488 326.552C210.36 326.808 210.296 327.096 210.296 327.416C210.296 327.8 210.403 328.12 210.616 328.376C210.829 328.632 211.107 328.76 211.448 328.76H212.376V329.784H204.472V328.76H205.592C206.04 328.76 206.509 328.6 207 328.28C207.469 327.981 207.885 327.608 208.248 327.16L212.536 322.2L205.784 309.432C205.507 308.899 205.24 308.525 204.984 308.312C204.728 308.12 204.355 308.024 203.864 308.024H203V307H213.048V308.024H211.768C211.576 308.024 211.416 308.088 211.288 308.216C211.16 308.365 211.096 308.525 211.096 308.696C211.096 308.824 211.117 308.963 211.16 309.112C211.181 309.283 211.213 309.411 211.256 309.496L215.896 318.328L217.272 316.76V308.792C217.272 308.515 217.219 308.312 217.112 308.184C216.984 308.077 216.781 308.024 216.504 308.024H214.52V307H225.016V308.024Z" fill="#FF0000"/>
<g clip-path="url(#clip0_8_1267)">
<path d="M37.3885 88.7751C37.1734 89.0746 36.8267 89.0746 36.6116 88.7751L25.7236 73.544C25.5085 73.2435 25.5085 72.7564 25.7236 72.456L36.6116 57.2248C36.8267 56.9244 37.1734 56.9244 37.3885 57.2248L48.2774 72.456C48.4916 72.7564 48.4916 73.2435 48.2774 73.544L37.3885 88.7751Z" fill="#FF0000"/>
</g>
<g clip-path="url(#clip1_8_1267)">
<path d="M215.388 263.225C215.173 262.925 214.827 262.925 214.612 263.225L203.724 278.456C203.508 278.756 203.508 279.244 203.724 279.544L214.612 294.775C214.827 295.076 215.173 295.076 215.388 294.775L226.277 279.544C226.492 279.244 226.492 278.756 226.277 278.456L215.388 263.225Z" fill="#FF0000"/>
</g>
<line x1="60" y1="36.5" x2="215" y2="36.5" stroke="#FF0000"/>
<line x1="215.5" y1="36" x2="215.5" y2="259" stroke="#FF0000"/>
<line x1="192" y1="315.5" x2="37" y2="315.5" stroke="#FF0000"/>
<line x1="36.5" y1="316" x2="36.5" y2="93" stroke="#FF0000"/>
<path d="M83.936 223.904H92.896C94.0907 223.904 94.9013 223.691 95.328 223.264C95.7547 222.752 95.968 221.941 95.968 220.832V144.032C95.968 142.837 95.7547 142.027 95.328 141.6C94.9013 141.173 94.0907 140.96 92.896 140.96H83.936V136.864H125.92V140.96H117.984C116.875 140.96 116.064 141.173 115.552 141.6C115.125 142.027 114.912 142.837 114.912 144.032V181.92L139.616 153.248C140.811 151.883 141.621 150.731 142.048 149.792C142.56 148.768 142.816 147.616 142.816 146.336C142.816 144.8 142.389 143.52 141.536 142.496C140.683 141.472 139.573 140.96 138.208 140.96H134.496V136.864H166.112V140.96H161.632C159.84 140.96 157.963 141.6 156 142.88C154.123 144.075 152.459 145.568 151.008 147.36L133.856 167.2L160.864 218.272C161.973 220.405 163.04 221.899 164.064 222.752C165.088 223.52 166.581 223.904 168.544 223.904H172V228H131.808V223.904H136.928C137.696 223.904 138.336 223.648 138.848 223.136C139.36 222.539 139.616 221.899 139.616 221.216C139.616 220.704 139.531 220.149 139.36 219.552C139.275 218.869 139.147 218.357 138.976 218.016L120.416 182.688L114.912 188.96V220.832C114.912 221.941 115.125 222.752 115.552 223.264C116.064 223.691 116.875 223.904 117.984 223.904H125.92V228H83.936V223.904Z" fill="#FF0000"/>
<path d="M113.675 92.7051C114.884 92.7051 115.862 91.3098 115.862 89.5874C115.862 87.8651 114.884 86.4697 113.675 86.4697C112.468 86.4697 111.49 87.8651 111.49 89.5874C111.49 91.3098 112.468 92.7051 113.675 92.7051Z" fill="#FF0000"/>
<path d="M106.374 97.0521C106.374 95.3299 105.394 93.9346 104.187 93.9346C102.98 93.9346 102 95.3299 102 97.0521C102 98.7745 102.98 100.17 104.187 100.17C105.394 100.17 106.374 98.7745 106.374 97.0521Z" fill="#FF0000"/>
<path d="M138.325 92.7051C139.533 92.7051 140.512 91.3098 140.512 89.5874C140.512 87.8651 139.533 86.4697 138.325 86.4697C137.118 86.4697 136.139 87.8651 136.139 89.5874C136.139 91.3098 137.118 92.7051 138.325 92.7051Z" fill="#FF0000"/>
<path d="M147.814 93.9346C146.606 93.9346 145.627 95.3299 145.627 97.0521C145.627 98.7745 146.606 100.17 147.814 100.17C149.022 100.17 150 98.7745 150 97.0521C150 95.3299 149.022 93.9346 147.814 93.9346Z" fill="#FF0000"/>
<path d="M142.492 122.148H109.51V127H142.492V122.148Z" fill="#FF0000"/>
<path d="M139.518 105.272C136.337 102.155 138.127 94.2178 138.127 94.2178L136.309 93.4611C132.492 103.806 126.877 103.321 127.315 91.7596V88.0546H130.473V84.3049H127.315V79H124.685V84.3047H121.525V88.0545H124.685V91.7594C125.123 103.321 119.51 103.806 115.691 93.4609L113.875 94.2177C113.875 94.2177 115.663 102.155 112.483 105.272C109.302 108.39 106.518 100.737 106.518 100.737L104.73 101.87L109.7 118.878H142.3L147.27 101.871L145.481 100.738C145.481 100.738 142.699 108.39 139.518 105.272ZM118.017 111.697C117.149 111.697 116.445 110.694 116.445 109.456C116.445 108.219 117.149 107.217 118.017 107.217C118.884 107.217 119.588 108.219 119.588 109.456C119.588 110.694 118.884 111.697 118.017 111.697ZM126.001 110.577C125.133 110.577 124.429 109.574 124.429 108.336C124.429 107.1 125.133 106.097 126.001 106.097C126.868 106.097 127.571 107.1 127.571 108.336C127.571 109.574 126.868 110.577 126.001 110.577ZM133.984 111.697C133.116 111.697 132.414 110.694 132.414 109.456C132.414 108.219 133.116 107.217 133.984 107.217C134.852 107.217 135.555 108.219 135.555 109.456C135.555 110.694 134.852 111.697 133.984 111.697Z" fill="#FF0000"/>
<defs>
<clipPath id="clip0_8_1267">
<rect width="32" height="32" fill="white" transform="translate(21 57)"/>
</clipPath>
<clipPath id="clip1_8_1267">
<rect width="32" height="32" fill="white" transform="matrix(1 0 0 -1 199 295)"/>
</clipPath>
</defs>
</svg>
