<svg width="252" height="352" viewBox="0 0 252 352" fill="none" xmlns="http://www.w3.org/2000/svg">
<rect x="1" y="1" width="250" height="350" rx="8" fill="white"/>
<rect x="1" y="1" width="250" height="350" rx="8" stroke="#A8A8A8" stroke-opacity="0.5"/>
<path d="M22.408 47.976H23.496C24.136 47.976 24.7013 47.7307 25.192 47.24C25.6827 46.728 26.056 46.1093 26.312 45.384L33.064 25.64H34.408L41.256 46.344C41.6187 47.432 42.248 47.976 43.144 47.976H44.424V49H33.192V47.976H35.496C35.752 47.976 35.9547 47.88 36.104 47.688C36.2747 47.4747 36.36 47.2293 36.36 46.952C36.36 46.7173 36.296 46.408 36.168 46.024L35.144 42.952H28.424L27.752 44.904C27.5173 45.5013 27.4 46.0453 27.4 46.536C27.4 46.92 27.5493 47.2613 27.848 47.56C28.168 47.8373 28.5733 47.976 29.064 47.976H30.568V49H22.408V47.976ZM28.84 41.768H34.76L31.848 32.968L28.84 41.768Z" fill="#FF0000"/>
<path d="M229.592 304.024H228.504C227.864 304.024 227.299 304.269 226.808 304.76C226.317 305.272 225.944 305.891 225.688 306.616L218.936 326.36H217.592L210.744 305.656C210.381 304.568 209.752 304.024 208.856 304.024H207.576V303H218.808V304.024H216.504C216.248 304.024 216.045 304.12 215.896 304.312C215.725 304.525 215.64 304.771 215.64 305.048C215.64 305.283 215.704 305.592 215.832 305.976L216.856 309.048H223.576L224.248 307.096C224.483 306.499 224.6 305.955 224.6 305.464C224.6 305.08 224.451 304.739 224.152 304.44C223.832 304.163 223.427 304.024 222.936 304.024H221.432V303H229.592V304.024ZM223.16 310.232H217.24L220.152 319.032L223.16 310.232Z" fill="#FF0000"/>
<g clip-path="url(#clip0_6_93)">
<path d="M127.554 239.1C126.693 240.299 125.307 240.299 124.446 239.1L80.8942 178.176C80.0338 176.974 80.0338 175.026 80.8942 173.824L124.446 112.9C125.307 111.698 126.693 111.698 127.554 112.9L171.109 173.824C171.966 175.026 171.966 176.974 171.109 178.176L127.554 239.1Z" fill="#FF0000"/>
</g>
<g clip-path="url(#clip1_6_93)">
<path d="M37.3885 88.7751C37.1734 89.0747 36.8267 89.0747 36.6116 88.7751L25.7236 73.544C25.5085 73.2436 25.5085 72.7564 25.7236 72.456L36.6116 57.2249C36.8267 56.9244 37.1734 56.9244 37.3885 57.2249L48.2774 72.456C48.4916 72.7564 48.4916 73.2436 48.2774 73.544L37.3885 88.7751Z" fill="#FF0000"/>
</g>
<g clip-path="url(#clip2_6_93)">
<path d="M215.388 263.225C215.173 262.925 214.827 262.925 214.612 263.225L203.724 278.456C203.508 278.756 203.508 279.244 203.724 279.544L214.612 294.775C214.827 295.076 215.173 295.076 215.388 294.775L226.277 279.544C226.492 279.244 226.492 278.756 226.277 278.456L215.388 263.225Z" fill="#FF0000"/>
</g>
<line x1="60" y1="36.5" x2="215" y2="36.5" stroke="#FF0000"/>
<line x1="215.5" y1="36" x2="215.5" y2="259" stroke="#FF0000"/>
<line x1="192" y1="315.5" x2="37" y2="315.5" stroke="#FF0000"/>
<line x1="36.5" y1="316" x2="36.5" y2="93" stroke="#FF0000"/>
<defs>
<clipPath id="clip0_6_93">
<rect width="128" height="128" fill="white" transform="translate(62 112)"/>
</clipPath>
<clipPath id="clip1_6_93">
<rect width="32" height="32" fill="white" transform="translate(21 57)"/>
</clipPath>
<clipPath id="clip2_6_93">
<rect width="32" height="32" fill="white" transform="matrix(1 0 0 -1 199 295)"/>
</clipPath>
</defs>
</svg>
