<svg width="252" height="352" viewBox="0 0 252 352" fill="none" xmlns="http://www.w3.org/2000/svg">
<rect x="1" y="1" width="250" height="350" rx="8" fill="white"/>
<rect x="1" y="1" width="250" height="350" rx="8" stroke="#A8A8A8" stroke-opacity="0.5"/>
<path d="M29.544 49.512C28.3493 49.512 27.2827 49.2987 26.344 48.872C25.4267 48.424 24.712 47.8267 24.2 47.08C23.688 46.312 23.432 45.48 23.432 44.584C23.432 43.9227 23.5813 43.336 23.88 42.824C24.2 42.2907 24.5947 41.8853 25.064 41.608C25.5547 41.3093 26.0453 41.16 26.536 41.16C27.2187 41.16 27.7413 41.3733 28.104 41.8C28.4667 42.2053 28.648 42.6853 28.648 43.24C28.648 44.0933 28.1893 44.7547 27.272 45.224C26.632 45.4587 26.312 45.9067 26.312 46.568C26.312 47.0587 26.5787 47.5067 27.112 47.912C27.6667 48.296 28.4453 48.488 29.448 48.488C30.664 48.488 31.4533 47.9013 31.816 46.728C32.2 45.5547 32.392 43.9547 32.392 41.928C32.392 40.392 32.3067 39.176 32.136 38.28C31.9653 37.3627 31.656 36.68 31.208 36.232C30.76 35.784 30.12 35.56 29.288 35.56C28.8827 35.56 28.4027 35.7093 27.848 36.008C27.2933 36.2853 26.7813 36.68 26.312 37.192C25.864 37.6827 25.5653 38.2267 25.416 38.824H24.584V26.504L25.224 26.088C26.5467 26.8987 28.0187 27.304 29.64 27.304C30.472 27.304 31.3893 27.1653 32.392 26.888C33.416 26.5893 34.312 26.1947 35.08 25.704L35.656 26.28C34.5253 27.9653 33.096 29.2133 31.368 30.024C29.6613 30.8133 27.8267 31.208 25.864 31.208V36.2L26.056 36.264C26.632 35.6667 27.2507 35.2293 27.912 34.952C28.5733 34.6747 29.32 34.536 30.152 34.536C31.624 34.536 32.9147 34.8347 34.024 35.432C35.1333 36.0293 35.9867 36.8827 36.584 37.992C37.2027 39.1013 37.512 40.3813 37.512 41.832C37.512 43.3893 37.1493 44.7547 36.424 45.928C35.6987 47.08 34.728 47.9653 33.512 48.584C32.296 49.2027 30.9733 49.512 29.544 49.512Z" fill="#FF0000"/>
<path d="M222.456 306.488C223.651 306.488 224.717 306.701 225.656 307.128C226.573 307.576 227.288 308.173 227.8 308.92C228.312 309.688 228.568 310.52 228.568 311.416C228.568 312.077 228.419 312.664 228.12 313.176C227.8 313.709 227.405 314.115 226.936 314.392C226.445 314.691 225.955 314.84 225.464 314.84C224.781 314.84 224.259 314.627 223.896 314.2C223.533 313.795 223.352 313.315 223.352 312.76C223.352 311.907 223.811 311.245 224.728 310.776C225.368 310.541 225.688 310.093 225.688 309.432C225.688 308.941 225.421 308.493 224.888 308.088C224.333 307.704 223.555 307.512 222.552 307.512C221.336 307.512 220.547 308.099 220.184 309.272C219.8 310.445 219.608 312.045 219.608 314.072C219.608 315.608 219.693 316.824 219.864 317.72C220.035 318.637 220.344 319.32 220.792 319.768C221.24 320.216 221.88 320.44 222.712 320.44C223.117 320.44 223.597 320.291 224.152 319.992C224.707 319.715 225.219 319.32 225.688 318.808C226.136 318.317 226.435 317.773 226.584 317.176H227.416V329.496L226.776 329.912C225.453 329.101 223.981 328.696 222.36 328.696C221.528 328.696 220.611 328.835 219.608 329.112C218.584 329.411 217.688 329.805 216.92 330.296L216.344 329.72C217.475 328.035 218.904 326.787 220.632 325.976C222.339 325.187 224.173 324.792 226.136 324.792V319.8L225.944 319.736C225.368 320.333 224.749 320.771 224.088 321.048C223.427 321.325 222.68 321.464 221.848 321.464C220.376 321.464 219.085 321.165 217.976 320.568C216.867 319.971 216.013 319.117 215.416 318.008C214.797 316.899 214.488 315.619 214.488 314.168C214.488 312.611 214.851 311.245 215.576 310.072C216.301 308.92 217.272 308.035 218.488 307.416C219.704 306.797 221.027 306.488 222.456 306.488Z" fill="#FF0000"/>
<path d="M39 61.4541C39 58.9942 37.1178 57 34.7961 57C33.3583 57 32.0894 57.7649 31.3313 58.9314L31.251 59.0319C31.109 59.2094 30.8769 59.1962 30.7472 59.0047C30.6548 58.8678 30.5561 58.7359 30.4515 58.6092L30.4479 58.621C29.6769 57.631 28.51 57 27.2039 57C24.8822 57 23 58.9942 23 61.4541C23 62.6645 23.4559 63.7619 24.1954 64.5647L30.3252 72.6168C30.6451 73.1277 31.3531 73.1277 31.673 72.6168L37.9259 64.4276C38.5936 63.639 39 62.597 39 61.4541Z" fill="#FF0000"/>
<path d="M81 49.9083C81 44.9884 77.2357 41 72.5922 41C69.7166 41 67.1787 42.5298 65.6627 44.8628L65.502 45.0638C65.2181 45.4188 64.7538 45.3924 64.4943 45.0093C64.3095 44.7357 64.1122 44.4717 63.903 44.2185L63.8959 44.2421C62.3537 42.2621 60.0199 41 57.4078 41C52.7643 41 49 44.9884 49 49.9083C49 52.329 49.9118 54.5238 51.3907 56.1294L63.6504 72.2337C64.2902 73.2554 65.7062 73.2554 66.3459 72.2337L78.8518 55.8551C80.1873 54.278 81 52.1939 81 49.9083Z" fill="#FF0000"/>
<path d="M142 168.908C142 163.988 138.236 160 133.592 160C130.717 160 128.179 161.53 126.663 163.863L126.502 164.064C126.218 164.419 125.754 164.392 125.494 164.009C125.31 163.736 125.112 163.472 124.903 163.218L124.896 163.242C123.354 161.262 121.02 160 118.408 160C113.764 160 110 163.988 110 168.908C110 171.329 110.912 173.524 112.391 175.129L124.65 191.234C125.29 192.255 126.706 192.255 127.346 191.234L139.852 174.855C141.187 173.278 142 171.194 142 168.908Z" fill="#FF0000"/>
<path d="M203 49.9083C203 44.9884 199.236 41 194.592 41C191.717 41 189.179 42.5298 187.663 44.8628L187.502 45.0638C187.218 45.4188 186.754 45.3924 186.494 45.0093C186.31 44.7357 186.112 44.4717 185.903 44.2185L185.896 44.2421C184.354 42.2621 182.02 41 179.408 41C174.764 41 171 44.9884 171 49.9083C171 52.329 171.912 54.5238 173.391 56.1294L185.65 72.2337C186.29 73.2554 187.706 73.2554 188.346 72.2337L200.852 55.8551C202.187 54.278 203 52.1939 203 49.9083Z" fill="#FF0000"/>
<path d="M213 290.546C213 293.006 214.882 295 217.204 295C218.642 295 219.911 294.235 220.669 293.069L220.749 292.968C220.891 292.791 221.123 292.804 221.253 292.995C221.345 293.132 221.444 293.264 221.548 293.391L221.552 293.379C222.323 294.369 223.49 295 224.796 295C227.118 295 229 293.006 229 290.546C229 289.335 228.544 288.238 227.805 287.435L221.675 279.383C221.355 278.872 220.647 278.872 220.327 279.383L214.074 287.572C213.406 288.361 213 289.403 213 290.546Z" fill="#FF0000"/>
<path d="M203 302.092C203 307.012 199.236 311 194.592 311C191.717 311 189.179 309.47 187.663 307.137L187.502 306.936C187.218 306.581 186.754 306.608 186.494 306.991C186.31 307.264 186.112 307.528 185.903 307.782L185.896 307.758C184.354 309.738 182.02 311 179.408 311C174.764 311 171 307.012 171 302.092C171 299.671 171.912 297.476 173.391 295.871L185.65 279.766C186.29 278.745 187.706 278.745 188.346 279.766L200.852 296.145C202.187 297.722 203 299.806 203 302.092Z" fill="#FF0000"/>
<path d="M81 302.092C81 307.012 77.2357 311 72.5922 311C69.7166 311 67.1787 309.47 65.6627 307.137L65.502 306.936C65.2181 306.581 64.7538 306.608 64.4943 306.991C64.3095 307.264 64.1122 307.528 63.903 307.782L63.8959 307.758C62.3537 309.738 60.0199 311 57.4078 311C52.7643 311 49 307.012 49 302.092C49 299.671 49.9118 297.476 51.3907 295.871L63.6504 279.766C64.2902 278.745 65.7062 278.745 66.3459 279.766L78.8518 296.145C80.1873 297.722 81 299.806 81 302.092Z" fill="#FF0000"/>
</svg>
