<svg width="252" height="352" viewBox="0 0 252 352" fill="none" xmlns="http://www.w3.org/2000/svg">
<rect x="1" y="1" width="250" height="350" rx="8" fill="white"/>
<rect x="1" y="1" width="250" height="350" rx="8" stroke="#A8A8A8" stroke-opacity="0.5"/>
<path d="M30.376 49.512C29.608 49.512 28.968 49.2133 28.456 48.616C27.9653 48.0187 27.72 47.208 27.72 46.184C27.72 44.904 28.0293 43.6987 28.648 42.568C29.288 41.4373 30.1733 40.2107 31.304 38.888C32.968 36.968 34.2053 35.3253 35.016 33.96C35.5493 33.0213 35.9333 32.0293 36.168 30.984L36.04 30.888C35.3787 31.4427 34.6427 31.72 33.832 31.72C32.9787 31.72 32.0507 31.528 31.048 31.144C30.152 30.8453 29.2773 30.696 28.424 30.696C27.5493 30.696 26.8347 30.92 26.28 31.368C25.7253 31.7947 25.4053 32.4667 25.32 33.384L25.16 35.304H24.008L24.744 26.216H25.896L25.736 28.328L25.864 28.392C27.1013 26.7707 28.456 25.96 29.928 25.96C30.5893 25.96 31.1333 26.1413 31.56 26.504C32.008 26.8453 32.456 27.336 32.904 27.976C33.3307 28.5947 33.7147 29.0747 34.056 29.416C34.3973 29.7573 34.7387 29.928 35.08 29.928C35.7627 29.928 36.104 29.608 36.104 28.968C36.104 28.584 35.8907 28.264 35.464 28.008C34.9307 27.7093 34.664 27.3147 34.664 26.824C34.664 26.568 34.7493 26.3653 34.92 26.216C35.0907 26.0453 35.3253 25.96 35.624 25.96C36.1787 25.96 36.6267 26.28 36.968 26.92C37.3307 27.56 37.512 28.2213 37.512 28.904C37.512 30.2907 37.3093 31.56 36.904 32.712C36.4987 33.8427 35.8587 35.1227 34.984 36.552C34.1733 37.896 33.608 39.3893 33.288 41.032C32.9893 42.6533 32.84 44.3813 32.84 46.216C32.84 47.3253 32.616 48.1573 32.168 48.712C31.7413 49.2453 31.144 49.512 30.376 49.512Z" fill="#FF0000"/>
<path d="M221.624 306.488C222.392 306.488 223.032 306.787 223.544 307.384C224.035 307.981 224.28 308.792 224.28 309.816C224.28 311.096 223.971 312.301 223.352 313.432C222.712 314.563 221.827 315.789 220.696 317.112C219.032 319.032 217.795 320.675 216.984 322.04C216.451 322.979 216.067 323.971 215.832 325.016L215.96 325.112C216.621 324.557 217.357 324.28 218.168 324.28C219.021 324.28 219.949 324.472 220.952 324.856C221.848 325.155 222.723 325.304 223.576 325.304C224.451 325.304 225.165 325.08 225.72 324.632C226.275 324.205 226.595 323.533 226.68 322.616L226.84 320.696H227.992L227.256 329.784H226.104L226.264 327.672L226.136 327.608C224.899 329.229 223.544 330.04 222.072 330.04C221.411 330.04 220.867 329.859 220.44 329.496C219.992 329.155 219.544 328.664 219.096 328.024C218.669 327.405 218.285 326.925 217.944 326.584C217.603 326.243 217.261 326.072 216.92 326.072C216.237 326.072 215.896 326.392 215.896 327.032C215.896 327.416 216.109 327.736 216.536 327.992C217.069 328.291 217.336 328.685 217.336 329.176C217.336 329.432 217.251 329.635 217.08 329.784C216.909 329.955 216.675 330.04 216.376 330.04C215.821 330.04 215.373 329.72 215.032 329.08C214.669 328.44 214.488 327.779 214.488 327.096C214.488 325.709 214.691 324.44 215.096 323.288C215.501 322.157 216.141 320.877 217.016 319.448C217.827 318.104 218.392 316.611 218.712 314.968C219.011 313.347 219.16 311.619 219.16 309.784C219.16 308.675 219.384 307.843 219.832 307.288C220.259 306.755 220.856 306.488 221.624 306.488Z" fill="#FF0000"/>
<path d="M39 61.4541C39 58.9942 37.1178 57 34.7961 57C33.3583 57 32.0894 57.7649 31.3313 58.9314L31.251 59.0319C31.109 59.2094 30.8769 59.1962 30.7472 59.0047C30.6548 58.8678 30.5561 58.7359 30.4515 58.6092L30.4479 58.621C29.6769 57.631 28.51 57 27.2039 57C24.8822 57 23 58.9942 23 61.4541C23 62.6645 23.4559 63.7619 24.1954 64.5647L30.3252 72.6168C30.6451 73.1277 31.3531 73.1277 31.673 72.6168L37.9259 64.4276C38.5936 63.639 39 62.597 39 61.4541Z" fill="#FF0000"/>
<path d="M81 49.9083C81 44.9884 77.2357 41 72.5922 41C69.7166 41 67.1787 42.5298 65.6627 44.8628L65.502 45.0638C65.2181 45.4188 64.7538 45.3924 64.4943 45.0093C64.3095 44.7357 64.1122 44.4717 63.903 44.2185L63.8959 44.2421C62.3537 42.2621 60.0199 41 57.4078 41C52.7643 41 49 44.9884 49 49.9083C49 52.329 49.9118 54.5238 51.3907 56.1294L63.6504 72.2337C64.2902 73.2554 65.7062 73.2554 66.3459 72.2337L78.8518 55.8551C80.1873 54.278 81 52.1939 81 49.9083Z" fill="#FF0000"/>
<path d="M203 168.908C203 163.988 199.236 160 194.592 160C191.717 160 189.179 161.53 187.663 163.863L187.502 164.064C187.218 164.419 186.754 164.392 186.494 164.009C186.31 163.736 186.112 163.472 185.903 163.218L185.896 163.242C184.354 161.262 182.02 160 179.408 160C174.764 160 171 163.988 171 168.908C171 171.329 171.912 173.524 173.391 175.129L185.65 191.234C186.29 192.255 187.706 192.255 188.346 191.234L200.852 174.855C202.187 173.278 203 171.194 203 168.908Z" fill="#FF0000"/>
<path d="M142 109.908C142 104.988 138.236 101 133.592 101C130.717 101 128.179 102.53 126.663 104.863L126.502 105.064C126.218 105.419 125.754 105.392 125.494 105.009C125.31 104.736 125.112 104.472 124.903 104.218L124.896 104.242C123.354 102.262 121.02 101 118.408 101C113.764 101 110 104.988 110 109.908C110 112.329 110.912 114.524 112.391 116.129L124.65 132.234C125.29 133.255 126.706 133.255 127.346 132.234L139.852 115.855C141.187 114.278 142 112.194 142 109.908Z" fill="#FF0000"/>
<path d="M81 168.908C81 163.988 77.2357 160 72.5922 160C69.7166 160 67.1787 161.53 65.6627 163.863L65.502 164.064C65.2181 164.419 64.7538 164.392 64.4943 164.009C64.3095 163.736 64.1122 163.472 63.903 163.218L63.8959 163.242C62.3537 161.262 60.0199 160 57.4078 160C52.7643 160 49 163.988 49 168.908C49 171.329 49.9118 173.524 51.3907 175.129L63.6504 191.234C64.2902 192.255 65.7062 192.255 66.3459 191.234L78.8518 174.855C80.1873 173.278 81 171.194 81 168.908Z" fill="#FF0000"/>
<path d="M203 49.9083C203 44.9884 199.236 41 194.592 41C191.717 41 189.179 42.5298 187.663 44.8628L187.502 45.0638C187.218 45.4188 186.754 45.3924 186.494 45.0093C186.31 44.7357 186.112 44.4717 185.903 44.2185L185.896 44.2421C184.354 42.2621 182.02 41 179.408 41C174.764 41 171 44.9884 171 49.9083C171 52.329 171.912 54.5238 173.391 56.1294L185.65 72.2337C186.29 73.2554 187.706 73.2554 188.346 72.2337L200.852 55.8551C202.187 54.278 203 52.1939 203 49.9083Z" fill="#FF0000"/>
<path d="M229 290.546C229 293.006 227.118 295 224.796 295C223.358 295 222.089 294.235 221.331 293.069L221.251 292.968C221.109 292.791 220.877 292.804 220.747 292.995C220.655 293.132 220.556 293.264 220.452 293.391L220.448 293.379C219.677 294.369 218.51 295 217.204 295C214.882 295 213 293.006 213 290.546C213 289.335 213.456 288.238 214.195 287.435L220.325 279.383C220.645 278.872 221.353 278.872 221.673 279.383L227.926 287.572C228.594 288.361 229 289.403 229 290.546Z" fill="#FF0000"/>
<path d="M203 302.092C203 307.012 199.236 311 194.592 311C191.717 311 189.179 309.47 187.663 307.137L187.502 306.936C187.218 306.581 186.754 306.608 186.494 306.991C186.31 307.264 186.112 307.528 185.903 307.782L185.896 307.758C184.354 309.738 182.02 311 179.408 311C174.764 311 171 307.012 171 302.092C171 299.671 171.912 297.476 173.391 295.871L185.65 279.766C186.29 278.745 187.706 278.745 188.346 279.766L200.852 296.145C202.187 297.722 203 299.806 203 302.092Z" fill="#FF0000"/>
<path d="M81 302.092C81 307.012 77.2357 311 72.5922 311C69.7166 311 67.1787 309.47 65.6627 307.137L65.502 306.936C65.2181 306.581 64.7538 306.608 64.4943 306.991C64.3095 307.264 64.1122 307.528 63.903 307.782L63.8959 307.758C62.3537 309.738 60.0199 311 57.4078 311C52.7643 311 49 307.012 49 302.092C49 299.671 49.9118 297.476 51.3907 295.871L63.6504 279.766C64.2902 278.745 65.7062 278.745 66.3459 279.766L78.8518 296.145C80.1873 297.722 81 299.806 81 302.092Z" fill="#FF0000"/>
</svg>
