<svg width="252" height="352" viewBox="0 0 252 352" fill="none" xmlns="http://www.w3.org/2000/svg">
<rect x="1" y="1" width="250" height="350" rx="8" fill="white"/>
<rect x="1" y="1" width="250" height="350" rx="8" stroke="#A8A8A8" stroke-opacity="0.5"/>
<path d="M29.096 49.512C27.2613 49.512 25.7467 49.064 24.552 48.168C23.3787 47.2507 22.792 46.024 22.792 44.488C22.792 43.6133 23.08 42.856 23.656 42.216C24.2533 41.5547 24.9893 41.224 25.864 41.224C26.5893 41.224 27.1653 41.4267 27.592 41.832C28.0187 42.2373 28.232 42.7387 28.232 43.336C28.232 44.3813 27.7413 45.1173 26.76 45.544C26.5253 45.6507 26.312 45.8 26.12 45.992C25.9493 46.184 25.864 46.3973 25.864 46.632C25.864 47.208 26.1413 47.6667 26.696 48.008C27.272 48.328 28.04 48.488 29 48.488C31.2613 48.488 32.392 46.6 32.392 42.824C32.392 41.0533 32.0827 39.7413 31.464 38.888C30.8453 38.0347 30.0773 37.608 29.16 37.608H25.928V36.456H29.096C30.0987 36.456 30.824 36.0827 31.272 35.336C31.7413 34.568 31.976 33.384 31.976 31.784C31.976 29.8427 31.7413 28.52 31.272 27.816C30.824 27.0907 30.1307 26.728 29.192 26.728C28.3813 26.728 27.688 26.9627 27.112 27.432C26.536 27.88 26.248 28.4667 26.248 29.192C26.248 29.6613 26.568 30.1093 27.208 30.536C27.9547 31.0267 28.328 31.6667 28.328 32.456C28.328 32.968 28.136 33.416 27.752 33.8C27.3893 34.184 26.888 34.376 26.248 34.376C25.4587 34.376 24.776 34.0667 24.2 33.448C23.6453 32.808 23.368 32.008 23.368 31.048C23.368 29.9813 23.6453 29.0427 24.2 28.232C24.7547 27.4213 25.5013 26.8027 26.44 26.376C27.4 25.928 28.4453 25.704 29.576 25.704C31.7307 25.704 33.4693 26.216 34.792 27.24C36.1147 28.264 36.776 29.6507 36.776 31.4C36.776 32.9147 36.2533 34.12 35.208 35.016C34.184 35.912 32.9573 36.5093 31.528 36.808V37.096C32.5307 37.1813 33.4907 37.4907 34.408 38.024C35.3253 38.536 36.072 39.2187 36.648 40.072C37.224 40.9253 37.512 41.8853 37.512 42.952C37.512 45.064 36.744 46.6853 35.208 47.816C33.6933 48.9467 31.656 49.512 29.096 49.512Z" fill="#FF0000"/>
<path d="M222.904 306.488C224.739 306.488 226.253 306.936 227.448 307.832C228.621 308.749 229.208 309.976 229.208 311.512C229.208 312.387 228.92 313.144 228.344 313.784C227.747 314.445 227.011 314.776 226.136 314.776C225.411 314.776 224.835 314.573 224.408 314.168C223.981 313.763 223.768 313.261 223.768 312.664C223.768 311.619 224.259 310.883 225.24 310.456C225.475 310.349 225.688 310.2 225.88 310.008C226.051 309.816 226.136 309.603 226.136 309.368C226.136 308.792 225.859 308.333 225.304 307.992C224.728 307.672 223.96 307.512 223 307.512C220.739 307.512 219.608 309.4 219.608 313.176C219.608 314.947 219.917 316.259 220.536 317.112C221.155 317.965 221.923 318.392 222.84 318.392H226.072V319.544H222.904C221.901 319.544 221.176 319.917 220.728 320.664C220.259 321.432 220.024 322.616 220.024 324.216C220.024 326.157 220.259 327.48 220.728 328.184C221.176 328.909 221.869 329.272 222.808 329.272C223.619 329.272 224.312 329.037 224.888 328.568C225.464 328.12 225.752 327.533 225.752 326.808C225.752 326.339 225.432 325.891 224.792 325.464C224.045 324.973 223.672 324.333 223.672 323.544C223.672 323.032 223.864 322.584 224.248 322.2C224.611 321.816 225.112 321.624 225.752 321.624C226.541 321.624 227.224 321.933 227.8 322.552C228.355 323.192 228.632 323.992 228.632 324.952C228.632 326.019 228.355 326.957 227.8 327.768C227.245 328.579 226.499 329.197 225.56 329.624C224.6 330.072 223.555 330.296 222.424 330.296C220.269 330.296 218.531 329.784 217.208 328.76C215.885 327.736 215.224 326.349 215.224 324.6C215.224 323.085 215.747 321.88 216.792 320.984C217.816 320.088 219.043 319.491 220.472 319.192V318.904C219.469 318.819 218.509 318.509 217.592 317.976C216.675 317.464 215.928 316.781 215.352 315.928C214.776 315.075 214.488 314.115 214.488 313.048C214.488 310.936 215.256 309.315 216.792 308.184C218.307 307.053 220.344 306.488 222.904 306.488Z" fill="#FF0000"/>
<path d="M39 61.4541C39 58.9942 37.1178 57 34.7961 57C33.3583 57 32.0894 57.7649 31.3313 58.9314L31.251 59.0319C31.109 59.2094 30.8769 59.1962 30.7472 59.0047C30.6548 58.8678 30.5561 58.7359 30.4515 58.6092L30.4479 58.621C29.6769 57.631 28.51 57 27.2039 57C24.8822 57 23 58.9942 23 61.4541C23 62.6645 23.4559 63.7619 24.1954 64.5647L30.3252 72.6168C30.6451 73.1277 31.3531 73.1277 31.673 72.6168L37.9259 64.4276C38.5936 63.639 39 62.597 39 61.4541Z" fill="#FF0000"/>
<path d="M142 49.9083C142 44.9884 138.236 41 133.592 41C130.717 41 128.179 42.5298 126.663 44.8628L126.502 45.0638C126.218 45.4188 125.754 45.3924 125.494 45.0093C125.31 44.7357 125.112 44.4717 124.903 44.2185L124.896 44.2421C123.354 42.2621 121.02 41 118.408 41C113.764 41 110 44.9884 110 49.9083C110 52.329 110.912 54.5238 112.391 56.1294L124.65 72.2337C125.29 73.2555 126.706 73.2555 127.346 72.2337L139.852 55.8551C141.187 54.278 142 52.1939 142 49.9083Z" fill="#FF0000"/>
<path d="M142 168.908C142 163.988 138.236 160 133.592 160C130.717 160 128.179 161.53 126.663 163.863L126.502 164.064C126.218 164.419 125.754 164.392 125.494 164.009C125.31 163.736 125.112 163.472 124.903 163.218L124.896 163.242C123.354 161.262 121.02 160 118.408 160C113.764 160 110 163.988 110 168.908C110 171.329 110.912 173.524 112.391 175.129L124.65 191.234C125.29 192.255 126.706 192.255 127.346 191.234L139.852 174.855C141.187 173.278 142 171.194 142 168.908Z" fill="#FF0000"/>
<path d="M213 290.546C213 293.006 214.882 295 217.204 295C218.642 295 219.911 294.235 220.669 293.069L220.749 292.968C220.891 292.791 221.123 292.804 221.253 292.995C221.345 293.132 221.444 293.264 221.548 293.391L221.552 293.379C222.323 294.369 223.49 295 224.796 295C227.118 295 229 293.006 229 290.546C229 289.335 228.544 288.238 227.805 287.435L221.675 279.383C221.355 278.872 220.647 278.872 220.327 279.383L214.074 287.572C213.406 288.361 213 289.403 213 290.546Z" fill="#FF0000"/>
<path d="M142 302.092C142 307.012 138.236 311 133.592 311C130.717 311 128.179 309.47 126.663 307.137L126.502 306.936C126.218 306.581 125.754 306.608 125.494 306.991C125.31 307.264 125.112 307.528 124.903 307.782L124.896 307.758C123.354 309.738 121.02 311 118.408 311C113.764 311 110 307.012 110 302.092C110 299.671 110.912 297.476 112.391 295.871L124.65 279.766C125.29 278.745 126.706 278.745 127.346 279.766L139.852 296.145C141.187 297.722 142 299.806 142 302.092Z" fill="#FF0000"/>
</svg>
