<svg width="252" height="352" viewBox="0 0 252 352" fill="none" xmlns="http://www.w3.org/2000/svg">
<rect x="1" y="1" width="250" height="350" rx="8" fill="white"/>
<rect x="1" y="1" width="250" height="350" rx="8" stroke="#A8A8A8" stroke-opacity="0.5"/>
<path d="M30.152 49.512C28.9573 49.512 27.784 49.2773 26.632 48.808C25.5013 48.3387 24.5733 47.6667 23.848 46.792C23.144 45.896 22.792 44.8507 22.792 43.656C22.792 42.312 23.1867 41.1707 23.976 40.232C24.7653 39.2933 25.6613 38.6107 26.664 38.184V38.12C24.3813 36.776 23.24 34.8453 23.24 32.328C23.24 30.92 23.6027 29.7147 24.328 28.712C25.0747 27.7093 26.0133 26.9627 27.144 26.472C28.296 25.96 29.4693 25.704 30.664 25.704C32.072 25.704 33.2453 25.9707 34.184 26.504C35.144 27.0373 35.8373 27.6987 36.264 28.488C36.712 29.2773 36.936 30.0453 36.936 30.792C36.936 31.8587 36.5947 32.8293 35.912 33.704C35.2507 34.5787 34.4613 35.2507 33.544 35.72V35.848L34.152 36.168C35.4107 36.7867 36.4027 37.6293 37.128 38.696C37.8533 39.7627 38.216 40.84 38.216 41.928C38.216 43.3147 37.9067 44.584 37.288 45.736C36.6693 46.888 35.752 47.8053 34.536 48.488C33.32 49.1707 31.8587 49.512 30.152 49.512ZM32.648 35.368C33.5013 35.0267 34.1733 34.4507 34.664 33.64C35.1547 32.808 35.4 31.912 35.4 30.952C35.4 30.0773 35.176 29.32 34.728 28.68C34.28 28.04 33.704 27.56 33 27.24C32.3173 26.8987 31.6133 26.728 30.888 26.728C29.736 26.728 28.6587 27.0053 27.656 27.56C26.6747 28.1147 26.184 28.9893 26.184 30.184C26.184 31.0373 26.376 31.688 26.76 32.136C27.144 32.584 27.7093 32.9893 28.456 33.352L32.648 35.368ZM31.016 48.488C31.9547 48.488 32.7867 48.3173 33.512 47.976C34.2373 47.6133 34.792 47.144 35.176 46.568C35.5813 45.992 35.784 45.3733 35.784 44.712C35.784 43.8587 35.5173 43.1547 34.984 42.6C34.4507 42.0453 33.7573 41.5547 32.904 41.128L27.592 38.504C26.7387 38.9733 26.088 39.5387 25.64 40.2C25.192 40.84 24.968 41.8213 24.968 43.144C24.968 44.5093 25.3093 45.5973 25.992 46.408C26.696 47.1973 27.5067 47.7413 28.424 48.04C29.3627 48.3387 30.2267 48.488 31.016 48.488Z" fill="#FF0000"/>
<path d="M221.848 306.488C223.043 306.488 224.216 306.723 225.368 307.192C226.499 307.661 227.427 308.333 228.152 309.208C228.856 310.104 229.208 311.149 229.208 312.344C229.208 313.688 228.813 314.829 228.024 315.768C227.235 316.707 226.339 317.389 225.336 317.816V317.88C227.619 319.224 228.76 321.155 228.76 323.672C228.76 325.08 228.397 326.285 227.672 327.288C226.925 328.291 225.987 329.037 224.856 329.528C223.704 330.04 222.531 330.296 221.336 330.296C219.928 330.296 218.755 330.029 217.816 329.496C216.856 328.963 216.163 328.301 215.736 327.512C215.288 326.723 215.064 325.955 215.064 325.208C215.064 324.141 215.405 323.171 216.088 322.296C216.749 321.421 217.539 320.749 218.456 320.28V320.152L217.848 319.832C216.589 319.213 215.597 318.371 214.872 317.304C214.147 316.237 213.784 315.16 213.784 314.072C213.784 312.685 214.093 311.416 214.712 310.264C215.331 309.112 216.248 308.195 217.464 307.512C218.68 306.829 220.141 306.488 221.848 306.488ZM219.352 320.632C218.499 320.973 217.827 321.549 217.336 322.36C216.845 323.192 216.6 324.088 216.6 325.048C216.6 325.923 216.824 326.68 217.272 327.32C217.72 327.96 218.296 328.44 219 328.76C219.683 329.101 220.387 329.272 221.112 329.272C222.264 329.272 223.341 328.995 224.344 328.44C225.325 327.885 225.816 327.011 225.816 325.816C225.816 324.963 225.624 324.312 225.24 323.864C224.856 323.416 224.291 323.011 223.544 322.648L219.352 320.632ZM220.984 307.512C220.045 307.512 219.213 307.683 218.488 308.024C217.763 308.387 217.208 308.856 216.824 309.432C216.419 310.008 216.216 310.627 216.216 311.288C216.216 312.141 216.483 312.845 217.016 313.4C217.549 313.955 218.243 314.445 219.096 314.872L224.408 317.496C225.261 317.027 225.912 316.461 226.36 315.8C226.808 315.16 227.032 314.179 227.032 312.856C227.032 311.491 226.691 310.403 226.008 309.592C225.304 308.803 224.493 308.259 223.576 307.96C222.637 307.661 221.773 307.512 220.984 307.512Z" fill="#FF0000"/>
<path d="M39 61.4541C39 58.9942 37.1178 57 34.7961 57C33.3583 57 32.0894 57.7649 31.3313 58.9314L31.251 59.0319C31.109 59.2094 30.8769 59.1962 30.7472 59.0047C30.6548 58.8678 30.5561 58.7359 30.4515 58.6092L30.4479 58.621C29.6769 57.631 28.51 57 27.2039 57C24.8822 57 23 58.9942 23 61.4541C23 62.6645 23.4559 63.7619 24.1954 64.5647L30.3252 72.6168C30.6451 73.1277 31.3531 73.1277 31.673 72.6168L37.9259 64.4276C38.5936 63.639 39 62.597 39 61.4541Z" fill="#FF0000"/>
<path d="M81 49.9083C81 44.9884 77.2357 41 72.5922 41C69.7166 41 67.1787 42.5298 65.6627 44.8628L65.502 45.0638C65.2181 45.4188 64.7538 45.3924 64.4943 45.0093C64.3095 44.7357 64.1122 44.4717 63.903 44.2185L63.8959 44.2421C62.3537 42.2621 60.0199 41 57.4078 41C52.7643 41 49 44.9884 49 49.9083C49 52.329 49.9118 54.5238 51.3907 56.1294L63.6504 72.2337C64.2902 73.2554 65.7062 73.2554 66.3459 72.2337L78.8518 55.8551C80.1873 54.278 81 52.1939 81 49.9083Z" fill="#FF0000"/>
<path d="M203 168.908C203 163.988 199.236 160 194.592 160C191.717 160 189.179 161.53 187.663 163.863L187.502 164.064C187.218 164.419 186.754 164.392 186.494 164.009C186.31 163.736 186.112 163.472 185.903 163.218L185.896 163.242C184.354 161.262 182.02 160 179.408 160C174.764 160 171 163.988 171 168.908C171 171.329 171.912 173.524 173.391 175.129L185.65 191.234C186.29 192.255 187.706 192.255 188.346 191.234L200.852 174.855C202.187 173.278 203 171.194 203 168.908Z" fill="#FF0000"/>
<path d="M142 109.908C142 104.988 138.236 101 133.592 101C130.717 101 128.179 102.53 126.663 104.863L126.502 105.064C126.218 105.419 125.754 105.392 125.494 105.009C125.31 104.736 125.112 104.472 124.903 104.218L124.896 104.242C123.354 102.262 121.02 101 118.408 101C113.764 101 110 104.988 110 109.908C110 112.329 110.912 114.524 112.391 116.129L124.65 132.234C125.29 133.255 126.706 133.255 127.346 132.234L139.852 115.855C141.187 114.278 142 112.194 142 109.908Z" fill="#FF0000"/>
<path d="M142 242.092C142 247.012 138.236 251 133.592 251C130.717 251 128.179 249.47 126.663 247.137L126.502 246.936C126.218 246.581 125.754 246.608 125.494 246.991C125.31 247.264 125.112 247.528 124.903 247.782L124.896 247.758C123.354 249.738 121.02 251 118.408 251C113.764 251 110 247.012 110 242.092C110 239.671 110.912 237.476 112.391 235.871L124.65 219.766C125.29 218.745 126.706 218.745 127.346 219.766L139.852 236.145C141.187 237.722 142 239.806 142 242.092Z" fill="#FF0000"/>
<path d="M81 168.908C81 163.988 77.2357 160 72.5922 160C69.7166 160 67.1787 161.53 65.6627 163.863L65.502 164.064C65.2181 164.419 64.7538 164.392 64.4943 164.009C64.3095 163.736 64.1122 163.472 63.903 163.218L63.8959 163.242C62.3537 161.262 60.0199 160 57.4078 160C52.7643 160 49 163.988 49 168.908C49 171.329 49.9118 173.524 51.3907 175.129L63.6504 191.234C64.2902 192.255 65.7062 192.255 66.3459 191.234L78.8518 174.855C80.1873 173.278 81 171.194 81 168.908Z" fill="#FF0000"/>
<path d="M203 49.9083C203 44.9884 199.236 41 194.592 41C191.717 41 189.179 42.5298 187.663 44.8628L187.502 45.0638C187.218 45.4188 186.754 45.3924 186.494 45.0093C186.31 44.7357 186.112 44.4717 185.903 44.2185L185.896 44.2421C184.354 42.2621 182.02 41 179.408 41C174.764 41 171 44.9884 171 49.9083C171 52.329 171.912 54.5238 173.391 56.1294L185.65 72.2337C186.29 73.2554 187.706 73.2554 188.346 72.2337L200.852 55.8551C202.187 54.278 203 52.1939 203 49.9083Z" fill="#FF0000"/>
<path d="M213 290.546C213 293.006 214.882 295 217.204 295C218.642 295 219.911 294.235 220.669 293.069L220.749 292.968C220.891 292.791 221.123 292.804 221.253 292.995C221.345 293.132 221.444 293.264 221.548 293.391L221.552 293.379C222.323 294.369 223.49 295 224.796 295C227.118 295 229 293.006 229 290.546C229 289.335 228.544 288.238 227.805 287.435L221.675 279.383C221.355 278.872 220.647 278.872 220.327 279.383L214.074 287.572C213.406 288.361 213 289.403 213 290.546Z" fill="#FF0000"/>
<path d="M203 302.092C203 307.012 199.236 311 194.592 311C191.717 311 189.179 309.47 187.663 307.137L187.502 306.936C187.218 306.581 186.754 306.608 186.494 306.991C186.31 307.264 186.112 307.528 185.903 307.782L185.896 307.758C184.354 309.738 182.02 311 179.408 311C174.764 311 171 307.012 171 302.092C171 299.671 171.912 297.476 173.391 295.871L185.65 279.766C186.29 278.745 187.706 278.745 188.346 279.766L200.852 296.145C202.187 297.722 203 299.806 203 302.092Z" fill="#FF0000"/>
<path d="M81 302.092C81 307.012 77.2357 311 72.5922 311C69.7166 311 67.1787 309.47 65.6627 307.137L65.502 306.936C65.2181 306.581 64.7538 306.608 64.4943 306.991C64.3095 307.264 64.1122 307.528 63.903 307.782L63.8959 307.758C62.3537 309.738 60.0199 311 57.4078 311C52.7643 311 49 307.012 49 302.092C49 299.671 49.9118 297.476 51.3907 295.871L63.6504 279.766C64.2902 278.745 65.7062 278.745 66.3459 279.766L78.8518 296.145C80.1873 297.722 81 299.806 81 302.092Z" fill="#FF0000"/>
</svg>
