<svg width="252" height="352" viewBox="0 0 252 352" fill="none" xmlns="http://www.w3.org/2000/svg">
<rect x="251" y="351" width="250" height="350" rx="8" transform="rotate(180 251 351)" fill="white"/>
<rect x="251" y="351" width="250" height="350" rx="8" transform="rotate(180 251 351)" stroke="#A8A8A8" stroke-opacity="0.5"/>
<path d="M236.16 304.024H233.856C233.557 304.024 233.355 304.077 233.248 304.184C233.141 304.312 233.088 304.515 233.088 304.792V322.296H236.16V323.448H234.976C234.037 323.448 233.173 323.651 232.384 324.056C231.573 324.461 231.029 325.037 230.752 325.784H228.352V304.792C228.352 304.515 228.299 304.312 228.192 304.184C228.064 304.077 227.861 304.024 227.584 304.024H225.28V303H236.16V304.024ZM212.157 302.488C213.693 302.488 215.048 303.085 216.221 304.28C217.373 305.475 218.269 306.989 218.909 308.824C219.528 310.68 219.837 312.536 219.837 314.392C219.837 316.248 219.528 318.093 218.909 319.928C218.269 321.784 217.373 323.309 216.221 324.504C215.048 325.699 213.693 326.296 212.157 326.296C210.621 326.296 209.277 325.699 208.125 324.504C206.952 323.309 206.056 321.784 205.438 319.928C204.797 318.093 204.477 316.248 204.477 314.392C204.477 312.536 204.797 310.68 205.438 308.824C206.056 306.989 206.952 305.475 208.125 304.28C209.277 303.085 210.621 302.488 212.157 302.488ZM212.157 303.512C211.368 303.512 210.803 303.939 210.461 304.792C210.099 305.667 209.917 306.605 209.917 307.608V321.176C209.917 322.179 210.099 323.107 210.461 323.96C210.803 324.835 211.368 325.272 212.157 325.272C212.947 325.272 213.523 324.835 213.885 323.96C214.227 323.107 214.397 322.179 214.397 321.176V307.608C214.397 306.605 214.227 305.667 213.885 304.792C213.523 303.939 212.947 303.512 212.157 303.512Z" fill="#FF0000"/>
<path d="M15.84 47.976H18.144C18.4427 47.976 18.6453 47.9227 18.752 47.816C18.8587 47.688 18.912 47.4853 18.912 47.208V29.704H15.84V28.552H17.024C17.9627 28.552 18.8267 28.3493 19.616 27.944C20.4267 27.5387 20.9707 26.9627 21.248 26.216H23.648V47.208C23.648 47.4853 23.7013 47.688 23.808 47.816C23.936 47.9227 24.1387 47.976 24.416 47.976H26.72V49H15.84V47.976ZM39.8425 49.512C38.3065 49.512 36.9518 48.9147 35.7785 47.72C34.6265 46.5253 33.7305 45.0107 33.0905 43.176C32.4718 41.32 32.1625 39.464 32.1625 37.608C32.1625 35.752 32.4718 33.9067 33.0905 32.072C33.7305 30.216 34.6265 28.6907 35.7785 27.496C36.9518 26.3013 38.3065 25.704 39.8425 25.704C41.3785 25.704 42.7225 26.3013 43.8745 27.496C45.0478 28.6907 45.9438 30.216 46.5625 32.072C47.2025 33.9067 47.5225 35.752 47.5225 37.608C47.5225 39.464 47.2025 41.32 46.5625 43.176C45.9438 45.0107 45.0478 46.5253 43.8745 47.72C42.7225 48.9147 41.3785 49.512 39.8425 49.512ZM39.8425 48.488C40.6318 48.488 41.1972 48.0613 41.5385 47.208C41.9012 46.3333 42.0825 45.3947 42.0825 44.392V30.824C42.0825 29.8213 41.9012 28.8933 41.5385 28.04C41.1972 27.1653 40.6318 26.728 39.8425 26.728C39.0532 26.728 38.4772 27.1653 38.1145 28.04C37.7732 28.8933 37.6025 29.8213 37.6025 30.824V44.392C37.6025 45.3947 37.7732 46.3333 38.1145 47.208C38.4772 48.0613 39.0532 48.488 39.8425 48.488Z" fill="#FF0000"/>
<path d="M213 290.546C213 293.006 214.882 295 217.204 295C218.642 295 219.911 294.235 220.669 293.069L220.749 292.968C220.891 292.791 221.123 292.804 221.253 292.995C221.345 293.132 221.444 293.264 221.548 293.391L221.552 293.379C222.323 294.369 223.49 295 224.796 295C227.118 295 229 293.006 229 290.546C229 289.335 228.544 288.238 227.805 287.435L221.675 279.383C221.355 278.872 220.647 278.872 220.327 279.383L214.074 287.572C213.406 288.361 213 289.403 213 290.546Z" fill="#FF0000"/>
<path d="M171 302.092C171 307.012 174.764 311 179.408 311C182.283 311 184.821 309.47 186.337 307.137L186.498 306.936C186.782 306.581 187.246 306.608 187.506 306.991C187.69 307.264 187.888 307.528 188.097 307.782L188.104 307.758C189.646 309.738 191.98 311 194.592 311C199.236 311 203 307.012 203 302.092C203 299.671 202.088 297.476 200.609 295.871L188.35 279.766C187.71 278.745 186.294 278.745 185.654 279.766L173.148 296.145C171.813 297.722 171 299.806 171 302.092Z" fill="#FF0000"/>
<path d="M49 233.092C49 238.012 52.7643 242 57.4078 242C60.2834 242 62.8213 240.47 64.3373 238.137L64.498 237.936C64.7819 237.581 65.2462 237.608 65.5057 237.991C65.6905 238.264 65.8878 238.528 66.097 238.782L66.1041 238.758C67.6463 240.738 69.9801 242 72.5922 242C77.2357 242 81 238.012 81 233.092C81 230.671 80.0882 228.476 78.6093 226.871L66.3496 210.766C65.7098 209.745 64.2938 209.745 63.6541 210.766L51.1482 227.145C49.8127 228.722 49 230.806 49 233.092Z" fill="#FF0000"/>
<path d="M142 270.092C142 275.012 138.236 279 133.592 279C130.717 279 128.179 277.47 126.663 275.137L126.502 274.936C126.218 274.581 125.754 274.608 125.494 274.991C125.31 275.264 125.112 275.528 124.903 275.782L124.896 275.758C123.354 277.738 121.02 279 118.408 279C113.764 279 110 275.012 110 270.092C110 267.671 110.912 265.476 112.391 263.871L124.65 247.766C125.29 246.745 126.706 246.745 127.346 247.766L139.852 264.145C141.187 265.722 142 267.806 142 270.092Z" fill="#FF0000"/>
<path d="M142 81.9083C142 76.9884 138.236 73 133.592 73C130.717 73 128.179 74.5298 126.663 76.8628L126.502 77.0638C126.218 77.4188 125.754 77.3924 125.494 77.0093C125.31 76.7357 125.112 76.4717 124.903 76.2185L124.896 76.2421C123.354 74.2621 121.02 73 118.408 73C113.764 73 110 76.9884 110 81.9083C110 84.329 110.912 86.5238 112.391 88.1294L124.65 104.234C125.29 105.255 126.706 105.255 127.346 104.234L139.852 87.8551C141.187 86.278 142 84.1939 142 81.9083Z" fill="#FF0000"/>
<path d="M171 118.908C171 113.988 174.764 110 179.408 110C182.283 110 184.821 111.53 186.337 113.863L186.498 114.064C186.782 114.419 187.246 114.392 187.506 114.009C187.69 113.736 187.888 113.472 188.097 113.218L188.104 113.242C189.646 111.262 191.98 110 194.592 110C199.236 110 203 113.988 203 118.908C203 121.329 202.088 123.524 200.609 125.129L188.35 141.234C187.71 142.255 186.294 142.255 185.654 141.234L173.148 124.855C171.813 123.278 171 121.194 171 118.908Z" fill="#FF0000"/>
<path d="M49 118.908C49 113.988 52.7643 110 57.4078 110C60.2834 110 62.8213 111.53 64.3373 113.863L64.498 114.064C64.7819 114.419 65.2462 114.392 65.5057 114.009C65.6905 113.736 65.8878 113.472 66.097 113.218L66.1041 113.242C67.6463 111.262 69.9801 110 72.5922 110C77.2357 110 81 113.988 81 118.908C81 121.329 80.0882 123.524 78.6093 125.129L66.3496 141.234C65.7098 142.255 64.2938 142.255 63.6541 141.234L51.1482 124.855C49.8127 123.278 49 121.194 49 118.908Z" fill="#FF0000"/>
<path d="M171 233.092C171 238.012 174.764 242 179.408 242C182.283 242 184.821 240.47 186.337 238.137L186.498 237.936C186.782 237.581 187.246 237.608 187.506 237.991C187.69 238.264 187.888 238.528 188.097 238.782L188.104 238.758C189.646 240.738 191.98 242 194.592 242C199.236 242 203 238.012 203 233.092C203 230.671 202.088 228.476 200.609 226.871L188.35 210.766C187.71 209.745 186.294 209.745 185.654 210.766L173.148 227.145C171.813 228.722 171 230.806 171 233.092Z" fill="#FF0000"/>
<path d="M49 302.092C49 307.012 52.7643 311 57.4078 311C60.2834 311 62.8213 309.47 64.3373 307.137L64.498 306.936C64.7819 306.581 65.2462 306.608 65.5057 306.991C65.6905 307.264 65.8878 307.528 66.097 307.782L66.1041 307.758C67.6463 309.738 69.9801 311 72.5922 311C77.2357 311 81 307.012 81 302.092C81 299.671 80.0882 297.476 78.6093 295.871L66.3496 279.766C65.7098 278.745 64.2938 278.745 63.6541 279.766L51.1482 296.145C49.8127 297.722 49 299.806 49 302.092Z" fill="#FF0000"/>
<path d="M39 61.4541C39 58.9942 37.1178 57 34.7961 57C33.3583 57 32.0894 57.7649 31.3313 58.9314L31.251 59.0319C31.109 59.2094 30.8769 59.1962 30.7472 59.0047C30.6548 58.8678 30.5561 58.7359 30.4515 58.6092L30.4479 58.621C29.6769 57.631 28.51 57 27.2039 57C24.8822 57 23 58.9942 23 61.4541C23 62.6645 23.4559 63.7619 24.1954 64.5647L30.3252 72.6168C30.6451 73.1277 31.3531 73.1277 31.673 72.6168L37.9259 64.4276C38.5936 63.639 39 62.597 39 61.4541Z" fill="#FF0000"/>
<path d="M49 49.9083C49 44.9884 52.7643 41 57.4078 41C60.2834 41 62.8213 42.5298 64.3373 44.8628L64.498 45.0638C64.7819 45.4188 65.2462 45.3924 65.5057 45.0093C65.6905 44.7357 65.8878 44.4717 66.097 44.2185L66.1041 44.2421C67.6463 42.2621 69.9801 41 72.5922 41C77.2357 41 81 44.9884 81 49.9083C81 52.329 80.0882 54.5238 78.6093 56.1294L66.3496 72.2337C65.7098 73.2554 64.2938 73.2554 63.6541 72.2337L51.1482 55.8551C49.8127 54.278 49 52.1939 49 49.9083Z" fill="#FF0000"/>
<path d="M171 49.9083C171 44.9884 174.764 41 179.408 41C182.283 41 184.821 42.5298 186.337 44.8628L186.498 45.0638C186.782 45.4188 187.246 45.3924 187.506 45.0093C187.69 44.7357 187.888 44.4717 188.097 44.2185L188.104 44.2421C189.646 42.2621 191.98 41 194.592 41C199.236 41 203 44.9884 203 49.9083C203 52.329 202.088 54.5238 200.609 56.1294L188.35 72.2337C187.71 73.2554 186.294 73.2554 185.654 72.2337L173.148 55.8551C171.813 54.278 171 52.1939 171 49.9083Z" fill="#FF0000"/>
</svg>
