<svg width="252" height="352" viewBox="0 0 252 352" fill="none" xmlns="http://www.w3.org/2000/svg">
<rect x="1" y="1" width="250" height="350" rx="8" fill="white"/>
<rect x="1" y="1" width="250" height="350" rx="8" stroke="#A8A8A8" stroke-opacity="0.5"/>
<path d="M31.048 49.512C29.4693 49.512 28.0933 49 26.92 47.976C25.768 46.952 24.872 45.576 24.232 43.848C23.6133 42.12 23.304 40.2213 23.304 38.152C23.304 35.6987 23.6453 33.5333 24.328 31.656C25.032 29.7787 26.0347 28.3173 27.336 27.272C28.6373 26.2267 30.1733 25.704 31.944 25.704C32.9467 25.704 33.8107 25.9173 34.536 26.344C35.2613 26.7493 35.8053 27.2827 36.168 27.944C36.552 28.6053 36.744 29.3093 36.744 30.056C36.744 30.9733 36.4773 31.752 35.944 32.392C35.4107 33.032 34.7173 33.352 33.864 33.352C33.224 33.352 32.7013 33.16 32.296 32.776C31.912 32.3707 31.72 31.848 31.72 31.208C31.72 30.2267 32.2 29.5653 33.16 29.224C33.5867 29.0747 33.9067 28.9253 34.12 28.776C34.3333 28.6267 34.44 28.4347 34.44 28.2C34.44 27.7733 34.216 27.4213 33.768 27.144C33.32 26.8667 32.7013 26.728 31.912 26.728C30.7173 26.728 29.832 27.24 29.256 28.264C28.7013 29.288 28.424 30.5147 28.424 31.944V36.52L28.616 36.616C28.9573 36.2747 29.4053 36.0187 29.96 35.848C30.5147 35.656 31.1013 35.56 31.72 35.56C33.8533 35.56 35.4427 36.1893 36.488 37.448C37.5547 38.7067 38.088 40.3173 38.088 42.28C38.088 43.496 37.832 44.6587 37.32 45.768C36.8293 46.856 36.0507 47.752 34.984 48.456C33.9387 49.16 32.6267 49.512 31.048 49.512ZM31.016 48.488C31.7413 48.488 32.264 48.2427 32.584 47.752C32.9253 47.24 33.1387 46.6 33.224 45.832C33.3093 45.0427 33.352 43.9653 33.352 42.6C33.352 40.872 33.2027 39.4747 32.904 38.408C32.6267 37.32 32.0933 36.776 31.304 36.776C30.152 36.776 29.3627 37.224 28.936 38.12C28.7227 38.5253 28.584 39.0907 28.52 39.816C28.456 40.5413 28.424 41.5227 28.424 42.76C28.424 44.7013 28.6267 46.1413 29.032 47.08C29.4373 48.0187 30.0987 48.488 31.016 48.488Z" fill="#FF0000"/>
<path d="M220.952 306.488C222.531 306.488 223.907 307 225.08 308.024C226.232 309.048 227.128 310.424 227.768 312.152C228.387 313.88 228.696 315.779 228.696 317.848C228.696 320.301 228.355 322.467 227.672 324.344C226.968 326.221 225.965 327.683 224.664 328.728C223.363 329.773 221.827 330.296 220.056 330.296C219.053 330.296 218.189 330.083 217.464 329.656C216.739 329.251 216.195 328.717 215.832 328.056C215.448 327.395 215.256 326.691 215.256 325.944C215.256 325.027 215.523 324.248 216.056 323.608C216.589 322.968 217.283 322.648 218.136 322.648C218.776 322.648 219.299 322.84 219.704 323.224C220.088 323.629 220.28 324.152 220.28 324.792C220.28 325.773 219.8 326.435 218.84 326.776C218.413 326.925 218.093 327.075 217.88 327.224C217.667 327.373 217.56 327.565 217.56 327.8C217.56 328.227 217.784 328.579 218.232 328.856C218.68 329.133 219.299 329.272 220.088 329.272C221.283 329.272 222.168 328.76 222.744 327.736C223.299 326.712 223.576 325.485 223.576 324.056V319.48L223.384 319.384C223.043 319.725 222.595 319.981 222.04 320.152C221.485 320.344 220.899 320.44 220.28 320.44C218.147 320.44 216.557 319.811 215.512 318.552C214.445 317.293 213.912 315.683 213.912 313.72C213.912 312.504 214.168 311.341 214.68 310.232C215.171 309.144 215.949 308.248 217.016 307.544C218.061 306.84 219.373 306.488 220.952 306.488ZM220.984 307.512C220.259 307.512 219.736 307.757 219.416 308.248C219.075 308.76 218.861 309.4 218.776 310.168C218.691 310.957 218.648 312.035 218.648 313.4C218.648 315.128 218.797 316.525 219.096 317.592C219.373 318.68 219.907 319.224 220.696 319.224C221.848 319.224 222.637 318.776 223.064 317.88C223.277 317.475 223.416 316.909 223.48 316.184C223.544 315.459 223.576 314.477 223.576 313.24C223.576 311.299 223.373 309.859 222.968 308.92C222.563 307.981 221.901 307.512 220.984 307.512Z" fill="#FF0000"/>
<path d="M39 61.4541C39 58.9942 37.1178 57 34.7961 57C33.3583 57 32.0894 57.7649 31.3313 58.9314L31.251 59.0319C31.109 59.2094 30.8769 59.1962 30.7472 59.0047C30.6548 58.8678 30.5561 58.7359 30.4515 58.6092L30.4479 58.621C29.6769 57.631 28.51 57 27.2039 57C24.8822 57 23 58.9942 23 61.4541C23 62.6645 23.4559 63.7619 24.1954 64.5647L30.3252 72.6168C30.6451 73.1277 31.3531 73.1277 31.673 72.6168L37.9259 64.4276C38.5936 63.639 39 62.597 39 61.4541Z" fill="#FF0000"/>
<path d="M81 49.9083C81 44.9884 77.2357 41 72.5922 41C69.7166 41 67.1787 42.5298 65.6627 44.8628L65.502 45.0638C65.2181 45.4188 64.7538 45.3924 64.4943 45.0093C64.3095 44.7357 64.1122 44.4717 63.903 44.2185L63.8959 44.2421C62.3537 42.2621 60.0199 41 57.4078 41C52.7643 41 49 44.9884 49 49.9083C49 52.329 49.9118 54.5238 51.3907 56.1294L63.6504 72.2337C64.2902 73.2554 65.7062 73.2554 66.3459 72.2337L78.8518 55.8551C80.1873 54.278 81 52.1939 81 49.9083Z" fill="#FF0000"/>
<path d="M203 168.908C203 163.988 199.236 160 194.592 160C191.717 160 189.179 161.53 187.663 163.863L187.502 164.064C187.218 164.419 186.754 164.392 186.494 164.009C186.31 163.736 186.112 163.472 185.903 163.218L185.896 163.242C184.354 161.262 182.02 160 179.408 160C174.764 160 171 163.988 171 168.908C171 171.329 171.912 173.524 173.391 175.129L185.65 191.234C186.29 192.255 187.706 192.255 188.346 191.234L200.852 174.855C202.187 173.278 203 171.194 203 168.908Z" fill="#FF0000"/>
<path d="M81 168.908C81 163.988 77.2357 160 72.5922 160C69.7166 160 67.1787 161.53 65.6627 163.863L65.502 164.064C65.2181 164.419 64.7538 164.392 64.4943 164.009C64.3095 163.736 64.1122 163.472 63.903 163.218L63.8959 163.242C62.3537 161.262 60.0199 160 57.4078 160C52.7643 160 49 163.988 49 168.908C49 171.329 49.9118 173.524 51.3907 175.129L63.6504 191.234C64.2902 192.255 65.7062 192.255 66.3459 191.234L78.8518 174.855C80.1873 173.278 81 171.194 81 168.908Z" fill="#FF0000"/>
<path d="M203 49.9083C203 44.9884 199.236 41 194.592 41C191.717 41 189.179 42.5298 187.663 44.8628L187.502 45.0638C187.218 45.4188 186.754 45.3924 186.494 45.0093C186.31 44.7357 186.112 44.4717 185.903 44.2185L185.896 44.2421C184.354 42.2621 182.02 41 179.408 41C174.764 41 171 44.9884 171 49.9083C171 52.329 171.912 54.5238 173.391 56.1294L185.65 72.2337C186.29 73.2554 187.706 73.2554 188.346 72.2337L200.852 55.8551C202.187 54.278 203 52.1939 203 49.9083Z" fill="#FF0000"/>
<path d="M213 290.546C213 293.006 214.882 295 217.204 295C218.642 295 219.911 294.235 220.669 293.069L220.749 292.968C220.891 292.791 221.123 292.804 221.253 292.995C221.345 293.132 221.444 293.264 221.548 293.391L221.552 293.379C222.323 294.369 223.49 295 224.796 295C227.118 295 229 293.006 229 290.546C229 289.335 228.544 288.238 227.805 287.435L221.675 279.383C221.355 278.872 220.647 278.872 220.327 279.383L214.074 287.572C213.406 288.361 213 289.403 213 290.546Z" fill="#FF0000"/>
<path d="M203 302.092C203 307.012 199.236 311 194.592 311C191.717 311 189.179 309.47 187.663 307.137L187.502 306.936C187.218 306.581 186.754 306.608 186.494 306.991C186.31 307.264 186.112 307.528 185.903 307.782L185.896 307.758C184.354 309.738 182.02 311 179.408 311C174.764 311 171 307.012 171 302.092C171 299.671 171.912 297.476 173.391 295.871L185.65 279.766C186.29 278.745 187.706 278.745 188.346 279.766L200.852 296.145C202.187 297.722 203 299.806 203 302.092Z" fill="#FF0000"/>
<path d="M81 302.092C81 307.012 77.2357 311 72.5922 311C69.7166 311 67.1787 309.47 65.6627 307.137L65.502 306.936C65.2181 306.581 64.7538 306.608 64.4943 306.991C64.3095 307.264 64.1122 307.528 63.903 307.782L63.8959 307.758C62.3537 309.738 60.0199 311 57.4078 311C52.7643 311 49 307.012 49 302.092C49 299.671 49.9118 297.476 51.3907 295.871L63.6504 279.766C64.2902 278.745 65.7062 278.745 66.3459 279.766L78.8518 296.145C80.1873 297.722 81 299.806 81 302.092Z" fill="#FF0000"/>
</svg>
