<svg width="252" height="352" viewBox="0 0 252 352" fill="none" xmlns="http://www.w3.org/2000/svg">
<rect x="1" y="1" width="250" height="350" rx="8" fill="white"/>
<rect x="1" y="1" width="250" height="350" rx="8" stroke="#A8A8A8" stroke-opacity="0.5"/>
<path d="M31.752 49.512C30.3867 49.512 29 48.7227 27.592 47.144C27.1867 46.696 26.8453 46.3867 26.568 46.216C26.312 46.024 25.992 45.928 25.608 45.928C25.3093 45.928 25.064 46.024 24.872 46.216C24.68 46.3867 24.584 46.632 24.584 46.952V49H23.304V47.496C23.304 46.664 23.3787 45.8853 23.528 45.16C23.6987 44.4133 24.0827 43.5493 24.68 42.568C25.2773 41.5653 26.1947 40.4773 27.432 39.304C28.9893 37.7893 30.1947 36.4133 31.048 35.176C31.9013 33.9173 32.328 32.552 32.328 31.08C32.328 29.8853 32.0827 28.8827 31.592 28.072C31.1013 27.2613 30.2693 26.856 29.096 26.856C28.2853 26.856 27.6027 27.1227 27.048 27.656C26.5147 28.168 26.248 28.776 26.248 29.48C26.248 30.3333 26.5467 30.9733 27.144 31.4C27.6133 31.7413 27.9653 32.0827 28.2 32.424C28.456 32.744 28.584 33.1493 28.584 33.64C28.584 34.1947 28.3813 34.6533 27.976 35.016C27.5707 35.3787 27.0587 35.56 26.44 35.56C25.5227 35.56 24.7227 35.2293 24.04 34.568C23.3787 33.9067 23.048 33.0213 23.048 31.912C23.048 30.7813 23.3467 29.7467 23.944 28.808C24.5627 27.848 25.3947 27.0907 26.44 26.536C27.5067 25.9813 28.68 25.704 29.96 25.704C32.3067 25.704 34.088 26.248 35.304 27.336C36.52 28.4027 37.128 29.8213 37.128 31.592C37.128 32.808 36.744 33.9067 35.976 34.888C35.2293 35.8693 34.312 36.7227 33.224 37.448C32.1573 38.152 30.8027 38.9413 29.16 39.816C28.2427 40.328 27.3787 40.9787 26.568 41.768C25.7573 42.5573 25.2027 43.5067 24.904 44.616L25.032 44.68C25.8 44.0613 26.664 43.752 27.624 43.752C28.008 43.752 28.4667 43.8053 29 43.912C29.5547 44.0187 30.0133 44.136 30.376 44.264C31.4427 44.6053 32.4133 44.776 33.288 44.776C34.056 44.776 34.696 44.552 35.208 44.104C35.72 43.6347 35.976 43.0907 35.976 42.472C35.976 41.8533 35.9227 41.1387 35.816 40.328H36.808C36.936 41.2453 37 42.0773 37 42.824C37 43.912 36.8187 44.968 36.456 45.992C36.1147 46.9947 35.5493 47.8373 34.76 48.52C33.9707 49.1813 32.968 49.512 31.752 49.512Z" fill="#FF0000"/>
<path d="M220.248 306.488C221.613 306.488 223 307.277 224.408 308.856C224.813 309.304 225.155 309.613 225.432 309.784C225.688 309.976 226.008 310.072 226.392 310.072C226.691 310.072 226.936 309.976 227.128 309.784C227.32 309.613 227.416 309.368 227.416 309.048V307H228.696V308.504C228.696 309.336 228.621 310.115 228.472 310.84C228.301 311.587 227.917 312.451 227.32 313.432C226.723 314.435 225.805 315.523 224.568 316.696C223.011 318.211 221.805 319.587 220.952 320.824C220.099 322.083 219.672 323.448 219.672 324.92C219.672 326.115 219.917 327.117 220.408 327.928C220.899 328.739 221.731 329.144 222.904 329.144C223.715 329.144 224.397 328.877 224.952 328.344C225.485 327.832 225.752 327.224 225.752 326.52C225.752 325.667 225.453 325.027 224.856 324.6C224.387 324.259 224.035 323.917 223.8 323.576C223.544 323.256 223.416 322.851 223.416 322.36C223.416 321.805 223.619 321.347 224.024 320.984C224.429 320.621 224.941 320.44 225.56 320.44C226.477 320.44 227.277 320.771 227.96 321.432C228.621 322.093 228.952 322.979 228.952 324.088C228.952 325.219 228.653 326.253 228.056 327.192C227.437 328.152 226.605 328.909 225.56 329.464C224.493 330.019 223.32 330.296 222.04 330.296C219.693 330.296 217.912 329.752 216.696 328.664C215.48 327.597 214.872 326.179 214.872 324.408C214.872 323.192 215.256 322.093 216.024 321.112C216.771 320.131 217.688 319.277 218.776 318.552C219.843 317.848 221.197 317.059 222.84 316.184C223.757 315.672 224.621 315.021 225.432 314.232C226.243 313.443 226.797 312.493 227.096 311.384L226.968 311.32C226.2 311.939 225.336 312.248 224.376 312.248C223.992 312.248 223.533 312.195 223 312.088C222.445 311.981 221.987 311.864 221.624 311.736C220.557 311.395 219.587 311.224 218.712 311.224C217.944 311.224 217.304 311.448 216.792 311.896C216.28 312.365 216.024 312.909 216.024 313.528C216.024 314.147 216.077 314.861 216.184 315.672H215.192C215.064 314.755 215 313.923 215 313.176C215 312.088 215.181 311.032 215.544 310.008C215.885 309.005 216.451 308.163 217.24 307.48C218.029 306.819 219.032 306.488 220.248 306.488Z" fill="#FF0000"/>
<path d="M39 61.4541C39 58.9942 37.1178 57 34.7961 57C33.3583 57 32.0894 57.7649 31.3313 58.9314L31.251 59.0319C31.109 59.2094 30.8769 59.1962 30.7472 59.0047C30.6548 58.8678 30.5561 58.7359 30.4515 58.6092L30.4479 58.621C29.6769 57.631 28.51 57 27.2039 57C24.8822 57 23 58.9942 23 61.4541C23 62.6645 23.4559 63.7619 24.1954 64.5647L30.3252 72.6168C30.6451 73.1277 31.3531 73.1277 31.673 72.6168L37.9259 64.4276C38.5936 63.639 39 62.597 39 61.4541Z" fill="#FF0000"/>
<path d="M142 65.9083C142 60.9884 138.236 57 133.592 57C130.717 57 128.179 58.5298 126.663 60.8628L126.502 61.0638C126.218 61.4188 125.754 61.3924 125.494 61.0093C125.31 60.7357 125.112 60.4717 124.903 60.2185L124.896 60.2421C123.354 58.2621 121.02 57 118.408 57C113.764 57 110 60.9884 110 65.9083C110 68.329 110.912 70.5238 112.391 72.1294L124.65 88.2337C125.29 89.2554 126.706 89.2554 127.346 88.2337L139.852 71.8551C141.187 70.278 142 68.1939 142 65.9083Z" fill="#FF0000"/>
<path d="M215 290.546C215 293.006 216.882 295 219.204 295C220.642 295 221.911 294.235 222.669 293.069L222.749 292.968C222.891 292.791 223.123 292.804 223.253 292.995C223.345 293.132 223.444 293.264 223.548 293.391L223.552 293.379C224.323 294.369 225.49 295 226.796 295C229.118 295 231 293.006 231 290.546C231 289.335 230.544 288.238 229.805 287.435L223.675 279.383C223.355 278.872 222.647 278.872 222.327 279.383L216.074 287.572C215.406 288.361 215 289.403 215 290.546Z" fill="#FF0000"/>
<path d="M142 286.092C142 291.012 138.236 295 133.592 295C130.717 295 128.179 293.47 126.663 291.137L126.502 290.936C126.218 290.581 125.754 290.608 125.494 290.991C125.31 291.264 125.112 291.528 124.903 291.782L124.896 291.758C123.354 293.738 121.02 295 118.408 295C113.764 295 110 291.012 110 286.092C110 283.671 110.912 281.476 112.391 279.871L124.65 263.766C125.29 262.745 126.706 262.745 127.346 263.766L139.852 280.145C141.187 281.722 142 283.806 142 286.092Z" fill="#FF0000"/>
</svg>
