<svg width="252" height="352" viewBox="0 0 252 352" fill="none" xmlns="http://www.w3.org/2000/svg">
<rect x="251" y="351" width="250" height="350" rx="8" transform="rotate(180 251 351)" fill="white"/>
<rect x="251" y="351" width="250" height="350" rx="8" transform="rotate(180 251 351)" stroke="#A8A8A8" stroke-opacity="0.5"/>
<path d="M226.2 304.024H223.128C222.829 304.024 222.627 304.077 222.52 304.184C222.413 304.312 222.36 304.515 222.36 304.792V309.528H229.4V310.712L220.984 325.816H217.624V310.68H214.168V309.528H217.624V304.792C217.624 304.515 217.571 304.312 217.464 304.184C217.336 304.077 217.133 304.024 216.856 304.024H214.552V303H226.2V304.024ZM227.8 310.68H222.36V320.408L227.8 310.68Z" fill="black"/>
<path d="M25.8 47.976H28.872C29.1707 47.976 29.3733 47.9227 29.48 47.816C29.5867 47.688 29.64 47.4853 29.64 47.208V42.472H22.6V41.288L31.016 26.184H34.376V41.32H37.832V42.472H34.376V47.208C34.376 47.4853 34.4293 47.688 34.536 47.816C34.664 47.9227 34.8667 47.976 35.144 47.976H37.448V49H25.8V47.976ZM24.2 41.32H29.64V31.592L24.2 41.32Z" fill="black"/>
<path d="M214.659 285.384C214.659 283.427 216.346 282.53 217.513 282.53C218.815 282.53 219.798 283.119 220.383 283.6C220.306 282.008 219.929 280.871 218.238 279.975H223.762C222.071 280.871 221.694 282.008 221.617 283.6C222.202 283.12 223.186 282.529 224.487 282.53C225.652 282.53 227.341 283.427 227.341 285.384C227.341 288.961 224.821 287.988 221 294.025C217.179 287.988 214.659 288.961 214.659 285.384Z" fill="black"/>
<path d="M81 291.32C81 286.862 76.7421 284.82 73.7978 284.818C70.5144 284.818 68.0338 286.161 66.5569 287.257C66.7517 283.63 67.7026 281.039 71.97 279H58.03C62.2974 281.039 63.2483 283.63 63.4431 287.257C61.9662 286.161 59.4848 284.817 56.2022 284.818C53.2619 284.818 49 286.862 49 291.32C49 299.468 55.3585 297.25 64.9996 311C74.6415 297.25 81 299.467 81 291.32Z" fill="black"/>
<path d="M171 291.32C171 286.862 175.258 284.82 178.202 284.818C181.486 284.818 183.966 286.161 185.443 287.257C185.248 283.63 184.297 281.039 180.03 279H193.97C189.703 281.039 188.752 283.63 188.557 287.257C190.034 286.161 192.515 284.817 195.798 284.818C198.738 284.818 203 286.862 203 291.32C203 299.468 196.641 297.25 187 311C177.359 297.25 171 299.467 171 291.32Z" fill="black"/>
<path d="M49 60.6803C49 65.1383 53.2579 67.1804 56.2022 67.1818C59.4856 67.1818 61.9662 65.8394 63.4431 64.7432C63.2483 68.3698 62.2974 70.9607 58.03 73H71.97C67.7026 70.9607 66.7517 68.3698 66.5569 64.7432C68.0338 65.8387 70.5152 67.1832 73.7978 67.1818C76.7381 67.1818 81 65.1383 81 60.6803C81 52.5324 74.6415 54.7497 65.0004 41C55.3585 54.7497 49 52.5332 49 60.6803Z" fill="black"/>
<path d="M171 60.6803C171 65.1383 175.258 67.1804 178.202 67.1818C181.486 67.1818 183.966 65.8394 185.443 64.7432C185.248 68.3698 184.297 70.9607 180.03 73H193.97C189.703 70.9607 188.752 68.3698 188.557 64.7432C190.034 65.8387 192.515 67.1832 195.798 67.1818C198.738 67.1818 203 65.1383 203 60.6803C203 52.5324 196.641 54.7497 187 41C177.359 54.7497 171 52.5332 171 60.6803Z" fill="black"/>
<path d="M37.3411 66.6158C37.3411 68.573 35.6536 69.4695 34.4867 69.4702C33.1855 69.4702 32.2023 68.8808 31.617 68.3995C31.6942 69.9917 32.0711 71.1292 33.7623 72.0245H28.2377C29.9289 71.1292 30.3058 69.9917 30.383 68.3995C29.7977 68.8805 28.8142 69.4708 27.5133 69.4702C26.348 69.4702 24.6589 68.573 24.6589 66.6158C24.6589 63.0386 27.1789 64.012 30.9998 57.9755C34.8211 64.012 37.3411 63.0389 37.3411 66.6158Z" fill="black"/>
</svg>
