<svg width="252" height="352" viewBox="0 0 252 352" fill="none" xmlns="http://www.w3.org/2000/svg">
<rect x="251" y="351" width="250" height="350" rx="8" transform="rotate(180 251 351)" fill="white"/>
<rect x="251" y="351" width="250" height="350" rx="8" transform="rotate(180 251 351)" stroke="#A8A8A8" stroke-opacity="0.5"/>
<path d="M236.16 304.024H233.856C233.557 304.024 233.355 304.077 233.248 304.184C233.141 304.312 233.088 304.515 233.088 304.792V322.296H236.16V323.448H234.976C234.037 323.448 233.173 323.651 232.384 324.056C231.573 324.461 231.029 325.037 230.752 325.784H228.352V304.792C228.352 304.515 228.299 304.312 228.192 304.184C228.064 304.077 227.861 304.024 227.584 304.024H225.28V303H236.16V304.024ZM212.157 302.488C213.693 302.488 215.048 303.085 216.221 304.28C217.373 305.475 218.269 306.989 218.909 308.824C219.528 310.68 219.837 312.536 219.837 314.392C219.837 316.248 219.528 318.093 218.909 319.928C218.269 321.784 217.373 323.309 216.221 324.504C215.048 325.699 213.693 326.296 212.157 326.296C210.621 326.296 209.277 325.699 208.125 324.504C206.952 323.309 206.056 321.784 205.438 319.928C204.797 318.093 204.477 316.248 204.477 314.392C204.477 312.536 204.797 310.68 205.438 308.824C206.056 306.989 206.952 305.475 208.125 304.28C209.277 303.085 210.621 302.488 212.157 302.488ZM212.157 303.512C211.368 303.512 210.803 303.939 210.461 304.792C210.099 305.667 209.917 306.605 209.917 307.608V321.176C209.917 322.179 210.099 323.107 210.461 323.96C210.803 324.835 211.368 325.272 212.157 325.272C212.947 325.272 213.523 324.835 213.885 323.96C214.227 323.107 214.397 322.179 214.397 321.176V307.608C214.397 306.605 214.227 305.667 213.885 304.792C213.523 303.939 212.947 303.512 212.157 303.512Z" fill="black"/>
<path d="M15.84 47.976H18.144C18.4427 47.976 18.6453 47.9227 18.752 47.816C18.8587 47.688 18.912 47.4853 18.912 47.208V29.704H15.84V28.552H17.024C17.9627 28.552 18.8267 28.3493 19.616 27.944C20.4267 27.5387 20.9707 26.9627 21.248 26.216H23.648V47.208C23.648 47.4853 23.7013 47.688 23.808 47.816C23.936 47.9227 24.1387 47.976 24.416 47.976H26.72V49H15.84V47.976ZM39.8425 49.512C38.3065 49.512 36.9518 48.9147 35.7785 47.72C34.6265 46.5253 33.7305 45.0107 33.0905 43.176C32.4718 41.32 32.1625 39.464 32.1625 37.608C32.1625 35.752 32.4718 33.9067 33.0905 32.072C33.7305 30.216 34.6265 28.6907 35.7785 27.496C36.9518 26.3013 38.3065 25.704 39.8425 25.704C41.3785 25.704 42.7225 26.3013 43.8745 27.496C45.0478 28.6907 45.9438 30.216 46.5625 32.072C47.2025 33.9067 47.5225 35.752 47.5225 37.608C47.5225 39.464 47.2025 41.32 46.5625 43.176C45.9438 45.0107 45.0478 46.5253 43.8745 47.72C42.7225 48.9147 41.3785 49.512 39.8425 49.512ZM39.8425 48.488C40.6318 48.488 41.1972 48.0613 41.5385 47.208C41.9012 46.3333 42.0825 45.3947 42.0825 44.392V30.824C42.0825 29.8213 41.9012 28.8933 41.5385 28.04C41.1972 27.1653 40.6318 26.728 39.8425 26.728C39.0532 26.728 38.4772 27.1653 38.1145 28.04C37.7732 28.8933 37.6025 29.8213 37.6025 30.824V44.392C37.6025 45.3947 37.7732 46.3333 38.1145 47.208C38.4772 48.0613 39.0532 48.488 39.8425 48.488Z" fill="black"/>
<path d="M214.659 285.384C214.659 283.427 216.346 282.53 217.513 282.53C218.815 282.53 219.798 283.119 220.383 283.6C220.306 282.008 219.929 280.871 218.238 279.975H223.762C222.071 280.871 221.694 282.008 221.617 283.6C222.202 283.119 223.186 282.529 224.487 282.53C225.652 282.53 227.341 283.427 227.341 285.384C227.341 288.961 224.821 287.988 221 294.024C217.179 287.988 214.659 288.961 214.659 285.384Z" fill="black"/>
<path d="M81 291.32C81 286.862 76.7421 284.82 73.7978 284.818C70.5144 284.818 68.0338 286.161 66.5569 287.257C66.7517 283.63 67.7026 281.039 71.97 279H58.03C62.2974 281.039 63.2483 283.63 63.4431 287.257C61.9662 286.161 59.4848 284.817 56.2022 284.818C53.2619 284.818 49 286.862 49 291.32C49 299.468 55.3585 297.25 64.9996 311C74.6415 297.25 81 299.467 81 291.32Z" fill="black"/>
<path d="M81 291.32C81 286.862 76.7421 284.82 73.7978 284.818C70.5144 284.818 68.0338 286.161 66.5569 287.257C66.7517 283.63 67.7026 281.039 71.97 279H58.03C62.2974 281.039 63.2483 283.63 63.4431 287.257C61.9662 286.161 59.4848 284.817 56.2022 284.818C53.2619 284.818 49 286.862 49 291.32C49 299.468 55.3585 297.25 64.9996 311C74.6415 297.25 81 299.467 81 291.32Z" fill="black"/>
<path d="M81 222.32C81 217.862 76.7421 215.82 73.7978 215.818C70.5144 215.818 68.0338 217.161 66.5569 218.257C66.7517 214.63 67.7026 212.039 71.97 210H58.03C62.2974 212.039 63.2483 214.63 63.4431 218.257C61.9662 217.161 59.4848 215.817 56.2022 215.818C53.2619 215.818 49 217.862 49 222.32C49 230.468 55.3585 228.25 64.9996 242C74.6415 228.25 81 230.467 81 222.32Z" fill="black"/>
<path d="M203 222.32C203 217.862 198.742 215.82 195.798 215.818C192.514 215.818 190.034 217.161 188.557 218.257C188.752 214.63 189.703 212.039 193.97 210H180.03C184.297 212.039 185.248 214.63 185.443 218.257C183.966 217.161 181.485 215.817 178.202 215.818C175.262 215.818 171 217.862 171 222.32C171 230.468 177.359 228.25 187 242C196.641 228.25 203 230.467 203 222.32Z" fill="black"/>
<path d="M171 291.32C171 286.862 175.258 284.82 178.202 284.818C181.486 284.818 183.966 286.161 185.443 287.257C185.248 283.63 184.297 281.039 180.03 279H193.97C189.703 281.039 188.752 283.63 188.557 287.257C190.034 286.161 192.515 284.817 195.798 284.818C198.738 284.818 203 286.862 203 291.32C203 299.468 196.641 297.25 187 311C177.359 297.25 171 299.467 171 291.32Z" fill="black"/>
<path d="M49 60.6803C49 65.1383 53.2579 67.1804 56.2022 67.1818C59.4856 67.1818 61.9662 65.8394 63.4431 64.7432C63.2483 68.3698 62.2974 70.9607 58.03 73H71.97C67.7026 70.9607 66.7517 68.3698 66.5569 64.7432C68.0338 65.8387 70.5152 67.1832 73.7978 67.1818C76.7381 67.1818 81 65.1383 81 60.6803C81 52.5324 74.6415 54.7497 65.0004 41C55.3585 54.7497 49 52.5332 49 60.6803Z" fill="black"/>
<path d="M171 60.6803C171 65.1383 175.258 67.1804 178.202 67.1818C181.486 67.1818 183.966 65.8394 185.443 64.7432C185.248 68.3698 184.297 70.9607 180.03 73H193.97C189.703 70.9607 188.752 68.3698 188.557 64.7432C190.034 65.8387 192.515 67.1832 195.798 67.1818C198.738 67.1818 203 65.1383 203 60.6803C203 52.5324 196.641 54.7497 187 41C177.359 54.7497 171 52.5332 171 60.6803Z" fill="black"/>
<path d="M81 129.68C81 134.138 76.7421 136.18 73.7978 136.182C70.5144 136.182 68.0338 134.839 66.5569 133.743C66.7517 137.37 67.7026 139.961 71.97 142H58.03C62.2974 139.961 63.2483 137.37 63.4431 133.743C61.9662 134.839 59.4848 136.183 56.2022 136.182C53.2619 136.182 49 134.138 49 129.68C49 121.532 55.3585 123.75 64.9996 110C74.6415 123.75 81 121.533 81 129.68Z" fill="black"/>
<path d="M203 129.68C203 134.138 198.742 136.18 195.798 136.182C192.514 136.182 190.034 134.839 188.557 133.743C188.752 137.37 189.703 139.961 193.97 142H180.03C184.297 139.961 185.248 137.37 185.443 133.743C183.966 134.839 181.485 136.183 178.202 136.182C175.262 136.182 171 134.138 171 129.68C171 121.532 177.359 123.75 187 110C196.641 123.75 203 121.533 203 129.68Z" fill="black"/>
<path d="M142 92.6803C142 97.1383 137.742 99.1804 134.798 99.1818C131.514 99.1818 129.034 97.8394 127.557 96.7432C127.752 100.37 128.703 102.961 132.97 105H119.03C123.297 102.961 124.248 100.37 124.443 96.7432C122.966 97.8387 120.485 99.1832 117.202 99.1818C114.262 99.1818 110 97.1383 110 92.6803C110 84.5324 116.359 86.7497 126 73C135.641 86.7497 142 84.5332 142 92.6803Z" fill="black"/>
<path d="M142 259.32C142 254.862 137.742 252.82 134.798 252.818C131.514 252.818 129.034 254.161 127.557 255.257C127.752 251.63 128.703 249.039 132.97 247H119.03C123.297 249.039 124.248 251.63 124.443 255.257C122.966 254.161 120.485 252.817 117.202 252.818C114.262 252.818 110 254.862 110 259.32C110 267.468 116.359 265.25 126 279C135.641 265.25 142 267.467 142 259.32Z" fill="black"/>
<path d="M37.3411 66.6159C37.3411 68.5731 35.6536 69.4696 34.4867 69.4703C33.1855 69.4703 32.2023 68.8809 31.617 68.3996C31.6942 69.9918 32.0711 71.1293 33.7623 72.0246H28.2377C29.9289 71.1293 30.3058 69.9918 30.383 68.3996C29.7977 68.8806 28.8142 69.4709 27.5133 69.4703C26.348 69.4703 24.6589 68.5731 24.6589 66.6159C24.6589 63.0387 27.1789 64.0121 30.9998 57.9756C34.8211 64.0121 37.3411 63.039 37.3411 66.6159Z" fill="black"/>
</svg>
