<svg width="252" height="352" viewBox="0 0 252 352" fill="none" xmlns="http://www.w3.org/2000/svg">
<rect x="1" y="1" width="250" height="350" rx="8" fill="white"/>
<rect x="1" y="1" width="250" height="350" rx="8" stroke="#A8A8A8" stroke-opacity="0.5"/>
<path d="M22.408 47.976H23.496C24.136 47.976 24.7013 47.7307 25.192 47.24C25.6827 46.728 26.056 46.1093 26.312 45.384L33.064 25.64H34.408L41.256 46.344C41.6187 47.432 42.248 47.976 43.144 47.976H44.424V49H33.192V47.976H35.496C35.752 47.976 35.9547 47.88 36.104 47.688C36.2747 47.4747 36.36 47.2293 36.36 46.952C36.36 46.7173 36.296 46.408 36.168 46.024L35.144 42.952H28.424L27.752 44.904C27.5173 45.5013 27.4 46.0453 27.4 46.536C27.4 46.92 27.5493 47.2613 27.848 47.56C28.168 47.8373 28.5733 47.976 29.064 47.976H30.568V49H22.408V47.976ZM28.84 41.768H34.76L31.848 32.968L28.84 41.768Z" fill="black"/>
<path d="M229.592 304.024H228.504C227.864 304.024 227.299 304.269 226.808 304.76C226.317 305.272 225.944 305.891 225.688 306.616L218.936 326.36H217.592L210.744 305.656C210.381 304.568 209.752 304.024 208.856 304.024H207.576V303H218.808V304.024H216.504C216.248 304.024 216.045 304.12 215.896 304.312C215.725 304.525 215.64 304.771 215.64 305.048C215.64 305.283 215.704 305.592 215.832 305.976L216.856 309.048H223.576L224.248 307.096C224.483 306.499 224.6 305.955 224.6 305.464C224.6 305.08 224.451 304.739 224.152 304.44C223.832 304.163 223.427 304.024 222.936 304.024H221.432V303H229.592V304.024ZM223.16 310.232H217.24L220.152 319.032L223.16 310.232Z" fill="black"/>
<path d="M49.6822 76.2316C49.6822 80.1459 46.3072 81.9391 43.9734 81.9403C41.3709 81.9403 39.4047 80.7616 38.2341 79.7991C38.3884 82.9834 39.1422 85.2584 42.5247 87.0491H31.4753C34.8578 85.2584 35.6116 82.9834 35.7659 79.7991C34.5953 80.7609 32.6284 81.9416 30.0266 81.9403C27.6959 81.9403 24.3178 80.1459 24.3178 76.2316C24.3178 69.0772 29.3578 71.0241 36.9997 58.9509C44.6422 71.0241 49.6822 69.0778 49.6822 76.2316Z" fill="black"/>
<path d="M178.729 188.926C178.729 204.584 165.229 211.756 155.894 211.761C145.484 211.761 137.619 207.046 132.936 203.196C133.554 215.934 136.569 225.034 150.099 232.196H105.901C119.431 225.034 122.446 215.934 123.064 203.196C118.381 207.044 110.514 211.766 100.106 211.761C90.7837 211.761 77.2712 204.584 77.2712 188.926C77.2712 160.309 97.4312 168.096 127.999 119.804C158.569 168.096 178.729 160.311 178.729 188.926Z" fill="black"/>
<path d="M227.682 275.768C227.682 271.854 224.307 270.061 221.973 270.06C219.371 270.06 217.405 271.238 216.234 272.201C216.388 269.017 217.142 266.742 220.525 264.951H209.475C212.858 266.742 213.612 269.017 213.766 272.201C212.595 271.239 210.628 270.058 208.027 270.06C205.696 270.06 202.318 271.854 202.318 275.768C202.318 282.923 207.358 280.976 215 293.049C222.642 280.976 227.682 282.922 227.682 275.768Z" fill="black"/>
<line x1="60" y1="36.5" x2="215" y2="36.5" stroke="black"/>
<line x1="215.5" y1="36" x2="215.5" y2="259" stroke="black"/>
<line x1="192" y1="315.5" x2="37" y2="315.5" stroke="black"/>
<line x1="36.5" y1="316" x2="36.5" y2="93" stroke="black"/>
</svg>
