<svg width="252" height="352" viewBox="0 0 252 352" fill="none" xmlns="http://www.w3.org/2000/svg">
<rect x="251" y="351" width="250" height="350" rx="8" transform="rotate(180 251 351)" fill="white"/>
<rect x="251" y="351" width="250" height="350" rx="8" transform="rotate(180 251 351)" stroke="#A8A8A8" stroke-opacity="0.5"/>
<path d="M221.848 302.488C223.043 302.488 224.216 302.723 225.368 303.192C226.499 303.661 227.427 304.333 228.152 305.208C228.856 306.104 229.208 307.149 229.208 308.344C229.208 309.688 228.813 310.829 228.024 311.768C227.235 312.707 226.339 313.389 225.336 313.816V313.88C227.619 315.224 228.76 317.155 228.76 319.672C228.76 321.08 228.397 322.285 227.672 323.288C226.925 324.291 225.987 325.037 224.856 325.528C223.704 326.04 222.531 326.296 221.336 326.296C219.928 326.296 218.755 326.029 217.816 325.496C216.856 324.963 216.163 324.301 215.736 323.512C215.288 322.723 215.064 321.955 215.064 321.208C215.064 320.141 215.405 319.171 216.088 318.296C216.749 317.421 217.539 316.749 218.456 316.28V316.152L217.848 315.832C216.589 315.213 215.597 314.371 214.872 313.304C214.147 312.237 213.784 311.16 213.784 310.072C213.784 308.685 214.093 307.416 214.712 306.264C215.331 305.112 216.248 304.195 217.464 303.512C218.68 302.829 220.141 302.488 221.848 302.488ZM219.352 316.632C218.499 316.973 217.827 317.549 217.336 318.36C216.845 319.192 216.6 320.088 216.6 321.048C216.6 321.923 216.824 322.68 217.272 323.32C217.72 323.96 218.296 324.44 219 324.76C219.683 325.101 220.387 325.272 221.112 325.272C222.264 325.272 223.341 324.995 224.344 324.44C225.325 323.885 225.816 323.011 225.816 321.816C225.816 320.963 225.624 320.312 225.24 319.864C224.856 319.416 224.291 319.011 223.544 318.648L219.352 316.632ZM220.984 303.512C220.045 303.512 219.213 303.683 218.488 304.024C217.763 304.387 217.208 304.856 216.824 305.432C216.419 306.008 216.216 306.627 216.216 307.288C216.216 308.141 216.483 308.845 217.016 309.4C217.549 309.955 218.243 310.445 219.096 310.872L224.408 313.496C225.261 313.027 225.912 312.461 226.36 311.8C226.808 311.16 227.032 310.179 227.032 308.856C227.032 307.491 226.691 306.403 226.008 305.592C225.304 304.803 224.493 304.259 223.576 303.96C222.637 303.661 221.773 303.512 220.984 303.512Z" fill="black"/>
<path d="M30.152 49.512C28.9573 49.512 27.784 49.2773 26.632 48.808C25.5013 48.3387 24.5733 47.6667 23.848 46.792C23.144 45.896 22.792 44.8507 22.792 43.656C22.792 42.312 23.1867 41.1707 23.976 40.232C24.7653 39.2933 25.6613 38.6107 26.664 38.184V38.12C24.3813 36.776 23.24 34.8453 23.24 32.328C23.24 30.92 23.6027 29.7147 24.328 28.712C25.0747 27.7093 26.0133 26.9627 27.144 26.472C28.296 25.96 29.4693 25.704 30.664 25.704C32.072 25.704 33.2453 25.9707 34.184 26.504C35.144 27.0373 35.8373 27.6987 36.264 28.488C36.712 29.2773 36.936 30.0453 36.936 30.792C36.936 31.8587 36.5947 32.8293 35.912 33.704C35.2507 34.5787 34.4613 35.2507 33.544 35.72V35.848L34.152 36.168C35.4107 36.7867 36.4027 37.6293 37.128 38.696C37.8533 39.7627 38.216 40.84 38.216 41.928C38.216 43.3147 37.9067 44.584 37.288 45.736C36.6693 46.888 35.752 47.8053 34.536 48.488C33.32 49.1707 31.8587 49.512 30.152 49.512ZM32.648 35.368C33.5013 35.0267 34.1733 34.4507 34.664 33.64C35.1547 32.808 35.4 31.912 35.4 30.952C35.4 30.0773 35.176 29.32 34.728 28.68C34.28 28.04 33.704 27.56 33 27.24C32.3173 26.8987 31.6133 26.728 30.888 26.728C29.736 26.728 28.6587 27.0053 27.656 27.56C26.6747 28.1147 26.184 28.9893 26.184 30.184C26.184 31.0373 26.376 31.688 26.76 32.136C27.144 32.584 27.7093 32.9893 28.456 33.352L32.648 35.368ZM31.016 48.488C31.9547 48.488 32.7867 48.3173 33.512 47.976C34.2373 47.6133 34.792 47.144 35.176 46.568C35.5813 45.992 35.784 45.3733 35.784 44.712C35.784 43.8587 35.5173 43.1547 34.984 42.6C34.4507 42.0453 33.7573 41.5547 32.904 41.128L27.592 38.504C26.7387 38.9733 26.088 39.5387 25.64 40.2C25.192 40.84 24.968 41.8213 24.968 43.144C24.968 44.5093 25.3093 45.5973 25.992 46.408C26.696 47.1973 27.5067 47.7413 28.424 48.04C29.3627 48.3387 30.2267 48.488 31.016 48.488Z" fill="black"/>
<path d="M214.659 285.384C214.659 283.427 216.346 282.53 217.513 282.53C218.815 282.53 219.798 283.119 220.383 283.6C220.306 282.008 219.929 280.871 218.238 279.975H223.762C222.071 280.871 221.694 282.008 221.617 283.6C222.202 283.119 223.186 282.529 224.487 282.53C225.652 282.53 227.341 283.427 227.341 285.384C227.341 288.961 224.821 287.988 221 294.024C217.179 287.988 214.659 288.961 214.659 285.384Z" fill="black"/>
<path d="M81 291.32C81 286.862 76.7421 284.82 73.7978 284.818C70.5144 284.818 68.0338 286.161 66.5569 287.257C66.7517 283.63 67.7026 281.039 71.97 279H58.03C62.2974 281.039 63.2483 283.63 63.4431 287.257C61.9662 286.161 59.4848 284.817 56.2022 284.818C53.2619 284.818 49 286.862 49 291.32C49 299.468 55.3585 297.25 64.9996 311C74.6415 297.25 81 299.467 81 291.32Z" fill="black"/>
<path d="M171 291.32C171 286.862 175.258 284.82 178.202 284.818C181.486 284.818 183.966 286.161 185.443 287.257C185.248 283.63 184.297 281.039 180.03 279H193.97C189.703 281.039 188.752 283.63 188.557 287.257C190.034 286.161 192.515 284.817 195.798 284.818C198.738 284.818 203 286.862 203 291.32C203 299.468 196.641 297.25 187 311C177.359 297.25 171 299.467 171 291.32Z" fill="black"/>
<path d="M49 60.6803C49 65.1383 53.2579 67.1804 56.2022 67.1818C59.4856 67.1818 61.9662 65.8394 63.4431 64.7432C63.2483 68.3698 62.2974 70.9607 58.03 73H71.97C67.7026 70.9607 66.7517 68.3698 66.5569 64.7432C68.0338 65.8387 70.5152 67.1832 73.7978 67.1818C76.7381 67.1818 81 65.1383 81 60.6803C81 52.5324 74.6415 54.7497 65.0004 41C55.3585 54.7497 49 52.5332 49 60.6803Z" fill="black"/>
<path d="M171 60.6803C171 65.1383 175.258 67.1804 178.202 67.1818C181.486 67.1818 183.966 65.8394 185.443 64.7432C185.248 68.3698 184.297 70.9607 180.03 73H193.97C189.703 70.9607 188.752 68.3698 188.557 64.7432C190.034 65.8387 192.515 67.1832 195.798 67.1818C198.738 67.1818 203 65.1383 203 60.6803C203 52.5324 196.641 54.7497 187 41C177.359 54.7497 171 52.5332 171 60.6803Z" fill="black"/>
<path d="M81 179.68C81 184.138 76.7421 186.18 73.7978 186.182C70.5144 186.182 68.0338 184.839 66.5569 183.743C66.7517 187.37 67.7026 189.961 71.97 192H58.03C62.2974 189.961 63.2483 187.37 63.4431 183.743C61.9662 184.839 59.4848 186.183 56.2022 186.182C53.2619 186.182 49 184.138 49 179.68C49 171.532 55.3585 173.75 64.9996 160C74.6415 173.75 81 171.533 81 179.68Z" fill="black"/>
<path d="M203 179.68C203 184.138 198.742 186.18 195.798 186.182C192.514 186.182 190.034 184.839 188.557 183.743C188.752 187.37 189.703 189.961 193.97 192H180.03C184.297 189.961 185.248 187.37 185.443 183.743C183.966 184.839 181.485 186.183 178.202 186.182C175.262 186.182 171 184.138 171 179.68C171 171.532 177.359 173.75 187 160C196.641 173.75 203 171.533 203 179.68Z" fill="black"/>
<path d="M142 120.68C142 125.138 137.742 127.18 134.798 127.182C131.514 127.182 129.034 125.839 127.557 124.743C127.752 128.37 128.703 130.961 132.97 133H119.03C123.297 130.961 124.248 128.37 124.443 124.743C122.966 125.839 120.485 127.183 117.202 127.182C114.262 127.182 110 125.138 110 120.68C110 112.532 116.359 114.75 126 101C135.641 114.75 142 112.533 142 120.68Z" fill="black"/>
<path d="M142 231.32C142 226.862 137.742 224.82 134.798 224.818C131.514 224.818 129.034 226.161 127.557 227.257C127.752 223.63 128.703 221.039 132.97 219H119.03C123.297 221.039 124.248 223.63 124.443 227.257C122.966 226.161 120.485 224.817 117.202 224.818C114.262 224.818 110 226.862 110 231.32C110 239.468 116.359 237.25 126 251C135.641 237.25 142 239.467 142 231.32Z" fill="black"/>
<path d="M37.3411 66.6159C37.3411 68.5731 35.6536 69.4696 34.4867 69.4703C33.1855 69.4703 32.2023 68.8809 31.617 68.3996C31.6942 69.9918 32.0711 71.1293 33.7623 72.0246H28.2377C29.9289 71.1293 30.3058 69.9918 30.383 68.3996C29.7977 68.8806 28.8142 69.4709 27.5133 69.4703C26.348 69.4703 24.6589 68.5731 24.6589 66.6159C24.6589 63.0387 27.1789 64.0121 30.9998 57.9756C34.8211 64.0121 37.3411 63.039 37.3411 66.6159Z" fill="black"/>
</svg>
