<svg width="252" height="352" viewBox="0 0 252 352" fill="none" xmlns="http://www.w3.org/2000/svg">
<rect x="251" y="351" width="250" height="350" rx="8" transform="rotate(180 251 351)" fill="white"/>
<rect x="251" y="351" width="250" height="350" rx="8" transform="rotate(180 251 351)" stroke="#A8A8A8" stroke-opacity="0.5"/>
<path d="M222.456 302.488C223.651 302.488 224.717 302.701 225.656 303.128C226.573 303.576 227.288 304.173 227.8 304.92C228.312 305.688 228.568 306.52 228.568 307.416C228.568 308.077 228.419 308.664 228.12 309.176C227.8 309.709 227.405 310.115 226.936 310.392C226.445 310.691 225.955 310.84 225.464 310.84C224.781 310.84 224.259 310.627 223.896 310.2C223.533 309.795 223.352 309.315 223.352 308.76C223.352 307.907 223.811 307.245 224.728 306.776C225.368 306.541 225.688 306.093 225.688 305.432C225.688 304.941 225.421 304.493 224.888 304.088C224.333 303.704 223.555 303.512 222.552 303.512C221.336 303.512 220.547 304.099 220.184 305.272C219.8 306.445 219.608 308.045 219.608 310.072C219.608 311.608 219.693 312.824 219.864 313.72C220.035 314.637 220.344 315.32 220.792 315.768C221.24 316.216 221.88 316.44 222.712 316.44C223.117 316.44 223.597 316.291 224.152 315.992C224.707 315.715 225.219 315.32 225.688 314.808C226.136 314.317 226.435 313.773 226.584 313.176H227.416V325.496L226.776 325.912C225.453 325.101 223.981 324.696 222.36 324.696C221.528 324.696 220.611 324.835 219.608 325.112C218.584 325.411 217.688 325.805 216.92 326.296L216.344 325.72C217.475 324.035 218.904 322.787 220.632 321.976C222.339 321.187 224.173 320.792 226.136 320.792V315.8L225.944 315.736C225.368 316.333 224.749 316.771 224.088 317.048C223.427 317.325 222.68 317.464 221.848 317.464C220.376 317.464 219.085 317.165 217.976 316.568C216.867 315.971 216.013 315.117 215.416 314.008C214.797 312.899 214.488 311.619 214.488 310.168C214.488 308.611 214.851 307.245 215.576 306.072C216.301 304.92 217.272 304.035 218.488 303.416C219.704 302.797 221.027 302.488 222.456 302.488Z" fill="black"/>
<path d="M29.544 49.512C28.3493 49.512 27.2827 49.2987 26.344 48.872C25.4267 48.424 24.712 47.8267 24.2 47.08C23.688 46.312 23.432 45.48 23.432 44.584C23.432 43.9227 23.5813 43.336 23.88 42.824C24.2 42.2907 24.5947 41.8853 25.064 41.608C25.5547 41.3093 26.0453 41.16 26.536 41.16C27.2187 41.16 27.7413 41.3733 28.104 41.8C28.4667 42.2053 28.648 42.6853 28.648 43.24C28.648 44.0933 28.1893 44.7547 27.272 45.224C26.632 45.4587 26.312 45.9067 26.312 46.568C26.312 47.0587 26.5787 47.5067 27.112 47.912C27.6667 48.296 28.4453 48.488 29.448 48.488C30.664 48.488 31.4533 47.9013 31.816 46.728C32.2 45.5547 32.392 43.9547 32.392 41.928C32.392 40.392 32.3067 39.176 32.136 38.28C31.9653 37.3627 31.656 36.68 31.208 36.232C30.76 35.784 30.12 35.56 29.288 35.56C28.8827 35.56 28.4027 35.7093 27.848 36.008C27.2933 36.2853 26.7813 36.68 26.312 37.192C25.864 37.6827 25.5653 38.2267 25.416 38.824H24.584V26.504L25.224 26.088C26.5467 26.8987 28.0187 27.304 29.64 27.304C30.472 27.304 31.3893 27.1653 32.392 26.888C33.416 26.5893 34.312 26.1947 35.08 25.704L35.656 26.28C34.5253 27.9653 33.096 29.2133 31.368 30.024C29.6613 30.8133 27.8267 31.208 25.864 31.208V36.2L26.056 36.264C26.632 35.6667 27.2507 35.2293 27.912 34.952C28.5733 34.6747 29.32 34.536 30.152 34.536C31.624 34.536 32.9147 34.8347 34.024 35.432C35.1333 36.0293 35.9867 36.8827 36.584 37.992C37.2027 39.1013 37.512 40.3813 37.512 41.832C37.512 43.3893 37.1493 44.7547 36.424 45.928C35.6987 47.08 34.728 47.9653 33.512 48.584C32.296 49.2027 30.9733 49.512 29.544 49.512Z" fill="black"/>
<path d="M214.659 285.384C214.659 283.427 216.346 282.53 217.513 282.53C218.815 282.53 219.798 283.119 220.383 283.6C220.306 282.008 219.929 280.871 218.238 279.975H223.762C222.071 280.871 221.694 282.008 221.617 283.6C222.202 283.12 223.186 282.529 224.487 282.53C225.652 282.53 227.341 283.427 227.341 285.384C227.341 288.961 224.821 287.988 221 294.025C217.179 287.988 214.659 288.961 214.659 285.384Z" fill="black"/>
<path d="M81 291.32C81 286.862 76.7421 284.82 73.7978 284.818C70.5144 284.818 68.0338 286.161 66.5569 287.257C66.7517 283.63 67.7026 281.039 71.97 279H58.03C62.2974 281.039 63.2483 283.63 63.4431 287.257C61.9662 286.161 59.4848 284.817 56.2022 284.818C53.2619 284.818 49 286.862 49 291.32C49 299.468 55.3585 297.25 64.9996 311C74.6415 297.25 81 299.467 81 291.32Z" fill="black"/>
<path d="M171 291.32C171 286.862 175.258 284.82 178.202 284.818C181.486 284.818 183.966 286.161 185.443 287.257C185.248 283.63 184.297 281.039 180.03 279H193.97C189.703 281.039 188.752 283.63 188.557 287.257C190.034 286.161 192.515 284.817 195.798 284.818C198.738 284.818 203 286.862 203 291.32C203 299.468 196.641 297.25 187 311C177.359 297.25 171 299.467 171 291.32Z" fill="black"/>
<path d="M49 60.6803C49 65.1383 53.2579 67.1804 56.2022 67.1818C59.4856 67.1818 61.9662 65.8394 63.4431 64.7432C63.2483 68.3698 62.2974 70.9607 58.03 73H71.97C67.7026 70.9607 66.7517 68.3698 66.5569 64.7432C68.0338 65.8387 70.5152 67.1832 73.7978 67.1818C76.7381 67.1818 81 65.1383 81 60.6803C81 52.5324 74.6415 54.7497 65.0004 41C55.3585 54.7497 49 52.5332 49 60.6803Z" fill="black"/>
<path d="M171 60.6803C171 65.1383 175.258 67.1804 178.202 67.1818C181.486 67.1818 183.966 65.8394 185.443 64.7432C185.248 68.3698 184.297 70.9607 180.03 73H193.97C189.703 70.9607 188.752 68.3698 188.557 64.7432C190.034 65.8387 192.515 67.1832 195.798 67.1818C198.738 67.1818 203 65.1383 203 60.6803C203 52.5324 196.641 54.7497 187 41C177.359 54.7497 171 52.5332 171 60.6803Z" fill="black"/>
<path d="M142 179.68C142 184.138 137.742 186.18 134.798 186.182C131.514 186.182 129.034 184.839 127.557 183.743C127.752 187.37 128.703 189.961 132.97 192H119.03C123.297 189.961 124.248 187.37 124.443 183.743C122.966 184.839 120.485 186.183 117.202 186.182C114.262 186.182 110 184.138 110 179.68C110 171.532 116.359 173.75 126 160C135.641 173.75 142 171.533 142 179.68Z" fill="black"/>
<path d="M37.3411 66.6158C37.3411 68.573 35.6536 69.4695 34.4867 69.4702C33.1855 69.4702 32.2023 68.8808 31.617 68.3995C31.6942 69.9917 32.0711 71.1292 33.7623 72.0245H28.2377C29.9289 71.1292 30.3058 69.9917 30.383 68.3995C29.7977 68.8805 28.8142 69.4708 27.5133 69.4702C26.348 69.4702 24.6589 68.573 24.6589 66.6158C24.6589 63.0386 27.1789 64.012 30.9998 57.9755C34.8211 64.012 37.3411 63.0389 37.3411 66.6158Z" fill="black"/>
</svg>
