<svg width="252" height="352" viewBox="0 0 252 352" fill="none" xmlns="http://www.w3.org/2000/svg">
<rect x="1" y="1" width="250" height="350" rx="8" fill="white"/>
<rect x="1" y="1" width="250" height="350" rx="8" stroke="#A8A8A8" stroke-opacity="0.5"/>
<path d="M38.024 52.616C37.4053 52.616 36.808 52.4453 36.232 52.104C35.656 51.784 35.1867 51.3147 34.824 50.696C34.4613 50.0773 34.28 49.352 34.28 48.52C34.28 47.1973 34.3227 46.1413 34.408 45.352C33.896 45.5013 33.3413 45.576 32.744 45.576C31.0587 45.576 29.48 45.0107 28.008 43.88C26.5573 42.728 25.3947 41.2347 24.52 39.4C23.6667 37.544 23.24 35.6133 23.24 33.608C23.24 31.5813 23.6773 29.6507 24.552 27.816C25.4267 25.96 26.5893 24.4667 28.04 23.336C29.512 22.2053 31.0693 21.64 32.712 21.64C34.3547 21.64 35.9013 22.2053 37.352 23.336C38.824 24.4667 39.9973 25.96 40.872 27.816C41.7467 29.6507 42.184 31.5813 42.184 33.608C42.184 35.144 41.9173 36.648 41.384 38.12C40.872 39.592 40.1467 40.904 39.208 42.056C38.2907 43.208 37.2453 44.0933 36.072 44.712C36.1573 45.928 36.4133 46.8667 36.84 47.528C37.288 48.1893 37.928 48.52 38.76 48.52C39.6133 48.52 40.2427 48.1573 40.648 47.432C41.0747 46.728 41.288 45.832 41.288 44.744C41.288 44.296 41.256 43.784 41.192 43.208H42.152C42.2587 43.8907 42.312 44.712 42.312 45.672C42.312 46.5467 42.2587 47.3573 42.152 48.104C42.0667 48.872 41.864 49.5867 41.544 50.248C41.2027 50.9733 40.7227 51.5493 40.104 51.976C39.4853 52.4027 38.792 52.616 38.024 52.616ZM29.864 43.208C29.8 42.952 29.768 42.696 29.768 42.44C29.768 41.7147 30.0133 41.0747 30.504 40.52C31.016 39.9653 31.7093 39.688 32.584 39.688C33.48 39.688 34.216 39.976 34.792 40.552C35.368 41.128 35.72 41.8533 35.848 42.728H35.944C36.4773 41.6613 36.744 40.2213 36.744 38.408V28.808C36.744 26.6107 36.392 25.0427 35.688 24.104C35.0053 23.144 34.0133 22.664 32.712 22.664C31.4107 22.664 30.408 23.144 29.704 24.104C29.0213 25.0427 28.68 26.6107 28.68 28.808V38.408C28.68 40.6267 29.0533 42.2373 29.8 43.24L29.864 43.208ZM32.712 44.552C33.3093 44.552 33.896 44.4347 34.472 44.2C34.472 43.1333 34.3227 42.2907 34.024 41.672C33.7467 41.0533 33.1493 40.744 32.232 40.744C31.784 40.744 31.4107 40.936 31.112 41.32C30.8133 41.704 30.664 42.1307 30.664 42.6C30.664 43.56 30.984 44.168 31.624 44.424C31.7947 44.5093 32.1573 44.552 32.712 44.552Z" fill="black"/>
<path d="M49.6822 76.2318C49.6822 80.1462 46.3072 81.9393 43.9734 81.9405C41.3709 81.9405 39.4047 80.7618 38.2341 79.7993C38.3884 82.9837 39.1422 85.2587 42.5247 87.0493H31.4753C34.8578 85.2587 35.6116 82.9837 35.7659 79.7993C34.5953 80.7612 32.6284 81.9418 30.0266 81.9405C27.6959 81.9405 24.3178 80.1462 24.3178 76.2318C24.3178 69.0774 29.3578 71.0243 36.9997 58.9512C44.6422 71.0243 49.6822 69.078 49.6822 76.2318Z" fill="black"/>
<path d="M227.682 275.768C227.682 271.854 224.307 270.061 221.973 270.059C219.371 270.059 217.405 271.238 216.234 272.201C216.388 269.016 217.142 266.741 220.525 264.951H209.475C212.858 266.741 213.612 269.016 213.766 272.201C212.595 271.239 210.628 270.058 208.027 270.059C205.696 270.059 202.318 271.854 202.318 275.768C202.318 282.923 207.358 280.976 215 293.049C222.642 280.976 227.682 282.922 227.682 275.768Z" fill="black"/>
<line x1="60" y1="36.5" x2="215" y2="36.5" stroke="black"/>
<line x1="215.5" y1="36" x2="215.5" y2="259" stroke="black"/>
<line x1="192" y1="315.5" x2="37" y2="315.5" stroke="black"/>
<line x1="36.5" y1="316" x2="36.5" y2="93" stroke="black"/>
<path d="M208.976 299.384C209.595 299.384 210.192 299.555 210.768 299.896C211.344 300.216 211.813 300.685 212.176 301.304C212.539 301.923 212.72 302.648 212.72 303.48C212.72 304.803 212.677 305.859 212.592 306.648C213.104 306.499 213.659 306.424 214.256 306.424C215.941 306.424 217.52 306.989 218.992 308.12C220.443 309.272 221.605 310.765 222.48 312.6C223.333 314.456 223.76 316.387 223.76 318.392C223.76 320.419 223.323 322.349 222.448 324.184C221.573 326.04 220.411 327.533 218.96 328.664C217.488 329.795 215.931 330.36 214.288 330.36C212.645 330.36 211.099 329.795 209.648 328.664C208.176 327.533 207.003 326.04 206.128 324.184C205.253 322.349 204.816 320.419 204.816 318.392C204.816 316.856 205.083 315.352 205.616 313.88C206.128 312.408 206.853 311.096 207.792 309.944C208.709 308.792 209.755 307.907 210.928 307.288C210.843 306.072 210.587 305.133 210.16 304.472C209.712 303.811 209.072 303.48 208.24 303.48C207.387 303.48 206.757 303.843 206.352 304.568C205.925 305.272 205.712 306.168 205.712 307.256C205.712 307.704 205.744 308.216 205.808 308.792H204.848C204.741 308.109 204.688 307.288 204.688 306.328C204.688 305.453 204.741 304.643 204.848 303.896C204.933 303.128 205.136 302.413 205.456 301.752C205.797 301.027 206.277 300.451 206.896 300.024C207.515 299.597 208.208 299.384 208.976 299.384ZM217.136 308.792C217.2 309.048 217.232 309.304 217.232 309.56C217.232 310.285 216.987 310.925 216.496 311.48C215.984 312.035 215.291 312.312 214.416 312.312C213.52 312.312 212.784 312.024 212.208 311.448C211.632 310.872 211.28 310.147 211.152 309.272H211.056C210.523 310.339 210.256 311.779 210.256 313.592V323.192C210.256 325.389 210.608 326.957 211.312 327.896C211.995 328.856 212.987 329.336 214.288 329.336C215.589 329.336 216.592 328.856 217.296 327.896C217.979 326.957 218.32 325.389 218.32 323.192V313.592C218.32 311.373 217.947 309.763 217.2 308.76L217.136 308.792ZM214.288 307.448C213.691 307.448 213.104 307.565 212.528 307.8C212.528 308.867 212.677 309.709 212.976 310.328C213.253 310.947 213.851 311.256 214.768 311.256C215.216 311.256 215.589 311.064 215.888 310.68C216.187 310.296 216.336 309.869 216.336 309.4C216.336 308.44 216.016 307.832 215.376 307.576C215.205 307.491 214.843 307.448 214.288 307.448Z" fill="black"/>
<path d="M148.096 257.464C145.621 257.464 143.232 256.781 140.928 255.416C138.624 254.136 136.747 252.259 135.296 249.784C133.845 247.309 133.12 244.408 133.12 241.08C133.12 235.789 133.291 231.565 133.632 228.408C131.584 229.005 129.365 229.304 126.976 229.304C120.235 229.304 113.92 227.043 108.032 222.52C102.229 217.912 97.5787 211.939 94.08 204.6C90.6667 197.176 88.96 189.453 88.96 181.432C88.96 173.325 90.7093 165.603 94.208 158.264C97.7067 150.84 102.357 144.867 108.16 140.344C114.048 135.821 120.277 133.56 126.848 133.56C133.419 133.56 139.605 135.821 145.408 140.344C151.296 144.867 155.989 150.84 159.488 158.264C162.987 165.603 164.736 173.325 164.736 181.432C164.736 187.576 163.669 193.592 161.536 199.48C159.488 205.368 156.587 210.616 152.832 215.224C149.163 219.832 144.981 223.373 140.288 225.848C140.629 230.712 141.653 234.467 143.36 237.112C145.152 239.757 147.712 241.08 151.04 241.08C154.453 241.08 156.971 239.629 158.592 236.728C160.299 233.912 161.152 230.328 161.152 225.976C161.152 224.184 161.024 222.136 160.768 219.832H164.608C165.035 222.563 165.248 225.848 165.248 229.688C165.248 233.187 165.035 236.429 164.608 239.416C164.267 242.488 163.456 245.347 162.176 247.992C160.811 250.893 158.891 253.197 156.416 254.904C153.941 256.611 151.168 257.464 148.096 257.464ZM115.456 219.832C115.2 218.808 115.072 217.784 115.072 216.76C115.072 213.859 116.053 211.299 118.016 209.08C120.064 206.861 122.837 205.752 126.336 205.752C129.92 205.752 132.864 206.904 135.168 209.208C137.472 211.512 138.88 214.413 139.392 217.912H139.776C141.909 213.645 142.976 207.885 142.976 200.632V162.232C142.976 153.443 141.568 147.171 138.752 143.416C136.021 139.576 132.053 137.656 126.848 137.656C121.643 137.656 117.632 139.576 114.816 143.416C112.085 147.171 110.72 153.443 110.72 162.232V200.632C110.72 209.507 112.213 215.949 115.2 219.96L115.456 219.832ZM126.848 225.208C129.237 225.208 131.584 224.739 133.888 223.8C133.888 219.533 133.291 216.163 132.096 213.688C130.987 211.213 128.597 209.976 124.928 209.976C123.136 209.976 121.643 210.744 120.448 212.28C119.253 213.816 118.656 215.523 118.656 217.4C118.656 221.24 119.936 223.672 122.496 224.696C123.179 225.037 124.629 225.208 126.848 225.208Z" fill="black"/>
<path d="M146.663 91.7144C144.82 91.7144 143.323 93.2086 143.323 95.0513C143.323 96.2247 143.93 97.2574 144.845 97.8521C143.976 100.832 142.23 105.168 140.648 106.067C137.644 107.773 134.921 105.194 136.239 98.126C137.909 97.943 139.21 96.5264 139.21 94.8081C139.21 92.9639 137.716 91.4698 135.872 91.4698C134.027 91.4698 132.533 92.964 132.533 94.8081C132.533 95.9464 133.105 96.9498 133.975 97.5532C133.084 101.497 131.772 103.071 130.172 102.853C127.755 102.523 127.312 98.164 127.274 92.0776C128.487 91.5781 129.338 90.3842 129.338 88.9926C129.338 87.1484 127.844 85.6543 126 85.6543C124.157 85.6543 122.663 87.1485 122.663 88.9926C122.663 90.3843 123.516 91.5781 124.726 92.0776C124.687 98.1641 124.247 102.523 121.828 102.853C120.228 103.071 118.916 101.497 118.027 97.5533C118.898 96.9498 119.467 95.9464 119.467 94.8082C119.467 92.964 117.973 91.4699 116.13 91.4699C114.284 91.4699 112.79 92.9641 112.79 94.8082C112.79 96.5265 114.091 97.943 115.761 98.1261C117.079 105.194 114.357 107.774 111.354 106.067C109.77 105.168 108.025 100.832 107.156 97.8521C108.072 97.2574 108.677 96.2247 108.677 95.0513C108.677 93.2086 107.183 91.7144 105.337 91.7144C103.496 91.7144 102 93.2086 102 95.0513C102 96.7959 103.339 98.2256 105.044 98.3765L107.457 114.846H144.545L146.956 98.3765C148.663 98.2256 150 96.7959 150 95.0513C150 93.2086 148.506 91.7144 146.663 91.7144Z" fill="black"/>
<path d="M108.555 122.346H126H143.446L144.105 117.846H107.896L108.555 122.346Z" fill="black"/>
</svg>
