<svg width="252" height="352" viewBox="0 0 252 352" fill="none" xmlns="http://www.w3.org/2000/svg">
<rect x="251" y="351" width="250" height="350" rx="8" transform="rotate(180 251 351)" fill="white"/>
<rect x="251" y="351" width="250" height="350" rx="8" transform="rotate(180 251 351)" stroke="#A8A8A8" stroke-opacity="0.5"/>
<path d="M220.952 302.488C222.531 302.488 223.907 303 225.08 304.024C226.232 305.048 227.128 306.424 227.768 308.152C228.387 309.88 228.696 311.779 228.696 313.848C228.696 316.301 228.355 318.467 227.672 320.344C226.968 322.221 225.965 323.683 224.664 324.728C223.363 325.773 221.827 326.296 220.056 326.296C219.053 326.296 218.189 326.083 217.464 325.656C216.739 325.251 216.195 324.717 215.832 324.056C215.448 323.395 215.256 322.691 215.256 321.944C215.256 321.027 215.523 320.248 216.056 319.608C216.589 318.968 217.283 318.648 218.136 318.648C218.776 318.648 219.299 318.84 219.704 319.224C220.088 319.629 220.28 320.152 220.28 320.792C220.28 321.773 219.8 322.435 218.84 322.776C218.413 322.925 218.093 323.075 217.88 323.224C217.667 323.373 217.56 323.565 217.56 323.8C217.56 324.227 217.784 324.579 218.232 324.856C218.68 325.133 219.299 325.272 220.088 325.272C221.283 325.272 222.168 324.76 222.744 323.736C223.299 322.712 223.576 321.485 223.576 320.056V315.48L223.384 315.384C223.043 315.725 222.595 315.981 222.04 316.152C221.485 316.344 220.899 316.44 220.28 316.44C218.147 316.44 216.557 315.811 215.512 314.552C214.445 313.293 213.912 311.683 213.912 309.72C213.912 308.504 214.168 307.341 214.68 306.232C215.171 305.144 215.949 304.248 217.016 303.544C218.061 302.84 219.373 302.488 220.952 302.488ZM220.984 303.512C220.259 303.512 219.736 303.757 219.416 304.248C219.075 304.76 218.861 305.4 218.776 306.168C218.691 306.957 218.648 308.035 218.648 309.4C218.648 311.128 218.797 312.525 219.096 313.592C219.373 314.68 219.907 315.224 220.696 315.224C221.848 315.224 222.637 314.776 223.064 313.88C223.277 313.475 223.416 312.909 223.48 312.184C223.544 311.459 223.576 310.477 223.576 309.24C223.576 307.299 223.373 305.859 222.968 304.92C222.563 303.981 221.901 303.512 220.984 303.512Z" fill="black"/>
<path d="M31.048 49.512C29.4693 49.512 28.0933 49 26.92 47.976C25.768 46.952 24.872 45.576 24.232 43.848C23.6133 42.12 23.304 40.2213 23.304 38.152C23.304 35.6987 23.6453 33.5333 24.328 31.656C25.032 29.7787 26.0347 28.3173 27.336 27.272C28.6373 26.2267 30.1733 25.704 31.944 25.704C32.9467 25.704 33.8107 25.9173 34.536 26.344C35.2613 26.7493 35.8053 27.2827 36.168 27.944C36.552 28.6053 36.744 29.3093 36.744 30.056C36.744 30.9733 36.4773 31.752 35.944 32.392C35.4107 33.032 34.7173 33.352 33.864 33.352C33.224 33.352 32.7013 33.16 32.296 32.776C31.912 32.3707 31.72 31.848 31.72 31.208C31.72 30.2267 32.2 29.5653 33.16 29.224C33.5867 29.0747 33.9067 28.9253 34.12 28.776C34.3333 28.6267 34.44 28.4347 34.44 28.2C34.44 27.7733 34.216 27.4213 33.768 27.144C33.32 26.8667 32.7013 26.728 31.912 26.728C30.7173 26.728 29.832 27.24 29.256 28.264C28.7013 29.288 28.424 30.5147 28.424 31.944V36.52L28.616 36.616C28.9573 36.2747 29.4053 36.0187 29.96 35.848C30.5147 35.656 31.1013 35.56 31.72 35.56C33.8533 35.56 35.4427 36.1893 36.488 37.448C37.5547 38.7067 38.088 40.3173 38.088 42.28C38.088 43.496 37.832 44.6587 37.32 45.768C36.8293 46.856 36.0507 47.752 34.984 48.456C33.9387 49.16 32.6267 49.512 31.048 49.512ZM31.016 48.488C31.7413 48.488 32.264 48.2427 32.584 47.752C32.9253 47.24 33.1387 46.6 33.224 45.832C33.3093 45.0427 33.352 43.9653 33.352 42.6C33.352 40.872 33.2027 39.4747 32.904 38.408C32.6267 37.32 32.0933 36.776 31.304 36.776C30.152 36.776 29.3627 37.224 28.936 38.12C28.7227 38.5253 28.584 39.0907 28.52 39.816C28.456 40.5413 28.424 41.5227 28.424 42.76C28.424 44.7013 28.6267 46.1413 29.032 47.08C29.4373 48.0187 30.0987 48.488 31.016 48.488Z" fill="black"/>
<path d="M214.659 285.384C214.659 283.427 216.346 282.53 217.513 282.53C218.815 282.53 219.798 283.119 220.383 283.6C220.306 282.008 219.929 280.871 218.238 279.975H223.762C222.071 280.871 221.694 282.008 221.617 283.6C222.202 283.119 223.186 282.529 224.487 282.53C225.652 282.53 227.341 283.427 227.341 285.384C227.341 288.961 224.821 287.988 221 294.024C217.179 287.988 214.659 288.961 214.659 285.384Z" fill="black"/>
<path d="M81 291.32C81 286.862 76.7421 284.82 73.7978 284.818C70.5144 284.818 68.0338 286.161 66.5569 287.257C66.7517 283.63 67.7026 281.039 71.97 279H58.03C62.2974 281.039 63.2483 283.63 63.4431 287.257C61.9662 286.161 59.4848 284.817 56.2022 284.818C53.2619 284.818 49 286.862 49 291.32C49 299.468 55.3585 297.25 64.9996 311C74.6415 297.25 81 299.467 81 291.32Z" fill="black"/>
<path d="M171 291.32C171 286.862 175.258 284.82 178.202 284.818C181.486 284.818 183.966 286.161 185.443 287.257C185.248 283.63 184.297 281.039 180.03 279H193.97C189.703 281.039 188.752 283.63 188.557 287.257C190.034 286.161 192.515 284.817 195.798 284.818C198.738 284.818 203 286.862 203 291.32C203 299.468 196.641 297.25 187 311C177.359 297.25 171 299.467 171 291.32Z" fill="black"/>
<path d="M49 60.6803C49 65.1383 53.2579 67.1804 56.2022 67.1818C59.4856 67.1818 61.9662 65.8394 63.4431 64.7432C63.2483 68.3698 62.2974 70.9607 58.03 73H71.97C67.7026 70.9607 66.7517 68.3698 66.5569 64.7432C68.0338 65.8387 70.5152 67.1832 73.7978 67.1818C76.7381 67.1818 81 65.1383 81 60.6803C81 52.5324 74.6415 54.7497 65.0004 41C55.3585 54.7497 49 52.5332 49 60.6803Z" fill="black"/>
<path d="M171 60.6803C171 65.1383 175.258 67.1804 178.202 67.1818C181.486 67.1818 183.966 65.8394 185.443 64.7432C185.248 68.3698 184.297 70.9607 180.03 73H193.97C189.703 70.9607 188.752 68.3698 188.557 64.7432C190.034 65.8387 192.515 67.1832 195.798 67.1818C198.738 67.1818 203 65.1383 203 60.6803C203 52.5324 196.641 54.7497 187 41C177.359 54.7497 171 52.5332 171 60.6803Z" fill="black"/>
<path d="M81 179.68C81 184.138 76.7421 186.18 73.7978 186.182C70.5144 186.182 68.0338 184.839 66.5569 183.743C66.7517 187.37 67.7026 189.961 71.97 192H58.03C62.2974 189.961 63.2483 187.37 63.4431 183.743C61.9662 184.839 59.4848 186.183 56.2022 186.182C53.2619 186.182 49 184.138 49 179.68C49 171.532 55.3585 173.75 64.9996 160C74.6415 173.75 81 171.533 81 179.68Z" fill="black"/>
<path d="M203 179.68C203 184.138 198.742 186.18 195.798 186.182C192.514 186.182 190.034 184.839 188.557 183.743C188.752 187.37 189.703 189.961 193.97 192H180.03C184.297 189.961 185.248 187.37 185.443 183.743C183.966 184.839 181.485 186.183 178.202 186.182C175.262 186.182 171 184.138 171 179.68C171 171.532 177.359 173.75 187 160C196.641 173.75 203 171.533 203 179.68Z" fill="black"/>
<path d="M37.3411 66.6159C37.3411 68.5731 35.6536 69.4696 34.4867 69.4703C33.1855 69.4703 32.2023 68.8809 31.617 68.3996C31.6942 69.9918 32.0711 71.1293 33.7623 72.0246H28.2377C29.9289 71.1293 30.3058 69.9918 30.383 68.3996C29.7977 68.8806 28.8142 69.4709 27.5133 69.4703C26.348 69.4703 24.6589 68.5731 24.6589 66.6159C24.6589 63.0387 27.1789 64.0121 30.9998 57.9756C34.8211 64.0121 37.3411 63.039 37.3411 66.6159Z" fill="black"/>
</svg>
