<svg width="252" height="352" viewBox="0 0 252 352" fill="none" xmlns="http://www.w3.org/2000/svg">
<rect x="1" y="1" width="250" height="350" rx="8" fill="white"/>
<rect x="1" y="1" width="250" height="350" rx="8" stroke="#A8A8A8" stroke-opacity="0.5"/>
<path d="M31.752 49.512C30.3867 49.512 29 48.7227 27.592 47.144C27.1867 46.696 26.8453 46.3867 26.568 46.216C26.312 46.024 25.992 45.928 25.608 45.928C25.3093 45.928 25.064 46.024 24.872 46.216C24.68 46.3867 24.584 46.632 24.584 46.952V49H23.304V47.496C23.304 46.664 23.3787 45.8853 23.528 45.16C23.6987 44.4133 24.0827 43.5493 24.68 42.568C25.2773 41.5653 26.1947 40.4773 27.432 39.304C28.9893 37.7893 30.1947 36.4133 31.048 35.176C31.9013 33.9173 32.328 32.552 32.328 31.08C32.328 29.8853 32.0827 28.8827 31.592 28.072C31.1013 27.2613 30.2693 26.856 29.096 26.856C28.2853 26.856 27.6027 27.1227 27.048 27.656C26.5147 28.168 26.248 28.776 26.248 29.48C26.248 30.3333 26.5467 30.9733 27.144 31.4C27.6133 31.7413 27.9653 32.0827 28.2 32.424C28.456 32.744 28.584 33.1493 28.584 33.64C28.584 34.1947 28.3813 34.6533 27.976 35.016C27.5707 35.3787 27.0587 35.56 26.44 35.56C25.5227 35.56 24.7227 35.2293 24.04 34.568C23.3787 33.9067 23.048 33.0213 23.048 31.912C23.048 30.7813 23.3467 29.7467 23.944 28.808C24.5627 27.848 25.3947 27.0907 26.44 26.536C27.5067 25.9813 28.68 25.704 29.96 25.704C32.3067 25.704 34.088 26.248 35.304 27.336C36.52 28.4027 37.128 29.8213 37.128 31.592C37.128 32.808 36.744 33.9067 35.976 34.888C35.2293 35.8693 34.312 36.7227 33.224 37.448C32.1573 38.152 30.8027 38.9413 29.16 39.816C28.2427 40.328 27.3787 40.9787 26.568 41.768C25.7573 42.5573 25.2027 43.5067 24.904 44.616L25.032 44.68C25.8 44.0613 26.664 43.752 27.624 43.752C28.008 43.752 28.4667 43.8053 29 43.912C29.5547 44.0187 30.0133 44.136 30.376 44.264C31.4427 44.6053 32.4133 44.776 33.288 44.776C34.056 44.776 34.696 44.552 35.208 44.104C35.72 43.6347 35.976 43.0907 35.976 42.472C35.976 41.8533 35.9227 41.1387 35.816 40.328H36.808C36.936 41.2453 37 42.0773 37 42.824C37 43.912 36.8187 44.968 36.456 45.992C36.1147 46.9947 35.5493 47.8373 34.76 48.52C33.9707 49.1813 32.968 49.512 31.752 49.512Z" fill="black"/>
<path d="M31 58.2761C29.0822 58.2761 27.5247 59.7138 27.5247 61.484C27.5247 62.7449 28.3135 63.8362 29.4613 64.3593C29.8068 64.5167 29.4298 64.9242 29.1762 64.6601C28.5392 63.9968 27.6103 63.5783 26.5752 63.5783C24.6575 63.5783 23.1 65.016 23.1 66.7862C23.1 68.5564 24.6575 69.9912 26.5752 69.9912C28.4783 69.9912 30.0304 68.5782 30.0505 66.8267C30.054 66.516 30.5707 66.4838 30.5707 66.9019C30.5707 67.5603 29.8849 71.0572 29.5178 71.7239C29.9185 71.6306 30.5864 71.5532 31 71.5532C31.4135 71.5532 32.0814 71.6306 32.4822 71.7239C32.115 71.0572 31.4293 67.5603 31.4293 66.9019C31.4293 66.4838 31.9459 66.516 31.9495 66.8267C31.9695 68.5782 33.5217 69.9912 35.4247 69.9912C37.3425 69.9912 38.9 68.5564 38.9 66.7862C38.9 65.016 37.3425 63.5783 35.4247 63.5783C34.3897 63.5783 33.4607 63.9968 32.8238 64.6601C32.5701 64.9242 32.1932 64.5167 32.5386 64.3593C33.6864 63.8362 34.4752 62.7449 34.4752 61.484C34.4752 59.7138 32.9177 58.2761 31 58.2761Z" fill="black"/>
<path d="M126 59.5522C122.165 59.5522 119.05 62.4276 119.05 65.968C119.05 68.4899 120.627 70.6723 122.923 71.7186C123.614 72.0334 122.86 72.8485 122.352 72.3202C121.078 70.9936 119.221 70.1565 117.151 70.1565C113.315 70.1565 110.2 73.0319 110.2 76.5724C110.2 80.1128 113.315 82.9824 117.151 82.9824C120.957 82.9824 124.061 80.1565 124.101 76.6534C124.108 76.0319 125.141 75.9676 125.141 76.8038C125.141 78.1206 123.77 85.1144 123.036 86.4478C123.837 86.2612 125.173 86.1065 126 86.1065C126.827 86.1065 128.163 86.2612 128.964 86.4478C128.23 85.1144 126.859 78.1206 126.859 76.8038C126.859 75.9676 127.892 76.0319 127.899 76.6534C127.939 80.1565 131.043 82.9824 134.85 82.9824C138.685 82.9824 141.8 80.1128 141.8 76.5724C141.8 73.0319 138.685 70.1565 134.85 70.1565C132.779 70.1565 130.922 70.9936 129.648 72.3202C129.14 72.8485 128.386 72.0334 129.077 71.7186C131.373 70.6723 132.951 68.4899 132.951 65.968C132.951 62.4276 129.836 59.5522 126 59.5522Z" fill="black"/>
<path d="M126 292.448C122.165 292.448 119.05 289.572 119.05 286.032C119.05 283.51 120.627 281.328 122.923 280.281C123.614 279.967 122.86 279.152 122.352 279.68C121.078 281.006 119.221 281.843 117.151 281.843C113.315 281.843 110.2 278.968 110.2 275.428C110.2 271.887 113.315 269.018 117.151 269.018C120.957 269.018 124.061 271.844 124.101 275.347C124.108 275.968 125.141 276.032 125.141 275.196C125.141 273.879 123.77 266.886 123.036 265.552C123.837 265.739 125.173 265.894 126 265.894C126.827 265.894 128.163 265.739 128.964 265.552C128.23 266.886 126.859 273.879 126.859 275.196C126.859 276.032 127.892 275.968 127.899 275.347C127.939 271.844 131.043 269.018 134.85 269.018C138.685 269.018 141.8 271.887 141.8 275.428C141.8 278.968 138.685 281.843 134.85 281.843C132.779 281.843 130.922 281.006 129.648 279.68C129.14 279.152 128.386 279.967 129.077 280.281C131.373 281.328 132.951 283.51 132.951 286.032C132.951 289.572 129.836 292.448 126 292.448Z" fill="black"/>
<path d="M220.248 302.488C221.613 302.488 223 303.277 224.408 304.856C224.813 305.304 225.155 305.613 225.432 305.784C225.688 305.976 226.008 306.072 226.392 306.072C226.691 306.072 226.936 305.976 227.128 305.784C227.32 305.613 227.416 305.368 227.416 305.048V303H228.696V304.504C228.696 305.336 228.621 306.115 228.472 306.84C228.301 307.587 227.917 308.451 227.32 309.432C226.723 310.435 225.805 311.523 224.568 312.696C223.011 314.211 221.805 315.587 220.952 316.824C220.099 318.083 219.672 319.448 219.672 320.92C219.672 322.115 219.917 323.117 220.408 323.928C220.899 324.739 221.731 325.144 222.904 325.144C223.715 325.144 224.397 324.877 224.952 324.344C225.485 323.832 225.752 323.224 225.752 322.52C225.752 321.667 225.453 321.027 224.856 320.6C224.387 320.259 224.035 319.917 223.8 319.576C223.544 319.256 223.416 318.851 223.416 318.36C223.416 317.805 223.619 317.347 224.024 316.984C224.429 316.621 224.941 316.44 225.56 316.44C226.477 316.44 227.277 316.771 227.96 317.432C228.621 318.093 228.952 318.979 228.952 320.088C228.952 321.219 228.653 322.253 228.056 323.192C227.437 324.152 226.605 324.909 225.56 325.464C224.493 326.019 223.32 326.296 222.04 326.296C219.693 326.296 217.912 325.752 216.696 324.664C215.48 323.597 214.872 322.179 214.872 320.408C214.872 319.192 215.256 318.093 216.024 317.112C216.771 316.131 217.688 315.277 218.776 314.552C219.843 313.848 221.197 313.059 222.84 312.184C223.757 311.672 224.621 311.021 225.432 310.232C226.243 309.443 226.797 308.493 227.096 307.384L226.968 307.32C226.2 307.939 225.336 308.248 224.376 308.248C223.992 308.248 223.533 308.195 223 308.088C222.445 307.981 221.987 307.864 221.624 307.736C220.557 307.395 219.587 307.224 218.712 307.224C217.944 307.224 217.304 307.448 216.792 307.896C216.28 308.365 216.024 308.909 216.024 309.528C216.024 310.147 216.077 310.861 216.184 311.672H215.192C215.064 310.755 215 309.923 215 309.176C215 308.088 215.181 307.032 215.544 306.008C215.885 305.005 216.451 304.163 217.24 303.48C218.029 302.819 219.032 302.488 220.248 302.488Z" fill="black"/>
<path d="M221 293.724C219.082 293.724 217.525 292.286 217.525 290.516C217.525 289.255 218.314 288.164 219.461 287.641C219.807 287.483 219.43 287.076 219.176 287.34C218.539 288.003 217.61 288.422 216.575 288.422C214.657 288.422 213.1 286.984 213.1 285.214C213.1 283.444 214.657 282.009 216.575 282.009C218.478 282.009 220.03 283.422 220.05 285.173C220.054 285.484 220.571 285.516 220.571 285.098C220.571 284.44 219.885 280.943 219.518 280.276C219.919 280.369 220.586 280.447 221 280.447C221.414 280.447 222.081 280.369 222.482 280.276C222.115 280.943 221.429 284.44 221.429 285.098C221.429 285.516 221.946 285.484 221.949 285.173C221.97 283.422 223.522 282.009 225.425 282.009C227.342 282.009 228.9 283.444 228.9 285.214C228.9 286.984 227.342 288.422 225.425 288.422C224.39 288.422 223.461 288.003 222.824 287.34C222.57 287.076 222.193 287.483 222.539 287.641C223.686 288.164 224.475 289.255 224.475 290.516C224.475 292.286 222.918 293.724 221 293.724Z" fill="black"/>
</svg>
