<svg width="252" height="352" viewBox="0 0 252 352" fill="none" xmlns="http://www.w3.org/2000/svg">
<rect x="1" y="1" width="250" height="350" rx="8" fill="white"/>
<rect x="1" y="1" width="250" height="350" rx="8" stroke="#A8A8A8" stroke-opacity="0.5"/>
<path d="M45.024 52.616C44.4053 52.616 43.808 52.4453 43.232 52.104C42.656 51.784 42.1867 51.3147 41.824 50.696C41.4613 50.0773 41.28 49.352 41.28 48.52C41.28 47.1973 41.3227 46.1413 41.408 45.352C40.896 45.5013 40.3413 45.576 39.744 45.576C38.0587 45.576 36.48 45.0107 35.008 43.88C33.5573 42.728 32.3947 41.2347 31.52 39.4C30.6667 37.544 30.24 35.6133 30.24 33.608C30.24 31.5813 30.6773 29.6507 31.552 27.816C32.4267 25.96 33.5893 24.4667 35.04 23.336C36.512 22.2053 38.0693 21.64 39.712 21.64C41.3547 21.64 42.9013 22.2053 44.352 23.336C45.824 24.4667 46.9973 25.96 47.872 27.816C48.7467 29.6507 49.184 31.5813 49.184 33.608C49.184 35.144 48.9173 36.648 48.384 38.12C47.872 39.592 47.1467 40.904 46.208 42.056C45.2907 43.208 44.2453 44.0933 43.072 44.712C43.1573 45.928 43.4133 46.8667 43.84 47.528C44.288 48.1893 44.928 48.52 45.76 48.52C46.6133 48.52 47.2427 48.1573 47.648 47.432C48.0747 46.728 48.288 45.832 48.288 44.744C48.288 44.296 48.256 43.784 48.192 43.208H49.152C49.2587 43.8907 49.312 44.712 49.312 45.672C49.312 46.5467 49.2587 47.3573 49.152 48.104C49.0667 48.872 48.864 49.5867 48.544 50.248C48.2027 50.9733 47.7227 51.5493 47.104 51.976C46.4853 52.4027 45.792 52.616 45.024 52.616ZM36.864 43.208C36.8 42.952 36.768 42.696 36.768 42.44C36.768 41.7147 37.0133 41.0747 37.504 40.52C38.016 39.9653 38.7093 39.688 39.584 39.688C40.48 39.688 41.216 39.976 41.792 40.552C42.368 41.128 42.72 41.8533 42.848 42.728H42.944C43.4773 41.6613 43.744 40.2213 43.744 38.408V28.808C43.744 26.6107 43.392 25.0427 42.688 24.104C42.0053 23.144 41.0133 22.664 39.712 22.664C38.4107 22.664 37.408 23.144 36.704 24.104C36.0213 25.0427 35.68 26.6107 35.68 28.808V38.408C35.68 40.6267 36.0533 42.2373 36.8 43.24L36.864 43.208ZM39.712 44.552C40.3093 44.552 40.896 44.4347 41.472 44.2C41.472 43.1333 41.3227 42.2907 41.024 41.672C40.7467 41.0533 40.1493 40.744 39.232 40.744C38.784 40.744 38.4107 40.936 38.112 41.32C37.8133 41.704 37.664 42.1307 37.664 42.6C37.664 43.56 37.984 44.168 38.624 44.424C38.7947 44.5093 39.1573 44.552 39.712 44.552Z" fill="#FF0000"/>
<path d="M206.976 299.384C207.595 299.384 208.192 299.555 208.768 299.896C209.344 300.216 209.813 300.685 210.176 301.304C210.539 301.923 210.72 302.648 210.72 303.48C210.72 304.803 210.677 305.859 210.592 306.648C211.104 306.499 211.659 306.424 212.256 306.424C213.941 306.424 215.52 306.989 216.992 308.12C218.443 309.272 219.605 310.765 220.48 312.6C221.333 314.456 221.76 316.387 221.76 318.392C221.76 320.419 221.323 322.349 220.448 324.184C219.573 326.04 218.411 327.533 216.96 328.664C215.488 329.795 213.931 330.36 212.288 330.36C210.645 330.36 209.099 329.795 207.648 328.664C206.176 327.533 205.003 326.04 204.128 324.184C203.253 322.349 202.816 320.419 202.816 318.392C202.816 316.856 203.083 315.352 203.616 313.88C204.128 312.408 204.853 311.096 205.792 309.944C206.709 308.792 207.755 307.907 208.928 307.288C208.843 306.072 208.587 305.133 208.16 304.472C207.712 303.811 207.072 303.48 206.24 303.48C205.387 303.48 204.757 303.843 204.352 304.568C203.925 305.272 203.712 306.168 203.712 307.256C203.712 307.704 203.744 308.216 203.808 308.792H202.848C202.741 308.109 202.688 307.288 202.688 306.328C202.688 305.453 202.741 304.643 202.848 303.896C202.933 303.128 203.136 302.413 203.456 301.752C203.797 301.027 204.277 300.451 204.896 300.024C205.515 299.597 206.208 299.384 206.976 299.384ZM215.136 308.792C215.2 309.048 215.232 309.304 215.232 309.56C215.232 310.285 214.987 310.925 214.496 311.48C213.984 312.035 213.291 312.312 212.416 312.312C211.52 312.312 210.784 312.024 210.208 311.448C209.632 310.872 209.28 310.147 209.152 309.272H209.056C208.523 310.339 208.256 311.779 208.256 313.592V323.192C208.256 325.389 208.608 326.957 209.312 327.896C209.995 328.856 210.987 329.336 212.288 329.336C213.589 329.336 214.592 328.856 215.296 327.896C215.979 326.957 216.32 325.389 216.32 323.192V313.592C216.32 311.373 215.947 309.763 215.2 308.76L215.136 308.792ZM212.288 307.448C211.691 307.448 211.104 307.565 210.528 307.8C210.528 308.867 210.677 309.709 210.976 310.328C211.253 310.947 211.851 311.256 212.768 311.256C213.216 311.256 213.589 311.064 213.888 310.68C214.187 310.296 214.336 309.869 214.336 309.4C214.336 308.44 214.016 307.832 213.376 307.576C213.205 307.491 212.843 307.448 212.288 307.448Z" fill="#FF0000"/>
<g clip-path="url(#clip0_8_1238)">
<path d="M37.3885 88.7751C37.1734 89.0746 36.8267 89.0746 36.6116 88.7751L25.7236 73.544C25.5085 73.2435 25.5085 72.7564 25.7236 72.456L36.6116 57.2248C36.8267 56.9244 37.1734 56.9244 37.3885 57.2248L48.2774 72.456C48.4916 72.7564 48.4916 73.2435 48.2774 73.544L37.3885 88.7751Z" fill="#FF0000"/>
</g>
<g clip-path="url(#clip1_8_1238)">
<path d="M215.388 263.225C215.173 262.925 214.827 262.925 214.612 263.225L203.724 278.456C203.508 278.756 203.508 279.244 203.724 279.544L214.612 294.775C214.827 295.076 215.173 295.076 215.388 294.775L226.277 279.544C226.492 279.244 226.492 278.756 226.277 278.456L215.388 263.225Z" fill="#FF0000"/>
</g>
<line x1="60" y1="36.5" x2="215" y2="36.5" stroke="#FF0000"/>
<line x1="215.5" y1="36" x2="215.5" y2="259" stroke="#FF0000"/>
<line x1="192" y1="315.5" x2="37" y2="315.5" stroke="#FF0000"/>
<line x1="36.5" y1="316" x2="36.5" y2="93" stroke="#FF0000"/>
<path d="M148.096 257.464C145.621 257.464 143.232 256.781 140.928 255.416C138.624 254.136 136.747 252.259 135.296 249.784C133.845 247.309 133.12 244.408 133.12 241.08C133.12 235.789 133.291 231.565 133.632 228.408C131.584 229.005 129.365 229.304 126.976 229.304C120.235 229.304 113.92 227.043 108.032 222.52C102.229 217.912 97.5787 211.939 94.08 204.6C90.6667 197.176 88.96 189.453 88.96 181.432C88.96 173.325 90.7093 165.603 94.208 158.264C97.7067 150.84 102.357 144.867 108.16 140.344C114.048 135.821 120.277 133.56 126.848 133.56C133.419 133.56 139.605 135.821 145.408 140.344C151.296 144.867 155.989 150.84 159.488 158.264C162.987 165.603 164.736 173.325 164.736 181.432C164.736 187.576 163.669 193.592 161.536 199.48C159.488 205.368 156.587 210.616 152.832 215.224C149.163 219.832 144.981 223.373 140.288 225.848C140.629 230.712 141.653 234.467 143.36 237.112C145.152 239.757 147.712 241.08 151.04 241.08C154.453 241.08 156.971 239.629 158.592 236.728C160.299 233.912 161.152 230.328 161.152 225.976C161.152 224.184 161.024 222.136 160.768 219.832H164.608C165.035 222.563 165.248 225.848 165.248 229.688C165.248 233.187 165.035 236.429 164.608 239.416C164.267 242.488 163.456 245.347 162.176 247.992C160.811 250.893 158.891 253.197 156.416 254.904C153.941 256.611 151.168 257.464 148.096 257.464ZM115.456 219.832C115.2 218.808 115.072 217.784 115.072 216.76C115.072 213.859 116.053 211.299 118.016 209.08C120.064 206.861 122.837 205.752 126.336 205.752C129.92 205.752 132.864 206.904 135.168 209.208C137.472 211.512 138.88 214.413 139.392 217.912H139.776C141.909 213.645 142.976 207.885 142.976 200.632V162.232C142.976 153.443 141.568 147.171 138.752 143.416C136.021 139.576 132.053 137.656 126.848 137.656C121.643 137.656 117.632 139.576 114.816 143.416C112.085 147.171 110.72 153.443 110.72 162.232V200.632C110.72 209.507 112.213 215.949 115.2 219.96L115.456 219.832ZM126.848 225.208C129.237 225.208 131.584 224.739 133.888 223.8C133.888 219.533 133.291 216.163 132.096 213.688C130.987 211.213 128.597 209.976 124.928 209.976C123.136 209.976 121.643 210.744 120.448 212.28C119.253 213.816 118.656 215.523 118.656 217.4C118.656 221.24 119.936 223.672 122.496 224.696C123.179 225.037 124.629 225.208 126.848 225.208Z" fill="#FF0000"/>
<path d="M146.663 91.7144C144.82 91.7144 143.323 93.2086 143.323 95.0513C143.323 96.2247 143.93 97.2574 144.845 97.8521C143.976 100.832 142.23 105.168 140.648 106.067C137.644 107.773 134.921 105.194 136.239 98.126C137.909 97.943 139.21 96.5264 139.21 94.8081C139.21 92.9639 137.716 91.4698 135.872 91.4698C134.027 91.4698 132.533 92.964 132.533 94.8081C132.533 95.9464 133.105 96.9498 133.975 97.5532C133.084 101.497 131.772 103.071 130.172 102.853C127.755 102.523 127.312 98.164 127.274 92.0776C128.487 91.5781 129.338 90.3842 129.338 88.9926C129.338 87.1484 127.844 85.6543 126 85.6543C124.157 85.6543 122.663 87.1485 122.663 88.9926C122.663 90.3843 123.516 91.5781 124.726 92.0776C124.687 98.1641 124.247 102.523 121.828 102.853C120.228 103.071 118.916 101.497 118.027 97.5533C118.898 96.9498 119.467 95.9464 119.467 94.8082C119.467 92.964 117.973 91.4699 116.13 91.4699C114.284 91.4699 112.79 92.9641 112.79 94.8082C112.79 96.5265 114.091 97.943 115.761 98.1261C117.079 105.194 114.357 107.774 111.354 106.067C109.77 105.168 108.025 100.832 107.156 97.8521C108.072 97.2574 108.677 96.2247 108.677 95.0513C108.677 93.2086 107.183 91.7144 105.337 91.7144C103.496 91.7144 102 93.2086 102 95.0513C102 96.7959 103.339 98.2256 105.044 98.3765L107.457 114.846H144.545L146.956 98.3765C148.663 98.2256 150 96.7959 150 95.0513C150 93.2086 148.506 91.7144 146.663 91.7144Z" fill="#FF0000"/>
<path d="M108.555 122.346H126H143.446L144.105 117.846H107.896L108.555 122.346Z" fill="#FF0000"/>
<defs>
<clipPath id="clip0_8_1238">
<rect width="32" height="32" fill="white" transform="translate(21 57)"/>
</clipPath>
<clipPath id="clip1_8_1238">
<rect width="32" height="32" fill="white" transform="matrix(1 0 0 -1 199 295)"/>
</clipPath>
</defs>
</svg>
