<svg width="252" height="352" viewBox="0 0 252 352" fill="none" xmlns="http://www.w3.org/2000/svg">
<rect x="1" y="1" width="250" height="350" rx="8" fill="white"/>
<rect x="1" y="1" width="250" height="350" rx="8" stroke="#A8A8A8" stroke-opacity="0.5"/>
<path d="M25.8 47.976H28.872C29.1707 47.976 29.3733 47.9227 29.48 47.816C29.5867 47.688 29.64 47.4853 29.64 47.208V42.472H22.6V41.288L31.016 26.184H34.376V41.32H37.832V42.472H34.376V47.208C34.376 47.4853 34.4293 47.688 34.536 47.816C34.664 47.9227 34.8667 47.976 35.144 47.976H37.448V49H25.8V47.976ZM24.2 41.32H29.64V31.592L24.2 41.32Z" fill="#FF0000"/>
<path d="M226.2 304.024H223.128C222.829 304.024 222.627 304.077 222.52 304.184C222.413 304.312 222.36 304.515 222.36 304.792V309.528H229.4V310.712L220.984 325.816H217.624V310.68H214.168V309.528H217.624V304.792C217.624 304.515 217.571 304.312 217.464 304.184C217.336 304.077 217.133 304.024 216.856 304.024H214.552V303H226.2V304.024ZM227.8 310.68H222.36V320.408L227.8 310.68Z" fill="#FF0000"/>
<g clip-path="url(#clip0_8_1057)">
<path d="M31.1942 72.8873C31.0867 73.0371 30.9133 73.0371 30.8058 72.8873L25.3618 65.2717C25.2542 65.1215 25.2542 64.878 25.3618 64.7277L30.8058 57.1122C30.9133 56.962 31.0867 56.962 31.1942 57.1122L36.6387 64.7277C36.7458 64.878 36.7458 65.1215 36.6387 65.2717L31.1942 72.8873Z" fill="#FF0000"/>
</g>
<g clip-path="url(#clip1_8_1057)">
<path d="M65.3885 72.7747C65.1734 73.0743 64.8267 73.0743 64.6116 72.7747L53.7236 57.5436C53.5085 57.2431 53.5085 56.756 53.7236 56.4556L64.6116 41.2245C64.8267 40.924 65.1734 40.924 65.3885 41.2245L76.2774 56.4556C76.4916 56.756 76.4916 57.2431 76.2774 57.5436L65.3885 72.7747Z" fill="#FF0000"/>
</g>
<g clip-path="url(#clip2_8_1057)">
<path d="M187.388 310.775C187.173 311.074 186.827 311.074 186.612 310.775L175.724 295.544C175.508 295.243 175.508 294.756 175.724 294.456L186.612 279.224C186.827 278.924 187.173 278.924 187.388 279.224L198.277 294.456C198.492 294.756 198.492 295.243 198.277 295.544L187.388 310.775Z" fill="#FF0000"/>
</g>
<g clip-path="url(#clip3_8_1057)">
<path d="M187.388 72.7747C187.173 73.0743 186.827 73.0743 186.612 72.7747L175.724 57.5436C175.508 57.2431 175.508 56.756 175.724 56.4556L186.612 41.2245C186.827 40.924 187.173 40.924 187.388 41.2245L198.277 56.4556C198.492 56.756 198.492 57.2431 198.277 57.5436L187.388 72.7747Z" fill="#FF0000"/>
</g>
<g clip-path="url(#clip4_8_1057)">
<path d="M65.3885 310.775C65.1734 311.074 64.8267 311.074 64.6116 310.775L53.7236 295.544C53.5085 295.243 53.5085 294.756 53.7236 294.456L64.6116 279.224C64.8267 278.924 65.1734 278.924 65.3885 279.224L76.2774 294.456C76.4916 294.756 76.4916 295.243 76.2774 295.544L65.3885 310.775Z" fill="#FF0000"/>
</g>
<g clip-path="url(#clip5_8_1057)">
<path d="M221.194 279.113C221.087 278.963 220.913 278.963 220.806 279.113L215.362 286.728C215.254 286.878 215.254 287.122 215.362 287.272L220.806 294.888C220.913 295.038 221.087 295.038 221.194 294.888L226.639 287.272C226.746 287.122 226.746 286.878 226.639 286.728L221.194 279.113Z" fill="#FF0000"/>
</g>
<defs>
<clipPath id="clip0_8_1057">
<rect width="16" height="16" fill="white" transform="translate(23 57)"/>
</clipPath>
<clipPath id="clip1_8_1057">
<rect width="32" height="32" fill="white" transform="translate(49 41)"/>
</clipPath>
<clipPath id="clip2_8_1057">
<rect width="32" height="32" fill="white" transform="translate(171 279)"/>
</clipPath>
<clipPath id="clip3_8_1057">
<rect width="32" height="32" fill="white" transform="translate(171 41)"/>
</clipPath>
<clipPath id="clip4_8_1057">
<rect width="32" height="32" fill="white" transform="translate(49 279)"/>
</clipPath>
<clipPath id="clip5_8_1057">
<rect width="16" height="16" fill="white" transform="matrix(1 0 0 -1 213 295)"/>
</clipPath>
</defs>
</svg>
