<svg width="252" height="352" viewBox="0 0 252 352" fill="none" xmlns="http://www.w3.org/2000/svg">
<rect x="1" y="1" width="250" height="350" rx="8" fill="white"/>
<rect x="1" y="1" width="250" height="350" rx="8" stroke="#A8A8A8" stroke-opacity="0.5"/>
<path d="M29.256 49.512C28.2533 49.512 27.3893 49.3093 26.664 48.904C25.9387 48.4773 25.384 47.9333 25 47.272C24.6373 46.6107 24.456 45.9067 24.456 45.16C24.456 44.2427 24.7227 43.464 25.256 42.824C25.7893 42.184 26.4827 41.864 27.336 41.864C27.976 41.864 28.488 42.0667 28.872 42.472C29.2773 42.856 29.48 43.368 29.48 44.008C29.48 44.9893 29 45.6507 28.04 45.992C27.6133 46.1413 27.2933 46.2907 27.08 46.44C26.8667 46.5893 26.76 46.7813 26.76 47.016C26.76 47.4427 26.984 47.7947 27.432 48.072C27.88 48.3493 28.4987 48.488 29.288 48.488C30.4827 48.488 31.3573 47.976 31.912 46.952C32.488 45.928 32.776 44.7013 32.776 43.272V38.696L32.584 38.6C32.2427 38.9413 31.7947 39.208 31.24 39.4C30.6853 39.5707 30.0987 39.656 29.48 39.656C27.3467 39.656 25.7467 39.0267 24.68 37.768C23.6347 36.5093 23.112 34.8987 23.112 32.936C23.112 31.72 23.3573 30.568 23.848 29.48C24.36 28.3707 25.1387 27.464 26.184 26.76C27.2507 26.056 28.5733 25.704 30.152 25.704C31.7307 25.704 33.096 26.216 34.248 27.24C35.4213 28.264 36.3173 29.64 36.936 31.368C37.576 33.096 37.896 34.9947 37.896 37.064C37.896 39.5173 37.544 41.6827 36.84 43.56C36.1573 45.4373 35.1653 46.8987 33.864 47.944C32.5627 48.9893 31.0267 49.512 29.256 49.512ZM29.896 38.44C31.048 38.44 31.8373 37.992 32.264 37.096C32.4773 36.6907 32.616 36.1253 32.68 35.4C32.744 34.6747 32.776 33.6933 32.776 32.456C32.776 30.5147 32.5733 29.0747 32.168 28.136C31.7627 27.1973 31.1013 26.728 30.184 26.728C29.4587 26.728 28.9253 26.984 28.584 27.496C28.264 27.9867 28.0613 28.6267 27.976 29.416C27.8907 30.184 27.848 31.2507 27.848 32.616C27.848 34.344 27.9867 35.752 28.264 36.84C28.5627 37.9067 29.1067 38.44 29.896 38.44Z" fill="#FF0000"/>
<path d="M222.744 302.488C223.747 302.488 224.611 302.691 225.336 303.096C226.061 303.523 226.616 304.067 227 304.728C227.363 305.389 227.544 306.093 227.544 306.84C227.544 307.757 227.277 308.536 226.744 309.176C226.211 309.816 225.517 310.136 224.664 310.136C224.024 310.136 223.512 309.933 223.128 309.528C222.723 309.144 222.52 308.632 222.52 307.992C222.52 307.011 223 306.349 223.96 306.008C224.387 305.859 224.707 305.709 224.92 305.56C225.133 305.411 225.24 305.219 225.24 304.984C225.24 304.557 225.016 304.205 224.568 303.928C224.12 303.651 223.501 303.512 222.712 303.512C221.517 303.512 220.643 304.024 220.088 305.048C219.512 306.072 219.224 307.299 219.224 308.728V313.304L219.416 313.4C219.757 313.059 220.205 312.792 220.76 312.6C221.315 312.429 221.901 312.344 222.52 312.344C224.653 312.344 226.253 312.973 227.32 314.232C228.365 315.491 228.888 317.101 228.888 319.064C228.888 320.28 228.643 321.432 228.152 322.52C227.64 323.629 226.861 324.536 225.816 325.24C224.749 325.944 223.427 326.296 221.848 326.296C220.269 326.296 218.904 325.784 217.752 324.76C216.579 323.736 215.683 322.36 215.064 320.632C214.424 318.904 214.104 317.005 214.104 314.936C214.104 312.483 214.456 310.317 215.16 308.44C215.843 306.563 216.835 305.101 218.136 304.056C219.437 303.011 220.973 302.488 222.744 302.488ZM222.104 313.56C220.952 313.56 220.163 314.008 219.736 314.904C219.523 315.309 219.384 315.875 219.32 316.6C219.256 317.325 219.224 318.307 219.224 319.544C219.224 321.485 219.427 322.925 219.832 323.864C220.237 324.803 220.899 325.272 221.816 325.272C222.541 325.272 223.075 325.016 223.416 324.504C223.736 324.013 223.939 323.373 224.024 322.584C224.109 321.816 224.152 320.749 224.152 319.384C224.152 317.656 224.013 316.248 223.736 315.16C223.437 314.093 222.893 313.56 222.104 313.56Z" fill="#FF0000"/>
<g clip-path="url(#clip0_8_1162)">
<path d="M31.1942 72.8873C31.0867 73.0371 30.9133 73.0371 30.8058 72.8873L25.3618 65.2717C25.2542 65.1215 25.2542 64.878 25.3618 64.7277L30.8058 57.1122C30.9133 56.962 31.0867 56.962 31.1942 57.1122L36.6387 64.7277C36.7458 64.878 36.7458 65.1215 36.6387 65.2717L31.1942 72.8873Z" fill="#FF0000"/>
</g>
<g clip-path="url(#clip1_8_1162)">
<path d="M65.3885 72.7746C65.1734 73.0741 64.8267 73.0741 64.6116 72.7746L53.7236 57.5435C53.5085 57.243 53.5085 56.7559 53.7236 56.4555L64.6116 41.2244C64.8267 40.9239 65.1734 40.9239 65.3885 41.2244L76.2774 56.4555C76.4916 56.7559 76.4916 57.243 76.2774 57.5435L65.3885 72.7746Z" fill="#FF0000"/>
</g>
<g clip-path="url(#clip2_8_1162)">
<path d="M187.388 310.775C187.173 311.074 186.827 311.074 186.612 310.775L175.724 295.543C175.508 295.243 175.508 294.756 175.724 294.455L186.612 279.224C186.827 278.924 187.173 278.924 187.388 279.224L198.277 294.455C198.492 294.756 198.492 295.243 198.277 295.543L187.388 310.775Z" fill="#FF0000"/>
</g>
<g clip-path="url(#clip3_8_1162)">
<path d="M187.388 72.7746C187.173 73.0741 186.827 73.0741 186.612 72.7746L175.724 57.5435C175.508 57.243 175.508 56.7559 175.724 56.4555L186.612 41.2244C186.827 40.9239 187.173 40.9239 187.388 41.2244L198.277 56.4555C198.492 56.7559 198.492 57.243 198.277 57.5435L187.388 72.7746Z" fill="#FF0000"/>
</g>
<g clip-path="url(#clip4_8_1162)">
<path d="M65.3885 241.775C65.1734 242.074 64.8267 242.074 64.6116 241.775L53.7236 226.543C53.5085 226.243 53.5085 225.756 53.7236 225.455L64.6116 210.224C64.8267 209.924 65.1734 209.924 65.3885 210.224L76.2774 225.455C76.4916 225.756 76.4916 226.243 76.2774 226.543L65.3885 241.775Z" fill="#FF0000"/>
</g>
<g clip-path="url(#clip5_8_1162)">
<path d="M187.388 241.775C187.173 242.074 186.827 242.074 186.612 241.775L175.724 226.543C175.508 226.243 175.508 225.756 175.724 225.455L186.612 210.224C186.827 209.924 187.173 209.924 187.388 210.224L198.277 225.455C198.492 225.756 198.492 226.243 198.277 226.543L187.388 241.775Z" fill="#FF0000"/>
</g>
<g clip-path="url(#clip6_8_1162)">
<path d="M187.388 141.775C187.173 142.074 186.827 142.074 186.612 141.775L175.724 126.543C175.508 126.243 175.508 125.756 175.724 125.455L186.612 110.224C186.827 109.924 187.173 109.924 187.388 110.224L198.277 125.455C198.492 125.756 198.492 126.243 198.277 126.543L187.388 141.775Z" fill="#FF0000"/>
</g>
<g clip-path="url(#clip7_8_1162)">
<path d="M126.388 191.775C126.173 192.074 125.827 192.074 125.612 191.775L114.724 176.543C114.508 176.243 114.508 175.756 114.724 175.455L125.612 160.224C125.827 159.924 126.173 159.924 126.388 160.224L137.277 175.455C137.492 175.756 137.492 176.243 137.277 176.543L126.388 191.775Z" fill="#FF0000"/>
</g>
<g clip-path="url(#clip8_8_1162)">
<path d="M65.3885 141.775C65.1734 142.074 64.8267 142.074 64.6116 141.775L53.7236 126.543C53.5085 126.243 53.5085 125.756 53.7236 125.455L64.6116 110.224C64.8267 109.924 65.1734 109.924 65.3885 110.224L76.2774 125.455C76.4916 125.756 76.4916 126.243 76.2774 126.543L65.3885 141.775Z" fill="#FF0000"/>
</g>
<g clip-path="url(#clip9_8_1162)">
<path d="M65.3885 310.775C65.1734 311.074 64.8267 311.074 64.6116 310.775L53.7236 295.543C53.5085 295.243 53.5085 294.756 53.7236 294.455L64.6116 279.224C64.8267 278.924 65.1734 278.924 65.3885 279.224L76.2774 294.455C76.4916 294.756 76.4916 295.243 76.2774 295.543L65.3885 310.775Z" fill="#FF0000"/>
</g>
<g clip-path="url(#clip10_8_1162)">
<path d="M221.194 279.113C221.087 278.963 220.913 278.963 220.806 279.113L215.362 286.728C215.254 286.878 215.254 287.122 215.362 287.272L220.806 294.888C220.913 295.038 221.087 295.038 221.194 294.888L226.639 287.272C226.746 287.122 226.746 286.878 226.639 286.728L221.194 279.113Z" fill="#FF0000"/>
</g>
<defs>
<clipPath id="clip0_8_1162">
<rect width="16" height="16" fill="white" transform="translate(23 57)"/>
</clipPath>
<clipPath id="clip1_8_1162">
<rect width="32" height="32" fill="white" transform="translate(49 41)"/>
</clipPath>
<clipPath id="clip2_8_1162">
<rect width="32" height="32" fill="white" transform="translate(171 279)"/>
</clipPath>
<clipPath id="clip3_8_1162">
<rect width="32" height="32" fill="white" transform="translate(171 41)"/>
</clipPath>
<clipPath id="clip4_8_1162">
<rect width="32" height="32" fill="white" transform="translate(49 210)"/>
</clipPath>
<clipPath id="clip5_8_1162">
<rect width="32" height="32" fill="white" transform="translate(171 210)"/>
</clipPath>
<clipPath id="clip6_8_1162">
<rect width="32" height="32" fill="white" transform="translate(171 110)"/>
</clipPath>
<clipPath id="clip7_8_1162">
<rect width="32" height="32" fill="white" transform="translate(110 160)"/>
</clipPath>
<clipPath id="clip8_8_1162">
<rect width="32" height="32" fill="white" transform="translate(49 110)"/>
</clipPath>
<clipPath id="clip9_8_1162">
<rect width="32" height="32" fill="white" transform="translate(49 279)"/>
</clipPath>
<clipPath id="clip10_8_1162">
<rect width="16" height="16" fill="white" transform="matrix(1 0 0 -1 213 295)"/>
</clipPath>
</defs>
</svg>
