<svg width="252" height="352" viewBox="0 0 252 352" fill="none" xmlns="http://www.w3.org/2000/svg">
<rect x="1" y="1" width="250" height="350" rx="8" fill="white"/>
<rect x="1" y="1" width="250" height="350" rx="8" stroke="#A8A8A8" stroke-opacity="0.5"/>
<path d="M29.256 49.512C28.2533 49.512 27.3893 49.3093 26.664 48.904C25.9387 48.4773 25.384 47.9333 25 47.272C24.6373 46.6107 24.456 45.9067 24.456 45.16C24.456 44.2427 24.7227 43.464 25.256 42.824C25.7893 42.184 26.4827 41.864 27.336 41.864C27.976 41.864 28.488 42.0667 28.872 42.472C29.2773 42.856 29.48 43.368 29.48 44.008C29.48 44.9893 29 45.6507 28.04 45.992C27.6133 46.1413 27.2933 46.2907 27.08 46.44C26.8667 46.5893 26.76 46.7813 26.76 47.016C26.76 47.4427 26.984 47.7947 27.432 48.072C27.88 48.3493 28.4987 48.488 29.288 48.488C30.4827 48.488 31.3573 47.976 31.912 46.952C32.488 45.928 32.776 44.7013 32.776 43.272V38.696L32.584 38.6C32.2427 38.9413 31.7947 39.208 31.24 39.4C30.6853 39.5707 30.0987 39.656 29.48 39.656C27.3467 39.656 25.7467 39.0267 24.68 37.768C23.6347 36.5093 23.112 34.8987 23.112 32.936C23.112 31.72 23.3573 30.568 23.848 29.48C24.36 28.3707 25.1387 27.464 26.184 26.76C27.2507 26.056 28.5733 25.704 30.152 25.704C31.7307 25.704 33.096 26.216 34.248 27.24C35.4213 28.264 36.3173 29.64 36.936 31.368C37.576 33.096 37.896 34.9947 37.896 37.064C37.896 39.5173 37.544 41.6827 36.84 43.56C36.1573 45.4373 35.1653 46.8987 33.864 47.944C32.5627 48.9893 31.0267 49.512 29.256 49.512ZM29.896 38.44C31.048 38.44 31.8373 37.992 32.264 37.096C32.4773 36.6907 32.616 36.1253 32.68 35.4C32.744 34.6747 32.776 33.6933 32.776 32.456C32.776 30.5147 32.5733 29.0747 32.168 28.136C31.7627 27.1973 31.1013 26.728 30.184 26.728C29.4587 26.728 28.9253 26.984 28.584 27.496C28.264 27.9867 28.0613 28.6267 27.976 29.416C27.8907 30.184 27.848 31.2507 27.848 32.616C27.848 34.344 27.9867 35.752 28.264 36.84C28.5627 37.9067 29.1067 38.44 29.896 38.44Z" fill="#FF0000"/>
<path d="M222.744 306.488C223.747 306.488 224.611 306.691 225.336 307.096C226.061 307.523 226.616 308.067 227 308.728C227.363 309.389 227.544 310.093 227.544 310.84C227.544 311.757 227.277 312.536 226.744 313.176C226.211 313.816 225.517 314.136 224.664 314.136C224.024 314.136 223.512 313.933 223.128 313.528C222.723 313.144 222.52 312.632 222.52 311.992C222.52 311.011 223 310.349 223.96 310.008C224.387 309.859 224.707 309.709 224.92 309.56C225.133 309.411 225.24 309.219 225.24 308.984C225.24 308.557 225.016 308.205 224.568 307.928C224.12 307.651 223.501 307.512 222.712 307.512C221.517 307.512 220.643 308.024 220.088 309.048C219.512 310.072 219.224 311.299 219.224 312.728V317.304L219.416 317.4C219.757 317.059 220.205 316.792 220.76 316.6C221.315 316.429 221.901 316.344 222.52 316.344C224.653 316.344 226.253 316.973 227.32 318.232C228.365 319.491 228.888 321.101 228.888 323.064C228.888 324.28 228.643 325.432 228.152 326.52C227.64 327.629 226.861 328.536 225.816 329.24C224.749 329.944 223.427 330.296 221.848 330.296C220.269 330.296 218.904 329.784 217.752 328.76C216.579 327.736 215.683 326.36 215.064 324.632C214.424 322.904 214.104 321.005 214.104 318.936C214.104 316.483 214.456 314.317 215.16 312.44C215.843 310.563 216.835 309.101 218.136 308.056C219.437 307.011 220.973 306.488 222.744 306.488ZM222.104 317.56C220.952 317.56 220.163 318.008 219.736 318.904C219.523 319.309 219.384 319.875 219.32 320.6C219.256 321.325 219.224 322.307 219.224 323.544C219.224 325.485 219.427 326.925 219.832 327.864C220.237 328.803 220.899 329.272 221.816 329.272C222.541 329.272 223.075 329.016 223.416 328.504C223.736 328.013 223.939 327.373 224.024 326.584C224.109 325.816 224.152 324.749 224.152 323.384C224.152 321.656 224.013 320.248 223.736 319.16C223.437 318.093 222.893 317.56 222.104 317.56Z" fill="#FF0000"/>
<path d="M39 61.4541C39 58.9942 37.1178 57 34.7961 57C33.3583 57 32.0894 57.7649 31.3313 58.9314L31.251 59.0319C31.109 59.2094 30.8769 59.1962 30.7472 59.0047C30.6548 58.8678 30.5561 58.7359 30.4515 58.6092L30.4479 58.621C29.6769 57.631 28.51 57 27.2039 57C24.8822 57 23 58.9942 23 61.4541C23 62.6645 23.4559 63.7619 24.1954 64.5647L30.3252 72.6168C30.6451 73.1277 31.3531 73.1277 31.673 72.6168L37.9259 64.4276C38.5936 63.639 39 62.597 39 61.4541Z" fill="#FF0000"/>
<path d="M81 49.9083C81 44.9884 77.2357 41 72.5922 41C69.7166 41 67.1787 42.5298 65.6627 44.8628L65.502 45.0638C65.2181 45.4188 64.7538 45.3924 64.4943 45.0093C64.3095 44.7357 64.1122 44.4717 63.903 44.2185L63.8959 44.2421C62.3537 42.2621 60.0199 41 57.4078 41C52.7643 41 49 44.9884 49 49.9083C49 52.329 49.9118 54.5238 51.3907 56.1294L63.6504 72.2337C64.2902 73.2554 65.7062 73.2554 66.3459 72.2337L78.8518 55.8551C80.1873 54.278 81 52.1939 81 49.9083Z" fill="#FF0000"/>
<path d="M203 118.908C203 113.988 199.236 110 194.592 110C191.717 110 189.179 111.53 187.663 113.863L187.502 114.064C187.218 114.419 186.754 114.392 186.494 114.009C186.31 113.736 186.112 113.472 185.903 113.218L185.896 113.242C184.354 111.262 182.02 110 179.408 110C174.764 110 171 113.988 171 118.908C171 121.329 171.912 123.524 173.391 125.129L185.65 141.234C186.29 142.255 187.706 142.255 188.346 141.234L200.852 124.855C202.187 123.278 203 121.194 203 118.908Z" fill="#FF0000"/>
<path d="M142 168.908C142 163.988 138.236 160 133.592 160C130.717 160 128.179 161.53 126.663 163.863L126.502 164.064C126.218 164.419 125.754 164.392 125.494 164.009C125.31 163.736 125.112 163.472 124.903 163.218L124.896 163.242C123.354 161.262 121.02 160 118.408 160C113.764 160 110 163.988 110 168.908C110 171.329 110.912 173.524 112.391 175.129L124.65 191.234C125.29 192.255 126.706 192.255 127.346 191.234L139.852 174.855C141.187 173.278 142 171.194 142 168.908Z" fill="#FF0000"/>
<path d="M81 233.092C81 238.012 77.2357 242 72.5922 242C69.7166 242 67.1787 240.47 65.6627 238.137L65.502 237.936C65.2181 237.581 64.7538 237.608 64.4943 237.991C64.3095 238.264 64.1122 238.528 63.903 238.782L63.8959 238.758C62.3537 240.738 60.0199 242 57.4078 242C52.7643 242 49 238.012 49 233.092C49 230.671 49.9118 228.476 51.3907 226.871L63.6504 210.766C64.2902 209.745 65.7062 209.745 66.3459 210.766L78.8518 227.145C80.1873 228.722 81 230.806 81 233.092Z" fill="#FF0000"/>
<path d="M203 233.092C203 238.012 199.236 242 194.592 242C191.717 242 189.179 240.47 187.663 238.137L187.502 237.936C187.218 237.581 186.754 237.608 186.494 237.991C186.31 238.264 186.112 238.528 185.903 238.782L185.896 238.758C184.354 240.738 182.02 242 179.408 242C174.764 242 171 238.012 171 233.092C171 230.671 171.912 228.476 173.391 226.871L185.65 210.766C186.29 209.745 187.706 209.745 188.346 210.766L200.852 227.145C202.187 228.722 203 230.806 203 233.092Z" fill="#FF0000"/>
<path d="M81 118.908C81 113.988 77.2357 110 72.5922 110C69.7166 110 67.1787 111.53 65.6627 113.863L65.502 114.064C65.2181 114.419 64.7538 114.392 64.4943 114.009C64.3095 113.736 64.1122 113.472 63.903 113.218L63.8959 113.242C62.3537 111.262 60.0199 110 57.4078 110C52.7643 110 49 113.988 49 118.908C49 121.329 49.9118 123.524 51.3907 125.129L63.6504 141.234C64.2902 142.255 65.7062 142.255 66.3459 141.234L78.8518 124.855C80.1873 123.278 81 121.194 81 118.908Z" fill="#FF0000"/>
<path d="M203 49.9083C203 44.9884 199.236 41 194.592 41C191.717 41 189.179 42.5298 187.663 44.8628L187.502 45.0638C187.218 45.4188 186.754 45.3924 186.494 45.0093C186.31 44.7357 186.112 44.4717 185.903 44.2185L185.896 44.2421C184.354 42.2621 182.02 41 179.408 41C174.764 41 171 44.9884 171 49.9083C171 52.329 171.912 54.5238 173.391 56.1294L185.65 72.2337C186.29 73.2554 187.706 73.2554 188.346 72.2337L200.852 55.8551C202.187 54.278 203 52.1939 203 49.9083Z" fill="#FF0000"/>
<path d="M213 290.546C213 293.006 214.882 295 217.204 295C218.642 295 219.911 294.235 220.669 293.069L220.749 292.968C220.891 292.791 221.123 292.804 221.253 292.995C221.345 293.132 221.444 293.264 221.548 293.391L221.552 293.379C222.323 294.369 223.49 295 224.796 295C227.118 295 229 293.006 229 290.546C229 289.335 228.544 288.238 227.805 287.435L221.675 279.383C221.355 278.872 220.647 278.872 220.327 279.383L214.074 287.572C213.406 288.361 213 289.403 213 290.546Z" fill="#FF0000"/>
<path d="M203 302.092C203 307.012 199.236 311 194.592 311C191.717 311 189.179 309.47 187.663 307.137L187.502 306.936C187.218 306.581 186.754 306.608 186.494 306.991C186.31 307.264 186.112 307.528 185.903 307.782L185.896 307.758C184.354 309.738 182.02 311 179.408 311C174.764 311 171 307.012 171 302.092C171 299.671 171.912 297.476 173.391 295.871L185.65 279.766C186.29 278.745 187.706 278.745 188.346 279.766L200.852 296.145C202.187 297.722 203 299.806 203 302.092Z" fill="#FF0000"/>
<path d="M81 302.092C81 307.012 77.2357 311 72.5922 311C69.7166 311 67.1787 309.47 65.6627 307.137L65.502 306.936C65.2181 306.581 64.7538 306.608 64.4943 306.991C64.3095 307.264 64.1122 307.528 63.903 307.782L63.8959 307.758C62.3537 309.738 60.0199 311 57.4078 311C52.7643 311 49 307.012 49 302.092C49 299.671 49.9118 297.476 51.3907 295.871L63.6504 279.766C64.2902 278.745 65.7062 278.745 66.3459 279.766L78.8518 296.145C80.1873 297.722 81 299.806 81 302.092Z" fill="#FF0000"/>
</svg>
