<svg width="252" height="352" viewBox="0 0 252 352" fill="none" xmlns="http://www.w3.org/2000/svg">
<rect x="1" y="1" width="250" height="350" rx="8" fill="white"/>
<rect x="1" y="1" width="250" height="350" rx="8" stroke="#A8A8A8" stroke-opacity="0.5"/>
<path d="M22.408 47.976H23.496C24.136 47.976 24.7013 47.7307 25.192 47.24C25.6827 46.728 26.056 46.1093 26.312 45.384L33.064 25.64H34.408L41.256 46.344C41.6187 47.432 42.248 47.976 43.144 47.976H44.424V49H33.192V47.976H35.496C35.752 47.976 35.9547 47.88 36.104 47.688C36.2747 47.4747 36.36 47.2293 36.36 46.952C36.36 46.7173 36.296 46.408 36.168 46.024L35.144 42.952H28.424L27.752 44.904C27.5173 45.5013 27.4 46.0453 27.4 46.536C27.4 46.92 27.5493 47.2613 27.848 47.56C28.168 47.8373 28.5733 47.976 29.064 47.976H30.568V49H22.408V47.976ZM28.84 41.768H34.76L31.848 32.968L28.84 41.768Z" fill="#FF0000"/>
<path d="M229.592 304.024H228.504C227.864 304.024 227.299 304.269 226.808 304.76C226.317 305.272 225.944 305.891 225.688 306.616L218.936 326.36H217.592L210.744 305.656C210.381 304.568 209.752 304.024 208.856 304.024H207.576V303H218.808V304.024H216.504C216.248 304.024 216.045 304.12 215.896 304.312C215.725 304.525 215.64 304.771 215.64 305.048C215.64 305.283 215.704 305.592 215.832 305.976L216.856 309.048H223.576L224.248 307.096C224.483 306.499 224.6 305.955 224.6 305.464C224.6 305.08 224.451 304.739 224.152 304.44C223.832 304.163 223.427 304.024 222.936 304.024H221.432V303H229.592V304.024ZM223.16 310.232H217.24L220.152 319.032L223.16 310.232Z" fill="#FF0000"/>
<line x1="60" y1="36.5" x2="215" y2="36.5" stroke="#FF0000"/>
<line x1="215.5" y1="36" x2="215.5" y2="259" stroke="#FF0000"/>
<line x1="192" y1="315.5" x2="37" y2="315.5" stroke="#FF0000"/>
<line x1="36.5" y1="316" x2="36.5" y2="93" stroke="#FF0000"/>
<path d="M53 65.9083C53 60.9884 49.2357 57 44.5922 57C41.7166 57 39.1787 58.5298 37.6627 60.8628L37.502 61.0638C37.2181 61.4188 36.7538 61.3924 36.4943 61.0093C36.3095 60.7357 36.1122 60.4717 35.903 60.2185L35.8959 60.2421C34.3537 58.2621 32.0199 57 29.4078 57C24.7643 57 21 60.9884 21 65.9083C21 68.329 21.9118 70.5238 23.3907 72.1294L35.6504 88.2337C36.2902 89.2554 37.7062 89.2554 38.3459 88.2337L50.8518 71.8551C52.1873 70.278 53 68.1939 53 65.9083Z" fill="#FF0000"/>
<path d="M231 286.092C231 291.012 227.236 295 222.592 295C219.717 295 217.179 293.47 215.663 291.137L215.502 290.936C215.218 290.581 214.754 290.608 214.494 290.991C214.31 291.264 214.112 291.528 213.903 291.782L213.896 291.758C212.354 293.738 210.02 295 207.408 295C202.764 295 199 291.012 199 286.092C199 283.671 199.912 281.476 201.391 279.871L213.65 263.766C214.29 262.745 215.706 262.745 216.346 263.766L228.852 280.145C230.187 281.722 231 283.806 231 286.092Z" fill="#FF0000"/>
<path d="M192 147.633C192 127.953 176.943 112 158.369 112C146.867 112 136.715 118.119 130.651 127.451L130.008 128.255C128.872 129.675 127.015 129.57 125.977 128.037C125.238 126.943 124.449 125.887 123.612 124.874L123.584 124.968C117.415 117.048 108.08 112 97.6313 112C79.0572 112 64 127.953 64 147.633C64 157.316 67.647 166.095 73.563 172.518L122.602 236.935C125.161 241.022 130.825 241.022 133.384 236.935L183.407 171.42C188.749 165.112 192 156.776 192 147.633Z" fill="#FF0000"/>
</svg>
