<svg width="252" height="352" viewBox="0 0 252 352" fill="none" xmlns="http://www.w3.org/2000/svg">
<rect x="251" y="351" width="250" height="350" rx="8" transform="rotate(180 251 351)" fill="white"/>
<rect x="251" y="351" width="250" height="350" rx="8" transform="rotate(180 251 351)" stroke="#A8A8A8" stroke-opacity="0.5"/>
<path d="M222.744 302.488C223.747 302.488 224.611 302.691 225.336 303.096C226.061 303.523 226.616 304.067 227 304.728C227.363 305.389 227.544 306.093 227.544 306.84C227.544 307.757 227.277 308.536 226.744 309.176C226.211 309.816 225.517 310.136 224.664 310.136C224.024 310.136 223.512 309.933 223.128 309.528C222.723 309.144 222.52 308.632 222.52 307.992C222.52 307.011 223 306.349 223.96 306.008C224.387 305.859 224.707 305.709 224.92 305.56C225.133 305.411 225.24 305.219 225.24 304.984C225.24 304.557 225.016 304.205 224.568 303.928C224.12 303.651 223.501 303.512 222.712 303.512C221.517 303.512 220.643 304.024 220.088 305.048C219.512 306.072 219.224 307.299 219.224 308.728V313.304L219.416 313.4C219.757 313.059 220.205 312.792 220.76 312.6C221.315 312.429 221.901 312.344 222.52 312.344C224.653 312.344 226.253 312.973 227.32 314.232C228.365 315.491 228.888 317.101 228.888 319.064C228.888 320.28 228.643 321.432 228.152 322.52C227.64 323.629 226.861 324.536 225.816 325.24C224.749 325.944 223.427 326.296 221.848 326.296C220.269 326.296 218.904 325.784 217.752 324.76C216.579 323.736 215.683 322.36 215.064 320.632C214.424 318.904 214.104 317.005 214.104 314.936C214.104 312.483 214.456 310.317 215.16 308.44C215.843 306.563 216.835 305.101 218.136 304.056C219.437 303.011 220.973 302.488 222.744 302.488ZM222.104 313.56C220.952 313.56 220.163 314.008 219.736 314.904C219.523 315.309 219.384 315.875 219.32 316.6C219.256 317.325 219.224 318.307 219.224 319.544C219.224 321.485 219.427 322.925 219.832 323.864C220.237 324.803 220.899 325.272 221.816 325.272C222.541 325.272 223.075 325.016 223.416 324.504C223.736 324.013 223.939 323.373 224.024 322.584C224.109 321.816 224.152 320.749 224.152 319.384C224.152 317.656 224.013 316.248 223.736 315.16C223.437 314.093 222.893 313.56 222.104 313.56Z" fill="black"/>
<path d="M29.256 49.512C28.2533 49.512 27.3893 49.3093 26.664 48.904C25.9387 48.4773 25.384 47.9333 25 47.272C24.6373 46.6107 24.456 45.9067 24.456 45.16C24.456 44.2427 24.7227 43.464 25.256 42.824C25.7893 42.184 26.4827 41.864 27.336 41.864C27.976 41.864 28.488 42.0667 28.872 42.472C29.2773 42.856 29.48 43.368 29.48 44.008C29.48 44.9893 29 45.6507 28.04 45.992C27.6133 46.1413 27.2933 46.2907 27.08 46.44C26.8667 46.5893 26.76 46.7813 26.76 47.016C26.76 47.4427 26.984 47.7947 27.432 48.072C27.88 48.3493 28.4987 48.488 29.288 48.488C30.4827 48.488 31.3573 47.976 31.912 46.952C32.488 45.928 32.776 44.7013 32.776 43.272V38.696L32.584 38.6C32.2427 38.9413 31.7947 39.208 31.24 39.4C30.6853 39.5707 30.0987 39.656 29.48 39.656C27.3467 39.656 25.7467 39.0267 24.68 37.768C23.6347 36.5093 23.112 34.8987 23.112 32.936C23.112 31.72 23.3573 30.568 23.848 29.48C24.36 28.3707 25.1387 27.464 26.184 26.76C27.2507 26.056 28.5733 25.704 30.152 25.704C31.7307 25.704 33.096 26.216 34.248 27.24C35.4213 28.264 36.3173 29.64 36.936 31.368C37.576 33.096 37.896 34.9947 37.896 37.064C37.896 39.5173 37.544 41.6827 36.84 43.56C36.1573 45.4373 35.1653 46.8987 33.864 47.944C32.5627 48.9893 31.0267 49.512 29.256 49.512ZM29.896 38.44C31.048 38.44 31.8373 37.992 32.264 37.096C32.4773 36.6907 32.616 36.1253 32.68 35.4C32.744 34.6747 32.776 33.6933 32.776 32.456C32.776 30.5147 32.5733 29.0747 32.168 28.136C31.7627 27.1973 31.1013 26.728 30.184 26.728C29.4587 26.728 28.9253 26.984 28.584 27.496C28.264 27.9867 28.0613 28.6267 27.976 29.416C27.8907 30.184 27.848 31.2507 27.848 32.616C27.848 34.344 27.9867 35.752 28.264 36.84C28.5627 37.9067 29.1067 38.44 29.896 38.44Z" fill="black"/>
<path d="M214.659 285.384C214.659 283.427 216.346 282.53 217.513 282.53C218.815 282.53 219.798 283.119 220.383 283.6C220.306 282.008 219.929 280.871 218.238 279.975H223.762C222.071 280.871 221.694 282.008 221.617 283.6C222.202 283.119 223.186 282.529 224.487 282.53C225.652 282.53 227.341 283.427 227.341 285.384C227.341 288.961 224.821 287.988 221 294.024C217.179 287.988 214.659 288.961 214.659 285.384Z" fill="black"/>
<path d="M81 291.32C81 286.862 76.7421 284.82 73.7978 284.818C70.5144 284.818 68.0338 286.161 66.5569 287.257C66.7517 283.63 67.7026 281.039 71.97 279H58.03C62.2974 281.039 63.2483 283.63 63.4431 287.257C61.9662 286.161 59.4848 284.817 56.2022 284.818C53.2619 284.818 49 286.862 49 291.32C49 299.468 55.3585 297.25 64.9996 311C74.6415 297.25 81 299.467 81 291.32Z" fill="black"/>
<path d="M81 291.32C81 286.862 76.7421 284.82 73.7978 284.818C70.5144 284.818 68.0338 286.161 66.5569 287.257C66.7517 283.63 67.7026 281.039 71.97 279H58.03C62.2974 281.039 63.2483 283.63 63.4431 287.257C61.9662 286.161 59.4848 284.817 56.2022 284.818C53.2619 284.818 49 286.862 49 291.32C49 299.468 55.3585 297.25 64.9996 311C74.6415 297.25 81 299.467 81 291.32Z" fill="black"/>
<path d="M81 222.32C81 217.862 76.7421 215.82 73.7978 215.818C70.5144 215.818 68.0338 217.161 66.5569 218.257C66.7517 214.63 67.7026 212.039 71.97 210H58.03C62.2974 212.039 63.2483 214.63 63.4431 218.257C61.9662 217.161 59.4848 215.817 56.2022 215.818C53.2619 215.818 49 217.862 49 222.32C49 230.468 55.3585 228.25 64.9996 242C74.6415 228.25 81 230.467 81 222.32Z" fill="black"/>
<path d="M203 222.32C203 217.862 198.742 215.82 195.798 215.818C192.514 215.818 190.034 217.161 188.557 218.257C188.752 214.63 189.703 212.039 193.97 210H180.03C184.297 212.039 185.248 214.63 185.443 218.257C183.966 217.161 181.485 215.817 178.202 215.818C175.262 215.818 171 217.862 171 222.32C171 230.468 177.359 228.25 187 242C196.641 228.25 203 230.467 203 222.32Z" fill="black"/>
<path d="M171 291.32C171 286.862 175.258 284.82 178.202 284.818C181.486 284.818 183.966 286.161 185.443 287.257C185.248 283.63 184.297 281.039 180.03 279H193.97C189.703 281.039 188.752 283.63 188.557 287.257C190.034 286.161 192.515 284.817 195.798 284.818C198.738 284.818 203 286.862 203 291.32C203 299.468 196.641 297.25 187 311C177.359 297.25 171 299.467 171 291.32Z" fill="black"/>
<path d="M49 60.6803C49 65.1383 53.2579 67.1804 56.2022 67.1818C59.4856 67.1818 61.9662 65.8394 63.4431 64.7432C63.2483 68.3698 62.2974 70.9607 58.03 73H71.97C67.7026 70.9607 66.7517 68.3698 66.5569 64.7432C68.0338 65.8387 70.5152 67.1832 73.7978 67.1818C76.7381 67.1818 81 65.1383 81 60.6803C81 52.5324 74.6415 54.7497 65.0004 41C55.3585 54.7497 49 52.5332 49 60.6803Z" fill="black"/>
<path d="M171 60.6803C171 65.1383 175.258 67.1804 178.202 67.1818C181.486 67.1818 183.966 65.8394 185.443 64.7432C185.248 68.3698 184.297 70.9607 180.03 73H193.97C189.703 70.9607 188.752 68.3698 188.557 64.7432C190.034 65.8387 192.515 67.1832 195.798 67.1818C198.738 67.1818 203 65.1383 203 60.6803C203 52.5324 196.641 54.7497 187 41C177.359 54.7497 171 52.5332 171 60.6803Z" fill="black"/>
<path d="M81 129.68C81 134.138 76.7421 136.18 73.7978 136.182C70.5144 136.182 68.0338 134.839 66.5569 133.743C66.7517 137.37 67.7026 139.961 71.97 142H58.03C62.2974 139.961 63.2483 137.37 63.4431 133.743C61.9662 134.839 59.4848 136.183 56.2022 136.182C53.2619 136.182 49 134.138 49 129.68C49 121.532 55.3585 123.75 64.9996 110C74.6415 123.75 81 121.533 81 129.68Z" fill="black"/>
<path d="M203 129.68C203 134.138 198.742 136.18 195.798 136.182C192.514 136.182 190.034 134.839 188.557 133.743C188.752 137.37 189.703 139.961 193.97 142H180.03C184.297 139.961 185.248 137.37 185.443 133.743C183.966 134.839 181.485 136.183 178.202 136.182C175.262 136.182 171 134.138 171 129.68C171 121.532 177.359 123.75 187 110C196.641 123.75 203 121.533 203 129.68Z" fill="black"/>
<path d="M142 179.68C142 184.138 137.742 186.18 134.798 186.182C131.514 186.182 129.034 184.839 127.557 183.743C127.752 187.37 128.703 189.961 132.97 192H119.03C123.297 189.961 124.248 187.37 124.443 183.743C122.966 184.839 120.485 186.183 117.202 186.182C114.262 186.182 110 184.138 110 179.68C110 171.532 116.359 173.75 126 160C135.641 173.75 142 171.533 142 179.68Z" fill="black"/>
<path d="M37.3411 66.6159C37.3411 68.5731 35.6536 69.4696 34.4867 69.4703C33.1855 69.4703 32.2023 68.8809 31.617 68.3996C31.6942 69.9918 32.0711 71.1293 33.7623 72.0246H28.2377C29.9289 71.1293 30.3058 69.9918 30.383 68.3996C29.7977 68.8806 28.8142 69.4709 27.5133 69.4703C26.348 69.4703 24.6589 68.5731 24.6589 66.6159C24.6589 63.0387 27.1789 64.0121 30.9998 57.9756C34.8211 64.0121 37.3411 63.039 37.3411 66.6159Z" fill="black"/>
</svg>
