<svg width="252" height="352" viewBox="0 0 252 352" fill="none" xmlns="http://www.w3.org/2000/svg">
<rect x="1" y="1" width="250" height="350" rx="8" fill="white"/>
<rect x="1" y="1" width="250" height="350" rx="8" stroke="#A8A8A8" stroke-opacity="0.5"/>
<path d="M29.984 43.976H32.224C32.5227 43.976 32.7253 43.9227 32.832 43.816C32.9387 43.688 32.992 43.4853 32.992 43.208V24.008C32.992 23.7093 32.9387 23.5067 32.832 23.4C32.7253 23.2933 32.5227 23.24 32.224 23.24H29.984V22.216H40.48V23.24H38.496C38.2187 23.24 38.016 23.2933 37.888 23.4C37.7813 23.5067 37.728 23.7093 37.728 24.008V33.48L43.904 26.312C44.2027 25.9707 44.4053 25.6827 44.512 25.448C44.64 25.192 44.704 24.904 44.704 24.584C44.704 24.2 44.5973 23.88 44.384 23.624C44.1707 23.368 43.8933 23.24 43.552 23.24H42.624V22.216H50.528V23.24H49.408C48.96 23.24 48.4907 23.4 48 23.72C47.5307 24.0187 47.1147 24.392 46.752 24.84L42.464 29.8L49.216 42.568C49.4933 43.1013 49.76 43.4747 50.016 43.688C50.272 43.88 50.6453 43.976 51.136 43.976H52V45H41.952V43.976H43.232C43.424 43.976 43.584 43.912 43.712 43.784C43.84 43.6347 43.904 43.4747 43.904 43.304C43.904 43.176 43.8827 43.0373 43.84 42.888C43.8187 42.7173 43.7867 42.5893 43.744 42.504L39.104 33.672L37.728 35.24V43.208C37.728 43.4853 37.7813 43.688 37.888 43.816C38.016 43.9227 38.2187 43.976 38.496 43.976H40.48V45H29.984V43.976Z" fill="black"/>
<path d="M222.016 308.024H219.776C219.477 308.024 219.275 308.077 219.168 308.184C219.061 308.312 219.008 308.515 219.008 308.792V327.992C219.008 328.291 219.061 328.493 219.168 328.6C219.275 328.707 219.477 328.76 219.776 328.76H222.016V329.784H211.52V328.76H213.504C213.781 328.76 213.984 328.707 214.112 328.6C214.219 328.493 214.272 328.291 214.272 327.992V318.52L208.096 325.688C207.797 326.029 207.595 326.317 207.488 326.552C207.36 326.808 207.296 327.096 207.296 327.416C207.296 327.8 207.403 328.12 207.616 328.376C207.829 328.632 208.107 328.76 208.448 328.76H209.376V329.784H201.472V328.76H202.592C203.04 328.76 203.509 328.6 204 328.28C204.469 327.981 204.885 327.608 205.248 327.16L209.536 322.2L202.784 309.432C202.507 308.899 202.24 308.525 201.984 308.312C201.728 308.12 201.355 308.024 200.864 308.024H200V307H210.048V308.024H208.768C208.576 308.024 208.416 308.088 208.288 308.216C208.16 308.365 208.096 308.525 208.096 308.696C208.096 308.824 208.117 308.963 208.16 309.112C208.181 309.283 208.213 309.411 208.256 309.496L212.896 318.328L214.272 316.76V308.792C214.272 308.515 214.219 308.312 214.112 308.184C213.984 308.077 213.781 308.024 213.504 308.024H211.52V307H222.016V308.024Z" fill="black"/>
<path d="M49.6822 76.2318C49.6822 80.1462 46.3072 81.9393 43.9734 81.9405C41.3709 81.9405 39.4047 80.7618 38.2341 79.7993C38.3884 82.9837 39.1422 85.2587 42.5247 87.0493H31.4753C34.8578 85.2587 35.6116 82.9837 35.7659 79.7993C34.5953 80.7612 32.6284 81.9418 30.0266 81.9405C27.6959 81.9405 24.3178 80.1462 24.3178 76.2318C24.3178 69.0774 29.3578 71.0243 36.9997 58.9512C44.6422 71.0243 49.6822 69.078 49.6822 76.2318Z" fill="black"/>
<path d="M227.682 275.768C227.682 271.854 224.307 270.061 221.973 270.059C219.371 270.059 217.405 271.238 216.234 272.201C216.388 269.016 217.142 266.741 220.525 264.951H209.475C212.858 266.741 213.612 269.016 213.766 272.201C212.595 271.239 210.628 270.058 208.027 270.059C205.696 270.059 202.318 271.854 202.318 275.768C202.318 282.923 207.358 280.976 215 293.049C222.642 280.976 227.682 282.922 227.682 275.768Z" fill="black"/>
<line x1="60" y1="36.5" x2="215" y2="36.5" stroke="black"/>
<line x1="215.5" y1="36" x2="215.5" y2="259" stroke="black"/>
<line x1="192" y1="315.5" x2="37" y2="315.5" stroke="black"/>
<line x1="36.5" y1="316" x2="36.5" y2="93" stroke="black"/>
<path d="M83.936 223.904H92.896C94.0907 223.904 94.9013 223.691 95.328 223.264C95.7547 222.752 95.968 221.941 95.968 220.832V144.032C95.968 142.837 95.7547 142.027 95.328 141.6C94.9013 141.173 94.0907 140.96 92.896 140.96H83.936V136.864H125.92V140.96H117.984C116.875 140.96 116.064 141.173 115.552 141.6C115.125 142.027 114.912 142.837 114.912 144.032V181.92L139.616 153.248C140.811 151.883 141.621 150.731 142.048 149.792C142.56 148.768 142.816 147.616 142.816 146.336C142.816 144.8 142.389 143.52 141.536 142.496C140.683 141.472 139.573 140.96 138.208 140.96H134.496V136.864H166.112V140.96H161.632C159.84 140.96 157.963 141.6 156 142.88C154.123 144.075 152.459 145.568 151.008 147.36L133.856 167.2L160.864 218.272C161.973 220.405 163.04 221.899 164.064 222.752C165.088 223.52 166.581 223.904 168.544 223.904H172V228H131.808V223.904H136.928C137.696 223.904 138.336 223.648 138.848 223.136C139.36 222.539 139.616 221.899 139.616 221.216C139.616 220.704 139.531 220.149 139.36 219.552C139.275 218.869 139.147 218.357 138.976 218.016L120.416 182.688L114.912 188.96V220.832C114.912 221.941 115.125 222.752 115.552 223.264C116.064 223.691 116.875 223.904 117.984 223.904H125.92V228H83.936V223.904Z" fill="black"/>
<path d="M113.675 92.7051C114.884 92.7051 115.862 91.3098 115.862 89.5874C115.862 87.8651 114.884 86.4697 113.675 86.4697C112.468 86.4697 111.49 87.8651 111.49 89.5874C111.49 91.3098 112.468 92.7051 113.675 92.7051Z" fill="black"/>
<path d="M106.374 97.0521C106.374 95.3299 105.394 93.9346 104.187 93.9346C102.98 93.9346 102 95.3299 102 97.0521C102 98.7745 102.98 100.17 104.187 100.17C105.394 100.17 106.374 98.7745 106.374 97.0521Z" fill="black"/>
<path d="M138.325 92.7051C139.533 92.7051 140.512 91.3098 140.512 89.5874C140.512 87.8651 139.533 86.4697 138.325 86.4697C137.118 86.4697 136.139 87.8651 136.139 89.5874C136.139 91.3098 137.118 92.7051 138.325 92.7051Z" fill="black"/>
<path d="M147.814 93.9346C146.606 93.9346 145.627 95.3299 145.627 97.0521C145.627 98.7745 146.606 100.17 147.814 100.17C149.021 100.17 150 98.7745 150 97.0521C150 95.3299 149.021 93.9346 147.814 93.9346Z" fill="black"/>
<path d="M142.492 122.148H109.509V127H142.492V122.148Z" fill="black"/>
<path d="M139.518 105.272C136.337 102.155 138.127 94.2178 138.127 94.2178L136.309 93.4611C132.492 103.806 126.877 103.321 127.315 91.7596V88.0546H130.473V84.3049H127.315V79H124.685V84.3047H121.525V88.0545H124.685V91.7594C125.123 103.321 119.51 103.806 115.691 93.4609L113.875 94.2177C113.875 94.2177 115.663 102.155 112.483 105.272C109.302 108.39 106.518 100.737 106.518 100.737L104.73 101.87L109.7 118.878H142.3L147.27 101.871L145.481 100.738C145.481 100.738 142.699 108.39 139.518 105.272ZM118.017 111.697C117.149 111.697 116.445 110.694 116.445 109.456C116.445 108.219 117.149 107.217 118.017 107.217C118.884 107.217 119.588 108.219 119.588 109.456C119.588 110.694 118.884 111.697 118.017 111.697ZM126.001 110.577C125.133 110.577 124.429 109.574 124.429 108.336C124.429 107.1 125.133 106.097 126.001 106.097C126.868 106.097 127.571 107.1 127.571 108.336C127.571 109.574 126.868 110.577 126.001 110.577ZM133.984 111.697C133.116 111.697 132.414 110.694 132.414 109.456C132.414 108.219 133.116 107.217 133.984 107.217C134.852 107.217 135.555 108.219 135.555 109.456C135.555 110.694 134.852 111.697 133.984 111.697Z" fill="black"/>
</svg>
