<svg width="252" height="352" viewBox="0 0 252 352" fill="none" xmlns="http://www.w3.org/2000/svg">
<rect x="251" y="351" width="250" height="350" rx="8" transform="rotate(-180 251 351)" fill="white"/>
<rect x="251" y="351" width="250" height="350" rx="8" transform="rotate(-180 251 351)" stroke="#A8A8A8" stroke-opacity="0.5"/>
<path d="M220.248 302.488C221.613 302.488 223 303.277 224.408 304.856C224.813 305.304 225.155 305.613 225.432 305.784C225.688 305.976 226.008 306.072 226.392 306.072C226.691 306.072 226.936 305.976 227.128 305.784C227.32 305.613 227.416 305.368 227.416 305.048V303H228.696V304.504C228.696 305.336 228.621 306.115 228.472 306.84C228.301 307.587 227.917 308.451 227.32 309.432C226.723 310.435 225.805 311.523 224.568 312.696C223.011 314.211 221.805 315.587 220.952 316.824C220.099 318.083 219.672 319.448 219.672 320.92C219.672 322.115 219.917 323.117 220.408 323.928C220.899 324.739 221.731 325.144 222.904 325.144C223.715 325.144 224.397 324.877 224.952 324.344C225.485 323.832 225.752 323.224 225.752 322.52C225.752 321.667 225.453 321.027 224.856 320.6C224.387 320.259 224.035 319.917 223.8 319.576C223.544 319.256 223.416 318.851 223.416 318.36C223.416 317.805 223.619 317.347 224.024 316.984C224.429 316.621 224.941 316.44 225.56 316.44C226.477 316.44 227.277 316.771 227.96 317.432C228.621 318.093 228.952 318.979 228.952 320.088C228.952 321.219 228.653 322.253 228.056 323.192C227.437 324.152 226.605 324.909 225.56 325.464C224.493 326.019 223.32 326.296 222.04 326.296C219.693 326.296 217.912 325.752 216.696 324.664C215.48 323.597 214.872 322.179 214.872 320.408C214.872 319.192 215.256 318.093 216.024 317.112C216.771 316.131 217.688 315.277 218.776 314.552C219.843 313.848 221.197 313.059 222.84 312.184C223.757 311.672 224.621 311.021 225.432 310.232C226.243 309.443 226.797 308.493 227.096 307.384L226.968 307.32C226.2 307.939 225.336 308.248 224.376 308.248C223.992 308.248 223.533 308.195 223 308.088C222.445 307.981 221.987 307.864 221.624 307.736C220.557 307.395 219.587 307.224 218.712 307.224C217.944 307.224 217.304 307.448 216.792 307.896C216.28 308.365 216.024 308.909 216.024 309.528C216.024 310.147 216.077 310.861 216.184 311.672H215.192C215.064 310.755 215 309.923 215 309.176C215 308.088 215.181 307.032 215.544 306.008C215.885 305.005 216.451 304.163 217.24 303.48C218.029 302.819 219.032 302.488 220.248 302.488Z" fill="black"/>
<path d="M31.752 49.512C30.3867 49.512 29 48.7227 27.592 47.144C27.1867 46.696 26.8453 46.3867 26.568 46.216C26.312 46.024 25.992 45.928 25.608 45.928C25.3093 45.928 25.064 46.024 24.872 46.216C24.68 46.3867 24.584 46.632 24.584 46.952V49H23.304V47.496C23.304 46.664 23.3787 45.8853 23.528 45.16C23.6987 44.4133 24.0827 43.5493 24.68 42.568C25.2773 41.5653 26.1947 40.4773 27.432 39.304C28.9893 37.7893 30.1947 36.4133 31.048 35.176C31.9013 33.9173 32.328 32.552 32.328 31.08C32.328 29.8853 32.0827 28.8827 31.592 28.072C31.1013 27.2613 30.2693 26.856 29.096 26.856C28.2853 26.856 27.6027 27.1227 27.048 27.656C26.5147 28.168 26.248 28.776 26.248 29.48C26.248 30.3333 26.5467 30.9733 27.144 31.4C27.6133 31.7413 27.9653 32.0827 28.2 32.424C28.456 32.744 28.584 33.1493 28.584 33.64C28.584 34.1947 28.3813 34.6533 27.976 35.016C27.5707 35.3787 27.0587 35.56 26.44 35.56C25.5227 35.56 24.7227 35.2293 24.04 34.568C23.3787 33.9067 23.048 33.0213 23.048 31.912C23.048 30.7813 23.3467 29.7467 23.944 28.808C24.5627 27.848 25.3947 27.0907 26.44 26.536C27.5067 25.9813 28.68 25.704 29.96 25.704C32.3067 25.704 34.088 26.248 35.304 27.336C36.52 28.4027 37.128 29.8213 37.128 31.592C37.128 32.808 36.744 33.9067 35.976 34.888C35.2293 35.8693 34.312 36.7227 33.224 37.448C32.1573 38.152 30.8027 38.9413 29.16 39.816C28.2427 40.328 27.3787 40.9787 26.568 41.768C25.7573 42.5573 25.2027 43.5067 24.904 44.616L25.032 44.68C25.8 44.0613 26.664 43.752 27.624 43.752C28.008 43.752 28.4667 43.8053 29 43.912C29.5547 44.0187 30.0133 44.136 30.376 44.264C31.4427 44.6053 32.4133 44.776 33.288 44.776C34.056 44.776 34.696 44.552 35.208 44.104C35.72 43.6347 35.976 43.0907 35.976 42.472C35.976 41.8533 35.9227 41.1387 35.816 40.328H36.808C36.936 41.2453 37 42.0773 37 42.824C37 43.912 36.8187 44.968 36.456 45.992C36.1147 46.9947 35.5493 47.8373 34.76 48.52C33.9707 49.1813 32.968 49.512 31.752 49.512Z" fill="black"/>
<path d="M214.659 285.384C214.659 283.427 216.346 282.53 217.513 282.53C218.815 282.53 219.798 283.119 220.383 283.6C220.306 282.008 219.929 280.871 218.238 279.975H223.762C222.071 280.871 221.694 282.008 221.617 283.6C222.202 283.12 223.186 282.529 224.487 282.53C225.652 282.53 227.341 283.427 227.341 285.384C227.341 288.961 224.821 287.988 221 294.025C217.179 287.988 214.659 288.961 214.659 285.384Z" fill="black"/>
<path d="M110 275.32C110 270.862 114.258 268.82 117.202 268.818C120.486 268.818 122.966 270.161 124.443 271.257C124.248 267.63 123.297 265.039 119.03 263H132.97C128.703 265.039 127.752 267.63 127.557 271.257C129.034 270.161 131.515 268.817 134.798 268.818C137.738 268.818 142 270.862 142 275.32C142 283.468 135.641 281.25 126 295C116.359 281.25 110 283.467 110 275.32Z" fill="black"/>
<path d="M110 76.6803C110 81.1383 114.258 83.1804 117.202 83.1818C120.486 83.1818 122.966 81.8394 124.443 80.7432C124.248 84.3698 123.297 86.9607 119.03 89H132.97C128.703 86.9607 127.752 84.3698 127.557 80.7432C129.034 81.8387 131.515 83.1832 134.798 83.1818C137.738 83.1818 142 81.1383 142 76.6803C142 68.5324 135.641 70.7497 126 57C116.359 70.7497 110 68.5332 110 76.6803Z" fill="black"/>
<path d="M37.3411 66.6158C37.3411 68.573 35.6536 69.4695 34.4867 69.4702C33.1855 69.4702 32.2023 68.8808 31.617 68.3995C31.6942 69.9917 32.0711 71.1292 33.7623 72.0245H28.2377C29.9289 71.1292 30.3058 69.9917 30.383 68.3995C29.7977 68.8805 28.8142 69.4708 27.5133 69.4702C26.348 69.4702 24.6589 68.573 24.6589 66.6158C24.6589 63.0386 27.1789 64.012 30.9998 57.9755C34.8211 64.012 37.3411 63.0389 37.3411 66.6158Z" fill="black"/>
</svg>
