<svg width="252" height="352" viewBox="0 0 252 352" fill="none" xmlns="http://www.w3.org/2000/svg">
<rect x="251" y="351" width="250" height="350" rx="8" transform="rotate(180 251 351)" fill="white"/>
<rect x="251" y="351" width="250" height="350" rx="8" transform="rotate(180 251 351)" stroke="#A8A8A8" stroke-opacity="0.5"/>
<path d="M221.624 302.488C222.392 302.488 223.032 302.787 223.544 303.384C224.035 303.981 224.28 304.792 224.28 305.816C224.28 307.096 223.971 308.301 223.352 309.432C222.712 310.563 221.827 311.789 220.696 313.112C219.032 315.032 217.795 316.675 216.984 318.04C216.451 318.979 216.067 319.971 215.832 321.016L215.96 321.112C216.621 320.557 217.357 320.28 218.168 320.28C219.021 320.28 219.949 320.472 220.952 320.856C221.848 321.155 222.723 321.304 223.576 321.304C224.451 321.304 225.165 321.08 225.72 320.632C226.275 320.205 226.595 319.533 226.68 318.616L226.84 316.696H227.992L227.256 325.784H226.104L226.264 323.672L226.136 323.608C224.899 325.229 223.544 326.04 222.072 326.04C221.411 326.04 220.867 325.859 220.44 325.496C219.992 325.155 219.544 324.664 219.096 324.024C218.669 323.405 218.285 322.925 217.944 322.584C217.603 322.243 217.261 322.072 216.92 322.072C216.237 322.072 215.896 322.392 215.896 323.032C215.896 323.416 216.109 323.736 216.536 323.992C217.069 324.291 217.336 324.685 217.336 325.176C217.336 325.432 217.251 325.635 217.08 325.784C216.909 325.955 216.675 326.04 216.376 326.04C215.821 326.04 215.373 325.72 215.032 325.08C214.669 324.44 214.488 323.779 214.488 323.096C214.488 321.709 214.691 320.44 215.096 319.288C215.501 318.157 216.141 316.877 217.016 315.448C217.827 314.104 218.392 312.611 218.712 310.968C219.011 309.347 219.16 307.619 219.16 305.784C219.16 304.675 219.384 303.843 219.832 303.288C220.259 302.755 220.856 302.488 221.624 302.488Z" fill="black"/>
<path d="M30.376 49.512C29.608 49.512 28.968 49.2133 28.456 48.616C27.9653 48.0187 27.72 47.208 27.72 46.184C27.72 44.904 28.0293 43.6987 28.648 42.568C29.288 41.4373 30.1733 40.2107 31.304 38.888C32.968 36.968 34.2053 35.3253 35.016 33.96C35.5493 33.0213 35.9333 32.0293 36.168 30.984L36.04 30.888C35.3787 31.4427 34.6427 31.72 33.832 31.72C32.9787 31.72 32.0507 31.528 31.048 31.144C30.152 30.8453 29.2773 30.696 28.424 30.696C27.5493 30.696 26.8347 30.92 26.28 31.368C25.7253 31.7947 25.4053 32.4667 25.32 33.384L25.16 35.304H24.008L24.744 26.216H25.896L25.736 28.328L25.864 28.392C27.1013 26.7707 28.456 25.96 29.928 25.96C30.5893 25.96 31.1333 26.1413 31.56 26.504C32.008 26.8453 32.456 27.336 32.904 27.976C33.3307 28.5947 33.7147 29.0747 34.056 29.416C34.3973 29.7573 34.7387 29.928 35.08 29.928C35.7627 29.928 36.104 29.608 36.104 28.968C36.104 28.584 35.8907 28.264 35.464 28.008C34.9307 27.7093 34.664 27.3147 34.664 26.824C34.664 26.568 34.7493 26.3653 34.92 26.216C35.0907 26.0453 35.3253 25.96 35.624 25.96C36.1787 25.96 36.6267 26.28 36.968 26.92C37.3307 27.56 37.512 28.2213 37.512 28.904C37.512 30.2907 37.3093 31.56 36.904 32.712C36.4987 33.8427 35.8587 35.1227 34.984 36.552C34.1733 37.896 33.608 39.3893 33.288 41.032C32.9893 42.6533 32.84 44.3813 32.84 46.216C32.84 47.3253 32.616 48.1573 32.168 48.712C31.7413 49.2453 31.144 49.512 30.376 49.512Z" fill="black"/>
<path d="M214.659 285.384C214.659 283.427 216.346 282.53 217.513 282.53C218.815 282.53 219.798 283.119 220.383 283.6C220.306 282.008 219.929 280.871 218.238 279.975H223.762C222.071 280.871 221.694 282.008 221.617 283.6C222.202 283.119 223.186 282.529 224.487 282.53C225.652 282.53 227.341 283.427 227.341 285.384C227.341 288.961 224.821 287.988 221 294.024C217.179 287.988 214.659 288.961 214.659 285.384Z" fill="black"/>
<path d="M81 291.32C81 286.862 76.7421 284.82 73.7978 284.818C70.5144 284.818 68.0338 286.161 66.5569 287.257C66.7517 283.63 67.7026 281.039 71.97 279H58.03C62.2974 281.039 63.2483 283.63 63.4431 287.257C61.9662 286.161 59.4848 284.817 56.2022 284.818C53.2619 284.818 49 286.862 49 291.32C49 299.468 55.3585 297.25 64.9996 311C74.6415 297.25 81 299.467 81 291.32Z" fill="black"/>
<path d="M171 291.32C171 286.862 175.258 284.82 178.202 284.818C181.486 284.818 183.966 286.161 185.443 287.257C185.248 283.63 184.297 281.039 180.03 279H193.97C189.703 281.039 188.752 283.63 188.557 287.257C190.034 286.161 192.515 284.817 195.798 284.818C198.738 284.818 203 286.862 203 291.32C203 299.468 196.641 297.25 187 311C177.359 297.25 171 299.467 171 291.32Z" fill="black"/>
<path d="M49 60.6803C49 65.1383 53.2579 67.1804 56.2022 67.1818C59.4856 67.1818 61.9662 65.8394 63.4431 64.7432C63.2483 68.3698 62.2974 70.9607 58.03 73H71.97C67.7026 70.9607 66.7517 68.3698 66.5569 64.7432C68.0338 65.8387 70.5152 67.1832 73.7978 67.1818C76.7381 67.1818 81 65.1383 81 60.6803C81 52.5324 74.6415 54.7497 65.0004 41C55.3585 54.7497 49 52.5332 49 60.6803Z" fill="black"/>
<path d="M171 60.6803C171 65.1383 175.258 67.1804 178.202 67.1818C181.486 67.1818 183.966 65.8394 185.443 64.7432C185.248 68.3698 184.297 70.9607 180.03 73H193.97C189.703 70.9607 188.752 68.3698 188.557 64.7432C190.034 65.8387 192.515 67.1832 195.798 67.1818C198.738 67.1818 203 65.1383 203 60.6803C203 52.5324 196.641 54.7497 187 41C177.359 54.7497 171 52.5332 171 60.6803Z" fill="black"/>
<path d="M81 179.68C81 184.138 76.7421 186.18 73.7978 186.182C70.5144 186.182 68.0338 184.839 66.5569 183.743C66.7517 187.37 67.7026 189.961 71.97 192H58.03C62.2974 189.961 63.2483 187.37 63.4431 183.743C61.9662 184.839 59.4848 186.183 56.2022 186.182C53.2619 186.182 49 184.138 49 179.68C49 171.532 55.3585 173.75 64.9996 160C74.6415 173.75 81 171.533 81 179.68Z" fill="black"/>
<path d="M203 179.68C203 184.138 198.742 186.18 195.798 186.182C192.514 186.182 190.034 184.839 188.557 183.743C188.752 187.37 189.703 189.961 193.97 192H180.03C184.297 189.961 185.248 187.37 185.443 183.743C183.966 184.839 181.485 186.183 178.202 186.182C175.262 186.182 171 184.138 171 179.68C171 171.532 177.359 173.75 187 160C196.641 173.75 203 171.533 203 179.68Z" fill="black"/>
<path d="M142 120.68C142 125.138 137.742 127.18 134.798 127.182C131.514 127.182 129.034 125.839 127.557 124.743C127.752 128.37 128.703 130.961 132.97 133H119.03C123.297 130.961 124.248 128.37 124.443 124.743C122.966 125.839 120.485 127.183 117.202 127.182C114.262 127.182 110 125.138 110 120.68C110 112.532 116.359 114.75 126 101C135.641 114.75 142 112.533 142 120.68Z" fill="black"/>
<path d="M37.3411 66.6159C37.3411 68.5731 35.6536 69.4696 34.4867 69.4703C33.1855 69.4703 32.2023 68.8809 31.617 68.3996C31.6942 69.9918 32.0711 71.1293 33.7623 72.0246H28.2377C29.9289 71.1293 30.3058 69.9918 30.383 68.3996C29.7977 68.8806 28.8142 69.4709 27.5133 69.4703C26.348 69.4703 24.6589 68.5731 24.6589 66.6159C24.6589 63.0387 27.1789 64.0121 30.9998 57.9756C34.8211 64.0121 37.3411 63.039 37.3411 66.6159Z" fill="black"/>
</svg>
