<svg width="252" height="352" viewBox="0 0 252 352" fill="none" xmlns="http://www.w3.org/2000/svg">
<rect x="1" y="1" width="250" height="350" rx="8" fill="url(#paint0_linear_15_2200)" stroke="#A8A8A8" stroke-opacity="0.5"/>
<rect x="7.5" y="7.5" width="237" height="337" rx="7.5" fill="black" stroke="#D3AF37"/>
<mask id="mask0_15_2200" style="mask-type:alpha" maskUnits="userSpaceOnUse" x="7" y="8" width="238" height="338">
<rect x="7.5" y="8.5" width="237" height="337" rx="7.5" fill="#FF0000" stroke="white"/>
</mask>
<g mask="url(#mask0_15_2200)">
<path d="M-67 139.627L318.673 -320" stroke="#D3AF37"/>
<line x1="-67.383" y1="120.305" x2="318.29" y2="-339.321" stroke="#D3AF37"/>
<line x1="-67.383" y1="100.305" x2="318.29" y2="-359.321" stroke="#D3AF37"/>
<path d="M-67 219.627L318.673 -240" stroke="#D3AF37"/>
<line x1="-67.383" y1="179.305" x2="318.29" y2="-280.321" stroke="#D3AF37"/>
<line x1="-67.383" y1="160.305" x2="318.29" y2="-299.321" stroke="#D3AF37"/>
<line x1="-67.383" y1="239.305" x2="318.29" y2="-220.321" stroke="#D3AF37"/>
<line x1="-67.383" y1="199.305" x2="318.29" y2="-260.321" stroke="#D3AF37"/>
<line x1="-67.383" y1="299.305" x2="318.29" y2="-160.321" stroke="#D3AF37"/>
<line x1="-67.383" y1="259.305" x2="318.29" y2="-200.321" stroke="#D3AF37"/>
<path d="M-67 279.627L318.673 -180" stroke="#D3AF37"/>
<line x1="-67.383" y1="359.305" x2="318.29" y2="-100.321" stroke="#D3AF37"/>
<path d="M-67 339.627L318.673 -120" stroke="#D3AF37"/>
<line x1="-67.383" y1="319.305" x2="318.29" y2="-140.321" stroke="#D3AF37"/>
<line x1="-67.383" y1="79.3053" x2="318.29" y2="-380.321" stroke="#D3AF37"/>
<path d="M-67 558.627L318.673 99" stroke="#D3AF37"/>
<line x1="-67.383" y1="539.305" x2="318.29" y2="79.6786" stroke="#D3AF37"/>
<line x1="-67.383" y1="519.305" x2="318.29" y2="59.6786" stroke="#D3AF37"/>
<path d="M-67 638.627L318.673 179" stroke="#D3AF37"/>
<line x1="-67.383" y1="598.305" x2="318.29" y2="138.679" stroke="#D3AF37"/>
<line x1="-67.383" y1="579.305" x2="318.29" y2="119.679" stroke="#D3AF37"/>
<line x1="-67.383" y1="658.305" x2="318.29" y2="198.679" stroke="#D3AF37"/>
<line x1="-67.383" y1="618.305" x2="318.29" y2="158.679" stroke="#D3AF37"/>
<line x1="-67.383" y1="718.305" x2="318.29" y2="258.679" stroke="#D3AF37"/>
<line x1="-67.383" y1="678.305" x2="318.29" y2="218.679" stroke="#D3AF37"/>
<path d="M-67 698.627L318.673 239" stroke="#D3AF37"/>
<line x1="-67.383" y1="498.305" x2="318.29" y2="38.6785" stroke="#D3AF37"/>
<path d="M-67 478.627L318.673 18.9999" stroke="#D3AF37"/>
<line x1="-67.383" y1="458.305" x2="318.29" y2="-1.32147" stroke="#D3AF37"/>
<line x1="-67.383" y1="438.305" x2="318.29" y2="-21.3215" stroke="#D3AF37"/>
<path d="M-67 418.627L318.673 -41.0001" stroke="#D3AF37"/>
<line x1="-67.383" y1="399.305" x2="318.29" y2="-60.3215" stroke="#D3AF37"/>
<line x1="-67.383" y1="379.305" x2="318.29" y2="-80.3215" stroke="#D3AF37"/>
<path d="M318.673 139.627L-67 -320" stroke="#D3AF37"/>
<line y1="-0.5" x2="600" y2="-0.5" transform="matrix(-0.642788 -0.766044 -0.766044 0.642788 318.673 120.627)" stroke="#D3AF37"/>
<line y1="-0.5" x2="600" y2="-0.5" transform="matrix(-0.642788 -0.766044 -0.766044 0.642788 318.673 100.627)" stroke="#D3AF37"/>
<path d="M318.673 219.627L-67 -240" stroke="#D3AF37"/>
<line y1="-0.5" x2="600" y2="-0.5" transform="matrix(-0.642788 -0.766044 -0.766044 0.642788 318.673 179.627)" stroke="#D3AF37"/>
<line y1="-0.5" x2="600" y2="-0.5" transform="matrix(-0.642788 -0.766044 -0.766044 0.642788 318.673 160.627)" stroke="#D3AF37"/>
<line y1="-0.5" x2="600" y2="-0.5" transform="matrix(-0.642788 -0.766044 -0.766044 0.642788 318.673 239.627)" stroke="#D3AF37"/>
<line y1="-0.5" x2="600" y2="-0.5" transform="matrix(-0.642788 -0.766044 -0.766044 0.642788 318.673 199.627)" stroke="#D3AF37"/>
<line y1="-0.5" x2="600" y2="-0.5" transform="matrix(-0.642788 -0.766044 -0.766044 0.642788 318.673 299.627)" stroke="#D3AF37"/>
<line y1="-0.5" x2="600" y2="-0.5" transform="matrix(-0.642788 -0.766044 -0.766044 0.642788 318.673 259.627)" stroke="#D3AF37"/>
<path d="M318.673 279.627L-67 -180" stroke="#D3AF37"/>
<line y1="-0.5" x2="600" y2="-0.5" transform="matrix(-0.642788 -0.766044 -0.766044 0.642788 318.673 359.627)" stroke="#D3AF37"/>
<path d="M318.673 339.627L-67 -120" stroke="#D3AF37"/>
<line y1="-0.5" x2="600" y2="-0.5" transform="matrix(-0.642788 -0.766044 -0.766044 0.642788 318.673 319.627)" stroke="#D3AF37"/>
<line y1="-0.5" x2="600" y2="-0.5" transform="matrix(-0.642788 -0.766044 -0.766044 0.642788 318.673 79.6266)" stroke="#D3AF37"/>
<path d="M318.673 558.627L-67 99" stroke="#D3AF37"/>
<line y1="-0.5" x2="600" y2="-0.5" transform="matrix(-0.642788 -0.766044 -0.766044 0.642788 318.673 539.627)" stroke="#D3AF37"/>
<line y1="-0.5" x2="600" y2="-0.5" transform="matrix(-0.642788 -0.766044 -0.766044 0.642788 318.673 519.627)" stroke="#D3AF37"/>
<path d="M318.673 638.627L-67 179" stroke="#D3AF37"/>
<line y1="-0.5" x2="600" y2="-0.5" transform="matrix(-0.642788 -0.766044 -0.766044 0.642788 318.673 598.627)" stroke="#D3AF37"/>
<line y1="-0.5" x2="600" y2="-0.5" transform="matrix(-0.642788 -0.766044 -0.766044 0.642788 318.673 579.627)" stroke="#D3AF37"/>
<line y1="-0.5" x2="600" y2="-0.5" transform="matrix(-0.642788 -0.766044 -0.766044 0.642788 318.673 658.627)" stroke="#D3AF37"/>
<line y1="-0.5" x2="600" y2="-0.5" transform="matrix(-0.642788 -0.766044 -0.766044 0.642788 318.673 618.627)" stroke="#D3AF37"/>
<line y1="-0.5" x2="600" y2="-0.5" transform="matrix(-0.642788 -0.766044 -0.766044 0.642788 318.673 718.627)" stroke="#D3AF37"/>
<line y1="-0.5" x2="600" y2="-0.5" transform="matrix(-0.642788 -0.766044 -0.766044 0.642788 318.673 678.627)" stroke="#D3AF37"/>
<path d="M318.673 698.627L-67 239" stroke="#D3AF37"/>
<line y1="-0.5" x2="600" y2="-0.5" transform="matrix(-0.642788 -0.766044 -0.766044 0.642788 318.673 498.627)" stroke="#D3AF37"/>
<path d="M318.673 478.627L-67 18.9999" stroke="#D3AF37"/>
<line y1="-0.5" x2="600" y2="-0.5" transform="matrix(-0.642788 -0.766044 -0.766044 0.642788 318.673 458.627)" stroke="#D3AF37"/>
<line y1="-0.5" x2="600" y2="-0.5" transform="matrix(-0.642788 -0.766044 -0.766044 0.642788 318.673 438.627)" stroke="#D3AF37"/>
<path d="M318.673 418.627L-67 -41.0001" stroke="#D3AF37"/>
<line y1="-0.5" x2="600" y2="-0.5" transform="matrix(-0.642788 -0.766044 -0.766044 0.642788 318.673 399.627)" stroke="#D3AF37"/>
<line y1="-0.5" x2="600" y2="-0.5" transform="matrix(-0.642788 -0.766044 -0.766044 0.642788 318.673 379.627)" stroke="#D3AF37"/>
</g>
<defs>
<linearGradient id="paint0_linear_15_2200" x1="126" y1="1" x2="126" y2="351" gradientUnits="userSpaceOnUse">
<stop stop-color="#FFE079"/>
<stop offset="0.4" stop-color="#D3AF37"/>
</linearGradient>
</defs>
</svg>
