<svg width="254" height="354" viewBox="0 0 254 354" fill="none" xmlns="http://www.w3.org/2000/svg">
<path d="M2 10C2 5.58172 5.58172 2 10 2H244C248.418 2 252 5.58172 252 10V344C252 348.418 248.418 352 244 352H10C5.58172 352 2 348.418 2 344V10Z" fill="url(#paint0_linear_10_1792)"/>
<path d="M2 10C2 5.58172 5.58172 2 10 2H244C248.418 2 252 5.58172 252 10V344C252 348.418 248.418 352 244 352H10C5.58172 352 2 348.418 2 344V10Z" stroke="#D3AF37" stroke-width="3"/>
<path d="M26.8 48.976H29.872C30.1707 48.976 30.3733 48.9227 30.48 48.816C30.5867 48.688 30.64 48.4853 30.64 48.208V43.472H23.6V42.288L32.016 27.184H35.376V42.32H38.832V43.472H35.376V48.208C35.376 48.4853 35.4293 48.688 35.536 48.816C35.664 48.9227 35.8667 48.976 36.144 48.976H38.448V50H26.8V48.976ZM25.2 42.32H30.64V32.592L25.2 42.32Z" fill="#D3AF37"/>
<path d="M32 59.2761C30.0823 59.2761 28.5248 60.7138 28.5248 62.484C28.5248 63.745 29.3136 64.8362 30.4614 65.3593C30.8068 65.5167 30.4298 65.9243 30.1762 65.6601C29.5392 64.9969 28.6103 64.5783 27.5753 64.5783C25.6575 64.5783 24.1 66.016 24.1 67.7862C24.1 69.5565 25.6575 70.9913 27.5753 70.9913C29.4783 70.9913 31.0305 69.5783 31.0505 67.8267C31.0541 67.516 31.5707 67.4838 31.5707 67.9019C31.5707 68.5603 30.885 72.0572 30.5178 72.7239C30.9186 72.6306 31.5865 72.5533 32 72.5533C32.4135 72.5533 33.0815 72.6306 33.4822 72.7239C33.1151 72.0572 32.4293 68.5603 32.4293 67.9019C32.4293 67.4838 32.946 67.516 32.9495 67.8267C32.9696 69.5783 34.5217 70.9913 36.4248 70.9913C38.3425 70.9913 39.9 69.5565 39.9 67.7862C39.9 66.016 38.3425 64.5783 36.4248 64.5783C35.3897 64.5783 34.4608 64.9969 33.8238 65.6601C33.5702 65.9243 33.1932 65.5167 33.5386 65.3593C34.6865 64.8362 35.4753 63.745 35.4753 62.484C35.4753 60.7138 33.9178 59.2761 32 59.2761Z" fill="url(#paint1_linear_10_1792)"/>
<path d="M66 44.5522C62.1645 44.5522 59.0495 47.4276 59.0495 50.9681C59.0495 53.4899 60.6271 55.6724 62.9227 56.7186C63.6136 57.0335 62.8597 57.8485 62.3524 57.3203C61.0785 55.9937 59.2206 55.1566 57.1505 55.1566C53.315 55.1566 50.2 58.032 50.2 61.5724C50.2 65.1129 53.315 67.9825 57.1505 67.9825C60.9566 67.9825 64.0609 65.1565 64.101 61.6534C64.1081 61.032 65.1414 60.9676 65.1414 61.8039C65.1414 63.1207 63.7699 70.1144 63.0355 71.4479C63.8371 71.2613 65.1729 71.1065 66 71.1065C66.8271 71.1065 68.1629 71.2613 68.9644 71.4479C68.2301 70.1144 66.8586 63.1207 66.8586 61.8039C66.8586 60.9676 67.8919 61.032 67.899 61.6534C67.9391 65.1565 71.0434 67.9825 74.8495 67.9825C78.685 67.9825 81.8 65.1129 81.8 61.5724C81.8 58.032 78.685 55.1566 74.8495 55.1566C72.7794 55.1566 70.9215 55.9937 69.6476 57.3203C69.1403 57.8485 68.3864 57.0335 69.0773 56.7186C71.3729 55.6724 72.9505 53.4899 72.9505 50.9681C72.9505 47.4276 69.8355 44.5522 66 44.5522Z" fill="url(#paint2_linear_10_1792)"/>
<path d="M188 44.5522C184.164 44.5522 181.049 47.4276 181.049 50.9681C181.049 53.4899 182.627 55.6724 184.923 56.7186C185.614 57.0335 184.86 57.8485 184.352 57.3203C183.078 55.9937 181.221 55.1566 179.15 55.1566C175.315 55.1566 172.2 58.032 172.2 61.5724C172.2 65.1129 175.315 67.9825 179.15 67.9825C182.957 67.9825 186.061 65.1565 186.101 61.6534C186.108 61.032 187.141 60.9676 187.141 61.8039C187.141 63.1207 185.77 70.1144 185.036 71.4479C185.837 71.2613 187.173 71.1065 188 71.1065C188.827 71.1065 190.163 71.2613 190.964 71.4479C190.23 70.1144 188.859 63.1207 188.859 61.8039C188.859 60.9676 189.892 61.032 189.899 61.6534C189.939 65.1565 193.043 67.9825 196.849 67.9825C200.685 67.9825 203.8 65.1129 203.8 61.5724C203.8 58.032 200.685 55.1566 196.849 55.1566C194.779 55.1566 192.922 55.9937 191.648 57.3203C191.14 57.8485 190.386 57.0335 191.077 56.7186C193.373 55.6724 194.95 53.4899 194.95 50.9681C194.95 47.4276 191.835 44.5522 188 44.5522Z" fill="url(#paint3_linear_10_1792)"/>
<path d="M188 309.448C184.165 309.448 181.05 306.572 181.05 303.032C181.05 300.51 182.627 298.328 184.923 297.281C185.614 296.967 184.86 296.151 184.352 296.68C183.078 298.006 181.221 298.843 179.151 298.843C175.315 298.843 172.2 295.968 172.2 292.428C172.2 288.887 175.315 286.017 179.151 286.017C182.957 286.017 186.061 288.843 186.101 292.347C186.108 292.968 187.141 293.032 187.141 292.196C187.141 290.879 185.77 283.886 185.036 282.552C185.837 282.739 187.173 282.893 188 282.893C188.827 282.893 190.163 282.739 190.964 282.552C190.23 283.886 188.859 290.879 188.859 292.196C188.859 293.032 189.892 292.968 189.899 292.347C189.939 288.843 193.043 286.017 196.85 286.017C200.685 286.017 203.8 288.887 203.8 292.428C203.8 295.968 200.685 298.843 196.85 298.843C194.779 298.843 192.922 298.006 191.648 296.68C191.14 296.151 190.386 296.967 191.077 297.281C193.373 298.328 194.951 300.51 194.951 303.032C194.951 306.572 191.836 309.448 188 309.448Z" fill="url(#paint4_linear_10_1792)"/>
<path d="M66 309.448C62.1645 309.448 59.0495 306.572 59.0495 303.032C59.0495 300.51 60.6271 298.328 62.9228 297.281C63.6136 296.967 62.8597 296.151 62.3524 296.68C61.0785 298.006 59.2206 298.843 57.1505 298.843C53.315 298.843 50.2 295.968 50.2 292.428C50.2 288.887 53.315 286.017 57.1505 286.017C60.9566 286.017 64.0609 288.843 64.101 292.347C64.1081 292.968 65.1414 293.032 65.1414 292.196C65.1414 290.879 63.7699 283.886 63.0356 282.552C63.8371 282.739 65.173 282.893 66 282.893C66.8271 282.893 68.1629 282.739 68.9645 282.552C68.2301 283.886 66.8586 290.879 66.8586 292.196C66.8586 293.032 67.8919 292.968 67.899 292.347C67.9391 288.843 71.0434 286.017 74.8495 286.017C78.685 286.017 81.8 288.887 81.8 292.428C81.8 295.968 78.685 298.843 74.8495 298.843C72.7795 298.843 70.9216 298.006 69.6476 296.68C69.1403 296.151 68.3864 296.967 69.0773 297.281C71.3729 298.328 72.9505 300.51 72.9505 303.032C72.9505 306.572 69.8355 309.448 66 309.448Z" fill="url(#paint5_linear_10_1792)"/>
<path d="M227.2 305.024H224.128C223.829 305.024 223.627 305.077 223.52 305.184C223.413 305.312 223.36 305.515 223.36 305.792V310.528H230.4V311.712L221.984 326.816H218.624V311.68H215.168V310.528H218.624V305.792C218.624 305.515 218.571 305.312 218.464 305.184C218.336 305.077 218.133 305.024 217.856 305.024H215.552V304H227.2V305.024ZM228.8 311.68H223.36V321.408L228.8 311.68Z" fill="#D3AF37"/>
<path d="M222 294.724C220.082 294.724 218.525 293.286 218.525 291.516C218.525 290.255 219.314 289.164 220.461 288.641C220.807 288.483 220.43 288.076 220.176 288.34C219.539 289.003 218.61 289.422 217.575 289.422C215.657 289.422 214.1 287.984 214.1 286.214C214.1 284.444 215.657 283.009 217.575 283.009C219.478 283.009 221.03 284.422 221.05 286.173C221.054 286.484 221.571 286.516 221.571 286.098C221.571 285.44 220.885 281.943 220.518 281.276C220.919 281.369 221.586 281.447 222 281.447C222.414 281.447 223.081 281.369 223.482 281.276C223.115 281.943 222.429 285.44 222.429 286.098C222.429 286.516 222.946 286.484 222.949 286.173C222.97 284.422 224.522 283.009 226.425 283.009C228.342 283.009 229.9 284.444 229.9 286.214C229.9 287.984 228.342 289.422 226.425 289.422C225.39 289.422 224.461 289.003 223.824 288.34C223.57 288.076 223.193 288.483 223.539 288.641C224.686 289.164 225.475 290.255 225.475 291.516C225.475 293.286 223.918 294.724 222 294.724Z" fill="url(#paint6_linear_10_1792)"/>
<defs>
<linearGradient id="paint0_linear_10_1792" x1="2" y1="2" x2="252" y2="352" gradientUnits="userSpaceOnUse">
<stop stop-color="#3F3E3E"/>
<stop offset="1"/>
</linearGradient>
<linearGradient id="paint1_linear_10_1792" x1="27.5105" y1="63.2688" x2="32.0028" y2="72.072" gradientUnits="userSpaceOnUse">
<stop stop-color="#FFE079"/>
<stop offset="0.44" stop-color="#D3AF37"/>
</linearGradient>
<linearGradient id="paint2_linear_10_1792" x1="57.0209" y1="52.5376" x2="66.0056" y2="70.1441" gradientUnits="userSpaceOnUse">
<stop stop-color="#FFE079"/>
<stop offset="0.44" stop-color="#D3AF37"/>
</linearGradient>
<linearGradient id="paint3_linear_10_1792" x1="179.021" y1="52.5376" x2="188.006" y2="70.1441" gradientUnits="userSpaceOnUse">
<stop stop-color="#FFE079"/>
<stop offset="0.44" stop-color="#D3AF37"/>
</linearGradient>
<linearGradient id="paint4_linear_10_1792" x1="183" y1="285.5" x2="202.999" y2="295.308" gradientUnits="userSpaceOnUse">
<stop stop-color="#FFE079"/>
<stop offset="0.44" stop-color="#D3AF37"/>
</linearGradient>
<linearGradient id="paint5_linear_10_1792" x1="61" y1="285.5" x2="80.9985" y2="295.308" gradientUnits="userSpaceOnUse">
<stop stop-color="#FFE079"/>
<stop offset="0.44" stop-color="#D3AF37"/>
</linearGradient>
<linearGradient id="paint6_linear_10_1792" x1="219.5" y1="282.75" x2="229.499" y2="287.654" gradientUnits="userSpaceOnUse">
<stop stop-color="#FFE079"/>
<stop offset="0.44" stop-color="#D3AF37"/>
</linearGradient>
</defs>
</svg>
