<svg width="254" height="354" viewBox="0 0 254 354" fill="none" xmlns="http://www.w3.org/2000/svg">
<rect x="2" y="2" width="250" height="350" rx="8" fill="url(#paint0_linear_10_1683)"/>
<rect x="2" y="2" width="250" height="350" rx="8" stroke="#D3AF37" stroke-width="3"/>
<path d="M23.408 48.976H24.496C25.136 48.976 25.7013 48.7307 26.192 48.24C26.6827 47.728 27.056 47.1093 27.312 46.384L34.064 26.64H35.408L42.256 47.344C42.6187 48.432 43.248 48.976 44.144 48.976H45.424V50H34.192V48.976H36.496C36.752 48.976 36.9547 48.88 37.104 48.688C37.2747 48.4747 37.36 48.2293 37.36 47.952C37.36 47.7173 37.296 47.408 37.168 47.024L36.144 43.952H29.424L28.752 45.904C28.5173 46.5013 28.4 47.0453 28.4 47.536C28.4 47.92 28.5493 48.2613 28.848 48.56C29.168 48.8373 29.5733 48.976 30.064 48.976H31.568V50H23.408V48.976ZM29.84 42.768H35.76L32.848 33.968L29.84 42.768Z" fill="#D3AF37"/>
<path d="M38 60.5522C34.1645 60.5522 31.0495 63.4276 31.0495 66.968C31.0495 69.4899 32.6271 71.6723 34.9228 72.7186C35.6136 73.0334 34.8597 73.8485 34.3524 73.3202C33.0785 71.9936 31.2206 71.1565 29.1505 71.1565C25.315 71.1565 22.2 74.0319 22.2 77.5724C22.2 81.1129 25.315 83.9824 29.1505 83.9824C32.9566 83.9824 36.0609 81.1565 36.101 77.6534C36.1081 77.0319 37.1414 76.9676 37.1414 77.8038C37.1414 79.1206 35.7699 86.1144 35.0356 87.4478C35.8371 87.2612 37.173 87.1065 38 87.1065C38.8271 87.1065 40.1629 87.2612 40.9645 87.4478C40.2301 86.1144 38.8586 79.1206 38.8586 77.8038C38.8586 76.9676 39.8919 77.0319 39.899 77.6534C39.9391 81.1565 43.0434 83.9824 46.8495 83.9824C50.685 83.9824 53.8 81.1129 53.8 77.5724C53.8 74.0319 50.685 71.1565 46.8495 71.1565C44.7795 71.1565 42.9216 71.9936 41.6476 73.3202C41.1403 73.8485 40.3864 73.0334 41.0773 72.7186C43.3729 71.6723 44.9505 69.4899 44.9505 66.968C44.9505 63.4276 41.8355 60.5522 38 60.5522Z" fill="url(#paint1_linear_10_1683)"/>
<path d="M127 123.209C111.658 123.209 99.198 134.71 99.198 148.872C99.1981 158.96 105.508 167.689 114.691 171.874C117.454 173.134 114.439 176.394 112.41 174.281C107.314 168.975 99.8823 165.626 91.602 165.626C76.26 165.626 63.8 177.128 63.8 191.29C63.8 205.451 76.2601 216.93 91.602 216.93C106.826 216.93 119.244 205.626 119.404 191.614C119.432 189.128 123.566 188.87 123.566 192.215C123.566 197.483 118.08 225.457 115.142 230.791C118.348 230.045 123.692 229.426 127 229.426C130.308 229.426 135.652 230.045 138.858 230.791C135.92 225.457 130.435 197.483 130.435 192.215C130.435 188.87 134.568 189.128 134.596 191.614C134.756 205.626 147.174 216.93 162.398 216.93C177.74 216.93 190.2 205.451 190.2 191.29C190.2 177.128 177.74 165.626 162.398 165.626C154.118 165.626 146.686 168.975 141.59 174.281C139.561 176.394 136.546 173.134 139.309 171.874C148.492 167.689 154.802 158.96 154.802 148.872C154.802 134.71 142.342 123.209 127 123.209Z" fill="url(#paint2_linear_10_1683)"/>
<path d="M223.592 305.024H222.504C221.864 305.024 221.299 305.269 220.808 305.76C220.317 306.272 219.944 306.891 219.688 307.616L212.936 327.36H211.592L204.744 306.656C204.381 305.568 203.752 305.024 202.856 305.024H201.576V304H212.808V305.024H210.504C210.248 305.024 210.045 305.12 209.896 305.312C209.725 305.525 209.64 305.771 209.64 306.048C209.64 306.283 209.704 306.592 209.832 306.976L210.856 310.048H217.576L218.248 308.096C218.483 307.499 218.6 306.955 218.6 306.464C218.6 306.08 218.451 305.739 218.152 305.44C217.832 305.163 217.427 305.024 216.936 305.024H215.432V304H223.592V305.024ZM217.16 311.232H211.24L214.152 320.032L217.16 311.232Z" fill="#D3AF37"/>
<path d="M216 293.448C212.165 293.448 209.05 290.572 209.05 287.032C209.05 284.51 210.627 282.328 212.923 281.281C213.614 280.967 212.86 280.152 212.352 280.68C211.078 282.006 209.221 282.843 207.151 282.843C203.315 282.843 200.2 279.968 200.2 276.428C200.2 272.887 203.315 270.018 207.151 270.018C210.957 270.018 214.061 272.844 214.101 276.347C214.108 276.968 215.141 277.032 215.141 276.196C215.141 274.879 213.77 267.886 213.036 266.552C213.837 266.739 215.173 266.894 216 266.894C216.827 266.894 218.163 266.739 218.964 266.552C218.23 267.886 216.859 274.879 216.859 276.196C216.859 277.032 217.892 276.968 217.899 276.347C217.939 272.844 221.043 270.018 224.85 270.018C228.685 270.018 231.8 272.887 231.8 276.428C231.8 279.968 228.685 282.843 224.85 282.843C222.779 282.843 220.922 282.006 219.648 280.68C219.14 280.152 218.386 280.967 219.077 281.281C221.373 282.328 222.951 284.51 222.951 287.032C222.951 290.572 219.836 293.448 216 293.448Z" fill="url(#paint3_linear_10_1683)"/>
<line x1="61" y1="37.5" x2="216" y2="37.5" stroke="#D3AF37"/>
<line x1="216.5" y1="37" x2="216.5" y2="260" stroke="#D3AF37"/>
<line x1="193" y1="316.5" x2="38" y2="316.5" stroke="#D3AF37"/>
<line x1="37.5" y1="317" x2="37.5" y2="94" stroke="#D3AF37"/>
<defs>
<linearGradient id="paint0_linear_10_1683" x1="2" y1="2" x2="252" y2="352" gradientUnits="userSpaceOnUse">
<stop stop-color="#3F3E3E"/>
<stop offset="1"/>
</linearGradient>
<linearGradient id="paint1_linear_10_1683" x1="29.021" y1="68.5375" x2="38.0056" y2="86.144" gradientUnits="userSpaceOnUse">
<stop stop-color="#FFE079"/>
<stop offset="0.44" stop-color="#D3AF37"/>
</linearGradient>
<linearGradient id="paint2_linear_10_1683" x1="91.0838" y1="155.15" x2="127.023" y2="225.576" gradientUnits="userSpaceOnUse">
<stop stop-color="#FFE079"/>
<stop offset="0.44" stop-color="#D3AF37"/>
</linearGradient>
<linearGradient id="paint3_linear_10_1683" x1="211" y1="269.5" x2="230.999" y2="279.308" gradientUnits="userSpaceOnUse">
<stop stop-color="#FFE079"/>
<stop offset="0.44" stop-color="#D3AF37"/>
</linearGradient>
</defs>
</svg>
