<svg width="254" height="354" viewBox="0 0 254 354" fill="none" xmlns="http://www.w3.org/2000/svg">
<path d="M2 10C2 5.58172 5.58172 2 10 2H244C248.418 2 252 5.58172 252 10V344C252 348.418 248.418 352 244 352H10C5.58172 352 2 348.418 2 344V10Z" fill="url(#paint0_linear_10_1927)"/>
<path d="M2 10C2 5.58172 5.58172 2 10 2H244C248.418 2 252 5.58172 252 10V344C252 348.418 248.418 352 244 352H10C5.58172 352 2 348.418 2 344V10Z" stroke="#D3AF37" stroke-width="3"/>
<path d="M30.256 50.512C29.2533 50.512 28.3893 50.3093 27.664 49.904C26.9387 49.4773 26.384 48.9333 26 48.272C25.6373 47.6107 25.456 46.9067 25.456 46.16C25.456 45.2427 25.7227 44.464 26.256 43.824C26.7893 43.184 27.4827 42.864 28.336 42.864C28.976 42.864 29.488 43.0667 29.872 43.472C30.2773 43.856 30.48 44.368 30.48 45.008C30.48 45.9893 30 46.6507 29.04 46.992C28.6133 47.1413 28.2933 47.2907 28.08 47.44C27.8667 47.5893 27.76 47.7813 27.76 48.016C27.76 48.4427 27.984 48.7947 28.432 49.072C28.88 49.3493 29.4987 49.488 30.288 49.488C31.4827 49.488 32.3573 48.976 32.912 47.952C33.488 46.928 33.776 45.7013 33.776 44.272V39.696L33.584 39.6C33.2427 39.9413 32.7947 40.208 32.24 40.4C31.6853 40.5707 31.0987 40.656 30.48 40.656C28.3467 40.656 26.7467 40.0267 25.68 38.768C24.6347 37.5093 24.112 35.8987 24.112 33.936C24.112 32.72 24.3573 31.568 24.848 30.48C25.36 29.3707 26.1387 28.464 27.184 27.76C28.2507 27.056 29.5733 26.704 31.152 26.704C32.7307 26.704 34.096 27.216 35.248 28.24C36.4213 29.264 37.3173 30.64 37.936 32.368C38.576 34.096 38.896 35.9947 38.896 38.064C38.896 40.5173 38.544 42.6827 37.84 44.56C37.1573 46.4373 36.1653 47.8987 34.864 48.944C33.5627 49.9893 32.0267 50.512 30.256 50.512ZM30.896 39.44C32.048 39.44 32.8373 38.992 33.264 38.096C33.4773 37.6907 33.616 37.1253 33.68 36.4C33.744 35.6747 33.776 34.6933 33.776 33.456C33.776 31.5147 33.5733 30.0747 33.168 29.136C32.7627 28.1973 32.1013 27.728 31.184 27.728C30.4587 27.728 29.9253 27.984 29.584 28.496C29.264 28.9867 29.0613 29.6267 28.976 30.416C28.8907 31.184 28.848 32.2507 28.848 33.616C28.848 35.344 28.9867 36.752 29.264 37.84C29.5627 38.9067 30.1067 39.44 30.896 39.44Z" fill="#D3AF37"/>
<path d="M32 59.2761C30.0823 59.2761 28.5248 60.7138 28.5248 62.484C28.5248 63.745 29.3136 64.8362 30.4614 65.3593C30.8068 65.5167 30.4298 65.9243 30.1762 65.6601C29.5392 64.9969 28.6103 64.5783 27.5753 64.5783C25.6575 64.5783 24.1 66.016 24.1 67.7862C24.1 69.5565 25.6575 70.9913 27.5753 70.9913C29.4783 70.9913 31.0305 69.5783 31.0505 67.8267C31.0541 67.516 31.5707 67.4838 31.5707 67.9019C31.5707 68.5603 30.885 72.0572 30.5178 72.7239C30.9186 72.6306 31.5865 72.5533 32 72.5533C32.4135 72.5533 33.0815 72.6306 33.4822 72.7239C33.1151 72.0572 32.4293 68.5603 32.4293 67.9019C32.4293 67.4838 32.946 67.516 32.9495 67.8267C32.9696 69.5783 34.5217 70.9913 36.4248 70.9913C38.3425 70.9913 39.9 69.5565 39.9 67.7862C39.9 66.016 38.3425 64.5783 36.4248 64.5783C35.3897 64.5783 34.4608 64.9969 33.8238 65.6601C33.5702 65.9243 33.1932 65.5167 33.5386 65.3593C34.6865 64.8362 35.4753 63.745 35.4753 62.484C35.4753 60.7138 33.9178 59.2761 32 59.2761Z" fill="url(#paint1_linear_10_1927)"/>
<path d="M66 44.5522C62.1645 44.5522 59.0495 47.4276 59.0495 50.9681C59.0495 53.4899 60.6271 55.6724 62.9227 56.7186C63.6136 57.0335 62.8597 57.8485 62.3524 57.3203C61.0785 55.9937 59.2206 55.1566 57.1505 55.1566C53.315 55.1566 50.2 58.032 50.2 61.5724C50.2 65.1129 53.315 67.9825 57.1505 67.9825C60.9566 67.9825 64.0609 65.1565 64.101 61.6534C64.1081 61.032 65.1414 60.9676 65.1414 61.8039C65.1414 63.1207 63.7699 70.1144 63.0355 71.4479C63.8371 71.2613 65.1729 71.1065 66 71.1065C66.8271 71.1065 68.1629 71.2613 68.9644 71.4479C68.2301 70.1144 66.8586 63.1207 66.8586 61.8039C66.8586 60.9676 67.8919 61.032 67.899 61.6534C67.9391 65.1565 71.0434 67.9825 74.8495 67.9825C78.685 67.9825 81.8 65.1129 81.8 61.5724C81.8 58.032 78.685 55.1566 74.8495 55.1566C72.7794 55.1566 70.9215 55.9937 69.6476 57.3203C69.1403 57.8485 68.3864 57.0335 69.0773 56.7186C71.3729 55.6724 72.9505 53.4899 72.9505 50.9681C72.9505 47.4276 69.8355 44.5522 66 44.5522Z" fill="url(#paint2_linear_10_1927)"/>
<path d="M66 113.552C62.1645 113.552 59.0495 116.428 59.0495 119.968C59.0495 122.49 60.6271 124.672 62.9228 125.719C63.6136 126.033 62.8597 126.849 62.3524 126.32C61.0785 124.994 59.2206 124.157 57.1505 124.157C53.315 124.157 50.2 127.032 50.2 130.572C50.2 134.113 53.315 136.983 57.1505 136.983C60.9566 136.983 64.0609 134.157 64.101 130.653C64.1081 130.032 65.1414 129.968 65.1414 130.804C65.1414 132.121 63.7699 139.114 63.0356 140.448C63.8371 140.261 65.173 140.107 66 140.107C66.8271 140.107 68.1629 140.261 68.9645 140.448C68.2301 139.114 66.8586 132.121 66.8586 130.804C66.8586 129.968 67.8919 130.032 67.899 130.653C67.9391 134.157 71.0434 136.983 74.8495 136.983C78.685 136.983 81.8 134.113 81.8 130.572C81.8 127.032 78.685 124.157 74.8495 124.157C72.7795 124.157 70.9216 124.994 69.6476 126.32C69.1403 126.849 68.3864 126.033 69.0773 125.719C71.3729 124.672 72.9505 122.49 72.9505 119.968C72.9505 116.428 69.8355 113.552 66 113.552Z" fill="url(#paint3_linear_10_1927)"/>
<path d="M127 163.552C123.165 163.552 120.05 166.428 120.05 169.968C120.05 172.49 121.627 174.672 123.923 175.719C124.614 176.033 123.86 176.849 123.352 176.32C122.078 174.994 120.221 174.157 118.151 174.157C114.315 174.157 111.2 177.032 111.2 180.572C111.2 184.113 114.315 186.983 118.151 186.983C121.957 186.983 125.061 184.157 125.101 180.653C125.108 180.032 126.141 179.968 126.141 180.804C126.141 182.121 124.77 189.114 124.036 190.448C124.837 190.261 126.173 190.107 127 190.107C127.827 190.107 129.163 190.261 129.964 190.448C129.23 189.114 127.859 182.121 127.859 180.804C127.859 179.968 128.892 180.032 128.899 180.653C128.939 184.157 132.043 186.983 135.85 186.983C139.685 186.983 142.8 184.113 142.8 180.572C142.8 177.032 139.685 174.157 135.85 174.157C133.779 174.157 131.922 174.994 130.648 176.32C130.14 176.849 129.386 176.033 130.077 175.719C132.373 174.672 133.951 172.49 133.951 169.968C133.951 166.428 130.836 163.552 127 163.552Z" fill="url(#paint4_linear_10_1927)"/>
<path d="M188 240.448C184.165 240.448 181.05 237.572 181.05 234.032C181.05 231.51 182.627 229.328 184.923 228.281C185.614 227.967 184.86 227.151 184.352 227.68C183.078 229.006 181.221 229.843 179.151 229.843C175.315 229.843 172.2 226.968 172.2 223.428C172.2 219.887 175.315 217.017 179.151 217.017C182.957 217.017 186.061 219.843 186.101 223.347C186.108 223.968 187.141 224.032 187.141 223.196C187.141 221.879 185.77 214.886 185.036 213.552C185.837 213.739 187.173 213.893 188 213.893C188.827 213.893 190.163 213.739 190.964 213.552C190.23 214.886 188.859 221.879 188.859 223.196C188.859 224.032 189.892 223.968 189.899 223.347C189.939 219.843 193.043 217.017 196.85 217.017C200.685 217.017 203.8 219.887 203.8 223.428C203.8 226.968 200.685 229.843 196.85 229.843C194.779 229.843 192.922 229.006 191.648 227.68C191.14 227.151 190.386 227.967 191.077 228.281C193.373 229.328 194.951 231.51 194.951 234.032C194.951 237.572 191.836 240.448 188 240.448Z" fill="url(#paint5_linear_10_1927)"/>
<path d="M66 240.448C62.1645 240.448 59.0495 237.572 59.0495 234.032C59.0495 231.51 60.6271 229.328 62.9228 228.281C63.6136 227.967 62.8597 227.151 62.3524 227.68C61.0785 229.006 59.2206 229.843 57.1505 229.843C53.315 229.843 50.2 226.968 50.2 223.428C50.2 219.887 53.315 217.017 57.1505 217.017C60.9566 217.017 64.0609 219.843 64.101 223.347C64.1081 223.968 65.1414 224.032 65.1414 223.196C65.1414 221.879 63.7699 214.886 63.0356 213.552C63.8371 213.739 65.173 213.893 66 213.893C66.8271 213.893 68.1629 213.739 68.9645 213.552C68.2301 214.886 66.8586 221.879 66.8586 223.196C66.8586 224.032 67.8919 223.968 67.899 223.347C67.9391 219.843 71.0434 217.017 74.8495 217.017C78.685 217.017 81.8 219.887 81.8 223.428C81.8 226.968 78.685 229.843 74.8495 229.843C72.7795 229.843 70.9216 229.006 69.6476 227.68C69.1403 227.151 68.3864 227.967 69.0773 228.281C71.3729 229.328 72.9505 231.51 72.9505 234.032C72.9505 237.572 69.8355 240.448 66 240.448Z" fill="url(#paint6_linear_10_1927)"/>
<path d="M188 113.552C184.165 113.552 181.05 116.428 181.05 119.968C181.05 122.49 182.627 124.672 184.923 125.719C185.614 126.033 184.86 126.849 184.352 126.32C183.078 124.994 181.221 124.157 179.151 124.157C175.315 124.157 172.2 127.032 172.2 130.572C172.2 134.113 175.315 136.983 179.151 136.983C182.957 136.983 186.061 134.157 186.101 130.653C186.108 130.032 187.141 129.968 187.141 130.804C187.141 132.121 185.77 139.114 185.036 140.448C185.837 140.261 187.173 140.107 188 140.107C188.827 140.107 190.163 140.261 190.964 140.448C190.23 139.114 188.859 132.121 188.859 130.804C188.859 129.968 189.892 130.032 189.899 130.653C189.939 134.157 193.043 136.983 196.85 136.983C200.685 136.983 203.8 134.113 203.8 130.572C203.8 127.032 200.685 124.157 196.85 124.157C194.779 124.157 192.922 124.994 191.648 126.32C191.14 126.849 190.386 126.033 191.077 125.719C193.373 124.672 194.951 122.49 194.951 119.968C194.951 116.428 191.836 113.552 188 113.552Z" fill="url(#paint7_linear_10_1927)"/>
<path d="M188 44.5522C184.164 44.5522 181.049 47.4276 181.049 50.9681C181.049 53.4899 182.627 55.6724 184.923 56.7186C185.614 57.0335 184.86 57.8485 184.352 57.3203C183.078 55.9937 181.221 55.1566 179.15 55.1566C175.315 55.1566 172.2 58.032 172.2 61.5724C172.2 65.1129 175.315 67.9825 179.15 67.9825C182.957 67.9825 186.061 65.1565 186.101 61.6534C186.108 61.032 187.141 60.9676 187.141 61.8039C187.141 63.1207 185.77 70.1144 185.036 71.4479C185.837 71.2613 187.173 71.1065 188 71.1065C188.827 71.1065 190.163 71.2613 190.964 71.4479C190.23 70.1144 188.859 63.1207 188.859 61.8039C188.859 60.9676 189.892 61.032 189.899 61.6534C189.939 65.1565 193.043 67.9825 196.849 67.9825C200.685 67.9825 203.8 65.1129 203.8 61.5724C203.8 58.032 200.685 55.1566 196.849 55.1566C194.779 55.1566 192.922 55.9937 191.648 57.3203C191.14 57.8485 190.386 57.0335 191.077 56.7186C193.373 55.6724 194.95 53.4899 194.95 50.9681C194.95 47.4276 191.835 44.5522 188 44.5522Z" fill="url(#paint8_linear_10_1927)"/>
<path d="M188 309.448C184.165 309.448 181.05 306.572 181.05 303.032C181.05 300.51 182.627 298.328 184.923 297.281C185.614 296.967 184.86 296.151 184.352 296.68C183.078 298.006 181.221 298.843 179.151 298.843C175.315 298.843 172.2 295.968 172.2 292.428C172.2 288.887 175.315 286.017 179.151 286.017C182.957 286.017 186.061 288.843 186.101 292.347C186.108 292.968 187.141 293.032 187.141 292.196C187.141 290.879 185.77 283.886 185.036 282.552C185.837 282.739 187.173 282.893 188 282.893C188.827 282.893 190.163 282.739 190.964 282.552C190.23 283.886 188.859 290.879 188.859 292.196C188.859 293.032 189.892 292.968 189.899 292.347C189.939 288.843 193.043 286.017 196.85 286.017C200.685 286.017 203.8 288.887 203.8 292.428C203.8 295.968 200.685 298.843 196.85 298.843C194.779 298.843 192.922 298.006 191.648 296.68C191.14 296.151 190.386 296.967 191.077 297.281C193.373 298.328 194.951 300.51 194.951 303.032C194.951 306.572 191.836 309.448 188 309.448Z" fill="url(#paint9_linear_10_1927)"/>
<path d="M66 309.448C62.1645 309.448 59.0495 306.572 59.0495 303.032C59.0495 300.51 60.6271 298.328 62.9228 297.281C63.6136 296.967 62.8597 296.151 62.3524 296.68C61.0785 298.006 59.2206 298.843 57.1505 298.843C53.315 298.843 50.2 295.968 50.2 292.428C50.2 288.887 53.315 286.017 57.1505 286.017C60.9566 286.017 64.0609 288.843 64.101 292.347C64.1081 292.968 65.1414 293.032 65.1414 292.196C65.1414 290.879 63.7699 283.886 63.0356 282.552C63.8371 282.739 65.173 282.893 66 282.893C66.8271 282.893 68.1629 282.739 68.9645 282.552C68.2301 283.886 66.8586 290.879 66.8586 292.196C66.8586 293.032 67.8919 292.968 67.899 292.347C67.9391 288.843 71.0434 286.017 74.8495 286.017C78.685 286.017 81.8 288.887 81.8 292.428C81.8 295.968 78.685 298.843 74.8495 298.843C72.7795 298.843 70.9216 298.006 69.6476 296.68C69.1403 296.151 68.3864 296.967 69.0773 297.281C71.3729 298.328 72.9505 300.51 72.9505 303.032C72.9505 306.572 69.8355 309.448 66 309.448Z" fill="url(#paint10_linear_10_1927)"/>
<path d="M223.744 303.488C224.747 303.488 225.611 303.691 226.336 304.096C227.061 304.523 227.616 305.067 228 305.728C228.363 306.389 228.544 307.093 228.544 307.84C228.544 308.757 228.277 309.536 227.744 310.176C227.211 310.816 226.517 311.136 225.664 311.136C225.024 311.136 224.512 310.933 224.128 310.528C223.723 310.144 223.52 309.632 223.52 308.992C223.52 308.011 224 307.349 224.96 307.008C225.387 306.859 225.707 306.709 225.92 306.56C226.133 306.411 226.24 306.219 226.24 305.984C226.24 305.557 226.016 305.205 225.568 304.928C225.12 304.651 224.501 304.512 223.712 304.512C222.517 304.512 221.643 305.024 221.088 306.048C220.512 307.072 220.224 308.299 220.224 309.728V314.304L220.416 314.4C220.757 314.059 221.205 313.792 221.76 313.6C222.315 313.429 222.901 313.344 223.52 313.344C225.653 313.344 227.253 313.973 228.32 315.232C229.365 316.491 229.888 318.101 229.888 320.064C229.888 321.28 229.643 322.432 229.152 323.52C228.64 324.629 227.861 325.536 226.816 326.24C225.749 326.944 224.427 327.296 222.848 327.296C221.269 327.296 219.904 326.784 218.752 325.76C217.579 324.736 216.683 323.36 216.064 321.632C215.424 319.904 215.104 318.005 215.104 315.936C215.104 313.483 215.456 311.317 216.16 309.44C216.843 307.563 217.835 306.101 219.136 305.056C220.437 304.011 221.973 303.488 223.744 303.488ZM223.104 314.56C221.952 314.56 221.163 315.008 220.736 315.904C220.523 316.309 220.384 316.875 220.32 317.6C220.256 318.325 220.224 319.307 220.224 320.544C220.224 322.485 220.427 323.925 220.832 324.864C221.237 325.803 221.899 326.272 222.816 326.272C223.541 326.272 224.075 326.016 224.416 325.504C224.736 325.013 224.939 324.373 225.024 323.584C225.109 322.816 225.152 321.749 225.152 320.384C225.152 318.656 225.013 317.248 224.736 316.16C224.437 315.093 223.893 314.56 223.104 314.56Z" fill="#D3AF37"/>
<path d="M222 294.724C220.082 294.724 218.525 293.286 218.525 291.516C218.525 290.255 219.314 289.164 220.461 288.641C220.807 288.483 220.43 288.076 220.176 288.34C219.539 289.003 218.61 289.422 217.575 289.422C215.657 289.422 214.1 287.984 214.1 286.214C214.1 284.444 215.657 283.009 217.575 283.009C219.478 283.009 221.03 284.422 221.05 286.173C221.054 286.484 221.571 286.516 221.571 286.098C221.571 285.44 220.885 281.943 220.518 281.276C220.919 281.369 221.586 281.447 222 281.447C222.414 281.447 223.081 281.369 223.482 281.276C223.115 281.943 222.429 285.44 222.429 286.098C222.429 286.516 222.946 286.484 222.949 286.173C222.97 284.422 224.522 283.009 226.425 283.009C228.342 283.009 229.9 284.444 229.9 286.214C229.9 287.984 228.342 289.422 226.425 289.422C225.39 289.422 224.461 289.003 223.824 288.34C223.57 288.076 223.193 288.483 223.539 288.641C224.686 289.164 225.475 290.255 225.475 291.516C225.475 293.286 223.918 294.724 222 294.724Z" fill="url(#paint11_linear_10_1927)"/>
<defs>
<linearGradient id="paint0_linear_10_1927" x1="2" y1="2" x2="252" y2="352" gradientUnits="userSpaceOnUse">
<stop stop-color="#3F3E3E"/>
<stop offset="1"/>
</linearGradient>
<linearGradient id="paint1_linear_10_1927" x1="27.5105" y1="63.2688" x2="32.0028" y2="72.072" gradientUnits="userSpaceOnUse">
<stop stop-color="#FFE079"/>
<stop offset="0.44" stop-color="#D3AF37"/>
</linearGradient>
<linearGradient id="paint2_linear_10_1927" x1="57.0209" y1="52.5376" x2="66.0056" y2="70.1441" gradientUnits="userSpaceOnUse">
<stop stop-color="#FFE079"/>
<stop offset="0.44" stop-color="#D3AF37"/>
</linearGradient>
<linearGradient id="paint3_linear_10_1927" x1="57.021" y1="121.538" x2="66.0056" y2="139.144" gradientUnits="userSpaceOnUse">
<stop stop-color="#FFE079"/>
<stop offset="0.44" stop-color="#D3AF37"/>
</linearGradient>
<linearGradient id="paint4_linear_10_1927" x1="118.021" y1="171.538" x2="127.006" y2="189.144" gradientUnits="userSpaceOnUse">
<stop stop-color="#FFE079"/>
<stop offset="0.44" stop-color="#D3AF37"/>
</linearGradient>
<linearGradient id="paint5_linear_10_1927" x1="183" y1="216.5" x2="202.999" y2="226.308" gradientUnits="userSpaceOnUse">
<stop stop-color="#FFE079"/>
<stop offset="0.44" stop-color="#D3AF37"/>
</linearGradient>
<linearGradient id="paint6_linear_10_1927" x1="61" y1="216.5" x2="80.9985" y2="226.308" gradientUnits="userSpaceOnUse">
<stop stop-color="#FFE079"/>
<stop offset="0.44" stop-color="#D3AF37"/>
</linearGradient>
<linearGradient id="paint7_linear_10_1927" x1="179.021" y1="121.538" x2="188.006" y2="139.144" gradientUnits="userSpaceOnUse">
<stop stop-color="#FFE079"/>
<stop offset="0.44" stop-color="#D3AF37"/>
</linearGradient>
<linearGradient id="paint8_linear_10_1927" x1="179.021" y1="52.5376" x2="188.006" y2="70.1441" gradientUnits="userSpaceOnUse">
<stop stop-color="#FFE079"/>
<stop offset="0.44" stop-color="#D3AF37"/>
</linearGradient>
<linearGradient id="paint9_linear_10_1927" x1="183" y1="285.5" x2="202.999" y2="295.308" gradientUnits="userSpaceOnUse">
<stop stop-color="#FFE079"/>
<stop offset="0.44" stop-color="#D3AF37"/>
</linearGradient>
<linearGradient id="paint10_linear_10_1927" x1="61" y1="285.5" x2="80.9985" y2="295.308" gradientUnits="userSpaceOnUse">
<stop stop-color="#FFE079"/>
<stop offset="0.44" stop-color="#D3AF37"/>
</linearGradient>
<linearGradient id="paint11_linear_10_1927" x1="219.5" y1="282.75" x2="229.499" y2="287.654" gradientUnits="userSpaceOnUse">
<stop stop-color="#FFE079"/>
<stop offset="0.44" stop-color="#D3AF37"/>
</linearGradient>
</defs>
</svg>
