<svg width="254" height="354" viewBox="0 0 254 354" fill="none" xmlns="http://www.w3.org/2000/svg">
<path d="M2 10C2 5.58172 5.58172 2 10 2H244C248.418 2 252 5.58172 252 10V344C252 348.418 248.418 352 244 352H10C5.58172 352 2 348.418 2 344V10Z" fill="url(#paint0_linear_10_1894)"/>
<path d="M2 10C2 5.58172 5.58172 2 10 2H244C248.418 2 252 5.58172 252 10V344C252 348.418 248.418 352 244 352H10C5.58172 352 2 348.418 2 344V10Z" stroke="#D3AF37" stroke-width="3"/>
<path d="M31.152 50.512C29.9573 50.512 28.784 50.2773 27.632 49.808C26.5013 49.3387 25.5733 48.6667 24.848 47.792C24.144 46.896 23.792 45.8507 23.792 44.656C23.792 43.312 24.1867 42.1707 24.976 41.232C25.7653 40.2933 26.6613 39.6107 27.664 39.184V39.12C25.3813 37.776 24.24 35.8453 24.24 33.328C24.24 31.92 24.6027 30.7147 25.328 29.712C26.0747 28.7093 27.0133 27.9627 28.144 27.472C29.296 26.96 30.4693 26.704 31.664 26.704C33.072 26.704 34.2453 26.9707 35.184 27.504C36.144 28.0373 36.8373 28.6987 37.264 29.488C37.712 30.2773 37.936 31.0453 37.936 31.792C37.936 32.8587 37.5947 33.8293 36.912 34.704C36.2507 35.5787 35.4613 36.2507 34.544 36.72V36.848L35.152 37.168C36.4107 37.7867 37.4027 38.6293 38.128 39.696C38.8533 40.7627 39.216 41.84 39.216 42.928C39.216 44.3147 38.9067 45.584 38.288 46.736C37.6693 47.888 36.752 48.8053 35.536 49.488C34.32 50.1707 32.8587 50.512 31.152 50.512ZM33.648 36.368C34.5013 36.0267 35.1733 35.4507 35.664 34.64C36.1547 33.808 36.4 32.912 36.4 31.952C36.4 31.0773 36.176 30.32 35.728 29.68C35.28 29.04 34.704 28.56 34 28.24C33.3173 27.8987 32.6133 27.728 31.888 27.728C30.736 27.728 29.6587 28.0053 28.656 28.56C27.6747 29.1147 27.184 29.9893 27.184 31.184C27.184 32.0373 27.376 32.688 27.76 33.136C28.144 33.584 28.7093 33.9893 29.456 34.352L33.648 36.368ZM32.016 49.488C32.9547 49.488 33.7867 49.3173 34.512 48.976C35.2373 48.6133 35.792 48.144 36.176 47.568C36.5813 46.992 36.784 46.3733 36.784 45.712C36.784 44.8587 36.5173 44.1547 35.984 43.6C35.4507 43.0453 34.7573 42.5547 33.904 42.128L28.592 39.504C27.7387 39.9733 27.088 40.5387 26.64 41.2C26.192 41.84 25.968 42.8213 25.968 44.144C25.968 45.5093 26.3093 46.5973 26.992 47.408C27.696 48.1973 28.5067 48.7413 29.424 49.04C30.3627 49.3387 31.2267 49.488 32.016 49.488Z" fill="#D3AF37"/>
<path d="M32 59.2761C30.0823 59.2761 28.5248 60.7138 28.5248 62.484C28.5248 63.745 29.3136 64.8362 30.4614 65.3593C30.8068 65.5167 30.4298 65.9243 30.1762 65.6601C29.5392 64.9969 28.6103 64.5783 27.5753 64.5783C25.6575 64.5783 24.1 66.016 24.1 67.7862C24.1 69.5565 25.6575 70.9913 27.5753 70.9913C29.4783 70.9913 31.0305 69.5783 31.0505 67.8267C31.0541 67.516 31.5707 67.4838 31.5707 67.9019C31.5707 68.5603 30.885 72.0572 30.5178 72.7239C30.9186 72.6306 31.5865 72.5533 32 72.5533C32.4135 72.5533 33.0815 72.6306 33.4822 72.7239C33.1151 72.0572 32.4293 68.5603 32.4293 67.9019C32.4293 67.4838 32.946 67.516 32.9495 67.8267C32.9696 69.5783 34.5217 70.9913 36.4248 70.9913C38.3425 70.9913 39.9 69.5565 39.9 67.7862C39.9 66.016 38.3425 64.5783 36.4248 64.5783C35.3897 64.5783 34.4608 64.9969 33.8238 65.6601C33.5702 65.9243 33.1932 65.5167 33.5386 65.3593C34.6865 64.8362 35.4753 63.745 35.4753 62.484C35.4753 60.7138 33.9178 59.2761 32 59.2761Z" fill="url(#paint1_linear_10_1894)"/>
<path d="M66 44.5522C69.8355 44.5522 72.9505 47.4276 72.9505 50.9681C72.9505 53.4899 71.3729 55.6724 69.0772 56.7186C68.3864 57.0335 69.1403 57.8485 69.6476 57.3203C70.9215 55.9937 72.7794 55.1566 74.8495 55.1566C78.685 55.1566 81.8 58.032 81.8 61.5724C81.8 65.1129 78.685 67.9825 74.8495 67.9825C71.0434 67.9825 67.9391 65.1565 67.899 61.6534C67.8919 61.032 66.8586 60.9676 66.8586 61.8039C66.8586 63.1207 68.2301 70.1144 68.9644 71.4479C68.1629 71.2613 66.827 71.1065 66 71.1065C65.1729 71.1065 63.8371 71.2613 63.0355 71.4479C63.7699 70.1144 65.1414 63.1207 65.1414 61.8039C65.1414 60.9676 64.1081 61.032 64.101 61.6534C64.0609 65.1565 60.9566 67.9825 57.1505 67.9825C53.315 67.9825 50.2 65.1129 50.2 61.5724C50.2 58.032 53.315 55.1566 57.1505 55.1566C59.2205 55.1566 61.0784 55.9937 62.3524 57.3203C62.8597 57.8485 63.6136 57.0335 62.9227 56.7186C60.6271 55.6724 59.0495 53.4899 59.0495 50.9681C59.0495 47.4276 62.1645 44.5522 66 44.5522Z" fill="url(#paint2_linear_10_1894)"/>
<path d="M66 163.552C62.1645 163.552 59.0495 166.428 59.0495 169.968C59.0495 172.49 60.6271 174.672 62.9228 175.719C63.6136 176.033 62.8597 176.849 62.3524 176.32C61.0785 174.994 59.2206 174.157 57.1505 174.157C53.315 174.157 50.2 177.032 50.2 180.572C50.2 184.113 53.315 186.983 57.1505 186.983C60.9566 186.983 64.0609 184.157 64.101 180.653C64.1081 180.032 65.1414 179.968 65.1414 180.804C65.1414 182.121 63.7699 189.114 63.0356 190.448C63.8371 190.261 65.173 190.107 66 190.107C66.8271 190.107 68.1629 190.261 68.9645 190.448C68.2301 189.114 66.8586 182.121 66.8586 180.804C66.8586 179.968 67.8919 180.032 67.899 180.653C67.9391 184.157 71.0434 186.983 74.8495 186.983C78.685 186.983 81.8 184.113 81.8 180.572C81.8 177.032 78.685 174.157 74.8495 174.157C72.7795 174.157 70.9216 174.994 69.6476 176.32C69.1403 176.849 68.3864 176.033 69.0773 175.719C71.3729 174.672 72.9505 172.49 72.9505 169.968C72.9505 166.428 69.8355 163.552 66 163.552Z" fill="url(#paint3_linear_10_1894)"/>
<path d="M127 104.552C123.165 104.552 120.05 107.428 120.05 110.968C120.05 113.49 121.627 115.672 123.923 116.719C124.614 117.033 123.86 117.849 123.352 117.32C122.078 115.994 120.221 115.157 118.151 115.157C114.315 115.157 111.2 118.032 111.2 121.572C111.2 125.113 114.315 127.983 118.151 127.983C121.957 127.983 125.061 125.157 125.101 121.653C125.108 121.032 126.141 120.968 126.141 121.804C126.141 123.121 124.77 130.114 124.036 131.448C124.837 131.261 126.173 131.107 127 131.107C127.827 131.107 129.163 131.261 129.964 131.448C129.23 130.114 127.859 123.121 127.859 121.804C127.859 120.968 128.892 121.032 128.899 121.653C128.939 125.157 132.043 127.983 135.85 127.983C139.685 127.983 142.8 125.113 142.8 121.572C142.8 118.032 139.685 115.157 135.85 115.157C133.779 115.157 131.922 115.994 130.648 117.32C130.14 117.849 129.386 117.033 130.077 116.719C132.373 115.672 133.951 113.49 133.951 110.968C133.951 107.428 130.836 104.552 127 104.552Z" fill="url(#paint4_linear_10_1894)"/>
<path d="M127 249.448C123.165 249.448 120.05 246.572 120.05 243.032C120.05 240.51 121.627 238.328 123.923 237.281C124.614 236.967 123.86 236.151 123.352 236.68C122.078 238.006 120.221 238.843 118.151 238.843C114.315 238.843 111.2 235.968 111.2 232.428C111.2 228.887 114.315 226.017 118.151 226.017C121.957 226.017 125.061 228.843 125.101 232.347C125.108 232.968 126.141 233.032 126.141 232.196C126.141 230.879 124.77 223.886 124.036 222.552C124.837 222.739 126.173 222.893 127 222.893C127.827 222.893 129.163 222.739 129.964 222.552C129.23 223.886 127.859 230.879 127.859 232.196C127.859 233.032 128.892 232.968 128.899 232.347C128.939 228.843 132.043 226.017 135.85 226.017C139.685 226.017 142.8 228.887 142.8 232.428C142.8 235.968 139.685 238.843 135.85 238.843C133.779 238.843 131.922 238.006 130.648 236.68C130.14 236.151 129.386 236.967 130.077 237.281C132.373 238.328 133.951 240.51 133.951 243.032C133.951 246.572 130.836 249.448 127 249.448Z" fill="url(#paint5_linear_10_1894)"/>
<path d="M188 163.552C184.165 163.552 181.05 166.428 181.05 169.968C181.05 172.49 182.627 174.672 184.923 175.719C185.614 176.033 184.86 176.849 184.352 176.32C183.078 174.994 181.221 174.157 179.151 174.157C175.315 174.157 172.2 177.032 172.2 180.572C172.2 184.113 175.315 186.983 179.151 186.983C182.957 186.983 186.061 184.157 186.101 180.653C186.108 180.032 187.141 179.968 187.141 180.804C187.141 182.121 185.77 189.114 185.036 190.448C185.837 190.261 187.173 190.107 188 190.107C188.827 190.107 190.163 190.261 190.964 190.448C190.23 189.114 188.859 182.121 188.859 180.804C188.859 179.968 189.892 180.032 189.899 180.653C189.939 184.157 193.043 186.983 196.85 186.983C200.685 186.983 203.8 184.113 203.8 180.572C203.8 177.032 200.685 174.157 196.85 174.157C194.779 174.157 192.922 174.994 191.648 176.32C191.14 176.849 190.386 176.033 191.077 175.719C193.373 174.672 194.951 172.49 194.951 169.968C194.951 166.428 191.836 163.552 188 163.552Z" fill="url(#paint6_linear_10_1894)"/>
<path d="M188 44.5522C191.835 44.5522 194.95 47.4276 194.95 50.9681C194.95 53.4899 193.373 55.6724 191.077 56.7186C190.386 57.0335 191.14 57.8485 191.648 57.3203C192.922 55.9937 194.779 55.1566 196.849 55.1566C200.685 55.1566 203.8 58.032 203.8 61.5724C203.8 65.1129 200.685 67.9825 196.849 67.9825C193.043 67.9825 189.939 65.1565 189.899 61.6534C189.892 61.032 188.859 60.9676 188.859 61.8039C188.859 63.1207 190.23 70.1144 190.964 71.4479C190.163 71.2613 188.827 71.1065 188 71.1065C187.173 71.1065 185.837 71.2613 185.036 71.4479C185.77 70.1144 187.141 63.1207 187.141 61.8039C187.141 60.9676 186.108 61.032 186.101 61.6534C186.061 65.1565 182.957 67.9825 179.15 67.9825C175.315 67.9825 172.2 65.1129 172.2 61.5724C172.2 58.032 175.315 55.1566 179.15 55.1566C181.221 55.1566 183.078 55.9937 184.352 57.3203C184.86 57.8485 185.614 57.0335 184.923 56.7186C182.627 55.6724 181.049 53.4899 181.049 50.9681C181.049 47.4276 184.164 44.5522 188 44.5522Z" fill="url(#paint7_linear_10_1894)"/>
<path d="M188 309.448C184.165 309.448 181.05 306.572 181.05 303.032C181.05 300.51 182.627 298.328 184.923 297.281C185.614 296.967 184.86 296.151 184.352 296.68C183.078 298.006 181.221 298.843 179.151 298.843C175.315 298.843 172.2 295.968 172.2 292.428C172.2 288.887 175.315 286.017 179.151 286.017C182.957 286.017 186.061 288.843 186.101 292.347C186.108 292.968 187.141 293.032 187.141 292.196C187.141 290.879 185.77 283.886 185.036 282.552C185.837 282.739 187.173 282.893 188 282.893C188.827 282.893 190.163 282.739 190.964 282.552C190.23 283.886 188.859 290.879 188.859 292.196C188.859 293.032 189.892 292.968 189.899 292.347C189.939 288.843 193.043 286.017 196.85 286.017C200.685 286.017 203.8 288.887 203.8 292.428C203.8 295.968 200.685 298.843 196.85 298.843C194.779 298.843 192.922 298.006 191.648 296.68C191.14 296.151 190.386 296.967 191.077 297.281C193.373 298.328 194.951 300.51 194.951 303.032C194.951 306.572 191.836 309.448 188 309.448Z" fill="url(#paint8_linear_10_1894)"/>
<path d="M66 309.448C62.1645 309.448 59.0495 306.572 59.0495 303.032C59.0495 300.51 60.6271 298.328 62.9228 297.281C63.6136 296.967 62.8597 296.151 62.3524 296.68C61.0785 298.006 59.2206 298.843 57.1505 298.843C53.315 298.843 50.2 295.968 50.2 292.428C50.2 288.887 53.315 286.017 57.1505 286.017C60.9566 286.017 64.0609 288.843 64.101 292.347C64.1081 292.968 65.1414 293.032 65.1414 292.196C65.1414 290.879 63.7699 283.886 63.0356 282.552C63.8371 282.739 65.173 282.893 66 282.893C66.8271 282.893 68.1629 282.739 68.9645 282.552C68.2301 283.886 66.8586 290.879 66.8586 292.196C66.8586 293.032 67.8919 292.968 67.899 292.347C67.9391 288.843 71.0434 286.017 74.8495 286.017C78.685 286.017 81.8 288.887 81.8 292.428C81.8 295.968 78.685 298.843 74.8495 298.843C72.7795 298.843 70.9216 298.006 69.6476 296.68C69.1403 296.151 68.3864 296.967 69.0773 297.281C71.3729 298.328 72.9505 300.51 72.9505 303.032C72.9505 306.572 69.8355 309.448 66 309.448Z" fill="url(#paint9_linear_10_1894)"/>
<path d="M222.848 303.488C224.043 303.488 225.216 303.723 226.368 304.192C227.499 304.661 228.427 305.333 229.152 306.208C229.856 307.104 230.208 308.149 230.208 309.344C230.208 310.688 229.813 311.829 229.024 312.768C228.235 313.707 227.339 314.389 226.336 314.816V314.88C228.619 316.224 229.76 318.155 229.76 320.672C229.76 322.08 229.397 323.285 228.672 324.288C227.925 325.291 226.987 326.037 225.856 326.528C224.704 327.04 223.531 327.296 222.336 327.296C220.928 327.296 219.755 327.029 218.816 326.496C217.856 325.963 217.163 325.301 216.736 324.512C216.288 323.723 216.064 322.955 216.064 322.208C216.064 321.141 216.405 320.171 217.088 319.296C217.749 318.421 218.539 317.749 219.456 317.28V317.152L218.848 316.832C217.589 316.213 216.597 315.371 215.872 314.304C215.147 313.237 214.784 312.16 214.784 311.072C214.784 309.685 215.093 308.416 215.712 307.264C216.331 306.112 217.248 305.195 218.464 304.512C219.68 303.829 221.141 303.488 222.848 303.488ZM220.352 317.632C219.499 317.973 218.827 318.549 218.336 319.36C217.845 320.192 217.6 321.088 217.6 322.048C217.6 322.923 217.824 323.68 218.272 324.32C218.72 324.96 219.296 325.44 220 325.76C220.683 326.101 221.387 326.272 222.112 326.272C223.264 326.272 224.341 325.995 225.344 325.44C226.325 324.885 226.816 324.011 226.816 322.816C226.816 321.963 226.624 321.312 226.24 320.864C225.856 320.416 225.291 320.011 224.544 319.648L220.352 317.632ZM221.984 304.512C221.045 304.512 220.213 304.683 219.488 305.024C218.763 305.387 218.208 305.856 217.824 306.432C217.419 307.008 217.216 307.627 217.216 308.288C217.216 309.141 217.483 309.845 218.016 310.4C218.549 310.955 219.243 311.445 220.096 311.872L225.408 314.496C226.261 314.027 226.912 313.461 227.36 312.8C227.808 312.16 228.032 311.179 228.032 309.856C228.032 308.491 227.691 307.403 227.008 306.592C226.304 305.803 225.493 305.259 224.576 304.96C223.637 304.661 222.773 304.512 221.984 304.512Z" fill="#D3AF37"/>
<path d="M222 294.724C220.082 294.724 218.525 293.286 218.525 291.516C218.525 290.255 219.314 289.164 220.461 288.641C220.807 288.483 220.43 288.076 220.176 288.34C219.539 289.003 218.61 289.422 217.575 289.422C215.657 289.422 214.1 287.984 214.1 286.214C214.1 284.444 215.657 283.009 217.575 283.009C219.478 283.009 221.03 284.422 221.05 286.173C221.054 286.484 221.571 286.516 221.571 286.098C221.571 285.44 220.885 281.943 220.518 281.276C220.919 281.369 221.586 281.447 222 281.447C222.414 281.447 223.081 281.369 223.482 281.276C223.115 281.943 222.429 285.44 222.429 286.098C222.429 286.516 222.946 286.484 222.949 286.173C222.97 284.422 224.522 283.009 226.425 283.009C228.342 283.009 229.9 284.444 229.9 286.214C229.9 287.984 228.342 289.422 226.425 289.422C225.39 289.422 224.461 289.003 223.824 288.34C223.57 288.076 223.193 288.483 223.539 288.641C224.686 289.164 225.475 290.255 225.475 291.516C225.475 293.286 223.918 294.724 222 294.724Z" fill="url(#paint10_linear_10_1894)"/>
<defs>
<linearGradient id="paint0_linear_10_1894" x1="2" y1="2" x2="252" y2="352" gradientUnits="userSpaceOnUse">
<stop stop-color="#3F3E3E"/>
<stop offset="1"/>
</linearGradient>
<linearGradient id="paint1_linear_10_1894" x1="27.5105" y1="63.2688" x2="32.0028" y2="72.072" gradientUnits="userSpaceOnUse">
<stop stop-color="#FFE079"/>
<stop offset="0.44" stop-color="#D3AF37"/>
</linearGradient>
<linearGradient id="paint2_linear_10_1894" x1="59" y1="51.5" x2="80.7884" y2="60.8955" gradientUnits="userSpaceOnUse">
<stop stop-color="#FFE079"/>
<stop offset="0.44" stop-color="#D3AF37"/>
</linearGradient>
<linearGradient id="paint3_linear_10_1894" x1="57.021" y1="171.538" x2="66.0056" y2="189.144" gradientUnits="userSpaceOnUse">
<stop stop-color="#FFE079"/>
<stop offset="0.44" stop-color="#D3AF37"/>
</linearGradient>
<linearGradient id="paint4_linear_10_1894" x1="118.021" y1="112.538" x2="127.006" y2="130.144" gradientUnits="userSpaceOnUse">
<stop stop-color="#FFE079"/>
<stop offset="0.44" stop-color="#D3AF37"/>
</linearGradient>
<linearGradient id="paint5_linear_10_1894" x1="122" y1="225.5" x2="141.999" y2="235.308" gradientUnits="userSpaceOnUse">
<stop stop-color="#FFE079"/>
<stop offset="0.44" stop-color="#D3AF37"/>
</linearGradient>
<linearGradient id="paint6_linear_10_1894" x1="179.021" y1="171.538" x2="188.006" y2="189.144" gradientUnits="userSpaceOnUse">
<stop stop-color="#FFE079"/>
<stop offset="0.44" stop-color="#D3AF37"/>
</linearGradient>
<linearGradient id="paint7_linear_10_1894" x1="179" y1="54" x2="196.586" y2="61.0371" gradientUnits="userSpaceOnUse">
<stop stop-color="#FFE079"/>
<stop offset="0.44" stop-color="#D3AF37"/>
</linearGradient>
<linearGradient id="paint8_linear_10_1894" x1="183" y1="285.5" x2="202.999" y2="295.308" gradientUnits="userSpaceOnUse">
<stop stop-color="#FFE079"/>
<stop offset="0.44" stop-color="#D3AF37"/>
</linearGradient>
<linearGradient id="paint9_linear_10_1894" x1="61" y1="285.5" x2="80.9985" y2="295.308" gradientUnits="userSpaceOnUse">
<stop stop-color="#FFE079"/>
<stop offset="0.44" stop-color="#D3AF37"/>
</linearGradient>
<linearGradient id="paint10_linear_10_1894" x1="219.5" y1="282.75" x2="229.499" y2="287.654" gradientUnits="userSpaceOnUse">
<stop stop-color="#FFE079"/>
<stop offset="0.44" stop-color="#D3AF37"/>
</linearGradient>
</defs>
</svg>
