<svg width="254" height="354" viewBox="0 0 254 354" fill="none" xmlns="http://www.w3.org/2000/svg">
<path d="M2 10C2 5.58172 5.58172 2 10 2H244C248.418 2 252 5.58172 252 10V344C252 348.418 248.418 352 244 352H10C5.58172 352 2 348.418 2 344V10Z" fill="url(#paint0_linear_10_1774)"/>
<path d="M2 10C2 5.58172 5.58172 2 10 2H244C248.418 2 252 5.58172 252 10V344C252 348.418 248.418 352 244 352H10C5.58172 352 2 348.418 2 344V10Z" stroke="#D3AF37" stroke-width="3"/>
<path d="M30.096 50.512C28.2613 50.512 26.7467 50.064 25.552 49.168C24.3787 48.2507 23.792 47.024 23.792 45.488C23.792 44.6133 24.08 43.856 24.656 43.216C25.2533 42.5547 25.9893 42.224 26.864 42.224C27.5893 42.224 28.1653 42.4267 28.592 42.832C29.0187 43.2373 29.232 43.7387 29.232 44.336C29.232 45.3813 28.7413 46.1173 27.76 46.544C27.5253 46.6507 27.312 46.8 27.12 46.992C26.9493 47.184 26.864 47.3973 26.864 47.632C26.864 48.208 27.1413 48.6667 27.696 49.008C28.272 49.328 29.04 49.488 30 49.488C32.2613 49.488 33.392 47.6 33.392 43.824C33.392 42.0533 33.0827 40.7413 32.464 39.888C31.8453 39.0347 31.0773 38.608 30.16 38.608H26.928V37.456H30.096C31.0987 37.456 31.824 37.0827 32.272 36.336C32.7413 35.568 32.976 34.384 32.976 32.784C32.976 30.8427 32.7413 29.52 32.272 28.816C31.824 28.0907 31.1307 27.728 30.192 27.728C29.3813 27.728 28.688 27.9627 28.112 28.432C27.536 28.88 27.248 29.4667 27.248 30.192C27.248 30.6613 27.568 31.1093 28.208 31.536C28.9547 32.0267 29.328 32.6667 29.328 33.456C29.328 33.968 29.136 34.416 28.752 34.8C28.3893 35.184 27.888 35.376 27.248 35.376C26.4587 35.376 25.776 35.0667 25.2 34.448C24.6453 33.808 24.368 33.008 24.368 32.048C24.368 30.9813 24.6453 30.0427 25.2 29.232C25.7547 28.4213 26.5013 27.8027 27.44 27.376C28.4 26.928 29.4453 26.704 30.576 26.704C32.7307 26.704 34.4693 27.216 35.792 28.24C37.1147 29.264 37.776 30.6507 37.776 32.4C37.776 33.9147 37.2533 35.12 36.208 36.016C35.184 36.912 33.9573 37.5093 32.528 37.808V38.096C33.5307 38.1813 34.4907 38.4907 35.408 39.024C36.3253 39.536 37.072 40.2187 37.648 41.072C38.224 41.9253 38.512 42.8853 38.512 43.952C38.512 46.064 37.744 47.6853 36.208 48.816C34.6933 49.9467 32.656 50.512 30.096 50.512Z" fill="#D3AF37"/>
<path d="M32 59.2761C30.0823 59.2761 28.5248 60.7138 28.5248 62.484C28.5248 63.745 29.3136 64.8362 30.4614 65.3593C30.8068 65.5167 30.4298 65.9243 30.1762 65.6601C29.5392 64.9969 28.6103 64.5783 27.5753 64.5783C25.6575 64.5783 24.1 66.016 24.1 67.7862C24.1 69.5565 25.6575 70.9913 27.5753 70.9913C29.4783 70.9913 31.0305 69.5783 31.0505 67.8267C31.0541 67.516 31.5707 67.4838 31.5707 67.9019C31.5707 68.5603 30.885 72.0572 30.5178 72.7239C30.9186 72.6306 31.5865 72.5533 32 72.5533C32.4135 72.5533 33.0815 72.6306 33.4822 72.7239C33.1151 72.0572 32.4293 68.5603 32.4293 67.9019C32.4293 67.4838 32.946 67.516 32.9495 67.8267C32.9696 69.5783 34.5217 70.9913 36.4248 70.9913C38.3425 70.9913 39.9 69.5565 39.9 67.7862C39.9 66.016 38.3425 64.5783 36.4248 64.5783C35.3897 64.5783 34.4608 64.9969 33.8238 65.6601C33.5702 65.9243 33.1932 65.5167 33.5386 65.3593C34.6865 64.8362 35.4753 63.745 35.4753 62.484C35.4753 60.7138 33.9178 59.2761 32 59.2761Z" fill="url(#paint1_linear_10_1774)"/>
<path d="M127 60.5522C123.165 60.5522 120.05 63.4276 120.05 66.968C120.05 69.4899 121.627 71.6723 123.923 72.7186C124.614 73.0334 123.86 73.8485 123.352 73.3202C122.078 71.9936 120.221 71.1565 118.151 71.1565C114.315 71.1565 111.2 74.0319 111.2 77.5724C111.2 81.1128 114.315 83.9824 118.151 83.9824C121.957 83.9824 125.061 81.1565 125.101 77.6534C125.108 77.0319 126.141 76.9676 126.141 77.8038C126.141 79.1206 124.77 86.1144 124.036 87.4478C124.837 87.2612 126.173 87.1065 127 87.1065C127.827 87.1065 129.163 87.2612 129.964 87.4478C129.23 86.1144 127.859 79.1206 127.859 77.8038C127.859 76.9676 128.892 77.0319 128.899 77.6534C128.939 81.1565 132.043 83.9824 135.85 83.9824C139.685 83.9824 142.8 81.1128 142.8 77.5724C142.8 74.0319 139.685 71.1565 135.85 71.1565C133.779 71.1565 131.922 71.9936 130.648 73.3202C130.14 73.8485 129.386 73.0334 130.077 72.7186C132.373 71.6723 133.951 69.4899 133.951 66.968C133.951 63.4276 130.836 60.5522 127 60.5522Z" fill="url(#paint2_linear_10_1774)"/>
<path d="M127 163.552C123.165 163.552 120.05 166.428 120.05 169.968C120.05 172.49 121.627 174.672 123.923 175.719C124.614 176.033 123.86 176.848 123.352 176.32C122.078 174.994 120.221 174.157 118.151 174.157C114.315 174.157 111.2 177.032 111.2 180.572C111.2 184.113 114.315 186.982 118.151 186.982C121.957 186.982 125.061 184.156 125.101 180.653C125.108 180.032 126.141 179.968 126.141 180.804C126.141 182.121 124.77 189.114 124.036 190.448C124.837 190.261 126.173 190.106 127 190.106C127.827 190.106 129.163 190.261 129.964 190.448C129.23 189.114 127.859 182.121 127.859 180.804C127.859 179.968 128.892 180.032 128.899 180.653C128.939 184.156 132.043 186.982 135.85 186.982C139.685 186.982 142.8 184.113 142.8 180.572C142.8 177.032 139.685 174.157 135.85 174.157C133.779 174.157 131.922 174.994 130.648 176.32C130.14 176.848 129.386 176.033 130.077 175.719C132.373 174.672 133.951 172.49 133.951 169.968C133.951 166.428 130.836 163.552 127 163.552Z" fill="url(#paint3_linear_10_1774)"/>
<path d="M127 293.448C123.165 293.448 120.05 290.572 120.05 287.032C120.05 284.51 121.627 282.328 123.923 281.281C124.614 280.967 123.86 280.151 123.352 280.68C122.078 282.006 120.221 282.843 118.151 282.843C114.315 282.843 111.2 279.968 111.2 276.428C111.2 272.887 114.315 270.017 118.151 270.017C121.957 270.017 125.061 272.843 125.101 276.347C125.108 276.968 126.141 277.032 126.141 276.196C126.141 274.879 124.77 267.886 124.036 266.552C124.837 266.739 126.173 266.893 127 266.893C127.827 266.893 129.163 266.739 129.964 266.552C129.23 267.886 127.859 274.879 127.859 276.196C127.859 277.032 128.892 276.968 128.899 276.347C128.939 272.843 132.043 270.017 135.85 270.017C139.685 270.017 142.8 272.887 142.8 276.428C142.8 279.968 139.685 282.843 135.85 282.843C133.779 282.843 131.922 282.006 130.648 280.68C130.14 280.151 129.386 280.967 130.077 281.281C132.373 282.328 133.951 284.51 133.951 287.032C133.951 290.572 130.836 293.448 127 293.448Z" fill="url(#paint4_linear_10_1774)"/>
<path d="M223.904 303.488C225.739 303.488 227.253 303.936 228.448 304.832C229.621 305.749 230.208 306.976 230.208 308.512C230.208 309.387 229.92 310.144 229.344 310.784C228.747 311.445 228.011 311.776 227.136 311.776C226.411 311.776 225.835 311.573 225.408 311.168C224.981 310.763 224.768 310.261 224.768 309.664C224.768 308.619 225.259 307.883 226.24 307.456C226.475 307.349 226.688 307.2 226.88 307.008C227.051 306.816 227.136 306.603 227.136 306.368C227.136 305.792 226.859 305.333 226.304 304.992C225.728 304.672 224.96 304.512 224 304.512C221.739 304.512 220.608 306.4 220.608 310.176C220.608 311.947 220.917 313.259 221.536 314.112C222.155 314.965 222.923 315.392 223.84 315.392H227.072V316.544H223.904C222.901 316.544 222.176 316.917 221.728 317.664C221.259 318.432 221.024 319.616 221.024 321.216C221.024 323.157 221.259 324.48 221.728 325.184C222.176 325.909 222.869 326.272 223.808 326.272C224.619 326.272 225.312 326.037 225.888 325.568C226.464 325.12 226.752 324.533 226.752 323.808C226.752 323.339 226.432 322.891 225.792 322.464C225.045 321.973 224.672 321.333 224.672 320.544C224.672 320.032 224.864 319.584 225.248 319.2C225.611 318.816 226.112 318.624 226.752 318.624C227.541 318.624 228.224 318.933 228.8 319.552C229.355 320.192 229.632 320.992 229.632 321.952C229.632 323.019 229.355 323.957 228.8 324.768C228.245 325.579 227.499 326.197 226.56 326.624C225.6 327.072 224.555 327.296 223.424 327.296C221.269 327.296 219.531 326.784 218.208 325.76C216.885 324.736 216.224 323.349 216.224 321.6C216.224 320.085 216.747 318.88 217.792 317.984C218.816 317.088 220.043 316.491 221.472 316.192V315.904C220.469 315.819 219.509 315.509 218.592 314.976C217.675 314.464 216.928 313.781 216.352 312.928C215.776 312.075 215.488 311.115 215.488 310.048C215.488 307.936 216.256 306.315 217.792 305.184C219.307 304.053 221.344 303.488 223.904 303.488Z" fill="#D3AF37"/>
<path d="M222 294.724C220.082 294.724 218.525 293.286 218.525 291.516C218.525 290.255 219.314 289.164 220.461 288.641C220.807 288.483 220.43 288.076 220.176 288.34C219.539 289.003 218.61 289.422 217.575 289.422C215.657 289.422 214.1 287.984 214.1 286.214C214.1 284.444 215.657 283.009 217.575 283.009C219.478 283.009 221.03 284.422 221.05 286.173C221.054 286.484 221.571 286.516 221.571 286.098C221.571 285.44 220.885 281.943 220.518 281.276C220.919 281.369 221.586 281.447 222 281.447C222.414 281.447 223.081 281.369 223.482 281.276C223.115 281.943 222.429 285.44 222.429 286.098C222.429 286.516 222.946 286.484 222.949 286.173C222.97 284.422 224.522 283.009 226.425 283.009C228.342 283.009 229.9 284.444 229.9 286.214C229.9 287.984 228.342 289.422 226.425 289.422C225.39 289.422 224.461 289.003 223.824 288.34C223.57 288.076 223.193 288.483 223.539 288.641C224.686 289.164 225.475 290.255 225.475 291.516C225.475 293.286 223.918 294.724 222 294.724Z" fill="url(#paint5_linear_10_1774)"/>
<defs>
<linearGradient id="paint0_linear_10_1774" x1="2" y1="2" x2="252" y2="352" gradientUnits="userSpaceOnUse">
<stop stop-color="#3F3E3E"/>
<stop offset="1"/>
</linearGradient>
<linearGradient id="paint1_linear_10_1774" x1="27.5105" y1="63.2688" x2="32.0028" y2="72.072" gradientUnits="userSpaceOnUse">
<stop stop-color="#FFE079"/>
<stop offset="0.44" stop-color="#D3AF37"/>
</linearGradient>
<linearGradient id="paint2_linear_10_1774" x1="118.021" y1="68.5375" x2="127.006" y2="86.144" gradientUnits="userSpaceOnUse">
<stop stop-color="#FFE079"/>
<stop offset="0.44" stop-color="#D3AF37"/>
</linearGradient>
<linearGradient id="paint3_linear_10_1774" x1="118.021" y1="171.538" x2="127.006" y2="189.144" gradientUnits="userSpaceOnUse">
<stop stop-color="#FFE079"/>
<stop offset="0.44" stop-color="#D3AF37"/>
</linearGradient>
<linearGradient id="paint4_linear_10_1774" x1="122" y1="269.5" x2="141.999" y2="279.308" gradientUnits="userSpaceOnUse">
<stop stop-color="#FFE079"/>
<stop offset="0.44" stop-color="#D3AF37"/>
</linearGradient>
<linearGradient id="paint5_linear_10_1774" x1="219.5" y1="282.75" x2="229.499" y2="287.654" gradientUnits="userSpaceOnUse">
<stop stop-color="#FFE079"/>
<stop offset="0.44" stop-color="#D3AF37"/>
</linearGradient>
</defs>
</svg>
