<svg width="254" height="354" viewBox="0 0 254 354" fill="none" xmlns="http://www.w3.org/2000/svg">
<path d="M2 10C2 5.58172 5.58172 2 10 2H244C248.418 2 252 5.58172 252 10V344C252 348.418 248.418 352 244 352H10C5.58172 352 2 348.418 2 344V10Z" fill="url(#paint0_linear_10_1813)"/>
<path d="M2 10C2 5.58172 5.58172 2 10 2H244C248.418 2 252 5.58172 252 10V344C252 348.418 248.418 352 244 352H10C5.58172 352 2 348.418 2 344V10Z" stroke="#D3AF37" stroke-width="3"/>
<path d="M30.544 50.512C29.3493 50.512 28.2827 50.2987 27.344 49.872C26.4267 49.424 25.712 48.8267 25.2 48.08C24.688 47.312 24.432 46.48 24.432 45.584C24.432 44.9227 24.5813 44.336 24.88 43.824C25.2 43.2907 25.5947 42.8853 26.064 42.608C26.5547 42.3093 27.0453 42.16 27.536 42.16C28.2187 42.16 28.7413 42.3733 29.104 42.8C29.4667 43.2053 29.648 43.6853 29.648 44.24C29.648 45.0933 29.1893 45.7547 28.272 46.224C27.632 46.4587 27.312 46.9067 27.312 47.568C27.312 48.0587 27.5787 48.5067 28.112 48.912C28.6667 49.296 29.4453 49.488 30.448 49.488C31.664 49.488 32.4533 48.9013 32.816 47.728C33.2 46.5547 33.392 44.9547 33.392 42.928C33.392 41.392 33.3067 40.176 33.136 39.28C32.9653 38.3627 32.656 37.68 32.208 37.232C31.76 36.784 31.12 36.56 30.288 36.56C29.8827 36.56 29.4027 36.7093 28.848 37.008C28.2933 37.2853 27.7813 37.68 27.312 38.192C26.864 38.6827 26.5653 39.2267 26.416 39.824H25.584V27.504L26.224 27.088C27.5467 27.8987 29.0187 28.304 30.64 28.304C31.472 28.304 32.3893 28.1653 33.392 27.888C34.416 27.5893 35.312 27.1947 36.08 26.704L36.656 27.28C35.5253 28.9653 34.096 30.2133 32.368 31.024C30.6613 31.8133 28.8267 32.208 26.864 32.208V37.2L27.056 37.264C27.632 36.6667 28.2507 36.2293 28.912 35.952C29.5733 35.6747 30.32 35.536 31.152 35.536C32.624 35.536 33.9147 35.8347 35.024 36.432C36.1333 37.0293 36.9867 37.8827 37.584 38.992C38.2027 40.1013 38.512 41.3813 38.512 42.832C38.512 44.3893 38.1493 45.7547 37.424 46.928C36.6987 48.08 35.728 48.9653 34.512 49.584C33.296 50.2027 31.9733 50.512 30.544 50.512Z" fill="#D3AF37"/>
<path d="M32 59.2761C30.0823 59.2761 28.5248 60.7138 28.5248 62.484C28.5248 63.745 29.3136 64.8362 30.4614 65.3593C30.8068 65.5167 30.4298 65.9243 30.1762 65.6601C29.5392 64.9969 28.6103 64.5783 27.5753 64.5783C25.6575 64.5783 24.1 66.016 24.1 67.7862C24.1 69.5565 25.6575 70.9913 27.5753 70.9913C29.4783 70.9913 31.0305 69.5783 31.0505 67.8267C31.0541 67.516 31.5707 67.4838 31.5707 67.9019C31.5707 68.5603 30.885 72.0572 30.5178 72.7239C30.9186 72.6306 31.5865 72.5533 32 72.5533C32.4135 72.5533 33.0815 72.6306 33.4822 72.7239C33.1151 72.0572 32.4293 68.5603 32.4293 67.9019C32.4293 67.4838 32.946 67.516 32.9495 67.8267C32.9696 69.5783 34.5217 70.9913 36.4248 70.9913C38.3425 70.9913 39.9 69.5565 39.9 67.7862C39.9 66.016 38.3425 64.5783 36.4248 64.5783C35.3897 64.5783 34.4608 64.9969 33.8238 65.6601C33.5702 65.9243 33.1932 65.5167 33.5386 65.3593C34.6865 64.8362 35.4753 63.745 35.4753 62.484C35.4753 60.7138 33.9178 59.2761 32 59.2761Z" fill="url(#paint1_linear_10_1813)"/>
<path d="M66 44.5522C62.1645 44.5522 59.0495 47.4276 59.0495 50.9681C59.0495 53.4899 60.6271 55.6724 62.9227 56.7186C63.6136 57.0335 62.8597 57.8485 62.3524 57.3203C61.0785 55.9937 59.2206 55.1566 57.1505 55.1566C53.315 55.1566 50.2 58.032 50.2 61.5724C50.2 65.1129 53.315 67.9825 57.1505 67.9825C60.9566 67.9825 64.0609 65.1565 64.101 61.6534C64.1081 61.032 65.1414 60.9676 65.1414 61.8039C65.1414 63.1207 63.7699 70.1144 63.0355 71.4479C63.8371 71.2613 65.1729 71.1065 66 71.1065C66.8271 71.1065 68.1629 71.2613 68.9644 71.4479C68.2301 70.1144 66.8586 63.1207 66.8586 61.8039C66.8586 60.9676 67.8919 61.032 67.899 61.6534C67.9391 65.1565 71.0434 67.9825 74.8495 67.9825C78.685 67.9825 81.8 65.1129 81.8 61.5724C81.8 58.032 78.685 55.1566 74.8495 55.1566C72.7794 55.1566 70.9215 55.9937 69.6476 57.3203C69.1403 57.8485 68.3864 57.0335 69.0773 56.7186C71.3729 55.6724 72.9505 53.4899 72.9505 50.9681C72.9505 47.4276 69.8355 44.5522 66 44.5522Z" fill="url(#paint2_linear_10_1813)"/>
<path d="M127 163.552C123.165 163.552 120.05 166.428 120.05 169.968C120.05 172.49 121.627 174.672 123.923 175.719C124.614 176.033 123.86 176.849 123.352 176.32C122.078 174.994 120.221 174.157 118.151 174.157C114.315 174.157 111.2 177.032 111.2 180.572C111.2 184.113 114.315 186.983 118.151 186.983C121.957 186.983 125.061 184.157 125.101 180.653C125.108 180.032 126.141 179.968 126.141 180.804C126.141 182.121 124.77 189.114 124.036 190.448C124.837 190.261 126.173 190.107 127 190.107C127.827 190.107 129.163 190.261 129.964 190.448C129.23 189.114 127.859 182.121 127.859 180.804C127.859 179.968 128.892 180.032 128.899 180.653C128.939 184.157 132.043 186.983 135.85 186.983C139.685 186.983 142.8 184.113 142.8 180.572C142.8 177.032 139.685 174.157 135.85 174.157C133.779 174.157 131.922 174.994 130.648 176.32C130.14 176.849 129.386 176.033 130.077 175.719C132.373 174.672 133.951 172.49 133.951 169.968C133.951 166.428 130.836 163.552 127 163.552Z" fill="url(#paint3_linear_10_1813)"/>
<path d="M188 44.5522C184.164 44.5522 181.049 47.4276 181.049 50.9681C181.049 53.4899 182.627 55.6724 184.923 56.7186C185.614 57.0335 184.86 57.8485 184.352 57.3203C183.078 55.9937 181.221 55.1566 179.15 55.1566C175.315 55.1566 172.2 58.032 172.2 61.5724C172.2 65.1129 175.315 67.9825 179.15 67.9825C182.957 67.9825 186.061 65.1565 186.101 61.6534C186.108 61.032 187.141 60.9676 187.141 61.8039C187.141 63.1207 185.77 70.1144 185.036 71.4479C185.837 71.2613 187.173 71.1065 188 71.1065C188.827 71.1065 190.163 71.2613 190.964 71.4479C190.23 70.1144 188.859 63.1207 188.859 61.8039C188.859 60.9676 189.892 61.032 189.899 61.6534C189.939 65.1565 193.043 67.9825 196.849 67.9825C200.685 67.9825 203.8 65.1129 203.8 61.5724C203.8 58.032 200.685 55.1566 196.849 55.1566C194.779 55.1566 192.922 55.9937 191.648 57.3203C191.14 57.8485 190.386 57.0335 191.077 56.7186C193.373 55.6724 194.95 53.4899 194.95 50.9681C194.95 47.4276 191.835 44.5522 188 44.5522Z" fill="url(#paint4_linear_10_1813)"/>
<path d="M188 309.448C184.165 309.448 181.05 306.572 181.05 303.032C181.05 300.51 182.627 298.328 184.923 297.281C185.614 296.967 184.86 296.151 184.352 296.68C183.078 298.006 181.221 298.843 179.151 298.843C175.315 298.843 172.2 295.968 172.2 292.428C172.2 288.887 175.315 286.017 179.151 286.017C182.957 286.017 186.061 288.843 186.101 292.347C186.108 292.968 187.141 293.032 187.141 292.196C187.141 290.879 185.77 283.886 185.036 282.552C185.837 282.739 187.173 282.893 188 282.893C188.827 282.893 190.163 282.739 190.964 282.552C190.23 283.886 188.859 290.879 188.859 292.196C188.859 293.032 189.892 292.968 189.899 292.347C189.939 288.843 193.043 286.017 196.85 286.017C200.685 286.017 203.8 288.887 203.8 292.428C203.8 295.968 200.685 298.843 196.85 298.843C194.779 298.843 192.922 298.006 191.648 296.68C191.14 296.151 190.386 296.967 191.077 297.281C193.373 298.328 194.951 300.51 194.951 303.032C194.951 306.572 191.836 309.448 188 309.448Z" fill="url(#paint5_linear_10_1813)"/>
<path d="M66 309.448C62.1645 309.448 59.0495 306.572 59.0495 303.032C59.0495 300.51 60.6271 298.328 62.9228 297.281C63.6136 296.967 62.8597 296.151 62.3524 296.68C61.0785 298.006 59.2206 298.843 57.1505 298.843C53.315 298.843 50.2 295.968 50.2 292.428C50.2 288.887 53.315 286.017 57.1505 286.017C60.9566 286.017 64.0609 288.843 64.101 292.347C64.1081 292.968 65.1414 293.032 65.1414 292.196C65.1414 290.879 63.7699 283.886 63.0356 282.552C63.8371 282.739 65.173 282.893 66 282.893C66.8271 282.893 68.1629 282.739 68.9645 282.552C68.2301 283.886 66.8586 290.879 66.8586 292.196C66.8586 293.032 67.8919 292.968 67.899 292.347C67.9391 288.843 71.0434 286.017 74.8495 286.017C78.685 286.017 81.8 288.887 81.8 292.428C81.8 295.968 78.685 298.843 74.8495 298.843C72.7795 298.843 70.9216 298.006 69.6476 296.68C69.1403 296.151 68.3864 296.967 69.0773 297.281C71.3729 298.328 72.9505 300.51 72.9505 303.032C72.9505 306.572 69.8355 309.448 66 309.448Z" fill="url(#paint6_linear_10_1813)"/>
<path d="M223.456 303.488C224.651 303.488 225.717 303.701 226.656 304.128C227.573 304.576 228.288 305.173 228.8 305.92C229.312 306.688 229.568 307.52 229.568 308.416C229.568 309.077 229.419 309.664 229.12 310.176C228.8 310.709 228.405 311.115 227.936 311.392C227.445 311.691 226.955 311.84 226.464 311.84C225.781 311.84 225.259 311.627 224.896 311.2C224.533 310.795 224.352 310.315 224.352 309.76C224.352 308.907 224.811 308.245 225.728 307.776C226.368 307.541 226.688 307.093 226.688 306.432C226.688 305.941 226.421 305.493 225.888 305.088C225.333 304.704 224.555 304.512 223.552 304.512C222.336 304.512 221.547 305.099 221.184 306.272C220.8 307.445 220.608 309.045 220.608 311.072C220.608 312.608 220.693 313.824 220.864 314.72C221.035 315.637 221.344 316.32 221.792 316.768C222.24 317.216 222.88 317.44 223.712 317.44C224.117 317.44 224.597 317.291 225.152 316.992C225.707 316.715 226.219 316.32 226.688 315.808C227.136 315.317 227.435 314.773 227.584 314.176H228.416V326.496L227.776 326.912C226.453 326.101 224.981 325.696 223.36 325.696C222.528 325.696 221.611 325.835 220.608 326.112C219.584 326.411 218.688 326.805 217.92 327.296L217.344 326.72C218.475 325.035 219.904 323.787 221.632 322.976C223.339 322.187 225.173 321.792 227.136 321.792V316.8L226.944 316.736C226.368 317.333 225.749 317.771 225.088 318.048C224.427 318.325 223.68 318.464 222.848 318.464C221.376 318.464 220.085 318.165 218.976 317.568C217.867 316.971 217.013 316.117 216.416 315.008C215.797 313.899 215.488 312.619 215.488 311.168C215.488 309.611 215.851 308.245 216.576 307.072C217.301 305.92 218.272 305.035 219.488 304.416C220.704 303.797 222.027 303.488 223.456 303.488Z" fill="#D3AF37"/>
<path d="M222 294.724C220.082 294.724 218.525 293.286 218.525 291.516C218.525 290.255 219.314 289.164 220.461 288.641C220.807 288.483 220.43 288.076 220.176 288.34C219.539 289.003 218.61 289.422 217.575 289.422C215.657 289.422 214.1 287.984 214.1 286.214C214.1 284.444 215.657 283.009 217.575 283.009C219.478 283.009 221.03 284.422 221.05 286.173C221.054 286.484 221.571 286.516 221.571 286.098C221.571 285.44 220.885 281.943 220.518 281.276C220.919 281.369 221.586 281.447 222 281.447C222.414 281.447 223.081 281.369 223.482 281.276C223.115 281.943 222.429 285.44 222.429 286.098C222.429 286.516 222.946 286.484 222.949 286.173C222.97 284.422 224.522 283.009 226.425 283.009C228.342 283.009 229.9 284.444 229.9 286.214C229.9 287.984 228.342 289.422 226.425 289.422C225.39 289.422 224.461 289.003 223.824 288.34C223.57 288.076 223.193 288.483 223.539 288.641C224.686 289.164 225.475 290.255 225.475 291.516C225.475 293.286 223.918 294.724 222 294.724Z" fill="url(#paint7_linear_10_1813)"/>
<defs>
<linearGradient id="paint0_linear_10_1813" x1="2" y1="2" x2="252" y2="352" gradientUnits="userSpaceOnUse">
<stop stop-color="#3F3E3E"/>
<stop offset="1"/>
</linearGradient>
<linearGradient id="paint1_linear_10_1813" x1="27.5105" y1="63.2688" x2="32.0028" y2="72.072" gradientUnits="userSpaceOnUse">
<stop stop-color="#FFE079"/>
<stop offset="0.44" stop-color="#D3AF37"/>
</linearGradient>
<linearGradient id="paint2_linear_10_1813" x1="57.0209" y1="52.5376" x2="66.0056" y2="70.1441" gradientUnits="userSpaceOnUse">
<stop stop-color="#FFE079"/>
<stop offset="0.44" stop-color="#D3AF37"/>
</linearGradient>
<linearGradient id="paint3_linear_10_1813" x1="118.021" y1="171.538" x2="127.006" y2="189.144" gradientUnits="userSpaceOnUse">
<stop stop-color="#FFE079"/>
<stop offset="0.44" stop-color="#D3AF37"/>
</linearGradient>
<linearGradient id="paint4_linear_10_1813" x1="179.021" y1="52.5376" x2="188.006" y2="70.1441" gradientUnits="userSpaceOnUse">
<stop stop-color="#FFE079"/>
<stop offset="0.44" stop-color="#D3AF37"/>
</linearGradient>
<linearGradient id="paint5_linear_10_1813" x1="183" y1="285.5" x2="202.999" y2="295.308" gradientUnits="userSpaceOnUse">
<stop stop-color="#FFE079"/>
<stop offset="0.44" stop-color="#D3AF37"/>
</linearGradient>
<linearGradient id="paint6_linear_10_1813" x1="61" y1="285.5" x2="80.9985" y2="295.308" gradientUnits="userSpaceOnUse">
<stop stop-color="#FFE079"/>
<stop offset="0.44" stop-color="#D3AF37"/>
</linearGradient>
<linearGradient id="paint7_linear_10_1813" x1="219.5" y1="282.75" x2="229.499" y2="287.654" gradientUnits="userSpaceOnUse">
<stop stop-color="#FFE079"/>
<stop offset="0.44" stop-color="#D3AF37"/>
</linearGradient>
</defs>
</svg>
