<svg width="254" height="354" viewBox="0 0 254 354" fill="none" xmlns="http://www.w3.org/2000/svg">
<path d="M2 10C2 5.58172 5.58172 2 10 2H244C248.418 2 252 5.58172 252 10V344C252 348.418 248.418 352 244 352H10C5.58172 352 2 348.418 2 344V10Z" fill="url(#paint0_linear_10_1963)"/>
<path d="M2 10C2 5.58172 5.58172 2 10 2H244C248.418 2 252 5.58172 252 10V344C252 348.418 248.418 352 244 352H10C5.58172 352 2 348.418 2 344V10Z" stroke="#D3AF37" stroke-width="3"/>
<path d="M16.84 48.976H19.144C19.4427 48.976 19.6453 48.9227 19.752 48.816C19.8587 48.688 19.912 48.4853 19.912 48.208V30.704H16.84V29.552H18.024C18.9627 29.552 19.8267 29.3493 20.616 28.944C21.4267 28.5387 21.9707 27.9627 22.248 27.216H24.648V48.208C24.648 48.4853 24.7013 48.688 24.808 48.816C24.936 48.9227 25.1387 48.976 25.416 48.976H27.72V50H16.84V48.976ZM40.8425 50.512C39.3065 50.512 37.9518 49.9147 36.7785 48.72C35.6265 47.5253 34.7305 46.0107 34.0905 44.176C33.4718 42.32 33.1625 40.464 33.1625 38.608C33.1625 36.752 33.4718 34.9067 34.0905 33.072C34.7305 31.216 35.6265 29.6907 36.7785 28.496C37.9518 27.3013 39.3065 26.704 40.8425 26.704C42.3785 26.704 43.7225 27.3013 44.8745 28.496C46.0478 29.6907 46.9438 31.216 47.5625 33.072C48.2025 34.9067 48.5225 36.752 48.5225 38.608C48.5225 40.464 48.2025 42.32 47.5625 44.176C46.9438 46.0107 46.0478 47.5253 44.8745 48.72C43.7225 49.9147 42.3785 50.512 40.8425 50.512ZM40.8425 49.488C41.6318 49.488 42.1972 49.0613 42.5385 48.208C42.9012 47.3333 43.0825 46.3947 43.0825 45.392V31.824C43.0825 30.8213 42.9012 29.8933 42.5385 29.04C42.1972 28.1653 41.6318 27.728 40.8425 27.728C40.0532 27.728 39.4772 28.1653 39.1145 29.04C38.7732 29.8933 38.6025 30.8213 38.6025 31.824V45.392C38.6025 46.3947 38.7732 47.3333 39.1145 48.208C39.4772 49.0613 40.0532 49.488 40.8425 49.488Z" fill="#D3AF37"/>
<path d="M32 59.2761C30.0823 59.2761 28.5248 60.7138 28.5248 62.484C28.5248 63.745 29.3136 64.8362 30.4614 65.3593C30.8068 65.5167 30.4298 65.9243 30.1762 65.6601C29.5392 64.9969 28.6103 64.5783 27.5753 64.5783C25.6575 64.5783 24.1 66.016 24.1 67.7862C24.1 69.5565 25.6575 70.9913 27.5753 70.9913C29.4783 70.9913 31.0305 69.5783 31.0505 67.8267C31.0541 67.516 31.5707 67.4838 31.5707 67.9019C31.5707 68.5603 30.885 72.0572 30.5178 72.7239C30.9186 72.6306 31.5865 72.5533 32 72.5533C32.4135 72.5533 33.0815 72.6306 33.4822 72.7239C33.1151 72.0572 32.4293 68.5603 32.4293 67.9019C32.4293 67.4838 32.946 67.516 32.9495 67.8267C32.9696 69.5783 34.5217 70.9913 36.4248 70.9913C38.3425 70.9913 39.9 69.5565 39.9 67.7862C39.9 66.016 38.3425 64.5783 36.4248 64.5783C35.3897 64.5783 34.4608 64.9969 33.8238 65.6601C33.5702 65.9243 33.1932 65.5167 33.5386 65.3593C34.6865 64.8362 35.4753 63.745 35.4753 62.484C35.4753 60.7138 33.9178 59.2761 32 59.2761Z" fill="url(#paint1_linear_10_1963)"/>
<path d="M66 44.5522C62.1645 44.5522 59.0495 47.4276 59.0495 50.9681C59.0495 53.4899 60.6271 55.6724 62.9227 56.7186C63.6136 57.0335 62.8597 57.8485 62.3524 57.3203C61.0785 55.9937 59.2206 55.1566 57.1505 55.1566C53.315 55.1566 50.2 58.032 50.2 61.5724C50.2 65.1129 53.315 67.9825 57.1505 67.9825C60.9566 67.9825 64.0609 65.1565 64.101 61.6534C64.1081 61.032 65.1414 60.9676 65.1414 61.8039C65.1414 63.1207 63.7699 70.1144 63.0355 71.4479C63.8371 71.2613 65.1729 71.1065 66 71.1065C66.8271 71.1065 68.1629 71.2613 68.9644 71.4479C68.2301 70.1144 66.8586 63.1207 66.8586 61.8039C66.8586 60.9676 67.8919 61.032 67.899 61.6534C67.9391 65.1565 71.0434 67.9825 74.8495 67.9825C78.685 67.9825 81.8 65.1129 81.8 61.5724C81.8 58.032 78.685 55.1566 74.8495 55.1566C72.7794 55.1566 70.9215 55.9937 69.6476 57.3203C69.1403 57.8485 68.3864 57.0335 69.0773 56.7186C71.3729 55.6724 72.9505 53.4899 72.9505 50.9681C72.9505 47.4276 69.8355 44.5522 66 44.5522Z" fill="url(#paint2_linear_10_1963)"/>
<path d="M66 113.552C62.1645 113.552 59.0495 116.428 59.0495 119.968C59.0495 122.49 60.6271 124.672 62.9228 125.719C63.6136 126.033 62.8597 126.849 62.3524 126.32C61.0785 124.994 59.2206 124.157 57.1505 124.157C53.315 124.157 50.2 127.032 50.2 130.572C50.2 134.113 53.315 136.983 57.1505 136.983C60.9566 136.983 64.0609 134.157 64.101 130.653C64.1081 130.032 65.1414 129.968 65.1414 130.804C65.1414 132.121 63.7699 139.114 63.0356 140.448C63.8371 140.261 65.173 140.107 66 140.107C66.8271 140.107 68.1629 140.261 68.9645 140.448C68.2301 139.114 66.8586 132.121 66.8586 130.804C66.8586 129.968 67.8919 130.032 67.899 130.653C67.9391 134.157 71.0434 136.983 74.8495 136.983C78.685 136.983 81.8 134.113 81.8 130.572C81.8 127.032 78.685 124.157 74.8495 124.157C72.7795 124.157 70.9216 124.994 69.6476 126.32C69.1403 126.849 68.3864 126.033 69.0773 125.719C71.3729 124.672 72.9505 122.49 72.9505 119.968C72.9505 116.428 69.8355 113.552 66 113.552Z" fill="url(#paint3_linear_10_1963)"/>
<path d="M127 81.5522C123.165 81.5522 120.05 84.4276 120.05 87.9681C120.05 90.4899 121.627 92.6724 123.923 93.7186C124.614 94.0335 123.86 94.8485 123.352 94.3203C122.078 92.9937 120.221 92.1566 118.151 92.1566C114.315 92.1566 111.2 95.032 111.2 98.5724C111.2 102.113 114.315 104.983 118.151 104.983C121.957 104.983 125.061 102.157 125.101 98.6534C125.108 98.032 126.141 97.9676 126.141 98.8039C126.141 100.121 124.77 107.114 124.036 108.448C124.837 108.261 126.173 108.107 127 108.107C127.827 108.107 129.163 108.261 129.964 108.448C129.23 107.114 127.859 100.121 127.859 98.8039C127.859 97.9676 128.892 98.032 128.899 98.6534C128.939 102.157 132.043 104.983 135.85 104.983C139.685 104.983 142.8 102.113 142.8 98.5724C142.8 95.032 139.685 92.1566 135.85 92.1566C133.779 92.1566 131.922 92.9937 130.648 94.3203C130.14 94.8485 129.386 94.0335 130.077 93.7186C132.373 92.6724 133.951 90.4899 133.951 87.9681C133.951 84.4276 130.836 81.5522 127 81.5522Z" fill="url(#paint4_linear_10_1963)"/>
<path d="M127 277.448C123.165 277.448 120.05 274.572 120.05 271.032C120.05 268.51 121.627 266.328 123.923 265.281C124.614 264.967 123.86 264.151 123.352 264.68C122.078 266.006 120.221 266.843 118.151 266.843C114.315 266.843 111.2 263.968 111.2 260.428C111.2 256.887 114.315 254.017 118.151 254.017C121.957 254.017 125.061 256.843 125.101 260.347C125.108 260.968 126.141 261.032 126.141 260.196C126.141 258.879 124.77 251.886 124.036 250.552C124.837 250.739 126.173 250.893 127 250.893C127.827 250.893 129.163 250.739 129.964 250.552C129.23 251.886 127.859 258.879 127.859 260.196C127.859 261.032 128.892 260.968 128.899 260.347C128.939 256.843 132.043 254.017 135.85 254.017C139.685 254.017 142.8 256.887 142.8 260.428C142.8 263.968 139.685 266.843 135.85 266.843C133.779 266.843 131.922 266.006 130.648 264.68C130.14 264.151 129.386 264.967 130.077 265.281C132.373 266.328 133.951 268.51 133.951 271.032C133.951 274.572 130.836 277.448 127 277.448Z" fill="url(#paint5_linear_10_1963)"/>
<path d="M188 240.448C184.165 240.448 181.05 237.572 181.05 234.032C181.05 231.51 182.627 229.328 184.923 228.281C185.614 227.967 184.86 227.151 184.352 227.68C183.078 229.006 181.221 229.843 179.151 229.843C175.315 229.843 172.2 226.968 172.2 223.428C172.2 219.887 175.315 217.017 179.151 217.017C182.957 217.017 186.061 219.843 186.101 223.347C186.108 223.968 187.141 224.032 187.141 223.196C187.141 221.879 185.77 214.886 185.036 213.552C185.837 213.739 187.173 213.893 188 213.893C188.827 213.893 190.163 213.739 190.964 213.552C190.23 214.886 188.859 221.879 188.859 223.196C188.859 224.032 189.892 223.968 189.899 223.347C189.939 219.843 193.043 217.017 196.85 217.017C200.685 217.017 203.8 219.887 203.8 223.428C203.8 226.968 200.685 229.843 196.85 229.843C194.779 229.843 192.922 229.006 191.648 227.68C191.14 227.151 190.386 227.967 191.077 228.281C193.373 229.328 194.951 231.51 194.951 234.032C194.951 237.572 191.836 240.448 188 240.448Z" fill="url(#paint6_linear_10_1963)"/>
<path d="M66 240.448C62.1645 240.448 59.0495 237.572 59.0495 234.032C59.0495 231.51 60.6271 229.328 62.9228 228.281C63.6136 227.967 62.8597 227.151 62.3524 227.68C61.0785 229.006 59.2206 229.843 57.1505 229.843C53.315 229.843 50.2 226.968 50.2 223.428C50.2 219.887 53.315 217.017 57.1505 217.017C60.9566 217.017 64.0609 219.843 64.101 223.347C64.1081 223.968 65.1414 224.032 65.1414 223.196C65.1414 221.879 63.7699 214.886 63.0356 213.552C63.8371 213.739 65.173 213.893 66 213.893C66.8271 213.893 68.1629 213.739 68.9645 213.552C68.2301 214.886 66.8586 221.879 66.8586 223.196C66.8586 224.032 67.8919 223.968 67.899 223.347C67.9391 219.843 71.0434 217.017 74.8495 217.017C78.685 217.017 81.8 219.887 81.8 223.428C81.8 226.968 78.685 229.843 74.8495 229.843C72.7795 229.843 70.9216 229.006 69.6476 227.68C69.1403 227.151 68.3864 227.967 69.0773 228.281C71.3729 229.328 72.9505 231.51 72.9505 234.032C72.9505 237.572 69.8355 240.448 66 240.448Z" fill="url(#paint7_linear_10_1963)"/>
<path d="M188 113.552C184.165 113.552 181.05 116.428 181.05 119.968C181.05 122.49 182.627 124.672 184.923 125.719C185.614 126.033 184.86 126.849 184.352 126.32C183.078 124.994 181.221 124.157 179.151 124.157C175.315 124.157 172.2 127.032 172.2 130.572C172.2 134.113 175.315 136.983 179.151 136.983C182.957 136.983 186.061 134.157 186.101 130.653C186.108 130.032 187.141 129.968 187.141 130.804C187.141 132.121 185.77 139.114 185.036 140.448C185.837 140.261 187.173 140.107 188 140.107C188.827 140.107 190.163 140.261 190.964 140.448C190.23 139.114 188.859 132.121 188.859 130.804C188.859 129.968 189.892 130.032 189.899 130.653C189.939 134.157 193.043 136.983 196.85 136.983C200.685 136.983 203.8 134.113 203.8 130.572C203.8 127.032 200.685 124.157 196.85 124.157C194.779 124.157 192.922 124.994 191.648 126.32C191.14 126.849 190.386 126.033 191.077 125.719C193.373 124.672 194.951 122.49 194.951 119.968C194.951 116.428 191.836 113.552 188 113.552Z" fill="url(#paint8_linear_10_1963)"/>
<path d="M188 44.5522C184.164 44.5522 181.049 47.4276 181.049 50.9681C181.049 53.4899 182.627 55.6724 184.923 56.7186C185.614 57.0335 184.86 57.8485 184.352 57.3203C183.078 55.9937 181.221 55.1566 179.15 55.1566C175.315 55.1566 172.2 58.032 172.2 61.5724C172.2 65.1129 175.315 67.9825 179.15 67.9825C182.957 67.9825 186.061 65.1565 186.101 61.6534C186.108 61.032 187.141 60.9676 187.141 61.8039C187.141 63.1207 185.77 70.1144 185.036 71.4479C185.837 71.2613 187.173 71.1065 188 71.1065C188.827 71.1065 190.163 71.2613 190.964 71.4479C190.23 70.1144 188.859 63.1207 188.859 61.8039C188.859 60.9676 189.892 61.032 189.899 61.6534C189.939 65.1565 193.043 67.9825 196.849 67.9825C200.685 67.9825 203.8 65.1129 203.8 61.5724C203.8 58.032 200.685 55.1566 196.849 55.1566C194.779 55.1566 192.922 55.9937 191.648 57.3203C191.14 57.8485 190.386 57.0335 191.077 56.7186C193.373 55.6724 194.95 53.4899 194.95 50.9681C194.95 47.4276 191.835 44.5522 188 44.5522Z" fill="url(#paint9_linear_10_1963)"/>
<path d="M188 309.448C184.165 309.448 181.05 306.572 181.05 303.032C181.05 300.51 182.627 298.328 184.923 297.281C185.614 296.967 184.86 296.151 184.352 296.68C183.078 298.006 181.221 298.843 179.151 298.843C175.315 298.843 172.2 295.968 172.2 292.428C172.2 288.887 175.315 286.017 179.151 286.017C182.957 286.017 186.061 288.843 186.101 292.347C186.108 292.968 187.141 293.032 187.141 292.196C187.141 290.879 185.77 283.886 185.036 282.552C185.837 282.739 187.173 282.893 188 282.893C188.827 282.893 190.163 282.739 190.964 282.552C190.23 283.886 188.859 290.879 188.859 292.196C188.859 293.032 189.892 292.968 189.899 292.347C189.939 288.843 193.043 286.017 196.85 286.017C200.685 286.017 203.8 288.887 203.8 292.428C203.8 295.968 200.685 298.843 196.85 298.843C194.779 298.843 192.922 298.006 191.648 296.68C191.14 296.151 190.386 296.967 191.077 297.281C193.373 298.328 194.951 300.51 194.951 303.032C194.951 306.572 191.836 309.448 188 309.448Z" fill="url(#paint10_linear_10_1963)"/>
<path d="M66 309.448C62.1645 309.448 59.0495 306.572 59.0495 303.032C59.0495 300.51 60.6271 298.328 62.9228 297.281C63.6136 296.967 62.8597 296.151 62.3524 296.68C61.0785 298.006 59.2206 298.843 57.1505 298.843C53.315 298.843 50.2 295.968 50.2 292.428C50.2 288.887 53.315 286.017 57.1505 286.017C60.9566 286.017 64.0609 288.843 64.101 292.347C64.1081 292.968 65.1414 293.032 65.1414 292.196C65.1414 290.879 63.7699 283.886 63.0356 282.552C63.8371 282.739 65.173 282.893 66 282.893C66.8271 282.893 68.1629 282.739 68.9645 282.552C68.2301 283.886 66.8586 290.879 66.8586 292.196C66.8586 293.032 67.8919 292.968 67.899 292.347C67.9391 288.843 71.0434 286.017 74.8495 286.017C78.685 286.017 81.8 288.887 81.8 292.428C81.8 295.968 78.685 298.843 74.8495 298.843C72.7795 298.843 70.9216 298.006 69.6476 296.68C69.1403 296.151 68.3864 296.967 69.0773 297.281C71.3729 298.328 72.9505 300.51 72.9505 303.032C72.9505 306.572 69.8355 309.448 66 309.448Z" fill="url(#paint11_linear_10_1963)"/>
<path d="M237.16 305.024H234.856C234.557 305.024 234.355 305.077 234.248 305.184C234.141 305.312 234.088 305.515 234.088 305.792V323.296H237.16V324.448H235.976C235.037 324.448 234.173 324.651 233.384 325.056C232.573 325.461 232.029 326.037 231.752 326.784H229.352V305.792C229.352 305.515 229.299 305.312 229.192 305.184C229.064 305.077 228.861 305.024 228.584 305.024H226.28V304H237.16V305.024ZM213.157 303.488C214.693 303.488 216.048 304.085 217.221 305.28C218.373 306.475 219.269 307.989 219.909 309.824C220.528 311.68 220.837 313.536 220.837 315.392C220.837 317.248 220.528 319.093 219.909 320.928C219.269 322.784 218.373 324.309 217.221 325.504C216.048 326.699 214.693 327.296 213.157 327.296C211.621 327.296 210.277 326.699 209.125 325.504C207.952 324.309 207.056 322.784 206.438 320.928C205.797 319.093 205.477 317.248 205.477 315.392C205.477 313.536 205.797 311.68 206.438 309.824C207.056 307.989 207.952 306.475 209.125 305.28C210.277 304.085 211.621 303.488 213.157 303.488ZM213.157 304.512C212.368 304.512 211.803 304.939 211.461 305.792C211.099 306.667 210.917 307.605 210.917 308.608V322.176C210.917 323.179 211.099 324.107 211.461 324.96C211.803 325.835 212.368 326.272 213.157 326.272C213.947 326.272 214.523 325.835 214.885 324.96C215.227 324.107 215.397 323.179 215.397 322.176V308.608C215.397 307.605 215.227 306.667 214.885 305.792C214.523 304.939 213.947 304.512 213.157 304.512Z" fill="#D3AF37"/>
<path d="M222 294.724C220.082 294.724 218.525 293.286 218.525 291.516C218.525 290.255 219.314 289.164 220.461 288.641C220.807 288.483 220.43 288.076 220.176 288.34C219.539 289.003 218.61 289.422 217.575 289.422C215.658 289.422 214.1 287.984 214.1 286.214C214.1 284.444 215.658 283.009 217.575 283.009C219.478 283.009 221.03 284.422 221.051 286.173C221.054 286.484 221.571 286.516 221.571 286.098C221.571 285.44 220.885 281.943 220.518 281.276C220.919 281.369 221.586 281.447 222 281.447C222.414 281.447 223.081 281.369 223.482 281.276C223.115 281.943 222.429 285.44 222.429 286.098C222.429 286.516 222.946 286.484 222.95 286.173C222.97 284.422 224.522 283.009 226.425 283.009C228.343 283.009 229.9 284.444 229.9 286.214C229.9 287.984 228.343 289.422 226.425 289.422C225.39 289.422 224.461 289.003 223.824 288.34C223.57 288.076 223.193 288.483 223.539 288.641C224.686 289.164 225.475 290.255 225.475 291.516C225.475 293.286 223.918 294.724 222 294.724Z" fill="url(#paint12_linear_10_1963)"/>
<defs>
<linearGradient id="paint0_linear_10_1963" x1="2" y1="2" x2="252" y2="352" gradientUnits="userSpaceOnUse">
<stop stop-color="#3F3E3E"/>
<stop offset="1"/>
</linearGradient>
<linearGradient id="paint1_linear_10_1963" x1="27.5105" y1="63.2688" x2="32.0028" y2="72.072" gradientUnits="userSpaceOnUse">
<stop stop-color="#FFE079"/>
<stop offset="0.44" stop-color="#D3AF37"/>
</linearGradient>
<linearGradient id="paint2_linear_10_1963" x1="57.0209" y1="52.5376" x2="66.0056" y2="70.1441" gradientUnits="userSpaceOnUse">
<stop stop-color="#FFE079"/>
<stop offset="0.44" stop-color="#D3AF37"/>
</linearGradient>
<linearGradient id="paint3_linear_10_1963" x1="57.021" y1="121.538" x2="66.0056" y2="139.144" gradientUnits="userSpaceOnUse">
<stop stop-color="#FFE079"/>
<stop offset="0.44" stop-color="#D3AF37"/>
</linearGradient>
<linearGradient id="paint4_linear_10_1963" x1="118.021" y1="89.5376" x2="127.006" y2="107.144" gradientUnits="userSpaceOnUse">
<stop stop-color="#FFE079"/>
<stop offset="0.44" stop-color="#D3AF37"/>
</linearGradient>
<linearGradient id="paint5_linear_10_1963" x1="122" y1="253.5" x2="141.999" y2="263.308" gradientUnits="userSpaceOnUse">
<stop stop-color="#FFE079"/>
<stop offset="0.44" stop-color="#D3AF37"/>
</linearGradient>
<linearGradient id="paint6_linear_10_1963" x1="183" y1="216.5" x2="202.999" y2="226.308" gradientUnits="userSpaceOnUse">
<stop stop-color="#FFE079"/>
<stop offset="0.44" stop-color="#D3AF37"/>
</linearGradient>
<linearGradient id="paint7_linear_10_1963" x1="61" y1="216.5" x2="80.9985" y2="226.308" gradientUnits="userSpaceOnUse">
<stop stop-color="#FFE079"/>
<stop offset="0.44" stop-color="#D3AF37"/>
</linearGradient>
<linearGradient id="paint8_linear_10_1963" x1="179.021" y1="121.538" x2="188.006" y2="139.144" gradientUnits="userSpaceOnUse">
<stop stop-color="#FFE079"/>
<stop offset="0.44" stop-color="#D3AF37"/>
</linearGradient>
<linearGradient id="paint9_linear_10_1963" x1="179.021" y1="52.5376" x2="188.006" y2="70.1441" gradientUnits="userSpaceOnUse">
<stop stop-color="#FFE079"/>
<stop offset="0.44" stop-color="#D3AF37"/>
</linearGradient>
<linearGradient id="paint10_linear_10_1963" x1="183" y1="285.5" x2="202.999" y2="295.308" gradientUnits="userSpaceOnUse">
<stop stop-color="#FFE079"/>
<stop offset="0.44" stop-color="#D3AF37"/>
</linearGradient>
<linearGradient id="paint11_linear_10_1963" x1="61" y1="285.5" x2="80.9985" y2="295.308" gradientUnits="userSpaceOnUse">
<stop stop-color="#FFE079"/>
<stop offset="0.44" stop-color="#D3AF37"/>
</linearGradient>
<linearGradient id="paint12_linear_10_1963" x1="219.5" y1="282.75" x2="229.499" y2="287.654" gradientUnits="userSpaceOnUse">
<stop stop-color="#FFE079"/>
<stop offset="0.44" stop-color="#D3AF37"/>
</linearGradient>
</defs>
</svg>
