<svg width="254" height="354" viewBox="0 0 254 354" fill="none" xmlns="http://www.w3.org/2000/svg">
<path d="M2 10C2 5.58172 5.58172 2 10 2H244C248.418 2 252 5.58172 252 10V344C252 348.418 248.418 352 244 352H10C5.58172 352 2 348.418 2 344V10Z" fill="url(#paint0_linear_10_1864)"/>
<path d="M2 10C2 5.58172 5.58172 2 10 2H244C248.418 2 252 5.58172 252 10V344C252 348.418 248.418 352 244 352H10C5.58172 352 2 348.418 2 344V10Z" stroke="#D3AF37" stroke-width="3"/>
<path d="M31.376 50.512C30.608 50.512 29.968 50.2133 29.456 49.616C28.9653 49.0187 28.72 48.208 28.72 47.184C28.72 45.904 29.0293 44.6987 29.648 43.568C30.288 42.4373 31.1733 41.2107 32.304 39.888C33.968 37.968 35.2053 36.3253 36.016 34.96C36.5493 34.0213 36.9333 33.0293 37.168 31.984L37.04 31.888C36.3787 32.4427 35.6427 32.72 34.832 32.72C33.9787 32.72 33.0507 32.528 32.048 32.144C31.152 31.8453 30.2773 31.696 29.424 31.696C28.5493 31.696 27.8347 31.92 27.28 32.368C26.7253 32.7947 26.4053 33.4667 26.32 34.384L26.16 36.304H25.008L25.744 27.216H26.896L26.736 29.328L26.864 29.392C28.1013 27.7707 29.456 26.96 30.928 26.96C31.5893 26.96 32.1333 27.1413 32.56 27.504C33.008 27.8453 33.456 28.336 33.904 28.976C34.3307 29.5947 34.7147 30.0747 35.056 30.416C35.3973 30.7573 35.7387 30.928 36.08 30.928C36.7627 30.928 37.104 30.608 37.104 29.968C37.104 29.584 36.8907 29.264 36.464 29.008C35.9307 28.7093 35.664 28.3147 35.664 27.824C35.664 27.568 35.7493 27.3653 35.92 27.216C36.0907 27.0453 36.3253 26.96 36.624 26.96C37.1787 26.96 37.6267 27.28 37.968 27.92C38.3307 28.56 38.512 29.2213 38.512 29.904C38.512 31.2907 38.3093 32.56 37.904 33.712C37.4987 34.8427 36.8587 36.1227 35.984 37.552C35.1733 38.896 34.608 40.3893 34.288 42.032C33.9893 43.6533 33.84 45.3813 33.84 47.216C33.84 48.3253 33.616 49.1573 33.168 49.712C32.7413 50.2453 32.144 50.512 31.376 50.512Z" fill="#D3AF37"/>
<path d="M32 59.2761C30.0823 59.2761 28.5248 60.7138 28.5248 62.484C28.5248 63.745 29.3136 64.8362 30.4614 65.3593C30.8068 65.5167 30.4298 65.9243 30.1762 65.6601C29.5392 64.9969 28.6103 64.5783 27.5753 64.5783C25.6575 64.5783 24.1 66.016 24.1 67.7862C24.1 69.5565 25.6575 70.9913 27.5753 70.9913C29.4783 70.9913 31.0305 69.5783 31.0505 67.8267C31.0541 67.516 31.5707 67.4838 31.5707 67.9019C31.5707 68.5603 30.885 72.0572 30.5178 72.7239C30.9186 72.6306 31.5865 72.5533 32 72.5533C32.4135 72.5533 33.0815 72.6306 33.4822 72.7239C33.1151 72.0572 32.4293 68.5603 32.4293 67.9019C32.4293 67.4838 32.946 67.516 32.9495 67.8267C32.9696 69.5783 34.5217 70.9913 36.4248 70.9913C38.3425 70.9913 39.9 69.5565 39.9 67.7862C39.9 66.016 38.3425 64.5783 36.4248 64.5783C35.3897 64.5783 34.4608 64.9969 33.8238 65.6601C33.5702 65.9243 33.1932 65.5167 33.5386 65.3593C34.6865 64.8362 35.4753 63.745 35.4753 62.484C35.4753 60.7138 33.9178 59.2761 32 59.2761Z" fill="url(#paint1_linear_10_1864)"/>
<path d="M66 44.5522C62.1645 44.5522 59.0495 47.4276 59.0495 50.9681C59.0495 53.4899 60.6271 55.6724 62.9227 56.7186C63.6136 57.0335 62.8597 57.8485 62.3524 57.3203C61.0785 55.9937 59.2206 55.1566 57.1505 55.1566C53.315 55.1566 50.2 58.032 50.2 61.5724C50.2 65.1129 53.315 67.9825 57.1505 67.9825C60.9566 67.9825 64.0609 65.1565 64.101 61.6534C64.1081 61.032 65.1414 60.9676 65.1414 61.8039C65.1414 63.1207 63.7699 70.1144 63.0355 71.4479C63.8371 71.2613 65.1729 71.1065 66 71.1065C66.8271 71.1065 68.1629 71.2613 68.9644 71.4479C68.2301 70.1144 66.8586 63.1207 66.8586 61.8039C66.8586 60.9676 67.8919 61.032 67.899 61.6534C67.9391 65.1565 71.0434 67.9825 74.8495 67.9825C78.685 67.9825 81.8 65.1129 81.8 61.5724C81.8 58.032 78.685 55.1566 74.8495 55.1566C72.7794 55.1566 70.9215 55.9937 69.6476 57.3203C69.1403 57.8485 68.3864 57.0335 69.0773 56.7186C71.3729 55.6724 72.9505 53.4899 72.9505 50.9681C72.9505 47.4276 69.8355 44.5522 66 44.5522Z" fill="url(#paint2_linear_10_1864)"/>
<path d="M66 163.552C62.1645 163.552 59.0495 166.428 59.0495 169.968C59.0495 172.49 60.6271 174.672 62.9228 175.719C63.6136 176.033 62.8597 176.849 62.3524 176.32C61.0785 174.994 59.2206 174.157 57.1505 174.157C53.315 174.157 50.2 177.032 50.2 180.572C50.2 184.113 53.315 186.983 57.1505 186.983C60.9566 186.983 64.0609 184.157 64.101 180.653C64.1081 180.032 65.1414 179.968 65.1414 180.804C65.1414 182.121 63.7699 189.114 63.0356 190.448C63.8371 190.261 65.173 190.107 66 190.107C66.8271 190.107 68.1629 190.261 68.9645 190.448C68.2301 189.114 66.8586 182.121 66.8586 180.804C66.8586 179.968 67.8919 180.032 67.899 180.653C67.9391 184.157 71.0434 186.983 74.8495 186.983C78.685 186.983 81.8 184.113 81.8 180.572C81.8 177.032 78.685 174.157 74.8495 174.157C72.7795 174.157 70.9216 174.994 69.6476 176.32C69.1403 176.849 68.3864 176.033 69.0773 175.719C71.3729 174.672 72.9505 172.49 72.9505 169.968C72.9505 166.428 69.8355 163.552 66 163.552Z" fill="url(#paint3_linear_10_1864)"/>
<path d="M127 104.552C123.165 104.552 120.05 107.428 120.05 110.968C120.05 113.49 121.627 115.672 123.923 116.719C124.614 117.033 123.86 117.849 123.352 117.32C122.078 115.994 120.221 115.157 118.151 115.157C114.315 115.157 111.2 118.032 111.2 121.572C111.2 125.113 114.315 127.983 118.151 127.983C121.957 127.983 125.061 125.157 125.101 121.653C125.108 121.032 126.141 120.968 126.141 121.804C126.141 123.121 124.77 130.114 124.036 131.448C124.837 131.261 126.173 131.107 127 131.107C127.827 131.107 129.163 131.261 129.964 131.448C129.23 130.114 127.859 123.121 127.859 121.804C127.859 120.968 128.892 121.032 128.899 121.653C128.939 125.157 132.043 127.983 135.85 127.983C139.685 127.983 142.8 125.113 142.8 121.572C142.8 118.032 139.685 115.157 135.85 115.157C133.779 115.157 131.922 115.994 130.648 117.32C130.14 117.849 129.386 117.033 130.077 116.719C132.373 115.672 133.951 113.49 133.951 110.968C133.951 107.428 130.836 104.552 127 104.552Z" fill="url(#paint4_linear_10_1864)"/>
<path d="M188 163.552C184.165 163.552 181.05 166.428 181.05 169.968C181.05 172.49 182.627 174.672 184.923 175.719C185.614 176.033 184.86 176.849 184.352 176.32C183.078 174.994 181.221 174.157 179.151 174.157C175.315 174.157 172.2 177.032 172.2 180.572C172.2 184.113 175.315 186.983 179.151 186.983C182.957 186.983 186.061 184.157 186.101 180.653C186.108 180.032 187.141 179.968 187.141 180.804C187.141 182.121 185.77 189.114 185.036 190.448C185.837 190.261 187.173 190.107 188 190.107C188.827 190.107 190.163 190.261 190.964 190.448C190.23 189.114 188.859 182.121 188.859 180.804C188.859 179.968 189.892 180.032 189.899 180.653C189.939 184.157 193.043 186.983 196.85 186.983C200.685 186.983 203.8 184.113 203.8 180.572C203.8 177.032 200.685 174.157 196.85 174.157C194.779 174.157 192.922 174.994 191.648 176.32C191.14 176.849 190.386 176.033 191.077 175.719C193.373 174.672 194.951 172.49 194.951 169.968C194.951 166.428 191.836 163.552 188 163.552Z" fill="url(#paint5_linear_10_1864)"/>
<path d="M188 44.5522C184.164 44.5522 181.049 47.4276 181.049 50.9681C181.049 53.4899 182.627 55.6724 184.923 56.7186C185.614 57.0335 184.86 57.8485 184.352 57.3203C183.078 55.9937 181.221 55.1566 179.15 55.1566C175.315 55.1566 172.2 58.032 172.2 61.5724C172.2 65.1129 175.315 67.9825 179.15 67.9825C182.957 67.9825 186.061 65.1565 186.101 61.6534C186.108 61.032 187.141 60.9676 187.141 61.8039C187.141 63.1207 185.77 70.1144 185.036 71.4479C185.837 71.2613 187.173 71.1065 188 71.1065C188.827 71.1065 190.163 71.2613 190.964 71.4479C190.23 70.1144 188.859 63.1207 188.859 61.8039C188.859 60.9676 189.892 61.032 189.899 61.6534C189.939 65.1565 193.043 67.9825 196.849 67.9825C200.685 67.9825 203.8 65.1129 203.8 61.5724C203.8 58.032 200.685 55.1566 196.849 55.1566C194.779 55.1566 192.922 55.9937 191.648 57.3203C191.14 57.8485 190.386 57.0335 191.077 56.7186C193.373 55.6724 194.95 53.4899 194.95 50.9681C194.95 47.4276 191.835 44.5522 188 44.5522Z" fill="url(#paint6_linear_10_1864)"/>
<path d="M188 309.448C184.165 309.448 181.05 306.572 181.05 303.032C181.05 300.51 182.627 298.328 184.923 297.281C185.614 296.967 184.86 296.151 184.352 296.68C183.078 298.006 181.221 298.843 179.151 298.843C175.315 298.843 172.2 295.968 172.2 292.428C172.2 288.887 175.315 286.017 179.151 286.017C182.957 286.017 186.061 288.843 186.101 292.347C186.108 292.968 187.141 293.032 187.141 292.196C187.141 290.879 185.77 283.886 185.036 282.552C185.837 282.739 187.173 282.893 188 282.893C188.827 282.893 190.163 282.739 190.964 282.552C190.23 283.886 188.859 290.879 188.859 292.196C188.859 293.032 189.892 292.968 189.899 292.347C189.939 288.843 193.043 286.017 196.85 286.017C200.685 286.017 203.8 288.887 203.8 292.428C203.8 295.968 200.685 298.843 196.85 298.843C194.779 298.843 192.922 298.006 191.648 296.68C191.14 296.151 190.386 296.967 191.077 297.281C193.373 298.328 194.951 300.51 194.951 303.032C194.951 306.572 191.836 309.448 188 309.448Z" fill="url(#paint7_linear_10_1864)"/>
<path d="M66 309.448C62.1645 309.448 59.0495 306.572 59.0495 303.032C59.0495 300.51 60.6271 298.328 62.9228 297.281C63.6136 296.967 62.8597 296.151 62.3524 296.68C61.0785 298.006 59.2206 298.843 57.1505 298.843C53.315 298.843 50.2 295.968 50.2 292.428C50.2 288.887 53.315 286.017 57.1505 286.017C60.9566 286.017 64.0609 288.843 64.101 292.347C64.1081 292.968 65.1414 293.032 65.1414 292.196C65.1414 290.879 63.7699 283.886 63.0356 282.552C63.8371 282.739 65.173 282.893 66 282.893C66.8271 282.893 68.1629 282.739 68.9645 282.552C68.2301 283.886 66.8586 290.879 66.8586 292.196C66.8586 293.032 67.8919 292.968 67.899 292.347C67.9391 288.843 71.0434 286.017 74.8495 286.017C78.685 286.017 81.8 288.887 81.8 292.428C81.8 295.968 78.685 298.843 74.8495 298.843C72.7795 298.843 70.9216 298.006 69.6476 296.68C69.1403 296.151 68.3864 296.967 69.0773 297.281C71.3729 298.328 72.9505 300.51 72.9505 303.032C72.9505 306.572 69.8355 309.448 66 309.448Z" fill="url(#paint8_linear_10_1864)"/>
<path d="M222.624 303.488C223.392 303.488 224.032 303.787 224.544 304.384C225.035 304.981 225.28 305.792 225.28 306.816C225.28 308.096 224.971 309.301 224.352 310.432C223.712 311.563 222.827 312.789 221.696 314.112C220.032 316.032 218.795 317.675 217.984 319.04C217.451 319.979 217.067 320.971 216.832 322.016L216.96 322.112C217.621 321.557 218.357 321.28 219.168 321.28C220.021 321.28 220.949 321.472 221.952 321.856C222.848 322.155 223.723 322.304 224.576 322.304C225.451 322.304 226.165 322.08 226.72 321.632C227.275 321.205 227.595 320.533 227.68 319.616L227.84 317.696H228.992L228.256 326.784H227.104L227.264 324.672L227.136 324.608C225.899 326.229 224.544 327.04 223.072 327.04C222.411 327.04 221.867 326.859 221.44 326.496C220.992 326.155 220.544 325.664 220.096 325.024C219.669 324.405 219.285 323.925 218.944 323.584C218.603 323.243 218.261 323.072 217.92 323.072C217.237 323.072 216.896 323.392 216.896 324.032C216.896 324.416 217.109 324.736 217.536 324.992C218.069 325.291 218.336 325.685 218.336 326.176C218.336 326.432 218.251 326.635 218.08 326.784C217.909 326.955 217.675 327.04 217.376 327.04C216.821 327.04 216.373 326.72 216.032 326.08C215.669 325.44 215.488 324.779 215.488 324.096C215.488 322.709 215.691 321.44 216.096 320.288C216.501 319.157 217.141 317.877 218.016 316.448C218.827 315.104 219.392 313.611 219.712 311.968C220.011 310.347 220.16 308.619 220.16 306.784C220.16 305.675 220.384 304.843 220.832 304.288C221.259 303.755 221.856 303.488 222.624 303.488Z" fill="#D3AF37"/>
<path d="M222 294.724C220.082 294.724 218.525 293.286 218.525 291.516C218.525 290.255 219.314 289.164 220.461 288.641C220.807 288.483 220.43 288.076 220.176 288.34C219.539 289.003 218.61 289.422 217.575 289.422C215.657 289.422 214.1 287.984 214.1 286.214C214.1 284.444 215.657 283.009 217.575 283.009C219.478 283.009 221.03 284.422 221.05 286.173C221.054 286.484 221.571 286.516 221.571 286.098C221.571 285.44 220.885 281.943 220.518 281.276C220.919 281.369 221.586 281.447 222 281.447C222.414 281.447 223.081 281.369 223.482 281.276C223.115 281.943 222.429 285.44 222.429 286.098C222.429 286.516 222.946 286.484 222.949 286.173C222.97 284.422 224.522 283.009 226.425 283.009C228.342 283.009 229.9 284.444 229.9 286.214C229.9 287.984 228.342 289.422 226.425 289.422C225.39 289.422 224.461 289.003 223.824 288.34C223.57 288.076 223.193 288.483 223.539 288.641C224.686 289.164 225.475 290.255 225.475 291.516C225.475 293.286 223.918 294.724 222 294.724Z" fill="url(#paint9_linear_10_1864)"/>
<defs>
<linearGradient id="paint0_linear_10_1864" x1="2" y1="2" x2="252" y2="352" gradientUnits="userSpaceOnUse">
<stop stop-color="#3F3E3E"/>
<stop offset="1"/>
</linearGradient>
<linearGradient id="paint1_linear_10_1864" x1="27.5105" y1="63.2688" x2="32.0028" y2="72.072" gradientUnits="userSpaceOnUse">
<stop stop-color="#FFE079"/>
<stop offset="0.44" stop-color="#D3AF37"/>
</linearGradient>
<linearGradient id="paint2_linear_10_1864" x1="57.0209" y1="52.5376" x2="66.0056" y2="70.1441" gradientUnits="userSpaceOnUse">
<stop stop-color="#FFE079"/>
<stop offset="0.44" stop-color="#D3AF37"/>
</linearGradient>
<linearGradient id="paint3_linear_10_1864" x1="57.021" y1="171.538" x2="66.0056" y2="189.144" gradientUnits="userSpaceOnUse">
<stop stop-color="#FFE079"/>
<stop offset="0.44" stop-color="#D3AF37"/>
</linearGradient>
<linearGradient id="paint4_linear_10_1864" x1="118.021" y1="112.538" x2="127.006" y2="130.144" gradientUnits="userSpaceOnUse">
<stop stop-color="#FFE079"/>
<stop offset="0.44" stop-color="#D3AF37"/>
</linearGradient>
<linearGradient id="paint5_linear_10_1864" x1="179.021" y1="171.538" x2="188.006" y2="189.144" gradientUnits="userSpaceOnUse">
<stop stop-color="#FFE079"/>
<stop offset="0.44" stop-color="#D3AF37"/>
</linearGradient>
<linearGradient id="paint6_linear_10_1864" x1="179.021" y1="52.5376" x2="188.006" y2="70.1441" gradientUnits="userSpaceOnUse">
<stop stop-color="#FFE079"/>
<stop offset="0.44" stop-color="#D3AF37"/>
</linearGradient>
<linearGradient id="paint7_linear_10_1864" x1="183" y1="285.5" x2="202.999" y2="295.308" gradientUnits="userSpaceOnUse">
<stop stop-color="#FFE079"/>
<stop offset="0.44" stop-color="#D3AF37"/>
</linearGradient>
<linearGradient id="paint8_linear_10_1864" x1="61" y1="285.5" x2="80.9985" y2="295.308" gradientUnits="userSpaceOnUse">
<stop stop-color="#FFE079"/>
<stop offset="0.44" stop-color="#D3AF37"/>
</linearGradient>
<linearGradient id="paint9_linear_10_1864" x1="219.5" y1="282.75" x2="229.499" y2="287.654" gradientUnits="userSpaceOnUse">
<stop stop-color="#FFE079"/>
<stop offset="0.44" stop-color="#D3AF37"/>
</linearGradient>
</defs>
</svg>
