<svg width="254" height="354" viewBox="0 0 254 354" fill="none" xmlns="http://www.w3.org/2000/svg">
<path d="M2 10C2 5.58172 5.58172 2 10 2H244C248.418 2 252 5.58172 252 10V344C252 348.418 248.418 352 244 352H10C5.58172 352 2 348.418 2 344V10Z" fill="url(#paint0_linear_10_1759)"/>
<path d="M2 10C2 5.58172 5.58172 2 10 2H244C248.418 2 252 5.58172 252 10V344C252 348.418 248.418 352 244 352H10C5.58172 352 2 348.418 2 344V10Z" stroke="#D3AF37" stroke-width="3"/>
<path d="M32.752 50.512C31.3867 50.512 30 49.7227 28.592 48.144C28.1867 47.696 27.8453 47.3867 27.568 47.216C27.312 47.024 26.992 46.928 26.608 46.928C26.3093 46.928 26.064 47.024 25.872 47.216C25.68 47.3867 25.584 47.632 25.584 47.952V50H24.304V48.496C24.304 47.664 24.3787 46.8853 24.528 46.16C24.6987 45.4133 25.0827 44.5493 25.68 43.568C26.2773 42.5653 27.1947 41.4773 28.432 40.304C29.9893 38.7893 31.1947 37.4133 32.048 36.176C32.9013 34.9173 33.328 33.552 33.328 32.08C33.328 30.8853 33.0827 29.8827 32.592 29.072C32.1013 28.2613 31.2693 27.856 30.096 27.856C29.2853 27.856 28.6027 28.1227 28.048 28.656C27.5147 29.168 27.248 29.776 27.248 30.48C27.248 31.3333 27.5467 31.9733 28.144 32.4C28.6133 32.7413 28.9653 33.0827 29.2 33.424C29.456 33.744 29.584 34.1493 29.584 34.64C29.584 35.1947 29.3813 35.6533 28.976 36.016C28.5707 36.3787 28.0587 36.56 27.44 36.56C26.5227 36.56 25.7227 36.2293 25.04 35.568C24.3787 34.9067 24.048 34.0213 24.048 32.912C24.048 31.7813 24.3467 30.7467 24.944 29.808C25.5627 28.848 26.3947 28.0907 27.44 27.536C28.5067 26.9813 29.68 26.704 30.96 26.704C33.3067 26.704 35.088 27.248 36.304 28.336C37.52 29.4027 38.128 30.8213 38.128 32.592C38.128 33.808 37.744 34.9067 36.976 35.888C36.2293 36.8693 35.312 37.7227 34.224 38.448C33.1573 39.152 31.8027 39.9413 30.16 40.816C29.2427 41.328 28.3787 41.9787 27.568 42.768C26.7573 43.5573 26.2027 44.5067 25.904 45.616L26.032 45.68C26.8 45.0613 27.664 44.752 28.624 44.752C29.008 44.752 29.4667 44.8053 30 44.912C30.5547 45.0187 31.0133 45.136 31.376 45.264C32.4427 45.6053 33.4133 45.776 34.288 45.776C35.056 45.776 35.696 45.552 36.208 45.104C36.72 44.6347 36.976 44.0907 36.976 43.472C36.976 42.8533 36.9227 42.1387 36.816 41.328H37.808C37.936 42.2453 38 43.0773 38 43.824C38 44.912 37.8187 45.968 37.456 46.992C37.1147 47.9947 36.5493 48.8373 35.76 49.52C34.9707 50.1813 33.968 50.512 32.752 50.512Z" fill="#D3AF37"/>
<path d="M32 59.2761C30.0823 59.2761 28.5248 60.7138 28.5248 62.484C28.5248 63.7449 29.3136 64.8362 30.4614 65.3593C30.8068 65.5167 30.4298 65.9242 30.1762 65.6601C29.5392 64.9968 28.6103 64.5783 27.5753 64.5783C25.6575 64.5783 24.1 66.016 24.1 67.7862C24.1 69.5564 25.6575 70.9912 27.5753 70.9912C29.4783 70.9912 31.0305 69.5782 31.0505 67.8267C31.0541 67.516 31.5707 67.4838 31.5707 67.9019C31.5707 68.5603 30.885 72.0572 30.5178 72.7239C30.9186 72.6306 31.5865 72.5532 32 72.5532C32.4135 72.5532 33.0815 72.6306 33.4822 72.7239C33.1151 72.0572 32.4293 68.5603 32.4293 67.9019C32.4293 67.4838 32.946 67.516 32.9495 67.8267C32.9696 69.5782 34.5217 70.9912 36.4248 70.9912C38.3425 70.9912 39.9 69.5564 39.9 67.7862C39.9 66.016 38.3425 64.5783 36.4248 64.5783C35.3897 64.5783 34.4608 64.9968 33.8238 65.6601C33.5702 65.9242 33.1932 65.5167 33.5386 65.3593C34.6865 64.8362 35.4753 63.7449 35.4753 62.484C35.4753 60.7138 33.9178 59.2761 32 59.2761Z" fill="url(#paint1_linear_10_1759)"/>
<path d="M127 60.5522C123.165 60.5522 120.05 63.4276 120.05 66.968C120.05 69.4899 121.627 71.6723 123.923 72.7186C124.614 73.0334 123.86 73.8485 123.352 73.3202C122.078 71.9936 120.221 71.1565 118.151 71.1565C114.315 71.1565 111.2 74.0319 111.2 77.5724C111.2 81.1128 114.315 83.9824 118.151 83.9824C121.957 83.9824 125.061 81.1565 125.101 77.6534C125.108 77.0319 126.141 76.9676 126.141 77.8038C126.141 79.1206 124.77 86.1144 124.036 87.4478C124.837 87.2612 126.173 87.1065 127 87.1065C127.827 87.1065 129.163 87.2612 129.964 87.4478C129.23 86.1144 127.859 79.1206 127.859 77.8038C127.859 76.9676 128.892 77.0319 128.899 77.6534C128.939 81.1565 132.043 83.9824 135.85 83.9824C139.685 83.9824 142.8 81.1128 142.8 77.5724C142.8 74.0319 139.685 71.1565 135.85 71.1565C133.779 71.1565 131.922 71.9936 130.648 73.3202C130.14 73.8485 129.386 73.0334 130.077 72.7186C132.373 71.6723 133.951 69.4899 133.951 66.968C133.951 63.4276 130.836 60.5522 127 60.5522Z" fill="url(#paint2_linear_10_1759)"/>
<path d="M127 293.448C123.165 293.448 120.05 290.572 120.05 287.032C120.05 284.51 121.627 282.328 123.923 281.281C124.614 280.967 123.86 280.152 123.352 280.68C122.078 282.006 120.221 282.843 118.151 282.843C114.315 282.843 111.2 279.968 111.2 276.428C111.2 272.887 114.315 270.018 118.151 270.018C121.957 270.018 125.061 272.844 125.101 276.347C125.108 276.968 126.141 277.032 126.141 276.196C126.141 274.879 124.77 267.886 124.036 266.552C124.837 266.739 126.173 266.894 127 266.894C127.827 266.894 129.163 266.739 129.964 266.552C129.23 267.886 127.859 274.879 127.859 276.196C127.859 277.032 128.892 276.968 128.899 276.347C128.939 272.844 132.043 270.018 135.85 270.018C139.685 270.018 142.8 272.887 142.8 276.428C142.8 279.968 139.685 282.843 135.85 282.843C133.779 282.843 131.922 282.006 130.648 280.68C130.14 280.152 129.386 280.967 130.077 281.281C132.373 282.328 133.951 284.51 133.951 287.032C133.951 290.572 130.836 293.448 127 293.448Z" fill="url(#paint3_linear_10_1759)"/>
<path d="M221.248 303.488C222.613 303.488 224 304.277 225.408 305.856C225.813 306.304 226.155 306.613 226.432 306.784C226.688 306.976 227.008 307.072 227.392 307.072C227.691 307.072 227.936 306.976 228.128 306.784C228.32 306.613 228.416 306.368 228.416 306.048V304H229.696V305.504C229.696 306.336 229.621 307.115 229.472 307.84C229.301 308.587 228.917 309.451 228.32 310.432C227.723 311.435 226.805 312.523 225.568 313.696C224.011 315.211 222.805 316.587 221.952 317.824C221.099 319.083 220.672 320.448 220.672 321.92C220.672 323.115 220.917 324.117 221.408 324.928C221.899 325.739 222.731 326.144 223.904 326.144C224.715 326.144 225.397 325.877 225.952 325.344C226.485 324.832 226.752 324.224 226.752 323.52C226.752 322.667 226.453 322.027 225.856 321.6C225.387 321.259 225.035 320.917 224.8 320.576C224.544 320.256 224.416 319.851 224.416 319.36C224.416 318.805 224.619 318.347 225.024 317.984C225.429 317.621 225.941 317.44 226.56 317.44C227.477 317.44 228.277 317.771 228.96 318.432C229.621 319.093 229.952 319.979 229.952 321.088C229.952 322.219 229.653 323.253 229.056 324.192C228.437 325.152 227.605 325.909 226.56 326.464C225.493 327.019 224.32 327.296 223.04 327.296C220.693 327.296 218.912 326.752 217.696 325.664C216.48 324.597 215.872 323.179 215.872 321.408C215.872 320.192 216.256 319.093 217.024 318.112C217.771 317.131 218.688 316.277 219.776 315.552C220.843 314.848 222.197 314.059 223.84 313.184C224.757 312.672 225.621 312.021 226.432 311.232C227.243 310.443 227.797 309.493 228.096 308.384L227.968 308.32C227.2 308.939 226.336 309.248 225.376 309.248C224.992 309.248 224.533 309.195 224 309.088C223.445 308.981 222.987 308.864 222.624 308.736C221.557 308.395 220.587 308.224 219.712 308.224C218.944 308.224 218.304 308.448 217.792 308.896C217.28 309.365 217.024 309.909 217.024 310.528C217.024 311.147 217.077 311.861 217.184 312.672H216.192C216.064 311.755 216 310.923 216 310.176C216 309.088 216.181 308.032 216.544 307.008C216.885 306.005 217.451 305.163 218.24 304.48C219.029 303.819 220.032 303.488 221.248 303.488Z" fill="#D3AF37"/>
<path d="M222 294.724C220.082 294.724 218.525 293.286 218.525 291.516C218.525 290.255 219.314 289.164 220.461 288.641C220.807 288.483 220.43 288.076 220.176 288.34C219.539 289.003 218.61 289.422 217.575 289.422C215.657 289.422 214.1 287.984 214.1 286.214C214.1 284.444 215.657 283.009 217.575 283.009C219.478 283.009 221.03 284.422 221.05 286.173C221.054 286.484 221.571 286.516 221.571 286.098C221.571 285.44 220.885 281.943 220.518 281.276C220.919 281.369 221.586 281.447 222 281.447C222.414 281.447 223.081 281.369 223.482 281.276C223.115 281.943 222.429 285.44 222.429 286.098C222.429 286.516 222.946 286.484 222.949 286.173C222.97 284.422 224.522 283.009 226.425 283.009C228.342 283.009 229.9 284.444 229.9 286.214C229.9 287.984 228.342 289.422 226.425 289.422C225.39 289.422 224.461 289.003 223.824 288.34C223.57 288.076 223.193 288.483 223.539 288.641C224.686 289.164 225.475 290.255 225.475 291.516C225.475 293.286 223.918 294.724 222 294.724Z" fill="url(#paint4_linear_10_1759)"/>
<defs>
<linearGradient id="paint0_linear_10_1759" x1="2" y1="2" x2="252" y2="352" gradientUnits="userSpaceOnUse">
<stop stop-color="#3F3E3E"/>
<stop offset="1"/>
</linearGradient>
<linearGradient id="paint1_linear_10_1759" x1="27.5105" y1="63.2688" x2="32.0028" y2="72.072" gradientUnits="userSpaceOnUse">
<stop stop-color="#FFE079"/>
<stop offset="0.44" stop-color="#D3AF37"/>
</linearGradient>
<linearGradient id="paint2_linear_10_1759" x1="118.021" y1="68.5375" x2="127.006" y2="86.144" gradientUnits="userSpaceOnUse">
<stop stop-color="#FFE079"/>
<stop offset="0.44" stop-color="#D3AF37"/>
</linearGradient>
<linearGradient id="paint3_linear_10_1759" x1="122" y1="269.5" x2="141.999" y2="279.308" gradientUnits="userSpaceOnUse">
<stop stop-color="#FFE079"/>
<stop offset="0.44" stop-color="#D3AF37"/>
</linearGradient>
<linearGradient id="paint4_linear_10_1759" x1="219.5" y1="282.75" x2="229.499" y2="287.654" gradientUnits="userSpaceOnUse">
<stop stop-color="#FFE079"/>
<stop offset="0.44" stop-color="#D3AF37"/>
</linearGradient>
</defs>
</svg>
