<svg width="254" height="354" viewBox="0 0 254 354" fill="none" xmlns="http://www.w3.org/2000/svg">
<rect x="2" y="2" width="250" height="350" rx="8" fill="url(#paint0_linear_10_1294)"/>
<rect x="2" y="2" width="250" height="350" rx="8" stroke="#D3AF37" stroke-width="3"/>
<path d="M23.408 48.976H24.496C25.136 48.976 25.7013 48.7307 26.192 48.24C26.6827 47.728 27.056 47.1093 27.312 46.384L34.064 26.64H35.408L42.256 47.344C42.6187 48.432 43.248 48.976 44.144 48.976H45.424V50H34.192V48.976H36.496C36.752 48.976 36.9547 48.88 37.104 48.688C37.2747 48.4747 37.36 48.2293 37.36 47.952C37.36 47.7173 37.296 47.408 37.168 47.024L36.144 43.952H29.424L28.752 45.904C28.5173 46.5013 28.4 47.0453 28.4 47.536C28.4 47.92 28.5493 48.2613 28.848 48.56C29.168 48.8373 29.5733 48.976 30.064 48.976H31.568V50H23.408V48.976ZM29.84 42.768H35.76L32.848 33.968L29.84 42.768Z" fill="#D3AF37"/>
<path d="M230.592 305.024H229.504C228.864 305.024 228.299 305.269 227.808 305.76C227.317 306.272 226.944 306.891 226.688 307.616L219.936 327.36H218.592L211.744 306.656C211.381 305.568 210.752 305.024 209.856 305.024H208.576V304H219.808V305.024H217.504C217.248 305.024 217.045 305.12 216.896 305.312C216.725 305.525 216.64 305.771 216.64 306.048C216.64 306.283 216.704 306.592 216.832 306.976L217.856 310.048H224.576L225.248 308.096C225.483 307.499 225.6 306.955 225.6 306.464C225.6 306.08 225.451 305.739 225.152 305.44C224.832 305.163 224.427 305.024 223.936 305.024H222.432V304H230.592V305.024ZM224.16 311.232H218.24L221.152 320.032L224.16 311.232Z" fill="#D3AF37"/>
<g clip-path="url(#clip0_10_1294)">
<path d="M128.554 240.1C127.693 241.299 126.307 241.299 125.446 240.1L81.8942 179.176C81.0338 177.974 81.0338 176.026 81.8942 174.824L125.446 113.9C126.307 112.698 127.693 112.698 128.554 113.9L172.109 174.824C172.966 176.026 172.966 177.974 172.109 179.176L128.554 240.1Z" fill="url(#paint1_linear_10_1294)"/>
</g>
<g clip-path="url(#clip1_10_1294)">
<path d="M38.3884 89.7751C38.1733 90.0747 37.8266 90.0747 37.6115 89.7751L26.7235 74.544C26.5084 74.2436 26.5084 73.7564 26.7235 73.456L37.6115 58.2249C37.8266 57.9244 38.1733 57.9244 38.3884 58.2249L49.2773 73.456C49.4915 73.7564 49.4915 74.2436 49.2773 74.544L38.3884 89.7751Z" fill="url(#paint2_linear_10_1294)"/>
</g>
<g clip-path="url(#clip2_10_1294)">
<path d="M216.388 264.225C216.173 263.925 215.827 263.925 215.612 264.225L204.724 279.456C204.508 279.756 204.508 280.244 204.724 280.544L215.612 295.775C215.827 296.076 216.173 296.076 216.388 295.775L227.277 280.544C227.492 280.244 227.492 279.756 227.277 279.456L216.388 264.225Z" fill="url(#paint3_linear_10_1294)"/>
</g>
<line x1="61" y1="37.5" x2="216" y2="37.5" stroke="#D3AF37"/>
<line x1="216.5" y1="37" x2="216.5" y2="260" stroke="#D3AF37"/>
<line x1="193" y1="316.5" x2="38" y2="316.5" stroke="#D3AF37"/>
<line x1="37.5" y1="317" x2="37.5" y2="94" stroke="#D3AF37"/>
<defs>
<linearGradient id="paint0_linear_10_1294" x1="252" y1="352" x2="5.5" y2="5.00002" gradientUnits="userSpaceOnUse">
<stop/>
<stop offset="1" stop-color="#3F3E3E"/>
</linearGradient>
<linearGradient id="paint1_linear_10_1294" x1="101" y1="151.002" x2="153" y2="213.002" gradientUnits="userSpaceOnUse">
<stop stop-color="#FFE079"/>
<stop offset="0.44" stop-color="#D3AF37"/>
</linearGradient>
<linearGradient id="paint2_linear_10_1294" x1="31.5" y1="65.5" x2="45" y2="83" gradientUnits="userSpaceOnUse">
<stop stop-color="#FFE079"/>
<stop offset="0.44" stop-color="#D3AF37"/>
</linearGradient>
<linearGradient id="paint3_linear_10_1294" x1="209" y1="271" x2="224" y2="288" gradientUnits="userSpaceOnUse">
<stop stop-color="#FFE079"/>
<stop offset="0.44" stop-color="#D3AF37"/>
</linearGradient>
<clipPath id="clip0_10_1294">
<rect width="128" height="128" fill="white" transform="translate(63 113)"/>
</clipPath>
<clipPath id="clip1_10_1294">
<rect width="32" height="32" fill="white" transform="translate(22 58)"/>
</clipPath>
<clipPath id="clip2_10_1294">
<rect width="32" height="32" fill="white" transform="matrix(1 0 0 -1 200 296)"/>
</clipPath>
</defs>
</svg>
