<svg width="254" height="354" viewBox="0 0 254 354" fill="none" xmlns="http://www.w3.org/2000/svg">
<path d="M2 10C2 5.58172 5.58172 2 10 2H244C248.418 2 252 5.58172 252 10V344C252 348.418 248.418 352 244 352H10C5.58172 352 2 348.418 2 344V10Z" fill="url(#paint0_linear_10_1397)"/>
<path d="M2 10C2 5.58172 5.58172 2 10 2H244C248.418 2 252 5.58172 252 10V344C252 348.418 248.418 352 244 352H10C5.58172 352 2 348.418 2 344V10Z" stroke="#D3AF37" stroke-width="3"/>
<path d="M30.544 50.512C29.3493 50.512 28.2827 50.2987 27.344 49.872C26.4267 49.424 25.712 48.8267 25.2 48.08C24.688 47.312 24.432 46.48 24.432 45.584C24.432 44.9227 24.5813 44.336 24.88 43.824C25.2 43.2907 25.5947 42.8853 26.064 42.608C26.5547 42.3093 27.0453 42.16 27.536 42.16C28.2187 42.16 28.7413 42.3733 29.104 42.8C29.4667 43.2053 29.648 43.6853 29.648 44.24C29.648 45.0933 29.1893 45.7547 28.272 46.224C27.632 46.4587 27.312 46.9067 27.312 47.568C27.312 48.0587 27.5787 48.5067 28.112 48.912C28.6667 49.296 29.4453 49.488 30.448 49.488C31.664 49.488 32.4533 48.9013 32.816 47.728C33.2 46.5547 33.392 44.9547 33.392 42.928C33.392 41.392 33.3067 40.176 33.136 39.28C32.9653 38.3627 32.656 37.68 32.208 37.232C31.76 36.784 31.12 36.56 30.288 36.56C29.8827 36.56 29.4027 36.7093 28.848 37.008C28.2933 37.2853 27.7813 37.68 27.312 38.192C26.864 38.6827 26.5653 39.2267 26.416 39.824H25.584V27.504L26.224 27.088C27.5467 27.8987 29.0187 28.304 30.64 28.304C31.472 28.304 32.3893 28.1653 33.392 27.888C34.416 27.5893 35.312 27.1947 36.08 26.704L36.656 27.28C35.5253 28.9653 34.096 30.2133 32.368 31.024C30.6613 31.8133 28.8267 32.208 26.864 32.208V37.2L27.056 37.264C27.632 36.6667 28.2507 36.2293 28.912 35.952C29.5733 35.6747 30.32 35.536 31.152 35.536C32.624 35.536 33.9147 35.8347 35.024 36.432C36.1333 37.0293 36.9867 37.8827 37.584 38.992C38.2027 40.1013 38.512 41.3813 38.512 42.832C38.512 44.3893 38.1493 45.7547 37.424 46.928C36.6987 48.08 35.728 48.9653 34.512 49.584C33.296 50.2027 31.9733 50.512 30.544 50.512Z" fill="#D3AF37"/>
<path d="M223.456 303.488C224.651 303.488 225.717 303.701 226.656 304.128C227.573 304.576 228.288 305.173 228.8 305.92C229.312 306.688 229.568 307.52 229.568 308.416C229.568 309.077 229.419 309.664 229.12 310.176C228.8 310.709 228.405 311.115 227.936 311.392C227.445 311.691 226.955 311.84 226.464 311.84C225.781 311.84 225.259 311.627 224.896 311.2C224.533 310.795 224.352 310.315 224.352 309.76C224.352 308.907 224.811 308.245 225.728 307.776C226.368 307.541 226.688 307.093 226.688 306.432C226.688 305.941 226.421 305.493 225.888 305.088C225.333 304.704 224.555 304.512 223.552 304.512C222.336 304.512 221.547 305.099 221.184 306.272C220.8 307.445 220.608 309.045 220.608 311.072C220.608 312.608 220.693 313.824 220.864 314.72C221.035 315.637 221.344 316.32 221.792 316.768C222.24 317.216 222.88 317.44 223.712 317.44C224.117 317.44 224.597 317.291 225.152 316.992C225.707 316.715 226.219 316.32 226.688 315.808C227.136 315.317 227.435 314.773 227.584 314.176H228.416V326.496L227.776 326.912C226.453 326.101 224.981 325.696 223.36 325.696C222.528 325.696 221.611 325.835 220.608 326.112C219.584 326.411 218.688 326.805 217.92 327.296L217.344 326.72C218.475 325.035 219.904 323.787 221.632 322.976C223.339 322.187 225.173 321.792 227.136 321.792V316.8L226.944 316.736C226.368 317.333 225.749 317.771 225.088 318.048C224.427 318.325 223.68 318.464 222.848 318.464C221.376 318.464 220.085 318.165 218.976 317.568C217.867 316.971 217.013 316.117 216.416 315.008C215.797 313.899 215.488 312.619 215.488 311.168C215.488 309.611 215.851 308.245 216.576 307.072C217.301 305.92 218.272 305.035 219.488 304.416C220.704 303.797 222.027 303.488 223.456 303.488Z" fill="#D3AF37"/>
<g clip-path="url(#clip0_10_1397)">
<path d="M32.1942 73.8873C32.0867 74.0371 31.9133 74.0371 31.8058 73.8873L26.3618 66.2717C26.2542 66.1215 26.2542 65.878 26.3618 65.7277L31.8058 58.1122C31.9133 57.962 32.0867 57.962 32.1942 58.1122L37.6387 65.7277C37.7458 65.878 37.7458 66.1215 37.6387 66.2717L32.1942 73.8873Z" fill="url(#paint1_linear_10_1397)"/>
</g>
<g clip-path="url(#clip1_10_1397)">
<path d="M66.3884 73.7747C66.1733 74.0743 65.8266 74.0743 65.6115 73.7747L54.7235 58.5436C54.5084 58.2431 54.5084 57.756 54.7235 57.4556L65.6115 42.2245C65.8266 41.924 66.1733 41.924 66.3884 42.2245L77.2773 57.4556C77.4915 57.756 77.4915 58.2431 77.2773 58.5436L66.3884 73.7747Z" fill="url(#paint2_linear_10_1397)"/>
</g>
<g clip-path="url(#clip2_10_1397)">
<path d="M188.388 311.775C188.173 312.074 187.827 312.074 187.612 311.775L176.724 296.544C176.508 296.243 176.508 295.756 176.724 295.456L187.612 280.224C187.827 279.924 188.173 279.924 188.388 280.224L199.277 295.456C199.492 295.756 199.492 296.243 199.277 296.544L188.388 311.775Z" fill="url(#paint3_linear_10_1397)"/>
</g>
<g clip-path="url(#clip3_10_1397)">
<path d="M188.388 73.7747C188.173 74.0743 187.827 74.0743 187.612 73.7747L176.724 58.5436C176.508 58.2431 176.508 57.756 176.724 57.4556L187.612 42.2245C187.827 41.924 188.173 41.924 188.388 42.2245L199.277 57.4556C199.492 57.756 199.492 58.2431 199.277 58.5436L188.388 73.7747Z" fill="url(#paint4_linear_10_1397)"/>
</g>
<g clip-path="url(#clip4_10_1397)">
<path d="M127.388 192.775C127.173 193.074 126.827 193.074 126.612 192.775L115.724 177.544C115.508 177.243 115.508 176.756 115.724 176.456L126.612 161.224C126.827 160.924 127.173 160.924 127.388 161.224L138.277 176.456C138.492 176.756 138.492 177.243 138.277 177.544L127.388 192.775Z" fill="url(#paint5_linear_10_1397)"/>
</g>
<g clip-path="url(#clip5_10_1397)">
<path d="M66.3884 311.775C66.1733 312.074 65.8266 312.074 65.6115 311.775L54.7235 296.544C54.5084 296.243 54.5084 295.756 54.7235 295.456L65.6115 280.224C65.8266 279.924 66.1733 279.924 66.3884 280.224L77.2773 295.456C77.4915 295.756 77.4915 296.243 77.2773 296.544L66.3884 311.775Z" fill="url(#paint6_linear_10_1397)"/>
</g>
<g clip-path="url(#clip6_10_1397)">
<path d="M222.194 280.113C222.087 279.963 221.913 279.963 221.806 280.113L216.362 287.728C216.254 287.878 216.254 288.122 216.362 288.272L221.806 295.888C221.913 296.038 222.087 296.038 222.194 295.888L227.639 288.272C227.746 288.122 227.746 287.878 227.639 287.728L222.194 280.113Z" fill="url(#paint7_linear_10_1397)"/>
</g>
<defs>
<linearGradient id="paint0_linear_10_1397" x1="252" y1="352" x2="5.5" y2="5.00002" gradientUnits="userSpaceOnUse">
<stop/>
<stop offset="1" stop-color="#3F3E3E"/>
</linearGradient>
<linearGradient id="paint1_linear_10_1397" x1="28.75" y1="62.75" x2="35.25" y2="70.5" gradientUnits="userSpaceOnUse">
<stop stop-color="#FFE079"/>
<stop offset="0.44" stop-color="#D3AF37"/>
</linearGradient>
<linearGradient id="paint2_linear_10_1397" x1="59.5" y1="51.5" x2="72.5" y2="67" gradientUnits="userSpaceOnUse">
<stop stop-color="#FFE079"/>
<stop offset="0.44" stop-color="#D3AF37"/>
</linearGradient>
<linearGradient id="paint3_linear_10_1397" x1="181.5" y1="289.5" x2="194.5" y2="305" gradientUnits="userSpaceOnUse">
<stop stop-color="#FFE079"/>
<stop offset="0.44" stop-color="#D3AF37"/>
</linearGradient>
<linearGradient id="paint4_linear_10_1397" x1="181.5" y1="51.5" x2="194.5" y2="67" gradientUnits="userSpaceOnUse">
<stop stop-color="#FFE079"/>
<stop offset="0.44" stop-color="#D3AF37"/>
</linearGradient>
<linearGradient id="paint5_linear_10_1397" x1="120.5" y1="170.5" x2="133.5" y2="186" gradientUnits="userSpaceOnUse">
<stop stop-color="#FFE079"/>
<stop offset="0.44" stop-color="#D3AF37"/>
</linearGradient>
<linearGradient id="paint6_linear_10_1397" x1="59.5" y1="289.5" x2="72.5" y2="305" gradientUnits="userSpaceOnUse">
<stop stop-color="#FFE079"/>
<stop offset="0.44" stop-color="#D3AF37"/>
</linearGradient>
<linearGradient id="paint7_linear_10_1397" x1="218.75" y1="291.25" x2="225.25" y2="283.5" gradientUnits="userSpaceOnUse">
<stop stop-color="#FFE079"/>
<stop offset="0.44" stop-color="#D3AF37"/>
</linearGradient>
<clipPath id="clip0_10_1397">
<rect width="16" height="16" fill="white" transform="translate(24 58)"/>
</clipPath>
<clipPath id="clip1_10_1397">
<rect width="32" height="32" fill="white" transform="translate(50 42)"/>
</clipPath>
<clipPath id="clip2_10_1397">
<rect width="32" height="32" fill="white" transform="translate(172 280)"/>
</clipPath>
<clipPath id="clip3_10_1397">
<rect width="32" height="32" fill="white" transform="translate(172 42)"/>
</clipPath>
<clipPath id="clip4_10_1397">
<rect width="32" height="32" fill="white" transform="translate(111 161)"/>
</clipPath>
<clipPath id="clip5_10_1397">
<rect width="32" height="32" fill="white" transform="translate(50 280)"/>
</clipPath>
<clipPath id="clip6_10_1397">
<rect width="16" height="16" fill="white" transform="matrix(1 0 0 -1 214 296)"/>
</clipPath>
</defs>
</svg>
