<svg width="254" height="354" viewBox="0 0 254 354" fill="none" xmlns="http://www.w3.org/2000/svg">
<path d="M2 10C2 5.58172 5.58172 2 10 2H244C248.418 2 252 5.58172 252 10V344C252 348.418 248.418 352 244 352H10C5.58172 352 2 348.418 2 344V10Z" fill="url(#paint0_linear_10_1454)"/>
<path d="M2 10C2 5.58172 5.58172 2 10 2H244C248.418 2 252 5.58172 252 10V344C252 348.418 248.418 352 244 352H10C5.58172 352 2 348.418 2 344V10Z" stroke="#D3AF37" stroke-width="3"/>
<path d="M31.152 50.512C29.9573 50.512 28.784 50.2773 27.632 49.808C26.5013 49.3387 25.5733 48.6667 24.848 47.792C24.144 46.896 23.792 45.8507 23.792 44.656C23.792 43.312 24.1867 42.1707 24.976 41.232C25.7653 40.2933 26.6613 39.6107 27.664 39.184V39.12C25.3813 37.776 24.24 35.8453 24.24 33.328C24.24 31.92 24.6027 30.7147 25.328 29.712C26.0747 28.7093 27.0133 27.9627 28.144 27.472C29.296 26.96 30.4693 26.704 31.664 26.704C33.072 26.704 34.2453 26.9707 35.184 27.504C36.144 28.0373 36.8373 28.6987 37.264 29.488C37.712 30.2773 37.936 31.0453 37.936 31.792C37.936 32.8587 37.5947 33.8293 36.912 34.704C36.2507 35.5787 35.4613 36.2507 34.544 36.72V36.848L35.152 37.168C36.4107 37.7867 37.4027 38.6293 38.128 39.696C38.8533 40.7627 39.216 41.84 39.216 42.928C39.216 44.3147 38.9067 45.584 38.288 46.736C37.6693 47.888 36.752 48.8053 35.536 49.488C34.32 50.1707 32.8587 50.512 31.152 50.512ZM33.648 36.368C34.5013 36.0267 35.1733 35.4507 35.664 34.64C36.1547 33.808 36.4 32.912 36.4 31.952C36.4 31.0773 36.176 30.32 35.728 29.68C35.28 29.04 34.704 28.56 34 28.24C33.3173 27.8987 32.6133 27.728 31.888 27.728C30.736 27.728 29.6587 28.0053 28.656 28.56C27.6747 29.1147 27.184 29.9893 27.184 31.184C27.184 32.0373 27.376 32.688 27.76 33.136C28.144 33.584 28.7093 33.9893 29.456 34.352L33.648 36.368ZM32.016 49.488C32.9547 49.488 33.7867 49.3173 34.512 48.976C35.2373 48.6133 35.792 48.144 36.176 47.568C36.5813 46.992 36.784 46.3733 36.784 45.712C36.784 44.8587 36.5173 44.1547 35.984 43.6C35.4507 43.0453 34.7573 42.5547 33.904 42.128L28.592 39.504C27.7387 39.9733 27.088 40.5387 26.64 41.2C26.192 41.84 25.968 42.8213 25.968 44.144C25.968 45.5093 26.3093 46.5973 26.992 47.408C27.696 48.1973 28.5067 48.7413 29.424 49.04C30.3627 49.3387 31.2267 49.488 32.016 49.488Z" fill="#D3AF37"/>
<path d="M222.848 303.488C224.043 303.488 225.216 303.723 226.368 304.192C227.499 304.661 228.427 305.333 229.152 306.208C229.856 307.104 230.208 308.149 230.208 309.344C230.208 310.688 229.813 311.829 229.024 312.768C228.235 313.707 227.339 314.389 226.336 314.816V314.88C228.619 316.224 229.76 318.155 229.76 320.672C229.76 322.08 229.397 323.285 228.672 324.288C227.925 325.291 226.987 326.037 225.856 326.528C224.704 327.04 223.531 327.296 222.336 327.296C220.928 327.296 219.755 327.029 218.816 326.496C217.856 325.963 217.163 325.301 216.736 324.512C216.288 323.723 216.064 322.955 216.064 322.208C216.064 321.141 216.405 320.171 217.088 319.296C217.749 318.421 218.539 317.749 219.456 317.28V317.152L218.848 316.832C217.589 316.213 216.597 315.371 215.872 314.304C215.147 313.237 214.784 312.16 214.784 311.072C214.784 309.685 215.093 308.416 215.712 307.264C216.331 306.112 217.248 305.195 218.464 304.512C219.68 303.829 221.141 303.488 222.848 303.488ZM220.352 317.632C219.499 317.973 218.827 318.549 218.336 319.36C217.845 320.192 217.6 321.088 217.6 322.048C217.6 322.923 217.824 323.68 218.272 324.32C218.72 324.96 219.296 325.44 220 325.76C220.683 326.101 221.387 326.272 222.112 326.272C223.264 326.272 224.341 325.995 225.344 325.44C226.325 324.885 226.816 324.011 226.816 322.816C226.816 321.963 226.624 321.312 226.24 320.864C225.856 320.416 225.291 320.011 224.544 319.648L220.352 317.632ZM221.984 304.512C221.045 304.512 220.213 304.683 219.488 305.024C218.763 305.387 218.208 305.856 217.824 306.432C217.419 307.008 217.216 307.627 217.216 308.288C217.216 309.141 217.483 309.845 218.016 310.4C218.549 310.955 219.243 311.445 220.096 311.872L225.408 314.496C226.261 314.027 226.912 313.461 227.36 312.8C227.808 312.16 228.032 311.179 228.032 309.856C228.032 308.491 227.691 307.403 227.008 306.592C226.304 305.803 225.493 305.259 224.576 304.96C223.637 304.661 222.773 304.512 221.984 304.512Z" fill="#D3AF37"/>
<g clip-path="url(#clip0_10_1454)">
<path d="M32.1942 73.8873C32.0867 74.0371 31.9133 74.0371 31.8058 73.8873L26.3618 66.2717C26.2542 66.1215 26.2542 65.878 26.3618 65.7277L31.8058 58.1122C31.9133 57.962 32.0867 57.962 32.1942 58.1122L37.6387 65.7277C37.7458 65.878 37.7458 66.1215 37.6387 66.2717L32.1942 73.8873Z" fill="url(#paint1_linear_10_1454)"/>
</g>
<g clip-path="url(#clip1_10_1454)">
<path d="M66.3884 73.7746C66.1733 74.0741 65.8266 74.0741 65.6115 73.7746L54.7235 58.5435C54.5084 58.243 54.5084 57.7559 54.7235 57.4555L65.6115 42.2244C65.8266 41.9239 66.1733 41.9239 66.3884 42.2244L77.2773 57.4555C77.4915 57.7559 77.4915 58.243 77.2773 58.5435L66.3884 73.7746Z" fill="url(#paint2_linear_10_1454)"/>
</g>
<g clip-path="url(#clip2_10_1454)">
<path d="M188.388 311.775C188.173 312.074 187.827 312.074 187.612 311.775L176.724 296.543C176.508 296.243 176.508 295.756 176.724 295.455L187.612 280.224C187.827 279.924 188.173 279.924 188.388 280.224L199.277 295.455C199.492 295.756 199.492 296.243 199.277 296.543L188.388 311.775Z" fill="url(#paint3_linear_10_1454)"/>
</g>
<g clip-path="url(#clip3_10_1454)">
<path d="M188.388 73.7746C188.173 74.0741 187.827 74.0741 187.612 73.7746L176.724 58.5435C176.508 58.243 176.508 57.7559 176.724 57.4555L187.612 42.2244C187.827 41.9239 188.173 41.9239 188.388 42.2244L199.277 57.4555C199.492 57.7559 199.492 58.243 199.277 58.5435L188.388 73.7746Z" fill="url(#paint4_linear_10_1454)"/>
</g>
<g clip-path="url(#clip4_10_1454)">
<path d="M61.3884 192.775C61.1733 193.074 60.8266 193.074 60.6115 192.775L49.7235 177.543C49.5084 177.243 49.5084 176.756 49.7235 176.455L60.6115 161.224C60.8266 160.924 61.1733 160.924 61.3884 161.224L72.2773 176.455C72.4915 176.756 72.4915 177.243 72.2773 177.543L61.3884 192.775Z" fill="url(#paint5_linear_10_1454)"/>
</g>
<g clip-path="url(#clip5_10_1454)">
<path d="M188.388 192.775C188.173 193.074 187.827 193.074 187.612 192.775L176.724 177.543C176.508 177.243 176.508 176.756 176.724 176.455L187.612 161.224C187.827 160.924 188.173 160.924 188.388 161.224L199.277 176.455C199.492 176.756 199.492 177.243 199.277 177.543L188.388 192.775Z" fill="url(#paint6_linear_10_1454)"/>
</g>
<g clip-path="url(#clip6_10_1454)">
<path d="M127.388 133.775C127.173 134.074 126.827 134.074 126.612 133.775L115.724 118.543C115.508 118.243 115.508 117.756 115.724 117.455L126.612 102.224C126.827 101.924 127.173 101.924 127.388 102.224L138.277 117.455C138.492 117.756 138.492 118.243 138.277 118.543L127.388 133.775Z" fill="url(#paint7_linear_10_1454)"/>
</g>
<g clip-path="url(#clip7_10_1454)">
<path d="M127.388 251.775C127.173 252.074 126.827 252.074 126.612 251.775L115.724 236.543C115.508 236.243 115.508 235.756 115.724 235.455L126.612 220.224C126.827 219.924 127.173 219.924 127.388 220.224L138.277 235.455C138.492 235.756 138.492 236.243 138.277 236.543L127.388 251.775Z" fill="url(#paint8_linear_10_1454)"/>
</g>
<g clip-path="url(#clip8_10_1454)">
<path d="M66.3884 311.775C66.1733 312.074 65.8266 312.074 65.6115 311.775L54.7235 296.543C54.5084 296.243 54.5084 295.756 54.7235 295.455L65.6115 280.224C65.8266 279.924 66.1733 279.924 66.3884 280.224L77.2773 295.455C77.4915 295.756 77.4915 296.243 77.2773 296.543L66.3884 311.775Z" fill="url(#paint9_linear_10_1454)"/>
</g>
<g clip-path="url(#clip9_10_1454)">
<path d="M222.194 295.887C222.087 296.037 221.913 296.037 221.806 295.887L216.362 288.272C216.254 288.122 216.254 287.878 216.362 287.728L221.806 280.112C221.913 279.962 222.087 279.962 222.194 280.112L227.639 287.728C227.746 287.878 227.746 288.122 227.639 288.272L222.194 295.887Z" fill="url(#paint10_linear_10_1454)"/>
</g>
<defs>
<linearGradient id="paint0_linear_10_1454" x1="252" y1="352" x2="5.5" y2="5.00002" gradientUnits="userSpaceOnUse">
<stop/>
<stop offset="1" stop-color="#3F3E3E"/>
</linearGradient>
<linearGradient id="paint1_linear_10_1454" x1="28.75" y1="62.75" x2="35.25" y2="70.5" gradientUnits="userSpaceOnUse">
<stop stop-color="#FFE079"/>
<stop offset="0.44" stop-color="#D3AF37"/>
</linearGradient>
<linearGradient id="paint2_linear_10_1454" x1="59.5" y1="51.4999" x2="72.5" y2="66.9999" gradientUnits="userSpaceOnUse">
<stop stop-color="#FFE079"/>
<stop offset="0.44" stop-color="#D3AF37"/>
</linearGradient>
<linearGradient id="paint3_linear_10_1454" x1="181.5" y1="289.5" x2="194.5" y2="305" gradientUnits="userSpaceOnUse">
<stop stop-color="#FFE079"/>
<stop offset="0.44" stop-color="#D3AF37"/>
</linearGradient>
<linearGradient id="paint4_linear_10_1454" x1="181.5" y1="51.4999" x2="194.5" y2="66.9999" gradientUnits="userSpaceOnUse">
<stop stop-color="#FFE079"/>
<stop offset="0.44" stop-color="#D3AF37"/>
</linearGradient>
<linearGradient id="paint5_linear_10_1454" x1="54.5" y1="170.5" x2="67.5" y2="186" gradientUnits="userSpaceOnUse">
<stop stop-color="#FFE079"/>
<stop offset="0.44" stop-color="#D3AF37"/>
</linearGradient>
<linearGradient id="paint6_linear_10_1454" x1="181.5" y1="170.5" x2="194.5" y2="186" gradientUnits="userSpaceOnUse">
<stop stop-color="#FFE079"/>
<stop offset="0.44" stop-color="#D3AF37"/>
</linearGradient>
<linearGradient id="paint7_linear_10_1454" x1="120.5" y1="111.5" x2="133.5" y2="127" gradientUnits="userSpaceOnUse">
<stop stop-color="#FFE079"/>
<stop offset="0.44" stop-color="#D3AF37"/>
</linearGradient>
<linearGradient id="paint8_linear_10_1454" x1="120.5" y1="229.5" x2="133.5" y2="245" gradientUnits="userSpaceOnUse">
<stop stop-color="#FFE079"/>
<stop offset="0.44" stop-color="#D3AF37"/>
</linearGradient>
<linearGradient id="paint9_linear_10_1454" x1="59.5" y1="289.5" x2="72.5" y2="305" gradientUnits="userSpaceOnUse">
<stop stop-color="#FFE079"/>
<stop offset="0.44" stop-color="#D3AF37"/>
</linearGradient>
<linearGradient id="paint10_linear_10_1454" x1="218.75" y1="284.75" x2="225.25" y2="292.5" gradientUnits="userSpaceOnUse">
<stop stop-color="#FFE079"/>
<stop offset="0.44" stop-color="#D3AF37"/>
</linearGradient>
<clipPath id="clip0_10_1454">
<rect width="16" height="16" fill="white" transform="translate(24 58)"/>
</clipPath>
<clipPath id="clip1_10_1454">
<rect width="32" height="32" fill="white" transform="translate(50 42)"/>
</clipPath>
<clipPath id="clip2_10_1454">
<rect width="32" height="32" fill="white" transform="translate(172 280)"/>
</clipPath>
<clipPath id="clip3_10_1454">
<rect width="32" height="32" fill="white" transform="translate(172 42)"/>
</clipPath>
<clipPath id="clip4_10_1454">
<rect width="32" height="32" fill="white" transform="translate(45 161)"/>
</clipPath>
<clipPath id="clip5_10_1454">
<rect width="32" height="32" fill="white" transform="translate(172 161)"/>
</clipPath>
<clipPath id="clip6_10_1454">
<rect width="32" height="32" fill="white" transform="translate(111 102)"/>
</clipPath>
<clipPath id="clip7_10_1454">
<rect width="32" height="32" fill="white" transform="translate(111 220)"/>
</clipPath>
<clipPath id="clip8_10_1454">
<rect width="32" height="32" fill="white" transform="translate(50 280)"/>
</clipPath>
<clipPath id="clip9_10_1454">
<rect width="16" height="16" fill="white" transform="translate(214 280)"/>
</clipPath>
</defs>
</svg>
