<svg width="254" height="354" viewBox="0 0 254 354" fill="none" xmlns="http://www.w3.org/2000/svg">
<path d="M2 10C2 5.58172 5.58172 2 10 2H244C248.418 2 252 5.58172 252 10V344C252 348.418 248.418 352 244 352H10C5.58172 352 2 348.418 2 344V10Z" fill="url(#paint0_linear_10_1342)"/>
<path d="M2 10C2 5.58172 5.58172 2 10 2H244C248.418 2 252 5.58172 252 10V344C252 348.418 248.418 352 244 352H10C5.58172 352 2 348.418 2 344V10Z" stroke="#D3AF37" stroke-width="3"/>
<path d="M46.024 53.616C45.4053 53.616 44.808 53.4453 44.232 53.104C43.656 52.784 43.1867 52.3147 42.824 51.696C42.4613 51.0773 42.28 50.352 42.28 49.52C42.28 48.1973 42.3227 47.1413 42.408 46.352C41.896 46.5013 41.3413 46.576 40.744 46.576C39.0587 46.576 37.48 46.0107 36.008 44.88C34.5573 43.728 33.3947 42.2347 32.52 40.4C31.6667 38.544 31.24 36.6133 31.24 34.608C31.24 32.5813 31.6773 30.6507 32.552 28.816C33.4267 26.96 34.5893 25.4667 36.04 24.336C37.512 23.2053 39.0693 22.64 40.712 22.64C42.3547 22.64 43.9013 23.2053 45.352 24.336C46.824 25.4667 47.9973 26.96 48.872 28.816C49.7467 30.6507 50.184 32.5813 50.184 34.608C50.184 36.144 49.9173 37.648 49.384 39.12C48.872 40.592 48.1467 41.904 47.208 43.056C46.2907 44.208 45.2453 45.0933 44.072 45.712C44.1573 46.928 44.4133 47.8667 44.84 48.528C45.288 49.1893 45.928 49.52 46.76 49.52C47.6133 49.52 48.2427 49.1573 48.648 48.432C49.0747 47.728 49.288 46.832 49.288 45.744C49.288 45.296 49.256 44.784 49.192 44.208H50.152C50.2587 44.8907 50.312 45.712 50.312 46.672C50.312 47.5467 50.2587 48.3573 50.152 49.104C50.0667 49.872 49.864 50.5867 49.544 51.248C49.2027 51.9733 48.7227 52.5493 48.104 52.976C47.4853 53.4027 46.792 53.616 46.024 53.616ZM37.864 44.208C37.8 43.952 37.768 43.696 37.768 43.44C37.768 42.7147 38.0133 42.0747 38.504 41.52C39.016 40.9653 39.7093 40.688 40.584 40.688C41.48 40.688 42.216 40.976 42.792 41.552C43.368 42.128 43.72 42.8533 43.848 43.728H43.944C44.4773 42.6613 44.744 41.2213 44.744 39.408V29.808C44.744 27.6107 44.392 26.0427 43.688 25.104C43.0053 24.144 42.0133 23.664 40.712 23.664C39.4107 23.664 38.408 24.144 37.704 25.104C37.0213 26.0427 36.68 27.6107 36.68 29.808V39.408C36.68 41.6267 37.0533 43.2373 37.8 44.24L37.864 44.208ZM40.712 45.552C41.3093 45.552 41.896 45.4347 42.472 45.2C42.472 44.1333 42.3227 43.2907 42.024 42.672C41.7467 42.0533 41.1493 41.744 40.232 41.744C39.784 41.744 39.4107 41.936 39.112 42.32C38.8133 42.704 38.664 43.1307 38.664 43.6C38.664 44.56 38.984 45.168 39.624 45.424C39.7947 45.5093 40.1573 45.552 40.712 45.552Z" fill="#D3AF37"/>
<path d="M207.976 300.384C208.595 300.384 209.192 300.555 209.768 300.896C210.344 301.216 210.813 301.685 211.176 302.304C211.539 302.923 211.72 303.648 211.72 304.48C211.72 305.803 211.677 306.859 211.592 307.648C212.104 307.499 212.659 307.424 213.256 307.424C214.941 307.424 216.52 307.989 217.992 309.12C219.443 310.272 220.605 311.765 221.48 313.6C222.333 315.456 222.76 317.387 222.76 319.392C222.76 321.419 222.323 323.349 221.448 325.184C220.573 327.04 219.411 328.533 217.96 329.664C216.488 330.795 214.931 331.36 213.288 331.36C211.645 331.36 210.099 330.795 208.648 329.664C207.176 328.533 206.003 327.04 205.128 325.184C204.253 323.349 203.816 321.419 203.816 319.392C203.816 317.856 204.083 316.352 204.616 314.88C205.128 313.408 205.853 312.096 206.792 310.944C207.709 309.792 208.755 308.907 209.928 308.288C209.843 307.072 209.587 306.133 209.16 305.472C208.712 304.811 208.072 304.48 207.24 304.48C206.387 304.48 205.757 304.843 205.352 305.568C204.925 306.272 204.712 307.168 204.712 308.256C204.712 308.704 204.744 309.216 204.808 309.792H203.848C203.741 309.109 203.688 308.288 203.688 307.328C203.688 306.453 203.741 305.643 203.848 304.896C203.933 304.128 204.136 303.413 204.456 302.752C204.797 302.027 205.277 301.451 205.896 301.024C206.515 300.597 207.208 300.384 207.976 300.384ZM216.136 309.792C216.2 310.048 216.232 310.304 216.232 310.56C216.232 311.285 215.987 311.925 215.496 312.48C214.984 313.035 214.291 313.312 213.416 313.312C212.52 313.312 211.784 313.024 211.208 312.448C210.632 311.872 210.28 311.147 210.152 310.272H210.056C209.523 311.339 209.256 312.779 209.256 314.592V324.192C209.256 326.389 209.608 327.957 210.312 328.896C210.995 329.856 211.987 330.336 213.288 330.336C214.589 330.336 215.592 329.856 216.296 328.896C216.979 327.957 217.32 326.389 217.32 324.192V314.592C217.32 312.373 216.947 310.763 216.2 309.76L216.136 309.792ZM213.288 308.448C212.691 308.448 212.104 308.565 211.528 308.8C211.528 309.867 211.677 310.709 211.976 311.328C212.253 311.947 212.851 312.256 213.768 312.256C214.216 312.256 214.589 312.064 214.888 311.68C215.187 311.296 215.336 310.869 215.336 310.4C215.336 309.44 215.016 308.832 214.376 308.576C214.205 308.491 213.843 308.448 213.288 308.448Z" fill="#D3AF37"/>
<g clip-path="url(#clip0_10_1342)">
<path d="M38.3884 89.7751C38.1733 90.0746 37.8266 90.0746 37.6115 89.7751L26.7235 74.544C26.5084 74.2435 26.5084 73.7564 26.7235 73.456L37.6115 58.2248C37.8266 57.9244 38.1733 57.9244 38.3884 58.2248L49.2773 73.456C49.4915 73.7564 49.4915 74.2435 49.2773 74.544L38.3884 89.7751Z" fill="url(#paint1_linear_10_1342)"/>
</g>
<g clip-path="url(#clip1_10_1342)">
<path d="M216.388 264.225C216.173 263.925 215.827 263.925 215.612 264.225L204.724 279.456C204.508 279.756 204.508 280.244 204.724 280.544L215.612 295.775C215.827 296.076 216.173 296.076 216.388 295.775L227.277 280.544C227.492 280.244 227.492 279.756 227.277 279.456L216.388 264.225Z" fill="url(#paint2_linear_10_1342)"/>
</g>
<line x1="61" y1="37.5" x2="216" y2="37.5" stroke="#D3AF37"/>
<line x1="216.5" y1="37" x2="216.5" y2="260" stroke="#D3AF37"/>
<line x1="193" y1="316.5" x2="38" y2="316.5" stroke="#D3AF37"/>
<line x1="37.5" y1="317" x2="37.5" y2="94" stroke="#D3AF37"/>
<path d="M149.096 258.464C146.621 258.464 144.232 257.781 141.928 256.416C139.624 255.136 137.747 253.259 136.296 250.784C134.845 248.309 134.12 245.408 134.12 242.08C134.12 236.789 134.291 232.565 134.632 229.408C132.584 230.005 130.365 230.304 127.976 230.304C121.235 230.304 114.92 228.043 109.032 223.52C103.229 218.912 98.5787 212.939 95.08 205.6C91.6667 198.176 89.96 190.453 89.96 182.432C89.96 174.325 91.7093 166.603 95.208 159.264C98.7067 151.84 103.357 145.867 109.16 141.344C115.048 136.821 121.277 134.56 127.848 134.56C134.419 134.56 140.605 136.821 146.408 141.344C152.296 145.867 156.989 151.84 160.488 159.264C163.987 166.603 165.736 174.325 165.736 182.432C165.736 188.576 164.669 194.592 162.536 200.48C160.488 206.368 157.587 211.616 153.832 216.224C150.163 220.832 145.981 224.373 141.288 226.848C141.629 231.712 142.653 235.467 144.36 238.112C146.152 240.757 148.712 242.08 152.04 242.08C155.453 242.08 157.971 240.629 159.592 237.728C161.299 234.912 162.152 231.328 162.152 226.976C162.152 225.184 162.024 223.136 161.768 220.832H165.608C166.035 223.563 166.248 226.848 166.248 230.688C166.248 234.187 166.035 237.429 165.608 240.416C165.267 243.488 164.456 246.347 163.176 248.992C161.811 251.893 159.891 254.197 157.416 255.904C154.941 257.611 152.168 258.464 149.096 258.464ZM116.456 220.832C116.2 219.808 116.072 218.784 116.072 217.76C116.072 214.859 117.053 212.299 119.016 210.08C121.064 207.861 123.837 206.752 127.336 206.752C130.92 206.752 133.864 207.904 136.168 210.208C138.472 212.512 139.88 215.413 140.392 218.912H140.776C142.909 214.645 143.976 208.885 143.976 201.632V163.232C143.976 154.443 142.568 148.171 139.752 144.416C137.021 140.576 133.053 138.656 127.848 138.656C122.643 138.656 118.632 140.576 115.816 144.416C113.085 148.171 111.72 154.443 111.72 163.232V201.632C111.72 210.507 113.213 216.949 116.2 220.96L116.456 220.832ZM127.848 226.208C130.237 226.208 132.584 225.739 134.888 224.8C134.888 220.533 134.291 217.163 133.096 214.688C131.987 212.213 129.597 210.976 125.928 210.976C124.136 210.976 122.643 211.744 121.448 213.28C120.253 214.816 119.656 216.523 119.656 218.4C119.656 222.24 120.936 224.672 123.496 225.696C124.179 226.037 125.629 226.208 127.848 226.208Z" fill="url(#paint3_linear_10_1342)"/>
<path d="M147.663 92.7144C145.82 92.7144 144.323 94.2086 144.323 96.0513C144.323 97.2247 144.93 98.2574 145.845 98.8521C144.976 101.832 143.23 106.168 141.648 107.067C138.644 108.773 135.921 106.194 137.239 99.126C138.909 98.943 140.21 97.5264 140.21 95.8081C140.21 93.9639 138.716 92.4698 136.872 92.4698C135.027 92.4698 133.533 93.964 133.533 95.8081C133.533 96.9464 134.105 97.9498 134.975 98.5532C134.084 102.497 132.772 104.071 131.172 103.853C128.755 103.523 128.312 99.164 128.274 93.0776C129.487 92.5781 130.338 91.3842 130.338 89.9926C130.338 88.1484 128.844 86.6543 127 86.6543C125.157 86.6543 123.663 88.1485 123.663 89.9926C123.663 91.3843 124.516 92.5781 125.726 93.0776C125.688 99.1641 125.247 103.523 122.828 103.853C121.228 104.071 119.916 102.497 119.027 98.5533C119.898 97.9498 120.467 96.9464 120.467 95.8082C120.467 93.964 118.973 92.4699 117.13 92.4699C115.284 92.4699 113.79 93.9641 113.79 95.8082C113.79 97.5265 115.091 98.943 116.761 99.1261C118.079 106.194 115.357 108.774 112.354 107.067C110.77 106.168 109.025 101.832 108.156 98.8521C109.072 98.2574 109.677 97.2247 109.677 96.0513C109.677 94.2086 108.183 92.7144 106.337 92.7144C104.496 92.7144 103 94.2086 103 96.0513C103 97.7959 104.339 99.2256 106.044 99.3765L108.457 115.846H145.545L147.956 99.3765C149.663 99.2256 151 97.7959 151 96.0513C151 94.2086 149.506 92.7144 147.663 92.7144Z" fill="url(#paint4_linear_10_1342)"/>
<path d="M109.555 123.346H127H144.446L145.105 118.846H108.896L109.555 123.346Z" fill="url(#paint5_linear_10_1342)"/>
<defs>
<linearGradient id="paint0_linear_10_1342" x1="252" y1="352" x2="5.5" y2="5.00002" gradientUnits="userSpaceOnUse">
<stop/>
<stop offset="1" stop-color="#3F3E3E"/>
</linearGradient>
<linearGradient id="paint1_linear_10_1342" x1="31.5" y1="67.5004" x2="44.5" y2="83.0004" gradientUnits="userSpaceOnUse">
<stop stop-color="#FFE079"/>
<stop offset="0.44" stop-color="#D3AF37"/>
</linearGradient>
<linearGradient id="paint2_linear_10_1342" x1="209.5" y1="286.5" x2="222.5" y2="271" gradientUnits="userSpaceOnUse">
<stop stop-color="#FFE079"/>
<stop offset="0.44" stop-color="#D3AF37"/>
</linearGradient>
<linearGradient id="paint3_linear_10_1342" x1="85.6465" y1="136" x2="179.247" y2="221.132" gradientUnits="userSpaceOnUse">
<stop offset="0.116628" stop-color="#FFE079"/>
<stop offset="0.423834" stop-color="#D3AF37"/>
</linearGradient>
<linearGradient id="paint4_linear_10_1342" x1="105.424" y1="90.5342" x2="117.17" y2="120.703" gradientUnits="userSpaceOnUse">
<stop offset="0.116628" stop-color="#FFE079"/>
<stop offset="0.423834" stop-color="#D3AF37"/>
</linearGradient>
<linearGradient id="paint5_linear_10_1342" x1="110.725" y1="119.444" x2="111.148" y2="124.766" gradientUnits="userSpaceOnUse">
<stop offset="0.116628" stop-color="#FFE079"/>
<stop offset="0.423834" stop-color="#D3AF37"/>
</linearGradient>
<clipPath id="clip0_10_1342">
<rect width="32" height="32" fill="white" transform="translate(22 58)"/>
</clipPath>
<clipPath id="clip1_10_1342">
<rect width="32" height="32" fill="white" transform="matrix(1 0 0 -1 200 296)"/>
</clipPath>
</defs>
</svg>
