<svg width="254" height="354" viewBox="0 0 254 354" fill="none" xmlns="http://www.w3.org/2000/svg">
<path d="M2 10C2 5.58172 5.58172 2 10 2H244C248.418 2 252 5.58172 252 10V344C252 348.418 248.418 352 244 352H10C5.58172 352 2 348.418 2 344V10Z" fill="url(#paint0_linear_10_1433)"/>
<path d="M2 10C2 5.58172 5.58172 2 10 2H244C248.418 2 252 5.58172 252 10V344C252 348.418 248.418 352 244 352H10C5.58172 352 2 348.418 2 344V10Z" stroke="#D3AF37" stroke-width="3"/>
<path d="M31.376 50.512C30.608 50.512 29.968 50.2133 29.456 49.616C28.9653 49.0187 28.72 48.208 28.72 47.184C28.72 45.904 29.0293 44.6987 29.648 43.568C30.288 42.4373 31.1733 41.2107 32.304 39.888C33.968 37.968 35.2053 36.3253 36.016 34.96C36.5493 34.0213 36.9333 33.0293 37.168 31.984L37.04 31.888C36.3787 32.4427 35.6427 32.72 34.832 32.72C33.9787 32.72 33.0507 32.528 32.048 32.144C31.152 31.8453 30.2773 31.696 29.424 31.696C28.5493 31.696 27.8347 31.92 27.28 32.368C26.7253 32.7947 26.4053 33.4667 26.32 34.384L26.16 36.304H25.008L25.744 27.216H26.896L26.736 29.328L26.864 29.392C28.1013 27.7707 29.456 26.96 30.928 26.96C31.5893 26.96 32.1333 27.1413 32.56 27.504C33.008 27.8453 33.456 28.336 33.904 28.976C34.3307 29.5947 34.7147 30.0747 35.056 30.416C35.3973 30.7573 35.7387 30.928 36.08 30.928C36.7627 30.928 37.104 30.608 37.104 29.968C37.104 29.584 36.8907 29.264 36.464 29.008C35.9307 28.7093 35.664 28.3147 35.664 27.824C35.664 27.568 35.7493 27.3653 35.92 27.216C36.0907 27.0453 36.3253 26.96 36.624 26.96C37.1787 26.96 37.6267 27.28 37.968 27.92C38.3307 28.56 38.512 29.2213 38.512 29.904C38.512 31.2907 38.3093 32.56 37.904 33.712C37.4987 34.8427 36.8587 36.1227 35.984 37.552C35.1733 38.896 34.608 40.3893 34.288 42.032C33.9893 43.6533 33.84 45.3813 33.84 47.216C33.84 48.3253 33.616 49.1573 33.168 49.712C32.7413 50.2453 32.144 50.512 31.376 50.512Z" fill="#D3AF37"/>
<path d="M222.624 303.488C223.392 303.488 224.032 303.787 224.544 304.384C225.035 304.981 225.28 305.792 225.28 306.816C225.28 308.096 224.971 309.301 224.352 310.432C223.712 311.563 222.827 312.789 221.696 314.112C220.032 316.032 218.795 317.675 217.984 319.04C217.451 319.979 217.067 320.971 216.832 322.016L216.96 322.112C217.621 321.557 218.357 321.28 219.168 321.28C220.021 321.28 220.949 321.472 221.952 321.856C222.848 322.155 223.723 322.304 224.576 322.304C225.451 322.304 226.165 322.08 226.72 321.632C227.275 321.205 227.595 320.533 227.68 319.616L227.84 317.696H228.992L228.256 326.784H227.104L227.264 324.672L227.136 324.608C225.899 326.229 224.544 327.04 223.072 327.04C222.411 327.04 221.867 326.859 221.44 326.496C220.992 326.155 220.544 325.664 220.096 325.024C219.669 324.405 219.285 323.925 218.944 323.584C218.603 323.243 218.261 323.072 217.92 323.072C217.237 323.072 216.896 323.392 216.896 324.032C216.896 324.416 217.109 324.736 217.536 324.992C218.069 325.291 218.336 325.685 218.336 326.176C218.336 326.432 218.251 326.635 218.08 326.784C217.909 326.955 217.675 327.04 217.376 327.04C216.821 327.04 216.373 326.72 216.032 326.08C215.669 325.44 215.488 324.779 215.488 324.096C215.488 322.709 215.691 321.44 216.096 320.288C216.501 319.157 217.141 317.877 218.016 316.448C218.827 315.104 219.392 313.611 219.712 311.968C220.011 310.347 220.16 308.619 220.16 306.784C220.16 305.675 220.384 304.843 220.832 304.288C221.259 303.755 221.856 303.488 222.624 303.488Z" fill="#D3AF37"/>
<g clip-path="url(#clip0_10_1433)">
<path d="M32.1942 73.8873C32.0867 74.0371 31.9133 74.0371 31.8058 73.8873L26.3618 66.2717C26.2542 66.1215 26.2542 65.878 26.3618 65.7277L31.8058 58.1122C31.9133 57.962 32.0867 57.962 32.1942 58.1122L37.6387 65.7277C37.7458 65.878 37.7458 66.1215 37.6387 66.2717L32.1942 73.8873Z" fill="url(#paint1_linear_10_1433)"/>
</g>
<g clip-path="url(#clip1_10_1433)">
<path d="M66.3884 73.7746C66.1733 74.0741 65.8266 74.0741 65.6115 73.7746L54.7235 58.5435C54.5084 58.243 54.5084 57.7559 54.7235 57.4555L65.6115 42.2244C65.8266 41.9239 66.1733 41.9239 66.3884 42.2244L77.2773 57.4555C77.4915 57.7559 77.4915 58.243 77.2773 58.5435L66.3884 73.7746Z" fill="url(#paint2_linear_10_1433)"/>
</g>
<g clip-path="url(#clip2_10_1433)">
<path d="M188.388 311.775C188.173 312.074 187.827 312.074 187.612 311.775L176.724 296.543C176.508 296.243 176.508 295.756 176.724 295.455L187.612 280.224C187.827 279.924 188.173 279.924 188.388 280.224L199.277 295.455C199.492 295.756 199.492 296.243 199.277 296.543L188.388 311.775Z" fill="url(#paint3_linear_10_1433)"/>
</g>
<g clip-path="url(#clip3_10_1433)">
<path d="M188.388 73.7746C188.173 74.0741 187.827 74.0741 187.612 73.7746L176.724 58.5435C176.508 58.243 176.508 57.7559 176.724 57.4555L187.612 42.2244C187.827 41.9239 188.173 41.9239 188.388 42.2244L199.277 57.4555C199.492 57.7559 199.492 58.243 199.277 58.5435L188.388 73.7746Z" fill="url(#paint4_linear_10_1433)"/>
</g>
<g clip-path="url(#clip4_10_1433)">
<path d="M61.3884 192.775C61.1733 193.074 60.8266 193.074 60.6115 192.775L49.7235 177.543C49.5084 177.243 49.5084 176.756 49.7235 176.455L60.6115 161.224C60.8266 160.924 61.1733 160.924 61.3884 161.224L72.2773 176.455C72.4915 176.756 72.4915 177.243 72.2773 177.543L61.3884 192.775Z" fill="url(#paint5_linear_10_1433)"/>
</g>
<g clip-path="url(#clip5_10_1433)">
<path d="M188.388 192.775C188.173 193.074 187.827 193.074 187.612 192.775L176.724 177.543C176.508 177.243 176.508 176.756 176.724 176.455L187.612 161.224C187.827 160.924 188.173 160.924 188.388 161.224L199.277 176.455C199.492 176.756 199.492 177.243 199.277 177.543L188.388 192.775Z" fill="url(#paint6_linear_10_1433)"/>
</g>
<g clip-path="url(#clip6_10_1433)">
<path d="M127.388 133.775C127.173 134.074 126.827 134.074 126.612 133.775L115.724 118.543C115.508 118.243 115.508 117.756 115.724 117.455L126.612 102.224C126.827 101.924 127.173 101.924 127.388 102.224L138.277 117.455C138.492 117.756 138.492 118.243 138.277 118.543L127.388 133.775Z" fill="url(#paint7_linear_10_1433)"/>
</g>
<g clip-path="url(#clip7_10_1433)">
<path d="M66.3884 311.775C66.1733 312.074 65.8266 312.074 65.6115 311.775L54.7235 296.543C54.5084 296.243 54.5084 295.756 54.7235 295.455L65.6115 280.224C65.8266 279.924 66.1733 279.924 66.3884 280.224L77.2773 295.455C77.4915 295.756 77.4915 296.243 77.2773 296.543L66.3884 311.775Z" fill="url(#paint8_linear_10_1433)"/>
</g>
<g clip-path="url(#clip8_10_1433)">
<path d="M222.194 280.113C222.087 279.963 221.913 279.963 221.806 280.113L216.362 287.728C216.254 287.878 216.254 288.122 216.362 288.272L221.806 295.888C221.913 296.038 222.087 296.038 222.194 295.888L227.639 288.272C227.746 288.122 227.746 287.878 227.639 287.728L222.194 280.113Z" fill="url(#paint9_linear_10_1433)"/>
</g>
<defs>
<linearGradient id="paint0_linear_10_1433" x1="252" y1="352" x2="5.5" y2="5.00002" gradientUnits="userSpaceOnUse">
<stop/>
<stop offset="1" stop-color="#3F3E3E"/>
</linearGradient>
<linearGradient id="paint1_linear_10_1433" x1="28.75" y1="62.75" x2="35.25" y2="70.5" gradientUnits="userSpaceOnUse">
<stop stop-color="#FFE079"/>
<stop offset="0.44" stop-color="#D3AF37"/>
</linearGradient>
<linearGradient id="paint2_linear_10_1433" x1="59.5" y1="51.4999" x2="72.5" y2="66.9999" gradientUnits="userSpaceOnUse">
<stop stop-color="#FFE079"/>
<stop offset="0.44" stop-color="#D3AF37"/>
</linearGradient>
<linearGradient id="paint3_linear_10_1433" x1="181.5" y1="289.5" x2="194.5" y2="305" gradientUnits="userSpaceOnUse">
<stop stop-color="#FFE079"/>
<stop offset="0.44" stop-color="#D3AF37"/>
</linearGradient>
<linearGradient id="paint4_linear_10_1433" x1="181.5" y1="51.4999" x2="194.5" y2="66.9999" gradientUnits="userSpaceOnUse">
<stop stop-color="#FFE079"/>
<stop offset="0.44" stop-color="#D3AF37"/>
</linearGradient>
<linearGradient id="paint5_linear_10_1433" x1="54.5" y1="170.5" x2="67.5" y2="186" gradientUnits="userSpaceOnUse">
<stop stop-color="#FFE079"/>
<stop offset="0.44" stop-color="#D3AF37"/>
</linearGradient>
<linearGradient id="paint6_linear_10_1433" x1="181.5" y1="170.5" x2="194.5" y2="186" gradientUnits="userSpaceOnUse">
<stop stop-color="#FFE079"/>
<stop offset="0.44" stop-color="#D3AF37"/>
</linearGradient>
<linearGradient id="paint7_linear_10_1433" x1="120.5" y1="111.5" x2="133.5" y2="127" gradientUnits="userSpaceOnUse">
<stop stop-color="#FFE079"/>
<stop offset="0.44" stop-color="#D3AF37"/>
</linearGradient>
<linearGradient id="paint8_linear_10_1433" x1="59.5" y1="289.5" x2="72.5" y2="305" gradientUnits="userSpaceOnUse">
<stop stop-color="#FFE079"/>
<stop offset="0.44" stop-color="#D3AF37"/>
</linearGradient>
<linearGradient id="paint9_linear_10_1433" x1="218.75" y1="291.25" x2="225.25" y2="283.5" gradientUnits="userSpaceOnUse">
<stop stop-color="#FFE079"/>
<stop offset="0.44" stop-color="#D3AF37"/>
</linearGradient>
<clipPath id="clip0_10_1433">
<rect width="16" height="16" fill="white" transform="translate(24 58)"/>
</clipPath>
<clipPath id="clip1_10_1433">
<rect width="32" height="32" fill="white" transform="translate(50 42)"/>
</clipPath>
<clipPath id="clip2_10_1433">
<rect width="32" height="32" fill="white" transform="translate(172 280)"/>
</clipPath>
<clipPath id="clip3_10_1433">
<rect width="32" height="32" fill="white" transform="translate(172 42)"/>
</clipPath>
<clipPath id="clip4_10_1433">
<rect width="32" height="32" fill="white" transform="translate(45 161)"/>
</clipPath>
<clipPath id="clip5_10_1433">
<rect width="32" height="32" fill="white" transform="translate(172 161)"/>
</clipPath>
<clipPath id="clip6_10_1433">
<rect width="32" height="32" fill="white" transform="translate(111 102)"/>
</clipPath>
<clipPath id="clip7_10_1433">
<rect width="32" height="32" fill="white" transform="translate(50 280)"/>
</clipPath>
<clipPath id="clip8_10_1433">
<rect width="16" height="16" fill="white" transform="matrix(1 0 0 -1 214 296)"/>
</clipPath>
</defs>
</svg>
