<svg width="254" height="354" viewBox="0 0 254 354" fill="none" xmlns="http://www.w3.org/2000/svg">
<rect x="2" y="2" width="250" height="350" rx="8" fill="url(#paint0_linear_10_1358)"/>
<rect x="2" y="2" width="250" height="350" rx="8" stroke="#D3AF37" stroke-width="3"/>
<path d="M32.752 50.512C31.3867 50.512 30 49.7227 28.592 48.144C28.1867 47.696 27.8453 47.3867 27.568 47.216C27.312 47.024 26.992 46.928 26.608 46.928C26.3093 46.928 26.064 47.024 25.872 47.216C25.68 47.3867 25.584 47.632 25.584 47.952V50H24.304V48.496C24.304 47.664 24.3787 46.8853 24.528 46.16C24.6987 45.4133 25.0827 44.5493 25.68 43.568C26.2773 42.5653 27.1947 41.4773 28.432 40.304C29.9893 38.7893 31.1947 37.4133 32.048 36.176C32.9013 34.9173 33.328 33.552 33.328 32.08C33.328 30.8853 33.0827 29.8827 32.592 29.072C32.1013 28.2613 31.2693 27.856 30.096 27.856C29.2853 27.856 28.6027 28.1227 28.048 28.656C27.5147 29.168 27.248 29.776 27.248 30.48C27.248 31.3333 27.5467 31.9733 28.144 32.4C28.6133 32.7413 28.9653 33.0827 29.2 33.424C29.456 33.744 29.584 34.1493 29.584 34.64C29.584 35.1947 29.3813 35.6533 28.976 36.016C28.5707 36.3787 28.0587 36.56 27.44 36.56C26.5227 36.56 25.7227 36.2293 25.04 35.568C24.3787 34.9067 24.048 34.0213 24.048 32.912C24.048 31.7813 24.3467 30.7467 24.944 29.808C25.5627 28.848 26.3947 28.0907 27.44 27.536C28.5067 26.9813 29.68 26.704 30.96 26.704C33.3067 26.704 35.088 27.248 36.304 28.336C37.52 29.4027 38.128 30.8213 38.128 32.592C38.128 33.808 37.744 34.9067 36.976 35.888C36.2293 36.8693 35.312 37.7227 34.224 38.448C33.1573 39.152 31.8027 39.9413 30.16 40.816C29.2427 41.328 28.3787 41.9787 27.568 42.768C26.7573 43.5573 26.2027 44.5067 25.904 45.616L26.032 45.68C26.8 45.0613 27.664 44.752 28.624 44.752C29.008 44.752 29.4667 44.8053 30 44.912C30.5547 45.0187 31.0133 45.136 31.376 45.264C32.4427 45.6053 33.4133 45.776 34.288 45.776C35.056 45.776 35.696 45.552 36.208 45.104C36.72 44.6347 36.976 44.0907 36.976 43.472C36.976 42.8533 36.9227 42.1387 36.816 41.328H37.808C37.936 42.2453 38 43.0773 38 43.824C38 44.912 37.8187 45.968 37.456 46.992C37.1147 47.9947 36.5493 48.8373 35.76 49.52C34.9707 50.1813 33.968 50.512 32.752 50.512Z" fill="#D3AF37"/>
<path d="M221.248 303.488C222.613 303.488 224 304.277 225.408 305.856C225.813 306.304 226.155 306.613 226.432 306.784C226.688 306.976 227.008 307.072 227.392 307.072C227.691 307.072 227.936 306.976 228.128 306.784C228.32 306.613 228.416 306.368 228.416 306.048V304H229.696V305.504C229.696 306.336 229.621 307.115 229.472 307.84C229.301 308.587 228.917 309.451 228.32 310.432C227.723 311.435 226.805 312.523 225.568 313.696C224.011 315.211 222.805 316.587 221.952 317.824C221.099 319.083 220.672 320.448 220.672 321.92C220.672 323.115 220.917 324.117 221.408 324.928C221.899 325.739 222.731 326.144 223.904 326.144C224.715 326.144 225.397 325.877 225.952 325.344C226.485 324.832 226.752 324.224 226.752 323.52C226.752 322.667 226.453 322.027 225.856 321.6C225.387 321.259 225.035 320.917 224.8 320.576C224.544 320.256 224.416 319.851 224.416 319.36C224.416 318.805 224.619 318.347 225.024 317.984C225.429 317.621 225.941 317.44 226.56 317.44C227.477 317.44 228.277 317.771 228.96 318.432C229.621 319.093 229.952 319.979 229.952 321.088C229.952 322.219 229.653 323.253 229.056 324.192C228.437 325.152 227.605 325.909 226.56 326.464C225.493 327.019 224.32 327.296 223.04 327.296C220.693 327.296 218.912 326.752 217.696 325.664C216.48 324.597 215.872 323.179 215.872 321.408C215.872 320.192 216.256 319.093 217.024 318.112C217.771 317.131 218.688 316.277 219.776 315.552C220.843 314.848 222.197 314.059 223.84 313.184C224.757 312.672 225.621 312.021 226.432 311.232C227.243 310.443 227.797 309.493 228.096 308.384L227.968 308.32C227.2 308.939 226.336 309.248 225.376 309.248C224.992 309.248 224.533 309.195 224 309.088C223.445 308.981 222.987 308.864 222.624 308.736C221.557 308.395 220.587 308.224 219.712 308.224C218.944 308.224 218.304 308.448 217.792 308.896C217.28 309.365 217.024 309.909 217.024 310.528C217.024 311.147 217.077 311.861 217.184 312.672H216.192C216.064 311.755 216 310.923 216 310.176C216 309.088 216.181 308.032 216.544 307.008C216.885 306.005 217.451 305.163 218.24 304.48C219.029 303.819 220.032 303.488 221.248 303.488Z" fill="#D3AF37"/>
<g clip-path="url(#clip0_10_1358)">
<path d="M32.1942 73.8873C32.0867 74.0371 31.9133 74.0371 31.8058 73.8873L26.3618 66.2718C26.2542 66.1215 26.2542 65.878 26.3618 65.7278L31.8058 58.1122C31.9133 57.962 32.0867 57.962 32.1942 58.1122L37.6387 65.7278C37.7458 65.878 37.7458 66.1215 37.6387 66.2718L32.1942 73.8873Z" fill="url(#paint1_linear_10_1358)"/>
</g>
<g clip-path="url(#clip1_10_1358)">
<path d="M127.388 89.7747C127.173 90.0742 126.827 90.0742 126.612 89.7747L115.724 74.5436C115.508 74.2431 115.508 73.756 115.724 73.4556L126.612 58.2244C126.827 57.924 127.173 57.924 127.388 58.2244L138.277 73.4556C138.492 73.756 138.492 74.2431 138.277 74.5436L127.388 89.7747Z" fill="url(#paint2_linear_10_1358)"/>
</g>
<g clip-path="url(#clip2_10_1358)">
<path d="M127.388 327.775C127.173 328.074 126.827 328.074 126.612 327.775L115.724 312.544C115.508 312.243 115.508 311.756 115.724 311.456L126.612 296.224C126.827 295.924 127.173 295.924 127.388 296.224L138.277 311.456C138.492 311.756 138.492 312.243 138.277 312.544L127.388 327.775Z" fill="url(#paint3_linear_10_1358)"/>
</g>
<g clip-path="url(#clip3_10_1358)">
<path d="M222.194 280.113C222.087 279.963 221.913 279.963 221.806 280.113L216.362 287.728C216.254 287.878 216.254 288.122 216.362 288.272L221.806 295.888C221.913 296.038 222.087 296.038 222.194 295.888L227.639 288.272C227.746 288.122 227.746 287.878 227.639 287.728L222.194 280.113Z" fill="url(#paint4_linear_10_1358)"/>
</g>
<defs>
<linearGradient id="paint0_linear_10_1358" x1="252" y1="352" x2="2" y2="2" gradientUnits="userSpaceOnUse">
<stop/>
<stop offset="1" stop-color="#3F3E3E"/>
</linearGradient>
<linearGradient id="paint1_linear_10_1358" x1="29" y1="62" x2="35" y2="70" gradientUnits="userSpaceOnUse">
<stop stop-color="#FFE079"/>
<stop offset="0.44" stop-color="#D3AF37"/>
</linearGradient>
<linearGradient id="paint2_linear_10_1358" x1="120.5" y1="67.5" x2="133.5" y2="83" gradientUnits="userSpaceOnUse">
<stop stop-color="#FFE079"/>
<stop offset="0.44" stop-color="#D3AF37"/>
</linearGradient>
<linearGradient id="paint3_linear_10_1358" x1="121.5" y1="303.5" x2="133" y2="319.5" gradientUnits="userSpaceOnUse">
<stop stop-color="#FFE079"/>
<stop offset="0.44" stop-color="#D3AF37"/>
</linearGradient>
<linearGradient id="paint4_linear_10_1358" x1="219" y1="284" x2="225.5" y2="291" gradientUnits="userSpaceOnUse">
<stop stop-color="#FFE079"/>
<stop offset="0.44" stop-color="#D3AF37"/>
</linearGradient>
<clipPath id="clip0_10_1358">
<rect width="16" height="16" fill="white" transform="translate(24 58)"/>
</clipPath>
<clipPath id="clip1_10_1358">
<rect width="32" height="32" fill="white" transform="translate(111 58)"/>
</clipPath>
<clipPath id="clip2_10_1358">
<rect width="32" height="32" fill="white" transform="translate(111 296)"/>
</clipPath>
<clipPath id="clip3_10_1358">
<rect width="16" height="16" fill="white" transform="matrix(1 0 0 -1 214 296)"/>
</clipPath>
</defs>
</svg>
