<svg width="254" height="354" viewBox="0 0 254 354" fill="none" xmlns="http://www.w3.org/2000/svg">
<path d="M2 10C2 5.58172 5.58172 2 10 2H244C248.418 2 252 5.58172 252 10V344C252 348.418 248.418 352 244 352H10C5.58172 352 2 348.418 2 344V10Z" fill="url(#paint0_linear_10_1502)"/>
<path d="M2 10C2 5.58172 5.58172 2 10 2H244C248.418 2 252 5.58172 252 10V344C252 348.418 248.418 352 244 352H10C5.58172 352 2 348.418 2 344V10Z" stroke="#D3AF37" stroke-width="3"/>
<path d="M16.84 48.976H19.144C19.4427 48.976 19.6453 48.9227 19.752 48.816C19.8587 48.688 19.912 48.4853 19.912 48.208V30.704H16.84V29.552H18.024C18.9627 29.552 19.8267 29.3493 20.616 28.944C21.4267 28.5387 21.9707 27.9627 22.248 27.216H24.648V48.208C24.648 48.4853 24.7013 48.688 24.808 48.816C24.936 48.9227 25.1387 48.976 25.416 48.976H27.72V50H16.84V48.976ZM40.8425 50.512C39.3065 50.512 37.9518 49.9147 36.7785 48.72C35.6265 47.5253 34.7305 46.0107 34.0905 44.176C33.4718 42.32 33.1625 40.464 33.1625 38.608C33.1625 36.752 33.4718 34.9067 34.0905 33.072C34.7305 31.216 35.6265 29.6907 36.7785 28.496C37.9518 27.3013 39.3065 26.704 40.8425 26.704C42.3785 26.704 43.7225 27.3013 44.8745 28.496C46.0478 29.6907 46.9438 31.216 47.5625 33.072C48.2025 34.9067 48.5225 36.752 48.5225 38.608C48.5225 40.464 48.2025 42.32 47.5625 44.176C46.9438 46.0107 46.0478 47.5253 44.8745 48.72C43.7225 49.9147 42.3785 50.512 40.8425 50.512ZM40.8425 49.488C41.6318 49.488 42.1972 49.0613 42.5385 48.208C42.9012 47.3333 43.0825 46.3947 43.0825 45.392V31.824C43.0825 30.8213 42.9012 29.8933 42.5385 29.04C42.1972 28.1653 41.6318 27.728 40.8425 27.728C40.0532 27.728 39.4772 28.1653 39.1145 29.04C38.7732 29.8933 38.6025 30.8213 38.6025 31.824V45.392C38.6025 46.3947 38.7732 47.3333 39.1145 48.208C39.4772 49.0613 40.0532 49.488 40.8425 49.488Z" fill="#D3AF37"/>
<path d="M237.16 305.024H234.856C234.557 305.024 234.355 305.077 234.248 305.184C234.141 305.312 234.088 305.515 234.088 305.792V323.296H237.16V324.448H235.976C235.037 324.448 234.173 324.651 233.384 325.056C232.573 325.461 232.029 326.037 231.752 326.784H229.352V305.792C229.352 305.515 229.299 305.312 229.192 305.184C229.064 305.077 228.861 305.024 228.584 305.024H226.28V304H237.16V305.024ZM213.157 303.488C214.693 303.488 216.048 304.085 217.221 305.28C218.373 306.475 219.269 307.989 219.909 309.824C220.528 311.68 220.837 313.536 220.837 315.392C220.837 317.248 220.528 319.093 219.909 320.928C219.269 322.784 218.373 324.309 217.221 325.504C216.048 326.699 214.693 327.296 213.157 327.296C211.621 327.296 210.277 326.699 209.125 325.504C207.952 324.309 207.056 322.784 206.438 320.928C205.797 319.093 205.477 317.248 205.477 315.392C205.477 313.536 205.797 311.68 206.438 309.824C207.056 307.989 207.952 306.475 209.125 305.28C210.277 304.085 211.621 303.488 213.157 303.488ZM213.157 304.512C212.368 304.512 211.803 304.939 211.461 305.792C211.099 306.667 210.917 307.605 210.917 308.608V322.176C210.917 323.179 211.099 324.107 211.461 324.96C211.803 325.835 212.368 326.272 213.157 326.272C213.947 326.272 214.523 325.835 214.885 324.96C215.227 324.107 215.397 323.179 215.397 322.176V308.608C215.397 307.605 215.227 306.667 214.885 305.792C214.523 304.939 213.947 304.512 213.157 304.512Z" fill="#D3AF37"/>
<g clip-path="url(#clip0_10_1502)">
<path d="M32.1942 73.8873C32.0867 74.0371 31.9133 74.0371 31.8058 73.8873L26.3618 66.2717C26.2542 66.1215 26.2542 65.878 26.3618 65.7277L31.8058 58.1122C31.9133 57.962 32.0867 57.962 32.1942 58.1122L37.6387 65.7277C37.7458 65.878 37.7458 66.1215 37.6387 66.2717L32.1942 73.8873Z" fill="url(#paint1_linear_10_1502)"/>
</g>
<g clip-path="url(#clip1_10_1502)">
<path d="M66.3884 73.7746C66.1733 74.0741 65.8266 74.0741 65.6115 73.7746L54.7235 58.5435C54.5084 58.243 54.5084 57.7559 54.7235 57.4555L65.6115 42.2244C65.8266 41.9239 66.1733 41.9239 66.3884 42.2244L77.2773 57.4555C77.4915 57.7559 77.4915 58.243 77.2773 58.5435L66.3884 73.7746Z" fill="url(#paint2_linear_10_1502)"/>
</g>
<g clip-path="url(#clip2_10_1502)">
<path d="M188.388 311.775C188.173 312.074 187.827 312.074 187.612 311.775L176.724 296.543C176.508 296.243 176.508 295.756 176.724 295.455L187.612 280.224C187.827 279.924 188.173 279.924 188.388 280.224L199.277 295.455C199.492 295.756 199.492 296.243 199.277 296.543L188.388 311.775Z" fill="url(#paint3_linear_10_1502)"/>
</g>
<g clip-path="url(#clip3_10_1502)">
<path d="M188.388 73.7746C188.173 74.0741 187.827 74.0741 187.612 73.7746L176.724 58.5435C176.508 58.243 176.508 57.7559 176.724 57.4555L187.612 42.2244C187.827 41.9239 188.173 41.9239 188.388 42.2244L199.277 57.4555C199.492 57.7559 199.492 58.243 199.277 58.5435L188.388 73.7746Z" fill="url(#paint4_linear_10_1502)"/>
</g>
<g clip-path="url(#clip4_10_1502)">
<path d="M66.3884 242.775C66.1733 243.074 65.8266 243.074 65.6115 242.775L54.7235 227.543C54.5084 227.243 54.5084 226.756 54.7235 226.455L65.6115 211.224C65.8266 210.924 66.1733 210.924 66.3884 211.224L77.2773 226.455C77.4915 226.756 77.4915 227.243 77.2773 227.543L66.3884 242.775Z" fill="url(#paint5_linear_10_1502)"/>
</g>
<g clip-path="url(#clip5_10_1502)">
<path d="M188.388 242.775C188.173 243.074 187.827 243.074 187.612 242.775L176.724 227.543C176.508 227.243 176.508 226.756 176.724 226.455L187.612 211.224C187.827 210.924 188.173 210.924 188.388 211.224L199.277 226.455C199.492 226.756 199.492 227.243 199.277 227.543L188.388 242.775Z" fill="url(#paint6_linear_10_1502)"/>
</g>
<g clip-path="url(#clip6_10_1502)">
<path d="M188.388 142.775C188.173 143.074 187.827 143.074 187.612 142.775L176.724 127.543C176.508 127.243 176.508 126.756 176.724 126.455L187.612 111.224C187.827 110.924 188.173 110.924 188.388 111.224L199.277 126.455C199.492 126.756 199.492 127.243 199.277 127.543L188.388 142.775Z" fill="url(#paint7_linear_10_1502)"/>
</g>
<g clip-path="url(#clip7_10_1502)">
<path d="M127.388 105.775C127.173 106.074 126.827 106.074 126.612 105.775L115.724 90.5435C115.508 90.243 115.508 89.7559 115.724 89.4555L126.612 74.2244C126.827 73.9239 127.173 73.9239 127.388 74.2244L138.277 89.4555C138.492 89.7559 138.492 90.243 138.277 90.5435L127.388 105.775Z" fill="url(#paint8_linear_10_1502)"/>
</g>
<g clip-path="url(#clip8_10_1502)">
<path d="M127.388 279.775C127.173 280.074 126.827 280.074 126.612 279.775L115.724 264.543C115.508 264.243 115.508 263.756 115.724 263.455L126.612 248.224C126.827 247.924 127.173 247.924 127.388 248.224L138.277 263.455C138.492 263.756 138.492 264.243 138.277 264.543L127.388 279.775Z" fill="url(#paint9_linear_10_1502)"/>
</g>
<g clip-path="url(#clip9_10_1502)">
<path d="M66.3884 142.775C66.1733 143.074 65.8266 143.074 65.6115 142.775L54.7235 127.543C54.5084 127.243 54.5084 126.756 54.7235 126.455L65.6115 111.224C65.8266 110.924 66.1733 110.924 66.3884 111.224L77.2773 126.455C77.4915 126.756 77.4915 127.243 77.2773 127.543L66.3884 142.775Z" fill="url(#paint10_linear_10_1502)"/>
</g>
<g clip-path="url(#clip10_10_1502)">
<path d="M66.3884 311.775C66.1733 312.074 65.8266 312.074 65.6115 311.775L54.7235 296.543C54.5084 296.243 54.5084 295.756 54.7235 295.455L65.6115 280.224C65.8266 279.924 66.1733 279.924 66.3884 280.224L77.2773 295.455C77.4915 295.756 77.4915 296.243 77.2773 296.543L66.3884 311.775Z" fill="url(#paint11_linear_10_1502)"/>
</g>
<g clip-path="url(#clip11_10_1502)">
<path d="M222.194 280.113C222.087 279.963 221.913 279.963 221.806 280.113L216.362 287.728C216.254 287.878 216.254 288.122 216.362 288.272L221.806 295.888C221.913 296.038 222.087 296.038 222.194 295.888L227.639 288.272C227.746 288.122 227.746 287.878 227.639 287.728L222.194 280.113Z" fill="url(#paint12_linear_10_1502)"/>
</g>
<defs>
<linearGradient id="paint0_linear_10_1502" x1="252" y1="352" x2="5.5" y2="5.00002" gradientUnits="userSpaceOnUse">
<stop/>
<stop offset="1" stop-color="#3F3E3E"/>
</linearGradient>
<linearGradient id="paint1_linear_10_1502" x1="28.75" y1="62.75" x2="35.25" y2="70.5" gradientUnits="userSpaceOnUse">
<stop stop-color="#FFE079"/>
<stop offset="0.44" stop-color="#D3AF37"/>
</linearGradient>
<linearGradient id="paint2_linear_10_1502" x1="59.5" y1="51.4999" x2="72.5" y2="66.9999" gradientUnits="userSpaceOnUse">
<stop stop-color="#FFE079"/>
<stop offset="0.44" stop-color="#D3AF37"/>
</linearGradient>
<linearGradient id="paint3_linear_10_1502" x1="181.5" y1="289.5" x2="194.5" y2="305" gradientUnits="userSpaceOnUse">
<stop stop-color="#FFE079"/>
<stop offset="0.44" stop-color="#D3AF37"/>
</linearGradient>
<linearGradient id="paint4_linear_10_1502" x1="181.5" y1="51.4999" x2="194.5" y2="66.9999" gradientUnits="userSpaceOnUse">
<stop stop-color="#FFE079"/>
<stop offset="0.44" stop-color="#D3AF37"/>
</linearGradient>
<linearGradient id="paint5_linear_10_1502" x1="59.5" y1="220.5" x2="72.5" y2="236" gradientUnits="userSpaceOnUse">
<stop stop-color="#FFE079"/>
<stop offset="0.44" stop-color="#D3AF37"/>
</linearGradient>
<linearGradient id="paint6_linear_10_1502" x1="181.5" y1="220.5" x2="194.5" y2="236" gradientUnits="userSpaceOnUse">
<stop stop-color="#FFE079"/>
<stop offset="0.44" stop-color="#D3AF37"/>
</linearGradient>
<linearGradient id="paint7_linear_10_1502" x1="181.5" y1="120.5" x2="194.5" y2="136" gradientUnits="userSpaceOnUse">
<stop stop-color="#FFE079"/>
<stop offset="0.44" stop-color="#D3AF37"/>
</linearGradient>
<linearGradient id="paint8_linear_10_1502" x1="120.5" y1="83.4999" x2="133.5" y2="98.9999" gradientUnits="userSpaceOnUse">
<stop stop-color="#FFE079"/>
<stop offset="0.44" stop-color="#D3AF37"/>
</linearGradient>
<linearGradient id="paint9_linear_10_1502" x1="120.5" y1="257.5" x2="133.5" y2="273" gradientUnits="userSpaceOnUse">
<stop stop-color="#FFE079"/>
<stop offset="0.44" stop-color="#D3AF37"/>
</linearGradient>
<linearGradient id="paint10_linear_10_1502" x1="59.5" y1="120.5" x2="72.5" y2="136" gradientUnits="userSpaceOnUse">
<stop stop-color="#FFE079"/>
<stop offset="0.44" stop-color="#D3AF37"/>
</linearGradient>
<linearGradient id="paint11_linear_10_1502" x1="59.5" y1="289.5" x2="72.5" y2="305" gradientUnits="userSpaceOnUse">
<stop stop-color="#FFE079"/>
<stop offset="0.44" stop-color="#D3AF37"/>
</linearGradient>
<linearGradient id="paint12_linear_10_1502" x1="218.75" y1="291.25" x2="225.25" y2="283.5" gradientUnits="userSpaceOnUse">
<stop stop-color="#FFE079"/>
<stop offset="0.44" stop-color="#D3AF37"/>
</linearGradient>
<clipPath id="clip0_10_1502">
<rect width="16" height="16" fill="white" transform="translate(24 58)"/>
</clipPath>
<clipPath id="clip1_10_1502">
<rect width="32" height="32" fill="white" transform="translate(50 42)"/>
</clipPath>
<clipPath id="clip2_10_1502">
<rect width="32" height="32" fill="white" transform="translate(172 280)"/>
</clipPath>
<clipPath id="clip3_10_1502">
<rect width="32" height="32" fill="white" transform="translate(172 42)"/>
</clipPath>
<clipPath id="clip4_10_1502">
<rect width="32" height="32" fill="white" transform="translate(50 211)"/>
</clipPath>
<clipPath id="clip5_10_1502">
<rect width="32" height="32" fill="white" transform="translate(172 211)"/>
</clipPath>
<clipPath id="clip6_10_1502">
<rect width="32" height="32" fill="white" transform="translate(172 111)"/>
</clipPath>
<clipPath id="clip7_10_1502">
<rect width="32" height="32" fill="white" transform="translate(111 74)"/>
</clipPath>
<clipPath id="clip8_10_1502">
<rect width="32" height="32" fill="white" transform="translate(111 248)"/>
</clipPath>
<clipPath id="clip9_10_1502">
<rect width="32" height="32" fill="white" transform="translate(50 111)"/>
</clipPath>
<clipPath id="clip10_10_1502">
<rect width="32" height="32" fill="white" transform="translate(50 280)"/>
</clipPath>
<clipPath id="clip11_10_1502">
<rect width="16" height="16" fill="white" transform="matrix(1 0 0 -1 214 296)"/>
</clipPath>
</defs>
</svg>
