<svg width="254" height="354" viewBox="0 0 254 354" fill="none" xmlns="http://www.w3.org/2000/svg">
<path d="M2 10C2 5.58172 5.58172 2 10 2H244C248.418 2 252 5.58172 252 10V344C252 348.418 248.418 352 244 352H10C5.58172 352 2 348.418 2 344V10Z" fill="url(#paint0_linear_10_1477)"/>
<path d="M2 10C2 5.58172 5.58172 2 10 2H244C248.418 2 252 5.58172 252 10V344C252 348.418 248.418 352 244 352H10C5.58172 352 2 348.418 2 344V10Z" stroke="#D3AF37" stroke-width="3"/>
<path d="M30.256 50.512C29.2533 50.512 28.3893 50.3093 27.664 49.904C26.9387 49.4773 26.384 48.9333 26 48.272C25.6373 47.6107 25.456 46.9067 25.456 46.16C25.456 45.2427 25.7227 44.464 26.256 43.824C26.7893 43.184 27.4827 42.864 28.336 42.864C28.976 42.864 29.488 43.0667 29.872 43.472C30.2773 43.856 30.48 44.368 30.48 45.008C30.48 45.9893 30 46.6507 29.04 46.992C28.6133 47.1413 28.2933 47.2907 28.08 47.44C27.8667 47.5893 27.76 47.7813 27.76 48.016C27.76 48.4427 27.984 48.7947 28.432 49.072C28.88 49.3493 29.4987 49.488 30.288 49.488C31.4827 49.488 32.3573 48.976 32.912 47.952C33.488 46.928 33.776 45.7013 33.776 44.272V39.696L33.584 39.6C33.2427 39.9413 32.7947 40.208 32.24 40.4C31.6853 40.5707 31.0987 40.656 30.48 40.656C28.3467 40.656 26.7467 40.0267 25.68 38.768C24.6347 37.5093 24.112 35.8987 24.112 33.936C24.112 32.72 24.3573 31.568 24.848 30.48C25.36 29.3707 26.1387 28.464 27.184 27.76C28.2507 27.056 29.5733 26.704 31.152 26.704C32.7307 26.704 34.096 27.216 35.248 28.24C36.4213 29.264 37.3173 30.64 37.936 32.368C38.576 34.096 38.896 35.9947 38.896 38.064C38.896 40.5173 38.544 42.6827 37.84 44.56C37.1573 46.4373 36.1653 47.8987 34.864 48.944C33.5627 49.9893 32.0267 50.512 30.256 50.512ZM30.896 39.44C32.048 39.44 32.8373 38.992 33.264 38.096C33.4773 37.6907 33.616 37.1253 33.68 36.4C33.744 35.6747 33.776 34.6933 33.776 33.456C33.776 31.5147 33.5733 30.0747 33.168 29.136C32.7627 28.1973 32.1013 27.728 31.184 27.728C30.4587 27.728 29.9253 27.984 29.584 28.496C29.264 28.9867 29.0613 29.6267 28.976 30.416C28.8907 31.184 28.848 32.2507 28.848 33.616C28.848 35.344 28.9867 36.752 29.264 37.84C29.5627 38.9067 30.1067 39.44 30.896 39.44Z" fill="#D3AF37"/>
<path d="M223.744 303.488C224.747 303.488 225.611 303.691 226.336 304.096C227.061 304.523 227.616 305.067 228 305.728C228.363 306.389 228.544 307.093 228.544 307.84C228.544 308.757 228.277 309.536 227.744 310.176C227.211 310.816 226.517 311.136 225.664 311.136C225.024 311.136 224.512 310.933 224.128 310.528C223.723 310.144 223.52 309.632 223.52 308.992C223.52 308.011 224 307.349 224.96 307.008C225.387 306.859 225.707 306.709 225.92 306.56C226.133 306.411 226.24 306.219 226.24 305.984C226.24 305.557 226.016 305.205 225.568 304.928C225.12 304.651 224.501 304.512 223.712 304.512C222.517 304.512 221.643 305.024 221.088 306.048C220.512 307.072 220.224 308.299 220.224 309.728V314.304L220.416 314.4C220.757 314.059 221.205 313.792 221.76 313.6C222.315 313.429 222.901 313.344 223.52 313.344C225.653 313.344 227.253 313.973 228.32 315.232C229.365 316.491 229.888 318.101 229.888 320.064C229.888 321.28 229.643 322.432 229.152 323.52C228.64 324.629 227.861 325.536 226.816 326.24C225.749 326.944 224.427 327.296 222.848 327.296C221.269 327.296 219.904 326.784 218.752 325.76C217.579 324.736 216.683 323.36 216.064 321.632C215.424 319.904 215.104 318.005 215.104 315.936C215.104 313.483 215.456 311.317 216.16 309.44C216.843 307.563 217.835 306.101 219.136 305.056C220.437 304.011 221.973 303.488 223.744 303.488ZM223.104 314.56C221.952 314.56 221.163 315.008 220.736 315.904C220.523 316.309 220.384 316.875 220.32 317.6C220.256 318.325 220.224 319.307 220.224 320.544C220.224 322.485 220.427 323.925 220.832 324.864C221.237 325.803 221.899 326.272 222.816 326.272C223.541 326.272 224.075 326.016 224.416 325.504C224.736 325.013 224.939 324.373 225.024 323.584C225.109 322.816 225.152 321.749 225.152 320.384C225.152 318.656 225.013 317.248 224.736 316.16C224.437 315.093 223.893 314.56 223.104 314.56Z" fill="#D3AF37"/>
<g clip-path="url(#clip0_10_1477)">
<path d="M32.1942 73.8873C32.0867 74.0371 31.9133 74.0371 31.8058 73.8873L26.3618 66.2717C26.2542 66.1215 26.2542 65.878 26.3618 65.7277L31.8058 58.1122C31.9133 57.962 32.0867 57.962 32.1942 58.1122L37.6387 65.7277C37.7458 65.878 37.7458 66.1215 37.6387 66.2717L32.1942 73.8873Z" fill="url(#paint1_linear_10_1477)"/>
</g>
<g clip-path="url(#clip1_10_1477)">
<path d="M66.3884 73.7746C66.1733 74.0741 65.8266 74.0741 65.6115 73.7746L54.7235 58.5435C54.5084 58.243 54.5084 57.7559 54.7235 57.4555L65.6115 42.2244C65.8266 41.9239 66.1733 41.9239 66.3884 42.2244L77.2773 57.4555C77.4915 57.7559 77.4915 58.243 77.2773 58.5435L66.3884 73.7746Z" fill="url(#paint2_linear_10_1477)"/>
</g>
<g clip-path="url(#clip2_10_1477)">
<path d="M188.388 311.775C188.173 312.074 187.827 312.074 187.612 311.775L176.724 296.543C176.508 296.243 176.508 295.756 176.724 295.455L187.612 280.224C187.827 279.924 188.173 279.924 188.388 280.224L199.277 295.455C199.492 295.756 199.492 296.243 199.277 296.543L188.388 311.775Z" fill="url(#paint3_linear_10_1477)"/>
</g>
<g clip-path="url(#clip3_10_1477)">
<path d="M188.388 73.7746C188.173 74.0741 187.827 74.0741 187.612 73.7746L176.724 58.5435C176.508 58.243 176.508 57.7559 176.724 57.4555L187.612 42.2244C187.827 41.9239 188.173 41.9239 188.388 42.2244L199.277 57.4555C199.492 57.7559 199.492 58.243 199.277 58.5435L188.388 73.7746Z" fill="url(#paint4_linear_10_1477)"/>
</g>
<g clip-path="url(#clip4_10_1477)">
<path d="M66.3884 242.775C66.1733 243.074 65.8266 243.074 65.6115 242.775L54.7235 227.543C54.5084 227.243 54.5084 226.756 54.7235 226.455L65.6115 211.224C65.8266 210.924 66.1733 210.924 66.3884 211.224L77.2773 226.455C77.4915 226.756 77.4915 227.243 77.2773 227.543L66.3884 242.775Z" fill="url(#paint5_linear_10_1477)"/>
</g>
<g clip-path="url(#clip5_10_1477)">
<path d="M188.388 242.775C188.173 243.074 187.827 243.074 187.612 242.775L176.724 227.543C176.508 227.243 176.508 226.756 176.724 226.455L187.612 211.224C187.827 210.924 188.173 210.924 188.388 211.224L199.277 226.455C199.492 226.756 199.492 227.243 199.277 227.543L188.388 242.775Z" fill="url(#paint6_linear_10_1477)"/>
</g>
<g clip-path="url(#clip6_10_1477)">
<path d="M188.388 142.775C188.173 143.074 187.827 143.074 187.612 142.775L176.724 127.543C176.508 127.243 176.508 126.756 176.724 126.455L187.612 111.224C187.827 110.924 188.173 110.924 188.388 111.224L199.277 126.455C199.492 126.756 199.492 127.243 199.277 127.543L188.388 142.775Z" fill="url(#paint7_linear_10_1477)"/>
</g>
<g clip-path="url(#clip7_10_1477)">
<path d="M127.388 192.775C127.173 193.074 126.827 193.074 126.612 192.775L115.724 177.543C115.508 177.243 115.508 176.756 115.724 176.455L126.612 161.224C126.827 160.924 127.173 160.924 127.388 161.224L138.277 176.455C138.492 176.756 138.492 177.243 138.277 177.543L127.388 192.775Z" fill="url(#paint8_linear_10_1477)"/>
</g>
<g clip-path="url(#clip8_10_1477)">
<path d="M66.3884 142.775C66.1733 143.074 65.8266 143.074 65.6115 142.775L54.7235 127.543C54.5084 127.243 54.5084 126.756 54.7235 126.455L65.6115 111.224C65.8266 110.924 66.1733 110.924 66.3884 111.224L77.2773 126.455C77.4915 126.756 77.4915 127.243 77.2773 127.543L66.3884 142.775Z" fill="url(#paint9_linear_10_1477)"/>
</g>
<g clip-path="url(#clip9_10_1477)">
<path d="M66.3884 311.775C66.1733 312.074 65.8266 312.074 65.6115 311.775L54.7235 296.543C54.5084 296.243 54.5084 295.756 54.7235 295.455L65.6115 280.224C65.8266 279.924 66.1733 279.924 66.3884 280.224L77.2773 295.455C77.4915 295.756 77.4915 296.243 77.2773 296.543L66.3884 311.775Z" fill="url(#paint10_linear_10_1477)"/>
</g>
<g clip-path="url(#clip10_10_1477)">
<path d="M222.194 280.113C222.087 279.963 221.913 279.963 221.806 280.113L216.362 287.728C216.254 287.878 216.254 288.122 216.362 288.272L221.806 295.888C221.913 296.038 222.087 296.038 222.194 295.888L227.639 288.272C227.746 288.122 227.746 287.878 227.639 287.728L222.194 280.113Z" fill="url(#paint11_linear_10_1477)"/>
</g>
<defs>
<linearGradient id="paint0_linear_10_1477" x1="252" y1="352" x2="5.5" y2="5.00002" gradientUnits="userSpaceOnUse">
<stop/>
<stop offset="1" stop-color="#3F3E3E"/>
</linearGradient>
<linearGradient id="paint1_linear_10_1477" x1="28.75" y1="62.75" x2="35.25" y2="70.5" gradientUnits="userSpaceOnUse">
<stop stop-color="#FFE079"/>
<stop offset="0.44" stop-color="#D3AF37"/>
</linearGradient>
<linearGradient id="paint2_linear_10_1477" x1="59.5" y1="51.4999" x2="72.5" y2="66.9999" gradientUnits="userSpaceOnUse">
<stop stop-color="#FFE079"/>
<stop offset="0.44" stop-color="#D3AF37"/>
</linearGradient>
<linearGradient id="paint3_linear_10_1477" x1="181.5" y1="289.5" x2="194.5" y2="305" gradientUnits="userSpaceOnUse">
<stop stop-color="#FFE079"/>
<stop offset="0.44" stop-color="#D3AF37"/>
</linearGradient>
<linearGradient id="paint4_linear_10_1477" x1="181.5" y1="51.4999" x2="194.5" y2="66.9999" gradientUnits="userSpaceOnUse">
<stop stop-color="#FFE079"/>
<stop offset="0.44" stop-color="#D3AF37"/>
</linearGradient>
<linearGradient id="paint5_linear_10_1477" x1="59.5" y1="220.5" x2="72.5" y2="236" gradientUnits="userSpaceOnUse">
<stop stop-color="#FFE079"/>
<stop offset="0.44" stop-color="#D3AF37"/>
</linearGradient>
<linearGradient id="paint6_linear_10_1477" x1="181.5" y1="220.5" x2="194.5" y2="236" gradientUnits="userSpaceOnUse">
<stop stop-color="#FFE079"/>
<stop offset="0.44" stop-color="#D3AF37"/>
</linearGradient>
<linearGradient id="paint7_linear_10_1477" x1="181.5" y1="120.5" x2="194.5" y2="136" gradientUnits="userSpaceOnUse">
<stop stop-color="#FFE079"/>
<stop offset="0.44" stop-color="#D3AF37"/>
</linearGradient>
<linearGradient id="paint8_linear_10_1477" x1="120.5" y1="170.5" x2="133.5" y2="186" gradientUnits="userSpaceOnUse">
<stop stop-color="#FFE079"/>
<stop offset="0.44" stop-color="#D3AF37"/>
</linearGradient>
<linearGradient id="paint9_linear_10_1477" x1="59.5" y1="120.5" x2="72.5" y2="136" gradientUnits="userSpaceOnUse">
<stop stop-color="#FFE079"/>
<stop offset="0.44" stop-color="#D3AF37"/>
</linearGradient>
<linearGradient id="paint10_linear_10_1477" x1="59.5" y1="289.5" x2="72.5" y2="305" gradientUnits="userSpaceOnUse">
<stop stop-color="#FFE079"/>
<stop offset="0.44" stop-color="#D3AF37"/>
</linearGradient>
<linearGradient id="paint11_linear_10_1477" x1="218.75" y1="291.25" x2="225.25" y2="283.5" gradientUnits="userSpaceOnUse">
<stop stop-color="#FFE079"/>
<stop offset="0.44" stop-color="#D3AF37"/>
</linearGradient>
<clipPath id="clip0_10_1477">
<rect width="16" height="16" fill="white" transform="translate(24 58)"/>
</clipPath>
<clipPath id="clip1_10_1477">
<rect width="32" height="32" fill="white" transform="translate(50 42)"/>
</clipPath>
<clipPath id="clip2_10_1477">
<rect width="32" height="32" fill="white" transform="translate(172 280)"/>
</clipPath>
<clipPath id="clip3_10_1477">
<rect width="32" height="32" fill="white" transform="translate(172 42)"/>
</clipPath>
<clipPath id="clip4_10_1477">
<rect width="32" height="32" fill="white" transform="translate(50 211)"/>
</clipPath>
<clipPath id="clip5_10_1477">
<rect width="32" height="32" fill="white" transform="translate(172 211)"/>
</clipPath>
<clipPath id="clip6_10_1477">
<rect width="32" height="32" fill="white" transform="translate(172 111)"/>
</clipPath>
<clipPath id="clip7_10_1477">
<rect width="32" height="32" fill="white" transform="translate(111 161)"/>
</clipPath>
<clipPath id="clip8_10_1477">
<rect width="32" height="32" fill="white" transform="translate(50 111)"/>
</clipPath>
<clipPath id="clip9_10_1477">
<rect width="32" height="32" fill="white" transform="translate(50 280)"/>
</clipPath>
<clipPath id="clip10_10_1477">
<rect width="16" height="16" fill="white" transform="matrix(1 0 0 -1 214 296)"/>
</clipPath>
</defs>
</svg>
