<svg width="254" height="354" viewBox="0 0 254 354" fill="none" xmlns="http://www.w3.org/2000/svg">
<path d="M2 10C2 5.58172 5.58172 2 10 2H244C248.418 2 252 5.58172 252 10V344C252 348.418 248.418 352 244 352H10C5.58172 352 2 348.418 2 344V10Z" fill="url(#paint0_linear_10_1369)"/>
<path d="M2 10C2 5.58172 5.58172 2 10 2H244C248.418 2 252 5.58172 252 10V344C252 348.418 248.418 352 244 352H10C5.58172 352 2 348.418 2 344V10Z" stroke="#D3AF37" stroke-width="3"/>
<path d="M30.096 50.512C28.2613 50.512 26.7467 50.064 25.552 49.168C24.3787 48.2507 23.792 47.024 23.792 45.488C23.792 44.6133 24.08 43.856 24.656 43.216C25.2533 42.5547 25.9893 42.224 26.864 42.224C27.5893 42.224 28.1653 42.4267 28.592 42.832C29.0187 43.2373 29.232 43.7387 29.232 44.336C29.232 45.3813 28.7413 46.1173 27.76 46.544C27.5253 46.6507 27.312 46.8 27.12 46.992C26.9493 47.184 26.864 47.3973 26.864 47.632C26.864 48.208 27.1413 48.6667 27.696 49.008C28.272 49.328 29.04 49.488 30 49.488C32.2613 49.488 33.392 47.6 33.392 43.824C33.392 42.0533 33.0827 40.7413 32.464 39.888C31.8453 39.0347 31.0773 38.608 30.16 38.608H26.928V37.456H30.096C31.0987 37.456 31.824 37.0827 32.272 36.336C32.7413 35.568 32.976 34.384 32.976 32.784C32.976 30.8427 32.7413 29.52 32.272 28.816C31.824 28.0907 31.1307 27.728 30.192 27.728C29.3813 27.728 28.688 27.9627 28.112 28.432C27.536 28.88 27.248 29.4667 27.248 30.192C27.248 30.6613 27.568 31.1093 28.208 31.536C28.9547 32.0267 29.328 32.6667 29.328 33.456C29.328 33.968 29.136 34.416 28.752 34.8C28.3893 35.184 27.888 35.376 27.248 35.376C26.4587 35.376 25.776 35.0667 25.2 34.448C24.6453 33.808 24.368 33.008 24.368 32.048C24.368 30.9813 24.6453 30.0427 25.2 29.232C25.7547 28.4213 26.5013 27.8027 27.44 27.376C28.4 26.928 29.4453 26.704 30.576 26.704C32.7307 26.704 34.4693 27.216 35.792 28.24C37.1147 29.264 37.776 30.6507 37.776 32.4C37.776 33.9147 37.2533 35.12 36.208 36.016C35.184 36.912 33.9573 37.5093 32.528 37.808V38.096C33.5307 38.1813 34.4907 38.4907 35.408 39.024C36.3253 39.536 37.072 40.2187 37.648 41.072C38.224 41.9253 38.512 42.8853 38.512 43.952C38.512 46.064 37.744 47.6853 36.208 48.816C34.6933 49.9467 32.656 50.512 30.096 50.512Z" fill="#D3AF37"/>
<path d="M223.904 303.488C225.739 303.488 227.253 303.936 228.448 304.832C229.621 305.749 230.208 306.976 230.208 308.512C230.208 309.387 229.92 310.144 229.344 310.784C228.747 311.445 228.011 311.776 227.136 311.776C226.411 311.776 225.835 311.573 225.408 311.168C224.981 310.763 224.768 310.261 224.768 309.664C224.768 308.619 225.259 307.883 226.24 307.456C226.475 307.349 226.688 307.2 226.88 307.008C227.051 306.816 227.136 306.603 227.136 306.368C227.136 305.792 226.859 305.333 226.304 304.992C225.728 304.672 224.96 304.512 224 304.512C221.739 304.512 220.608 306.4 220.608 310.176C220.608 311.947 220.917 313.259 221.536 314.112C222.155 314.965 222.923 315.392 223.84 315.392H227.072V316.544H223.904C222.901 316.544 222.176 316.917 221.728 317.664C221.259 318.432 221.024 319.616 221.024 321.216C221.024 323.157 221.259 324.48 221.728 325.184C222.176 325.909 222.869 326.272 223.808 326.272C224.619 326.272 225.312 326.037 225.888 325.568C226.464 325.12 226.752 324.533 226.752 323.808C226.752 323.339 226.432 322.891 225.792 322.464C225.045 321.973 224.672 321.333 224.672 320.544C224.672 320.032 224.864 319.584 225.248 319.2C225.611 318.816 226.112 318.624 226.752 318.624C227.541 318.624 228.224 318.933 228.8 319.552C229.355 320.192 229.632 320.992 229.632 321.952C229.632 323.019 229.355 323.957 228.8 324.768C228.245 325.579 227.499 326.197 226.56 326.624C225.6 327.072 224.555 327.296 223.424 327.296C221.269 327.296 219.531 326.784 218.208 325.76C216.885 324.736 216.224 323.349 216.224 321.6C216.224 320.085 216.747 318.88 217.792 317.984C218.816 317.088 220.043 316.491 221.472 316.192V315.904C220.469 315.819 219.509 315.509 218.592 314.976C217.675 314.464 216.928 313.781 216.352 312.928C215.776 312.075 215.488 311.115 215.488 310.048C215.488 307.936 216.256 306.315 217.792 305.184C219.307 304.053 221.344 303.488 223.904 303.488Z" fill="#D3AF37"/>
<g clip-path="url(#clip0_10_1369)">
<path d="M32.1942 73.8874C32.0867 74.0371 31.9133 74.0371 31.8058 73.8874L26.3618 66.2718C26.2542 66.1216 26.2542 65.878 26.3618 65.7278L31.8058 58.1122C31.9133 57.962 32.0867 57.962 32.1942 58.1122L37.6387 65.7278C37.7458 65.878 37.7458 66.1216 37.6387 66.2718L32.1942 73.8874Z" fill="url(#paint1_linear_10_1369)"/>
</g>
<g clip-path="url(#clip1_10_1369)">
<path d="M127.388 73.7746C127.173 74.0742 126.827 74.0742 126.612 73.7746L115.724 58.5435C115.508 58.2431 115.508 57.756 115.724 57.4555L126.612 42.2244C126.827 41.924 127.173 41.924 127.388 42.2244L138.277 57.4555C138.492 57.756 138.492 58.2431 138.277 58.5435L127.388 73.7746Z" fill="url(#paint2_linear_10_1369)"/>
</g>
<g clip-path="url(#clip2_10_1369)">
<path d="M127.388 192.775C127.173 193.074 126.827 193.074 126.612 192.775L115.724 177.544C115.508 177.243 115.508 176.756 115.724 176.456L126.612 161.224C126.827 160.924 127.173 160.924 127.388 161.224L138.277 176.456C138.492 176.756 138.492 177.243 138.277 177.544L127.388 192.775Z" fill="url(#paint3_linear_10_1369)"/>
</g>
<g clip-path="url(#clip3_10_1369)">
<path d="M127.388 280.225C127.173 279.926 126.827 279.926 126.612 280.225L115.724 295.456C115.508 295.757 115.508 296.244 115.724 296.544L126.612 311.776C126.827 312.076 127.173 312.076 127.388 311.776L138.277 296.544C138.492 296.244 138.492 295.757 138.277 295.456L127.388 280.225Z" fill="url(#paint4_linear_10_1369)"/>
</g>
<g clip-path="url(#clip4_10_1369)">
<path d="M222.194 280.113C222.087 279.963 221.913 279.963 221.806 280.113L216.362 287.728C216.254 287.878 216.254 288.122 216.362 288.272L221.806 295.888C221.913 296.038 222.087 296.038 222.194 295.888L227.639 288.272C227.746 288.122 227.746 287.878 227.639 287.728L222.194 280.113Z" fill="url(#paint5_linear_10_1369)"/>
</g>
<defs>
<linearGradient id="paint0_linear_10_1369" x1="252" y1="352" x2="5.5" y2="5.00002" gradientUnits="userSpaceOnUse">
<stop/>
<stop offset="1" stop-color="#3F3E3E"/>
</linearGradient>
<linearGradient id="paint1_linear_10_1369" x1="28.75" y1="62.75" x2="35.25" y2="70.5" gradientUnits="userSpaceOnUse">
<stop stop-color="#FFE079"/>
<stop offset="0.44" stop-color="#D3AF37"/>
</linearGradient>
<linearGradient id="paint2_linear_10_1369" x1="120.5" y1="51.5" x2="133.5" y2="67" gradientUnits="userSpaceOnUse">
<stop stop-color="#FFE079"/>
<stop offset="0.44" stop-color="#D3AF37"/>
</linearGradient>
<linearGradient id="paint3_linear_10_1369" x1="120.5" y1="170.5" x2="133.5" y2="186" gradientUnits="userSpaceOnUse">
<stop stop-color="#FFE079"/>
<stop offset="0.44" stop-color="#D3AF37"/>
</linearGradient>
<linearGradient id="paint4_linear_10_1369" x1="120.5" y1="302.5" x2="133.5" y2="287" gradientUnits="userSpaceOnUse">
<stop stop-color="#FFE079"/>
<stop offset="0.44" stop-color="#D3AF37"/>
</linearGradient>
<linearGradient id="paint5_linear_10_1369" x1="218.75" y1="291.25" x2="225.25" y2="283.5" gradientUnits="userSpaceOnUse">
<stop stop-color="#FFE079"/>
<stop offset="0.44" stop-color="#D3AF37"/>
</linearGradient>
<clipPath id="clip0_10_1369">
<rect width="16" height="16" fill="white" transform="translate(24 58)"/>
</clipPath>
<clipPath id="clip1_10_1369">
<rect width="32" height="32" fill="white" transform="translate(111 42)"/>
</clipPath>
<clipPath id="clip2_10_1369">
<rect width="32" height="32" fill="white" transform="translate(111 161)"/>
</clipPath>
<clipPath id="clip3_10_1369">
<rect width="32" height="32" fill="white" transform="matrix(1 0 0 -1 111 312)"/>
</clipPath>
<clipPath id="clip4_10_1369">
<rect width="16" height="16" fill="white" transform="matrix(1 0 0 -1 214 296)"/>
</clipPath>
</defs>
</svg>
