<svg width="254" height="354" viewBox="0 0 254 354" fill="none" xmlns="http://www.w3.org/2000/svg">
<path d="M2 10C2 5.58172 5.58172 2 10 2H244C248.418 2 252 5.58172 252 10V344C252 348.418 248.418 352 244 352H10C5.58172 352 2 348.418 2 344V10Z" fill="url(#paint0_linear_10_1414)"/>
<path d="M2 10C2 5.58172 5.58172 2 10 2H244C248.418 2 252 5.58172 252 10V344C252 348.418 248.418 352 244 352H10C5.58172 352 2 348.418 2 344V10Z" stroke="#D3AF37" stroke-width="3"/>
<path d="M32.048 50.512C30.4693 50.512 29.0933 50 27.92 48.976C26.768 47.952 25.872 46.576 25.232 44.848C24.6133 43.12 24.304 41.2213 24.304 39.152C24.304 36.6987 24.6453 34.5333 25.328 32.656C26.032 30.7787 27.0347 29.3173 28.336 28.272C29.6373 27.2267 31.1733 26.704 32.944 26.704C33.9467 26.704 34.8107 26.9173 35.536 27.344C36.2613 27.7493 36.8053 28.2827 37.168 28.944C37.552 29.6053 37.744 30.3093 37.744 31.056C37.744 31.9733 37.4773 32.752 36.944 33.392C36.4107 34.032 35.7173 34.352 34.864 34.352C34.224 34.352 33.7013 34.16 33.296 33.776C32.912 33.3707 32.72 32.848 32.72 32.208C32.72 31.2267 33.2 30.5653 34.16 30.224C34.5867 30.0747 34.9067 29.9253 35.12 29.776C35.3333 29.6267 35.44 29.4347 35.44 29.2C35.44 28.7733 35.216 28.4213 34.768 28.144C34.32 27.8667 33.7013 27.728 32.912 27.728C31.7173 27.728 30.832 28.24 30.256 29.264C29.7013 30.288 29.424 31.5147 29.424 32.944V37.52L29.616 37.616C29.9573 37.2747 30.4053 37.0187 30.96 36.848C31.5147 36.656 32.1013 36.56 32.72 36.56C34.8533 36.56 36.4427 37.1893 37.488 38.448C38.5547 39.7067 39.088 41.3173 39.088 43.28C39.088 44.496 38.832 45.6587 38.32 46.768C37.8293 47.856 37.0507 48.752 35.984 49.456C34.9387 50.16 33.6267 50.512 32.048 50.512ZM32.016 49.488C32.7413 49.488 33.264 49.2427 33.584 48.752C33.9253 48.24 34.1387 47.6 34.224 46.832C34.3093 46.0427 34.352 44.9653 34.352 43.6C34.352 41.872 34.2027 40.4747 33.904 39.408C33.6267 38.32 33.0933 37.776 32.304 37.776C31.152 37.776 30.3627 38.224 29.936 39.12C29.7227 39.5253 29.584 40.0907 29.52 40.816C29.456 41.5413 29.424 42.5227 29.424 43.76C29.424 45.7013 29.6267 47.1413 30.032 48.08C30.4373 49.0187 31.0987 49.488 32.016 49.488Z" fill="#D3AF37"/>
<path d="M221.952 303.488C223.531 303.488 224.907 304 226.08 305.024C227.232 306.048 228.128 307.424 228.768 309.152C229.387 310.88 229.696 312.779 229.696 314.848C229.696 317.301 229.355 319.467 228.672 321.344C227.968 323.221 226.965 324.683 225.664 325.728C224.363 326.773 222.827 327.296 221.056 327.296C220.053 327.296 219.189 327.083 218.464 326.656C217.739 326.251 217.195 325.717 216.832 325.056C216.448 324.395 216.256 323.691 216.256 322.944C216.256 322.027 216.523 321.248 217.056 320.608C217.589 319.968 218.283 319.648 219.136 319.648C219.776 319.648 220.299 319.84 220.704 320.224C221.088 320.629 221.28 321.152 221.28 321.792C221.28 322.773 220.8 323.435 219.84 323.776C219.413 323.925 219.093 324.075 218.88 324.224C218.667 324.373 218.56 324.565 218.56 324.8C218.56 325.227 218.784 325.579 219.232 325.856C219.68 326.133 220.299 326.272 221.088 326.272C222.283 326.272 223.168 325.76 223.744 324.736C224.299 323.712 224.576 322.485 224.576 321.056V316.48L224.384 316.384C224.043 316.725 223.595 316.981 223.04 317.152C222.485 317.344 221.899 317.44 221.28 317.44C219.147 317.44 217.557 316.811 216.512 315.552C215.445 314.293 214.912 312.683 214.912 310.72C214.912 309.504 215.168 308.341 215.68 307.232C216.171 306.144 216.949 305.248 218.016 304.544C219.061 303.84 220.373 303.488 221.952 303.488ZM221.984 304.512C221.259 304.512 220.736 304.757 220.416 305.248C220.075 305.76 219.861 306.4 219.776 307.168C219.691 307.957 219.648 309.035 219.648 310.4C219.648 312.128 219.797 313.525 220.096 314.592C220.373 315.68 220.907 316.224 221.696 316.224C222.848 316.224 223.637 315.776 224.064 314.88C224.277 314.475 224.416 313.909 224.48 313.184C224.544 312.459 224.576 311.477 224.576 310.24C224.576 308.299 224.373 306.859 223.968 305.92C223.563 304.981 222.901 304.512 221.984 304.512Z" fill="#D3AF37"/>
<g clip-path="url(#clip0_10_1414)">
<path d="M32.1942 73.8873C32.0867 74.0371 31.9133 74.0371 31.8058 73.8873L26.3618 66.2717C26.2542 66.1215 26.2542 65.878 26.3618 65.7277L31.8058 58.1122C31.9133 57.962 32.0867 57.962 32.1942 58.1122L37.6387 65.7277C37.7458 65.878 37.7458 66.1215 37.6387 66.2717L32.1942 73.8873Z" fill="url(#paint1_linear_10_1414)"/>
</g>
<g clip-path="url(#clip1_10_1414)">
<path d="M66.3884 73.7746C66.1733 74.0741 65.8266 74.0741 65.6115 73.7746L54.7235 58.5435C54.5084 58.243 54.5084 57.7559 54.7235 57.4555L65.6115 42.2244C65.8266 41.9239 66.1733 41.9239 66.3884 42.2244L77.2773 57.4555C77.4915 57.7559 77.4915 58.243 77.2773 58.5435L66.3884 73.7746Z" fill="url(#paint2_linear_10_1414)"/>
</g>
<g clip-path="url(#clip2_10_1414)">
<path d="M188.388 311.775C188.173 312.074 187.827 312.074 187.612 311.775L176.724 296.543C176.508 296.243 176.508 295.756 176.724 295.455L187.612 280.224C187.827 279.924 188.173 279.924 188.388 280.224L199.277 295.455C199.492 295.756 199.492 296.243 199.277 296.543L188.388 311.775Z" fill="url(#paint3_linear_10_1414)"/>
</g>
<g clip-path="url(#clip3_10_1414)">
<path d="M188.388 73.7746C188.173 74.0741 187.827 74.0741 187.612 73.7746L176.724 58.5435C176.508 58.243 176.508 57.7559 176.724 57.4555L187.612 42.2244C187.827 41.9239 188.173 41.9239 188.388 42.2244L199.277 57.4555C199.492 57.7559 199.492 58.243 199.277 58.5435L188.388 73.7746Z" fill="url(#paint4_linear_10_1414)"/>
</g>
<g clip-path="url(#clip4_10_1414)">
<path d="M61.3884 192.775C61.1733 193.074 60.8266 193.074 60.6115 192.775L49.7235 177.543C49.5084 177.243 49.5084 176.756 49.7235 176.455L60.6115 161.224C60.8266 160.924 61.1733 160.924 61.3884 161.224L72.2773 176.455C72.4915 176.756 72.4915 177.243 72.2773 177.543L61.3884 192.775Z" fill="url(#paint5_linear_10_1414)"/>
</g>
<g clip-path="url(#clip5_10_1414)">
<path d="M188.388 192.775C188.173 193.074 187.827 193.074 187.612 192.775L176.724 177.543C176.508 177.243 176.508 176.756 176.724 176.455L187.612 161.224C187.827 160.924 188.173 160.924 188.388 161.224L199.277 176.455C199.492 176.756 199.492 177.243 199.277 177.543L188.388 192.775Z" fill="url(#paint6_linear_10_1414)"/>
</g>
<g clip-path="url(#clip6_10_1414)">
<path d="M66.3884 311.775C66.1733 312.074 65.8266 312.074 65.6115 311.775L54.7235 296.543C54.5084 296.243 54.5084 295.756 54.7235 295.455L65.6115 280.224C65.8266 279.924 66.1733 279.924 66.3884 280.224L77.2773 295.455C77.4915 295.756 77.4915 296.243 77.2773 296.543L66.3884 311.775Z" fill="url(#paint7_linear_10_1414)"/>
</g>
<g clip-path="url(#clip7_10_1414)">
<path d="M222.194 280.113C222.087 279.963 221.913 279.963 221.806 280.113L216.362 287.728C216.254 287.878 216.254 288.122 216.362 288.272L221.806 295.888C221.913 296.038 222.087 296.038 222.194 295.888L227.639 288.272C227.746 288.122 227.746 287.878 227.639 287.728L222.194 280.113Z" fill="url(#paint8_linear_10_1414)"/>
</g>
<defs>
<linearGradient id="paint0_linear_10_1414" x1="252" y1="352" x2="5.5" y2="5.00002" gradientUnits="userSpaceOnUse">
<stop/>
<stop offset="1" stop-color="#3F3E3E"/>
</linearGradient>
<linearGradient id="paint1_linear_10_1414" x1="28.75" y1="62.75" x2="35.25" y2="70.5" gradientUnits="userSpaceOnUse">
<stop stop-color="#FFE079"/>
<stop offset="0.44" stop-color="#D3AF37"/>
</linearGradient>
<linearGradient id="paint2_linear_10_1414" x1="59.5" y1="51.4999" x2="72.5" y2="66.9999" gradientUnits="userSpaceOnUse">
<stop stop-color="#FFE079"/>
<stop offset="0.44" stop-color="#D3AF37"/>
</linearGradient>
<linearGradient id="paint3_linear_10_1414" x1="181.5" y1="289.5" x2="194.5" y2="305" gradientUnits="userSpaceOnUse">
<stop stop-color="#FFE079"/>
<stop offset="0.44" stop-color="#D3AF37"/>
</linearGradient>
<linearGradient id="paint4_linear_10_1414" x1="181.5" y1="51.4999" x2="194.5" y2="66.9999" gradientUnits="userSpaceOnUse">
<stop stop-color="#FFE079"/>
<stop offset="0.44" stop-color="#D3AF37"/>
</linearGradient>
<linearGradient id="paint5_linear_10_1414" x1="54.5" y1="170.5" x2="67.5" y2="186" gradientUnits="userSpaceOnUse">
<stop stop-color="#FFE079"/>
<stop offset="0.44" stop-color="#D3AF37"/>
</linearGradient>
<linearGradient id="paint6_linear_10_1414" x1="181.5" y1="170.5" x2="194.5" y2="186" gradientUnits="userSpaceOnUse">
<stop stop-color="#FFE079"/>
<stop offset="0.44" stop-color="#D3AF37"/>
</linearGradient>
<linearGradient id="paint7_linear_10_1414" x1="59.5" y1="289.5" x2="72.5" y2="305" gradientUnits="userSpaceOnUse">
<stop stop-color="#FFE079"/>
<stop offset="0.44" stop-color="#D3AF37"/>
</linearGradient>
<linearGradient id="paint8_linear_10_1414" x1="218.75" y1="291.25" x2="225.25" y2="283.5" gradientUnits="userSpaceOnUse">
<stop stop-color="#FFE079"/>
<stop offset="0.44" stop-color="#D3AF37"/>
</linearGradient>
<clipPath id="clip0_10_1414">
<rect width="16" height="16" fill="white" transform="translate(24 58)"/>
</clipPath>
<clipPath id="clip1_10_1414">
<rect width="32" height="32" fill="white" transform="translate(50 42)"/>
</clipPath>
<clipPath id="clip2_10_1414">
<rect width="32" height="32" fill="white" transform="translate(172 280)"/>
</clipPath>
<clipPath id="clip3_10_1414">
<rect width="32" height="32" fill="white" transform="translate(172 42)"/>
</clipPath>
<clipPath id="clip4_10_1414">
<rect width="32" height="32" fill="white" transform="translate(45 161)"/>
</clipPath>
<clipPath id="clip5_10_1414">
<rect width="32" height="32" fill="white" transform="translate(172 161)"/>
</clipPath>
<clipPath id="clip6_10_1414">
<rect width="32" height="32" fill="white" transform="translate(50 280)"/>
</clipPath>
<clipPath id="clip7_10_1414">
<rect width="16" height="16" fill="white" transform="matrix(1 0 0 -1 214 296)"/>
</clipPath>
</defs>
</svg>
