<svg width="254" height="354" viewBox="0 0 254 354" fill="none" xmlns="http://www.w3.org/2000/svg">
<path d="M252 344C252 348.418 248.418 352 244 352H10C5.58173 352 2 348.418 2 344V10C2 5.58173 5.58173 2 10 2H244C248.418 2 252 5.58173 252 10V344Z" fill="url(#paint0_linear_10_1668)"/>
<path d="M252 344C252 348.418 248.418 352 244 352H10C5.58173 352 2 348.418 2 344V10C2 5.58173 5.58173 2 10 2H244C248.418 2 252 5.58173 252 10V344Z" stroke="#D3AF37" stroke-width="3"/>
<path d="M237.16 305.024H234.856C234.557 305.024 234.355 305.077 234.248 305.184C234.141 305.312 234.088 305.515 234.088 305.792V323.296H237.16V324.448H235.976C235.037 324.448 234.173 324.651 233.384 325.056C232.573 325.461 232.029 326.037 231.752 326.784H229.352V305.792C229.352 305.515 229.299 305.312 229.192 305.184C229.064 305.077 228.861 305.024 228.584 305.024H226.28V304H237.16V305.024ZM213.157 303.488C214.693 303.488 216.048 304.085 217.221 305.28C218.373 306.475 219.269 307.989 219.909 309.824C220.528 311.68 220.837 313.536 220.837 315.392C220.837 317.248 220.528 319.093 219.909 320.928C219.269 322.784 218.373 324.309 217.221 325.504C216.048 326.699 214.693 327.296 213.157 327.296C211.621 327.296 210.277 326.699 209.125 325.504C207.952 324.309 207.056 322.784 206.438 320.928C205.797 319.093 205.477 317.248 205.477 315.392C205.477 313.536 205.797 311.68 206.438 309.824C207.056 307.989 207.952 306.475 209.125 305.28C210.277 304.085 211.621 303.488 213.157 303.488ZM213.157 304.512C212.368 304.512 211.803 304.939 211.461 305.792C211.099 306.667 210.917 307.605 210.917 308.608V322.176C210.917 323.179 211.099 324.107 211.461 324.96C211.803 325.835 212.368 326.272 213.157 326.272C213.947 326.272 214.523 325.835 214.885 324.96C215.227 324.107 215.397 323.179 215.397 322.176V308.608C215.397 307.605 215.227 306.667 214.885 305.792C214.523 304.939 213.947 304.512 213.157 304.512Z" fill="#D3AF37"/>
<path d="M16.84 48.976H19.144C19.4427 48.976 19.6453 48.9227 19.752 48.816C19.8587 48.688 19.912 48.4853 19.912 48.208V30.704H16.84V29.552H18.024C18.9627 29.552 19.8267 29.3493 20.616 28.944C21.4267 28.5387 21.9707 27.9627 22.248 27.216H24.648V48.208C24.648 48.4853 24.7013 48.688 24.808 48.816C24.936 48.9227 25.1387 48.976 25.416 48.976H27.72V50H16.84V48.976ZM40.8425 50.512C39.3065 50.512 37.9518 49.9147 36.7785 48.72C35.6265 47.5253 34.7305 46.0107 34.0905 44.176C33.4718 42.32 33.1625 40.464 33.1625 38.608C33.1625 36.752 33.4718 34.9067 34.0905 33.072C34.7305 31.216 35.6265 29.6907 36.7785 28.496C37.9518 27.3013 39.3065 26.704 40.8425 26.704C42.3785 26.704 43.7225 27.3013 44.8745 28.496C46.0478 29.6907 46.9438 31.216 47.5625 33.072C48.2025 34.9067 48.5225 36.752 48.5225 38.608C48.5225 40.464 48.2025 42.32 47.5625 44.176C46.9438 46.0107 46.0478 47.5253 44.8745 48.72C43.7225 49.9147 42.3785 50.512 40.8425 50.512ZM40.8425 49.488C41.6318 49.488 42.1972 49.0613 42.5385 48.208C42.9012 47.3333 43.0825 46.3947 43.0825 45.392V31.824C43.0825 30.8213 42.9012 29.8933 42.5385 29.04C42.1972 28.1653 41.6318 27.728 40.8425 27.728C40.0532 27.728 39.4772 28.1653 39.1145 29.04C38.7732 29.8933 38.6025 30.8213 38.6025 31.824V45.392C38.6025 46.3947 38.7732 47.3333 39.1145 48.208C39.4772 49.0613 40.0532 49.488 40.8425 49.488Z" fill="#D3AF37"/>
<path d="M214 291.546C214 294.006 215.882 296 218.204 296C219.642 296 220.911 295.235 221.669 294.069L221.749 293.968C221.891 293.791 222.123 293.804 222.253 293.995C222.345 294.132 222.444 294.264 222.548 294.391L222.552 294.379C223.323 295.369 224.49 296 225.796 296C228.118 296 230 294.006 230 291.546C230 290.335 229.544 289.238 228.805 288.435L222.675 280.383C222.355 279.872 221.647 279.872 221.327 280.383L215.074 288.572C214.406 289.361 214 290.403 214 291.546Z" fill="url(#paint1_linear_10_1668)"/>
<path d="M172 303.092C172 308.012 175.764 312 180.408 312C183.283 312 185.821 310.47 187.337 308.137L187.498 307.936C187.782 307.581 188.246 307.608 188.506 307.991C188.69 308.264 188.888 308.528 189.097 308.782L189.104 308.758C190.646 310.738 192.98 312 195.592 312C200.236 312 204 308.012 204 303.092C204 300.671 203.088 298.476 201.609 296.871L189.35 280.766C188.71 279.745 187.294 279.745 186.654 280.766L174.148 297.145C172.813 298.722 172 300.806 172 303.092Z" fill="url(#paint2_linear_10_1668)"/>
<path d="M50 234.092C50 239.012 53.7643 243 58.4078 243C61.2833 243 63.8213 241.47 65.3373 239.137L65.498 238.936C65.7819 238.581 66.2462 238.608 66.5057 238.991C66.6905 239.264 66.8878 239.528 67.097 239.782L67.1041 239.758C68.6463 241.738 70.9801 243 73.5922 243C78.2357 243 82 239.012 82 234.092C82 231.671 81.0882 229.476 79.6093 227.871L67.3496 211.766C66.7098 210.745 65.2938 210.745 64.6541 211.766L52.1482 228.145C50.8127 229.722 50 231.806 50 234.092Z" fill="url(#paint3_linear_10_1668)"/>
<path d="M143 271.092C143 276.012 139.236 280 134.592 280C131.717 280 129.179 278.47 127.663 276.137L127.502 275.936C127.218 275.581 126.754 275.608 126.494 275.991C126.31 276.264 126.112 276.528 125.903 276.782L125.896 276.758C124.354 278.738 122.02 280 119.408 280C114.764 280 111 276.012 111 271.092C111 268.671 111.912 266.476 113.391 264.871L125.65 248.766C126.29 247.745 127.706 247.745 128.346 248.766L140.852 265.145C142.187 266.722 143 268.806 143 271.092Z" fill="url(#paint4_linear_10_1668)"/>
<path d="M143 82.9083C143 77.9884 139.236 74 134.592 74C131.717 74 129.179 75.5298 127.663 77.8628L127.502 78.0638C127.218 78.4188 126.754 78.3924 126.494 78.0093C126.31 77.7357 126.112 77.4717 125.903 77.2185L125.896 77.2421C124.354 75.2621 122.02 74 119.408 74C114.764 74 111 77.9884 111 82.9083C111 85.329 111.912 87.5238 113.391 89.1294L125.65 105.234C126.29 106.255 127.706 106.255 128.346 105.234L140.852 88.8551C142.187 87.278 143 85.1939 143 82.9083Z" fill="url(#paint5_linear_10_1668)"/>
<path d="M204 119.908C204 114.988 200.236 111 195.592 111C192.717 111 190.179 112.53 188.663 114.863L188.502 115.064C188.218 115.419 187.754 115.392 187.494 115.009C187.31 114.736 187.112 114.472 186.903 114.218L186.896 114.242C185.354 112.262 183.02 111 180.408 111C175.764 111 172 114.988 172 119.908C172 122.329 172.912 124.524 174.391 126.129L186.65 142.234C187.29 143.255 188.706 143.255 189.346 142.234L201.852 125.855C203.187 124.278 204 122.194 204 119.908Z" fill="url(#paint6_linear_10_1668)"/>
<path d="M82 119.908C82 114.988 78.2357 111 73.5922 111C70.7166 111 68.1787 112.53 66.6627 114.863L66.502 115.064C66.2181 115.419 65.7538 115.392 65.4943 115.009C65.3095 114.736 65.1122 114.472 64.903 114.218L64.8959 114.242C63.3537 112.262 61.0199 111 58.4078 111C53.7643 111 50 114.988 50 119.908C50 122.329 50.9118 124.524 52.3907 126.129L64.6504 142.234C65.2902 143.255 66.7062 143.255 67.3459 142.234L79.8518 125.855C81.1873 124.278 82 122.194 82 119.908Z" fill="url(#paint7_linear_10_1668)"/>
<path d="M172 234.092C172 239.012 175.764 243 180.408 243C183.283 243 185.821 241.47 187.337 239.137L187.498 238.936C187.782 238.581 188.246 238.608 188.506 238.991C188.69 239.264 188.888 239.528 189.097 239.782L189.104 239.758C190.646 241.738 192.98 243 195.592 243C200.236 243 204 239.012 204 234.092C204 231.671 203.088 229.476 201.609 227.871L189.35 211.766C188.71 210.745 187.294 210.745 186.654 211.766L174.148 228.145C172.813 229.722 172 231.806 172 234.092Z" fill="url(#paint8_linear_10_1668)"/>
<path d="M50 303.092C50 308.012 53.7643 312 58.4078 312C61.2833 312 63.8213 310.47 65.3373 308.137L65.498 307.936C65.7819 307.581 66.2462 307.608 66.5057 307.991C66.6905 308.264 66.8878 308.528 67.097 308.782L67.1041 308.758C68.6463 310.738 70.9801 312 73.5922 312C78.2357 312 82 308.012 82 303.092C82 300.671 81.0882 298.476 79.6093 296.871L67.3496 280.766C66.7098 279.745 65.2938 279.745 64.6541 280.766L52.1482 297.145C50.8127 298.722 50 300.806 50 303.092Z" fill="url(#paint9_linear_10_1668)"/>
<path d="M40 62.4541C40 59.9942 38.1178 58 35.7961 58C34.3583 58 33.0894 58.7649 32.3313 59.9314L32.251 60.0319C32.109 60.2094 31.8769 60.1962 31.7472 60.0047C31.6548 59.8678 31.5561 59.7359 31.4515 59.6092L31.4479 59.621C30.6769 58.631 29.51 58 28.2039 58C25.8822 58 24 59.9942 24 62.4541C24 63.6645 24.4559 64.7619 25.1954 65.5647L31.3252 73.6168C31.6451 74.1277 32.3531 74.1277 32.673 73.6168L38.9259 65.4276C39.5936 64.639 40 63.597 40 62.4541Z" fill="url(#paint10_linear_10_1668)"/>
<path d="M82 50.9083C82 45.9884 78.2357 42 73.5922 42C70.7167 42 68.1787 43.5298 66.6627 45.8628L66.502 46.0638C66.2181 46.4188 65.7538 46.3924 65.4943 46.0093C65.3095 45.7357 65.1122 45.4717 64.903 45.2185L64.8959 45.2421C63.3537 43.2621 61.0199 42 58.4078 42C53.7643 42 50 45.9884 50 50.9083C50 53.329 50.9118 55.5238 52.3907 57.1294L64.6504 73.2337C65.2902 74.2554 66.7062 74.2554 67.3459 73.2337L79.8518 56.8551C81.1873 55.278 82 53.1939 82 50.9083Z" fill="url(#paint11_linear_10_1668)"/>
<path d="M204 50.9083C204 45.9884 200.236 42 195.592 42C192.717 42 190.179 43.5298 188.663 45.8628L188.502 46.0638C188.218 46.4188 187.754 46.3924 187.494 46.0093C187.31 45.7357 187.112 45.4717 186.903 45.2185L186.896 45.2421C185.354 43.2621 183.02 42 180.408 42C175.764 42 172 45.9884 172 50.9083C172 53.329 172.912 55.5238 174.391 57.1294L186.65 73.2337C187.29 74.2554 188.706 74.2554 189.346 73.2337L201.852 56.8551C203.187 55.278 204 53.1939 204 50.9083Z" fill="url(#paint12_linear_10_1668)"/>
<defs>
<linearGradient id="paint0_linear_10_1668" x1="1.99999" y1="1.99998" x2="248.5" y2="349" gradientUnits="userSpaceOnUse">
<stop stop-color="#3F3E3E"/>
<stop offset="1"/>
</linearGradient>
<linearGradient id="paint1_linear_10_1668" x1="214" y1="296" x2="230" y2="280" gradientUnits="userSpaceOnUse">
<stop offset="0.403551" stop-color="#D3AF37"/>
<stop offset="1" stop-color="#FFE079"/>
</linearGradient>
<linearGradient id="paint2_linear_10_1668" x1="172" y1="312" x2="204" y2="280" gradientUnits="userSpaceOnUse">
<stop offset="0.403551" stop-color="#D3AF37"/>
<stop offset="1" stop-color="#FFE079"/>
</linearGradient>
<linearGradient id="paint3_linear_10_1668" x1="50" y1="243" x2="82" y2="211" gradientUnits="userSpaceOnUse">
<stop offset="0.403551" stop-color="#D3AF37"/>
<stop offset="1" stop-color="#FFE079"/>
</linearGradient>
<linearGradient id="paint4_linear_10_1668" x1="143" y1="280" x2="111" y2="248" gradientUnits="userSpaceOnUse">
<stop offset="0.403551" stop-color="#D3AF37"/>
<stop offset="1" stop-color="#FFE079"/>
</linearGradient>
<linearGradient id="paint5_linear_10_1668" x1="117.907" y1="83.5008" x2="129.552" y2="102.922" gradientUnits="userSpaceOnUse">
<stop stop-color="#FFE079"/>
<stop offset="0.44" stop-color="#D3AF37"/>
</linearGradient>
<linearGradient id="paint6_linear_10_1668" x1="178.907" y1="120.501" x2="190.552" y2="139.922" gradientUnits="userSpaceOnUse">
<stop stop-color="#FFE079"/>
<stop offset="0.44" stop-color="#D3AF37"/>
</linearGradient>
<linearGradient id="paint7_linear_10_1668" x1="56.9073" y1="120.501" x2="68.5517" y2="139.922" gradientUnits="userSpaceOnUse">
<stop stop-color="#FFE079"/>
<stop offset="0.44" stop-color="#D3AF37"/>
</linearGradient>
<linearGradient id="paint8_linear_10_1668" x1="172" y1="243" x2="204" y2="211" gradientUnits="userSpaceOnUse">
<stop offset="0.403551" stop-color="#D3AF37"/>
<stop offset="1" stop-color="#FFE079"/>
</linearGradient>
<linearGradient id="paint9_linear_10_1668" x1="50" y1="312" x2="82" y2="280" gradientUnits="userSpaceOnUse">
<stop offset="0.403551" stop-color="#D3AF37"/>
<stop offset="1" stop-color="#FFE079"/>
</linearGradient>
<linearGradient id="paint10_linear_10_1668" x1="27.4536" y1="62.7504" x2="33.2758" y2="72.4612" gradientUnits="userSpaceOnUse">
<stop stop-color="#FFE079"/>
<stop offset="0.44" stop-color="#D3AF37"/>
</linearGradient>
<linearGradient id="paint11_linear_10_1668" x1="56.9073" y1="51.5008" x2="68.5517" y2="70.9223" gradientUnits="userSpaceOnUse">
<stop stop-color="#FFE079"/>
<stop offset="0.44" stop-color="#D3AF37"/>
</linearGradient>
<linearGradient id="paint12_linear_10_1668" x1="178.907" y1="51.5008" x2="190.552" y2="70.9223" gradientUnits="userSpaceOnUse">
<stop stop-color="#FFE079"/>
<stop offset="0.44" stop-color="#D3AF37"/>
</linearGradient>
</defs>
</svg>
