<svg width="254" height="354" viewBox="0 0 254 354" fill="none" xmlns="http://www.w3.org/2000/svg">
<path d="M2 10C2 5.58172 5.58172 2 10 2H244C248.418 2 252 5.58172 252 10V344C252 348.418 248.418 352 244 352H10C5.58172 352 2 348.418 2 344V10Z" fill="url(#paint0_linear_10_1608)"/>
<path d="M2 10C2 5.58172 5.58172 2 10 2H244C248.418 2 252 5.58172 252 10V344C252 348.418 248.418 352 244 352H10C5.58172 352 2 348.418 2 344V10Z" stroke="#D3AF37" stroke-width="3"/>
<path d="M30.544 50.512C29.3493 50.512 28.2827 50.2987 27.344 49.872C26.4267 49.424 25.712 48.8267 25.2 48.08C24.688 47.312 24.432 46.48 24.432 45.584C24.432 44.9227 24.5813 44.336 24.88 43.824C25.2 43.2907 25.5947 42.8853 26.064 42.608C26.5547 42.3093 27.0453 42.16 27.536 42.16C28.2187 42.16 28.7413 42.3733 29.104 42.8C29.4667 43.2053 29.648 43.6853 29.648 44.24C29.648 45.0933 29.1893 45.7547 28.272 46.224C27.632 46.4587 27.312 46.9067 27.312 47.568C27.312 48.0587 27.5787 48.5067 28.112 48.912C28.6667 49.296 29.4453 49.488 30.448 49.488C31.664 49.488 32.4533 48.9013 32.816 47.728C33.2 46.5547 33.392 44.9547 33.392 42.928C33.392 41.392 33.3067 40.176 33.136 39.28C32.9653 38.3627 32.656 37.68 32.208 37.232C31.76 36.784 31.12 36.56 30.288 36.56C29.8827 36.56 29.4027 36.7093 28.848 37.008C28.2933 37.2853 27.7813 37.68 27.312 38.192C26.864 38.6827 26.5653 39.2267 26.416 39.824H25.584V27.504L26.224 27.088C27.5467 27.8987 29.0187 28.304 30.64 28.304C31.472 28.304 32.3893 28.1653 33.392 27.888C34.416 27.5893 35.312 27.1947 36.08 26.704L36.656 27.28C35.5253 28.9653 34.096 30.2133 32.368 31.024C30.6613 31.8133 28.8267 32.208 26.864 32.208V37.2L27.056 37.264C27.632 36.6667 28.2507 36.2293 28.912 35.952C29.5733 35.6747 30.32 35.536 31.152 35.536C32.624 35.536 33.9147 35.8347 35.024 36.432C36.1333 37.0293 36.9867 37.8827 37.584 38.992C38.2027 40.1013 38.512 41.3813 38.512 42.832C38.512 44.3893 38.1493 45.7547 37.424 46.928C36.6987 48.08 35.728 48.9653 34.512 49.584C33.296 50.2027 31.9733 50.512 30.544 50.512Z" fill="#D3AF37"/>
<path d="M223.456 307.488C224.651 307.488 225.717 307.701 226.656 308.128C227.573 308.576 228.288 309.173 228.8 309.92C229.312 310.688 229.568 311.52 229.568 312.416C229.568 313.077 229.419 313.664 229.12 314.176C228.8 314.709 228.405 315.115 227.936 315.392C227.445 315.691 226.955 315.84 226.464 315.84C225.781 315.84 225.259 315.627 224.896 315.2C224.533 314.795 224.352 314.315 224.352 313.76C224.352 312.907 224.811 312.245 225.728 311.776C226.368 311.541 226.688 311.093 226.688 310.432C226.688 309.941 226.421 309.493 225.888 309.088C225.333 308.704 224.555 308.512 223.552 308.512C222.336 308.512 221.547 309.099 221.184 310.272C220.8 311.445 220.608 313.045 220.608 315.072C220.608 316.608 220.693 317.824 220.864 318.72C221.035 319.637 221.344 320.32 221.792 320.768C222.24 321.216 222.88 321.44 223.712 321.44C224.117 321.44 224.597 321.291 225.152 320.992C225.707 320.715 226.219 320.32 226.688 319.808C227.136 319.317 227.435 318.773 227.584 318.176H228.416V330.496L227.776 330.912C226.453 330.101 224.981 329.696 223.36 329.696C222.528 329.696 221.611 329.835 220.608 330.112C219.584 330.411 218.688 330.805 217.92 331.296L217.344 330.72C218.475 329.035 219.904 327.787 221.632 326.976C223.339 326.187 225.173 325.792 227.136 325.792V320.8L226.944 320.736C226.368 321.333 225.749 321.771 225.088 322.048C224.427 322.325 223.68 322.464 222.848 322.464C221.376 322.464 220.085 322.165 218.976 321.568C217.867 320.971 217.013 320.117 216.416 319.008C215.797 317.899 215.488 316.619 215.488 315.168C215.488 313.611 215.851 312.245 216.576 311.072C217.301 309.92 218.272 309.035 219.488 308.416C220.704 307.797 222.027 307.488 223.456 307.488Z" fill="#D3AF37"/>
<path d="M40 62.4541C40 59.9942 38.1178 58 35.7961 58C34.3583 58 33.0894 58.7649 32.3313 59.9314L32.251 60.0319C32.109 60.2094 31.8769 60.1962 31.7472 60.0047C31.6548 59.8678 31.5561 59.7359 31.4515 59.6092L31.4479 59.621C30.6769 58.631 29.51 58 28.2039 58C25.8822 58 24 59.9942 24 62.4541C24 63.6645 24.4559 64.7619 25.1954 65.5647L31.3252 73.6168C31.6451 74.1277 32.3531 74.1277 32.673 73.6168L38.9259 65.4276C39.5936 64.639 40 63.597 40 62.4541Z" fill="url(#paint1_linear_10_1608)"/>
<path d="M82 50.9083C82 45.9884 78.2357 42 73.5922 42C70.7167 42 68.1787 43.5298 66.6627 45.8628L66.502 46.0638C66.2181 46.4188 65.7538 46.3924 65.4943 46.0093C65.3095 45.7357 65.1122 45.4717 64.903 45.2185L64.8959 45.2421C63.3537 43.2621 61.0199 42 58.4078 42C53.7643 42 50 45.9884 50 50.9083C50 53.329 50.9118 55.5238 52.3907 57.1294L64.6504 73.2337C65.2902 74.2554 66.7062 74.2554 67.3459 73.2337L79.8518 56.8551C81.1873 55.278 82 53.1939 82 50.9083Z" fill="url(#paint2_linear_10_1608)"/>
<path d="M143 169.908C143 164.988 139.236 161 134.592 161C131.717 161 129.179 162.53 127.663 164.863L127.502 165.064C127.218 165.419 126.754 165.392 126.494 165.009C126.31 164.736 126.112 164.472 125.903 164.218L125.896 164.242C124.354 162.262 122.02 161 119.408 161C114.764 161 111 164.988 111 169.908C111 172.329 111.912 174.524 113.391 176.129L125.65 192.234C126.29 193.255 127.706 193.255 128.346 192.234L140.852 175.855C142.187 174.278 143 172.194 143 169.908Z" fill="url(#paint3_linear_10_1608)"/>
<path d="M204 50.9083C204 45.9884 200.236 42 195.592 42C192.717 42 190.179 43.5298 188.663 45.8628L188.502 46.0638C188.218 46.4188 187.754 46.3924 187.494 46.0093C187.31 45.7357 187.112 45.4717 186.903 45.2185L186.896 45.2421C185.354 43.2621 183.02 42 180.408 42C175.764 42 172 45.9884 172 50.9083C172 53.329 172.912 55.5238 174.391 57.1294L186.65 73.2337C187.29 74.2554 188.706 74.2554 189.346 73.2337L201.852 56.8551C203.187 55.278 204 53.1939 204 50.9083Z" fill="url(#paint4_linear_10_1608)"/>
<path d="M214 291.546C214 294.006 215.882 296 218.204 296C219.642 296 220.911 295.235 221.669 294.069L221.749 293.968C221.891 293.791 222.123 293.804 222.253 293.995C222.345 294.132 222.444 294.264 222.548 294.391L222.552 294.379C223.323 295.369 224.49 296 225.796 296C228.118 296 230 294.006 230 291.546C230 290.335 229.544 289.238 228.805 288.435L222.675 280.383C222.355 279.872 221.647 279.872 221.327 280.383L215.074 288.572C214.406 289.361 214 290.403 214 291.546Z" fill="url(#paint5_linear_10_1608)"/>
<path d="M204 303.092C204 308.012 200.236 312 195.592 312C192.717 312 190.179 310.47 188.663 308.137L188.502 307.936C188.218 307.581 187.754 307.608 187.494 307.991C187.31 308.264 187.112 308.528 186.903 308.782L186.896 308.758C185.354 310.738 183.02 312 180.408 312C175.764 312 172 308.012 172 303.092C172 300.671 172.912 298.476 174.391 296.871L186.65 280.766C187.29 279.745 188.706 279.745 189.346 280.766L201.852 297.145C203.187 298.722 204 300.806 204 303.092Z" fill="url(#paint6_linear_10_1608)"/>
<path d="M82 303.092C82 308.012 78.2357 312 73.5922 312C70.7167 312 68.1787 310.47 66.6627 308.137L66.502 307.936C66.2181 307.581 65.7538 307.608 65.4943 307.991C65.3095 308.264 65.1122 308.528 64.903 308.782L64.8959 308.758C63.3537 310.738 61.0199 312 58.4078 312C53.7643 312 50 308.012 50 303.092C50 300.671 50.9118 298.476 52.3907 296.871L64.6504 280.766C65.2902 279.745 66.7062 279.745 67.3459 280.766L79.8518 297.145C81.1873 298.722 82 300.806 82 303.092Z" fill="url(#paint7_linear_10_1608)"/>
<defs>
<linearGradient id="paint0_linear_10_1608" x1="252" y1="352" x2="5.5" y2="5.00002" gradientUnits="userSpaceOnUse">
<stop/>
<stop offset="1" stop-color="#3F3E3E"/>
</linearGradient>
<linearGradient id="paint1_linear_10_1608" x1="27.4536" y1="62.7504" x2="33.2758" y2="72.4612" gradientUnits="userSpaceOnUse">
<stop stop-color="#FFE079"/>
<stop offset="0.44" stop-color="#D3AF37"/>
</linearGradient>
<linearGradient id="paint2_linear_10_1608" x1="56.9073" y1="51.5008" x2="68.5517" y2="70.9223" gradientUnits="userSpaceOnUse">
<stop stop-color="#FFE079"/>
<stop offset="0.44" stop-color="#D3AF37"/>
</linearGradient>
<linearGradient id="paint3_linear_10_1608" x1="117.907" y1="170.501" x2="129.552" y2="189.922" gradientUnits="userSpaceOnUse">
<stop stop-color="#FFE079"/>
<stop offset="0.44" stop-color="#D3AF37"/>
</linearGradient>
<linearGradient id="paint4_linear_10_1608" x1="178.907" y1="51.5008" x2="190.552" y2="70.9223" gradientUnits="userSpaceOnUse">
<stop stop-color="#FFE079"/>
<stop offset="0.44" stop-color="#D3AF37"/>
</linearGradient>
<linearGradient id="paint5_linear_10_1608" x1="214" y1="296" x2="230" y2="280" gradientUnits="userSpaceOnUse">
<stop offset="0.403551" stop-color="#D3AF37"/>
<stop offset="1" stop-color="#FFE079"/>
</linearGradient>
<linearGradient id="paint6_linear_10_1608" x1="204" y1="312" x2="172" y2="280" gradientUnits="userSpaceOnUse">
<stop offset="0.403551" stop-color="#D3AF37"/>
<stop offset="1" stop-color="#FFE079"/>
</linearGradient>
<linearGradient id="paint7_linear_10_1608" x1="82" y1="312" x2="50" y2="280" gradientUnits="userSpaceOnUse">
<stop offset="0.403551" stop-color="#D3AF37"/>
<stop offset="1" stop-color="#FFE079"/>
</linearGradient>
</defs>
</svg>
