<svg width="254" height="354" viewBox="0 0 254 354" fill="none" xmlns="http://www.w3.org/2000/svg">
<path d="M2 10C2 5.58172 5.58172 2 10 2H244C248.418 2 252 5.58172 252 10V344C252 348.418 248.418 352 244 352H10C5.58172 352 2 348.418 2 344V10Z" fill="url(#paint0_linear_10_1539)"/>
<path d="M2 10C2 5.58172 5.58172 2 10 2H244C248.418 2 252 5.58172 252 10V344C252 348.418 248.418 352 244 352H10C5.58172 352 2 348.418 2 344V10Z" stroke="#D3AF37" stroke-width="3"/>
<path d="M35.848 46.576C34.8027 46.576 33.8427 46.3627 32.968 45.936C32.1147 45.5093 31.432 44.8907 30.92 44.08C30.408 43.248 30.152 42.2453 30.152 41.072C30.152 40.3253 30.2907 39.6747 30.568 39.12C30.8453 38.544 31.208 38.1067 31.656 37.808C32.104 37.488 32.5627 37.328 33.032 37.328C33.7147 37.328 34.2587 37.552 34.664 38C35.0907 38.4267 35.304 38.9387 35.304 39.536C35.304 40.2613 35.112 40.848 34.728 41.296C34.344 41.7227 33.8853 42.032 33.352 42.224C32.9893 42.352 32.7227 42.5227 32.552 42.736C32.4027 42.928 32.328 43.2053 32.328 43.568C32.328 43.8453 32.456 44.144 32.712 44.464C32.9893 44.784 33.3627 45.0507 33.832 45.264C34.3227 45.456 34.8667 45.552 35.464 45.552C37.0853 45.552 37.896 44.3147 37.896 41.84V25.008C37.896 24.7093 37.8427 24.5067 37.736 24.4C37.6293 24.2933 37.4267 24.24 37.128 24.24H34.568V23.216H45.384V24.24H43.4C43.1227 24.24 42.92 24.2933 42.792 24.4C42.6853 24.5067 42.632 24.7093 42.632 25.008V39.792C42.632 41.1787 42.3013 42.384 41.64 43.408C40.9787 44.432 40.1253 45.2213 39.08 45.776C38.056 46.3093 36.9787 46.576 35.848 46.576Z" fill="#D3AF37"/>
<path d="M119.392 237.304C115.211 237.304 111.371 236.451 107.872 234.744C104.459 233.037 101.728 230.563 99.68 227.32C97.632 223.992 96.608 219.981 96.608 215.288C96.608 212.301 97.1627 209.699 98.272 207.48C99.3813 205.176 100.832 203.427 102.624 202.232C104.416 200.952 106.251 200.312 108.128 200.312C110.859 200.312 113.035 201.208 114.656 203C116.363 204.707 117.216 206.755 117.216 209.144C117.216 212.045 116.448 214.392 114.912 216.184C113.376 217.891 111.541 219.128 109.408 219.896C107.957 220.408 106.891 221.091 106.208 221.944C105.611 222.712 105.312 223.821 105.312 225.272C105.312 226.381 105.824 227.576 106.848 228.856C107.957 230.136 109.451 231.203 111.328 232.056C113.291 232.824 115.467 233.208 117.856 233.208C124.341 233.208 127.584 228.259 127.584 218.36V151.032C127.584 149.837 127.371 149.027 126.944 148.6C126.517 148.173 125.707 147.96 124.512 147.96H114.272V143.864H157.536V147.96H149.6C148.491 147.96 147.68 148.173 147.168 148.6C146.741 149.027 146.528 149.837 146.528 151.032V210.168C146.528 215.715 145.205 220.536 142.56 224.632C139.915 228.728 136.501 231.885 132.32 234.104C128.224 236.237 123.915 237.304 119.392 237.304Z" fill="url(#paint1_linear_10_1539)"/>
<path d="M218.152 307.424C219.197 307.424 220.157 307.637 221.032 308.064C221.885 308.491 222.568 309.109 223.08 309.92C223.592 310.752 223.848 311.755 223.848 312.928C223.848 313.675 223.709 314.325 223.432 314.88C223.155 315.456 222.792 315.893 222.344 316.192C221.896 316.512 221.437 316.672 220.968 316.672C220.285 316.672 219.741 316.448 219.336 316C218.909 315.573 218.696 315.061 218.696 314.464C218.696 313.739 218.888 313.152 219.272 312.704C219.656 312.277 220.115 311.968 220.648 311.776C221.011 311.648 221.277 311.477 221.448 311.264C221.597 311.072 221.672 310.795 221.672 310.432C221.672 310.155 221.544 309.856 221.288 309.536C221.011 309.216 220.637 308.949 220.168 308.736C219.677 308.544 219.133 308.448 218.536 308.448C216.915 308.448 216.104 309.685 216.104 312.16V328.992C216.104 329.291 216.157 329.493 216.264 329.6C216.371 329.707 216.573 329.76 216.872 329.76H219.432V330.784H208.616V329.76H210.6C210.877 329.76 211.08 329.707 211.208 329.6C211.315 329.493 211.368 329.291 211.368 328.992V314.208C211.368 312.821 211.699 311.616 212.36 310.592C213.021 309.568 213.875 308.779 214.92 308.224C215.944 307.691 217.021 307.424 218.152 307.424Z" fill="#D3AF37"/>
<line x1="61" y1="37.5" x2="216" y2="37.5" stroke="#D3AF37"/>
<line x1="216.5" y1="37" x2="216.5" y2="260" stroke="#D3AF37"/>
<line x1="193" y1="316.5" x2="38" y2="316.5" stroke="#D3AF37"/>
<line x1="37.5" y1="317" x2="37.5" y2="94" stroke="#D3AF37"/>
<path d="M54 66.9083C54 61.9884 50.2357 58 45.5922 58C42.7166 58 40.1787 59.5298 38.6627 61.8628L38.502 62.0638C38.2181 62.4188 37.7538 62.3924 37.4943 62.0093C37.3095 61.7357 37.1122 61.4717 36.903 61.2185L36.8959 61.2421C35.3537 59.2621 33.0199 58 30.4078 58C25.7643 58 22 61.9884 22 66.9083C22 69.329 22.9118 71.5238 24.3907 73.1294L36.6504 89.2337C37.2902 90.2555 38.7062 90.2555 39.3459 89.2337L51.8518 72.8551C53.1873 71.278 54 69.1939 54 66.9083Z" fill="url(#paint2_linear_10_1539)"/>
<path d="M232 287.092C232 292.012 228.236 296 223.592 296C220.717 296 218.179 294.47 216.663 292.137L216.502 291.936C216.218 291.581 215.754 291.608 215.494 291.991C215.31 292.264 215.112 292.528 214.903 292.782L214.896 292.758C213.354 294.738 211.02 296 208.408 296C203.764 296 200 292.012 200 287.092C200 284.671 200.912 282.476 202.391 280.871L214.65 264.766C215.29 263.745 216.706 263.745 217.346 264.766L229.852 281.145C231.187 282.722 232 284.806 232 287.092Z" fill="url(#paint3_linear_10_1539)"/>
<path d="M159 104.294C159 102.281 157.367 100.649 155.354 100.649C153.34 100.649 151.707 102.281 151.707 104.294C151.707 105.278 152.098 106.17 152.732 106.825C150.252 111.961 145.512 113.754 141.838 112.131C138.565 110.684 137.358 106.547 136.95 103.342C138.284 102.64 139.194 101.243 139.194 99.6299C139.194 97.314 137.317 95.4375 135 95.4375C132.684 95.4375 130.806 97.314 130.806 99.6299C130.806 101.243 131.716 102.64 133.05 103.342C132.642 106.547 131.435 110.684 128.162 112.131C124.488 113.754 119.748 111.961 117.268 106.825C117.902 106.17 118.294 105.278 118.294 104.294C118.294 102.281 116.66 100.649 114.648 100.649C112.633 100.649 111 102.281 111 104.294C111 106.148 112.386 107.676 114.176 107.908L118.378 123.29H151.622L155.824 107.908C157.616 107.676 159 106.148 159 104.294Z" fill="url(#paint4_linear_10_1539)"/>
<path d="M153.658 129.85C153.658 131.348 152.443 132.563 150.943 132.563H119.057C117.558 132.562 116.344 131.348 116.344 129.85V129.624C116.344 128.124 117.558 126.91 119.057 126.91H150.943C152.443 126.91 153.658 128.124 153.658 129.624V129.85Z" fill="url(#paint5_linear_10_1539)"/>
<defs>
<linearGradient id="paint0_linear_10_1539" x1="252" y1="352" x2="5.5" y2="5.00002" gradientUnits="userSpaceOnUse">
<stop/>
<stop offset="1" stop-color="#3F3E3E"/>
</linearGradient>
<linearGradient id="paint1_linear_10_1539" x1="95.5354" y1="143" x2="183.527" y2="203.893" gradientUnits="userSpaceOnUse">
<stop offset="0.116628" stop-color="#FFE079"/>
<stop offset="0.423834" stop-color="#D3AF37"/>
</linearGradient>
<linearGradient id="paint2_linear_10_1539" x1="28.9073" y1="67.5008" x2="40.5517" y2="86.9223" gradientUnits="userSpaceOnUse">
<stop stop-color="#FFE079"/>
<stop offset="0.44" stop-color="#D3AF37"/>
</linearGradient>
<linearGradient id="paint3_linear_10_1539" x1="232" y1="296" x2="200" y2="264" gradientUnits="userSpaceOnUse">
<stop offset="0.403551" stop-color="#D3AF37"/>
<stop offset="1" stop-color="#FFE079"/>
</linearGradient>
<linearGradient id="paint4_linear_10_1539" x1="113.424" y1="99.1394" x2="124.245" y2="128.268" gradientUnits="userSpaceOnUse">
<stop offset="0.116628" stop-color="#FFE079"/>
<stop offset="0.423834" stop-color="#D3AF37"/>
</linearGradient>
<linearGradient id="paint5_linear_10_1539" x1="118.228" y1="127.661" x2="118.875" y2="134.326" gradientUnits="userSpaceOnUse">
<stop offset="0.116628" stop-color="#FFE079"/>
<stop offset="0.423834" stop-color="#D3AF37"/>
</linearGradient>
</defs>
</svg>
