<svg width="254" height="354" viewBox="0 0 254 354" fill="none" xmlns="http://www.w3.org/2000/svg">
<path d="M2 10C2 5.58172 5.58172 2 10 2H244C248.418 2 252 5.58172 252 10V344C252 348.418 248.418 352 244 352H10C5.58172 352 2 348.418 2 344V10Z" fill="url(#paint0_linear_10_1641)"/>
<path d="M2 10C2 5.58172 5.58172 2 10 2H244C248.418 2 252 5.58172 252 10V344C252 348.418 248.418 352 244 352H10C5.58172 352 2 348.418 2 344V10Z" stroke="#D3AF37" stroke-width="3"/>
<path d="M31.152 50.512C29.9573 50.512 28.784 50.2773 27.632 49.808C26.5013 49.3387 25.5733 48.6667 24.848 47.792C24.144 46.896 23.792 45.8507 23.792 44.656C23.792 43.312 24.1867 42.1707 24.976 41.232C25.7653 40.2933 26.6613 39.6107 27.664 39.184V39.12C25.3813 37.776 24.24 35.8453 24.24 33.328C24.24 31.92 24.6027 30.7147 25.328 29.712C26.0747 28.7093 27.0133 27.9627 28.144 27.472C29.296 26.96 30.4693 26.704 31.664 26.704C33.072 26.704 34.2453 26.9707 35.184 27.504C36.144 28.0373 36.8373 28.6987 37.264 29.488C37.712 30.2773 37.936 31.0453 37.936 31.792C37.936 32.8587 37.5947 33.8293 36.912 34.704C36.2507 35.5787 35.4613 36.2507 34.544 36.72V36.848L35.152 37.168C36.4107 37.7867 37.4027 38.6293 38.128 39.696C38.8533 40.7627 39.216 41.84 39.216 42.928C39.216 44.3147 38.9067 45.584 38.288 46.736C37.6693 47.888 36.752 48.8053 35.536 49.488C34.32 50.1707 32.8587 50.512 31.152 50.512ZM33.648 36.368C34.5013 36.0267 35.1733 35.4507 35.664 34.64C36.1547 33.808 36.4 32.912 36.4 31.952C36.4 31.0773 36.176 30.32 35.728 29.68C35.28 29.04 34.704 28.56 34 28.24C33.3173 27.8987 32.6133 27.728 31.888 27.728C30.736 27.728 29.6587 28.0053 28.656 28.56C27.6747 29.1147 27.184 29.9893 27.184 31.184C27.184 32.0373 27.376 32.688 27.76 33.136C28.144 33.584 28.7093 33.9893 29.456 34.352L33.648 36.368ZM32.016 49.488C32.9547 49.488 33.7867 49.3173 34.512 48.976C35.2373 48.6133 35.792 48.144 36.176 47.568C36.5813 46.992 36.784 46.3733 36.784 45.712C36.784 44.8587 36.5173 44.1547 35.984 43.6C35.4507 43.0453 34.7573 42.5547 33.904 42.128L28.592 39.504C27.7387 39.9733 27.088 40.5387 26.64 41.2C26.192 41.84 25.968 42.8213 25.968 44.144C25.968 45.5093 26.3093 46.5973 26.992 47.408C27.696 48.1973 28.5067 48.7413 29.424 49.04C30.3627 49.3387 31.2267 49.488 32.016 49.488Z" fill="#D3AF37"/>
<path d="M222.848 307.488C224.043 307.488 225.216 307.723 226.368 308.192C227.499 308.661 228.427 309.333 229.152 310.208C229.856 311.104 230.208 312.149 230.208 313.344C230.208 314.688 229.813 315.829 229.024 316.768C228.235 317.707 227.339 318.389 226.336 318.816V318.88C228.619 320.224 229.76 322.155 229.76 324.672C229.76 326.08 229.397 327.285 228.672 328.288C227.925 329.291 226.987 330.037 225.856 330.528C224.704 331.04 223.531 331.296 222.336 331.296C220.928 331.296 219.755 331.029 218.816 330.496C217.856 329.963 217.163 329.301 216.736 328.512C216.288 327.723 216.064 326.955 216.064 326.208C216.064 325.141 216.405 324.171 217.088 323.296C217.749 322.421 218.539 321.749 219.456 321.28V321.152L218.848 320.832C217.589 320.213 216.597 319.371 215.872 318.304C215.147 317.237 214.784 316.16 214.784 315.072C214.784 313.685 215.093 312.416 215.712 311.264C216.331 310.112 217.248 309.195 218.464 308.512C219.68 307.829 221.141 307.488 222.848 307.488ZM220.352 321.632C219.499 321.973 218.827 322.549 218.336 323.36C217.845 324.192 217.6 325.088 217.6 326.048C217.6 326.923 217.824 327.68 218.272 328.32C218.72 328.96 219.296 329.44 220 329.76C220.683 330.101 221.387 330.272 222.112 330.272C223.264 330.272 224.341 329.995 225.344 329.44C226.325 328.885 226.816 328.011 226.816 326.816C226.816 325.963 226.624 325.312 226.24 324.864C225.856 324.416 225.291 324.011 224.544 323.648L220.352 321.632ZM221.984 308.512C221.045 308.512 220.213 308.683 219.488 309.024C218.763 309.387 218.208 309.856 217.824 310.432C217.419 311.008 217.216 311.627 217.216 312.288C217.216 313.141 217.483 313.845 218.016 314.4C218.549 314.955 219.243 315.445 220.096 315.872L225.408 318.496C226.261 318.027 226.912 317.461 227.36 316.8C227.808 316.16 228.032 315.179 228.032 313.856C228.032 312.491 227.691 311.403 227.008 310.592C226.304 309.803 225.493 309.259 224.576 308.96C223.637 308.661 222.773 308.512 221.984 308.512Z" fill="#D3AF37"/>
<path d="M40 62.4541C40 59.9942 38.1178 58 35.7961 58C34.3583 58 33.0894 58.7649 32.3313 59.9314L32.251 60.0319C32.109 60.2094 31.8769 60.1962 31.7472 60.0047C31.6548 59.8678 31.5561 59.7359 31.4515 59.6092L31.4479 59.621C30.6769 58.631 29.51 58 28.2039 58C25.8822 58 24 59.9942 24 62.4541C24 63.6645 24.4559 64.7619 25.1954 65.5647L31.3252 73.6168C31.6451 74.1277 32.3531 74.1277 32.673 73.6168L38.9259 65.4276C39.5936 64.639 40 63.597 40 62.4541Z" fill="url(#paint1_linear_10_1641)"/>
<path d="M82 50.9083C82 45.9884 78.2357 42 73.5922 42C70.7167 42 68.1787 43.5298 66.6627 45.8628L66.502 46.0638C66.2181 46.4188 65.7538 46.3924 65.4943 46.0093C65.3095 45.7357 65.1122 45.4717 64.903 45.2185L64.8959 45.2421C63.3537 43.2621 61.0199 42 58.4078 42C53.7643 42 50 45.9884 50 50.9083C50 53.329 50.9118 55.5238 52.3907 57.1294L64.6504 73.2337C65.2902 74.2554 66.7062 74.2554 67.3459 73.2337L79.8518 56.8551C81.1873 55.278 82 53.1939 82 50.9083Z" fill="url(#paint2_linear_10_1641)"/>
<path d="M204 169.908C204 164.988 200.236 161 195.592 161C192.717 161 190.179 162.53 188.663 164.863L188.502 165.064C188.218 165.419 187.754 165.392 187.494 165.009C187.31 164.736 187.112 164.472 186.903 164.218L186.896 164.242C185.354 162.262 183.02 161 180.408 161C175.764 161 172 164.988 172 169.908C172 172.329 172.912 174.524 174.391 176.129L186.65 192.234C187.29 193.255 188.706 193.255 189.346 192.234L201.852 175.855C203.187 174.278 204 172.194 204 169.908Z" fill="url(#paint3_linear_10_1641)"/>
<path d="M143 110.908C143 105.988 139.236 102 134.592 102C131.717 102 129.179 103.53 127.663 105.863L127.502 106.064C127.218 106.419 126.754 106.392 126.494 106.009C126.31 105.736 126.112 105.472 125.903 105.218L125.896 105.242C124.354 103.262 122.02 102 119.408 102C114.764 102 111 105.988 111 110.908C111 113.329 111.912 115.524 113.391 117.129L125.65 133.234C126.29 134.255 127.706 134.255 128.346 133.234L140.852 116.855C142.187 115.278 143 113.194 143 110.908Z" fill="url(#paint4_linear_10_1641)"/>
<path d="M143 243.092C143 248.012 139.236 252 134.592 252C131.717 252 129.179 250.47 127.663 248.137L127.502 247.936C127.218 247.581 126.754 247.608 126.494 247.991C126.31 248.264 126.112 248.528 125.903 248.782L125.896 248.758C124.354 250.738 122.02 252 119.408 252C114.764 252 111 248.012 111 243.092C111 240.671 111.912 238.476 113.391 236.871L125.65 220.766C126.29 219.745 127.706 219.745 128.346 220.766L140.852 237.145C142.187 238.722 143 240.806 143 243.092Z" fill="url(#paint5_linear_10_1641)"/>
<path d="M82 169.908C82 164.988 78.2357 161 73.5922 161C70.7166 161 68.1787 162.53 66.6627 164.863L66.502 165.064C66.2181 165.419 65.7538 165.392 65.4943 165.009C65.3095 164.736 65.1122 164.472 64.903 164.218L64.8959 164.242C63.3537 162.262 61.0199 161 58.4078 161C53.7643 161 50 164.988 50 169.908C50 172.329 50.9118 174.524 52.3907 176.129L64.6504 192.234C65.2902 193.255 66.7062 193.255 67.3459 192.234L79.8518 175.855C81.1873 174.278 82 172.194 82 169.908Z" fill="url(#paint6_linear_10_1641)"/>
<path d="M204 50.9083C204 45.9884 200.236 42 195.592 42C192.717 42 190.179 43.5298 188.663 45.8628L188.502 46.0638C188.218 46.4188 187.754 46.3924 187.494 46.0093C187.31 45.7357 187.112 45.4717 186.903 45.2185L186.896 45.2421C185.354 43.2621 183.02 42 180.408 42C175.764 42 172 45.9884 172 50.9083C172 53.329 172.912 55.5238 174.391 57.1294L186.65 73.2337C187.29 74.2554 188.706 74.2554 189.346 73.2337L201.852 56.8551C203.187 55.278 204 53.1939 204 50.9083Z" fill="url(#paint7_linear_10_1641)"/>
<path d="M214 291.546C214 294.006 215.882 296 218.204 296C219.642 296 220.911 295.235 221.669 294.069L221.749 293.968C221.891 293.791 222.123 293.804 222.253 293.995C222.345 294.132 222.444 294.264 222.548 294.391L222.552 294.379C223.323 295.369 224.49 296 225.796 296C228.118 296 230 294.006 230 291.546C230 290.335 229.544 289.238 228.805 288.435L222.675 280.383C222.355 279.872 221.647 279.872 221.327 280.383L215.074 288.572C214.406 289.361 214 290.403 214 291.546Z" fill="url(#paint8_linear_10_1641)"/>
<path d="M204 303.092C204 308.012 200.236 312 195.592 312C192.717 312 190.179 310.47 188.663 308.137L188.502 307.936C188.218 307.581 187.754 307.608 187.494 307.991C187.31 308.264 187.112 308.528 186.903 308.782L186.896 308.758C185.354 310.738 183.02 312 180.408 312C175.764 312 172 308.012 172 303.092C172 300.671 172.912 298.476 174.391 296.871L186.65 280.766C187.29 279.745 188.706 279.745 189.346 280.766L201.852 297.145C203.187 298.722 204 300.806 204 303.092Z" fill="url(#paint9_linear_10_1641)"/>
<path d="M82 303.092C82 308.012 78.2357 312 73.5922 312C70.7167 312 68.1787 310.47 66.6627 308.137L66.502 307.936C66.2181 307.581 65.7538 307.608 65.4943 307.991C65.3095 308.264 65.1122 308.528 64.903 308.782L64.8959 308.758C63.3537 310.738 61.0199 312 58.4078 312C53.7643 312 50 308.012 50 303.092C50 300.671 50.9118 298.476 52.3907 296.871L64.6504 280.766C65.2902 279.745 66.7062 279.745 67.3459 280.766L79.8518 297.145C81.1873 298.722 82 300.806 82 303.092Z" fill="url(#paint10_linear_10_1641)"/>
<defs>
<linearGradient id="paint0_linear_10_1641" x1="252" y1="352" x2="5.5" y2="5.00002" gradientUnits="userSpaceOnUse">
<stop/>
<stop offset="1" stop-color="#3F3E3E"/>
</linearGradient>
<linearGradient id="paint1_linear_10_1641" x1="27.4536" y1="62.7504" x2="33.2758" y2="72.4612" gradientUnits="userSpaceOnUse">
<stop stop-color="#FFE079"/>
<stop offset="0.44" stop-color="#D3AF37"/>
</linearGradient>
<linearGradient id="paint2_linear_10_1641" x1="56.9073" y1="51.5008" x2="68.5517" y2="70.9223" gradientUnits="userSpaceOnUse">
<stop stop-color="#FFE079"/>
<stop offset="0.44" stop-color="#D3AF37"/>
</linearGradient>
<linearGradient id="paint3_linear_10_1641" x1="178.907" y1="170.501" x2="190.552" y2="189.922" gradientUnits="userSpaceOnUse">
<stop stop-color="#FFE079"/>
<stop offset="0.44" stop-color="#D3AF37"/>
</linearGradient>
<linearGradient id="paint4_linear_10_1641" x1="117.907" y1="111.501" x2="129.552" y2="130.922" gradientUnits="userSpaceOnUse">
<stop stop-color="#FFE079"/>
<stop offset="0.44" stop-color="#D3AF37"/>
</linearGradient>
<linearGradient id="paint5_linear_10_1641" x1="143" y1="252" x2="111" y2="220" gradientUnits="userSpaceOnUse">
<stop offset="0.403551" stop-color="#D3AF37"/>
<stop offset="1" stop-color="#FFE079"/>
</linearGradient>
<linearGradient id="paint6_linear_10_1641" x1="56.9073" y1="170.501" x2="68.5517" y2="189.922" gradientUnits="userSpaceOnUse">
<stop stop-color="#FFE079"/>
<stop offset="0.44" stop-color="#D3AF37"/>
</linearGradient>
<linearGradient id="paint7_linear_10_1641" x1="178.907" y1="51.5008" x2="190.552" y2="70.9223" gradientUnits="userSpaceOnUse">
<stop stop-color="#FFE079"/>
<stop offset="0.44" stop-color="#D3AF37"/>
</linearGradient>
<linearGradient id="paint8_linear_10_1641" x1="214" y1="296" x2="230" y2="280" gradientUnits="userSpaceOnUse">
<stop offset="0.403551" stop-color="#D3AF37"/>
<stop offset="1" stop-color="#FFE079"/>
</linearGradient>
<linearGradient id="paint9_linear_10_1641" x1="204" y1="312" x2="172" y2="280" gradientUnits="userSpaceOnUse">
<stop offset="0.403551" stop-color="#D3AF37"/>
<stop offset="1" stop-color="#FFE079"/>
</linearGradient>
<linearGradient id="paint10_linear_10_1641" x1="82" y1="312" x2="50" y2="280" gradientUnits="userSpaceOnUse">
<stop offset="0.403551" stop-color="#D3AF37"/>
<stop offset="1" stop-color="#FFE079"/>
</linearGradient>
</defs>
</svg>
