<svg width="254" height="354" viewBox="0 0 254 354" fill="none" xmlns="http://www.w3.org/2000/svg">
<path d="M2 10C2 5.58172 5.58172 2 10 2H244C248.418 2 252 5.58172 252 10V344C252 348.418 248.418 352 244 352H10C5.58172 352 2 348.418 2 344V10Z" fill="url(#paint0_linear_10_1629)"/>
<path d="M2 10C2 5.58172 5.58172 2 10 2H244C248.418 2 252 5.58172 252 10V344C252 348.418 248.418 352 244 352H10C5.58172 352 2 348.418 2 344V10Z" stroke="#D3AF37" stroke-width="3"/>
<path d="M31.376 50.512C30.608 50.512 29.968 50.2133 29.456 49.616C28.9653 49.0187 28.72 48.208 28.72 47.184C28.72 45.904 29.0293 44.6987 29.648 43.568C30.288 42.4373 31.1733 41.2107 32.304 39.888C33.968 37.968 35.2053 36.3253 36.016 34.96C36.5493 34.0213 36.9333 33.0293 37.168 31.984L37.04 31.888C36.3787 32.4427 35.6427 32.72 34.832 32.72C33.9787 32.72 33.0507 32.528 32.048 32.144C31.152 31.8453 30.2773 31.696 29.424 31.696C28.5493 31.696 27.8347 31.92 27.28 32.368C26.7253 32.7947 26.4053 33.4667 26.32 34.384L26.16 36.304H25.008L25.744 27.216H26.896L26.736 29.328L26.864 29.392C28.1013 27.7707 29.456 26.96 30.928 26.96C31.5893 26.96 32.1333 27.1413 32.56 27.504C33.008 27.8453 33.456 28.336 33.904 28.976C34.3307 29.5947 34.7147 30.0747 35.056 30.416C35.3973 30.7573 35.7387 30.928 36.08 30.928C36.7627 30.928 37.104 30.608 37.104 29.968C37.104 29.584 36.8907 29.264 36.464 29.008C35.9307 28.7093 35.664 28.3147 35.664 27.824C35.664 27.568 35.7493 27.3653 35.92 27.216C36.0907 27.0453 36.3253 26.96 36.624 26.96C37.1787 26.96 37.6267 27.28 37.968 27.92C38.3307 28.56 38.512 29.2213 38.512 29.904C38.512 31.2907 38.3093 32.56 37.904 33.712C37.4987 34.8427 36.8587 36.1227 35.984 37.552C35.1733 38.896 34.608 40.3893 34.288 42.032C33.9893 43.6533 33.84 45.3813 33.84 47.216C33.84 48.3253 33.616 49.1573 33.168 49.712C32.7413 50.2453 32.144 50.512 31.376 50.512Z" fill="#D3AF37"/>
<path d="M222.624 307.488C223.392 307.488 224.032 307.787 224.544 308.384C225.035 308.981 225.28 309.792 225.28 310.816C225.28 312.096 224.971 313.301 224.352 314.432C223.712 315.563 222.827 316.789 221.696 318.112C220.032 320.032 218.795 321.675 217.984 323.04C217.451 323.979 217.067 324.971 216.832 326.016L216.96 326.112C217.621 325.557 218.357 325.28 219.168 325.28C220.021 325.28 220.949 325.472 221.952 325.856C222.848 326.155 223.723 326.304 224.576 326.304C225.451 326.304 226.165 326.08 226.72 325.632C227.275 325.205 227.595 324.533 227.68 323.616L227.84 321.696H228.992L228.256 330.784H227.104L227.264 328.672L227.136 328.608C225.899 330.229 224.544 331.04 223.072 331.04C222.411 331.04 221.867 330.859 221.44 330.496C220.992 330.155 220.544 329.664 220.096 329.024C219.669 328.405 219.285 327.925 218.944 327.584C218.603 327.243 218.261 327.072 217.92 327.072C217.237 327.072 216.896 327.392 216.896 328.032C216.896 328.416 217.109 328.736 217.536 328.992C218.069 329.291 218.336 329.685 218.336 330.176C218.336 330.432 218.251 330.635 218.08 330.784C217.909 330.955 217.675 331.04 217.376 331.04C216.821 331.04 216.373 330.72 216.032 330.08C215.669 329.44 215.488 328.779 215.488 328.096C215.488 326.709 215.691 325.44 216.096 324.288C216.501 323.157 217.141 321.877 218.016 320.448C218.827 319.104 219.392 317.611 219.712 315.968C220.011 314.347 220.16 312.619 220.16 310.784C220.16 309.675 220.384 308.843 220.832 308.288C221.259 307.755 221.856 307.488 222.624 307.488Z" fill="#D3AF37"/>
<path d="M40 62.4541C40 59.9942 38.1178 58 35.7961 58C34.3583 58 33.0894 58.7649 32.3313 59.9314L32.251 60.0319C32.109 60.2094 31.8769 60.1962 31.7472 60.0047C31.6548 59.8678 31.5561 59.7359 31.4515 59.6092L31.4479 59.621C30.6769 58.631 29.51 58 28.2039 58C25.8822 58 24 59.9942 24 62.4541C24 63.6645 24.4559 64.7619 25.1954 65.5647L31.3252 73.6168C31.6451 74.1277 32.3531 74.1277 32.673 73.6168L38.9259 65.4276C39.5936 64.639 40 63.597 40 62.4541Z" fill="url(#paint1_linear_10_1629)"/>
<path d="M82 50.9083C82 45.9884 78.2357 42 73.5922 42C70.7167 42 68.1787 43.5298 66.6627 45.8628L66.502 46.0638C66.2181 46.4188 65.7538 46.3924 65.4943 46.0093C65.3095 45.7357 65.1122 45.4717 64.903 45.2185L64.8959 45.2421C63.3537 43.2621 61.0199 42 58.4078 42C53.7643 42 50 45.9884 50 50.9083C50 53.329 50.9118 55.5238 52.3907 57.1294L64.6504 73.2337C65.2902 74.2554 66.7062 74.2554 67.3459 73.2337L79.8518 56.8551C81.1873 55.278 82 53.1939 82 50.9083Z" fill="url(#paint2_linear_10_1629)"/>
<path d="M204 169.908C204 164.988 200.236 161 195.592 161C192.717 161 190.179 162.53 188.663 164.863L188.502 165.064C188.218 165.419 187.754 165.392 187.494 165.009C187.31 164.736 187.112 164.472 186.903 164.218L186.896 164.242C185.354 162.262 183.02 161 180.408 161C175.764 161 172 164.988 172 169.908C172 172.329 172.912 174.524 174.391 176.129L186.65 192.234C187.29 193.255 188.706 193.255 189.346 192.234L201.852 175.855C203.187 174.278 204 172.194 204 169.908Z" fill="url(#paint3_linear_10_1629)"/>
<path d="M143 110.908C143 105.988 139.236 102 134.592 102C131.717 102 129.179 103.53 127.663 105.863L127.502 106.064C127.218 106.419 126.754 106.392 126.494 106.009C126.31 105.736 126.112 105.472 125.903 105.218L125.896 105.242C124.354 103.262 122.02 102 119.408 102C114.764 102 111 105.988 111 110.908C111 113.329 111.912 115.524 113.391 117.129L125.65 133.234C126.29 134.255 127.706 134.255 128.346 133.234L140.852 116.855C142.187 115.278 143 113.194 143 110.908Z" fill="url(#paint4_linear_10_1629)"/>
<path d="M82 169.908C82 164.988 78.2357 161 73.5922 161C70.7167 161 68.1787 162.53 66.6627 164.863L66.502 165.064C66.2181 165.419 65.7538 165.392 65.4943 165.009C65.3095 164.736 65.1122 164.472 64.903 164.218L64.8959 164.242C63.3537 162.262 61.0199 161 58.4078 161C53.7643 161 50 164.988 50 169.908C50 172.329 50.9118 174.524 52.3907 176.129L64.6504 192.234C65.2902 193.255 66.7062 193.255 67.3459 192.234L79.8518 175.855C81.1873 174.278 82 172.194 82 169.908Z" fill="url(#paint5_linear_10_1629)"/>
<path d="M204 50.9083C204 45.9884 200.236 42 195.592 42C192.717 42 190.179 43.5298 188.663 45.8628L188.502 46.0638C188.218 46.4188 187.754 46.3924 187.494 46.0093C187.31 45.7357 187.112 45.4717 186.903 45.2185L186.896 45.2421C185.354 43.2621 183.02 42 180.408 42C175.764 42 172 45.9884 172 50.9083C172 53.329 172.912 55.5238 174.391 57.1294L186.65 73.2337C187.29 74.2554 188.706 74.2554 189.346 73.2337L201.852 56.8551C203.187 55.278 204 53.1939 204 50.9083Z" fill="url(#paint6_linear_10_1629)"/>
<path d="M230 291.546C230 294.006 228.118 296 225.796 296C224.358 296 223.089 295.235 222.331 294.069L222.251 293.968C222.109 293.791 221.877 293.804 221.747 293.995C221.655 294.132 221.556 294.264 221.452 294.391L221.448 294.379C220.677 295.369 219.51 296 218.204 296C215.882 296 214 294.006 214 291.546C214 290.335 214.456 289.238 215.195 288.435L221.325 280.383C221.645 279.872 222.353 279.872 222.673 280.383L228.926 288.572C229.594 289.361 230 290.403 230 291.546Z" fill="url(#paint7_linear_10_1629)"/>
<path d="M204 303.092C204 308.012 200.236 312 195.592 312C192.717 312 190.179 310.47 188.663 308.137L188.502 307.936C188.218 307.581 187.754 307.608 187.494 307.991C187.31 308.264 187.112 308.528 186.903 308.782L186.896 308.758C185.354 310.738 183.02 312 180.408 312C175.764 312 172 308.012 172 303.092C172 300.671 172.912 298.476 174.391 296.871L186.65 280.766C187.29 279.745 188.706 279.745 189.346 280.766L201.852 297.145C203.187 298.722 204 300.806 204 303.092Z" fill="url(#paint8_linear_10_1629)"/>
<path d="M82 303.092C82 308.012 78.2357 312 73.5922 312C70.7167 312 68.1787 310.47 66.6627 308.137L66.502 307.936C66.2181 307.581 65.7538 307.608 65.4943 307.991C65.3095 308.264 65.1122 308.528 64.903 308.782L64.8959 308.758C63.3537 310.738 61.0199 312 58.4078 312C53.7643 312 50 308.012 50 303.092C50 300.671 50.9118 298.476 52.3907 296.871L64.6504 280.766C65.2902 279.745 66.7062 279.745 67.3459 280.766L79.8518 297.145C81.1873 298.722 82 300.806 82 303.092Z" fill="url(#paint9_linear_10_1629)"/>
<defs>
<linearGradient id="paint0_linear_10_1629" x1="252" y1="352" x2="5.5" y2="5.00002" gradientUnits="userSpaceOnUse">
<stop/>
<stop offset="1" stop-color="#3F3E3E"/>
</linearGradient>
<linearGradient id="paint1_linear_10_1629" x1="27.4536" y1="62.7504" x2="33.2758" y2="72.4612" gradientUnits="userSpaceOnUse">
<stop stop-color="#FFE079"/>
<stop offset="0.44" stop-color="#D3AF37"/>
</linearGradient>
<linearGradient id="paint2_linear_10_1629" x1="56.9073" y1="51.5008" x2="68.5517" y2="70.9223" gradientUnits="userSpaceOnUse">
<stop stop-color="#FFE079"/>
<stop offset="0.44" stop-color="#D3AF37"/>
</linearGradient>
<linearGradient id="paint3_linear_10_1629" x1="178.907" y1="170.501" x2="190.552" y2="189.922" gradientUnits="userSpaceOnUse">
<stop stop-color="#FFE079"/>
<stop offset="0.44" stop-color="#D3AF37"/>
</linearGradient>
<linearGradient id="paint4_linear_10_1629" x1="117.907" y1="111.501" x2="129.552" y2="130.922" gradientUnits="userSpaceOnUse">
<stop stop-color="#FFE079"/>
<stop offset="0.44" stop-color="#D3AF37"/>
</linearGradient>
<linearGradient id="paint5_linear_10_1629" x1="56.9073" y1="170.501" x2="68.5517" y2="189.922" gradientUnits="userSpaceOnUse">
<stop stop-color="#FFE079"/>
<stop offset="0.44" stop-color="#D3AF37"/>
</linearGradient>
<linearGradient id="paint6_linear_10_1629" x1="178.907" y1="51.5008" x2="190.552" y2="70.9223" gradientUnits="userSpaceOnUse">
<stop stop-color="#FFE079"/>
<stop offset="0.44" stop-color="#D3AF37"/>
</linearGradient>
<linearGradient id="paint7_linear_10_1629" x1="230" y1="296" x2="214" y2="280" gradientUnits="userSpaceOnUse">
<stop offset="0.403551" stop-color="#D3AF37"/>
<stop offset="1" stop-color="#FFE079"/>
</linearGradient>
<linearGradient id="paint8_linear_10_1629" x1="204" y1="312" x2="172" y2="280" gradientUnits="userSpaceOnUse">
<stop offset="0.403551" stop-color="#D3AF37"/>
<stop offset="1" stop-color="#FFE079"/>
</linearGradient>
<linearGradient id="paint9_linear_10_1629" x1="82" y1="312" x2="50" y2="280" gradientUnits="userSpaceOnUse">
<stop offset="0.403551" stop-color="#D3AF37"/>
<stop offset="1" stop-color="#FFE079"/>
</linearGradient>
</defs>
</svg>
