<svg width="254" height="354" viewBox="0 0 254 354" fill="none" xmlns="http://www.w3.org/2000/svg">
<path d="M2 10C2 5.58172 5.58172 2 10 2H244C248.418 2 252 5.58172 252 10V344C252 348.418 248.418 352 244 352H10C5.58172 352 2 348.418 2 344V10Z" fill="url(#paint0_linear_10_1654)"/>
<path d="M2 10C2 5.58172 5.58172 2 10 2H244C248.418 2 252 5.58172 252 10V344C252 348.418 248.418 352 244 352H10C5.58172 352 2 348.418 2 344V10Z" stroke="#D3AF37" stroke-width="3"/>
<path d="M30.256 50.512C29.2533 50.512 28.3893 50.3093 27.664 49.904C26.9387 49.4773 26.384 48.9333 26 48.272C25.6373 47.6107 25.456 46.9067 25.456 46.16C25.456 45.2427 25.7227 44.464 26.256 43.824C26.7893 43.184 27.4827 42.864 28.336 42.864C28.976 42.864 29.488 43.0667 29.872 43.472C30.2773 43.856 30.48 44.368 30.48 45.008C30.48 45.9893 30 46.6507 29.04 46.992C28.6133 47.1413 28.2933 47.2907 28.08 47.44C27.8667 47.5893 27.76 47.7813 27.76 48.016C27.76 48.4427 27.984 48.7947 28.432 49.072C28.88 49.3493 29.4987 49.488 30.288 49.488C31.4827 49.488 32.3573 48.976 32.912 47.952C33.488 46.928 33.776 45.7013 33.776 44.272V39.696L33.584 39.6C33.2427 39.9413 32.7947 40.208 32.24 40.4C31.6853 40.5707 31.0987 40.656 30.48 40.656C28.3467 40.656 26.7467 40.0267 25.68 38.768C24.6347 37.5093 24.112 35.8987 24.112 33.936C24.112 32.72 24.3573 31.568 24.848 30.48C25.36 29.3707 26.1387 28.464 27.184 27.76C28.2507 27.056 29.5733 26.704 31.152 26.704C32.7307 26.704 34.096 27.216 35.248 28.24C36.4213 29.264 37.3173 30.64 37.936 32.368C38.576 34.096 38.896 35.9947 38.896 38.064C38.896 40.5173 38.544 42.6827 37.84 44.56C37.1573 46.4373 36.1653 47.8987 34.864 48.944C33.5627 49.9893 32.0267 50.512 30.256 50.512ZM30.896 39.44C32.048 39.44 32.8373 38.992 33.264 38.096C33.4773 37.6907 33.616 37.1253 33.68 36.4C33.744 35.6747 33.776 34.6933 33.776 33.456C33.776 31.5147 33.5733 30.0747 33.168 29.136C32.7627 28.1973 32.1013 27.728 31.184 27.728C30.4587 27.728 29.9253 27.984 29.584 28.496C29.264 28.9867 29.0613 29.6267 28.976 30.416C28.8907 31.184 28.848 32.2507 28.848 33.616C28.848 35.344 28.9867 36.752 29.264 37.84C29.5627 38.9067 30.1067 39.44 30.896 39.44Z" fill="#D3AF37"/>
<path d="M223.744 307.488C224.747 307.488 225.611 307.691 226.336 308.096C227.061 308.523 227.616 309.067 228 309.728C228.363 310.389 228.544 311.093 228.544 311.84C228.544 312.757 228.277 313.536 227.744 314.176C227.211 314.816 226.517 315.136 225.664 315.136C225.024 315.136 224.512 314.933 224.128 314.528C223.723 314.144 223.52 313.632 223.52 312.992C223.52 312.011 224 311.349 224.96 311.008C225.387 310.859 225.707 310.709 225.92 310.56C226.133 310.411 226.24 310.219 226.24 309.984C226.24 309.557 226.016 309.205 225.568 308.928C225.12 308.651 224.501 308.512 223.712 308.512C222.517 308.512 221.643 309.024 221.088 310.048C220.512 311.072 220.224 312.299 220.224 313.728V318.304L220.416 318.4C220.757 318.059 221.205 317.792 221.76 317.6C222.315 317.429 222.901 317.344 223.52 317.344C225.653 317.344 227.253 317.973 228.32 319.232C229.365 320.491 229.888 322.101 229.888 324.064C229.888 325.28 229.643 326.432 229.152 327.52C228.64 328.629 227.861 329.536 226.816 330.24C225.749 330.944 224.427 331.296 222.848 331.296C221.269 331.296 219.904 330.784 218.752 329.76C217.579 328.736 216.683 327.36 216.064 325.632C215.424 323.904 215.104 322.005 215.104 319.936C215.104 317.483 215.456 315.317 216.16 313.44C216.843 311.563 217.835 310.101 219.136 309.056C220.437 308.011 221.973 307.488 223.744 307.488ZM223.104 318.56C221.952 318.56 221.163 319.008 220.736 319.904C220.523 320.309 220.384 320.875 220.32 321.6C220.256 322.325 220.224 323.307 220.224 324.544C220.224 326.485 220.427 327.925 220.832 328.864C221.237 329.803 221.899 330.272 222.816 330.272C223.541 330.272 224.075 330.016 224.416 329.504C224.736 329.013 224.939 328.373 225.024 327.584C225.109 326.816 225.152 325.749 225.152 324.384C225.152 322.656 225.013 321.248 224.736 320.16C224.437 319.093 223.893 318.56 223.104 318.56Z" fill="#D3AF37"/>
<path d="M40 62.4541C40 59.9942 38.1178 58 35.7961 58C34.3583 58 33.0894 58.7649 32.3313 59.9314L32.251 60.0319C32.109 60.2094 31.8769 60.1962 31.7472 60.0047C31.6548 59.8678 31.5561 59.7359 31.4515 59.6092L31.4479 59.621C30.6769 58.631 29.51 58 28.2039 58C25.8822 58 24 59.9942 24 62.4541C24 63.6645 24.4559 64.7619 25.1954 65.5647L31.3252 73.6168C31.6451 74.1277 32.3531 74.1277 32.673 73.6168L38.9259 65.4276C39.5936 64.639 40 63.597 40 62.4541Z" fill="url(#paint1_linear_10_1654)"/>
<path d="M82 50.9083C82 45.9884 78.2357 42 73.5922 42C70.7167 42 68.1787 43.5298 66.6627 45.8628L66.502 46.0638C66.2181 46.4188 65.7538 46.3924 65.4943 46.0093C65.3095 45.7357 65.1122 45.4717 64.903 45.2185L64.8959 45.2421C63.3537 43.2621 61.0199 42 58.4078 42C53.7643 42 50 45.9884 50 50.9083C50 53.329 50.9118 55.5238 52.3907 57.1294L64.6504 73.2337C65.2902 74.2554 66.7062 74.2554 67.3459 73.2337L79.8518 56.8551C81.1873 55.278 82 53.1939 82 50.9083Z" fill="url(#paint2_linear_10_1654)"/>
<path d="M204 119.908C204 114.988 200.236 111 195.592 111C192.717 111 190.179 112.53 188.663 114.863L188.502 115.064C188.218 115.419 187.754 115.392 187.494 115.009C187.31 114.736 187.112 114.472 186.903 114.218L186.896 114.242C185.354 112.262 183.02 111 180.408 111C175.764 111 172 114.988 172 119.908C172 122.329 172.912 124.524 174.391 126.129L186.65 142.234C187.29 143.255 188.706 143.255 189.346 142.234L201.852 125.855C203.187 124.278 204 122.194 204 119.908Z" fill="url(#paint3_linear_10_1654)"/>
<path d="M143 169.908C143 164.988 139.236 161 134.592 161C131.717 161 129.179 162.53 127.663 164.863L127.502 165.064C127.218 165.419 126.754 165.392 126.494 165.009C126.31 164.736 126.112 164.472 125.903 164.218L125.896 164.242C124.354 162.262 122.02 161 119.408 161C114.764 161 111 164.988 111 169.908C111 172.329 111.912 174.524 113.391 176.129L125.65 192.234C126.29 193.255 127.706 193.255 128.346 192.234L140.852 175.855C142.187 174.278 143 172.194 143 169.908Z" fill="url(#paint4_linear_10_1654)"/>
<path d="M82 234.092C82 239.012 78.2357 243 73.5922 243C70.7166 243 68.1787 241.47 66.6627 239.137L66.502 238.936C66.2181 238.581 65.7538 238.608 65.4943 238.991C65.3095 239.264 65.1122 239.528 64.903 239.782L64.8959 239.758C63.3537 241.738 61.0199 243 58.4078 243C53.7643 243 50 239.012 50 234.092C50 231.671 50.9118 229.476 52.3907 227.871L64.6504 211.766C65.2902 210.745 66.7062 210.745 67.3459 211.766L79.8518 228.145C81.1873 229.722 82 231.806 82 234.092Z" fill="url(#paint5_linear_10_1654)"/>
<path d="M204 234.092C204 239.012 200.236 243 195.592 243C192.717 243 190.179 241.47 188.663 239.137L188.502 238.936C188.218 238.581 187.754 238.608 187.494 238.991C187.31 239.264 187.112 239.528 186.903 239.782L186.896 239.758C185.354 241.738 183.02 243 180.408 243C175.764 243 172 239.012 172 234.092C172 231.671 172.912 229.476 174.391 227.871L186.65 211.766C187.29 210.745 188.706 210.745 189.346 211.766L201.852 228.145C203.187 229.722 204 231.806 204 234.092Z" fill="url(#paint6_linear_10_1654)"/>
<path d="M82 119.908C82 114.988 78.2357 111 73.5922 111C70.7167 111 68.1787 112.53 66.6627 114.863L66.502 115.064C66.2181 115.419 65.7538 115.392 65.4943 115.009C65.3095 114.736 65.1122 114.472 64.903 114.218L64.8959 114.242C63.3537 112.262 61.0199 111 58.4078 111C53.7643 111 50 114.988 50 119.908C50 122.329 50.9118 124.524 52.3907 126.129L64.6504 142.234C65.2902 143.255 66.7062 143.255 67.3459 142.234L79.8518 125.855C81.1873 124.278 82 122.194 82 119.908Z" fill="url(#paint7_linear_10_1654)"/>
<path d="M204 50.9083C204 45.9884 200.236 42 195.592 42C192.717 42 190.179 43.5298 188.663 45.8628L188.502 46.0638C188.218 46.4188 187.754 46.3924 187.494 46.0093C187.31 45.7357 187.112 45.4717 186.903 45.2185L186.896 45.2421C185.354 43.2621 183.02 42 180.408 42C175.764 42 172 45.9884 172 50.9083C172 53.329 172.912 55.5238 174.391 57.1294L186.65 73.2337C187.29 74.2554 188.706 74.2554 189.346 73.2337L201.852 56.8551C203.187 55.278 204 53.1939 204 50.9083Z" fill="url(#paint8_linear_10_1654)"/>
<path d="M214 291.546C214 294.006 215.882 296 218.204 296C219.642 296 220.911 295.235 221.669 294.069L221.749 293.968C221.891 293.791 222.123 293.804 222.253 293.995C222.345 294.132 222.444 294.264 222.548 294.391L222.552 294.379C223.323 295.369 224.49 296 225.796 296C228.118 296 230 294.006 230 291.546C230 290.335 229.544 289.238 228.805 288.435L222.675 280.383C222.355 279.872 221.647 279.872 221.327 280.383L215.074 288.572C214.406 289.361 214 290.403 214 291.546Z" fill="url(#paint9_linear_10_1654)"/>
<path d="M204 303.092C204 308.012 200.236 312 195.592 312C192.717 312 190.179 310.47 188.663 308.137L188.502 307.936C188.218 307.581 187.754 307.608 187.494 307.991C187.31 308.264 187.112 308.528 186.903 308.782L186.896 308.758C185.354 310.738 183.02 312 180.408 312C175.764 312 172 308.012 172 303.092C172 300.671 172.912 298.476 174.391 296.871L186.65 280.766C187.29 279.745 188.706 279.745 189.346 280.766L201.852 297.145C203.187 298.722 204 300.806 204 303.092Z" fill="url(#paint10_linear_10_1654)"/>
<path d="M82 303.092C82 308.012 78.2357 312 73.5922 312C70.7167 312 68.1787 310.47 66.6627 308.137L66.502 307.936C66.2181 307.581 65.7538 307.608 65.4943 307.991C65.3095 308.264 65.1122 308.528 64.903 308.782L64.8959 308.758C63.3537 310.738 61.0199 312 58.4078 312C53.7643 312 50 308.012 50 303.092C50 300.671 50.9118 298.476 52.3907 296.871L64.6504 280.766C65.2902 279.745 66.7062 279.745 67.3459 280.766L79.8518 297.145C81.1873 298.722 82 300.806 82 303.092Z" fill="url(#paint11_linear_10_1654)"/>
<defs>
<linearGradient id="paint0_linear_10_1654" x1="252" y1="352" x2="5.5" y2="5.00002" gradientUnits="userSpaceOnUse">
<stop/>
<stop offset="1" stop-color="#3F3E3E"/>
</linearGradient>
<linearGradient id="paint1_linear_10_1654" x1="27.4536" y1="62.7504" x2="33.2758" y2="72.4612" gradientUnits="userSpaceOnUse">
<stop stop-color="#FFE079"/>
<stop offset="0.44" stop-color="#D3AF37"/>
</linearGradient>
<linearGradient id="paint2_linear_10_1654" x1="56.9073" y1="51.5008" x2="68.5517" y2="70.9223" gradientUnits="userSpaceOnUse">
<stop stop-color="#FFE079"/>
<stop offset="0.44" stop-color="#D3AF37"/>
</linearGradient>
<linearGradient id="paint3_linear_10_1654" x1="178.907" y1="120.501" x2="190.552" y2="139.922" gradientUnits="userSpaceOnUse">
<stop stop-color="#FFE079"/>
<stop offset="0.44" stop-color="#D3AF37"/>
</linearGradient>
<linearGradient id="paint4_linear_10_1654" x1="117.907" y1="170.501" x2="129.552" y2="189.922" gradientUnits="userSpaceOnUse">
<stop stop-color="#FFE079"/>
<stop offset="0.44" stop-color="#D3AF37"/>
</linearGradient>
<linearGradient id="paint5_linear_10_1654" x1="82" y1="243" x2="50" y2="211" gradientUnits="userSpaceOnUse">
<stop offset="0.403551" stop-color="#D3AF37"/>
<stop offset="1" stop-color="#FFE079"/>
</linearGradient>
<linearGradient id="paint6_linear_10_1654" x1="204" y1="243" x2="172" y2="211" gradientUnits="userSpaceOnUse">
<stop offset="0.403551" stop-color="#D3AF37"/>
<stop offset="1" stop-color="#FFE079"/>
</linearGradient>
<linearGradient id="paint7_linear_10_1654" x1="56.9073" y1="120.501" x2="68.5517" y2="139.922" gradientUnits="userSpaceOnUse">
<stop stop-color="#FFE079"/>
<stop offset="0.44" stop-color="#D3AF37"/>
</linearGradient>
<linearGradient id="paint8_linear_10_1654" x1="178.907" y1="51.5008" x2="190.552" y2="70.9223" gradientUnits="userSpaceOnUse">
<stop stop-color="#FFE079"/>
<stop offset="0.44" stop-color="#D3AF37"/>
</linearGradient>
<linearGradient id="paint9_linear_10_1654" x1="214" y1="296" x2="230" y2="280" gradientUnits="userSpaceOnUse">
<stop offset="0.403551" stop-color="#D3AF37"/>
<stop offset="1" stop-color="#FFE079"/>
</linearGradient>
<linearGradient id="paint10_linear_10_1654" x1="204" y1="312" x2="172" y2="280" gradientUnits="userSpaceOnUse">
<stop offset="0.403551" stop-color="#D3AF37"/>
<stop offset="1" stop-color="#FFE079"/>
</linearGradient>
<linearGradient id="paint11_linear_10_1654" x1="82" y1="312" x2="50" y2="280" gradientUnits="userSpaceOnUse">
<stop offset="0.403551" stop-color="#D3AF37"/>
<stop offset="1" stop-color="#FFE079"/>
</linearGradient>
</defs>
</svg>
