<svg width="254" height="354" viewBox="0 0 254 354" fill="none" xmlns="http://www.w3.org/2000/svg">
<path d="M2 10C2 5.58172 5.58172 2 10 2H244C248.418 2 252 5.58172 252 10V344C252 348.418 248.418 352 244 352H10C5.58172 352 2 348.418 2 344V10Z" fill="url(#paint0_linear_10_1591)"/>
<path d="M2 10C2 5.58172 5.58172 2 10 2H244C248.418 2 252 5.58172 252 10V344C252 348.418 248.418 352 244 352H10C5.58172 352 2 348.418 2 344V10Z" stroke="#D3AF37" stroke-width="3"/>
<path d="M30.096 50.512C28.2613 50.512 26.7467 50.064 25.552 49.168C24.3787 48.2507 23.792 47.024 23.792 45.488C23.792 44.6133 24.08 43.856 24.656 43.216C25.2533 42.5547 25.9893 42.224 26.864 42.224C27.5893 42.224 28.1653 42.4267 28.592 42.832C29.0187 43.2373 29.232 43.7387 29.232 44.336C29.232 45.3813 28.7413 46.1173 27.76 46.544C27.5253 46.6507 27.312 46.8 27.12 46.992C26.9493 47.184 26.864 47.3973 26.864 47.632C26.864 48.208 27.1413 48.6667 27.696 49.008C28.272 49.328 29.04 49.488 30 49.488C32.2613 49.488 33.392 47.6 33.392 43.824C33.392 42.0533 33.0827 40.7413 32.464 39.888C31.8453 39.0347 31.0773 38.608 30.16 38.608H26.928V37.456H30.096C31.0987 37.456 31.824 37.0827 32.272 36.336C32.7413 35.568 32.976 34.384 32.976 32.784C32.976 30.8427 32.7413 29.52 32.272 28.816C31.824 28.0907 31.1307 27.728 30.192 27.728C29.3813 27.728 28.688 27.9627 28.112 28.432C27.536 28.88 27.248 29.4667 27.248 30.192C27.248 30.6613 27.568 31.1093 28.208 31.536C28.9547 32.0267 29.328 32.6667 29.328 33.456C29.328 33.968 29.136 34.416 28.752 34.8C28.3893 35.184 27.888 35.376 27.248 35.376C26.4587 35.376 25.776 35.0667 25.2 34.448C24.6453 33.808 24.368 33.008 24.368 32.048C24.368 30.9813 24.6453 30.0427 25.2 29.232C25.7547 28.4213 26.5013 27.8027 27.44 27.376C28.4 26.928 29.4453 26.704 30.576 26.704C32.7307 26.704 34.4693 27.216 35.792 28.24C37.1147 29.264 37.776 30.6507 37.776 32.4C37.776 33.9147 37.2533 35.12 36.208 36.016C35.184 36.912 33.9573 37.5093 32.528 37.808V38.096C33.5307 38.1813 34.4907 38.4907 35.408 39.024C36.3253 39.536 37.072 40.2187 37.648 41.072C38.224 41.9253 38.512 42.8853 38.512 43.952C38.512 46.064 37.744 47.6853 36.208 48.816C34.6933 49.9467 32.656 50.512 30.096 50.512Z" fill="#D3AF37"/>
<path d="M223.904 307.488C225.739 307.488 227.253 307.936 228.448 308.832C229.621 309.749 230.208 310.976 230.208 312.512C230.208 313.387 229.92 314.144 229.344 314.784C228.747 315.445 228.011 315.776 227.136 315.776C226.411 315.776 225.835 315.573 225.408 315.168C224.981 314.763 224.768 314.261 224.768 313.664C224.768 312.619 225.259 311.883 226.24 311.456C226.475 311.349 226.688 311.2 226.88 311.008C227.051 310.816 227.136 310.603 227.136 310.368C227.136 309.792 226.859 309.333 226.304 308.992C225.728 308.672 224.96 308.512 224 308.512C221.739 308.512 220.608 310.4 220.608 314.176C220.608 315.947 220.917 317.259 221.536 318.112C222.155 318.965 222.923 319.392 223.84 319.392H227.072V320.544H223.904C222.901 320.544 222.176 320.917 221.728 321.664C221.259 322.432 221.024 323.616 221.024 325.216C221.024 327.157 221.259 328.48 221.728 329.184C222.176 329.909 222.869 330.272 223.808 330.272C224.619 330.272 225.312 330.037 225.888 329.568C226.464 329.12 226.752 328.533 226.752 327.808C226.752 327.339 226.432 326.891 225.792 326.464C225.045 325.973 224.672 325.333 224.672 324.544C224.672 324.032 224.864 323.584 225.248 323.2C225.611 322.816 226.112 322.624 226.752 322.624C227.541 322.624 228.224 322.933 228.8 323.552C229.355 324.192 229.632 324.992 229.632 325.952C229.632 327.019 229.355 327.957 228.8 328.768C228.245 329.579 227.499 330.197 226.56 330.624C225.6 331.072 224.555 331.296 223.424 331.296C221.269 331.296 219.531 330.784 218.208 329.76C216.885 328.736 216.224 327.349 216.224 325.6C216.224 324.085 216.747 322.88 217.792 321.984C218.816 321.088 220.043 320.491 221.472 320.192V319.904C220.469 319.819 219.509 319.509 218.592 318.976C217.675 318.464 216.928 317.781 216.352 316.928C215.776 316.075 215.488 315.115 215.488 314.048C215.488 311.936 216.256 310.315 217.792 309.184C219.307 308.053 221.344 307.488 223.904 307.488Z" fill="#D3AF37"/>
<path d="M40 62.4541C40 59.9942 38.1178 58 35.7961 58C34.3583 58 33.0894 58.7649 32.3313 59.9314L32.251 60.0319C32.109 60.2094 31.8769 60.1962 31.7472 60.0047C31.6548 59.8678 31.5561 59.7359 31.4515 59.6092L31.4479 59.621C30.6769 58.631 29.51 58 28.2039 58C25.8822 58 24 59.9942 24 62.4541C24 63.6645 24.4559 64.7619 25.1954 65.5647L31.3252 73.6168C31.6451 74.1277 32.3531 74.1277 32.673 73.6168L38.9259 65.4276C39.5936 64.639 40 63.597 40 62.4541Z" fill="url(#paint1_linear_10_1591)"/>
<path d="M143 50.9083C143 45.9884 139.236 42 134.592 42C131.717 42 129.179 43.5298 127.663 45.8628L127.502 46.0638C127.218 46.4188 126.754 46.3924 126.494 46.0093C126.31 45.7357 126.112 45.4717 125.903 45.2185L125.896 45.2421C124.354 43.2621 122.02 42 119.408 42C114.764 42 111 45.9884 111 50.9083C111 53.329 111.912 55.5238 113.391 57.1294L125.65 73.2337C126.29 74.2555 127.706 74.2555 128.346 73.2337L140.852 56.8551C142.187 55.278 143 53.1939 143 50.9083Z" fill="url(#paint2_linear_10_1591)"/>
<path d="M143 169.908C143 164.988 139.236 161 134.592 161C131.717 161 129.179 162.53 127.663 164.863L127.502 165.064C127.218 165.419 126.754 165.392 126.494 165.009C126.31 164.736 126.112 164.472 125.903 164.218L125.896 164.242C124.354 162.262 122.02 161 119.408 161C114.764 161 111 164.988 111 169.908C111 172.329 111.912 174.524 113.391 176.129L125.65 192.234C126.29 193.255 127.706 193.255 128.346 192.234L140.852 175.855C142.187 174.278 143 172.194 143 169.908Z" fill="url(#paint3_linear_10_1591)"/>
<path d="M214 291.546C214 294.006 215.882 296 218.204 296C219.642 296 220.911 295.235 221.669 294.069L221.749 293.968C221.891 293.791 222.123 293.804 222.253 293.995C222.345 294.132 222.444 294.264 222.548 294.391L222.552 294.379C223.323 295.369 224.49 296 225.796 296C228.118 296 230 294.006 230 291.546C230 290.335 229.544 289.238 228.805 288.435L222.675 280.383C222.355 279.872 221.647 279.872 221.327 280.383L215.074 288.572C214.406 289.361 214 290.403 214 291.546Z" fill="url(#paint4_linear_10_1591)"/>
<path d="M143 303.092C143 308.012 139.236 312 134.592 312C131.717 312 129.179 310.47 127.663 308.137L127.502 307.936C127.218 307.581 126.754 307.608 126.494 307.991C126.31 308.264 126.112 308.528 125.903 308.782L125.896 308.758C124.354 310.738 122.02 312 119.408 312C114.764 312 111 308.012 111 303.092C111 300.671 111.912 298.476 113.391 296.871L125.65 280.766C126.29 279.745 127.706 279.745 128.346 280.766L140.852 297.145C142.187 298.722 143 300.806 143 303.092Z" fill="url(#paint5_linear_10_1591)"/>
<defs>
<linearGradient id="paint0_linear_10_1591" x1="252" y1="352" x2="5.5" y2="5.00002" gradientUnits="userSpaceOnUse">
<stop/>
<stop offset="1" stop-color="#3F3E3E"/>
</linearGradient>
<linearGradient id="paint1_linear_10_1591" x1="27.4536" y1="62.7504" x2="33.2758" y2="72.4612" gradientUnits="userSpaceOnUse">
<stop stop-color="#FFE079"/>
<stop offset="0.44" stop-color="#D3AF37"/>
</linearGradient>
<linearGradient id="paint2_linear_10_1591" x1="117.907" y1="51.5008" x2="129.552" y2="70.9223" gradientUnits="userSpaceOnUse">
<stop stop-color="#FFE079"/>
<stop offset="0.44" stop-color="#D3AF37"/>
</linearGradient>
<linearGradient id="paint3_linear_10_1591" x1="117.907" y1="170.501" x2="129.552" y2="189.922" gradientUnits="userSpaceOnUse">
<stop stop-color="#FFE079"/>
<stop offset="0.44" stop-color="#D3AF37"/>
</linearGradient>
<linearGradient id="paint4_linear_10_1591" x1="214" y1="296" x2="230" y2="280" gradientUnits="userSpaceOnUse">
<stop offset="0.403551" stop-color="#D3AF37"/>
<stop offset="1" stop-color="#FFE079"/>
</linearGradient>
<linearGradient id="paint5_linear_10_1591" x1="143" y1="312" x2="111" y2="280" gradientUnits="userSpaceOnUse">
<stop offset="0.403551" stop-color="#D3AF37"/>
<stop offset="1" stop-color="#FFE079"/>
</linearGradient>
</defs>
</svg>
