<svg width="254" height="354" viewBox="0 0 254 354" fill="none" xmlns="http://www.w3.org/2000/svg">
<rect x="2" y="2" width="250" height="350" rx="8" fill="url(#paint0_linear_10_1529)"/>
<rect x="2" y="2" width="250" height="350" rx="8" stroke="#D3AF37" stroke-width="3"/>
<path d="M23.408 48.976H24.496C25.136 48.976 25.7013 48.7307 26.192 48.24C26.6827 47.728 27.056 47.1093 27.312 46.384L34.064 26.64H35.408L42.256 47.344C42.6187 48.432 43.248 48.976 44.144 48.976H45.424V50H34.192V48.976H36.496C36.752 48.976 36.9547 48.88 37.104 48.688C37.2747 48.4747 37.36 48.2293 37.36 47.952C37.36 47.7173 37.296 47.408 37.168 47.024L36.144 43.952H29.424L28.752 45.904C28.5173 46.5013 28.4 47.0453 28.4 47.536C28.4 47.92 28.5493 48.2613 28.848 48.56C29.168 48.8373 29.5733 48.976 30.064 48.976H31.568V50H23.408V48.976ZM29.84 42.768H35.76L32.848 33.968L29.84 42.768Z" fill="#D3AF37"/>
<path d="M230.592 305.024H229.504C228.864 305.024 228.299 305.269 227.808 305.76C227.317 306.272 226.944 306.891 226.688 307.616L219.936 327.36H218.592L211.744 306.656C211.381 305.568 210.752 305.024 209.856 305.024H208.576V304H219.808V305.024H217.504C217.248 305.024 217.045 305.12 216.896 305.312C216.725 305.525 216.64 305.771 216.64 306.048C216.64 306.283 216.704 306.592 216.832 306.976L217.856 310.048H224.576L225.248 308.096C225.483 307.499 225.6 306.955 225.6 306.464C225.6 306.08 225.451 305.739 225.152 305.44C224.832 305.163 224.427 305.024 223.936 305.024H222.432V304H230.592V305.024ZM224.16 311.232H218.24L221.152 320.032L224.16 311.232Z" fill="#D3AF37"/>
<line x1="61" y1="37.5" x2="216" y2="37.5" stroke="#D3AF37"/>
<line x1="216.5" y1="37" x2="216.5" y2="260" stroke="#D3AF37"/>
<line x1="193" y1="316.5" x2="38" y2="316.5" stroke="#D3AF37"/>
<line x1="37.5" y1="317" x2="37.5" y2="94" stroke="#D3AF37"/>
<path d="M54 66.9083C54 61.9884 50.2357 58 45.5922 58C42.7166 58 40.1787 59.5298 38.6627 61.8628L38.502 62.0638C38.2181 62.4188 37.7538 62.3924 37.4943 62.0093C37.3095 61.7357 37.1122 61.4717 36.903 61.2185L36.8959 61.2421C35.3537 59.2621 33.0199 58 30.4078 58C25.7643 58 22 61.9884 22 66.9083C22 69.329 22.9118 71.5238 24.3907 73.1294L36.6504 89.2337C37.2902 90.2555 38.7062 90.2555 39.3459 89.2337L51.8518 72.8551C53.1873 71.278 54 69.1939 54 66.9083Z" fill="url(#paint1_linear_10_1529)"/>
<path d="M232 287.092C232 292.012 228.236 296 223.592 296C220.717 296 218.179 294.47 216.663 292.137L216.502 291.936C216.218 291.581 215.754 291.608 215.494 291.991C215.31 292.264 215.112 292.528 214.903 292.782L214.896 292.758C213.354 294.738 211.02 296 208.408 296C203.764 296 200 292.012 200 287.092C200 284.671 200.912 282.476 202.391 280.871L214.65 264.766C215.29 263.745 216.706 263.745 217.346 264.766L229.852 281.145C231.187 282.722 232 284.806 232 287.092Z" fill="url(#paint2_linear_10_1529)"/>
<path d="M193 148.633C193 128.953 177.943 113 159.369 113C147.867 113 137.715 119.119 131.651 128.451L131.008 129.255C129.872 130.675 128.015 130.57 126.977 129.037C126.238 127.943 125.449 126.887 124.612 125.874L124.584 125.968C118.415 118.048 109.08 113 98.6313 113C80.0572 113 65 128.953 65 148.633C65 158.316 68.647 167.095 74.563 173.518L123.602 237.935C126.161 242.022 131.825 242.022 134.384 237.935L184.407 172.42C189.749 166.112 193 157.776 193 148.633Z" fill="url(#paint3_linear_10_1529)"/>
<defs>
<linearGradient id="paint0_linear_10_1529" x1="2" y1="2" x2="252" y2="352" gradientUnits="userSpaceOnUse">
<stop stop-color="#3F3E3E"/>
<stop offset="1"/>
</linearGradient>
<linearGradient id="paint1_linear_10_1529" x1="22" y1="58" x2="54" y2="90" gradientUnits="userSpaceOnUse">
<stop stop-color="#FFE079"/>
<stop offset="0.442228" stop-color="#D3AF37"/>
</linearGradient>
<linearGradient id="paint2_linear_10_1529" x1="232" y1="296" x2="200" y2="264" gradientUnits="userSpaceOnUse">
<stop offset="0.403551" stop-color="#D3AF37"/>
<stop offset="1" stop-color="#FFE079"/>
</linearGradient>
<linearGradient id="paint3_linear_10_1529" x1="92.6292" y1="151.003" x2="139.207" y2="228.689" gradientUnits="userSpaceOnUse">
<stop stop-color="#FFE079"/>
<stop offset="0.44" stop-color="#D3AF37"/>
</linearGradient>
</defs>
</svg>
