<svg width="254" height="354" viewBox="0 0 254 354" fill="none" xmlns="http://www.w3.org/2000/svg">
<path d="M252 344C252 348.418 248.418 352 244 352H10C5.58173 352 2 348.418 2 344V10C2 5.58173 5.58173 2 10 2H244C248.418 2 252 5.58173 252 10V344Z" fill="url(#paint0_linear_10_1599)"/>
<path d="M252 344C252 348.418 248.418 352 244 352H10C5.58173 352 2 348.418 2 344V10C2 5.58173 5.58173 2 10 2H244C248.418 2 252 5.58173 252 10V344Z" stroke="#D3AF37" stroke-width="3"/>
<path d="M227.2 305.024H224.128C223.829 305.024 223.627 305.077 223.52 305.184C223.413 305.312 223.36 305.515 223.36 305.792V310.528H230.4V311.712L221.984 326.816H218.624V311.68H215.168V310.528H218.624V305.792C218.624 305.515 218.571 305.312 218.464 305.184C218.336 305.077 218.133 305.024 217.856 305.024H215.552V304H227.2V305.024ZM228.8 311.68H223.36V321.408L228.8 311.68Z" fill="#D3AF37"/>
<path d="M26.8 44.976H29.872C30.1707 44.976 30.3733 44.9227 30.48 44.816C30.5867 44.688 30.64 44.4853 30.64 44.208V39.472H23.6V38.288L32.016 23.184H35.376V38.32H38.832V39.472H35.376V44.208C35.376 44.4853 35.4293 44.688 35.536 44.816C35.664 44.9227 35.8667 44.976 36.144 44.976H38.448V46H26.8V44.976ZM25.2 38.32H30.64V28.592L25.2 38.32Z" fill="#D3AF37"/>
<path d="M214 291.546C214 294.006 215.882 296 218.204 296C219.642 296 220.911 295.235 221.669 294.069L221.749 293.968C221.891 293.791 222.123 293.804 222.253 293.995C222.345 294.132 222.444 294.264 222.548 294.391L222.552 294.379C223.323 295.369 224.49 296 225.796 296C228.118 296 230 294.006 230 291.546C230 290.335 229.544 289.238 228.805 288.435L222.675 280.383C222.355 279.872 221.647 279.872 221.327 280.383L215.074 288.572C214.406 289.361 214 290.403 214 291.546Z" fill="url(#paint1_linear_10_1599)"/>
<path d="M172 303.092C172 308.012 175.764 312 180.408 312C183.283 312 185.821 310.47 187.337 308.137L187.498 307.936C187.782 307.581 188.246 307.608 188.506 307.991C188.69 308.264 188.888 308.528 189.097 308.782L189.104 308.758C190.646 310.738 192.98 312 195.592 312C200.236 312 204 308.012 204 303.092C204 300.671 203.088 298.476 201.609 296.871L189.35 280.766C188.71 279.745 187.294 279.745 186.654 280.766L174.148 297.145C172.813 298.722 172 300.806 172 303.092Z" fill="url(#paint2_linear_10_1599)"/>
<path d="M82 303.092C82 308.012 78.2357 312 73.5922 312C70.7167 312 68.1787 310.47 66.6627 308.137L66.502 307.936C66.2181 307.581 65.7538 307.608 65.4943 307.991C65.3095 308.264 65.1122 308.528 64.903 308.782L64.8959 308.758C63.3537 310.738 61.0199 312 58.4078 312C53.7643 312 50 308.012 50 303.092C50 300.671 50.9118 298.476 52.3907 296.871L64.6504 280.766C65.2902 279.745 66.7062 279.745 67.3459 280.766L79.8518 297.145C81.1873 298.722 82 300.806 82 303.092Z" fill="url(#paint3_linear_10_1599)"/>
<path d="M40 62.4541C40 59.9942 38.1178 58 35.7961 58C34.3583 58 33.0894 58.7649 32.3313 59.9314L32.251 60.0319C32.109 60.2094 31.8769 60.1962 31.7472 60.0047C31.6548 59.8678 31.5561 59.7359 31.4515 59.6092L31.4479 59.621C30.6769 58.631 29.51 58 28.2039 58C25.8822 58 24 59.9942 24 62.4541C24 63.6645 24.4559 64.7619 25.1954 65.5647L31.3252 73.6168C31.6451 74.1277 32.3531 74.1277 32.673 73.6168L38.9259 65.4276C39.5936 64.639 40 63.597 40 62.4541Z" fill="url(#paint4_linear_10_1599)"/>
<path d="M82 50.9083C82 45.9884 78.2357 42 73.5922 42C70.7167 42 68.1787 43.5298 66.6627 45.8628L66.502 46.0638C66.2181 46.4188 65.7538 46.3924 65.4943 46.0093C65.3095 45.7357 65.1122 45.4717 64.903 45.2185L64.8959 45.2421C63.3537 43.2621 61.0199 42 58.4078 42C53.7643 42 50 45.9884 50 50.9083C50 53.329 50.9118 55.5238 52.3907 57.1294L64.6504 73.2337C65.2902 74.2554 66.7062 74.2554 67.3459 73.2337L79.8518 56.8551C81.1873 55.278 82 53.1939 82 50.9083Z" fill="url(#paint5_linear_10_1599)"/>
<path d="M204 50.9083C204 45.9884 200.236 42 195.592 42C192.717 42 190.179 43.5298 188.663 45.8628L188.502 46.0638C188.218 46.4188 187.754 46.3924 187.494 46.0093C187.31 45.7357 187.112 45.4717 186.903 45.2185L186.896 45.2421C185.354 43.2621 183.02 42 180.408 42C175.764 42 172 45.9884 172 50.9083C172 53.329 172.912 55.5238 174.391 57.1294L186.65 73.2337C187.29 74.2554 188.706 74.2554 189.346 73.2337L201.852 56.8551C203.187 55.278 204 53.1939 204 50.9083Z" fill="url(#paint6_linear_10_1599)"/>
<defs>
<linearGradient id="paint0_linear_10_1599" x1="1.99999" y1="1.99998" x2="248.5" y2="349" gradientUnits="userSpaceOnUse">
<stop stop-color="#3F3E3E"/>
<stop offset="1"/>
</linearGradient>
<linearGradient id="paint1_linear_10_1599" x1="214" y1="296" x2="230" y2="280" gradientUnits="userSpaceOnUse">
<stop offset="0.403551" stop-color="#D3AF37"/>
<stop offset="1" stop-color="#FFE079"/>
</linearGradient>
<linearGradient id="paint2_linear_10_1599" x1="172" y1="312" x2="204" y2="280" gradientUnits="userSpaceOnUse">
<stop offset="0.403551" stop-color="#D3AF37"/>
<stop offset="1" stop-color="#FFE079"/>
</linearGradient>
<linearGradient id="paint3_linear_10_1599" x1="82" y1="312" x2="50" y2="280" gradientUnits="userSpaceOnUse">
<stop offset="0.403551" stop-color="#D3AF37"/>
<stop offset="1" stop-color="#FFE079"/>
</linearGradient>
<linearGradient id="paint4_linear_10_1599" x1="27.4536" y1="62.7504" x2="33.2758" y2="72.4612" gradientUnits="userSpaceOnUse">
<stop stop-color="#FFE079"/>
<stop offset="0.44" stop-color="#D3AF37"/>
</linearGradient>
<linearGradient id="paint5_linear_10_1599" x1="56.9073" y1="51.5008" x2="68.5517" y2="70.9223" gradientUnits="userSpaceOnUse">
<stop stop-color="#FFE079"/>
<stop offset="0.44" stop-color="#D3AF37"/>
</linearGradient>
<linearGradient id="paint6_linear_10_1599" x1="178.907" y1="51.5008" x2="190.552" y2="70.9223" gradientUnits="userSpaceOnUse">
<stop stop-color="#FFE079"/>
<stop offset="0.44" stop-color="#D3AF37"/>
</linearGradient>
</defs>
</svg>
