<svg width="254" height="354" viewBox="0 0 254 354" fill="none" xmlns="http://www.w3.org/2000/svg">
<path d="M2 10C2 5.58172 5.58172 2 10 2H244C248.418 2 252 5.58172 252 10V344C252 348.418 248.418 352 244 352H10C5.58172 352 2 348.418 2 344V10Z" fill="url(#paint0_linear_10_1567)"/>
<path d="M2 10C2 5.58172 5.58172 2 10 2H244C248.418 2 252 5.58172 252 10V344C252 348.418 248.418 352 244 352H10C5.58172 352 2 348.418 2 344V10Z" stroke="#D3AF37" stroke-width="3"/>
<path d="M26.984 44.976H29.224C29.5227 44.976 29.7253 44.9227 29.832 44.816C29.9387 44.688 29.992 44.4853 29.992 44.208V25.008C29.992 24.7093 29.9387 24.5067 29.832 24.4C29.7253 24.2933 29.5227 24.24 29.224 24.24H26.984V23.216H37.48V24.24H35.496C35.2187 24.24 35.016 24.2933 34.888 24.4C34.7813 24.5067 34.728 24.7093 34.728 25.008V34.48L40.904 27.312C41.2027 26.9707 41.4053 26.6827 41.512 26.448C41.64 26.192 41.704 25.904 41.704 25.584C41.704 25.2 41.5973 24.88 41.384 24.624C41.1707 24.368 40.8933 24.24 40.552 24.24H39.624V23.216H47.528V24.24H46.408C45.96 24.24 45.4907 24.4 45 24.72C44.5307 25.0187 44.1147 25.392 43.752 25.84L39.464 30.8L46.216 43.568C46.4933 44.1013 46.76 44.4747 47.016 44.688C47.272 44.88 47.6453 44.976 48.136 44.976H49V46H38.952V44.976H40.232C40.424 44.976 40.584 44.912 40.712 44.784C40.84 44.6347 40.904 44.4747 40.904 44.304C40.904 44.176 40.8827 44.0373 40.84 43.888C40.8187 43.7173 40.7867 43.5893 40.744 43.504L36.104 34.672L34.728 36.24V44.208C34.728 44.4853 34.7813 44.688 34.888 44.816C35.016 44.9227 35.2187 44.976 35.496 44.976H37.48V46H26.984V44.976Z" fill="#D3AF37"/>
<path d="M84.936 224.904H93.896C95.0907 224.904 95.9013 224.691 96.328 224.264C96.7547 223.752 96.968 222.941 96.968 221.832V145.032C96.968 143.837 96.7547 143.027 96.328 142.6C95.9013 142.173 95.0907 141.96 93.896 141.96H84.936V137.864H126.92V141.96H118.984C117.875 141.96 117.064 142.173 116.552 142.6C116.125 143.027 115.912 143.837 115.912 145.032V182.92L140.616 154.248C141.811 152.883 142.621 151.731 143.048 150.792C143.56 149.768 143.816 148.616 143.816 147.336C143.816 145.8 143.389 144.52 142.536 143.496C141.683 142.472 140.573 141.96 139.208 141.96H135.496V137.864H167.112V141.96H162.632C160.84 141.96 158.963 142.6 157 143.88C155.123 145.075 153.459 146.568 152.008 148.36L134.856 168.2L161.864 219.272C162.973 221.405 164.04 222.899 165.064 223.752C166.088 224.52 167.581 224.904 169.544 224.904H173V229H132.808V224.904H137.928C138.696 224.904 139.336 224.648 139.848 224.136C140.36 223.539 140.616 222.899 140.616 222.216C140.616 221.704 140.531 221.149 140.36 220.552C140.275 219.869 140.147 219.357 139.976 219.016L121.416 183.688L115.912 189.96V221.832C115.912 222.941 116.125 223.752 116.552 224.264C117.064 224.691 117.875 224.904 118.984 224.904H126.92V229H84.936V224.904Z" fill="url(#paint1_linear_10_1567)"/>
<path d="M226.016 309.024H223.776C223.477 309.024 223.275 309.077 223.168 309.184C223.061 309.312 223.008 309.515 223.008 309.792V328.992C223.008 329.291 223.061 329.493 223.168 329.6C223.275 329.707 223.477 329.76 223.776 329.76H226.016V330.784H215.52V329.76H217.504C217.781 329.76 217.984 329.707 218.112 329.6C218.219 329.493 218.272 329.291 218.272 328.992V319.52L212.096 326.688C211.797 327.029 211.595 327.317 211.488 327.552C211.36 327.808 211.296 328.096 211.296 328.416C211.296 328.8 211.403 329.12 211.616 329.376C211.829 329.632 212.107 329.76 212.448 329.76H213.376V330.784H205.472V329.76H206.592C207.04 329.76 207.509 329.6 208 329.28C208.469 328.981 208.885 328.608 209.248 328.16L213.536 323.2L206.784 310.432C206.507 309.899 206.24 309.525 205.984 309.312C205.728 309.12 205.355 309.024 204.864 309.024H204V308H214.048V309.024H212.768C212.576 309.024 212.416 309.088 212.288 309.216C212.16 309.365 212.096 309.525 212.096 309.696C212.096 309.824 212.117 309.963 212.16 310.112C212.181 310.283 212.213 310.411 212.256 310.496L216.896 319.328L218.272 317.76V309.792C218.272 309.515 218.219 309.312 218.112 309.184C217.984 309.077 217.781 309.024 217.504 309.024H215.52V308H226.016V309.024Z" fill="#D3AF37"/>
<line x1="61" y1="37.5" x2="216" y2="37.5" stroke="#D3AF37"/>
<line x1="216.5" y1="37" x2="216.5" y2="260" stroke="#D3AF37"/>
<line x1="193" y1="316.5" x2="38" y2="316.5" stroke="#D3AF37"/>
<line x1="37.5" y1="317" x2="37.5" y2="94" stroke="#D3AF37"/>
<path d="M54 66.9083C54 61.9884 50.2357 58 45.5922 58C42.7166 58 40.1787 59.5298 38.6627 61.8628L38.502 62.0638C38.2181 62.4188 37.7538 62.3924 37.4943 62.0093C37.3095 61.7357 37.1122 61.4717 36.903 61.2185L36.8959 61.2421C35.3537 59.2621 33.0199 58 30.4078 58C25.7643 58 22 61.9884 22 66.9083C22 69.329 22.9118 71.5238 24.3907 73.1294L36.6504 89.2337C37.2902 90.2555 38.7062 90.2555 39.3459 89.2337L51.8518 72.8551C53.1873 71.278 54 69.1939 54 66.9083Z" fill="url(#paint2_linear_10_1567)"/>
<path d="M232 287.092C232 292.012 228.236 296 223.592 296C220.717 296 218.179 294.47 216.663 292.137L216.502 291.936C216.218 291.581 215.754 291.608 215.494 291.991C215.31 292.264 215.112 292.528 214.903 292.782L214.896 292.758C213.354 294.738 211.02 296 208.408 296C203.764 296 200 292.012 200 287.092C200 284.671 200.912 282.476 202.391 280.871L214.65 264.766C215.29 263.745 216.706 263.745 217.346 264.766L229.852 281.145C231.187 282.722 232 284.806 232 287.092Z" fill="url(#paint3_linear_10_1567)"/>
<path d="M114.675 93.7051C115.884 93.7051 116.862 92.3098 116.862 90.5874C116.862 88.8651 115.884 87.4697 114.675 87.4697C113.468 87.4697 112.49 88.8651 112.49 90.5874C112.49 92.3098 113.468 93.7051 114.675 93.7051Z" fill="url(#paint4_linear_10_1567)"/>
<path d="M107.374 98.0521C107.374 96.3299 106.394 94.9346 105.187 94.9346C103.98 94.9346 103 96.3299 103 98.0521C103 99.7745 103.98 101.17 105.187 101.17C106.394 101.17 107.374 99.7745 107.374 98.0521Z" fill="url(#paint5_linear_10_1567)"/>
<path d="M139.325 93.7051C140.533 93.7051 141.512 92.3098 141.512 90.5874C141.512 88.8651 140.533 87.4697 139.325 87.4697C138.118 87.4697 137.139 88.8651 137.139 90.5874C137.139 92.3098 138.118 93.7051 139.325 93.7051Z" fill="url(#paint6_linear_10_1567)"/>
<path d="M148.814 94.9346C147.606 94.9346 146.627 96.3299 146.627 98.0521C146.627 99.7745 147.606 101.17 148.814 101.17C150.021 101.17 151 99.7745 151 98.0521C151 96.3299 150.021 94.9346 148.814 94.9346Z" fill="url(#paint7_linear_10_1567)"/>
<path d="M143.492 123.148H110.509V128H143.492V123.148Z" fill="url(#paint8_linear_10_1567)"/>
<path d="M140.518 106.272C137.337 103.155 139.127 95.2178 139.127 95.2178L137.309 94.4611C133.492 104.806 127.877 104.321 128.315 92.7596V89.0546H131.473V85.3049H128.315V80H125.685V85.3047H122.525V89.0545H125.685V92.7594C126.123 104.321 120.51 104.806 116.691 94.4609L114.875 95.2177C114.875 95.2177 116.663 103.155 113.483 106.272C110.302 109.39 107.518 101.737 107.518 101.737L105.73 102.87L110.7 119.878H143.3L148.27 102.871L146.481 101.738C146.481 101.738 143.699 109.39 140.518 106.272ZM119.017 112.697C118.149 112.697 117.445 111.694 117.445 110.456C117.445 109.219 118.149 108.217 119.017 108.217C119.884 108.217 120.588 109.219 120.588 110.456C120.588 111.694 119.884 112.697 119.017 112.697ZM127.001 111.577C126.133 111.577 125.429 110.574 125.429 109.336C125.429 108.1 126.133 107.097 127.001 107.097C127.868 107.097 128.571 108.1 128.571 109.336C128.571 110.574 127.868 111.577 127.001 111.577ZM134.984 112.697C134.116 112.697 133.414 111.694 133.414 110.456C133.414 109.219 134.116 108.217 134.984 108.217C135.852 108.217 136.555 109.219 136.555 110.456C136.555 111.694 135.852 112.697 134.984 112.697Z" fill="url(#paint9_linear_10_1567)"/>
<defs>
<linearGradient id="paint0_linear_10_1567" x1="252" y1="352" x2="5.5" y2="5.00002" gradientUnits="userSpaceOnUse">
<stop/>
<stop offset="1" stop-color="#3F3E3E"/>
</linearGradient>
<linearGradient id="paint1_linear_10_1567" x1="82" y1="137" x2="176" y2="229" gradientUnits="userSpaceOnUse">
<stop offset="0.116628" stop-color="#FFE079"/>
<stop offset="0.423834" stop-color="#D3AF37"/>
</linearGradient>
<linearGradient id="paint2_linear_10_1567" x1="23.6162" y1="62.2532" x2="40.9101" y2="89.2663" gradientUnits="userSpaceOnUse">
<stop offset="0.116628" stop-color="#FFE079"/>
<stop offset="0.423834" stop-color="#D3AF37"/>
</linearGradient>
<linearGradient id="paint3_linear_10_1567" x1="232" y1="296" x2="200" y2="264" gradientUnits="userSpaceOnUse">
<stop offset="0.403551" stop-color="#D3AF37"/>
<stop offset="1" stop-color="#FFE079"/>
</linearGradient>
<linearGradient id="paint4_linear_10_1567" x1="112.71" y1="88.2985" x2="116.406" y2="92.3463" gradientUnits="userSpaceOnUse">
<stop offset="0.116628" stop-color="#FFE079"/>
<stop offset="0.423834" stop-color="#D3AF37"/>
</linearGradient>
<linearGradient id="paint5_linear_10_1567" x1="103.221" y1="95.7633" x2="106.916" y2="99.8124" gradientUnits="userSpaceOnUse">
<stop offset="0.116628" stop-color="#FFE079"/>
<stop offset="0.423834" stop-color="#D3AF37"/>
</linearGradient>
<linearGradient id="paint6_linear_10_1567" x1="137.36" y1="88.2985" x2="141.055" y2="92.3463" gradientUnits="userSpaceOnUse">
<stop offset="0.116628" stop-color="#FFE079"/>
<stop offset="0.423834" stop-color="#D3AF37"/>
</linearGradient>
<linearGradient id="paint7_linear_10_1567" x1="146.848" y1="95.7633" x2="150.543" y2="99.8111" gradientUnits="userSpaceOnUse">
<stop offset="0.116628" stop-color="#FFE079"/>
<stop offset="0.423834" stop-color="#D3AF37"/>
</linearGradient>
<linearGradient id="paint8_linear_10_1567" x1="112.175" y1="123.793" x2="112.714" y2="129.517" gradientUnits="userSpaceOnUse">
<stop offset="0.116628" stop-color="#FFE079"/>
<stop offset="0.423834" stop-color="#D3AF37"/>
</linearGradient>
<linearGradient id="paint9_linear_10_1567" x1="107.879" y1="85.3003" x2="128.82" y2="120.193" gradientUnits="userSpaceOnUse">
<stop offset="0.116628" stop-color="#FFE079"/>
<stop offset="0.423834" stop-color="#D3AF37"/>
</linearGradient>
</defs>
</svg>
