<svg width="254" height="354" viewBox="0 0 254 354" fill="none" xmlns="http://www.w3.org/2000/svg">
<path d="M2 10C2 5.58172 5.58172 2 10 2H244C248.418 2 252 5.58172 252 10V344C252 348.418 248.418 352 244 352H10C5.58172 352 2 348.418 2 344V10Z" fill="url(#paint0_linear_10_1618)"/>
<path d="M2 10C2 5.58172 5.58172 2 10 2H244C248.418 2 252 5.58172 252 10V344C252 348.418 248.418 352 244 352H10C5.58172 352 2 348.418 2 344V10Z" stroke="#D3AF37" stroke-width="3"/>
<path d="M32.048 50.512C30.4693 50.512 29.0933 50 27.92 48.976C26.768 47.952 25.872 46.576 25.232 44.848C24.6133 43.12 24.304 41.2213 24.304 39.152C24.304 36.6987 24.6453 34.5333 25.328 32.656C26.032 30.7787 27.0347 29.3173 28.336 28.272C29.6373 27.2267 31.1733 26.704 32.944 26.704C33.9467 26.704 34.8107 26.9173 35.536 27.344C36.2613 27.7493 36.8053 28.2827 37.168 28.944C37.552 29.6053 37.744 30.3093 37.744 31.056C37.744 31.9733 37.4773 32.752 36.944 33.392C36.4107 34.032 35.7173 34.352 34.864 34.352C34.224 34.352 33.7013 34.16 33.296 33.776C32.912 33.3707 32.72 32.848 32.72 32.208C32.72 31.2267 33.2 30.5653 34.16 30.224C34.5867 30.0747 34.9067 29.9253 35.12 29.776C35.3333 29.6267 35.44 29.4347 35.44 29.2C35.44 28.7733 35.216 28.4213 34.768 28.144C34.32 27.8667 33.7013 27.728 32.912 27.728C31.7173 27.728 30.832 28.24 30.256 29.264C29.7013 30.288 29.424 31.5147 29.424 32.944V37.52L29.616 37.616C29.9573 37.2747 30.4053 37.0187 30.96 36.848C31.5147 36.656 32.1013 36.56 32.72 36.56C34.8533 36.56 36.4427 37.1893 37.488 38.448C38.5547 39.7067 39.088 41.3173 39.088 43.28C39.088 44.496 38.832 45.6587 38.32 46.768C37.8293 47.856 37.0507 48.752 35.984 49.456C34.9387 50.16 33.6267 50.512 32.048 50.512ZM32.016 49.488C32.7413 49.488 33.264 49.2427 33.584 48.752C33.9253 48.24 34.1387 47.6 34.224 46.832C34.3093 46.0427 34.352 44.9653 34.352 43.6C34.352 41.872 34.2027 40.4747 33.904 39.408C33.6267 38.32 33.0933 37.776 32.304 37.776C31.152 37.776 30.3627 38.224 29.936 39.12C29.7227 39.5253 29.584 40.0907 29.52 40.816C29.456 41.5413 29.424 42.5227 29.424 43.76C29.424 45.7013 29.6267 47.1413 30.032 48.08C30.4373 49.0187 31.0987 49.488 32.016 49.488Z" fill="#D3AF37"/>
<path d="M221.952 307.488C223.531 307.488 224.907 308 226.08 309.024C227.232 310.048 228.128 311.424 228.768 313.152C229.387 314.88 229.696 316.779 229.696 318.848C229.696 321.301 229.355 323.467 228.672 325.344C227.968 327.221 226.965 328.683 225.664 329.728C224.363 330.773 222.827 331.296 221.056 331.296C220.053 331.296 219.189 331.083 218.464 330.656C217.739 330.251 217.195 329.717 216.832 329.056C216.448 328.395 216.256 327.691 216.256 326.944C216.256 326.027 216.523 325.248 217.056 324.608C217.589 323.968 218.283 323.648 219.136 323.648C219.776 323.648 220.299 323.84 220.704 324.224C221.088 324.629 221.28 325.152 221.28 325.792C221.28 326.773 220.8 327.435 219.84 327.776C219.413 327.925 219.093 328.075 218.88 328.224C218.667 328.373 218.56 328.565 218.56 328.8C218.56 329.227 218.784 329.579 219.232 329.856C219.68 330.133 220.299 330.272 221.088 330.272C222.283 330.272 223.168 329.76 223.744 328.736C224.299 327.712 224.576 326.485 224.576 325.056V320.48L224.384 320.384C224.043 320.725 223.595 320.981 223.04 321.152C222.485 321.344 221.899 321.44 221.28 321.44C219.147 321.44 217.557 320.811 216.512 319.552C215.445 318.293 214.912 316.683 214.912 314.72C214.912 313.504 215.168 312.341 215.68 311.232C216.171 310.144 216.949 309.248 218.016 308.544C219.061 307.84 220.373 307.488 221.952 307.488ZM221.984 308.512C221.259 308.512 220.736 308.757 220.416 309.248C220.075 309.76 219.861 310.4 219.776 311.168C219.691 311.957 219.648 313.035 219.648 314.4C219.648 316.128 219.797 317.525 220.096 318.592C220.373 319.68 220.907 320.224 221.696 320.224C222.848 320.224 223.637 319.776 224.064 318.88C224.277 318.475 224.416 317.909 224.48 317.184C224.544 316.459 224.576 315.477 224.576 314.24C224.576 312.299 224.373 310.859 223.968 309.92C223.563 308.981 222.901 308.512 221.984 308.512Z" fill="#D3AF37"/>
<path d="M40 62.4541C40 59.9942 38.1178 58 35.7961 58C34.3583 58 33.0894 58.7649 32.3313 59.9314L32.251 60.0319C32.109 60.2094 31.8769 60.1962 31.7472 60.0047C31.6548 59.8678 31.5561 59.7359 31.4515 59.6092L31.4479 59.621C30.6769 58.631 29.51 58 28.2039 58C25.8822 58 24 59.9942 24 62.4541C24 63.6645 24.4559 64.7619 25.1954 65.5647L31.3252 73.6168C31.6451 74.1277 32.3531 74.1277 32.673 73.6168L38.9259 65.4276C39.5936 64.639 40 63.597 40 62.4541Z" fill="url(#paint1_linear_10_1618)"/>
<path d="M82 50.9083C82 45.9884 78.2357 42 73.5922 42C70.7167 42 68.1787 43.5298 66.6627 45.8628L66.502 46.0638C66.2181 46.4188 65.7538 46.3924 65.4943 46.0093C65.3095 45.7357 65.1122 45.4717 64.903 45.2185L64.8959 45.2421C63.3537 43.2621 61.0199 42 58.4078 42C53.7643 42 50 45.9884 50 50.9083C50 53.329 50.9118 55.5238 52.3907 57.1294L64.6504 73.2337C65.2902 74.2554 66.7062 74.2554 67.3459 73.2337L79.8518 56.8551C81.1873 55.278 82 53.1939 82 50.9083Z" fill="url(#paint2_linear_10_1618)"/>
<path d="M204 169.908C204 164.988 200.236 161 195.592 161C192.717 161 190.179 162.53 188.663 164.863L188.502 165.064C188.218 165.419 187.754 165.392 187.494 165.009C187.31 164.736 187.112 164.472 186.903 164.218L186.896 164.242C185.354 162.262 183.02 161 180.408 161C175.764 161 172 164.988 172 169.908C172 172.329 172.912 174.524 174.391 176.129L186.65 192.234C187.29 193.255 188.706 193.255 189.346 192.234L201.852 175.855C203.187 174.278 204 172.194 204 169.908Z" fill="url(#paint3_linear_10_1618)"/>
<path d="M82 169.908C82 164.988 78.2357 161 73.5922 161C70.7167 161 68.1787 162.53 66.6627 164.863L66.502 165.064C66.2181 165.419 65.7538 165.392 65.4943 165.009C65.3095 164.736 65.1122 164.472 64.903 164.218L64.8959 164.242C63.3537 162.262 61.0199 161 58.4078 161C53.7643 161 50 164.988 50 169.908C50 172.329 50.9118 174.524 52.3907 176.129L64.6504 192.234C65.2902 193.255 66.7062 193.255 67.3459 192.234L79.8518 175.855C81.1873 174.278 82 172.194 82 169.908Z" fill="url(#paint4_linear_10_1618)"/>
<path d="M204 50.9083C204 45.9884 200.236 42 195.592 42C192.717 42 190.179 43.5298 188.663 45.8628L188.502 46.0638C188.218 46.4188 187.754 46.3924 187.494 46.0093C187.31 45.7357 187.112 45.4717 186.903 45.2185L186.896 45.2421C185.354 43.2621 183.02 42 180.408 42C175.764 42 172 45.9884 172 50.9083C172 53.329 172.912 55.5238 174.391 57.1294L186.65 73.2337C187.29 74.2554 188.706 74.2554 189.346 73.2337L201.852 56.8551C203.187 55.278 204 53.1939 204 50.9083Z" fill="url(#paint5_linear_10_1618)"/>
<path d="M214 291.546C214 294.006 215.882 296 218.204 296C219.642 296 220.911 295.235 221.669 294.069L221.749 293.968C221.891 293.791 222.123 293.804 222.253 293.995C222.345 294.132 222.444 294.264 222.548 294.391L222.552 294.379C223.323 295.369 224.49 296 225.796 296C228.118 296 230 294.006 230 291.546C230 290.335 229.544 289.238 228.805 288.435L222.675 280.383C222.355 279.872 221.647 279.872 221.327 280.383L215.074 288.572C214.406 289.361 214 290.403 214 291.546Z" fill="url(#paint6_linear_10_1618)"/>
<path d="M204 303.092C204 308.012 200.236 312 195.592 312C192.717 312 190.179 310.47 188.663 308.137L188.502 307.936C188.218 307.581 187.754 307.608 187.494 307.991C187.31 308.264 187.112 308.528 186.903 308.782L186.896 308.758C185.354 310.738 183.02 312 180.408 312C175.764 312 172 308.012 172 303.092C172 300.671 172.912 298.476 174.391 296.871L186.65 280.766C187.29 279.745 188.706 279.745 189.346 280.766L201.852 297.145C203.187 298.722 204 300.806 204 303.092Z" fill="url(#paint7_linear_10_1618)"/>
<path d="M82 303.092C82 308.012 78.2357 312 73.5922 312C70.7167 312 68.1787 310.47 66.6627 308.137L66.502 307.936C66.2181 307.581 65.7538 307.608 65.4943 307.991C65.3095 308.264 65.1122 308.528 64.903 308.782L64.8959 308.758C63.3537 310.738 61.0199 312 58.4078 312C53.7643 312 50 308.012 50 303.092C50 300.671 50.9118 298.476 52.3907 296.871L64.6504 280.766C65.2902 279.745 66.7062 279.745 67.3459 280.766L79.8518 297.145C81.1873 298.722 82 300.806 82 303.092Z" fill="url(#paint8_linear_10_1618)"/>
<defs>
<linearGradient id="paint0_linear_10_1618" x1="252" y1="352" x2="5.5" y2="5.00002" gradientUnits="userSpaceOnUse">
<stop/>
<stop offset="1" stop-color="#3F3E3E"/>
</linearGradient>
<linearGradient id="paint1_linear_10_1618" x1="27.4536" y1="62.7504" x2="33.2758" y2="72.4612" gradientUnits="userSpaceOnUse">
<stop stop-color="#FFE079"/>
<stop offset="0.44" stop-color="#D3AF37"/>
</linearGradient>
<linearGradient id="paint2_linear_10_1618" x1="56.9073" y1="51.5008" x2="68.5517" y2="70.9223" gradientUnits="userSpaceOnUse">
<stop stop-color="#FFE079"/>
<stop offset="0.44" stop-color="#D3AF37"/>
</linearGradient>
<linearGradient id="paint3_linear_10_1618" x1="178.907" y1="170.501" x2="190.552" y2="189.922" gradientUnits="userSpaceOnUse">
<stop stop-color="#FFE079"/>
<stop offset="0.44" stop-color="#D3AF37"/>
</linearGradient>
<linearGradient id="paint4_linear_10_1618" x1="56.9073" y1="170.501" x2="68.5517" y2="189.922" gradientUnits="userSpaceOnUse">
<stop stop-color="#FFE079"/>
<stop offset="0.44" stop-color="#D3AF37"/>
</linearGradient>
<linearGradient id="paint5_linear_10_1618" x1="178.907" y1="51.5008" x2="190.552" y2="70.9223" gradientUnits="userSpaceOnUse">
<stop stop-color="#FFE079"/>
<stop offset="0.44" stop-color="#D3AF37"/>
</linearGradient>
<linearGradient id="paint6_linear_10_1618" x1="214" y1="296" x2="230" y2="280" gradientUnits="userSpaceOnUse">
<stop offset="0.403551" stop-color="#D3AF37"/>
<stop offset="1" stop-color="#FFE079"/>
</linearGradient>
<linearGradient id="paint7_linear_10_1618" x1="204" y1="312" x2="172" y2="280" gradientUnits="userSpaceOnUse">
<stop offset="0.403551" stop-color="#D3AF37"/>
<stop offset="1" stop-color="#FFE079"/>
</linearGradient>
<linearGradient id="paint8_linear_10_1618" x1="82" y1="312" x2="50" y2="280" gradientUnits="userSpaceOnUse">
<stop offset="0.403551" stop-color="#D3AF37"/>
<stop offset="1" stop-color="#FFE079"/>
</linearGradient>
</defs>
</svg>
