<svg width="254" height="354" viewBox="0 0 254 354" fill="none" xmlns="http://www.w3.org/2000/svg">
<path d="M2 10C2 5.58172 5.58172 2 10 2H244C248.418 2 252 5.58172 252 10V344C252 348.418 248.418 352 244 352H10C5.58172 352 2 348.418 2 344V10Z" fill="url(#paint0_linear_10_1584)"/>
<path d="M2 10C2 5.58172 5.58172 2 10 2H244C248.418 2 252 5.58172 252 10V344C252 348.418 248.418 352 244 352H10C5.58172 352 2 348.418 2 344V10Z" stroke="#D3AF37" stroke-width="3"/>
<path d="M32.752 50.512C31.3867 50.512 30 49.7227 28.592 48.144C28.1867 47.696 27.8453 47.3867 27.568 47.216C27.312 47.024 26.992 46.928 26.608 46.928C26.3093 46.928 26.064 47.024 25.872 47.216C25.68 47.3867 25.584 47.632 25.584 47.952V50H24.304V48.496C24.304 47.664 24.3787 46.8853 24.528 46.16C24.6987 45.4133 25.0827 44.5493 25.68 43.568C26.2773 42.5653 27.1947 41.4773 28.432 40.304C29.9893 38.7893 31.1947 37.4133 32.048 36.176C32.9013 34.9173 33.328 33.552 33.328 32.08C33.328 30.8853 33.0827 29.8827 32.592 29.072C32.1013 28.2613 31.2693 27.856 30.096 27.856C29.2853 27.856 28.6027 28.1227 28.048 28.656C27.5147 29.168 27.248 29.776 27.248 30.48C27.248 31.3333 27.5467 31.9733 28.144 32.4C28.6133 32.7413 28.9653 33.0827 29.2 33.424C29.456 33.744 29.584 34.1493 29.584 34.64C29.584 35.1947 29.3813 35.6533 28.976 36.016C28.5707 36.3787 28.0587 36.56 27.44 36.56C26.5227 36.56 25.7227 36.2293 25.04 35.568C24.3787 34.9067 24.048 34.0213 24.048 32.912C24.048 31.7813 24.3467 30.7467 24.944 29.808C25.5627 28.848 26.3947 28.0907 27.44 27.536C28.5067 26.9813 29.68 26.704 30.96 26.704C33.3067 26.704 35.088 27.248 36.304 28.336C37.52 29.4027 38.128 30.8213 38.128 32.592C38.128 33.808 37.744 34.9067 36.976 35.888C36.2293 36.8693 35.312 37.7227 34.224 38.448C33.1573 39.152 31.8027 39.9413 30.16 40.816C29.2427 41.328 28.3787 41.9787 27.568 42.768C26.7573 43.5573 26.2027 44.5067 25.904 45.616L26.032 45.68C26.8 45.0613 27.664 44.752 28.624 44.752C29.008 44.752 29.4667 44.8053 30 44.912C30.5547 45.0187 31.0133 45.136 31.376 45.264C32.4427 45.6053 33.4133 45.776 34.288 45.776C35.056 45.776 35.696 45.552 36.208 45.104C36.72 44.6347 36.976 44.0907 36.976 43.472C36.976 42.8533 36.9227 42.1387 36.816 41.328H37.808C37.936 42.2453 38 43.0773 38 43.824C38 44.912 37.8187 45.968 37.456 46.992C37.1147 47.9947 36.5493 48.8373 35.76 49.52C34.9707 50.1813 33.968 50.512 32.752 50.512Z" fill="#D3AF37"/>
<path d="M221.248 307.488C222.613 307.488 224 308.277 225.408 309.856C225.813 310.304 226.155 310.613 226.432 310.784C226.688 310.976 227.008 311.072 227.392 311.072C227.691 311.072 227.936 310.976 228.128 310.784C228.32 310.613 228.416 310.368 228.416 310.048V308H229.696V309.504C229.696 310.336 229.621 311.115 229.472 311.84C229.301 312.587 228.917 313.451 228.32 314.432C227.723 315.435 226.805 316.523 225.568 317.696C224.011 319.211 222.805 320.587 221.952 321.824C221.099 323.083 220.672 324.448 220.672 325.92C220.672 327.115 220.917 328.117 221.408 328.928C221.899 329.739 222.731 330.144 223.904 330.144C224.715 330.144 225.397 329.877 225.952 329.344C226.485 328.832 226.752 328.224 226.752 327.52C226.752 326.667 226.453 326.027 225.856 325.6C225.387 325.259 225.035 324.917 224.8 324.576C224.544 324.256 224.416 323.851 224.416 323.36C224.416 322.805 224.619 322.347 225.024 321.984C225.429 321.621 225.941 321.44 226.56 321.44C227.477 321.44 228.277 321.771 228.96 322.432C229.621 323.093 229.952 323.979 229.952 325.088C229.952 326.219 229.653 327.253 229.056 328.192C228.437 329.152 227.605 329.909 226.56 330.464C225.493 331.019 224.32 331.296 223.04 331.296C220.693 331.296 218.912 330.752 217.696 329.664C216.48 328.597 215.872 327.179 215.872 325.408C215.872 324.192 216.256 323.093 217.024 322.112C217.771 321.131 218.688 320.277 219.776 319.552C220.843 318.848 222.197 318.059 223.84 317.184C224.757 316.672 225.621 316.021 226.432 315.232C227.243 314.443 227.797 313.493 228.096 312.384L227.968 312.32C227.2 312.939 226.336 313.248 225.376 313.248C224.992 313.248 224.533 313.195 224 313.088C223.445 312.981 222.987 312.864 222.624 312.736C221.557 312.395 220.587 312.224 219.712 312.224C218.944 312.224 218.304 312.448 217.792 312.896C217.28 313.365 217.024 313.909 217.024 314.528C217.024 315.147 217.077 315.861 217.184 316.672H216.192C216.064 315.755 216 314.923 216 314.176C216 313.088 216.181 312.032 216.544 311.008C216.885 310.005 217.451 309.163 218.24 308.48C219.029 307.819 220.032 307.488 221.248 307.488Z" fill="#D3AF37"/>
<path d="M40 62.4541C40 59.9942 38.1178 58 35.7961 58C34.3583 58 33.0894 58.7649 32.3313 59.9314L32.251 60.0319C32.109 60.2094 31.8769 60.1962 31.7472 60.0047C31.6548 59.8678 31.5561 59.7359 31.4515 59.6092L31.4479 59.621C30.6769 58.631 29.51 58 28.2039 58C25.8822 58 24 59.9942 24 62.4541C24 63.6645 24.4559 64.7619 25.1954 65.5647L31.3252 73.6168C31.6451 74.1277 32.3531 74.1277 32.673 73.6168L38.9259 65.4276C39.5936 64.639 40 63.597 40 62.4541Z" fill="url(#paint1_linear_10_1584)"/>
<path d="M143 66.9083C143 61.9884 139.236 58 134.592 58C131.717 58 129.179 59.5298 127.663 61.8628L127.502 62.0638C127.218 62.4188 126.754 62.3924 126.494 62.0093C126.31 61.7357 126.112 61.4717 125.903 61.2185L125.896 61.2421C124.354 59.2621 122.02 58 119.408 58C114.764 58 111 61.9884 111 66.9083C111 69.329 111.912 71.5238 113.391 73.1294L125.65 89.2337C126.29 90.2555 127.706 90.2555 128.346 89.2337L140.852 72.8551C142.187 71.278 143 69.1939 143 66.9083Z" fill="url(#paint2_linear_10_1584)"/>
<path d="M216 291.546C216 294.006 217.882 296 220.204 296C221.642 296 222.911 295.235 223.669 294.069L223.749 293.968C223.891 293.791 224.123 293.804 224.253 293.995C224.345 294.132 224.444 294.264 224.548 294.391L224.552 294.379C225.323 295.369 226.49 296 227.796 296C230.118 296 232 294.006 232 291.546C232 290.335 231.544 289.238 230.805 288.435L224.675 280.383C224.355 279.872 223.647 279.872 223.327 280.383L217.074 288.572C216.406 289.361 216 290.403 216 291.546Z" fill="url(#paint3_linear_10_1584)"/>
<path d="M143 287.092C143 292.012 139.236 296 134.592 296C131.717 296 129.179 294.47 127.663 292.137L127.502 291.936C127.218 291.581 126.754 291.608 126.494 291.991C126.31 292.264 126.112 292.528 125.903 292.782L125.896 292.758C124.354 294.738 122.02 296 119.408 296C114.764 296 111 292.012 111 287.092C111 284.671 111.912 282.476 113.391 280.871L125.65 264.766C126.29 263.745 127.706 263.745 128.346 264.766L140.852 281.145C142.187 282.722 143 284.806 143 287.092Z" fill="url(#paint4_linear_10_1584)"/>
<defs>
<linearGradient id="paint0_linear_10_1584" x1="252" y1="352" x2="5.5" y2="5.00002" gradientUnits="userSpaceOnUse">
<stop/>
<stop offset="1" stop-color="#3F3E3E"/>
</linearGradient>
<linearGradient id="paint1_linear_10_1584" x1="27.4536" y1="62.7504" x2="33.2758" y2="72.4612" gradientUnits="userSpaceOnUse">
<stop stop-color="#FFE079"/>
<stop offset="0.44" stop-color="#D3AF37"/>
</linearGradient>
<linearGradient id="paint2_linear_10_1584" x1="117.907" y1="67.5008" x2="129.552" y2="86.9223" gradientUnits="userSpaceOnUse">
<stop stop-color="#FFE079"/>
<stop offset="0.44" stop-color="#D3AF37"/>
</linearGradient>
<linearGradient id="paint3_linear_10_1584" x1="216" y1="296" x2="232" y2="280" gradientUnits="userSpaceOnUse">
<stop offset="0.403551" stop-color="#D3AF37"/>
<stop offset="1" stop-color="#FFE079"/>
</linearGradient>
<linearGradient id="paint4_linear_10_1584" x1="143" y1="296" x2="111" y2="264" gradientUnits="userSpaceOnUse">
<stop offset="0.403551" stop-color="#D3AF37"/>
<stop offset="1" stop-color="#FFE079"/>
</linearGradient>
</defs>
</svg>
