<svg width="254" height="354" viewBox="0 0 254 354" fill="none" xmlns="http://www.w3.org/2000/svg">
<path d="M252 344C252 348.418 248.418 352 244 352H10C5.58173 352 2 348.418 2 344V10C2 5.58173 5.58173 2 10 2H244C248.418 2 252 5.58173 252 10V344Z" fill="url(#paint0_linear_10_2078)"/>
<path d="M252 344C252 348.418 248.418 352 244 352H10C5.58173 352 2 348.418 2 344V10C2 5.58173 5.58173 2 10 2H244C248.418 2 252 5.58173 252 10V344Z" stroke="#D3AF37" stroke-width="3"/>
<path d="M223.904 303.488C225.739 303.488 227.253 303.936 228.448 304.832C229.621 305.749 230.208 306.976 230.208 308.512C230.208 309.387 229.92 310.144 229.344 310.784C228.747 311.445 228.011 311.776 227.136 311.776C226.411 311.776 225.835 311.573 225.408 311.168C224.981 310.763 224.768 310.261 224.768 309.664C224.768 308.619 225.259 307.883 226.24 307.456C226.475 307.349 226.688 307.2 226.88 307.008C227.051 306.816 227.136 306.603 227.136 306.368C227.136 305.792 226.859 305.333 226.304 304.992C225.728 304.672 224.96 304.512 224 304.512C221.739 304.512 220.608 306.4 220.608 310.176C220.608 311.947 220.917 313.259 221.536 314.112C222.155 314.965 222.923 315.392 223.84 315.392H227.072V316.544H223.904C222.901 316.544 222.176 316.917 221.728 317.664C221.259 318.432 221.024 319.616 221.024 321.216C221.024 323.157 221.259 324.48 221.728 325.184C222.176 325.909 222.869 326.272 223.808 326.272C224.619 326.272 225.312 326.037 225.888 325.568C226.464 325.12 226.752 324.533 226.752 323.808C226.752 323.339 226.432 322.891 225.792 322.464C225.045 321.973 224.672 321.333 224.672 320.544C224.672 320.032 224.864 319.584 225.248 319.2C225.611 318.816 226.112 318.624 226.752 318.624C227.541 318.624 228.224 318.933 228.8 319.552C229.355 320.192 229.632 320.992 229.632 321.952C229.632 323.019 229.355 323.957 228.8 324.768C228.245 325.579 227.499 326.197 226.56 326.624C225.6 327.072 224.555 327.296 223.424 327.296C221.269 327.296 219.531 326.784 218.208 325.76C216.885 324.736 216.224 323.349 216.224 321.6C216.224 320.085 216.747 318.88 217.792 317.984C218.816 317.088 220.043 316.491 221.472 316.192V315.904C220.469 315.819 219.509 315.509 218.592 314.976C217.675 314.464 216.928 313.781 216.352 312.928C215.776 312.075 215.488 311.115 215.488 310.048C215.488 307.936 216.256 306.315 217.792 305.184C219.307 304.053 221.344 303.488 223.904 303.488Z" fill="#D3AF37"/>
<path d="M30.096 50.512C28.2613 50.512 26.7467 50.064 25.552 49.168C24.3787 48.2507 23.792 47.024 23.792 45.488C23.792 44.6133 24.08 43.856 24.656 43.216C25.2533 42.5547 25.9893 42.224 26.864 42.224C27.5893 42.224 28.1653 42.4267 28.592 42.832C29.0187 43.2373 29.232 43.7387 29.232 44.336C29.232 45.3813 28.7413 46.1173 27.76 46.544C27.5253 46.6507 27.312 46.8 27.12 46.992C26.9493 47.184 26.864 47.3973 26.864 47.632C26.864 48.208 27.1413 48.6667 27.696 49.008C28.272 49.328 29.04 49.488 30 49.488C32.2613 49.488 33.392 47.6 33.392 43.824C33.392 42.0533 33.0827 40.7413 32.464 39.888C31.8453 39.0347 31.0773 38.608 30.16 38.608H26.928V37.456H30.096C31.0987 37.456 31.824 37.0827 32.272 36.336C32.7413 35.568 32.976 34.384 32.976 32.784C32.976 30.8427 32.7413 29.52 32.272 28.816C31.824 28.0907 31.1307 27.728 30.192 27.728C29.3813 27.728 28.688 27.9627 28.112 28.432C27.536 28.88 27.248 29.4667 27.248 30.192C27.248 30.6613 27.568 31.1093 28.208 31.536C28.9547 32.0267 29.328 32.6667 29.328 33.456C29.328 33.968 29.136 34.416 28.752 34.8C28.3893 35.184 27.888 35.376 27.248 35.376C26.4587 35.376 25.776 35.0667 25.2 34.448C24.6453 33.808 24.368 33.008 24.368 32.048C24.368 30.9813 24.6453 30.0427 25.2 29.232C25.7547 28.4213 26.5013 27.8027 27.44 27.376C28.4 26.928 29.4453 26.704 30.576 26.704C32.7307 26.704 34.4693 27.216 35.792 28.24C37.1147 29.264 37.776 30.6507 37.776 32.4C37.776 33.9147 37.2533 35.12 36.208 36.016C35.184 36.912 33.9573 37.5093 32.528 37.808V38.096C33.5307 38.1813 34.4907 38.4907 35.408 39.024C36.3253 39.536 37.072 40.2187 37.648 41.072C38.224 41.9253 38.512 42.8853 38.512 43.952C38.512 46.064 37.744 47.6853 36.208 48.816C34.6933 49.9467 32.656 50.512 30.096 50.512Z" fill="#D3AF37"/>
<path d="M228.341 286.384C228.341 284.427 226.654 283.53 225.487 283.53C224.185 283.53 223.202 284.119 222.617 284.6C222.694 283.008 223.071 281.871 224.762 280.975H219.238C220.929 281.871 221.306 283.008 221.383 284.6C220.798 284.12 219.814 283.529 218.513 283.53C217.348 283.53 215.659 284.427 215.659 286.384C215.659 289.961 218.179 288.988 222 295.025C225.821 288.988 228.341 289.961 228.341 286.384Z" fill="url(#paint1_linear_10_2078)"/>
<path d="M143 276.32C143 271.862 138.742 269.82 135.798 269.818C132.514 269.818 130.034 271.161 128.557 272.257C128.752 268.63 129.703 266.039 133.97 264H120.03C124.297 266.039 125.248 268.63 125.443 272.257C123.966 271.161 121.485 269.817 118.202 269.818C115.262 269.818 111 271.862 111 276.32C111 284.468 117.359 282.25 127 296C136.641 282.25 143 284.467 143 276.32Z" fill="url(#paint2_linear_10_2078)"/>
<path d="M143 77.6803C143 82.1383 138.742 84.1804 135.798 84.1818C132.514 84.1818 130.034 82.8394 128.557 81.7432C128.752 85.3698 129.703 87.9607 133.97 90H120.03C124.297 87.9607 125.248 85.3698 125.443 81.7432C123.966 82.8387 121.485 84.1832 118.202 84.1818C115.262 84.1818 111 82.1383 111 77.6803C111 69.5324 117.359 71.7497 127 58C136.641 71.7497 143 69.5332 143 77.6803Z" fill="url(#paint3_linear_10_2078)"/>
<path d="M143 180.68C143 185.138 138.742 187.18 135.798 187.182C132.514 187.182 130.034 185.839 128.557 184.743C128.752 188.37 129.703 190.961 133.97 193H120.03C124.297 190.961 125.248 188.37 125.443 184.743C123.966 185.839 121.485 187.183 118.202 187.182C115.262 187.182 111 185.138 111 180.68C111 172.532 117.359 174.75 127 161C136.641 174.75 143 172.533 143 180.68Z" fill="url(#paint4_linear_10_2078)"/>
<path d="M38.3411 67.6158C38.3411 69.573 36.6536 70.4695 35.4867 70.4702C34.1855 70.4702 33.2023 69.8808 32.617 69.3995C32.6942 70.9917 33.0711 72.1292 34.7623 73.0245H29.2377C30.9289 72.1292 31.3058 70.9917 31.383 69.3995C30.7977 69.8805 29.8142 70.4708 28.5133 70.4702C27.348 70.4702 25.6589 69.573 25.6589 67.6158C25.6589 64.0386 28.1789 65.012 31.9998 58.9755C35.8211 65.012 38.3411 64.0389 38.3411 67.6158Z" fill="url(#paint5_linear_10_2078)"/>
<defs>
<linearGradient id="paint0_linear_10_2078" x1="2" y1="2" x2="252" y2="352" gradientUnits="userSpaceOnUse">
<stop stop-color="#3F3E3E"/>
<stop offset="1"/>
</linearGradient>
<linearGradient id="paint1_linear_10_2078" x1="218.5" y1="283.5" x2="225" y2="290.5" gradientUnits="userSpaceOnUse">
<stop stop-color="#FFE079"/>
<stop offset="0.44" stop-color="#D3AF37"/>
</linearGradient>
<linearGradient id="paint2_linear_10_2078" x1="121" y1="271" x2="132.94" y2="286.223" gradientUnits="userSpaceOnUse">
<stop stop-color="#FFE079"/>
<stop offset="0.44" stop-color="#D3AF37"/>
</linearGradient>
<linearGradient id="paint3_linear_10_2078" x1="117.907" y1="67.5008" x2="129.552" y2="86.9223" gradientUnits="userSpaceOnUse">
<stop stop-color="#FFE079"/>
<stop offset="0.44" stop-color="#D3AF37"/>
</linearGradient>
<linearGradient id="paint4_linear_10_2078" x1="117.907" y1="170.501" x2="129.552" y2="189.922" gradientUnits="userSpaceOnUse">
<stop stop-color="#FFE079"/>
<stop offset="0.44" stop-color="#D3AF37"/>
</linearGradient>
<linearGradient id="paint5_linear_10_2078" x1="28.3964" y1="63.1466" x2="33.7388" y2="71.1901" gradientUnits="userSpaceOnUse">
<stop stop-color="#FFE079"/>
<stop offset="0.44" stop-color="#D3AF37"/>
</linearGradient>
</defs>
</svg>
