<svg width="254" height="354" viewBox="0 0 254 354" fill="none" xmlns="http://www.w3.org/2000/svg">
<path d="M252 344C252 348.418 248.418 352 244 352H10C5.58173 352 2 348.418 2 344V10C2 5.58173 5.58173 2 10 2H244C248.418 2 252 5.58173 252 10V344Z" fill="url(#paint0_linear_10_2101)"/>
<path d="M252 344C252 348.418 248.418 352 244 352H10C5.58173 352 2 348.418 2 344V10C2 5.58173 5.58173 2 10 2H244C248.418 2 252 5.58173 252 10V344Z" stroke="#D3AF37" stroke-width="3"/>
<path d="M223.456 303.488C224.651 303.488 225.717 303.701 226.656 304.128C227.573 304.576 228.288 305.173 228.8 305.92C229.312 306.688 229.568 307.52 229.568 308.416C229.568 309.077 229.419 309.664 229.12 310.176C228.8 310.709 228.405 311.115 227.936 311.392C227.445 311.691 226.955 311.84 226.464 311.84C225.781 311.84 225.259 311.627 224.896 311.2C224.533 310.795 224.352 310.315 224.352 309.76C224.352 308.907 224.811 308.245 225.728 307.776C226.368 307.541 226.688 307.093 226.688 306.432C226.688 305.941 226.421 305.493 225.888 305.088C225.333 304.704 224.555 304.512 223.552 304.512C222.336 304.512 221.547 305.099 221.184 306.272C220.8 307.445 220.608 309.045 220.608 311.072C220.608 312.608 220.693 313.824 220.864 314.72C221.035 315.637 221.344 316.32 221.792 316.768C222.24 317.216 222.88 317.44 223.712 317.44C224.117 317.44 224.597 317.291 225.152 316.992C225.707 316.715 226.219 316.32 226.688 315.808C227.136 315.317 227.435 314.773 227.584 314.176H228.416V326.496L227.776 326.912C226.453 326.101 224.981 325.696 223.36 325.696C222.528 325.696 221.611 325.835 220.608 326.112C219.584 326.411 218.688 326.805 217.92 327.296L217.344 326.72C218.475 325.035 219.904 323.787 221.632 322.976C223.339 322.187 225.173 321.792 227.136 321.792V316.8L226.944 316.736C226.368 317.333 225.749 317.771 225.088 318.048C224.427 318.325 223.68 318.464 222.848 318.464C221.376 318.464 220.085 318.165 218.976 317.568C217.867 316.971 217.013 316.117 216.416 315.008C215.797 313.899 215.488 312.619 215.488 311.168C215.488 309.611 215.851 308.245 216.576 307.072C217.301 305.92 218.272 305.035 219.488 304.416C220.704 303.797 222.027 303.488 223.456 303.488Z" fill="#D3AF37"/>
<path d="M30.544 50.512C29.3493 50.512 28.2827 50.2987 27.344 49.872C26.4267 49.424 25.712 48.8267 25.2 48.08C24.688 47.312 24.432 46.48 24.432 45.584C24.432 44.9227 24.5813 44.336 24.88 43.824C25.2 43.2907 25.5947 42.8853 26.064 42.608C26.5547 42.3093 27.0453 42.16 27.536 42.16C28.2187 42.16 28.7413 42.3733 29.104 42.8C29.4667 43.2053 29.648 43.6853 29.648 44.24C29.648 45.0933 29.1893 45.7547 28.272 46.224C27.632 46.4587 27.312 46.9067 27.312 47.568C27.312 48.0587 27.5787 48.5067 28.112 48.912C28.6667 49.296 29.4453 49.488 30.448 49.488C31.664 49.488 32.4533 48.9013 32.816 47.728C33.2 46.5547 33.392 44.9547 33.392 42.928C33.392 41.392 33.3067 40.176 33.136 39.28C32.9653 38.3627 32.656 37.68 32.208 37.232C31.76 36.784 31.12 36.56 30.288 36.56C29.8827 36.56 29.4027 36.7093 28.848 37.008C28.2933 37.2853 27.7813 37.68 27.312 38.192C26.864 38.6827 26.5653 39.2267 26.416 39.824H25.584V27.504L26.224 27.088C27.5467 27.8987 29.0187 28.304 30.64 28.304C31.472 28.304 32.3893 28.1653 33.392 27.888C34.416 27.5893 35.312 27.1947 36.08 26.704L36.656 27.28C35.5253 28.9653 34.096 30.2133 32.368 31.024C30.6613 31.8133 28.8267 32.208 26.864 32.208V37.2L27.056 37.264C27.632 36.6667 28.2507 36.2293 28.912 35.952C29.5733 35.6747 30.32 35.536 31.152 35.536C32.624 35.536 33.9147 35.8347 35.024 36.432C36.1333 37.0293 36.9867 37.8827 37.584 38.992C38.2027 40.1013 38.512 41.3813 38.512 42.832C38.512 44.3893 38.1493 45.7547 37.424 46.928C36.6987 48.08 35.728 48.9653 34.512 49.584C33.296 50.2027 31.9733 50.512 30.544 50.512Z" fill="#D3AF37"/>
<path d="M228.341 286.384C228.341 284.427 226.654 283.53 225.487 283.53C224.185 283.53 223.202 284.119 222.617 284.6C222.694 283.008 223.071 281.871 224.762 280.975H219.238C220.929 281.871 221.306 283.008 221.383 284.6C220.798 284.12 219.814 283.529 218.513 283.53C217.348 283.53 215.659 284.427 215.659 286.384C215.659 289.961 218.179 288.988 222 295.025C225.821 288.988 228.341 289.961 228.341 286.384Z" fill="url(#paint1_linear_10_2101)"/>
<path d="M82 292.32C82 287.862 77.7421 285.82 74.7978 285.818C71.5144 285.818 69.0338 287.161 67.5569 288.257C67.7517 284.63 68.7026 282.039 72.97 280H59.03C63.2974 282.039 64.2483 284.63 64.4431 288.257C62.9662 287.161 60.4848 285.817 57.2022 285.818C54.2619 285.818 50 287.862 50 292.32C50 300.468 56.3585 298.25 65.9996 312C75.6415 298.25 82 300.467 82 292.32Z" fill="url(#paint2_linear_10_2101)"/>
<path d="M204 292.32C204 287.862 199.742 285.82 196.798 285.818C193.514 285.818 191.034 287.161 189.557 288.257C189.752 284.63 190.703 282.039 194.97 280H181.03C185.297 282.039 186.248 284.63 186.443 288.257C184.966 287.161 182.485 285.817 179.202 285.818C176.262 285.818 172 287.862 172 292.32C172 300.468 178.359 298.25 188 312C197.641 298.25 204 300.467 204 292.32Z" fill="url(#paint3_linear_10_2101)"/>
<path d="M82 61.6803C82 66.1383 77.7421 68.1804 74.7978 68.1818C71.5144 68.1818 69.0338 66.8394 67.5569 65.7432C67.7517 69.3698 68.7026 71.9607 72.97 74H59.03C63.2974 71.9607 64.2483 69.3698 64.4431 65.7432C62.9662 66.8387 60.4848 68.1832 57.2022 68.1818C54.2619 68.1818 50 66.1383 50 61.6803C50 53.5324 56.3585 55.7497 65.9996 42C75.6415 55.7497 82 53.5332 82 61.6803Z" fill="url(#paint4_linear_10_2101)"/>
<path d="M204 61.6803C204 66.1383 199.742 68.1804 196.798 68.1818C193.514 68.1818 191.034 66.8394 189.557 65.7432C189.752 69.3698 190.703 71.9607 194.97 74H181.03C185.297 71.9607 186.248 69.3698 186.443 65.7432C184.966 66.8387 182.485 68.1832 179.202 68.1818C176.262 68.1818 172 66.1383 172 61.6803C172 53.5324 178.359 55.7497 188 42C197.641 55.7497 204 53.5332 204 61.6803Z" fill="url(#paint5_linear_10_2101)"/>
<path d="M143 180.68C143 185.138 138.742 187.18 135.798 187.182C132.514 187.182 130.034 185.839 128.557 184.743C128.752 188.37 129.703 190.961 133.97 193H120.03C124.297 190.961 125.248 188.37 125.443 184.743C123.966 185.839 121.485 187.183 118.202 187.182C115.262 187.182 111 185.138 111 180.68C111 172.532 117.359 174.75 127 161C136.641 174.75 143 172.533 143 180.68Z" fill="url(#paint6_linear_10_2101)"/>
<path d="M38.3411 67.6158C38.3411 69.573 36.6536 70.4695 35.4867 70.4702C34.1855 70.4702 33.2023 69.8808 32.617 69.3995C32.6942 70.9917 33.0711 72.1292 34.7623 73.0245H29.2377C30.9289 72.1292 31.3058 70.9917 31.383 69.3995C30.7977 69.8805 29.8142 70.4708 28.5133 70.4702C27.348 70.4702 25.6589 69.573 25.6589 67.6158C25.6589 64.0386 28.1789 65.012 31.9998 58.9755C35.8211 65.012 38.3411 64.0389 38.3411 67.6158Z" fill="url(#paint7_linear_10_2101)"/>
<defs>
<linearGradient id="paint0_linear_10_2101" x1="2" y1="2" x2="252" y2="352" gradientUnits="userSpaceOnUse">
<stop stop-color="#3F3E3E"/>
<stop offset="1"/>
</linearGradient>
<linearGradient id="paint1_linear_10_2101" x1="215.5" y1="281" x2="228.25" y2="294.25" gradientUnits="userSpaceOnUse">
<stop stop-color="#FFE079"/>
<stop offset="0.44" stop-color="#D3AF37"/>
</linearGradient>
<linearGradient id="paint2_linear_10_2101" x1="57" y1="286" x2="71.9983" y2="305.537" gradientUnits="userSpaceOnUse">
<stop stop-color="#FFE079"/>
<stop offset="0.44" stop-color="#D3AF37"/>
</linearGradient>
<linearGradient id="paint3_linear_10_2101" x1="181" y1="286.5" x2="193.131" y2="304.743" gradientUnits="userSpaceOnUse">
<stop stop-color="#FFE079"/>
<stop offset="0.44" stop-color="#D3AF37"/>
</linearGradient>
<linearGradient id="paint4_linear_10_2101" x1="56.9073" y1="51.5008" x2="68.5517" y2="70.9223" gradientUnits="userSpaceOnUse">
<stop stop-color="#FFE079"/>
<stop offset="0.44" stop-color="#D3AF37"/>
</linearGradient>
<linearGradient id="paint5_linear_10_2101" x1="178.907" y1="51.5008" x2="190.552" y2="70.9223" gradientUnits="userSpaceOnUse">
<stop stop-color="#FFE079"/>
<stop offset="0.44" stop-color="#D3AF37"/>
</linearGradient>
<linearGradient id="paint6_linear_10_2101" x1="117.907" y1="170.501" x2="129.552" y2="189.922" gradientUnits="userSpaceOnUse">
<stop stop-color="#FFE079"/>
<stop offset="0.44" stop-color="#D3AF37"/>
</linearGradient>
<linearGradient id="paint7_linear_10_2101" x1="28.3964" y1="63.1466" x2="33.7388" y2="71.1901" gradientUnits="userSpaceOnUse">
<stop stop-color="#FFE079"/>
<stop offset="0.44" stop-color="#D3AF37"/>
</linearGradient>
</defs>
</svg>
