<svg width="254" height="354" viewBox="0 0 254 354" fill="none" xmlns="http://www.w3.org/2000/svg">
<rect x="2" y="2" width="250" height="350" rx="8" fill="url(#paint0_linear_10_2002)"/>
<rect x="2" y="2" width="250" height="350" rx="8" stroke="#D3AF37" stroke-width="3"/>
<path d="M23.408 48.976H24.496C25.136 48.976 25.7013 48.7307 26.192 48.24C26.6827 47.728 27.056 47.1093 27.312 46.384L34.064 26.64H35.408L42.256 47.344C42.6187 48.432 43.248 48.976 44.144 48.976H45.424V50H34.192V48.976H36.496C36.752 48.976 36.9547 48.88 37.104 48.688C37.2747 48.4747 37.36 48.2293 37.36 47.952C37.36 47.7173 37.296 47.408 37.168 47.024L36.144 43.952H29.424L28.752 45.904C28.5173 46.5013 28.4 47.0453 28.4 47.536C28.4 47.92 28.5493 48.2613 28.848 48.56C29.168 48.8373 29.5733 48.976 30.064 48.976H31.568V50H23.408V48.976ZM29.84 42.768H35.76L32.848 33.968L29.84 42.768Z" fill="#D3AF37"/>
<path d="M230.592 305.024H229.504C228.864 305.024 228.299 305.269 227.808 305.76C227.317 306.272 226.944 306.891 226.688 307.616L219.936 327.36H218.592L211.744 306.656C211.381 305.568 210.752 305.024 209.856 305.024H208.576V304H219.808V305.024H217.504C217.248 305.024 217.045 305.12 216.896 305.312C216.725 305.525 216.64 305.771 216.64 306.048C216.64 306.283 216.704 306.592 216.832 306.976L217.856 310.048H224.576L225.248 308.096C225.483 307.499 225.6 306.955 225.6 306.464C225.6 306.08 225.451 305.739 225.152 305.44C224.832 305.163 224.427 305.024 223.936 305.024H222.432V304H230.592V305.024ZM224.16 311.232H218.24L221.152 320.032L224.16 311.232Z" fill="#D3AF37"/>
<path d="M50.6822 77.2316C50.6822 81.1459 47.3072 82.9391 44.9734 82.9403C42.3709 82.9403 40.4047 81.7616 39.2341 80.7991C39.3884 83.9834 40.1422 86.2584 43.5247 88.0491H32.4753C35.8578 86.2584 36.6116 83.9834 36.7659 80.7991C35.5953 81.7609 33.6284 82.9416 31.0266 82.9403C28.6959 82.9403 25.3178 81.1459 25.3178 77.2316C25.3178 70.0772 30.3578 72.0241 37.9997 59.9509C45.6422 72.0241 50.6822 70.0778 50.6822 77.2316Z" fill="url(#paint1_linear_10_2002)"/>
<path d="M179.729 189.926C179.729 205.584 166.229 212.756 156.894 212.761C146.484 212.761 138.619 208.046 133.936 204.196C134.554 216.934 137.569 226.034 151.099 233.196H106.901C120.431 226.034 123.446 216.934 124.064 204.196C119.381 208.044 111.514 212.766 101.106 212.761C91.7837 212.761 78.2712 205.584 78.2712 189.926C78.2712 161.309 98.4312 169.096 128.999 120.804C159.569 169.096 179.729 161.311 179.729 189.926Z" fill="url(#paint2_linear_10_2002)"/>
<path d="M228.682 276.768C228.682 272.854 225.307 271.061 222.973 271.06C220.371 271.06 218.405 272.238 217.234 273.201C217.388 270.017 218.142 267.742 221.525 265.951H210.475C213.858 267.742 214.612 270.017 214.766 273.201C213.595 272.239 211.628 271.058 209.027 271.06C206.696 271.06 203.318 272.854 203.318 276.768C203.318 283.923 208.358 281.976 216 294.049C223.642 281.976 228.682 283.922 228.682 276.768Z" fill="url(#paint3_linear_10_2002)"/>
<line x1="61" y1="37.5" x2="216" y2="37.5" stroke="#D3AF37"/>
<line x1="216.5" y1="37" x2="216.5" y2="260" stroke="#D3AF37"/>
<line x1="193" y1="316.5" x2="38" y2="316.5" stroke="#D3AF37"/>
<line x1="37.5" y1="317" x2="37.5" y2="94" stroke="#D3AF37"/>
<defs>
<linearGradient id="paint0_linear_10_2002" x1="252" y1="352" x2="2.00002" y2="1.99999" gradientUnits="userSpaceOnUse">
<stop/>
<stop offset="1" stop-color="#3F3E3E"/>
</linearGradient>
<linearGradient id="paint1_linear_10_2002" x1="30.7928" y1="68.2933" x2="41.4775" y2="84.3803" gradientUnits="userSpaceOnUse">
<stop stop-color="#FFE079"/>
<stop offset="0.44" stop-color="#D3AF37"/>
</linearGradient>
<linearGradient id="paint2_linear_10_2002" x1="100.171" y1="154.173" x2="142.91" y2="218.521" gradientUnits="userSpaceOnUse">
<stop stop-color="#FFE079"/>
<stop offset="0.44" stop-color="#D3AF37"/>
</linearGradient>
<linearGradient id="paint3_linear_10_2002" x1="203" y1="266" x2="228.5" y2="292.5" gradientUnits="userSpaceOnUse">
<stop stop-color="#FFE079"/>
<stop offset="0.44" stop-color="#D3AF37"/>
</linearGradient>
</defs>
</svg>
