<svg width="254" height="354" viewBox="0 0 254 354" fill="none" xmlns="http://www.w3.org/2000/svg">
<path d="M2 10C2 5.58172 5.58172 2 10 2H244C248.418 2 252 5.58172 252 10V344C252 348.418 248.418 352 244 352H10C5.58172 352 2 348.418 2 344V10Z" fill="url(#paint0_linear_10_2052)"/>
<path d="M2 10C2 5.58172 5.58172 2 10 2H244C248.418 2 252 5.58172 252 10V344C252 348.418 248.418 352 244 352H10C5.58172 352 2 348.418 2 344V10Z" stroke="#D3AF37" stroke-width="3"/>
<path d="M39.024 53.616C38.4053 53.616 37.808 53.4453 37.232 53.104C36.656 52.784 36.1867 52.3147 35.824 51.696C35.4613 51.0773 35.28 50.352 35.28 49.52C35.28 48.1973 35.3227 47.1413 35.408 46.352C34.896 46.5013 34.3413 46.576 33.744 46.576C32.0587 46.576 30.48 46.0107 29.008 44.88C27.5573 43.728 26.3947 42.2347 25.52 40.4C24.6667 38.544 24.24 36.6133 24.24 34.608C24.24 32.5813 24.6773 30.6507 25.552 28.816C26.4267 26.96 27.5893 25.4667 29.04 24.336C30.512 23.2053 32.0693 22.64 33.712 22.64C35.3547 22.64 36.9013 23.2053 38.352 24.336C39.824 25.4667 40.9973 26.96 41.872 28.816C42.7467 30.6507 43.184 32.5813 43.184 34.608C43.184 36.144 42.9173 37.648 42.384 39.12C41.872 40.592 41.1467 41.904 40.208 43.056C39.2907 44.208 38.2453 45.0933 37.072 45.712C37.1573 46.928 37.4133 47.8667 37.84 48.528C38.288 49.1893 38.928 49.52 39.76 49.52C40.6133 49.52 41.2427 49.1573 41.648 48.432C42.0747 47.728 42.288 46.832 42.288 45.744C42.288 45.296 42.256 44.784 42.192 44.208H43.152C43.2587 44.8907 43.312 45.712 43.312 46.672C43.312 47.5467 43.2587 48.3573 43.152 49.104C43.0667 49.872 42.864 50.5867 42.544 51.248C42.2027 51.9733 41.7227 52.5493 41.104 52.976C40.4853 53.4027 39.792 53.616 39.024 53.616ZM30.864 44.208C30.8 43.952 30.768 43.696 30.768 43.44C30.768 42.7147 31.0133 42.0747 31.504 41.52C32.016 40.9653 32.7093 40.688 33.584 40.688C34.48 40.688 35.216 40.976 35.792 41.552C36.368 42.128 36.72 42.8533 36.848 43.728H36.944C37.4773 42.6613 37.744 41.2213 37.744 39.408V29.808C37.744 27.6107 37.392 26.0427 36.688 25.104C36.0053 24.144 35.0133 23.664 33.712 23.664C32.4107 23.664 31.408 24.144 30.704 25.104C30.0213 26.0427 29.68 27.6107 29.68 29.808V39.408C29.68 41.6267 30.0533 43.2373 30.8 44.24L30.864 44.208ZM33.712 45.552C34.3093 45.552 34.896 45.4347 35.472 45.2C35.472 44.1333 35.3227 43.2907 35.024 42.672C34.7467 42.0533 34.1493 41.744 33.232 41.744C32.784 41.744 32.4107 41.936 32.112 42.32C31.8133 42.704 31.664 43.1307 31.664 43.6C31.664 44.56 31.984 45.168 32.624 45.424C32.7947 45.5093 33.1573 45.552 33.712 45.552Z" fill="#D3AF37"/>
<path d="M50.6822 77.2318C50.6822 81.1462 47.3072 82.9393 44.9734 82.9405C42.3709 82.9405 40.4047 81.7618 39.2341 80.7993C39.3884 83.9837 40.1422 86.2587 43.5247 88.0493H32.4753C35.8578 86.2587 36.6116 83.9837 36.7659 80.7993C35.5953 81.7612 33.6284 82.9418 31.0266 82.9405C28.6959 82.9405 25.3178 81.1462 25.3178 77.2318C25.3178 70.0774 30.3578 72.0243 37.9997 59.9512C45.6422 72.0243 50.6822 70.078 50.6822 77.2318Z" fill="url(#paint1_linear_10_2052)"/>
<path d="M228.682 276.768C228.682 272.854 225.307 271.061 222.973 271.059C220.371 271.059 218.405 272.238 217.234 273.201C217.388 270.016 218.142 267.741 221.525 265.951H210.475C213.858 267.741 214.612 270.016 214.766 273.201C213.595 272.239 211.628 271.058 209.027 271.059C206.696 271.059 203.318 272.854 203.318 276.768C203.318 283.923 208.358 281.976 216 294.049C223.642 281.976 228.682 283.922 228.682 276.768Z" fill="url(#paint2_linear_10_2052)"/>
<line x1="61" y1="37.5" x2="216" y2="37.5" stroke="#D3AF37"/>
<line x1="216.5" y1="37" x2="216.5" y2="260" stroke="#D3AF37"/>
<line x1="193" y1="316.5" x2="38" y2="316.5" stroke="#D3AF37"/>
<line x1="37.5" y1="317" x2="37.5" y2="94" stroke="#D3AF37"/>
<path d="M209.976 300.384C210.595 300.384 211.192 300.555 211.768 300.896C212.344 301.216 212.813 301.685 213.176 302.304C213.539 302.923 213.72 303.648 213.72 304.48C213.72 305.803 213.677 306.859 213.592 307.648C214.104 307.499 214.659 307.424 215.256 307.424C216.941 307.424 218.52 307.989 219.992 309.12C221.443 310.272 222.605 311.765 223.48 313.6C224.333 315.456 224.76 317.387 224.76 319.392C224.76 321.419 224.323 323.349 223.448 325.184C222.573 327.04 221.411 328.533 219.96 329.664C218.488 330.795 216.931 331.36 215.288 331.36C213.645 331.36 212.099 330.795 210.648 329.664C209.176 328.533 208.003 327.04 207.128 325.184C206.253 323.349 205.816 321.419 205.816 319.392C205.816 317.856 206.083 316.352 206.616 314.88C207.128 313.408 207.853 312.096 208.792 310.944C209.709 309.792 210.755 308.907 211.928 308.288C211.843 307.072 211.587 306.133 211.16 305.472C210.712 304.811 210.072 304.48 209.24 304.48C208.387 304.48 207.757 304.843 207.352 305.568C206.925 306.272 206.712 307.168 206.712 308.256C206.712 308.704 206.744 309.216 206.808 309.792H205.848C205.741 309.109 205.688 308.288 205.688 307.328C205.688 306.453 205.741 305.643 205.848 304.896C205.933 304.128 206.136 303.413 206.456 302.752C206.797 302.027 207.277 301.451 207.896 301.024C208.515 300.597 209.208 300.384 209.976 300.384ZM218.136 309.792C218.2 310.048 218.232 310.304 218.232 310.56C218.232 311.285 217.987 311.925 217.496 312.48C216.984 313.035 216.291 313.312 215.416 313.312C214.52 313.312 213.784 313.024 213.208 312.448C212.632 311.872 212.28 311.147 212.152 310.272H212.056C211.523 311.339 211.256 312.779 211.256 314.592V324.192C211.256 326.389 211.608 327.957 212.312 328.896C212.995 329.856 213.987 330.336 215.288 330.336C216.589 330.336 217.592 329.856 218.296 328.896C218.979 327.957 219.32 326.389 219.32 324.192V314.592C219.32 312.373 218.947 310.763 218.2 309.76L218.136 309.792ZM215.288 308.448C214.691 308.448 214.104 308.565 213.528 308.8C213.528 309.867 213.677 310.709 213.976 311.328C214.253 311.947 214.851 312.256 215.768 312.256C216.216 312.256 216.589 312.064 216.888 311.68C217.187 311.296 217.336 310.869 217.336 310.4C217.336 309.44 217.016 308.832 216.376 308.576C216.205 308.491 215.843 308.448 215.288 308.448Z" fill="#D3AF37"/>
<path d="M149.096 258.464C146.621 258.464 144.232 257.781 141.928 256.416C139.624 255.136 137.747 253.259 136.296 250.784C134.845 248.309 134.12 245.408 134.12 242.08C134.12 236.789 134.291 232.565 134.632 229.408C132.584 230.005 130.365 230.304 127.976 230.304C121.235 230.304 114.92 228.043 109.032 223.52C103.229 218.912 98.5787 212.939 95.08 205.6C91.6667 198.176 89.96 190.453 89.96 182.432C89.96 174.325 91.7093 166.603 95.208 159.264C98.7067 151.84 103.357 145.867 109.16 141.344C115.048 136.821 121.277 134.56 127.848 134.56C134.419 134.56 140.605 136.821 146.408 141.344C152.296 145.867 156.989 151.84 160.488 159.264C163.987 166.603 165.736 174.325 165.736 182.432C165.736 188.576 164.669 194.592 162.536 200.48C160.488 206.368 157.587 211.616 153.832 216.224C150.163 220.832 145.981 224.373 141.288 226.848C141.629 231.712 142.653 235.467 144.36 238.112C146.152 240.757 148.712 242.08 152.04 242.08C155.453 242.08 157.971 240.629 159.592 237.728C161.299 234.912 162.152 231.328 162.152 226.976C162.152 225.184 162.024 223.136 161.768 220.832H165.608C166.035 223.563 166.248 226.848 166.248 230.688C166.248 234.187 166.035 237.429 165.608 240.416C165.267 243.488 164.456 246.347 163.176 248.992C161.811 251.893 159.891 254.197 157.416 255.904C154.941 257.611 152.168 258.464 149.096 258.464ZM116.456 220.832C116.2 219.808 116.072 218.784 116.072 217.76C116.072 214.859 117.053 212.299 119.016 210.08C121.064 207.861 123.837 206.752 127.336 206.752C130.92 206.752 133.864 207.904 136.168 210.208C138.472 212.512 139.88 215.413 140.392 218.912H140.776C142.909 214.645 143.976 208.885 143.976 201.632V163.232C143.976 154.443 142.568 148.171 139.752 144.416C137.021 140.576 133.053 138.656 127.848 138.656C122.643 138.656 118.632 140.576 115.816 144.416C113.085 148.171 111.72 154.443 111.72 163.232V201.632C111.72 210.507 113.213 216.949 116.2 220.96L116.456 220.832ZM127.848 226.208C130.237 226.208 132.584 225.739 134.888 224.8C134.888 220.533 134.291 217.163 133.096 214.688C131.987 212.213 129.597 210.976 125.928 210.976C124.136 210.976 122.643 211.744 121.448 213.28C120.253 214.816 119.656 216.523 119.656 218.4C119.656 222.24 120.936 224.672 123.496 225.696C124.179 226.037 125.629 226.208 127.848 226.208Z" fill="url(#paint3_linear_10_2052)"/>
<path d="M147.663 92.7144C145.82 92.7144 144.323 94.2086 144.323 96.0513C144.323 97.2247 144.93 98.2574 145.845 98.8521C144.976 101.832 143.23 106.168 141.648 107.067C138.644 108.773 135.921 106.194 137.239 99.126C138.909 98.943 140.21 97.5264 140.21 95.8081C140.21 93.9639 138.716 92.4698 136.872 92.4698C135.027 92.4698 133.533 93.964 133.533 95.8081C133.533 96.9464 134.105 97.9498 134.975 98.5532C134.084 102.497 132.772 104.071 131.172 103.853C128.755 103.523 128.312 99.164 128.274 93.0776C129.487 92.5781 130.338 91.3842 130.338 89.9926C130.338 88.1484 128.844 86.6543 127 86.6543C125.157 86.6543 123.663 88.1485 123.663 89.9926C123.663 91.3843 124.516 92.5781 125.726 93.0776C125.688 99.1641 125.247 103.523 122.828 103.853C121.228 104.071 119.916 102.497 119.027 98.5533C119.898 97.9498 120.467 96.9464 120.467 95.8082C120.467 93.964 118.973 92.4699 117.13 92.4699C115.284 92.4699 113.79 93.9641 113.79 95.8082C113.79 97.5265 115.091 98.943 116.761 99.1261C118.079 106.194 115.357 108.774 112.354 107.067C110.77 106.168 109.025 101.832 108.156 98.8521C109.072 98.2574 109.677 97.2247 109.677 96.0513C109.677 94.2086 108.183 92.7144 106.337 92.7144C104.496 92.7144 103 94.2086 103 96.0513C103 97.7959 104.339 99.2256 106.044 99.3765L108.457 115.846H145.545L147.956 99.3765C149.663 99.2256 151 97.7959 151 96.0513C151 94.2086 149.506 92.7144 147.663 92.7144Z" fill="url(#paint4_linear_10_2052)"/>
<path d="M109.555 123.346H127H144.446L145.105 118.846H108.896L109.555 123.346Z" fill="url(#paint5_linear_10_2052)"/>
<defs>
<linearGradient id="paint0_linear_10_2052" x1="252" y1="352" x2="2.00002" y2="1.99999" gradientUnits="userSpaceOnUse">
<stop/>
<stop offset="1" stop-color="#3F3E3E"/>
</linearGradient>
<linearGradient id="paint1_linear_10_2052" x1="30.7928" y1="68.2935" x2="41.4775" y2="84.3805" gradientUnits="userSpaceOnUse">
<stop stop-color="#FFE079"/>
<stop offset="0.44" stop-color="#D3AF37"/>
</linearGradient>
<linearGradient id="paint2_linear_10_2052" x1="203" y1="266" x2="228.5" y2="292.5" gradientUnits="userSpaceOnUse">
<stop stop-color="#FFE079"/>
<stop offset="0.44" stop-color="#D3AF37"/>
</linearGradient>
<linearGradient id="paint3_linear_10_2052" x1="85.6465" y1="136" x2="179.247" y2="221.132" gradientUnits="userSpaceOnUse">
<stop offset="0.116628" stop-color="#FFE079"/>
<stop offset="0.423834" stop-color="#D3AF37"/>
</linearGradient>
<linearGradient id="paint4_linear_10_2052" x1="105.424" y1="90.5342" x2="117.17" y2="120.703" gradientUnits="userSpaceOnUse">
<stop offset="0.116628" stop-color="#FFE079"/>
<stop offset="0.423834" stop-color="#D3AF37"/>
</linearGradient>
<linearGradient id="paint5_linear_10_2052" x1="110.725" y1="119.444" x2="111.148" y2="124.766" gradientUnits="userSpaceOnUse">
<stop offset="0.116628" stop-color="#FFE079"/>
<stop offset="0.423834" stop-color="#D3AF37"/>
</linearGradient>
</defs>
</svg>
