<svg width="254" height="354" viewBox="0 0 254 354" fill="none" xmlns="http://www.w3.org/2000/svg">
<path d="M252 344C252 348.418 248.418 352 244 352H10C5.58173 352 2 348.418 2 344V10C2 5.58173 5.58173 2 10 2H244C248.418 2 252 5.58173 252 10V344Z" fill="url(#paint0_linear_10_2177)"/>
<path d="M252 344C252 348.418 248.418 352 244 352H10C5.58173 352 2 348.418 2 344V10C2 5.58173 5.58173 2 10 2H244C248.418 2 252 5.58173 252 10V344Z" stroke="#D3AF37" stroke-width="3"/>
<path d="M237.16 305.024H234.856C234.557 305.024 234.355 305.077 234.248 305.184C234.141 305.312 234.088 305.515 234.088 305.792V323.296H237.16V324.448H235.976C235.037 324.448 234.173 324.651 233.384 325.056C232.573 325.461 232.029 326.037 231.752 326.784H229.352V305.792C229.352 305.515 229.299 305.312 229.192 305.184C229.064 305.077 228.861 305.024 228.584 305.024H226.28V304H237.16V305.024ZM213.157 303.488C214.693 303.488 216.048 304.085 217.221 305.28C218.373 306.475 219.269 307.989 219.909 309.824C220.528 311.68 220.837 313.536 220.837 315.392C220.837 317.248 220.528 319.093 219.909 320.928C219.269 322.784 218.373 324.309 217.221 325.504C216.048 326.699 214.693 327.296 213.157 327.296C211.621 327.296 210.277 326.699 209.125 325.504C207.952 324.309 207.056 322.784 206.438 320.928C205.797 319.093 205.477 317.248 205.477 315.392C205.477 313.536 205.797 311.68 206.438 309.824C207.056 307.989 207.952 306.475 209.125 305.28C210.277 304.085 211.621 303.488 213.157 303.488ZM213.157 304.512C212.368 304.512 211.803 304.939 211.461 305.792C211.099 306.667 210.917 307.605 210.917 308.608V322.176C210.917 323.179 211.099 324.107 211.461 324.96C211.803 325.835 212.368 326.272 213.157 326.272C213.947 326.272 214.523 325.835 214.885 324.96C215.227 324.107 215.397 323.179 215.397 322.176V308.608C215.397 307.605 215.227 306.667 214.885 305.792C214.523 304.939 213.947 304.512 213.157 304.512Z" fill="#D3AF37"/>
<path d="M16.84 48.976H19.144C19.4427 48.976 19.6453 48.9227 19.752 48.816C19.8587 48.688 19.912 48.4853 19.912 48.208V30.704H16.84V29.552H18.024C18.9627 29.552 19.8267 29.3493 20.616 28.944C21.4267 28.5387 21.9707 27.9627 22.248 27.216H24.648V48.208C24.648 48.4853 24.7013 48.688 24.808 48.816C24.936 48.9227 25.1387 48.976 25.416 48.976H27.72V50H16.84V48.976ZM40.8425 50.512C39.3065 50.512 37.9518 49.9147 36.7785 48.72C35.6265 47.5253 34.7305 46.0107 34.0905 44.176C33.4718 42.32 33.1625 40.464 33.1625 38.608C33.1625 36.752 33.4718 34.9067 34.0905 33.072C34.7305 31.216 35.6265 29.6907 36.7785 28.496C37.9518 27.3013 39.3065 26.704 40.8425 26.704C42.3785 26.704 43.7225 27.3013 44.8745 28.496C46.0478 29.6907 46.9438 31.216 47.5625 33.072C48.2025 34.9067 48.5225 36.752 48.5225 38.608C48.5225 40.464 48.2025 42.32 47.5625 44.176C46.9438 46.0107 46.0478 47.5253 44.8745 48.72C43.7225 49.9147 42.3785 50.512 40.8425 50.512ZM40.8425 49.488C41.6318 49.488 42.1972 49.0613 42.5385 48.208C42.9012 47.3333 43.0825 46.3947 43.0825 45.392V31.824C43.0825 30.8213 42.9012 29.8933 42.5385 29.04C42.1972 28.1653 41.6318 27.728 40.8425 27.728C40.0532 27.728 39.4772 28.1653 39.1145 29.04C38.7732 29.8933 38.6025 30.8213 38.6025 31.824V45.392C38.6025 46.3947 38.7732 47.3333 39.1145 48.208C39.4772 49.0613 40.0532 49.488 40.8425 49.488Z" fill="#D3AF37"/>
<path d="M215.659 286.384C215.659 284.427 217.346 283.53 218.513 283.53C219.815 283.53 220.798 284.119 221.383 284.6C221.306 283.008 220.929 281.871 219.238 280.975H224.762C223.071 281.871 222.694 283.008 222.617 284.6C223.202 284.119 224.186 283.529 225.487 283.53C226.652 283.53 228.341 284.427 228.341 286.384C228.341 289.961 225.821 288.988 222 295.024C218.179 288.988 215.659 289.961 215.659 286.384Z" fill="url(#paint1_linear_10_2177)"/>
<path d="M82 292.32C82 287.862 77.7421 285.82 74.7978 285.818C71.5144 285.818 69.0338 287.161 67.5569 288.257C67.7517 284.63 68.7026 282.039 72.97 280H59.03C63.2974 282.039 64.2483 284.63 64.4431 288.257C62.9662 287.161 60.4848 285.817 57.2022 285.818C54.2619 285.818 50 287.862 50 292.32C50 300.468 56.3585 298.25 65.9996 312C75.6415 298.25 82 300.467 82 292.32Z" fill="black"/>
<path d="M82 292.32C82 287.862 77.7421 285.82 74.7978 285.818C71.5144 285.818 69.0338 287.161 67.5569 288.257C67.7517 284.63 68.7026 282.039 72.97 280H59.03C63.2974 282.039 64.2483 284.63 64.4431 288.257C62.9662 287.161 60.4848 285.817 57.2022 285.818C54.2619 285.818 50 287.862 50 292.32C50 300.468 56.3585 298.25 65.9996 312C75.6415 298.25 82 300.467 82 292.32Z" fill="url(#paint2_linear_10_2177)"/>
<path d="M82 223.32C82 218.862 77.7421 216.82 74.7978 216.818C71.5144 216.818 69.0338 218.161 67.5569 219.257C67.7517 215.63 68.7026 213.039 72.97 211H59.03C63.2974 213.039 64.2483 215.63 64.4431 219.257C62.9662 218.161 60.4848 216.817 57.2022 216.818C54.2619 216.818 50 218.862 50 223.32C50 231.468 56.3585 229.25 65.9996 243C75.6415 229.25 82 231.467 82 223.32Z" fill="url(#paint3_linear_10_2177)"/>
<path d="M204 223.32C204 218.862 199.742 216.82 196.798 216.818C193.514 216.818 191.034 218.161 189.557 219.257C189.752 215.63 190.703 213.039 194.97 211H181.03C185.297 213.039 186.248 215.63 186.443 219.257C184.966 218.161 182.485 216.817 179.202 216.818C176.262 216.818 172 218.862 172 223.32C172 231.468 178.359 229.25 188 243C197.641 229.25 204 231.467 204 223.32Z" fill="url(#paint4_linear_10_2177)"/>
<path d="M204 292.32C204 287.862 199.742 285.82 196.798 285.818C193.514 285.818 191.034 287.161 189.557 288.257C189.752 284.63 190.703 282.039 194.97 280H181.03C185.297 282.039 186.248 284.63 186.443 288.257C184.966 287.161 182.485 285.817 179.202 285.818C176.262 285.818 172 287.862 172 292.32C172 300.468 178.359 298.25 188 312C197.641 298.25 204 300.467 204 292.32Z" fill="url(#paint5_linear_10_2177)"/>
<path d="M82 61.6803C82 66.1383 77.7421 68.1804 74.7978 68.1818C71.5144 68.1818 69.0338 66.8394 67.5569 65.7432C67.7517 69.3698 68.7026 71.9607 72.97 74H59.03C63.2974 71.9607 64.2483 69.3698 64.4431 65.7432C62.9662 66.8387 60.4848 68.1832 57.2022 68.1818C54.2619 68.1818 50 66.1383 50 61.6803C50 53.5324 56.3585 55.7497 65.9996 42C75.6415 55.7497 82 53.5332 82 61.6803Z" fill="url(#paint6_linear_10_2177)"/>
<path d="M204 61.6803C204 66.1383 199.742 68.1804 196.798 68.1818C193.514 68.1818 191.034 66.8394 189.557 65.7432C189.752 69.3698 190.703 71.9607 194.97 74H181.03C185.297 71.9607 186.248 69.3698 186.443 65.7432C184.966 66.8387 182.485 68.1832 179.202 68.1818C176.262 68.1818 172 66.1383 172 61.6803C172 53.5324 178.359 55.7497 188 42C197.641 55.7497 204 53.5332 204 61.6803Z" fill="url(#paint7_linear_10_2177)"/>
<path d="M82 130.68C82 135.138 77.7421 137.18 74.7978 137.182C71.5144 137.182 69.0338 135.839 67.5569 134.743C67.7517 138.37 68.7026 140.961 72.97 143H59.03C63.2974 140.961 64.2483 138.37 64.4431 134.743C62.9662 135.839 60.4848 137.183 57.2022 137.182C54.2619 137.182 50 135.138 50 130.68C50 122.532 56.3585 124.75 65.9996 111C75.6415 124.75 82 122.533 82 130.68Z" fill="url(#paint8_linear_10_2177)"/>
<path d="M204 130.68C204 135.138 199.742 137.18 196.798 137.182C193.514 137.182 191.034 135.839 189.557 134.743C189.752 138.37 190.703 140.961 194.97 143H181.03C185.297 140.961 186.248 138.37 186.443 134.743C184.966 135.839 182.485 137.183 179.202 137.182C176.262 137.182 172 135.138 172 130.68C172 122.532 178.359 124.75 188 111C197.641 124.75 204 122.533 204 130.68Z" fill="url(#paint9_linear_10_2177)"/>
<path d="M143 93.6803C143 98.1383 138.742 100.18 135.798 100.182C132.514 100.182 130.034 98.8394 128.557 97.7432C128.752 101.37 129.703 103.961 133.97 106H120.03C124.297 103.961 125.248 101.37 125.443 97.7432C123.966 98.8387 121.485 100.183 118.202 100.182C115.262 100.182 111 98.1383 111 93.6803C111 85.5324 117.359 87.7497 127 74C136.641 87.7497 143 85.5332 143 93.6803Z" fill="url(#paint10_linear_10_2177)"/>
<path d="M143 260.32C143 255.862 138.742 253.82 135.798 253.818C132.514 253.818 130.034 255.161 128.557 256.257C128.752 252.63 129.703 250.039 133.97 248H120.03C124.297 250.039 125.248 252.63 125.443 256.257C123.966 255.161 121.485 253.817 118.202 253.818C115.262 253.818 111 255.862 111 260.32C111 268.468 117.359 266.25 127 280C136.641 266.25 143 268.467 143 260.32Z" fill="url(#paint11_linear_10_2177)"/>
<path d="M38.3411 67.6159C38.3411 69.5731 36.6536 70.4696 35.4867 70.4703C34.1855 70.4703 33.2023 69.8809 32.617 69.3996C32.6942 70.9918 33.0711 72.1293 34.7623 73.0246H29.2377C30.9289 72.1293 31.3058 70.9918 31.383 69.3996C30.7977 69.8806 29.8142 70.4709 28.5133 70.4703C27.348 70.4703 25.6589 69.5731 25.6589 67.6159C25.6589 64.0387 28.1789 65.0121 31.9998 58.9756C35.8211 65.0121 38.3411 64.039 38.3411 67.6159Z" fill="url(#paint12_linear_10_2177)"/>
<defs>
<linearGradient id="paint0_linear_10_2177" x1="2" y1="2" x2="252" y2="352" gradientUnits="userSpaceOnUse">
<stop stop-color="#3F3E3E"/>
<stop offset="1"/>
</linearGradient>
<linearGradient id="paint1_linear_10_2177" x1="228.5" y1="281" x2="215.75" y2="294.25" gradientUnits="userSpaceOnUse">
<stop stop-color="#FFE079"/>
<stop offset="0.44" stop-color="#D3AF37"/>
</linearGradient>
<linearGradient id="paint2_linear_10_2177" x1="58.5" y1="285.5" x2="71.0242" y2="304.783" gradientUnits="userSpaceOnUse">
<stop stop-color="#FFE079"/>
<stop offset="0.44" stop-color="#D3AF37"/>
</linearGradient>
<linearGradient id="paint3_linear_10_2177" x1="58.5" y1="217" x2="72.0138" y2="236.385" gradientUnits="userSpaceOnUse">
<stop stop-color="#FFE079"/>
<stop offset="0.44" stop-color="#D3AF37"/>
</linearGradient>
<linearGradient id="paint4_linear_10_2177" x1="180" y1="216.5" x2="193.666" y2="234.4" gradientUnits="userSpaceOnUse">
<stop stop-color="#FFE079"/>
<stop offset="0.44" stop-color="#D3AF37"/>
</linearGradient>
<linearGradient id="paint5_linear_10_2177" x1="181.5" y1="285" x2="193.58" y2="303.738" gradientUnits="userSpaceOnUse">
<stop stop-color="#FFE079"/>
<stop offset="0.44" stop-color="#D3AF37"/>
</linearGradient>
<linearGradient id="paint6_linear_10_2177" x1="56.9073" y1="51.5008" x2="68.5517" y2="70.9223" gradientUnits="userSpaceOnUse">
<stop stop-color="#FFE079"/>
<stop offset="0.44" stop-color="#D3AF37"/>
</linearGradient>
<linearGradient id="paint7_linear_10_2177" x1="178.907" y1="51.5008" x2="190.552" y2="70.9223" gradientUnits="userSpaceOnUse">
<stop stop-color="#FFE079"/>
<stop offset="0.44" stop-color="#D3AF37"/>
</linearGradient>
<linearGradient id="paint8_linear_10_2177" x1="56.9073" y1="120.501" x2="68.5517" y2="139.922" gradientUnits="userSpaceOnUse">
<stop stop-color="#FFE079"/>
<stop offset="0.44" stop-color="#D3AF37"/>
</linearGradient>
<linearGradient id="paint9_linear_10_2177" x1="178.907" y1="120.501" x2="190.552" y2="139.922" gradientUnits="userSpaceOnUse">
<stop stop-color="#FFE079"/>
<stop offset="0.44" stop-color="#D3AF37"/>
</linearGradient>
<linearGradient id="paint10_linear_10_2177" x1="117.907" y1="83.5008" x2="129.552" y2="102.922" gradientUnits="userSpaceOnUse">
<stop stop-color="#FFE079"/>
<stop offset="0.44" stop-color="#D3AF37"/>
</linearGradient>
<linearGradient id="paint11_linear_10_2177" x1="117.5" y1="254.5" x2="132.65" y2="272.552" gradientUnits="userSpaceOnUse">
<stop stop-color="#FFE079"/>
<stop offset="0.44" stop-color="#D3AF37"/>
</linearGradient>
<linearGradient id="paint12_linear_10_2177" x1="28.3964" y1="63.1468" x2="33.7388" y2="71.1903" gradientUnits="userSpaceOnUse">
<stop stop-color="#FFE079"/>
<stop offset="0.44" stop-color="#D3AF37"/>
</linearGradient>
</defs>
</svg>
