<svg width="254" height="354" viewBox="0 0 254 354" fill="none" xmlns="http://www.w3.org/2000/svg">
<path d="M252 344C252 348.418 248.418 352 244 352H10C5.58173 352 2 348.418 2 344V10C2 5.58173 5.58173 2 10 2H244C248.418 2 252 5.58173 252 10V344Z" fill="url(#paint0_linear_10_2068)"/>
<path d="M252 344C252 348.418 248.418 352 244 352H10C5.58173 352 2 348.418 2 344V10C2 5.58173 5.58173 2 10 2H244C248.418 2 252 5.58173 252 10V344Z" stroke="#D3AF37" stroke-width="3"/>
<path d="M221.248 303.488C222.613 303.488 224 304.277 225.408 305.856C225.813 306.304 226.155 306.613 226.432 306.784C226.688 306.976 227.008 307.072 227.392 307.072C227.691 307.072 227.936 306.976 228.128 306.784C228.32 306.613 228.416 306.368 228.416 306.048V304H229.696V305.504C229.696 306.336 229.621 307.115 229.472 307.84C229.301 308.587 228.917 309.451 228.32 310.432C227.723 311.435 226.805 312.523 225.568 313.696C224.011 315.211 222.805 316.587 221.952 317.824C221.099 319.083 220.672 320.448 220.672 321.92C220.672 323.115 220.917 324.117 221.408 324.928C221.899 325.739 222.731 326.144 223.904 326.144C224.715 326.144 225.397 325.877 225.952 325.344C226.485 324.832 226.752 324.224 226.752 323.52C226.752 322.667 226.453 322.027 225.856 321.6C225.387 321.259 225.035 320.917 224.8 320.576C224.544 320.256 224.416 319.851 224.416 319.36C224.416 318.805 224.619 318.347 225.024 317.984C225.429 317.621 225.941 317.44 226.56 317.44C227.477 317.44 228.277 317.771 228.96 318.432C229.621 319.093 229.952 319.979 229.952 321.088C229.952 322.219 229.653 323.253 229.056 324.192C228.437 325.152 227.605 325.909 226.56 326.464C225.493 327.019 224.32 327.296 223.04 327.296C220.693 327.296 218.912 326.752 217.696 325.664C216.48 324.597 215.872 323.179 215.872 321.408C215.872 320.192 216.256 319.093 217.024 318.112C217.771 317.131 218.688 316.277 219.776 315.552C220.843 314.848 222.197 314.059 223.84 313.184C224.757 312.672 225.621 312.021 226.432 311.232C227.243 310.443 227.797 309.493 228.096 308.384L227.968 308.32C227.2 308.939 226.336 309.248 225.376 309.248C224.992 309.248 224.533 309.195 224 309.088C223.445 308.981 222.987 308.864 222.624 308.736C221.557 308.395 220.587 308.224 219.712 308.224C218.944 308.224 218.304 308.448 217.792 308.896C217.28 309.365 217.024 309.909 217.024 310.528C217.024 311.147 217.077 311.861 217.184 312.672H216.192C216.064 311.755 216 310.923 216 310.176C216 309.088 216.181 308.032 216.544 307.008C216.885 306.005 217.451 305.163 218.24 304.48C219.029 303.819 220.032 303.488 221.248 303.488Z" fill="#D3AF37"/>
<path d="M32.752 50.512C31.3867 50.512 30 49.7227 28.592 48.144C28.1867 47.696 27.8453 47.3867 27.568 47.216C27.312 47.024 26.992 46.928 26.608 46.928C26.3093 46.928 26.064 47.024 25.872 47.216C25.68 47.3867 25.584 47.632 25.584 47.952V50H24.304V48.496C24.304 47.664 24.3787 46.8853 24.528 46.16C24.6987 45.4133 25.0827 44.5493 25.68 43.568C26.2773 42.5653 27.1947 41.4773 28.432 40.304C29.9893 38.7893 31.1947 37.4133 32.048 36.176C32.9013 34.9173 33.328 33.552 33.328 32.08C33.328 30.8853 33.0827 29.8827 32.592 29.072C32.1013 28.2613 31.2693 27.856 30.096 27.856C29.2853 27.856 28.6027 28.1227 28.048 28.656C27.5147 29.168 27.248 29.776 27.248 30.48C27.248 31.3333 27.5467 31.9733 28.144 32.4C28.6133 32.7413 28.9653 33.0827 29.2 33.424C29.456 33.744 29.584 34.1493 29.584 34.64C29.584 35.1947 29.3813 35.6533 28.976 36.016C28.5707 36.3787 28.0587 36.56 27.44 36.56C26.5227 36.56 25.7227 36.2293 25.04 35.568C24.3787 34.9067 24.048 34.0213 24.048 32.912C24.048 31.7813 24.3467 30.7467 24.944 29.808C25.5627 28.848 26.3947 28.0907 27.44 27.536C28.5067 26.9813 29.68 26.704 30.96 26.704C33.3067 26.704 35.088 27.248 36.304 28.336C37.52 29.4027 38.128 30.8213 38.128 32.592C38.128 33.808 37.744 34.9067 36.976 35.888C36.2293 36.8693 35.312 37.7227 34.224 38.448C33.1573 39.152 31.8027 39.9413 30.16 40.816C29.2427 41.328 28.3787 41.9787 27.568 42.768C26.7573 43.5573 26.2027 44.5067 25.904 45.616L26.032 45.68C26.8 45.0613 27.664 44.752 28.624 44.752C29.008 44.752 29.4667 44.8053 30 44.912C30.5547 45.0187 31.0133 45.136 31.376 45.264C32.4427 45.6053 33.4133 45.776 34.288 45.776C35.056 45.776 35.696 45.552 36.208 45.104C36.72 44.6347 36.976 44.0907 36.976 43.472C36.976 42.8533 36.9227 42.1387 36.816 41.328H37.808C37.936 42.2453 38 43.0773 38 43.824C38 44.912 37.8187 45.968 37.456 46.992C37.1147 47.9947 36.5493 48.8373 35.76 49.52C34.9707 50.1813 33.968 50.512 32.752 50.512Z" fill="#D3AF37"/>
<path d="M228.341 286.384C228.341 284.427 226.654 283.53 225.487 283.53C224.185 283.53 223.202 284.119 222.617 284.6C222.694 283.008 223.071 281.871 224.762 280.975H219.238C220.929 281.871 221.306 283.008 221.383 284.6C220.798 284.12 219.814 283.529 218.513 283.53C217.348 283.53 215.659 284.427 215.659 286.384C215.659 289.961 218.179 288.988 222 295.025C225.821 288.988 228.341 289.961 228.341 286.384Z" fill="url(#paint1_linear_10_2068)"/>
<path d="M143 276.32C143 271.862 138.742 269.82 135.798 269.818C132.514 269.818 130.034 271.161 128.557 272.257C128.752 268.63 129.703 266.039 133.97 264H120.03C124.297 266.039 125.248 268.63 125.443 272.257C123.966 271.161 121.485 269.817 118.202 269.818C115.262 269.818 111 271.862 111 276.32C111 284.468 117.359 282.25 127 296C136.641 282.25 143 284.467 143 276.32Z" fill="url(#paint2_linear_10_2068)"/>
<path d="M143 77.6803C143 82.1383 138.742 84.1804 135.798 84.1818C132.514 84.1818 130.034 82.8394 128.557 81.7432C128.752 85.3698 129.703 87.9607 133.97 90H120.03C124.297 87.9607 125.248 85.3698 125.443 81.7432C123.966 82.8387 121.485 84.1832 118.202 84.1818C115.262 84.1818 111 82.1383 111 77.6803C111 69.5324 117.359 71.7497 127 58C136.641 71.7497 143 69.5332 143 77.6803Z" fill="url(#paint3_linear_10_2068)"/>
<path d="M38.3411 67.6158C38.3411 69.573 36.6536 70.4695 35.4867 70.4702C34.1855 70.4702 33.2023 69.8808 32.617 69.3995C32.6942 70.9917 33.0711 72.1292 34.7623 73.0245H29.2377C30.9289 72.1292 31.3058 70.9917 31.383 69.3995C30.7977 69.8805 29.8142 70.4708 28.5133 70.4702C27.348 70.4702 25.6589 69.573 25.6589 67.6158C25.6589 64.0386 28.1789 65.012 31.9998 58.9755C35.8211 65.012 38.3411 64.0389 38.3411 67.6158Z" fill="url(#paint4_linear_10_2068)"/>
<defs>
<linearGradient id="paint0_linear_10_2068" x1="2" y1="2" x2="252" y2="352" gradientUnits="userSpaceOnUse">
<stop stop-color="#3F3E3E"/>
<stop offset="1"/>
</linearGradient>
<linearGradient id="paint1_linear_10_2068" x1="218.5" y1="283.5" x2="226" y2="291" gradientUnits="userSpaceOnUse">
<stop stop-color="#FFE079"/>
<stop offset="0.44" stop-color="#D3AF37"/>
</linearGradient>
<linearGradient id="paint2_linear_10_2068" x1="119" y1="272" x2="135.191" y2="289.659" gradientUnits="userSpaceOnUse">
<stop stop-color="#FFE079"/>
<stop offset="0.44" stop-color="#D3AF37"/>
</linearGradient>
<linearGradient id="paint3_linear_10_2068" x1="117.907" y1="67.5008" x2="129.552" y2="86.9223" gradientUnits="userSpaceOnUse">
<stop stop-color="#FFE079"/>
<stop offset="0.44" stop-color="#D3AF37"/>
</linearGradient>
<linearGradient id="paint4_linear_10_2068" x1="28.3964" y1="63.1466" x2="33.7388" y2="71.1901" gradientUnits="userSpaceOnUse">
<stop stop-color="#FFE079"/>
<stop offset="0.44" stop-color="#D3AF37"/>
</linearGradient>
</defs>
</svg>
