<svg width="254" height="354" viewBox="0 0 254 354" fill="none" xmlns="http://www.w3.org/2000/svg">
<path d="M252 344C252 348.418 248.418 352 244 352H10C5.58173 352 2 348.418 2 344V10C2 5.58173 5.58173 2 10 2H244C248.418 2 252 5.58173 252 10V344Z" fill="url(#paint0_linear_10_2089)"/>
<path d="M252 344C252 348.418 248.418 352 244 352H10C5.58173 352 2 348.418 2 344V10C2 5.58173 5.58173 2 10 2H244C248.418 2 252 5.58173 252 10V344Z" stroke="#D3AF37" stroke-width="3"/>
<path d="M227.2 305.024H224.128C223.829 305.024 223.627 305.077 223.52 305.184C223.413 305.312 223.36 305.515 223.36 305.792V310.528H230.4V311.712L221.984 326.816H218.624V311.68H215.168V310.528H218.624V305.792C218.624 305.515 218.571 305.312 218.464 305.184C218.336 305.077 218.133 305.024 217.856 305.024H215.552V304H227.2V305.024ZM228.8 311.68H223.36V321.408L228.8 311.68Z" fill="#D3AF37"/>
<path d="M26.8 48.976H29.872C30.1707 48.976 30.3733 48.9227 30.48 48.816C30.5867 48.688 30.64 48.4853 30.64 48.208V43.472H23.6V42.288L32.016 27.184H35.376V42.32H38.832V43.472H35.376V48.208C35.376 48.4853 35.4293 48.688 35.536 48.816C35.664 48.9227 35.8667 48.976 36.144 48.976H38.448V50H26.8V48.976ZM25.2 42.32H30.64V32.592L25.2 42.32Z" fill="#D3AF37"/>
<path d="M228.341 286.384C228.341 284.427 226.654 283.53 225.487 283.53C224.185 283.53 223.202 284.119 222.617 284.6C222.694 283.008 223.071 281.871 224.762 280.975H219.238C220.929 281.871 221.306 283.008 221.383 284.6C220.798 284.12 219.814 283.529 218.513 283.53C217.348 283.53 215.659 284.427 215.659 286.384C215.659 289.961 218.179 288.988 222 295.025C225.821 288.988 228.341 289.961 228.341 286.384Z" fill="url(#paint1_linear_10_2089)"/>
<path d="M82 292.32C82 287.862 77.7421 285.82 74.7978 285.818C71.5144 285.818 69.0338 287.161 67.5569 288.257C67.7517 284.63 68.7026 282.039 72.97 280H59.03C63.2974 282.039 64.2483 284.63 64.4431 288.257C62.9662 287.161 60.4848 285.817 57.2022 285.818C54.2619 285.818 50 287.862 50 292.32C50 300.468 56.3585 298.25 65.9996 312C75.6415 298.25 82 300.467 82 292.32Z" fill="url(#paint2_linear_10_2089)"/>
<path d="M204 292.32C204 287.862 199.742 285.82 196.798 285.818C193.514 285.818 191.034 287.161 189.557 288.257C189.752 284.63 190.703 282.039 194.97 280H181.03C185.297 282.039 186.248 284.63 186.443 288.257C184.966 287.161 182.485 285.817 179.202 285.818C176.262 285.818 172 287.862 172 292.32C172 300.468 178.359 298.25 188 312C197.641 298.25 204 300.467 204 292.32Z" fill="url(#paint3_linear_10_2089)"/>
<path d="M204 61.6803C204 66.1383 199.742 68.1804 196.798 68.1818C193.514 68.1818 191.034 66.8394 189.557 65.7432C189.752 69.3698 190.703 71.9607 194.97 74H181.03C185.297 71.9607 186.248 69.3698 186.443 65.7432C184.966 66.8387 182.485 68.1832 179.202 68.1818C176.262 68.1818 172 66.1383 172 61.6803C172 53.5324 178.359 55.7497 188 42C197.641 55.7497 204 53.5332 204 61.6803Z" fill="url(#paint4_linear_10_2089)"/>
<path d="M82 61.6803C82 66.1383 77.7421 68.1804 74.7978 68.1818C71.5144 68.1818 69.0338 66.8394 67.5569 65.7432C67.7517 69.3698 68.7026 71.9607 72.97 74H59.03C63.2974 71.9607 64.2483 69.3698 64.4431 65.7432C62.9662 66.8387 60.4848 68.1832 57.2022 68.1818C54.2619 68.1818 50 66.1383 50 61.6803C50 53.5324 56.3585 55.7497 65.9996 42C75.6415 55.7497 82 53.5332 82 61.6803Z" fill="url(#paint5_linear_10_2089)"/>
<path d="M38.3411 67.6158C38.3411 69.573 36.6536 70.4695 35.4867 70.4702C34.1855 70.4702 33.2023 69.8808 32.617 69.3995C32.6942 70.9917 33.0711 72.1292 34.7623 73.0245H29.2377C30.9289 72.1292 31.3058 70.9917 31.383 69.3995C30.7977 69.8805 29.8142 70.4708 28.5133 70.4702C27.348 70.4702 25.6589 69.573 25.6589 67.6158C25.6589 64.0386 28.1789 65.012 31.9998 58.9755C35.8211 65.012 38.3411 64.0389 38.3411 67.6158Z" fill="url(#paint6_linear_10_2089)"/>
<defs>
<linearGradient id="paint0_linear_10_2089" x1="2" y1="2" x2="252" y2="352" gradientUnits="userSpaceOnUse">
<stop stop-color="#3F3E3E"/>
<stop offset="1"/>
</linearGradient>
<linearGradient id="paint1_linear_10_2089" x1="219.5" y1="285" x2="224.5" y2="290.5" gradientUnits="userSpaceOnUse">
<stop stop-color="#FFE079"/>
<stop offset="0.44" stop-color="#D3AF37"/>
</linearGradient>
<linearGradient id="paint2_linear_10_2089" x1="58" y1="286" x2="72.6049" y2="304.496" gradientUnits="userSpaceOnUse">
<stop stop-color="#FFE079"/>
<stop offset="0.44" stop-color="#D3AF37"/>
</linearGradient>
<linearGradient id="paint3_linear_10_2089" x1="180.5" y1="286.5" x2="192.136" y2="304.692" gradientUnits="userSpaceOnUse">
<stop stop-color="#FFE079"/>
<stop offset="0.44" stop-color="#D3AF37"/>
</linearGradient>
<linearGradient id="paint4_linear_10_2089" x1="178.907" y1="51.5008" x2="190.552" y2="70.9223" gradientUnits="userSpaceOnUse">
<stop stop-color="#FFE079"/>
<stop offset="0.44" stop-color="#D3AF37"/>
</linearGradient>
<linearGradient id="paint5_linear_10_2089" x1="56.9073" y1="51.5008" x2="68.5517" y2="70.9223" gradientUnits="userSpaceOnUse">
<stop stop-color="#FFE079"/>
<stop offset="0.44" stop-color="#D3AF37"/>
</linearGradient>
<linearGradient id="paint6_linear_10_2089" x1="28.3964" y1="63.1466" x2="33.7388" y2="71.1901" gradientUnits="userSpaceOnUse">
<stop stop-color="#FFE079"/>
<stop offset="0.44" stop-color="#D3AF37"/>
</linearGradient>
</defs>
</svg>
