<svg width="254" height="354" viewBox="0 0 254 354" fill="none" xmlns="http://www.w3.org/2000/svg">
<path d="M252 344C252 348.418 248.418 352 244 352H10C5.58173 352 2 348.418 2 344V10C2 5.58173 5.58173 2 10 2H244C248.418 2 252 5.58173 252 10V344Z" fill="url(#paint0_linear_10_2114)"/>
<path d="M252 344C252 348.418 248.418 352 244 352H10C5.58173 352 2 348.418 2 344V10C2 5.58173 5.58173 2 10 2H244C248.418 2 252 5.58173 252 10V344Z" stroke="#D3AF37" stroke-width="3"/>
<path d="M221.952 303.488C223.531 303.488 224.907 304 226.08 305.024C227.232 306.048 228.128 307.424 228.768 309.152C229.387 310.88 229.696 312.779 229.696 314.848C229.696 317.301 229.355 319.467 228.672 321.344C227.968 323.221 226.965 324.683 225.664 325.728C224.363 326.773 222.827 327.296 221.056 327.296C220.053 327.296 219.189 327.083 218.464 326.656C217.739 326.251 217.195 325.717 216.832 325.056C216.448 324.395 216.256 323.691 216.256 322.944C216.256 322.027 216.523 321.248 217.056 320.608C217.589 319.968 218.283 319.648 219.136 319.648C219.776 319.648 220.299 319.84 220.704 320.224C221.088 320.629 221.28 321.152 221.28 321.792C221.28 322.773 220.8 323.435 219.84 323.776C219.413 323.925 219.093 324.075 218.88 324.224C218.667 324.373 218.56 324.565 218.56 324.8C218.56 325.227 218.784 325.579 219.232 325.856C219.68 326.133 220.299 326.272 221.088 326.272C222.283 326.272 223.168 325.76 223.744 324.736C224.299 323.712 224.576 322.485 224.576 321.056V316.48L224.384 316.384C224.043 316.725 223.595 316.981 223.04 317.152C222.485 317.344 221.899 317.44 221.28 317.44C219.147 317.44 217.557 316.811 216.512 315.552C215.445 314.293 214.912 312.683 214.912 310.72C214.912 309.504 215.168 308.341 215.68 307.232C216.171 306.144 216.949 305.248 218.016 304.544C219.061 303.84 220.373 303.488 221.952 303.488ZM221.984 304.512C221.259 304.512 220.736 304.757 220.416 305.248C220.075 305.76 219.861 306.4 219.776 307.168C219.691 307.957 219.648 309.035 219.648 310.4C219.648 312.128 219.797 313.525 220.096 314.592C220.373 315.68 220.907 316.224 221.696 316.224C222.848 316.224 223.637 315.776 224.064 314.88C224.277 314.475 224.416 313.909 224.48 313.184C224.544 312.459 224.576 311.477 224.576 310.24C224.576 308.299 224.373 306.859 223.968 305.92C223.563 304.981 222.901 304.512 221.984 304.512Z" fill="#D3AF37"/>
<path d="M32.048 50.512C30.4693 50.512 29.0933 50 27.92 48.976C26.768 47.952 25.872 46.576 25.232 44.848C24.6133 43.12 24.304 41.2213 24.304 39.152C24.304 36.6987 24.6453 34.5333 25.328 32.656C26.032 30.7787 27.0347 29.3173 28.336 28.272C29.6373 27.2267 31.1733 26.704 32.944 26.704C33.9467 26.704 34.8107 26.9173 35.536 27.344C36.2613 27.7493 36.8053 28.2827 37.168 28.944C37.552 29.6053 37.744 30.3093 37.744 31.056C37.744 31.9733 37.4773 32.752 36.944 33.392C36.4107 34.032 35.7173 34.352 34.864 34.352C34.224 34.352 33.7013 34.16 33.296 33.776C32.912 33.3707 32.72 32.848 32.72 32.208C32.72 31.2267 33.2 30.5653 34.16 30.224C34.5867 30.0747 34.9067 29.9253 35.12 29.776C35.3333 29.6267 35.44 29.4347 35.44 29.2C35.44 28.7733 35.216 28.4213 34.768 28.144C34.32 27.8667 33.7013 27.728 32.912 27.728C31.7173 27.728 30.832 28.24 30.256 29.264C29.7013 30.288 29.424 31.5147 29.424 32.944V37.52L29.616 37.616C29.9573 37.2747 30.4053 37.0187 30.96 36.848C31.5147 36.656 32.1013 36.56 32.72 36.56C34.8533 36.56 36.4427 37.1893 37.488 38.448C38.5547 39.7067 39.088 41.3173 39.088 43.28C39.088 44.496 38.832 45.6587 38.32 46.768C37.8293 47.856 37.0507 48.752 35.984 49.456C34.9387 50.16 33.6267 50.512 32.048 50.512ZM32.016 49.488C32.7413 49.488 33.264 49.2427 33.584 48.752C33.9253 48.24 34.1387 47.6 34.224 46.832C34.3093 46.0427 34.352 44.9653 34.352 43.6C34.352 41.872 34.2027 40.4747 33.904 39.408C33.6267 38.32 33.0933 37.776 32.304 37.776C31.152 37.776 30.3627 38.224 29.936 39.12C29.7227 39.5253 29.584 40.0907 29.52 40.816C29.456 41.5413 29.424 42.5227 29.424 43.76C29.424 45.7013 29.6267 47.1413 30.032 48.08C30.4373 49.0187 31.0987 49.488 32.016 49.488Z" fill="#D3AF37"/>
<path d="M228.341 286.384C228.341 284.427 226.654 283.53 225.487 283.53C224.185 283.53 223.202 284.119 222.617 284.6C222.694 283.008 223.071 281.871 224.762 280.975H219.238C220.929 281.871 221.306 283.008 221.383 284.6C220.798 284.119 219.814 283.529 218.513 283.53C217.348 283.53 215.659 284.427 215.659 286.384C215.659 289.961 218.179 288.988 222 295.024C225.821 288.988 228.341 289.961 228.341 286.384Z" fill="url(#paint1_linear_10_2114)"/>
<path d="M82 292.32C82 287.862 77.7421 285.82 74.7978 285.818C71.5144 285.818 69.0338 287.161 67.5569 288.257C67.7517 284.63 68.7026 282.039 72.97 280H59.03C63.2974 282.039 64.2483 284.63 64.4431 288.257C62.9662 287.161 60.4848 285.817 57.2022 285.818C54.2619 285.818 50 287.862 50 292.32C50 300.468 56.3585 298.25 65.9996 312C75.6415 298.25 82 300.467 82 292.32Z" fill="url(#paint2_linear_10_2114)"/>
<path d="M204 292.32C204 287.862 199.742 285.82 196.798 285.818C193.514 285.818 191.034 287.161 189.557 288.257C189.752 284.63 190.703 282.039 194.97 280H181.03C185.297 282.039 186.248 284.63 186.443 288.257C184.966 287.161 182.485 285.817 179.202 285.818C176.262 285.818 172 287.862 172 292.32C172 300.468 178.359 298.25 188 312C197.641 298.25 204 300.467 204 292.32Z" fill="url(#paint3_linear_10_2114)"/>
<path d="M204 61.6803C204 66.1383 199.742 68.1804 196.798 68.1818C193.514 68.1818 191.034 66.8394 189.557 65.7432C189.752 69.3698 190.703 71.9607 194.97 74H181.03C185.297 71.9607 186.248 69.3698 186.443 65.7432C184.966 66.8387 182.485 68.1832 179.202 68.1818C176.262 68.1818 172 66.1383 172 61.6803C172 53.5324 178.359 55.7497 188 42C197.641 55.7497 204 53.5332 204 61.6803Z" fill="url(#paint4_linear_10_2114)"/>
<path d="M82 61.6803C82 66.1383 77.7421 68.1804 74.7978 68.1818C71.5144 68.1818 69.0338 66.8394 67.5569 65.7432C67.7517 69.3698 68.7026 71.9607 72.97 74H59.03C63.2974 71.9607 64.2483 69.3698 64.4431 65.7432C62.9662 66.8387 60.4848 68.1832 57.2022 68.1818C54.2619 68.1818 50 66.1383 50 61.6803C50 53.5324 56.3585 55.7497 65.9996 42C75.6415 55.7497 82 53.5332 82 61.6803Z" fill="url(#paint5_linear_10_2114)"/>
<path d="M82 180.68C82 185.138 77.7421 187.18 74.7978 187.182C71.5144 187.182 69.0338 185.839 67.5569 184.743C67.7517 188.37 68.7026 190.961 72.97 193H59.03C63.2974 190.961 64.2483 188.37 64.4431 184.743C62.9662 185.839 60.4848 187.183 57.2022 187.182C54.2619 187.182 50 185.138 50 180.68C50 172.532 56.3585 174.75 65.9996 161C75.6415 174.75 82 172.533 82 180.68Z" fill="url(#paint6_linear_10_2114)"/>
<path d="M204 180.68C204 185.138 199.742 187.18 196.798 187.182C193.514 187.182 191.034 185.839 189.557 184.743C189.752 188.37 190.703 190.961 194.97 193H181.03C185.297 190.961 186.248 188.37 186.443 184.743C184.966 185.839 182.485 187.183 179.202 187.182C176.262 187.182 172 185.138 172 180.68C172 172.532 178.359 174.75 188 161C197.641 174.75 204 172.533 204 180.68Z" fill="url(#paint7_linear_10_2114)"/>
<path d="M38.3411 67.6159C38.3411 69.5731 36.6536 70.4696 35.4867 70.4703C34.1855 70.4703 33.2023 69.8809 32.617 69.3996C32.6942 70.9918 33.0711 72.1293 34.7623 73.0246H29.2377C30.9289 72.1293 31.3058 70.9918 31.383 69.3996C30.7977 69.8806 29.8142 70.4709 28.5133 70.4703C27.348 70.4703 25.6589 69.5731 25.6589 67.6159C25.6589 64.0387 28.1789 65.0121 31.9998 58.9756C35.8211 65.0121 38.3411 64.039 38.3411 67.6159Z" fill="url(#paint8_linear_10_2114)"/>
<defs>
<linearGradient id="paint0_linear_10_2114" x1="2" y1="2" x2="252" y2="352" gradientUnits="userSpaceOnUse">
<stop stop-color="#3F3E3E"/>
<stop offset="1"/>
</linearGradient>
<linearGradient id="paint1_linear_10_2114" x1="218.5" y1="283.5" x2="224" y2="291.5" gradientUnits="userSpaceOnUse">
<stop stop-color="#FFE079"/>
<stop offset="0.44" stop-color="#D3AF37"/>
</linearGradient>
<linearGradient id="paint2_linear_10_2114" x1="55.5" y1="286.5" x2="71.1959" y2="304.108" gradientUnits="userSpaceOnUse">
<stop stop-color="#FFE079"/>
<stop offset="0.44" stop-color="#D3AF37"/>
</linearGradient>
<linearGradient id="paint3_linear_10_2114" x1="181.5" y1="286.5" x2="194.024" y2="305.783" gradientUnits="userSpaceOnUse">
<stop stop-color="#FFE079"/>
<stop offset="0.44" stop-color="#D3AF37"/>
</linearGradient>
<linearGradient id="paint4_linear_10_2114" x1="178.907" y1="51.5008" x2="190.552" y2="70.9223" gradientUnits="userSpaceOnUse">
<stop stop-color="#FFE079"/>
<stop offset="0.44" stop-color="#D3AF37"/>
</linearGradient>
<linearGradient id="paint5_linear_10_2114" x1="56.9073" y1="51.5008" x2="68.5517" y2="70.9223" gradientUnits="userSpaceOnUse">
<stop stop-color="#FFE079"/>
<stop offset="0.44" stop-color="#D3AF37"/>
</linearGradient>
<linearGradient id="paint6_linear_10_2114" x1="56.9073" y1="170.501" x2="68.5517" y2="189.922" gradientUnits="userSpaceOnUse">
<stop stop-color="#FFE079"/>
<stop offset="0.44" stop-color="#D3AF37"/>
</linearGradient>
<linearGradient id="paint7_linear_10_2114" x1="178.907" y1="170.501" x2="190.552" y2="189.922" gradientUnits="userSpaceOnUse">
<stop stop-color="#FFE079"/>
<stop offset="0.44" stop-color="#D3AF37"/>
</linearGradient>
<linearGradient id="paint8_linear_10_2114" x1="28.3964" y1="63.1468" x2="33.7388" y2="71.1903" gradientUnits="userSpaceOnUse">
<stop stop-color="#FFE079"/>
<stop offset="0.44" stop-color="#D3AF37"/>
</linearGradient>
</defs>
</svg>
