<svg width="254" height="354" viewBox="0 0 254 354" fill="none" xmlns="http://www.w3.org/2000/svg">
<path d="M252 344C252 348.418 248.418 352 244 352H10C5.58173 352 2 348.418 2 344V10C2 5.58173 5.58173 2 10 2H244C248.418 2 252 5.58173 252 10V344Z" fill="url(#paint0_linear_10_2128)"/>
<path d="M252 344C252 348.418 248.418 352 244 352H10C5.58173 352 2 348.418 2 344V10C2 5.58173 5.58173 2 10 2H244C248.418 2 252 5.58173 252 10V344Z" stroke="#D3AF37" stroke-width="3"/>
<path d="M222.624 303.488C223.392 303.488 224.032 303.787 224.544 304.384C225.035 304.981 225.28 305.792 225.28 306.816C225.28 308.096 224.971 309.301 224.352 310.432C223.712 311.563 222.827 312.789 221.696 314.112C220.032 316.032 218.795 317.675 217.984 319.04C217.451 319.979 217.067 320.971 216.832 322.016L216.96 322.112C217.621 321.557 218.357 321.28 219.168 321.28C220.021 321.28 220.949 321.472 221.952 321.856C222.848 322.155 223.723 322.304 224.576 322.304C225.451 322.304 226.165 322.08 226.72 321.632C227.275 321.205 227.595 320.533 227.68 319.616L227.84 317.696H228.992L228.256 326.784H227.104L227.264 324.672L227.136 324.608C225.899 326.229 224.544 327.04 223.072 327.04C222.411 327.04 221.867 326.859 221.44 326.496C220.992 326.155 220.544 325.664 220.096 325.024C219.669 324.405 219.285 323.925 218.944 323.584C218.603 323.243 218.261 323.072 217.92 323.072C217.237 323.072 216.896 323.392 216.896 324.032C216.896 324.416 217.109 324.736 217.536 324.992C218.069 325.291 218.336 325.685 218.336 326.176C218.336 326.432 218.251 326.635 218.08 326.784C217.909 326.955 217.675 327.04 217.376 327.04C216.821 327.04 216.373 326.72 216.032 326.08C215.669 325.44 215.488 324.779 215.488 324.096C215.488 322.709 215.691 321.44 216.096 320.288C216.501 319.157 217.141 317.877 218.016 316.448C218.827 315.104 219.392 313.611 219.712 311.968C220.011 310.347 220.16 308.619 220.16 306.784C220.16 305.675 220.384 304.843 220.832 304.288C221.259 303.755 221.856 303.488 222.624 303.488Z" fill="#D3AF37"/>
<path d="M31.376 50.512C30.608 50.512 29.968 50.2133 29.456 49.616C28.9653 49.0187 28.72 48.208 28.72 47.184C28.72 45.904 29.0293 44.6987 29.648 43.568C30.288 42.4373 31.1733 41.2107 32.304 39.888C33.968 37.968 35.2053 36.3253 36.016 34.96C36.5493 34.0213 36.9333 33.0293 37.168 31.984L37.04 31.888C36.3787 32.4427 35.6427 32.72 34.832 32.72C33.9787 32.72 33.0507 32.528 32.048 32.144C31.152 31.8453 30.2773 31.696 29.424 31.696C28.5493 31.696 27.8347 31.92 27.28 32.368C26.7253 32.7947 26.4053 33.4667 26.32 34.384L26.16 36.304H25.008L25.744 27.216H26.896L26.736 29.328L26.864 29.392C28.1013 27.7707 29.456 26.96 30.928 26.96C31.5893 26.96 32.1333 27.1413 32.56 27.504C33.008 27.8453 33.456 28.336 33.904 28.976C34.3307 29.5947 34.7147 30.0747 35.056 30.416C35.3973 30.7573 35.7387 30.928 36.08 30.928C36.7627 30.928 37.104 30.608 37.104 29.968C37.104 29.584 36.8907 29.264 36.464 29.008C35.9307 28.7093 35.664 28.3147 35.664 27.824C35.664 27.568 35.7493 27.3653 35.92 27.216C36.0907 27.0453 36.3253 26.96 36.624 26.96C37.1787 26.96 37.6267 27.28 37.968 27.92C38.3307 28.56 38.512 29.2213 38.512 29.904C38.512 31.2907 38.3093 32.56 37.904 33.712C37.4987 34.8427 36.8587 36.1227 35.984 37.552C35.1733 38.896 34.608 40.3893 34.288 42.032C33.9893 43.6533 33.84 45.3813 33.84 47.216C33.84 48.3253 33.616 49.1573 33.168 49.712C32.7413 50.2453 32.144 50.512 31.376 50.512Z" fill="#D3AF37"/>
<path d="M228.341 286.384C228.341 284.427 226.654 283.53 225.487 283.53C224.185 283.53 223.202 284.119 222.617 284.6C222.694 283.008 223.071 281.871 224.762 280.975H219.238C220.929 281.871 221.306 283.008 221.383 284.6C220.798 284.119 219.814 283.529 218.513 283.53C217.348 283.53 215.659 284.427 215.659 286.384C215.659 289.961 218.179 288.988 222 295.024C225.821 288.988 228.341 289.961 228.341 286.384Z" fill="url(#paint1_linear_10_2128)"/>
<path d="M82 292.32C82 287.862 77.7421 285.82 74.7978 285.818C71.5144 285.818 69.0338 287.161 67.5569 288.257C67.7517 284.63 68.7026 282.039 72.97 280H59.03C63.2974 282.039 64.2483 284.63 64.4431 288.257C62.9662 287.161 60.4848 285.817 57.2022 285.818C54.2619 285.818 50 287.862 50 292.32C50 300.468 56.3585 298.25 65.9996 312C75.6415 298.25 82 300.467 82 292.32Z" fill="url(#paint2_linear_10_2128)"/>
<path d="M204 292.32C204 287.862 199.742 285.82 196.798 285.818C193.514 285.818 191.034 287.161 189.557 288.257C189.752 284.63 190.703 282.039 194.97 280H181.03C185.297 282.039 186.248 284.63 186.443 288.257C184.966 287.161 182.485 285.817 179.202 285.818C176.262 285.818 172 287.862 172 292.32C172 300.468 178.359 298.25 188 312C197.641 298.25 204 300.467 204 292.32Z" fill="url(#paint3_linear_10_2128)"/>
<path d="M82 61.6803C82 66.1383 77.7421 68.1804 74.7978 68.1818C71.5144 68.1818 69.0338 66.8394 67.5569 65.7432C67.7517 69.3698 68.7026 71.9607 72.97 74H59.03C63.2974 71.9607 64.2483 69.3698 64.4431 65.7432C62.9662 66.8387 60.4848 68.1832 57.2022 68.1818C54.2619 68.1818 50 66.1383 50 61.6803C50 53.5324 56.3585 55.7497 65.9996 42C75.6415 55.7497 82 53.5332 82 61.6803Z" fill="url(#paint4_linear_10_2128)"/>
<path d="M204 61.6803C204 66.1383 199.742 68.1804 196.798 68.1818C193.514 68.1818 191.034 66.8394 189.557 65.7432C189.752 69.3698 190.703 71.9607 194.97 74H181.03C185.297 71.9607 186.248 69.3698 186.443 65.7432C184.966 66.8387 182.485 68.1832 179.202 68.1818C176.262 68.1818 172 66.1383 172 61.6803C172 53.5324 178.359 55.7497 188 42C197.641 55.7497 204 53.5332 204 61.6803Z" fill="url(#paint5_linear_10_2128)"/>
<path d="M82 180.68C82 185.138 77.7421 187.18 74.7978 187.182C71.5144 187.182 69.0338 185.839 67.5569 184.743C67.7517 188.37 68.7026 190.961 72.97 193H59.03C63.2974 190.961 64.2483 188.37 64.4431 184.743C62.9662 185.839 60.4848 187.183 57.2022 187.182C54.2619 187.182 50 185.138 50 180.68C50 172.532 56.3585 174.75 65.9996 161C75.6415 174.75 82 172.533 82 180.68Z" fill="url(#paint6_linear_10_2128)"/>
<path d="M204 180.68C204 185.138 199.742 187.18 196.798 187.182C193.514 187.182 191.034 185.839 189.557 184.743C189.752 188.37 190.703 190.961 194.97 193H181.03C185.297 190.961 186.248 188.37 186.443 184.743C184.966 185.839 182.485 187.183 179.202 187.182C176.262 187.182 172 185.138 172 180.68C172 172.532 178.359 174.75 188 161C197.641 174.75 204 172.533 204 180.68Z" fill="url(#paint7_linear_10_2128)"/>
<path d="M143 121.68C143 126.138 138.742 128.18 135.798 128.182C132.514 128.182 130.034 126.839 128.557 125.743C128.752 129.37 129.703 131.961 133.97 134H120.03C124.297 131.961 125.248 129.37 125.443 125.743C123.966 126.839 121.485 128.183 118.202 128.182C115.262 128.182 111 126.138 111 121.68C111 113.532 117.359 115.75 127 102C136.641 115.75 143 113.533 143 121.68Z" fill="url(#paint8_linear_10_2128)"/>
<path d="M38.3411 67.6159C38.3411 69.5731 36.6536 70.4696 35.4867 70.4703C34.1855 70.4703 33.2023 69.8809 32.617 69.3996C32.6942 70.9918 33.0711 72.1293 34.7623 73.0246H29.2377C30.9289 72.1293 31.3058 70.9918 31.383 69.3996C30.7977 69.8806 29.8142 70.4709 28.5133 70.4703C27.348 70.4703 25.6589 69.5731 25.6589 67.6159C25.6589 64.0387 28.1789 65.0121 31.9998 58.9756C35.8211 65.0121 38.3411 64.039 38.3411 67.6159Z" fill="url(#paint9_linear_10_2128)"/>
<defs>
<linearGradient id="paint0_linear_10_2128" x1="2" y1="2" x2="252" y2="352" gradientUnits="userSpaceOnUse">
<stop stop-color="#3F3E3E"/>
<stop offset="1"/>
</linearGradient>
<linearGradient id="paint1_linear_10_2128" x1="219.5" y1="283.5" x2="224" y2="291.5" gradientUnits="userSpaceOnUse">
<stop stop-color="#FFE079"/>
<stop offset="0.44" stop-color="#D3AF37"/>
</linearGradient>
<linearGradient id="paint2_linear_10_2128" x1="58" y1="286" x2="70.6256" y2="304.294" gradientUnits="userSpaceOnUse">
<stop stop-color="#FFE079"/>
<stop offset="0.44" stop-color="#D3AF37"/>
</linearGradient>
<linearGradient id="paint3_linear_10_2128" x1="181.5" y1="286.5" x2="191.652" y2="304.54" gradientUnits="userSpaceOnUse">
<stop stop-color="#FFE079"/>
<stop offset="0.44" stop-color="#D3AF37"/>
</linearGradient>
<linearGradient id="paint4_linear_10_2128" x1="56.9073" y1="51.5008" x2="68.5517" y2="70.9223" gradientUnits="userSpaceOnUse">
<stop stop-color="#FFE079"/>
<stop offset="0.44" stop-color="#D3AF37"/>
</linearGradient>
<linearGradient id="paint5_linear_10_2128" x1="178.907" y1="51.5008" x2="190.552" y2="70.9223" gradientUnits="userSpaceOnUse">
<stop stop-color="#FFE079"/>
<stop offset="0.44" stop-color="#D3AF37"/>
</linearGradient>
<linearGradient id="paint6_linear_10_2128" x1="56.9073" y1="170.501" x2="68.5517" y2="189.922" gradientUnits="userSpaceOnUse">
<stop stop-color="#FFE079"/>
<stop offset="0.44" stop-color="#D3AF37"/>
</linearGradient>
<linearGradient id="paint7_linear_10_2128" x1="178.907" y1="170.501" x2="190.552" y2="189.922" gradientUnits="userSpaceOnUse">
<stop stop-color="#FFE079"/>
<stop offset="0.44" stop-color="#D3AF37"/>
</linearGradient>
<linearGradient id="paint8_linear_10_2128" x1="117.907" y1="111.501" x2="129.552" y2="130.922" gradientUnits="userSpaceOnUse">
<stop stop-color="#FFE079"/>
<stop offset="0.44" stop-color="#D3AF37"/>
</linearGradient>
<linearGradient id="paint9_linear_10_2128" x1="28.3964" y1="63.1468" x2="33.7388" y2="71.1903" gradientUnits="userSpaceOnUse">
<stop stop-color="#FFE079"/>
<stop offset="0.44" stop-color="#D3AF37"/>
</linearGradient>
</defs>
</svg>
