<svg width="254" height="354" viewBox="0 0 254 354" fill="none" xmlns="http://www.w3.org/2000/svg">
<path d="M252 344C252 348.418 248.418 352 244 352H10C5.58173 352 2 348.418 2 344V10C2 5.58173 5.58173 2 10 2H244C248.418 2 252 5.58173 252 10V344Z" fill="url(#paint0_linear_10_2143)"/>
<path d="M252 344C252 348.418 248.418 352 244 352H10C5.58173 352 2 348.418 2 344V10C2 5.58173 5.58173 2 10 2H244C248.418 2 252 5.58173 252 10V344Z" stroke="#D3AF37" stroke-width="3"/>
<path d="M222.848 303.488C224.043 303.488 225.216 303.723 226.368 304.192C227.499 304.661 228.427 305.333 229.152 306.208C229.856 307.104 230.208 308.149 230.208 309.344C230.208 310.688 229.813 311.829 229.024 312.768C228.235 313.707 227.339 314.389 226.336 314.816V314.88C228.619 316.224 229.76 318.155 229.76 320.672C229.76 322.08 229.397 323.285 228.672 324.288C227.925 325.291 226.987 326.037 225.856 326.528C224.704 327.04 223.531 327.296 222.336 327.296C220.928 327.296 219.755 327.029 218.816 326.496C217.856 325.963 217.163 325.301 216.736 324.512C216.288 323.723 216.064 322.955 216.064 322.208C216.064 321.141 216.405 320.171 217.088 319.296C217.749 318.421 218.539 317.749 219.456 317.28V317.152L218.848 316.832C217.589 316.213 216.597 315.371 215.872 314.304C215.147 313.237 214.784 312.16 214.784 311.072C214.784 309.685 215.093 308.416 215.712 307.264C216.331 306.112 217.248 305.195 218.464 304.512C219.68 303.829 221.141 303.488 222.848 303.488ZM220.352 317.632C219.499 317.973 218.827 318.549 218.336 319.36C217.845 320.192 217.6 321.088 217.6 322.048C217.6 322.923 217.824 323.68 218.272 324.32C218.72 324.96 219.296 325.44 220 325.76C220.683 326.101 221.387 326.272 222.112 326.272C223.264 326.272 224.341 325.995 225.344 325.44C226.325 324.885 226.816 324.011 226.816 322.816C226.816 321.963 226.624 321.312 226.24 320.864C225.856 320.416 225.291 320.011 224.544 319.648L220.352 317.632ZM221.984 304.512C221.045 304.512 220.213 304.683 219.488 305.024C218.763 305.387 218.208 305.856 217.824 306.432C217.419 307.008 217.216 307.627 217.216 308.288C217.216 309.141 217.483 309.845 218.016 310.4C218.549 310.955 219.243 311.445 220.096 311.872L225.408 314.496C226.261 314.027 226.912 313.461 227.36 312.8C227.808 312.16 228.032 311.179 228.032 309.856C228.032 308.491 227.691 307.403 227.008 306.592C226.304 305.803 225.493 305.259 224.576 304.96C223.637 304.661 222.773 304.512 221.984 304.512Z" fill="#D3AF37"/>
<path d="M31.152 50.512C29.9573 50.512 28.784 50.2773 27.632 49.808C26.5013 49.3387 25.5733 48.6667 24.848 47.792C24.144 46.896 23.792 45.8507 23.792 44.656C23.792 43.312 24.1867 42.1707 24.976 41.232C25.7653 40.2933 26.6613 39.6107 27.664 39.184V39.12C25.3813 37.776 24.24 35.8453 24.24 33.328C24.24 31.92 24.6027 30.7147 25.328 29.712C26.0747 28.7093 27.0133 27.9627 28.144 27.472C29.296 26.96 30.4693 26.704 31.664 26.704C33.072 26.704 34.2453 26.9707 35.184 27.504C36.144 28.0373 36.8373 28.6987 37.264 29.488C37.712 30.2773 37.936 31.0453 37.936 31.792C37.936 32.8587 37.5947 33.8293 36.912 34.704C36.2507 35.5787 35.4613 36.2507 34.544 36.72V36.848L35.152 37.168C36.4107 37.7867 37.4027 38.6293 38.128 39.696C38.8533 40.7627 39.216 41.84 39.216 42.928C39.216 44.3147 38.9067 45.584 38.288 46.736C37.6693 47.888 36.752 48.8053 35.536 49.488C34.32 50.1707 32.8587 50.512 31.152 50.512ZM33.648 36.368C34.5013 36.0267 35.1733 35.4507 35.664 34.64C36.1547 33.808 36.4 32.912 36.4 31.952C36.4 31.0773 36.176 30.32 35.728 29.68C35.28 29.04 34.704 28.56 34 28.24C33.3173 27.8987 32.6133 27.728 31.888 27.728C30.736 27.728 29.6587 28.0053 28.656 28.56C27.6747 29.1147 27.184 29.9893 27.184 31.184C27.184 32.0373 27.376 32.688 27.76 33.136C28.144 33.584 28.7093 33.9893 29.456 34.352L33.648 36.368ZM32.016 49.488C32.9547 49.488 33.7867 49.3173 34.512 48.976C35.2373 48.6133 35.792 48.144 36.176 47.568C36.5813 46.992 36.784 46.3733 36.784 45.712C36.784 44.8587 36.5173 44.1547 35.984 43.6C35.4507 43.0453 34.7573 42.5547 33.904 42.128L28.592 39.504C27.7387 39.9733 27.088 40.5387 26.64 41.2C26.192 41.84 25.968 42.8213 25.968 44.144C25.968 45.5093 26.3093 46.5973 26.992 47.408C27.696 48.1973 28.5067 48.7413 29.424 49.04C30.3627 49.3387 31.2267 49.488 32.016 49.488Z" fill="#D3AF37"/>
<path d="M228.341 286.384C228.341 284.427 226.654 283.53 225.487 283.53C224.185 283.53 223.202 284.119 222.617 284.6C222.694 283.008 223.071 281.871 224.762 280.975H219.238C220.929 281.871 221.306 283.008 221.383 284.6C220.798 284.119 219.814 283.529 218.513 283.53C217.348 283.53 215.659 284.427 215.659 286.384C215.659 289.961 218.179 288.988 222 295.024C225.821 288.988 228.341 289.961 228.341 286.384Z" fill="url(#paint1_linear_10_2143)"/>
<path d="M82 292.32C82 287.862 77.7421 285.82 74.7978 285.818C71.5144 285.818 69.0338 287.161 67.5569 288.257C67.7517 284.63 68.7026 282.039 72.97 280H59.03C63.2974 282.039 64.2483 284.63 64.4431 288.257C62.9662 287.161 60.4848 285.817 57.2022 285.818C54.2619 285.818 50 287.862 50 292.32C50 300.468 56.3585 298.25 65.9996 312C75.6415 298.25 82 300.467 82 292.32Z" fill="url(#paint2_linear_10_2143)"/>
<path d="M204 292.32C204 287.862 199.742 285.82 196.798 285.818C193.514 285.818 191.034 287.161 189.557 288.257C189.752 284.63 190.703 282.039 194.97 280H181.03C185.297 282.039 186.248 284.63 186.443 288.257C184.966 287.161 182.485 285.817 179.202 285.818C176.262 285.818 172 287.862 172 292.32C172 300.468 178.359 298.25 188 312C197.641 298.25 204 300.467 204 292.32Z" fill="url(#paint3_linear_10_2143)"/>
<path d="M82 61.6803C82 66.1383 77.7421 68.1804 74.7978 68.1818C71.5144 68.1818 69.0338 66.8394 67.5569 65.7432C67.7517 69.3698 68.7026 71.9607 72.97 74H59.03C63.2974 71.9607 64.2483 69.3698 64.4431 65.7432C62.9662 66.8387 60.4848 68.1832 57.2022 68.1818C54.2619 68.1818 50 66.1383 50 61.6803C50 53.5324 56.3585 55.7497 65.9996 42C75.6415 55.7497 82 53.5332 82 61.6803Z" fill="url(#paint4_linear_10_2143)"/>
<path d="M204 61.6803C204 66.1383 199.742 68.1804 196.798 68.1818C193.514 68.1818 191.034 66.8394 189.557 65.7432C189.752 69.3698 190.703 71.9607 194.97 74H181.03C185.297 71.9607 186.248 69.3698 186.443 65.7432C184.966 66.8387 182.485 68.1832 179.202 68.1818C176.262 68.1818 172 66.1383 172 61.6803C172 53.5324 178.359 55.7497 188 42C197.641 55.7497 204 53.5332 204 61.6803Z" fill="url(#paint5_linear_10_2143)"/>
<path d="M82 180.68C82 185.138 77.7421 187.18 74.7978 187.182C71.5144 187.182 69.0338 185.839 67.5569 184.743C67.7517 188.37 68.7026 190.961 72.97 193H59.03C63.2974 190.961 64.2483 188.37 64.4431 184.743C62.9662 185.839 60.4848 187.183 57.2022 187.182C54.2619 187.182 50 185.138 50 180.68C50 172.532 56.3585 174.75 65.9996 161C75.6415 174.75 82 172.533 82 180.68Z" fill="url(#paint6_linear_10_2143)"/>
<path d="M204 180.68C204 185.138 199.742 187.18 196.798 187.182C193.514 187.182 191.034 185.839 189.557 184.743C189.752 188.37 190.703 190.961 194.97 193H181.03C185.297 190.961 186.248 188.37 186.443 184.743C184.966 185.839 182.485 187.183 179.202 187.182C176.262 187.182 172 185.138 172 180.68C172 172.532 178.359 174.75 188 161C197.641 174.75 204 172.533 204 180.68Z" fill="url(#paint7_linear_10_2143)"/>
<path d="M143 121.68C143 126.138 138.742 128.18 135.798 128.182C132.514 128.182 130.034 126.839 128.557 125.743C128.752 129.37 129.703 131.961 133.97 134H120.03C124.297 131.961 125.248 129.37 125.443 125.743C123.966 126.839 121.485 128.183 118.202 128.182C115.262 128.182 111 126.138 111 121.68C111 113.532 117.359 115.75 127 102C136.641 115.75 143 113.533 143 121.68Z" fill="url(#paint8_linear_10_2143)"/>
<path d="M143 232.32C143 227.862 138.742 225.82 135.798 225.818C132.514 225.818 130.034 227.161 128.557 228.257C128.752 224.63 129.703 222.039 133.97 220H120.03C124.297 222.039 125.248 224.63 125.443 228.257C123.966 227.161 121.485 225.817 118.202 225.818C115.262 225.818 111 227.862 111 232.32C111 240.468 117.359 238.25 127 252C136.641 238.25 143 240.467 143 232.32Z" fill="url(#paint9_linear_10_2143)"/>
<path d="M38.3411 67.6159C38.3411 69.5731 36.6536 70.4696 35.4867 70.4703C34.1855 70.4703 33.2023 69.8809 32.617 69.3996C32.6942 70.9918 33.0711 72.1293 34.7623 73.0246H29.2377C30.9289 72.1293 31.3058 70.9918 31.383 69.3996C30.7977 69.8806 29.8142 70.4709 28.5133 70.4703C27.348 70.4703 25.6589 69.5731 25.6589 67.6159C25.6589 64.0387 28.1789 65.0121 31.9998 58.9756C35.8211 65.0121 38.3411 64.039 38.3411 67.6159Z" fill="url(#paint10_linear_10_2143)"/>
<defs>
<linearGradient id="paint0_linear_10_2143" x1="2" y1="2" x2="252" y2="352" gradientUnits="userSpaceOnUse">
<stop stop-color="#3F3E3E"/>
<stop offset="1"/>
</linearGradient>
<linearGradient id="paint1_linear_10_2143" x1="219" y1="283.5" x2="225" y2="291" gradientUnits="userSpaceOnUse">
<stop stop-color="#FFE079"/>
<stop offset="0.44" stop-color="#D3AF37"/>
</linearGradient>
<linearGradient id="paint2_linear_10_2143" x1="58" y1="286" x2="72.0086" y2="305.435" gradientUnits="userSpaceOnUse">
<stop stop-color="#FFE079"/>
<stop offset="0.44" stop-color="#D3AF37"/>
</linearGradient>
<linearGradient id="paint3_linear_10_2143" x1="181.5" y1="286.5" x2="193.682" y2="304.248" gradientUnits="userSpaceOnUse">
<stop stop-color="#FFE079"/>
<stop offset="0.44" stop-color="#D3AF37"/>
</linearGradient>
<linearGradient id="paint4_linear_10_2143" x1="56.9073" y1="51.5008" x2="68.5517" y2="70.9223" gradientUnits="userSpaceOnUse">
<stop stop-color="#FFE079"/>
<stop offset="0.44" stop-color="#D3AF37"/>
</linearGradient>
<linearGradient id="paint5_linear_10_2143" x1="178.907" y1="51.5008" x2="190.552" y2="70.9223" gradientUnits="userSpaceOnUse">
<stop stop-color="#FFE079"/>
<stop offset="0.44" stop-color="#D3AF37"/>
</linearGradient>
<linearGradient id="paint6_linear_10_2143" x1="56.9073" y1="170.501" x2="68.5517" y2="189.922" gradientUnits="userSpaceOnUse">
<stop stop-color="#FFE079"/>
<stop offset="0.44" stop-color="#D3AF37"/>
</linearGradient>
<linearGradient id="paint7_linear_10_2143" x1="178.907" y1="170.501" x2="190.552" y2="189.922" gradientUnits="userSpaceOnUse">
<stop stop-color="#FFE079"/>
<stop offset="0.44" stop-color="#D3AF37"/>
</linearGradient>
<linearGradient id="paint8_linear_10_2143" x1="117.907" y1="111.501" x2="129.552" y2="130.922" gradientUnits="userSpaceOnUse">
<stop stop-color="#FFE079"/>
<stop offset="0.44" stop-color="#D3AF37"/>
</linearGradient>
<linearGradient id="paint9_linear_10_2143" x1="121" y1="227" x2="134.07" y2="245.839" gradientUnits="userSpaceOnUse">
<stop stop-color="#FFE079"/>
<stop offset="0.44" stop-color="#D3AF37"/>
</linearGradient>
<linearGradient id="paint10_linear_10_2143" x1="28.3964" y1="63.1468" x2="33.7388" y2="71.1903" gradientUnits="userSpaceOnUse">
<stop stop-color="#FFE079"/>
<stop offset="0.44" stop-color="#D3AF37"/>
</linearGradient>
</defs>
</svg>
