<svg width="254" height="354" viewBox="0 0 254 354" fill="none" xmlns="http://www.w3.org/2000/svg">
<path d="M252 344C252 348.418 248.418 352 244 352H10C5.58173 352 2 348.418 2 344V10C2 5.58173 5.58173 2 10 2H244C248.418 2 252 5.58173 252 10V344Z" fill="url(#paint0_linear_10_2159)"/>
<path d="M252 344C252 348.418 248.418 352 244 352H10C5.58173 352 2 348.418 2 344V10C2 5.58173 5.58173 2 10 2H244C248.418 2 252 5.58173 252 10V344Z" stroke="#D3AF37" stroke-width="3"/>
<path d="M223.744 303.488C224.747 303.488 225.611 303.691 226.336 304.096C227.061 304.523 227.616 305.067 228 305.728C228.363 306.389 228.544 307.093 228.544 307.84C228.544 308.757 228.277 309.536 227.744 310.176C227.211 310.816 226.517 311.136 225.664 311.136C225.024 311.136 224.512 310.933 224.128 310.528C223.723 310.144 223.52 309.632 223.52 308.992C223.52 308.011 224 307.349 224.96 307.008C225.387 306.859 225.707 306.709 225.92 306.56C226.133 306.411 226.24 306.219 226.24 305.984C226.24 305.557 226.016 305.205 225.568 304.928C225.12 304.651 224.501 304.512 223.712 304.512C222.517 304.512 221.643 305.024 221.088 306.048C220.512 307.072 220.224 308.299 220.224 309.728V314.304L220.416 314.4C220.757 314.059 221.205 313.792 221.76 313.6C222.315 313.429 222.901 313.344 223.52 313.344C225.653 313.344 227.253 313.973 228.32 315.232C229.365 316.491 229.888 318.101 229.888 320.064C229.888 321.28 229.643 322.432 229.152 323.52C228.64 324.629 227.861 325.536 226.816 326.24C225.749 326.944 224.427 327.296 222.848 327.296C221.269 327.296 219.904 326.784 218.752 325.76C217.579 324.736 216.683 323.36 216.064 321.632C215.424 319.904 215.104 318.005 215.104 315.936C215.104 313.483 215.456 311.317 216.16 309.44C216.843 307.563 217.835 306.101 219.136 305.056C220.437 304.011 221.973 303.488 223.744 303.488ZM223.104 314.56C221.952 314.56 221.163 315.008 220.736 315.904C220.523 316.309 220.384 316.875 220.32 317.6C220.256 318.325 220.224 319.307 220.224 320.544C220.224 322.485 220.427 323.925 220.832 324.864C221.237 325.803 221.899 326.272 222.816 326.272C223.541 326.272 224.075 326.016 224.416 325.504C224.736 325.013 224.939 324.373 225.024 323.584C225.109 322.816 225.152 321.749 225.152 320.384C225.152 318.656 225.013 317.248 224.736 316.16C224.437 315.093 223.893 314.56 223.104 314.56Z" fill="#D3AF37"/>
<path d="M30.256 50.512C29.2533 50.512 28.3893 50.3093 27.664 49.904C26.9387 49.4773 26.384 48.9333 26 48.272C25.6373 47.6107 25.456 46.9067 25.456 46.16C25.456 45.2427 25.7227 44.464 26.256 43.824C26.7893 43.184 27.4827 42.864 28.336 42.864C28.976 42.864 29.488 43.0667 29.872 43.472C30.2773 43.856 30.48 44.368 30.48 45.008C30.48 45.9893 30 46.6507 29.04 46.992C28.6133 47.1413 28.2933 47.2907 28.08 47.44C27.8667 47.5893 27.76 47.7813 27.76 48.016C27.76 48.4427 27.984 48.7947 28.432 49.072C28.88 49.3493 29.4987 49.488 30.288 49.488C31.4827 49.488 32.3573 48.976 32.912 47.952C33.488 46.928 33.776 45.7013 33.776 44.272V39.696L33.584 39.6C33.2427 39.9413 32.7947 40.208 32.24 40.4C31.6853 40.5707 31.0987 40.656 30.48 40.656C28.3467 40.656 26.7467 40.0267 25.68 38.768C24.6347 37.5093 24.112 35.8987 24.112 33.936C24.112 32.72 24.3573 31.568 24.848 30.48C25.36 29.3707 26.1387 28.464 27.184 27.76C28.2507 27.056 29.5733 26.704 31.152 26.704C32.7307 26.704 34.096 27.216 35.248 28.24C36.4213 29.264 37.3173 30.64 37.936 32.368C38.576 34.096 38.896 35.9947 38.896 38.064C38.896 40.5173 38.544 42.6827 37.84 44.56C37.1573 46.4373 36.1653 47.8987 34.864 48.944C33.5627 49.9893 32.0267 50.512 30.256 50.512ZM30.896 39.44C32.048 39.44 32.8373 38.992 33.264 38.096C33.4773 37.6907 33.616 37.1253 33.68 36.4C33.744 35.6747 33.776 34.6933 33.776 33.456C33.776 31.5147 33.5733 30.0747 33.168 29.136C32.7627 28.1973 32.1013 27.728 31.184 27.728C30.4587 27.728 29.9253 27.984 29.584 28.496C29.264 28.9867 29.0613 29.6267 28.976 30.416C28.8907 31.184 28.848 32.2507 28.848 33.616C28.848 35.344 28.9867 36.752 29.264 37.84C29.5627 38.9067 30.1067 39.44 30.896 39.44Z" fill="#D3AF37"/>
<path d="M215.659 286.384C215.659 284.427 217.346 283.53 218.513 283.53C219.815 283.53 220.798 284.119 221.383 284.6C221.306 283.008 220.929 281.871 219.238 280.975H224.762C223.071 281.871 222.694 283.008 222.617 284.6C223.202 284.119 224.186 283.529 225.487 283.53C226.652 283.53 228.341 284.427 228.341 286.384C228.341 289.961 225.821 288.988 222 295.024C218.179 288.988 215.659 289.961 215.659 286.384Z" fill="url(#paint1_linear_10_2159)"/>
<path d="M82 292.32C82 287.862 77.7421 285.82 74.7978 285.818C71.5144 285.818 69.0338 287.161 67.5569 288.257C67.7517 284.63 68.7026 282.039 72.97 280H59.03C63.2974 282.039 64.2483 284.63 64.4431 288.257C62.9662 287.161 60.4848 285.817 57.2022 285.818C54.2619 285.818 50 287.862 50 292.32C50 300.468 56.3585 298.25 65.9996 312C75.6415 298.25 82 300.467 82 292.32Z" fill="url(#paint2_linear_10_2159)"/>
<path d="M82 292.32C82 287.862 77.7421 285.82 74.7978 285.818C71.5144 285.818 69.0338 287.161 67.5569 288.257C67.7517 284.63 68.7026 282.039 72.97 280H59.03C63.2974 282.039 64.2483 284.63 64.4431 288.257C62.9662 287.161 60.4848 285.817 57.2022 285.818C54.2619 285.818 50 287.862 50 292.32C50 300.468 56.3585 298.25 65.9996 312C75.6415 298.25 82 300.467 82 292.32Z" fill="url(#paint3_linear_10_2159)"/>
<path d="M82 223.32C82 218.862 77.7421 216.82 74.7978 216.818C71.5144 216.818 69.0338 218.161 67.5569 219.257C67.7517 215.63 68.7026 213.039 72.97 211H59.03C63.2974 213.039 64.2483 215.63 64.4431 219.257C62.9662 218.161 60.4848 216.817 57.2022 216.818C54.2619 216.818 50 218.862 50 223.32C50 231.468 56.3585 229.25 65.9996 243C75.6415 229.25 82 231.467 82 223.32Z" fill="url(#paint4_linear_10_2159)"/>
<path d="M204 223.32C204 218.862 199.742 216.82 196.798 216.818C193.514 216.818 191.034 218.161 189.557 219.257C189.752 215.63 190.703 213.039 194.97 211H181.03C185.297 213.039 186.248 215.63 186.443 219.257C184.966 218.161 182.485 216.817 179.202 216.818C176.262 216.818 172 218.862 172 223.32C172 231.468 178.359 229.25 188 243C197.641 229.25 204 231.467 204 223.32Z" fill="url(#paint5_linear_10_2159)"/>
<path d="M204 292.32C204 287.862 199.742 285.82 196.798 285.818C193.514 285.818 191.034 287.161 189.557 288.257C189.752 284.63 190.703 282.039 194.97 280H181.03C185.297 282.039 186.248 284.63 186.443 288.257C184.966 287.161 182.485 285.817 179.202 285.818C176.262 285.818 172 287.862 172 292.32C172 300.468 178.359 298.25 188 312C197.641 298.25 204 300.467 204 292.32Z" fill="url(#paint6_linear_10_2159)"/>
<path d="M82 61.6803C82 66.1383 77.7421 68.1804 74.7978 68.1818C71.5144 68.1818 69.0338 66.8394 67.5569 65.7432C67.7517 69.3698 68.7026 71.9607 72.97 74H59.03C63.2974 71.9607 64.2483 69.3698 64.4431 65.7432C62.9662 66.8387 60.4848 68.1832 57.2022 68.1818C54.2619 68.1818 50 66.1383 50 61.6803C50 53.5324 56.3585 55.7497 65.9996 42C75.6415 55.7497 82 53.5332 82 61.6803Z" fill="url(#paint7_linear_10_2159)"/>
<path d="M204 61.6803C204 66.1383 199.742 68.1804 196.798 68.1818C193.514 68.1818 191.034 66.8394 189.557 65.7432C189.752 69.3698 190.703 71.9607 194.97 74H181.03C185.297 71.9607 186.248 69.3698 186.443 65.7432C184.966 66.8387 182.485 68.1832 179.202 68.1818C176.262 68.1818 172 66.1383 172 61.6803C172 53.5324 178.359 55.7497 188 42C197.641 55.7497 204 53.5332 204 61.6803Z" fill="url(#paint8_linear_10_2159)"/>
<path d="M82 130.68C82 135.138 77.7421 137.18 74.7978 137.182C71.5144 137.182 69.0338 135.839 67.5569 134.743C67.7517 138.37 68.7026 140.961 72.97 143H59.03C63.2974 140.961 64.2483 138.37 64.4431 134.743C62.9662 135.839 60.4848 137.183 57.2022 137.182C54.2619 137.182 50 135.138 50 130.68C50 122.532 56.3585 124.75 65.9996 111C75.6415 124.75 82 122.533 82 130.68Z" fill="url(#paint9_linear_10_2159)"/>
<path d="M204 130.68C204 135.138 199.742 137.18 196.798 137.182C193.514 137.182 191.034 135.839 189.557 134.743C189.752 138.37 190.703 140.961 194.97 143H181.03C185.297 140.961 186.248 138.37 186.443 134.743C184.966 135.839 182.485 137.183 179.202 137.182C176.262 137.182 172 135.138 172 130.68C172 122.532 178.359 124.75 188 111C197.641 124.75 204 122.533 204 130.68Z" fill="url(#paint10_linear_10_2159)"/>
<path d="M143 180.68C143 185.138 138.742 187.18 135.798 187.182C132.514 187.182 130.034 185.839 128.557 184.743C128.752 188.37 129.703 190.961 133.97 193H120.03C124.297 190.961 125.248 188.37 125.443 184.743C123.966 185.839 121.485 187.183 118.202 187.182C115.262 187.182 111 185.138 111 180.68C111 172.532 117.359 174.75 127 161C136.641 174.75 143 172.533 143 180.68Z" fill="url(#paint11_linear_10_2159)"/>
<path d="M38.3411 67.6159C38.3411 69.5731 36.6536 70.4696 35.4867 70.4703C34.1855 70.4703 33.2023 69.8809 32.617 69.3996C32.6942 70.9918 33.0711 72.1293 34.7623 73.0246H29.2377C30.9289 72.1293 31.3058 70.9918 31.383 69.3996C30.7977 69.8806 29.8142 70.4709 28.5133 70.4703C27.348 70.4703 25.6589 69.5731 25.6589 67.6159C25.6589 64.0387 28.1789 65.0121 31.9998 58.9756C35.8211 65.0121 38.3411 64.039 38.3411 67.6159Z" fill="url(#paint12_linear_10_2159)"/>
<defs>
<linearGradient id="paint0_linear_10_2159" x1="2" y1="2" x2="252" y2="352" gradientUnits="userSpaceOnUse">
<stop stop-color="#3F3E3E"/>
<stop offset="1"/>
</linearGradient>
<linearGradient id="paint1_linear_10_2159" x1="228.5" y1="281" x2="215.75" y2="294.25" gradientUnits="userSpaceOnUse">
<stop stop-color="#FFE079"/>
<stop offset="0.44" stop-color="#D3AF37"/>
</linearGradient>
<linearGradient id="paint2_linear_10_2159" x1="49.599" y1="280.056" x2="78.3758" y2="313.184" gradientUnits="userSpaceOnUse">
<stop stop-color="#FFE079"/>
<stop offset="0.44" stop-color="#D3AF37"/>
</linearGradient>
<linearGradient id="paint3_linear_10_2159" x1="49.599" y1="280.056" x2="78.3758" y2="313.184" gradientUnits="userSpaceOnUse">
<stop stop-color="#FFE079"/>
<stop offset="0.44" stop-color="#D3AF37"/>
</linearGradient>
<linearGradient id="paint4_linear_10_2159" x1="62" y1="215" x2="83.9273" y2="231.115" gradientUnits="userSpaceOnUse">
<stop stop-color="#FFE079"/>
<stop offset="0.44" stop-color="#D3AF37"/>
</linearGradient>
<linearGradient id="paint5_linear_10_2159" x1="177" y1="217" x2="194.523" y2="236.295" gradientUnits="userSpaceOnUse">
<stop stop-color="#FFE079"/>
<stop offset="0.44" stop-color="#D3AF37"/>
</linearGradient>
<linearGradient id="paint6_linear_10_2159" x1="174.5" y1="280" x2="202.563" y2="293.549" gradientUnits="userSpaceOnUse">
<stop stop-color="#FFE079"/>
<stop offset="0.44" stop-color="#D3AF37"/>
</linearGradient>
<linearGradient id="paint7_linear_10_2159" x1="56.9073" y1="51.5008" x2="68.5517" y2="70.9223" gradientUnits="userSpaceOnUse">
<stop stop-color="#FFE079"/>
<stop offset="0.44" stop-color="#D3AF37"/>
</linearGradient>
<linearGradient id="paint8_linear_10_2159" x1="179" y1="50.5" x2="193.466" y2="72.8717" gradientUnits="userSpaceOnUse">
<stop stop-color="#FFE079"/>
<stop offset="0.44" stop-color="#D3AF37"/>
</linearGradient>
<linearGradient id="paint9_linear_10_2159" x1="55.5" y1="114" x2="84.6652" y2="140.012" gradientUnits="userSpaceOnUse">
<stop stop-color="#FFE079"/>
<stop offset="0.44" stop-color="#D3AF37"/>
</linearGradient>
<linearGradient id="paint10_linear_10_2159" x1="178.907" y1="120.501" x2="190.552" y2="139.922" gradientUnits="userSpaceOnUse">
<stop stop-color="#FFE079"/>
<stop offset="0.44" stop-color="#D3AF37"/>
</linearGradient>
<linearGradient id="paint11_linear_10_2159" x1="117.907" y1="170.501" x2="129.552" y2="189.922" gradientUnits="userSpaceOnUse">
<stop stop-color="#FFE079"/>
<stop offset="0.44" stop-color="#D3AF37"/>
</linearGradient>
<linearGradient id="paint12_linear_10_2159" x1="28.3964" y1="63.1468" x2="33.7388" y2="71.1903" gradientUnits="userSpaceOnUse">
<stop stop-color="#FFE079"/>
<stop offset="0.44" stop-color="#D3AF37"/>
</linearGradient>
</defs>
</svg>
