<svg width="254" height="354" viewBox="0 0 254 354" fill="none" xmlns="http://www.w3.org/2000/svg">
<path d="M2 10C2 5.58172 5.58172 2 10 2H244C248.418 2 252 5.58172 252 10V344C252 348.418 248.418 352 244 352H10C5.58172 352 2 348.418 2 344V10Z" fill="url(#paint0_linear_10_2032)"/>
<path d="M2 10C2 5.58172 5.58172 2 10 2H244C248.418 2 252 5.58172 252 10V344C252 348.418 248.418 352 244 352H10C5.58172 352 2 348.418 2 344V10Z" stroke="#D3AF37" stroke-width="3"/>
<path d="M30.984 44.976H33.224C33.5227 44.976 33.7253 44.9227 33.832 44.816C33.9387 44.688 33.992 44.4853 33.992 44.208V25.008C33.992 24.7093 33.9387 24.5067 33.832 24.4C33.7253 24.2933 33.5227 24.24 33.224 24.24H30.984V23.216H41.48V24.24H39.496C39.2187 24.24 39.016 24.2933 38.888 24.4C38.7813 24.5067 38.728 24.7093 38.728 25.008V34.48L44.904 27.312C45.2027 26.9707 45.4053 26.6827 45.512 26.448C45.64 26.192 45.704 25.904 45.704 25.584C45.704 25.2 45.5973 24.88 45.384 24.624C45.1707 24.368 44.8933 24.24 44.552 24.24H43.624V23.216H51.528V24.24H50.408C49.96 24.24 49.4907 24.4 49 24.72C48.5307 25.0187 48.1147 25.392 47.752 25.84L43.464 30.8L50.216 43.568C50.4933 44.1013 50.76 44.4747 51.016 44.688C51.272 44.88 51.6453 44.976 52.136 44.976H53V46H42.952V44.976H44.232C44.424 44.976 44.584 44.912 44.712 44.784C44.84 44.6347 44.904 44.4747 44.904 44.304C44.904 44.176 44.8827 44.0373 44.84 43.888C44.8187 43.7173 44.7867 43.5893 44.744 43.504L40.104 34.672L38.728 36.24V44.208C38.728 44.4853 38.7813 44.688 38.888 44.816C39.016 44.9227 39.2187 44.976 39.496 44.976H41.48V46H30.984V44.976Z" fill="#D3AF37"/>
<path d="M223.016 309.024H220.776C220.477 309.024 220.275 309.077 220.168 309.184C220.061 309.312 220.008 309.515 220.008 309.792V328.992C220.008 329.291 220.061 329.493 220.168 329.6C220.275 329.707 220.477 329.76 220.776 329.76H223.016V330.784H212.52V329.76H214.504C214.781 329.76 214.984 329.707 215.112 329.6C215.219 329.493 215.272 329.291 215.272 328.992V319.52L209.096 326.688C208.797 327.029 208.595 327.317 208.488 327.552C208.36 327.808 208.296 328.096 208.296 328.416C208.296 328.8 208.403 329.12 208.616 329.376C208.829 329.632 209.107 329.76 209.448 329.76H210.376V330.784H202.472V329.76H203.592C204.04 329.76 204.509 329.6 205 329.28C205.469 328.981 205.885 328.608 206.248 328.16L210.536 323.2L203.784 310.432C203.507 309.899 203.24 309.525 202.984 309.312C202.728 309.12 202.355 309.024 201.864 309.024H201V308H211.048V309.024H209.768C209.576 309.024 209.416 309.088 209.288 309.216C209.16 309.365 209.096 309.525 209.096 309.696C209.096 309.824 209.117 309.963 209.16 310.112C209.181 310.283 209.213 310.411 209.256 310.496L213.896 319.328L215.272 317.76V309.792C215.272 309.515 215.219 309.312 215.112 309.184C214.984 309.077 214.781 309.024 214.504 309.024H212.52V308H223.016V309.024Z" fill="#D3AF37"/>
<path d="M50.6822 77.2318C50.6822 81.1462 47.3072 82.9393 44.9734 82.9405C42.3709 82.9405 40.4047 81.7618 39.2341 80.7993C39.3884 83.9837 40.1422 86.2587 43.5247 88.0493H32.4753C35.8578 86.2587 36.6116 83.9837 36.7659 80.7993C35.5953 81.7612 33.6284 82.9418 31.0266 82.9405C28.6959 82.9405 25.3178 81.1462 25.3178 77.2318C25.3178 70.0774 30.3578 72.0243 37.9997 59.9512C45.6422 72.0243 50.6822 70.078 50.6822 77.2318Z" fill="url(#paint1_linear_10_2032)"/>
<path d="M228.682 276.768C228.682 272.854 225.307 271.061 222.973 271.059C220.371 271.059 218.405 272.238 217.234 273.201C217.388 270.016 218.142 267.741 221.525 265.951H210.475C213.858 267.741 214.612 270.016 214.766 273.201C213.595 272.239 211.628 271.058 209.027 271.059C206.696 271.059 203.318 272.854 203.318 276.768C203.318 283.923 208.358 281.976 216 294.049C223.642 281.976 228.682 283.922 228.682 276.768Z" fill="url(#paint2_linear_10_2032)"/>
<line x1="61" y1="37.5" x2="216" y2="37.5" stroke="#D3AF37"/>
<line x1="216.5" y1="37" x2="216.5" y2="260" stroke="#D3AF37"/>
<line x1="193" y1="316.5" x2="38" y2="316.5" stroke="#D3AF37"/>
<line x1="37.5" y1="317" x2="37.5" y2="94" stroke="#D3AF37"/>
<path d="M84.936 224.904H93.896C95.0907 224.904 95.9013 224.691 96.328 224.264C96.7547 223.752 96.968 222.941 96.968 221.832V145.032C96.968 143.837 96.7547 143.027 96.328 142.6C95.9013 142.173 95.0907 141.96 93.896 141.96H84.936V137.864H126.92V141.96H118.984C117.875 141.96 117.064 142.173 116.552 142.6C116.125 143.027 115.912 143.837 115.912 145.032V182.92L140.616 154.248C141.811 152.883 142.621 151.731 143.048 150.792C143.56 149.768 143.816 148.616 143.816 147.336C143.816 145.8 143.389 144.52 142.536 143.496C141.683 142.472 140.573 141.96 139.208 141.96H135.496V137.864H167.112V141.96H162.632C160.84 141.96 158.963 142.6 157 143.88C155.123 145.075 153.459 146.568 152.008 148.36L134.856 168.2L161.864 219.272C162.973 221.405 164.04 222.899 165.064 223.752C166.088 224.52 167.581 224.904 169.544 224.904H173V229H132.808V224.904H137.928C138.696 224.904 139.336 224.648 139.848 224.136C140.36 223.539 140.616 222.899 140.616 222.216C140.616 221.704 140.531 221.149 140.36 220.552C140.275 219.869 140.147 219.357 139.976 219.016L121.416 183.688L115.912 189.96V221.832C115.912 222.941 116.125 223.752 116.552 224.264C117.064 224.691 117.875 224.904 118.984 224.904H126.92V229H84.936V224.904Z" fill="url(#paint3_linear_10_2032)"/>
<path d="M114.675 93.7051C115.884 93.7051 116.862 92.3098 116.862 90.5874C116.862 88.8651 115.884 87.4697 114.675 87.4697C113.468 87.4697 112.49 88.8651 112.49 90.5874C112.49 92.3098 113.468 93.7051 114.675 93.7051Z" fill="url(#paint4_linear_10_2032)"/>
<path d="M107.374 98.0521C107.374 96.3299 106.394 94.9346 105.187 94.9346C103.98 94.9346 103 96.3299 103 98.0521C103 99.7745 103.98 101.17 105.187 101.17C106.394 101.17 107.374 99.7745 107.374 98.0521Z" fill="url(#paint5_linear_10_2032)"/>
<path d="M139.325 93.7051C140.533 93.7051 141.512 92.3098 141.512 90.5874C141.512 88.8651 140.533 87.4697 139.325 87.4697C138.118 87.4697 137.139 88.8651 137.139 90.5874C137.139 92.3098 138.118 93.7051 139.325 93.7051Z" fill="url(#paint6_linear_10_2032)"/>
<path d="M148.814 94.9346C147.606 94.9346 146.627 96.3299 146.627 98.0521C146.627 99.7745 147.606 101.17 148.814 101.17C150.021 101.17 151 99.7745 151 98.0521C151 96.3299 150.021 94.9346 148.814 94.9346Z" fill="url(#paint7_linear_10_2032)"/>
<path d="M143.492 123.148H110.509V128H143.492V123.148Z" fill="url(#paint8_linear_10_2032)"/>
<path d="M140.518 106.272C137.337 103.155 139.127 95.2178 139.127 95.2178L137.309 94.4611C133.492 104.806 127.877 104.321 128.315 92.7596V89.0546H131.473V85.3049H128.315V80H125.685V85.3047H122.525V89.0545H125.685V92.7594C126.123 104.321 120.51 104.806 116.691 94.4609L114.875 95.2177C114.875 95.2177 116.663 103.155 113.483 106.272C110.302 109.39 107.518 101.737 107.518 101.737L105.73 102.87L110.7 119.878H143.3L148.27 102.871L146.481 101.738C146.481 101.738 143.699 109.39 140.518 106.272ZM119.017 112.697C118.149 112.697 117.445 111.694 117.445 110.456C117.445 109.219 118.149 108.217 119.017 108.217C119.884 108.217 120.588 109.219 120.588 110.456C120.588 111.694 119.884 112.697 119.017 112.697ZM127.001 111.577C126.133 111.577 125.429 110.574 125.429 109.336C125.429 108.1 126.133 107.097 127.001 107.097C127.868 107.097 128.571 108.1 128.571 109.336C128.571 110.574 127.868 111.577 127.001 111.577ZM134.984 112.697C134.116 112.697 133.414 111.694 133.414 110.456C133.414 109.219 134.116 108.217 134.984 108.217C135.852 108.217 136.555 109.219 136.555 110.456C136.555 111.694 135.852 112.697 134.984 112.697Z" fill="url(#paint9_linear_10_2032)"/>
<defs>
<linearGradient id="paint0_linear_10_2032" x1="252" y1="352" x2="2.00002" y2="1.99999" gradientUnits="userSpaceOnUse">
<stop/>
<stop offset="1" stop-color="#3F3E3E"/>
</linearGradient>
<linearGradient id="paint1_linear_10_2032" x1="30.7928" y1="68.2935" x2="41.4775" y2="84.3805" gradientUnits="userSpaceOnUse">
<stop stop-color="#FFE079"/>
<stop offset="0.44" stop-color="#D3AF37"/>
</linearGradient>
<linearGradient id="paint2_linear_10_2032" x1="210.5" y1="271" x2="220.5" y2="286" gradientUnits="userSpaceOnUse">
<stop stop-color="#FFE079"/>
<stop offset="0.44" stop-color="#D3AF37"/>
</linearGradient>
<linearGradient id="paint3_linear_10_2032" x1="82" y1="137" x2="176" y2="229" gradientUnits="userSpaceOnUse">
<stop offset="0.116628" stop-color="#FFE079"/>
<stop offset="0.423834" stop-color="#D3AF37"/>
</linearGradient>
<linearGradient id="paint4_linear_10_2032" x1="112.71" y1="88.2985" x2="116.406" y2="92.3463" gradientUnits="userSpaceOnUse">
<stop offset="0.116628" stop-color="#FFE079"/>
<stop offset="0.423834" stop-color="#D3AF37"/>
</linearGradient>
<linearGradient id="paint5_linear_10_2032" x1="103.221" y1="95.7633" x2="106.916" y2="99.8124" gradientUnits="userSpaceOnUse">
<stop offset="0.116628" stop-color="#FFE079"/>
<stop offset="0.423834" stop-color="#D3AF37"/>
</linearGradient>
<linearGradient id="paint6_linear_10_2032" x1="137.36" y1="88.2985" x2="141.055" y2="92.3463" gradientUnits="userSpaceOnUse">
<stop offset="0.116628" stop-color="#FFE079"/>
<stop offset="0.423834" stop-color="#D3AF37"/>
</linearGradient>
<linearGradient id="paint7_linear_10_2032" x1="146.848" y1="95.7633" x2="150.543" y2="99.8111" gradientUnits="userSpaceOnUse">
<stop offset="0.116628" stop-color="#FFE079"/>
<stop offset="0.423834" stop-color="#D3AF37"/>
</linearGradient>
<linearGradient id="paint8_linear_10_2032" x1="112.175" y1="123.793" x2="112.714" y2="129.517" gradientUnits="userSpaceOnUse">
<stop offset="0.116628" stop-color="#FFE079"/>
<stop offset="0.423834" stop-color="#D3AF37"/>
</linearGradient>
<linearGradient id="paint9_linear_10_2032" x1="107.879" y1="85.3003" x2="128.82" y2="120.193" gradientUnits="userSpaceOnUse">
<stop offset="0.116628" stop-color="#FFE079"/>
<stop offset="0.423834" stop-color="#D3AF37"/>
</linearGradient>
</defs>
</svg>
